999
dxfrw 0.6.3
  0
SECTION
  2
HEADER
  9
$ACADVER
  1
AC1021
  9
$DWGCODEPAGE
  3
ANSI_1252
  9
$INSBASE
 10
0
 20
0
 30
0
  9
$EXTMIN
 10
-835.6782902992807
 20
-511.4010292991552
 30
0
  9
$EXTMAX
 10
1080.617816812803
 20
948.1691936086658
 30
0
  9
$LIMMIN
 10
0
 20
0
  9
$LIMMAX
 10
420
 20
297
  9
$ORTHOMODE
 70
    0
  9
$REGENMODE
 70
    1
  9
$FILLMODE
 70
    1
  9
$QTEXTMODE
 70
    0
  9
$MIRRTEXT
 70
    0
  9
$LTSCALE
 40
1
  9
$ATTMODE
 70
    0
  9
$TEXTSIZE
 40
2.5
  9
$TRACEWID
 40
15.68
  9
$TEXTSTYLE
  7
STANDARD
  9
$CLAYER
  8
lines
  9
$CELTYPE
  6
BYLAYER
  9
$CECOLOR
 62
  256
  9
$CELTSCALE
 40
1
  9
$DISPSILH
 70
    0
  9
$DIMSCALE
 40
1
  9
$DIMASZ
 40
2.5
  9
$DIMEXO
 40
0.625
  9
$DIMDLI
 40
3.75
  9
$DIMRND
 40
0
  9
$DIMDLE
 40
0
  9
$DIMEXE
 40
1.25
  9
$DIMTP
 40
0
  9
$DIMTM
 40
0
  9
$DIMTXT
 40
2.5
  9
$DIMCEN
 40
2.5
  9
$DIMTSZ
 40
0
  9
$DIMTOL
 70
    0
  9
$DIMLIM
 70
    0
  9
$DIMTIH
 70
    0
  9
$DIMTOH
 70
    0
  9
$DIMSE1
 70
    0
  9
$DIMSE2
 70
    0
  9
$DIMTAD
 70
    1
  9
$DIMZIN
 70
    1
  9
$DIMBLK
  1

  9
$DIMASO
 70
    1
  9
$DIMSHO
 70
    1
  9
$DIMPOST
  1

  9
$DIMAPOST
  1

  9
$DIMALT
 70
    0
  9
$DIMALTD
 70
    3
  9
$DIMALTF
 40
0.03937
  9
$DIMLFAC
 40
1
  9
$DIMTOFL
 70
    1
  9
$DIMTVP
 40
0
  9
$DIMTIX
 70
    0
  9
$DIMSOXD
 70
    0
  9
$DIMSAH
 70
    0
  9
$DIMBLK1
  1

  9
$DIMBLK2
  1

  9
$DIMSTYLE
  2
STANDARD
  9
$DIMCLRD
 70
    0
  9
$DIMCLRE
 70
    0
  9
$DIMCLRT
 70
    0
  9
$DIMTFAC
 40
1
  9
$DIMGAP
 40
0.625
  9
$DIMJUST
 70
    0
  9
$DIMSD1
 70
    0
  9
$DIMSD2
 70
    0
  9
$DIMTOLJ
 70
    0
  9
$DIMTZIN
 70
    8
  9
$DIMALTZ
 70
    0
  9
$DIMALTTZ
 70
    0
  9
$DIMUPT
 70
    0
  9
$DIMDEC
 70
    4
  9
$DIMTDEC
 70
    2
  9
$DIMALTU
 70
    2
  9
$DIMALTTD
 70
    3
  9
$DIMTXSTY
  7
standard
  9
$DIMAUNIT
 70
    0
  9
$DIMADEC
 70
    2
  9
$DIMALTRND
 40
0
  9
$DIMAZIN
 70
    0
  9
$DIMDSEP
 70
   44
  9
$DIMATFIT
 70
    3
  9
$DIMFRAC
 70
    0
  9
$DIMLDRBLK
  1
STANDARD
  9
$DIMLUNIT
 70
    2
  9
$DIMLWD
 70
   -2
  9
$DIMLWE
 70
   -2
  9
$DIMTMOVE
 70
    0
  9
$DIMFXL
 40
1
  9
$DIMFXLON
 70
    0
  9
$DIMJOGANG
 40
0.7854
  9
$DIMTFILL
 70
    0
  9
$DIMTFILLCLR
 70
    0
  9
$DIMARCSYM
 70
    0
  9
$DIMLTYPE
  6

  9
$DIMLTEX1
  6

  9
$DIMLTEX2
  6

  9
$LUNITS
 70
    2
  9
$LUPREC
 70
    4
  9
$SKETCHINC
 40
1
  9
$FILLETRAD
 40
0
  9
$AUNITS
 70
    0
  9
$AUPREC
 70
    2
  9
$MENU
  1
.
  9
$ELEVATION
 40
0
  9
$PELEVATION
 40
0
  9
$THICKNESS
 40
0
  9
$LIMCHECK
 70
    0
  9
$CHAMFERA
 40
0
  9
$CHAMFERB
 40
0
  9
$CHAMFERC
 40
0
  9
$CHAMFERD
 40
0
  9
$SKPOLY
 70
    0
  9
$USRTIMER
 70
    1
  9
$ANGBASE
 50
0
  9
$ANGDIR
 70
    0
  9
$PDMODE
 70
   34
  9
$PDSIZE
 40
0
  9
$PLINEWID
 40
0
  9
$SPLFRAME
 70
    0
  9
$SPLINETYPE
 70
    2
  9
$SPLINESEGS
 70
    8
  9
$HANDSEED
  5
20000
  9
$SURFTAB1
 70
    6
  9
$SURFTAB2
 70
    6
  9
$SURFTYPE
 70
    6
  9
$SURFU
 70
    6
  9
$SURFV
 70
    6
  9
$UCSBASE
  2

  9
$UCSNAME
  2

  9
$UCSORG
 10
0
 20
0
 30
0
  9
$UCSXDIR
 10
1
 20
0
 30
0
  9
$UCSYDIR
 10
0
 20
1
 30
0
  9
$UCSORTHOREF
  2

  9
$UCSORTHOVIEW
 70
    0
  9
$UCSORGTOP
 10
0
 20
0
 30
0
  9
$UCSORGBOTTOM
 10
0
 20
0
 30
0
  9
$UCSORGLEFT
 10
0
 20
0
 30
0
  9
$UCSORGRIGHT
 10
0
 20
0
 30
0
  9
$UCSORGFRONT
 10
0
 20
0
 30
0
  9
$UCSORGBACK
 10
0
 20
0
 30
0
  9
$PUCSBASE
  2

  9
$PUCSNAME
  2

  9
$PUCSORG
 10
0
 20
0
 30
0
  9
$PUCSXDIR
 10
1
 20
0
 30
0
  9
$PUCSYDIR
 10
0
 20
1
 30
0
  9
$PUCSORTHOREF
  2

  9
$PUCSORTHOVIEW
 70
    0
  9
$PUCSORGTOP
 10
0
 20
0
 30
0
  9
$PUCSORGBOTTOM
 10
0
 20
0
 30
0
  9
$PUCSORGLEFT
 10
0
 20
0
 30
0
  9
$PUCSORGRIGHT
 10
0
 20
0
 30
0
  9
$PUCSORGFRONT
 10
0
 20
0
 30
0
  9
$PUCSORGBACK
 10
0
 20
0
 30
0
  9
$USERI1
 70
    0
  9
$USERI2
 70
    0
  9
$USERI3
 70
    0
  9
$USERI4
 70
    0
  9
$USERI5
 70
    0
  9
$USERR1
 40
0
  9
$USERR2
 40
0
  9
$USERR3
 40
0
  9
$USERR4
 40
0
  9
$USERR5
 40
0
  9
$WORLDVIEW
 70
    1
  9
$SHADEDGE
 70
    3
  9
$SHADEDIF
 70
   70
  9
$TILEMODE
 70
    1
  9
$MAXACTVP
 70
   64
  9
$PINSBASE
 10
248.4085473408219
 20
602.6788630221979
 30
0
  9
$PLIMCHECK
 70
    0
  9
$PEXTMIN
 10
0
 20
0
 30
0
  9
$PEXTMAX
 10
0
 20
0
 30
0
  9
$GRIDMODE
 70
    0
  9
$SNAPSTYLE
 70
    0
  9
$GRIDUNIT
 10
0
 20
0
  9
$PLIMMIN
 10
0
 20
0
  9
$PLIMMAX
 10
1189
 20
1682
  9
$UNITMODE
 70
    0
  9
$VISRETAIN
 70
    1
  9
$PLINEGEN
 70
    0
  9
$PSLTSCALE
 70
    1
  9
$TREEDEPTH
 70
 3020
  9
$CMLSTYLE
  2
Standard
  9
$CMLJUST
 70
    0
  9
$CMLSCALE
 40
20
  9
$PROXYGRAPHICS
 70
    1
  9
$MEASUREMENT
 70
    1
  9
$CELWEIGHT
370
   -1
  9
$ENDCAPS
280
    0
  9
$JOINSTYLE
280
    0
  9
$LWDISPLAY
290
    0
  9
$INSUNITS
 70
    0
  9
$HYPERLINKBASE
  1

  9
$STYLESHEET
  1

  9
$XEDIT
290
    1
  9
$CEPSNTYPE
380
    0
  9
$PSTYLEMODE
290
    1
  9
$EXTNAMES
290
    1
  9
$PSVPSCALE
 40
1
  9
$OLESTARTUP
290
    0
  9
$SORTENTS
280
  127
  9
$INDEXCTL
280
    0
  9
$HIDETEXT
280
    1
  9
$XCLIPFRAME
290
    0
  9
$HALOGAP
280
    0
  9
$OBSCOLOR
 70
  257
  9
$OBSLTYPE
280
    0
  9
$INTERSECTIONDISPLAY
280
    0
  9
$INTERSECTIONCOLOR
 70
  257
  9
$DIMASSOC
280
    1
  9
$PROJECTNAME
  1

  9
$CAMERADISPLAY
290
    0
  9
$LENSLENGTH
 40
50
  9
$CAMERAHEIGHT
 40
0
  9
$STEPSPERSEC
 40
2
  9
$STEPSIZE
 40
50
  9
$3DDWFPREC
 40
2
  9
$PSOLWIDTH
 40
5
  9
$PSOLHEIGHT
 40
80
  9
$LOFTANG1
 40
1.570796326794897
  9
$LOFTANG2
 40
1.570796326794897
  9
$LOFTMAG1
 40
0
  9
$LOFTMAG2
 40
0
  9
$LOFTPARAM
 70
    7
  9
$LOFTNORMALS
280
    1
  9
$LATITUDE
 40
1
  9
$LONGITUDE
 40
1
  9
$NORTHDIRECTION
 40
0
  9
$TIMEZONE
 70
-8000
  9
$LIGHTGLYPHDISPLAY
280
    1
  9
$TILEMODELIGHTSYNCH
280
    1
  9
$SOLIDHIST
280
    1
  9
$SHOWHIST
280
    1
  9
$DWFFRAME
280
    2
  9
$DGNFRAME
280
    0
  9
$REALWORLDSCALE
290
    1
  9
$INTERFERECOLOR
 62
    1
  9
$CSHADOW
280
    0
  9
$SHADOWPLANELOCATION
 40
0
  0
ENDSEC
  0
SECTION
  2
CLASSES
  0
ENDSEC
  0
SECTION
  2
TABLES
  0
TABLE
  2
VPORT
  5
8
330
0
100
AcDbSymbolTable
 70
    1
  0
VPORT
  5
31
330
2
100
AcDbSymbolTableRecord
100
AcDbViewportTableRecord
  2
*ACTIVE
 70
    0
 10
0
 20
0
 11
1
 21
1
 12
737.7609050217128
 22
487.8527065639074
 13
0
 23
0
 14
10
 24
10
 15
10
 25
10
 16
0
 26
0
 36
1
 17
0
 27
0
 37
0
 40
1512.742180026503
 41
1.787346221441125
 42
50
 43
0
 44
0
 50
0
 51
0
 71
    0
 72
  100
 73
    1
 74
    3
 75
    0
 76
    0
 77
    0
 78
    0
281
    0
 65
    1
110
0
120
0
130
0
111
1
121
0
131
0
112
0
122
1
132
0
 79
    0
146
0
348
10020
 60
    7
 61
    5
292
1
282
    1
141
0
142
0
 63
  250
421
3358443
  0
ENDTAB
  0
TABLE
  2
LTYPE
  5
5
330
0
100
AcDbSymbolTable
 70
    4
  0
LTYPE
  5
14
330
5
100
AcDbSymbolTableRecord
100
AcDbLinetypeTableRecord
  2
ByBlock
 70
    0
  3

 72
   65
 73
    0
 40
0
  0
LTYPE
  5
15
330
5
100
AcDbSymbolTableRecord
100
AcDbLinetypeTableRecord
  2
ByLayer
 70
    0
  3

 72
   65
 73
    0
 40
0
  0
LTYPE
  5
16
330
5
100
AcDbSymbolTableRecord
100
AcDbLinetypeTableRecord
  2
Continuous
 70
    0
  3
Solid line
 72
   65
 73
    0
 40
0
  0
LTYPE
  5
32
330
5
100
AcDbSymbolTableRecord
100
AcDbLinetypeTableRecord
  2
DOT
 70
    0
  3
Dot . . . . . . . . . . . . . . . . . . . . . .
 72
   65
 73
    2
 40
6.35
 49
0
 74
    0
 49
-6.35
 74
    0
  0
LTYPE
  5
33
330
5
100
AcDbSymbolTableRecord
100
AcDbLinetypeTableRecord
  2
DOTTINY
 70
    0
  3
Dot (.15x) .....................................
 72
   65
 73
    2
 40
0.9525
 49
0
 74
    0
 49
-0.9525
 74
    0
  0
LTYPE
  5
34
330
5
100
AcDbSymbolTableRecord
100
AcDbLinetypeTableRecord
  2
DOT2
 70
    0
  3
Dot (.5x) .....................................
 72
   65
 73
    2
 40
3.175
 49
0
 74
    0
 49
-3.175
 74
    0
  0
LTYPE
  5
35
330
5
100
AcDbSymbolTableRecord
100
AcDbLinetypeTableRecord
  2
DOTX2
 70
    0
  3
Dot (2x) .  .  .  .  .  .  .  .  .  .  .  .  .
 72
   65
 73
    2
 40
12.7
 49
0
 74
    0
 49
-12.7
 74
    0
  0
LTYPE
  5
36
330
5
100
AcDbSymbolTableRecord
100
AcDbLinetypeTableRecord
  2
DASHED
 70
    0
  3
Dashed _ _ _ _ _ _ _ _ _ _ _ _ _ _ _ _ _
 72
   65
 73
    2
 40
19.05
 49
12.7
 74
    0
 49
-6.35
 74
    0
  0
LTYPE
  5
37
330
5
100
AcDbSymbolTableRecord
100
AcDbLinetypeTableRecord
  2
DASHEDTINY
 70
    0
  3
Dashed (.15x) _ _ _ _ _ _ _ _ _ _ _ _ _ _ _ _ _
 72
   65
 73
    2
 40
2.8575
 49
1.905
 74
    0
 49
-0.9525
 74
    0
  0
LTYPE
  5
38
330
5
100
AcDbSymbolTableRecord
100
AcDbLinetypeTableRecord
  2
DASHED2
 70
    0
  3
Dashed (.5x) _ _ _ _ _ _ _ _ _ _ _ _ _ _ _ _ _
 72
   65
 73
    2
 40
9.524999999999999
 49
6.35
 74
    0
 49
-3.175
 74
    0
  0
LTYPE
  5
39
330
5
100
AcDbSymbolTableRecord
100
AcDbLinetypeTableRecord
  2
DASHEDX2
 70
    0
  3
Dashed (2x) ____  ____  ____  ____  ____  ___
 72
   65
 73
    2
 40
38.09999999999999
 49
25.4
 74
    0
 49
-12.7
 74
    0
  0
LTYPE
  5
3A
330
5
100
AcDbSymbolTableRecord
100
AcDbLinetypeTableRecord
  2
DASHDOT
 70
    0
  3
Dash dot __ . __ . __ . __ . __ . __ . __ . __
 72
   65
 73
    4
 40
25.4
 49
12.7
 74
    0
 49
-6.35
 74
    0
 49
0
 74
    0
 49
-6.35
 74
    0
  0
LTYPE
  5
3B
330
5
100
AcDbSymbolTableRecord
100
AcDbLinetypeTableRecord
  2
DASHDOTTINY
 70
    0
  3
Dash dot (.15x) _._._._._._._._._._._._._._._.
 72
   65
 73
    4
 40
3.81
 49
1.905
 74
    0
 49
-0.9525
 74
    0
 49
0
 74
    0
 49
-0.9525
 74
    0
  0
LTYPE
  5
3C
330
5
100
AcDbSymbolTableRecord
100
AcDbLinetypeTableRecord
  2
DASHDOT2
 70
    0
  3
Dash dot (.5x) _._._._._._._._._._._._._._._.
 72
   65
 73
    4
 40
12.7
 49
6.35
 74
    0
 49
-3.175
 74
    0
 49
0
 74
    0
 49
-3.175
 74
    0
  0
LTYPE
  5
3D
330
5
100
AcDbSymbolTableRecord
100
AcDbLinetypeTableRecord
  2
DASHDOTX2
 70
    0
  3
Dash dot (2x) ____  .  ____  .  ____  .  ___
 72
   65
 73
    4
 40
50.8
 49
25.4
 74
    0
 49
-12.7
 74
    0
 49
0
 74
    0
 49
-12.7
 74
    0
  0
LTYPE
  5
3E
330
5
100
AcDbSymbolTableRecord
100
AcDbLinetypeTableRecord
  2
DIVIDE
 70
    0
  3
Divide ____ . . ____ . . ____ . . ____ . . ____
 72
   65
 73
    6
 40
31.75
 49
12.7
 74
    0
 49
-6.35
 74
    0
 49
0
 74
    0
 49
-6.35
 74
    0
 49
0
 74
    0
 49
-6.35
 74
    0
  0
LTYPE
  5
3F
330
5
100
AcDbSymbolTableRecord
100
AcDbLinetypeTableRecord
  2
DIVIDETINY
 70
    0
  3
Divide (.15x) __..__..__..__..__..__..__..__.._
 72
   65
 73
    6
 40
4.7625
 49
1.905
 74
    0
 49
-0.9525
 74
    0
 49
0
 74
    0
 49
-0.9525
 74
    0
 49
0
 74
    0
 49
-0.9525
 74
    0
  0
LTYPE
  5
40
330
5
100
AcDbSymbolTableRecord
100
AcDbLinetypeTableRecord
  2
DIVIDE2
 70
    0
  3
Divide (.5x) __..__..__..__..__..__..__..__.._
 72
   65
 73
    6
 40
15.875
 49
6.35
 74
    0
 49
-3.175
 74
    0
 49
0
 74
    0
 49
-3.175
 74
    0
 49
0
 74
    0
 49
-3.175
 74
    0
  0
LTYPE
  5
41
330
5
100
AcDbSymbolTableRecord
100
AcDbLinetypeTableRecord
  2
DIVIDEX2
 70
    0
  3
Divide (2x) ________  .  .  ________  .  .  _
 72
   65
 73
    6
 40
63.5
 49
25.4
 74
    0
 49
-12.7
 74
    0
 49
0
 74
    0
 49
-12.7
 74
    0
 49
0
 74
    0
 49
-12.7
 74
    0
  0
LTYPE
  5
42
330
5
100
AcDbSymbolTableRecord
100
AcDbLinetypeTableRecord
  2
BORDER
 70
    0
  3
Border __ __ . __ __ . __ __ . __ __ . __ __ .
 72
   65
 73
    6
 40
44.45
 49
12.7
 74
    0
 49
-6.35
 74
    0
 49
12.7
 74
    0
 49
-6.35
 74
    0
 49
0
 74
    0
 49
-6.35
 74
    0
  0
LTYPE
  5
43
330
5
100
AcDbSymbolTableRecord
100
AcDbLinetypeTableRecord
  2
BORDERTINY
 70
    0
  3
Border (.15x) __.__.__.__.__.__.__.__.__.__.__.
 72
   65
 73
    6
 40
6.6675
 49
1.905
 74
    0
 49
-0.9525
 74
    0
 49
1.905
 74
    0
 49
-0.9525
 74
    0
 49
0
 74
    0
 49
-0.9525
 74
    0
  0
LTYPE
  5
44
330
5
100
AcDbSymbolTableRecord
100
AcDbLinetypeTableRecord
  2
BORDER2
 70
    0
  3
Border (.5x) __.__.__.__.__.__.__.__.__.__.__.
 72
   65
 73
    6
 40
22.225
 49
6.35
 74
    0
 49
-3.175
 74
    0
 49
6.35
 74
    0
 49
-3.175
 74
    0
 49
0
 74
    0
 49
-3.175
 74
    0
  0
LTYPE
  5
45
330
5
100
AcDbSymbolTableRecord
100
AcDbLinetypeTableRecord
  2
BORDERX2
 70
    0
  3
Border (2x) ____  ____  .  ____  ____  .  ___
 72
   65
 73
    6
 40
88.89999999999999
 49
25.4
 74
    0
 49
-12.7
 74
    0
 49
25.4
 74
    0
 49
-12.7
 74
    0
 49
0
 74
    0
 49
-12.7
 74
    0
  0
LTYPE
  5
46
330
5
100
AcDbSymbolTableRecord
100
AcDbLinetypeTableRecord
  2
CENTER
 70
    0
  3
Center ____ _ ____ _ ____ _ ____ _ ____ _ ____
 72
   65
 73
    4
 40
50.8
 49
31.75
 74
    0
 49
-6.35
 74
    0
 49
6.35
 74
    0
 49
-6.35
 74
    0
  0
LTYPE
  5
47
330
5
100
AcDbSymbolTableRecord
100
AcDbLinetypeTableRecord
  2
CENTERTINY
 70
    0
  3
Center (.15x) ___ _ ___ _ ___ _ ___ _ ___ _ ___
 72
   65
 73
    4
 40
7.619999999999999
 49
4.7625
 74
    0
 49
-0.9525
 74
    0
 49
0.9525
 74
    0
 49
-0.9525
 74
    0
  0
LTYPE
  5
48
330
5
100
AcDbSymbolTableRecord
100
AcDbLinetypeTableRecord
  2
CENTER2
 70
    0
  3
Center (.5x) ___ _ ___ _ ___ _ ___ _ ___ _ ___
 72
   65
 73
    4
 40
28.575
 49
19.05
 74
    0
 49
-3.175
 74
    0
 49
3.175
 74
    0
 49
-3.175
 74
    0
  0
LTYPE
  5
49
330
5
100
AcDbSymbolTableRecord
100
AcDbLinetypeTableRecord
  2
CENTERX2
 70
    0
  3
Center (2x) ________  __  ________  __  _____
 72
   65
 73
    4
 40
101.6
 49
63.5
 74
    0
 49
-12.7
 74
    0
 49
12.7
 74
    0
 49
-12.7
 74
    0
  0
ENDTAB
  0
TABLE
  2
LAYER
  5
2
330
0
100
AcDbSymbolTable
 70
    1
  0
LAYER
  5
10
330
2
100
AcDbSymbolTableRecord
100
AcDbLayerTableRecord
  2
0
 70
    4
 62
    7
  6
CONTINUOUS
370
    0
390
F
  0
LAYER
  5
4A
330
2
100
AcDbSymbolTableRecord
100
AcDbLayerTableRecord
  2
T1
 70
    4
 62
    6
  6
DASHED
370
   13
390
F
  0
LAYER
  5
4B
330
2
100
AcDbSymbolTableRecord
100
AcDbLayerTableRecord
  2
T2
 70
    4
 62
    6
  6
DASHED
370
   13
390
F
  0
LAYER
  5
4C
330
2
100
AcDbSymbolTableRecord
100
AcDbLayerTableRecord
  2
lines
 70
    0
 62
    7
  6
CONTINUOUS
370
   18
390
F
  0
ENDTAB
  0
TABLE
  2
STYLE
  5
3
330
0
100
AcDbSymbolTable
 70
    3
  0
STYLE
  5
4D
330
2
100
AcDbSymbolTableRecord
100
AcDbTextStyleTableRecord
  2
standard
 70
    0
 40
0
 41
1
 50
0
 71
    0
 42
1
  3
standard
  4

  0
ENDTAB
  0
TABLE
  2
VIEW
  5
6
330
0
100
AcDbSymbolTable
 70
    0
  0
ENDTAB
  0
TABLE
  2
UCS
  5
7
330
0
100
AcDbSymbolTable
 70
    0
  0
ENDTAB
  0
TABLE
  2
APPID
  5
9
330
0
100
AcDbSymbolTable
 70
    1
  0
APPID
  5
12
330
9
100
AcDbSymbolTableRecord
100
AcDbRegAppTableRecord
  2
ACAD
 70
    0
  0
APPID
  5
4E
330
9
100
AcDbSymbolTableRecord
100
AcDbRegAppTableRecord
  2
LibreCad
 70
    0
  0
ENDTAB
  0
TABLE
  2
DIMSTYLE
  5
A
330
0
100
AcDbSymbolTable
 70
    1
100
AcDbDimStyleTable
 71
    1
  0
DIMSTYLE
105
4F
330
A
100
AcDbSymbolTableRecord
100
AcDbDimStyleTableRecord
  2
Standard
 70
    0
 40
1
 41
2.5
 42
0.625
 43
0.38
 44
1.25
 45
0
 46
0
 47
0
 48
0
 49
1
140
2.5
141
0.09
142
0
143
25.4
144
1
145
0
146
1
147
0.625
148
0
 71
    0
 72
    0
 73
    0
 74
    1
 75
    0
 76
    0
 77
    0
 78
    1
 79
    0
170
    0
171
    2
172
    0
173
    0
174
    0
175
    0
176
    0
177
    0
178
    0
179
    2
271
    4
272
    4
273
    2
274
    2
275
    0
276
    0
277
    2
278
   44
279
    0
280
    0
281
    0
282
    0
283
    1
284
    0
285
    0
286
    0
288
    0
289
    3
340
standard
341

371
   -2
372
   -2
  0
ENDTAB
  0
TABLE
  2
BLOCK_RECORD
  5
1
330
0
100
AcDbSymbolTable
 70
    2
  0
BLOCK_RECORD
  5
1F
330
1
100
AcDbSymbolTableRecord
100
AcDbBlockTableRecord
  2
*Model_Space
 70
    0
280
    1
281
    0
  0
BLOCK_RECORD
  5
1E
330
1
100
AcDbSymbolTableRecord
100
AcDbBlockTableRecord
  2
*Paper_Space
 70
    0
280
    1
281
    0
  0
BLOCK_RECORD
  5
50
330
1
100
AcDbSymbolTableRecord
100
AcDbBlockTableRecord
  2
*D1
 70
    0
280
    1
281
    0
  0
BLOCK_RECORD
  5
53
330
1
100
AcDbSymbolTableRecord
100
AcDbBlockTableRecord
  2
*D2
 70
    0
280
    1
281
    0
  0
BLOCK_RECORD
  5
56
330
1
100
AcDbSymbolTableRecord
100
AcDbBlockTableRecord
  2
*D3
 70
    0
280
    1
281
    0
  0
ENDTAB
  0
ENDSEC
  0
SECTION
  2
BLOCKS
  0
BLOCK
  5
20
330
1F
100
AcDbEntity
  8
0
100
AcDbBlockBegin
  2
*Model_Space
 70
    0
 10
0
 20
0
 30
0
  3
*Model_Space
  1

  0
ENDBLK
  5
21
330
1F
100
AcDbEntity
  8
0
100
AcDbBlockEnd
  0
BLOCK
  5
1C
330
1B
100
AcDbEntity
  8
0
100
AcDbBlockBegin
  2
*Paper_Space
 70
    0
 10
0
 20
0
 30
0
  3
*Paper_Space
  1

  0
ENDBLK
  5
1D
330
1F
100
AcDbEntity
  8
0
100
AcDbBlockEnd
  0
BLOCK
  5
51
330
50
100
AcDbEntity
  8
0
100
AcDbBlockBegin
  2
*D1
 70
    1
 10
0
 20
0
  3
*D1
  1

  0
LINE
  5
59
100
AcDbEntity
  8
lines
  6
ByBlock
 62
    0
370
   -2
100
AcDbLine
 10
-797.0400076584953
 20
711.2918486478418
 11
-657.0400076584953
 21
711.2918486478418
  0
SOLID
  5
5A
100
AcDbEntity
  8
lines
  6
ByBlock
 62
    0
370
   -2
100
AcDbTrace
 10
-797.0400076584953
 20
711.2918486478418
 30
0
 11
-794.5400076584953
 21
711.7081333056146
 31
0
 12
-794.5400076584953
 22
710.8755639900689
 32
0
 13
-794.5400076584953
 23
710.8755639900689
 33
0
  0
SOLID
  5
5B
100
AcDbEntity
  8
lines
  6
ByBlock
 62
    0
370
   -2
100
AcDbTrace
 10
-657.0400076584953
 20
711.2918486478418
 30
0
 11
-659.5400076584953
 21
710.8755639900689
 31
0
 12
-659.5400076584953
 22
711.7081333056146
 32
0
 13
-659.5400076584953
 23
711.7081333056146
 33
0
  0
MTEXT
  5
5C
100
AcDbEntity
  8
lines
  6
CONTINUOUS
 62
    0
370
   -2
100
AcDbMText
 10
-727.0400076584953
 20
713.1668486478418
 30
0
 40
2.5
 41
13.47222222222222
 71
    5
 72
    1
  1
140,0000
  7
standard
210
0
220
0
230
1
 50
0
 73
    2
 44
1
  0
LINE
  5
5D
100
AcDbEntity
  8
lines
  6
ByBlock
 62
    0
370
   -2
100
AcDbLine
 10
-797.0400076584953
 20
711.9168486478418
 11
-797.0400076584953
 21
712.5418486478418
  0
LINE
  5
5E
100
AcDbEntity
  8
lines
  6
ByBlock
 62
    0
370
   -2
100
AcDbLine
 10
-657.0400076584953
 20
711.9168486478418
 11
-657.0400076584953
 21
712.5418486478418
  0
ENDBLK
  5
52
330
50
100
AcDbEntity
  8
0
100
AcDbBlockEnd
  0
BLOCK
  5
54
330
53
100
AcDbEntity
  8
0
100
AcDbBlockBegin
  2
*D2
 70
    1
 10
0
 20
0
  3
*D2
  1

  0
LINE
  5
5F
100
AcDbEntity
  8
lines
  6
ByBlock
 62
    0
370
   -2
100
AcDbLine
 10
-742.0400076584951
 20
471.2918486478417
 11
-712.0400076584951
 21
471.2918486478417
  0
SOLID
  5
60
100
AcDbEntity
  8
lines
  6
ByBlock
 62
    0
370
   -2
100
AcDbTrace
 10
-742.0400076584951
 20
471.2918486478417
 30
0
 11
-739.5400076584951
 21
471.7081333056145
 31
0
 12
-739.5400076584951
 22
470.8755639900688
 32
0
 13
-739.5400076584951
 23
470.8755639900688
 33
0
  0
SOLID
  5
61
100
AcDbEntity
  8
lines
  6
ByBlock
 62
    0
370
   -2
100
AcDbTrace
 10
-712.0400076584951
 20
471.2918486478417
 30
0
 11
-714.5400076584951
 21
470.8755639900688
 31
0
 12
-714.5400076584951
 22
471.7081333056145
 32
0
 13
-714.5400076584951
 23
471.7081333056145
 33
0
  0
MTEXT
  5
62
100
AcDbEntity
  8
lines
  6
CONTINUOUS
 62
    0
370
   -2
100
AcDbMText
 10
-727.0400076584951
 20
473.1668486478417
 30
0
 40
2.5
 41
11.80555555555571
 71
    5
 72
    1
  1
30,0000
  7
standard
210
0
220
0
230
1
 50
0
 73
    2
 44
1
  0
LINE
  5
63
100
AcDbEntity
  8
lines
  6
ByBlock
 62
    0
370
   -2
100
AcDbLine
 10
-742.0400076584951
 20
471.9168486478418
 11
-742.0400076584951
 21
472.5418486478417
  0
LINE
  5
64
100
AcDbEntity
  8
lines
  6
ByBlock
 62
    0
370
   -2
100
AcDbLine
 10
-712.0400076584951
 20
471.9168486478417
 11
-712.0400076584951
 21
472.5418486478417
  0
ENDBLK
  5
55
330
53
100
AcDbEntity
  8
0
100
AcDbBlockEnd
  0
BLOCK
  5
57
330
56
100
AcDbEntity
  8
0
100
AcDbBlockBegin
  2
*D3
 70
    1
 10
0
 20
0
  3
*D3
  1

  0
LINE
  5
65
100
AcDbEntity
  8
lines
  6
ByBlock
 62
    0
370
   -2
100
AcDbLine
 10
-832.5532902992807
 20
471.2918486478418
 11
-832.5532902992807
 21
711.2918486478418
  0
SOLID
  5
66
100
AcDbEntity
  8
lines
  6
ByBlock
 62
    0
370
   -2
100
AcDbTrace
 10
-832.5532902992807
 20
471.2918486478418
 30
0
 11
-832.9695749570535
 21
473.7918486478418
 31
0
 12
-832.1370056415078
 22
473.7918486478418
 32
0
 13
-832.1370056415078
 23
473.7918486478418
 33
0
  0
SOLID
  5
67
100
AcDbEntity
  8
lines
  6
ByBlock
 62
    0
370
   -2
100
AcDbTrace
 10
-832.5532902992807
 20
711.2918486478418
 30
0
 11
-832.1370056415078
 21
708.7918486478418
 31
0
 12
-832.9695749570535
 22
708.7918486478418
 32
0
 13
-832.9695749570535
 23
708.7918486478418
 33
0
  0
MTEXT
  5
68
100
AcDbEntity
  8
lines
  6
CONTINUOUS
 62
    0
370
   -2
100
AcDbMText
 10
-834.4282902992807
 20
591.2918486478418
 30
0
 40
2.5
 41
14.02777777777778
 71
    5
 72
    1
  1
240,0000
  7
standard
210
0
220
0
230
1
 50
90
 73
    2
 44
1
  0
LINE
  5
69
100
AcDbEntity
  8
lines
  6
ByBlock
 62
    0
370
   -2
100
AcDbLine
 10
-742.6650076584953
 20
471.2918486478418
 11
-833.8032902992807
 21
471.2918486478418
  0
LINE
  5
6A
100
AcDbEntity
  8
lines
  6
ByBlock
 62
    0
370
   -2
100
AcDbLine
 10
-797.6650076584951
 20
711.2918486478418
 11
-833.8032902992807
 21
711.2918486478418
  0
ENDBLK
  5
58
330
56
100
AcDbEntity
  8
0
100
AcDbBlockEnd
  0
ENDSEC
  0
SECTION
  2
ENTITIES
  0
LINE
  5
6B
100
AcDbEntity
  8
lines
  6
ByLayer
 62
  256
370
   -1
100
AcDbLine
 10
473.0576567471877
 20
859.2428809552395
 11
478.0576567471878
 21
867.9031349930841
  0
LINE
  5
6C
100
AcDbEntity
  8
lines
  6
ByLayer
 62
  256
370
   -1
100
AcDbLine
 10
695.0296204410683
 20
486.8411442716065
 11
817.8427682010984
 21
409.9101755306203
  0
LINE
  5
6D
100
AcDbEntity
  8
lines
  6
ByLayer
 62
  256
370
   -1
100
AcDbLine
 10
626.316674825233
 20
741.6431002328002
 11
633.3877426370985
 21
748.7141680446657
  0
LINE
  5
6E
100
AcDbEntity
  8
lines
  6
ByLayer
 62
  256
370
   -1
100
AcDbLine
 10
817.8427682010984
 20
409.9101755306203
 11
827.5020264639892
 21
412.4983659816456
  0
LINE
  5
6F
100
AcDbEntity
  8
lines
  6
ByLayer
 62
  256
370
   -1
100
AcDbLine
 10
371.5147188640392
 20
810.3560458486356
 11
473.0576567471878
 21
859.2428809552396
  0
LINE
  5
70
100
AcDbEntity
  8
lines
  6
ByLayer
 62
  256
370
   -1
100
AcDbLine
 10
473.0576567471878
 20
859.2428809552396
 11
481.4918845758219
 21
746.860699620226
  0
LINE
  5
71
100
AcDbEntity
  8
lines
  6
ByLayer
 62
  256
370
   -1
100
AcDbLine
 10
481.4918845758219
 20
746.860699620226
 11
491.966386399789
 21
607.2928118073562
  0
LINE
  5
72
100
AcDbEntity
  8
lines
  6
ByLayer
 62
  256
370
   -1
100
AcDbLine
 10
491.966386399789
 20
607.2928118073562
 11
631.5342742126585
 21
596.8183099833891
  0
LINE
  5
73
100
AcDbEntity
  8
lines
  6
ByLayer
 62
  256
370
   -1
100
AcDbLine
 10
631.5342742126585
 20
596.8183099833891
 11
743.9164555476724
 21
588.3840821547551
  0
LINE
  5
74
100
AcDbEntity
  8
lines
  6
ByLayer
 62
  256
370
   -1
100
AcDbLine
 10
743.9164555476724
 20
588.3840821547551
 11
695.0296204410683
 21
486.8411442716066
  0
LINE
  5
75
100
AcDbEntity
  8
lines
  6
ByLayer
 62
  256
370
   -1
100
AcDbLine
 10
695.0296204410683
 20
486.8411442716066
 11
634.3168612061753
 21
360.7345569611414
  0
LINE
  5
76
100
AcDbEntity
  8
lines
  6
ByLayer
 62
  256
370
   -1
100
AcDbLine
 10
634.3168612061753
 20
360.7345569611414
 11
749.9489466926734
 21
281.8794283831648
  0
LINE
  5
77
100
AcDbEntity
  8
lines
  6
ByLayer
 62
  256
370
   -1
100
AcDbLine
 10
749.9489466926734
 20
281.8794283831648
 11
843.0576567471878
 21
218.3840821547551
  0
ARC
  5
78
100
AcDbEntity
  8
lines
  6
ByLayer
 62
  256
370
   -1
100
AcDbCircle
 10
103.0576567471878
 20
218.3840821547551
 40
740
100
AcDbArc
 50
0
 51
74.99999999999997
  0
LINE
  5
79
100
AcDbEntity
  8
lines
  6
ByLayer
 62
  256
370
   -1
100
AcDbLine
 10
843.0576567471878
 20
218.3840821547552
 11
853.0576567471878
 21
218.3840821547551
  0
LINE
  5
7A
100
AcDbEntity
  8
lines
  6
ByLayer
 62
  256
370
   -1
100
AcDbLine
 10
294.583750123053
 20
933.1691936086658
 11
294.583750123053
 21
773.3183979153068
  0
LINE
  5
7B
100
AcDbEntity
  8
lines
  6
ByLayer
 62
  256
370
   -1
100
AcDbLine
 10
294.583750123053
 20
773.3183979153068
 11
294.583750123053
 21
409.9101755306202
  0
LINE
  5
7C
100
AcDbEntity
  8
lines
  6
ByLayer
 62
  256
370
   -1
100
AcDbLine
 10
294.583750123053
 20
409.9101755306202
 11
294.5837501230529
 21
269.7033442043059
  0
LINE
  5
7D
100
AcDbEntity
  8
lines
  6
ByLayer
 62
  256
370
   -1
100
AcDbLine
 10
294.5837501230529
 20
269.7033442043059
 11
294.5837501230529
 21
218.3840821547551
  0
LINE
  5
7E
100
AcDbEntity
  8
lines
  6
ByLayer
 62
  256
370
   -1
100
AcDbLine
 10
473.0576567471877
 20
-422.4747166457292
 11
478.0576567471878
 21
-431.1349706835738
  0
LINE
  5
7F
100
AcDbEntity
  8
lines
  6
ByLayer
 62
  256
370
   -1
100
AcDbLine
 10
481.4918845758219
 20
-310.0925353107156
 11
626.316674825233
 21
-304.8749359232899
  0
LINE
  5
80
100
AcDbEntity
  8
lines
  6
ByLayer
 62
  256
370
   -1
100
AcDbLine
 10
626.316674825233
 20
-304.8749359232899
 11
631.5342742126585
 21
-160.0501456738788
  0
LINE
  5
81
100
AcDbEntity
  8
lines
  6
ByLayer
 62
  256
370
   -1
100
AcDbLine
 10
695.0296204410683
 20
-50.07297996209616
 11
817.8427682010984
 21
26.85798877889005
  0
LINE
  5
82
100
AcDbEntity
  8
lines
  6
ByLayer
 62
  256
370
   -1
100
AcDbLine
 10
817.8427682010984
 20
26.85798877889005
 11
749.9489466926734
 21
154.8887359263455
  0
LINE
  5
83
100
AcDbEntity
  8
lines
  6
ByLayer
 62
  256
370
   -1
100
AcDbLine
 10
626.316674825233
 20
-304.8749359232899
 11
633.3877426370985
 21
-311.9460037351554
  0
LINE
  5
84
100
AcDbEntity
  8
lines
  6
ByLayer
 62
  256
370
   -1
100
AcDbLine
 10
743.9164555476721
 20
-151.6159178452447
 11
752.5767095855166
 21
-156.6159178452448
  0
LINE
  5
85
100
AcDbEntity
  8
lines
  6
ByLayer
 62
  256
370
   -1
100
AcDbLine
 10
817.8427682010984
 20
26.85798877889005
 11
827.5020264639892
 21
24.26979832786475
  0
LINE
  5
86
100
AcDbEntity
  8
lines
  6
ByLayer
 62
  256
370
   -1
100
AcDbLine
 10
371.5147188640392
 20
-373.5878815391254
 11
473.0576567471878
 21
-422.4747166457292
  0
LINE
  5
87
100
AcDbEntity
  8
lines
  6
ByLayer
 62
  256
370
   -1
100
AcDbLine
 10
473.0576567471878
 20
-422.4747166457292
 11
481.4918845758219
 21
-310.0925353107157
  0
LINE
  5
88
100
AcDbEntity
  8
lines
  6
ByLayer
 62
  256
370
   -1
100
AcDbLine
 10
481.4918845758219
 20
-310.0925353107157
 11
491.9663863997891
 21
-170.5246474978459
  0
LINE
  5
89
100
AcDbEntity
  8
lines
  6
ByLayer
 62
  256
370
   -1
100
AcDbLine
 10
491.9663863997891
 20
-170.5246474978459
 11
631.5342742126585
 21
-160.0501456738788
  0
LINE
  5
8A
100
AcDbEntity
  8
lines
  6
ByLayer
 62
  256
370
   -1
100
AcDbLine
 10
631.5342742126585
 20
-160.0501456738788
 11
743.9164555476724
 21
-151.6159178452448
  0
LINE
  5
8B
100
AcDbEntity
  8
lines
  6
ByLayer
 62
  256
370
   -1
100
AcDbLine
 10
743.9164555476724
 20
-151.6159178452448
 11
695.0296204410683
 21
-50.07297996209627
  0
LINE
  5
8C
100
AcDbEntity
  8
lines
  6
ByLayer
 62
  256
370
   -1
100
AcDbLine
 10
695.0296204410683
 20
-50.07297996209627
 11
634.3168612061753
 21
76.03360734836895
  0
LINE
  5
8D
100
AcDbEntity
  8
lines
  6
ByLayer
 62
  256
370
   -1
100
AcDbLine
 10
634.3168612061753
 20
76.03360734836895
 11
749.9489466926734
 21
154.8887359263455
  0
LINE
  5
8E
100
AcDbEntity
  8
lines
  6
ByLayer
 62
  256
370
   -1
100
AcDbLine
 10
749.9489466926734
 20
154.8887359263455
 11
843.0576567471878
 21
218.3840821547552
  0
LINE
  5
8F
100
AcDbEntity
  8
lines
  6
ByLayer
 62
  256
370
   -1
100
AcDbLine
 10
294.5837501230531
 20
-336.5502336057966
 11
371.5147188640392
 21
-373.5878815391254
  0
ARC
  5
90
100
AcDbEntity
  8
lines
  6
ByLayer
 62
  256
370
   -1
100
AcDbCircle
 10
103.0576567471878
 20
218.3840821547552
 40
740
100
AcDbArc
 50
285.0000000000001
 51
0
  0
LINE
  5
91
100
AcDbEntity
  8
lines
  6
ByLayer
 62
  256
370
   -1
100
AcDbLine
 10
843.0576567471878
 20
218.3840821547551
 11
853.0576567471878
 21
218.3840821547552
  0
LINE
  5
92
100
AcDbEntity
  8
lines
  6
ByLayer
 62
  256
370
   -1
100
AcDbLine
 10
294.5837501230531
 20
-496.4010292991555
 11
294.5837501230531
 21
-336.5502336057966
  0
LINE
  5
93
100
AcDbEntity
  8
lines
  6
ByLayer
 62
  256
370
   -1
100
AcDbLine
 10
294.5837501230531
 20
-336.5502336057966
 11
294.583750123053
 21
26.85798877889005
  0
LINE
  5
94
100
AcDbEntity
  8
lines
  6
ByLayer
 62
  256
370
   -1
100
AcDbLine
 10
294.583750123053
 20
26.85798877889005
 11
294.5837501230529
 21
167.0648201052044
  0
LINE
  5
95
100
AcDbEntity
  8
lines
  6
ByLayer
 62
  256
370
   -1
100
AcDbLine
 10
294.5837501230529
 20
167.0648201052044
 11
294.5837501230529
 21
218.3840821547552
  0
MTEXT
  5
96
100
AcDbEntity
  8
lines
  6
ByLayer
 62
  256
370
   -1
100
AcDbMText
 10
320.5291022530602
 20
828.0335141537389
 30
0
 40
25
 41
5.555555555555555
 71
    5
 72
    1
  1
1
  7
standard
210
0
220
0
230
1
 50
0
 73
    2
 44
1
  0
MTEXT
  5
97
100
AcDbEntity
  8
lines
  6
ByLayer
 62
  256
370
   -1
100
AcDbMText
 10
318.4906496290827
 20
-392.8590246693761
 30
0
 40
25
 41
5.555555555555555
 71
    5
 72
    1
  1
1
  7
standard
210
0
220
0
230
1
 50
0
 73
    2
 44
1
  0
MTEXT
  5
98
100
AcDbEntity
  8
lines
  6
ByLayer
 62
  256
370
   -1
100
AcDbMText
 10
557.8034204377557
 20
677.8687306665103
 30
0
 40
25
 41
11.11111111111111
 71
    5
 72
    1
  1
2
  7
standard
210
0
220
0
230
1
 50
0
 73
    2
 44
1
  0
MTEXT
  5
99
100
AcDbEntity
  8
lines
  6
ByLayer
 62
  256
370
   -1
100
AcDbMText
 10
727.8959432618246
 20
377.7054550946238
 30
0
 40
25
 41
11.11111111111111
 71
    5
 72
    1
  1
2
  7
standard
210
0
220
0
230
1
 50
0
 73
    2
 44
1
  0
MTEXT
  5
9A
100
AcDbEntity
  8
lines
  6
ByLayer
 62
  256
370
   -1
100
AcDbMText
 10
720.3918613725275
 20
60.03265511437729
 30
0
 40
25
 41
11.11111111111111
 71
    5
 72
    1
  1
2
  7
standard
210
0
220
0
230
1
 50
0
 73
    2
 44
1
  0
MTEXT
  5
9B
100
AcDbEntity
  8
lines
  6
ByLayer
 62
  256
370
   -1
100
AcDbMText
 10
550.2993385484585
 20
-235.1278991979777
 30
0
 40
25
 41
11.11111111111111
 71
    5
 72
    1
  1
2
  7
standard
210
0
220
0
230
1
 50
0
 73
    2
 44
1
  0
MTEXT
  5
9C
100
AcDbEntity
  8
lines
  6
ByLayer
 62
  256
370
   -1
100
AcDbMText
 10
380.4074896175804
 20
674.1875311044246
 30
0
 40
25
 41
11.11111111111266
 71
    5
 72
    1
  1
3
  7
standard
210
0
220
0
230
1
 50
0
 73
    2
 44
1
  0
MTEXT
  5
9D
100
AcDbEntity
  8
lines
  6
ByLayer
 62
  256
370
   -1
100
AcDbMText
 10
506.050312302267
 20
471.1502907641797
 30
0
 40
25
 41
13.88888888888889
 71
    5
 72
    1
  1
4
  7
standard
210
0
220
0
230
1
 50
0
 73
    2
 44
1
  0
MTEXT
  5
9E
100
AcDbEntity
  8
lines
  6
ByLayer
 62
  256
370
   -1
100
AcDbMText
 10
375.5545795946362
 20
-204.8479525061652
 30
0
 40
25
 41
11.11111111111266
 71
    5
 72
    1
  1
3\P
  7
standard
210
0
220
0
230
1
 50
0
 73
    2
 44
1
  0
MTEXT
  5
9F
100
AcDbEntity
  8
lines
  6
ByLayer
 62
  256
370
   -1
100
AcDbMText
 10
500.7394394595149
 20
7.586961203932043
 30
0
 40
25
 41
13.88888888888889
 71
    5
 72
    1
  1
4
  7
standard
210
0
220
0
230
1
 50
0
 73
    2
 44
1
  0
MTEXT
  5
A0
100
AcDbEntity
  8
lines
  6
ByLayer
 62
  256
370
   -1
100
AcDbMText
 10
599.4765292384847
 20
216.4776355583417
 30
0
 40
25
 41
11.11111111111266
 71
    5
 72
    1
  1
5
  7
standard
210
0
220
0
230
1
 50
0
 73
    2
 44
1
  0
LINE
  5
A1
100
AcDbEntity
  8
lines
  6
ByLayer
 62
  256
370
   -1
100
AcDbLine
 10
294.5837501230536
 20
933.1691936086655
 11
34.58375012305359
 21
563.1691936086655
  0
LINE
  5
A2
100
AcDbEntity
  8
lines
  6
ByLayer
 62
  256
370
   -1
100
AcDbLine
 10
34.58375012305359
 20
563.1691936086655
 11
294.5837501230536
 21
193.1691936086658
  0
LINE
  5
A3
100
AcDbEntity
  8
lines
  6
ByLayer
 62
  256
370
   -1
100
AcDbLine
 10
294.5837501230547
 20
-496.401029299155
 11
34.58375012305459
 21
-126.4010292991549
  0
LINE
  5
A4
100
AcDbEntity
  8
lines
  6
ByLayer
 62
  256
370
   -1
100
AcDbLine
 10
34.58375012305459
 20
-126.4010292991549
 11
294.5837501230546
 21
243.5989707008449
  0
LINE
  5
A5
100
AcDbEntity
  8
lines
  6
ByLayer
 62
  256
370
   -1
100
AcDbLine
 10
481.4918845758219
 20
746.8606996202258
 11
626.316674825233
 21
741.6431002328002
  0
LINE
  5
A6
100
AcDbEntity
  8
lines
  6
ByLayer
 62
  256
370
   -1
100
AcDbLine
 10
626.316674825233
 20
741.6431002328002
 11
631.5342742126585
 21
596.818309983389
  0
LINE
  5
A7
100
AcDbEntity
  8
lines
  6
ByLayer
 62
  256
370
   -1
100
AcDbLine
 10
817.8427682010984
 20
409.9101755306203
 11
749.9489466926734
 21
281.8794283831647
  0
LINE
  5
A8
100
AcDbEntity
  8
lines
  6
ByLayer
 62
  256
370
   -1
100
AcDbLine
 10
294.5837501230545
 20
773.3183979153077
 11
371.5147188640392
 21
810.3560458486356
  0
LINE
  5
A9
100
AcDbEntity
  8
lines
  6
ByLayer
 62
  256
370
   -1
100
AcDbLine
 10
294.5837501230545
 20
933.1691936086631
 11
371.5147188640393
 21
810.3560458486357
  0
LINE
  5
AA
100
AcDbEntity
  8
lines
  6
ByLayer
 62
  256
370
   -1
100
AcDbLine
 10
294.5837501230531
 20
-496.4010292991554
 11
371.5147188640392
 21
-373.5878815391254
  0
LINE
  5
AB
100
AcDbEntity
  8
lines
  6
ByLayer
 62
  256
370
   -1
100
AcDbLine
 10
294.5837501230536
 20
193.1691936086658
 11
294.5837501230536
 21
948.1691936086658
  0
LINE
  5
AC
100
AcDbEntity
  8
lines
  6
ByLayer
 62
  256
370
   -1
100
AcDbLine
 10
294.5837501230546
 20
243.5989707008449
 11
294.5837501230547
 21
-511.4010292991552
  0
LINE
  5
AD
100
AcDbEntity
  8
T1
  6
ByLayer
 62
  256
370
   -1
100
AcDbLine
 10
300.584
 20
943.169
 11
300.584
 21
-506.401
  0
LINE
  5
AE
100
AcDbEntity
  8
T1
  6
ByLayer
 62
  256
370
   -1
100
AcDbLine
 10
297.583750123053
 20
943.1691936086658
 11
297.583750123053
 21
-506.4010292991552
  0
LINE
  5
AF
100
AcDbEntity
  8
T2
  6
DASHED2
 62
    2
370
   13
100
AcDbLine
 10
467.7329407184737
 20
850.0202022576304
 11
486.0733725393275
 21
605.6424386340141
  0
LINE
  5
B0
100
AcDbEntity
  8
T2
  6
DASHED2
 62
    2
370
   13
100
AcDbLine
 10
490.3160132264471
 20
601.399797946895
 11
734.693776850063
 21
583.0593661260407
  0
LINE
  5
B1
100
AcDbEntity
  8
T2
  6
DASHED2
 62
    2
370
   13
100
AcDbLine
 10
734.693776850063
 20
583.0593661260407
 11
628.3881749114913
 21
362.2517987975336
  0
LINE
  5
B2
100
AcDbEntity
  8
T2
  6
DASHED2
 62
    2
370
   13
100
AcDbLine
 10
809.9264977278775
 20
407.7890172502545
 11
744.961231992977
 21
285.2807929983585
  0
LINE
  5
B3
100
AcDbEntity
  8
T2
  6
DASHED2
 62
    2
370
   13
100
AcDbLine
 10
692.410815111899
 20
481.4016187574671
 11
809.9264977278775
 21
407.7890172502545
  0
LINE
  5
B4
100
AcDbEntity
  8
T2
  6
DASHED2
 62
    2
370
   13
100
AcDbLine
 10
629.9410891821065
 20
356.4562438397992
 11
832.4082246897597
 21
218.3840821547552
  0
LINE
  5
B5
100
AcDbEntity
  8
T2
  6
DASHED2
 62
    2
370
   13
100
AcDbLine
 10
629.9410891821062
 20
80.3119204697112
 11
832.4082246897597
 21
218.3840821547552
  0
LINE
  5
B6
100
AcDbEntity
  8
T2
  6
DASHED2
 62
    2
370
   13
100
AcDbLine
 10
734.6937768500632
 20
-146.2912018165304
 11
628.3881749114911
 21
74.5163655119768
  0
LINE
  5
B7
100
AcDbEntity
  8
T2
  6
DASHED2
 62
    2
370
   13
100
AcDbLine
 10
490.3160132264469
 20
-164.6316336373847
 11
734.6937768500632
 21
-146.2912018165304
  0
LINE
  5
B8
100
AcDbEntity
  8
T2
  6
DASHED2
 62
    2
370
   13
100
AcDbLine
 10
620.521562632378
 20
-299.079823730435
 11
625.5141042682953
 21
-160.5019564883218
  0
LINE
  5
B9
100
AcDbEntity
  8
T2
  6
DASHED2
 62
    2
370
   13
100
AcDbLine
 10
481.9436953902648
 20
-304.0723653663525
 11
620.521562632378
 21
-299.079823730435
  0
LINE
  5
BA
100
AcDbEntity
  8
T2
  6
DASHED2
 62
    2
370
   13
100
AcDbLine
 10
692.410815111899
 20
-44.63345444795664
 11
809.9264977278775
 21
28.97914705925588
  0
LINE
  5
BB
100
AcDbEntity
  8
T2
  6
DASHED2
 62
    2
370
   13
100
AcDbLine
 10
809.9264977278775
 20
28.97914705925588
 11
744.961231992977
 21
151.4873713111517
  0
LINE
  5
BC
100
AcDbEntity
  8
T2
  6
DASHED2
 62
    2
370
   13
100
AcDbLine
 10
467.7329407184735
 20
-413.2520379481205
 11
486.0733725393278
 21
-168.8742743245043
  0
LINE
  5
BD
100
AcDbEntity
  8
T2
  6
DASHED2
 62
    2
370
   13
100
AcDbLine
 10
294.5837501230547
 20
-329.8910863551981
 11
467.7329407184735
 21
-413.2520379481205
  0
LINE
  5
BE
100
AcDbEntity
  8
T2
  6
DASHED2
 62
    2
370
   13
100
AcDbLine
 10
294.5837501230546
 20
31.10062946600772
 11
490.3160132264469
 21
-164.6316336373847
  0
LINE
  5
BF
100
AcDbEntity
  8
T2
  6
DASHED2
 62
    2
370
   13
100
AcDbLine
 10
294.5837501230546
 20
22.61534809176913
 11
486.0733725393278
 21
-168.8742743245043
  0
LINE
  5
C0
100
AcDbEntity
  8
T2
  6
DASHED2
 62
    2
370
   13
100
AcDbLine
 10
294.5837501230546
 20
170.1706486464342
 11
629.9410891821062
 21
80.3119204697112
  0
LINE
  5
C1
100
AcDbEntity
  8
T2
  6
DASHED2
 62
    2
370
   13
100
AcDbLine
 10
294.5837501230546
 20
163.9589915639737
 11
628.3881749114911
 21
74.5163655119768
  0
LINE
  5
C2
100
AcDbEntity
  8
T2
  6
DASHED2
 62
    2
370
   13
100
AcDbLine
 10
294.5837501230546
 20
272.8091727455365
 11
628.3881749114913
 21
362.2517987975336
  0
LINE
  5
C3
100
AcDbEntity
  8
T2
  6
DASHED2
 62
    2
370
   13
100
AcDbLine
 10
294.5837501230546
 20
266.597515663076
 11
629.9410891821065
 21
356.4562438397992
  0
LINE
  5
C4
100
AcDbEntity
  8
T2
  6
DASHED2
 62
    2
370
   13
100
AcDbLine
 10
294.5837501230546
 20
414.152816217741
 11
486.0733725393275
 21
605.6424386340141
  0
LINE
  5
C5
100
AcDbEntity
  8
T2
  6
DASHED2
 62
    2
370
   13
100
AcDbLine
 10
294.5837501230546
 20
405.6675348435023
 11
490.3160132264471
 21
601.399797946895
  0
LINE
  5
C6
100
AcDbEntity
  8
T2
  6
DASHED2
 62
    2
370
   13
100
AcDbLine
 10
294.5837501230545
 20
766.6592506647087
 11
467.7329407184737
 21
850.0202022576304
  0
LINE
  5
C7
100
AcDbEntity
  8
T2
  6
DASHED2
 62
    2
370
   13
100
AcDbLine
 10
294.5837501230545
 20
921.866690912291
 11
366.0751933498997
 21
807.7372405194662
  0
LINE
  5
C8
100
AcDbEntity
  8
T2
  6
DASHED2
 62
    2
370
   13
100
AcDbLine
 10
294.5837501230531
 20
-485.0985266027833
 11
366.0751933498997
 21
-370.969076209956
  0
LINE
  5
C9
100
AcDbEntity
  8
T2
  6
DASHED2
 62
    2
370
   13
100
AcDbLine
 10
481.9436953902648
 20
740.840529675863
 11
620.521562632378
 21
735.8479880399452
  0
LINE
  5
CA
100
AcDbEntity
  8
T2
  6
DASHED2
 62
    2
370
   13
100
AcDbLine
 10
620.521562632378
 20
735.8479880399452
 11
625.5141042682953
 21
597.2701207978323
  0
LINE
  5
CB
100
AcDbEntity
  8
T1
  6
ByLayer
 62
  256
370
   -1
100
AcDbLine
 10
-100.5709879731726
 20
948.1691936086658
 11
-100.5709879731726
 21
-511.4010292991552
  0
LINE
  5
CC
100
AcDbEntity
  8
T1
  6
ByLayer
 62
  256
370
   -1
100
AcDbLine
 10
-106.5709879731726
 20
948.1691936086658
 11
-106.5709879731726
 21
-511.4010292991552
  0
LINE
  5
CD
100
AcDbEntity
  8
T1
  6
ByLayer
 62
  256
370
   -1
100
AcDbLine
 10
290.583750123053
 20
943.1691936086658
 11
290.583750123053
 21
-506.4010292991552
  0
LINE
  5
CE
100
AcDbEntity
  8
lines
  6
ByLayer
 62
  256
370
   -1
100
AcDbLine
 10
300.583750123053
 20
-511.4010292991552
 11
290.583750123053
 21
-511.4010292991552
  0
LINE
  5
CF
100
AcDbEntity
  8
lines
  6
ByLayer
 62
  256
370
   -1
100
AcDbLine
 10
300.583750123053
 20
948.1691936086658
 11
290.583750123053
 21
948.1691936086658
  0
LINE
  5
D0
100
AcDbEntity
  8
T1
  6
ByLayer
 62
  256
370
   -1
100
AcDbLine
 10
-90.57098797317256
 20
948.1691936086658
 11
-90.57098797317256
 21
-511.4010292991552
  0
LINE
  5
D1
100
AcDbEntity
  8
T1
  6
ByLayer
 62
  256
370
   -1
100
AcDbLine
 10
-284.4891803445951
 20
218.3840821547547
 11
1080.617816812803
 21
218.3840821547547
  0
LINE
  5
D2
100
AcDbEntity
  8
lines
  6
ByLayer
 62
  256
370
   -1
100
AcDbLine
 10
-797.0400076584951
 20
711.2918486478418
 11
-657.0400076584951
 21
711.2918486478418
  0
LINE
  5
D3
100
AcDbEntity
  8
lines
  6
ByLayer
 62
  256
370
   -1
100
AcDbLine
 10
-712.0400076584951
 20
471.2918486478417
 11
-742.0400076584951
 21
471.2918486478418
  0
DIMENSION
  5
D4
100
AcDbEntity
  8
lines
  6
ByLayer
 62
  256
370
   -1
100
AcDbDimension
  2
*D1
 10
-657.0400076584953
 20
711.2918486478418
 30
0
 11
-727.0400076584953
 21
713.1668486478418
 31
0
 70
   32
 71
    5
 72
    0
  3
Standard
 53
0
210
0
220
0
230
1
100
AcDbAlignedDimension
 13
-797.0400076584953
 23
711.2918486478418
 33
0
 14
-657.0400076584953
 24
711.2918486478418
 34
0
100
AcDbRotatedDimension
  0
DIMENSION
  5
D5
100
AcDbEntity
  8
lines
  6
ByLayer
 62
  256
370
   -1
100
AcDbDimension
  2
*D2
 10
-712.0400076584951
 20
471.2918486478417
 30
0
 11
-727.0400076584951
 21
473.1668486478417
 31
0
 70
   32
 71
    5
 72
    0
  3
Standard
 53
0
210
0
220
0
230
1
100
AcDbAlignedDimension
 13
-742.0400076584951
 23
471.2918486478418
 33
0
 14
-712.0400076584951
 24
471.2918486478417
 34
0
100
AcDbRotatedDimension
  0
DIMENSION
  5
D6
100
AcDbEntity
  8
lines
  6
ByLayer
 62
  256
370
   -1
100
AcDbDimension
  2
*D3
 10
-832.5532902992807
 20
711.2918486478418
 30
0
 11
-834.4282902992807
 21
591.2918486478418
 31
0
 70
   32
 71
    5
 72
    0
  3
Standard
 53
0
210
0
220
0
230
1
100
AcDbAlignedDimension
 13
-742.0400076584953
 23
471.2918486478418
 33
0
 14
-797.0400076584951
 24
711.2918486478418
 34
0
 50
90
100
AcDbRotatedDimension
  0
LINE
  5
D7
100
AcDbEntity
  8
lines
  6
ByLayer
 62
  256
370
   -1
100
AcDbLine
 10
-797.0400076584951
 20
711.2918486478418
 11
-742.0400076584953
 21
471.2918486478418
  0
LINE
  5
D8
100
AcDbEntity
  8
lines
  6
ByLayer
 62
  256
370
   -1
100
AcDbLine
 10
-712.0400076584953
 20
471.2918486478417
 11
-657.0400076584951
 21
711.2918486478418
  0
LINE
  5
D9
100
AcDbEntity
  8
T1
  6
ByLayer
 62
  256
370
   -1
100
AcDbLine
 10
-742.0400076584953
 20
471.2918486478418
 11
-727.0400076584953
 21
405.8373031932962
  0
LINE
  5
DA
100
AcDbEntity
  8
T1
  6
ByLayer
 62
  256
370
   -1
100
AcDbLine
 10
-727.0400076584953
 20
405.8373031932962
 11
-712.0400076584953
 21
471.2918486478417
  0
LINE
  5
DB
100
AcDbEntity
  8
lines
  6
ByLayer
 62
  256
370
   -1
100
AcDbLine
 10
-659.9925870325966
 20
402.1035506472584
 11
-414.1520447376371
 21
388.4131246451194
  0
ARC
  5
DC
100
AcDbEntity
  8
lines
  6
ByLayer
 62
  256
370
   -1
100
AcDbCircle
 10
-727.0400076584953
 20
405.8373031932962
 40
67.15130319406443
100
AcDbArc
 50
348.2483956277435
 51
437.0925913287342
  0
LINE
  5
DD
100
AcDbEntity
  8
lines
  6
ByLayer
 62
  256
370
   -1
100
AcDbLine
 10
-661.2962112369154
 20
392.1606532840869
 11
-414.8674137437131
 21
378.4374683879643
  0
ARC
  5
DE
100
AcDbEntity
  8
lines
  6
ByLayer
 62
  256
370
   -1
100
AcDbCircle
 10
-727.0400076584953
 20
405.8373031932962
 40
313.3727482389671
100
AcDbArc
 50
354.9839221677157
 51
437.0925913287341
  0
LINE
  5
DF
100
AcDbEntity
  8
lines
  6
ByLayer
 62
  256
370
   -1
100
AcDbLine
 10
752.5767095855171
 20
593.3840821547551
 11
743.9164555476725
 21
588.3840821547551
  0
ENDSEC
  0
SECTION
  2
OBJECTS
  0
DICTIONARY
  5
C
330
0
100
AcDbDictionary
281
    1
  3
ACAD_GROUP
350
D
  0
DICTIONARY
  5
D
330
C
100
AcDbDictionary
281
    1
  0
ENDSEC
  0
EOF
