<?xml version="1.0" encoding="UTF-8" standalone="no"?>
<svg
   xmlns:osb="http://www.openswatchbook.org/uri/2009/osb"
   xmlns:dc="http://purl.org/dc/elements/1.1/"
   xmlns:cc="http://creativecommons.org/ns#"
   xmlns:rdf="http://www.w3.org/1999/02/22-rdf-syntax-ns#"
   xmlns:svg="http://www.w3.org/2000/svg"
   xmlns="http://www.w3.org/2000/svg"
   xmlns:sodipodi="http://sodipodi.sourceforge.net/DTD/sodipodi-0.dtd"
   xmlns:inkscape="http://www.inkscape.org/namespaces/inkscape"
   width="200mm"
   height="300mm"
   viewBox="0 0 566.92915 850.39369"
   version="1.1"
   id="svg4529"
   sodipodi:docname="freedom.svg"
   inkscape:version="0.91 r13725">
  <metadata
     id="metadata4535">
    <rdf:RDF>
      <cc:Work
         rdf:about="">
        <dc:format>image/svg+xml</dc:format>
        <dc:type
           rdf:resource="http://purl.org/dc/dcmitype/StillImage" />
        <dc:title />
      </cc:Work>
    </rdf:RDF>
  </metadata>
  <defs
     id="defs4533">
    <linearGradient
       id="linearGradient5957"
       osb:paint="solid">
      <stop
         style="stop-color:#4141ff;stop-opacity:1;"
         offset="0"
         id="stop5955" />
    </linearGradient>
  </defs>
  <sodipodi:namedview
     pagecolor="#ffffff"
     bordercolor="#666666"
     borderopacity="1"
     objecttolerance="10"
     gridtolerance="10"
     guidetolerance="10"
     inkscape:pageopacity="0"
     inkscape:pageshadow="2"
     inkscape:window-width="1366"
     inkscape:window-height="705"
     id="namedview4531"
     showgrid="false"
     inkscape:zoom="0.7186841"
     inkscape:cx="38.035281"
     inkscape:cy="649.22056"
     inkscape:window-x="0"
     inkscape:window-y="30"
     inkscape:window-maximized="1"
     inkscape:current-layer="svg4529"
     showborder="false"
     units="mm"
     inkscape:snap-text-baseline="true" />
  <path
     d="m 0,56.393676 h 170.37 c -1.67,13.95 -4.84,27.67 -6.82,41.58 -3.22,16.350004 -5.45,32.860004 -8.83,49.170004 -12.83,74.68 -26.43,149.21 -39.32,223.87 -0.31,2.99 -2.02,6.08 -0.96,9.09 -2.13,0.41 -4.67,2.51 -3.06,4.8 3.93,5.04 9.36,8.65 13.88,13.13 -0.65,3.39 -2.49,7.85 0.57,10.58 3.57,3.36 7.22,6.64 10.79,10.01 -0.15,4.22 -1.46,8.85 0.4,12.81 5.77,5.63 14.31,6.48 21.85,8.07 -2.7,17.33 -7.09,34.35 -10.2,51.6 -0.52,3.9 -1.1,8.16 0.65,11.84 1,2.1 3.76,1.35 5.62,1.85 -0.28,26.88 4.68,53.45 9.87,79.71 3.99,20.72 5.51,41.8 6.97,62.82 1.74,26.64 2.4,53.34 2.56,80.03 -0.09,3.6 3.68,5.2 6.21,6.92 -0.32,2.6 -0.44,5.22 -0.51,7.84 -0.53,-0.21 -1.57,-0.64 -2.09,-0.85 -5.47,5.25 -9.07,12.27 -15.31,16.74 -3.78,2.79 -8.3,5.66 -9.4,10.58 -0.53,3.04 -0.42,7.37 3.09,8.55 6.2,2.48 13.09,0.6 19.18,-1.36 6.86,-2.19 11.52,-8.3 18.34,-10.57 4.32,-1.79 9.29,-2 13.24,-4.61 2.03,-4.31 0.77,-9.46 -0.34,-13.92 -1.21,-0.2 -2.42,-0.38 -3.63,-0.56 -0.04,-0.68 -0.12,-2.03 -0.16,-2.71 1.95,0.42 3.92,0.68 5.9,0.95 1.04,-10.62 0.22,-21.31 0.17,-31.95 -0.93,-22.01 -1.96,-44.01 -3.03,-66.01 -0.89,-28.41 1.39,-56.78 3.69,-85.07 0.84,-7.51 1.09,-15.2 3.55,-22.42 2.72,4.29 3.03,9.49 3.95,14.35 3.85,24.89 5.68,50.03 7.53,75.13 2.5,32.59 1.78,65.49 -2.9,97.86 -0.79,6.69 -2.88,13.18 -3.55,19.88 1.42,2.29 4.29,2.98 6.58,4.13 0.69,0.79 1.38,1.6 2.07,2.42 -2.31,1 -4.93,2.17 -5.89,4.71 -1.51,3.61 -2.04,7.61 -4.08,11.02 -2.09,3.62 -4.54,7.52 -3.8,11.91 0.13,3.43 3.1,5.87 6.21,6.69 4.59,1.3 9.54,1.77 14.24,0.84 4.1,-1.43 6.99,-4.9 9.94,-7.9 2.5,-2.84 5.52,-5.52 6.67,-9.25 1.61,-6.15 2.12,-12.94 -0.98,-18.73 -0.08,-1.1 -0.14,-2.19 -0.16,-3.28 3.05,-3.8 2.92,-8.87 3.78,-13.42 3.64,-25.8 6.23,-51.73 8.51,-77.67 1.54,-21.7 3.4,-43.43 2.63,-65.21 -0.89,-27.08 2.47,-54.02 4.84,-80.93 0.46,-3.82 -0.04,-7.93 1.54,-11.5 0.3,-0.17 0.89,-0.53 1.18,-0.7 3.19,1.98 6.87,3.36 10.64,2.3 -0.11,-7.08 -1.74,-14.06 -1.52,-21.17 0.18,-7.43 -0.45,-15.02 1.15,-22.33 2.62,-6.24 7.12,-11.45 10.53,-17.26 10.68,-16.72 15.31,-36.69 15.29,-56.39 -0.09,-21.01 0.49,-42.04 -0.73,-63.03 -0.48,-8.32 -0.36,-16.9 -3.31,-24.83 4.63,-1.97 8.77,-4.85 13.01,-7.52 54.85,-33.79 109.57,-67.8 164.42,-101.61 16.8,-10.41 33.2,-21.45 49.76,-32.24 11.25,-6.84 21.76,-14.84 33.21,-21.37 v 716.59 H 0 Z"
     id="path4485"
     style="opacity:1;fill:#000000;fill-opacity:0.60784316;stroke:#496491;stroke-width:0.0936;stroke-miterlimit:4;stroke-dasharray:none"
     inkscape:connector-curvature="0" />
  <path
     d="M 170.37,56.393676 H 564 v 77.410004 c -11.45,6.53 -21.96,14.53 -33.21,21.37 -16.56,10.79 -32.96,21.83 -49.76,32.24 -54.85,33.81 -109.57,67.82 -164.42,101.61 -4.24,2.67 -8.38,5.55 -13.01,7.52 -1.63,-0.94 -3.28,-1.86 -4.94,-2.74 -9.34,-4.76 -19.54,-7.54 -29.28,-11.38 -11.53,-5.64 -23.47,-10.42 -34.96,-16.16 l 0.01,-0.81 c -0.46,-3.99 -3.11,-7.2 -4.75,-10.74 -4.99,-9.69 -7.22,-20.63 -13.2,-29.83 -2.71,-5.82 -5.45,-11.65 -8.95,-17.05 -0.79,-1.2 -1.84,-2.32 -3.29,-2.67 -5,-1.48 -10.32,-1.45 -15.43,-0.56 -5.66,-0.37 -11.23,1.06 -16.35,3.4 -4.05,1.62 -7.72,4.08 -10.85,7.1 -2.36,2.19 -4.57,4.54 -6.59,7.05 -2.37,3.06 -4.34,6.42 -6,9.91 -0.84,2.03 -1.83,4.1 -1.87,6.34 0.04,2.35 1.86,4.08 3.04,5.96 1.14,5.53 3.85,10.65 7.04,15.26 2.13,2.53 2.73,5.83 3.9,8.84 1.47,3.92 6.38,5.19 7.73,9.18 1.51,4.55 2.34,9.3 3.72,13.89 -6.12,5.27 -12.67,10.39 -16.71,17.55 -2.53,4.75 -3.96,9.96 -5.54,15.08 -1.9,5.27 -3,10.77 -3.72,16.31 -0.84,4.82 -1.54,9.68 -1.42,14.59 -1.58,4.66 -1.55,9.65 -2.12,14.49 1.36,0.11 2.73,0.2 4.1,0.28 -1.33,0.19 -2.65,0.44 -3.97,0.69 -0.88,4.5 -1.52,9.05 -2.18,13.59 -0.34,2.36 -0.62,4.73 -0.88,7.1 1.33,0.33 2.67,0.67 4,1.01 -4.14,-0.52 -8.29,0.12 -12.35,0.94 -5.67,-4.5 -11.31,-9.06 -17.35,-13.06 -1.06,-3.01 0.65,-6.1 0.96,-9.09 12.89,-74.66 26.49,-149.19 39.32,-223.87 3.38,-16.31 5.61,-32.82 8.83,-49.170004 1.98,-13.91 5.15,-27.63 6.82,-41.58 z"
     id="path4487"
     style="opacity:1;fill:#357bfb;fill-opacity:0.67875648;stroke:#6c82a9;stroke-width:0.09375"
     inkscape:connector-curvature="0" />
  <path
     d="m 172.46,208.00368 c 5.12,-2.34 10.69,-3.77 16.35,-3.4 5.9,3.03 11.01,7.55 13.96,13.56 -2.65,3.55 -5.49,6.95 -8.76,9.95 -3.29,-4.55 -6.32,-9.39 -10.58,-13.12 -3.28,-2.88 -7.21,-4.84 -10.97,-6.99 z"
     id="path4489"
     inkscape:connector-curvature="0"
     style="opacity:1;fill:#23241f;stroke:#23241f;stroke-width:0.09375" />
  <path
     d="m 188.81,204.60368 c 5.11,-0.89 10.43,-0.92 15.43,0.56 1.45,0.35 2.5,1.47 3.29,2.67 3.5,5.4 6.24,11.23 8.95,17.05 -5.97,10.44 -14.86,19.23 -25.54,24.81 -10.47,5.3 -21.93,9.35 -33.71,9.93 -3.19,-4.61 -5.9,-9.73 -7.04,-15.26 4.26,1.31 8.72,0.85 12.95,-0.29 -1.76,-6.58 -8.25,-9.82 -14.12,-12.01 1.66,-3.49 3.63,-6.85 6,-9.91 8.71,2.84 15.22,9.65 19.99,17.22 3.13,-1.67 6.28,-3.31 9.35,-5.08 -1.36,-3.46 -3.18,-6.79 -5.86,-9.4 -4.6,-4.79 -10.96,-7.16 -16.89,-9.79 3.13,-3.02 6.8,-5.48 10.85,-7.1 3.76,2.15 7.69,4.11 10.97,6.99 4.26,3.73 7.29,8.57 10.58,13.12 3.27,-3 6.11,-6.4 8.76,-9.95 -2.95,-6.01 -8.06,-10.53 -13.96,-13.56 z"
     id="path4491"
     style="opacity:1;fill:#ffffff;fill-opacity:1;stroke:#f8eed7;stroke-width:0.09375"
     inkscape:connector-curvature="0" />
  <path
     d="m 155.02,222.15368 c 2.02,-2.51 4.23,-4.86 6.59,-7.05 5.93,2.63 12.29,5 16.89,9.79 2.68,2.61 4.5,5.94 5.86,9.4 -3.07,1.77 -6.22,3.41 -9.35,5.08 -4.77,-7.57 -11.28,-14.38 -19.99,-17.22 z"
     id="path4493"
     inkscape:connector-curvature="0"
     style="opacity:1;fill:#23241f;stroke:#23241f;stroke-width:0.09375" />
  <path
     d="m 216.48,224.88368 c 5.98,9.2 8.21,20.14 13.2,29.83 1.64,3.54 4.29,6.75 4.75,10.74 -4.58,0.43 -10.51,2.57 -14.12,-1.37 -1.8,-4.05 -1.01,-8.83 -3.13,-12.8 -1.58,-2.96 -4.2,-5.66 -7.54,-6.49 -3.63,-0.81 -5.68,3.59 -5.8,6.59 -0.63,3.23 0.77,7.41 -2.08,9.84 -1.06,1.31 -3.29,0.99 -3.84,-0.64 -2.14,-3.75 -4.32,-7.49 -6.98,-10.89 10.68,-5.58 19.57,-14.37 25.54,-24.81 z"
     id="path4495"
     inkscape:connector-curvature="0"
     style="opacity:1;fill:#23241f;stroke:#23241f;stroke-width:0.09375" />
  <path
     d="m 149.02,232.06368 c 5.87,2.19 12.36,5.43 14.12,12.01 -4.23,1.14 -8.69,1.6 -12.95,0.29 -1.18,-1.88 -3,-3.61 -3.04,-5.96 0.04,-2.24 1.03,-4.31 1.87,-6.34 z"
     id="path4497"
     inkscape:connector-curvature="0"
     style="opacity:1;fill:#23241f;stroke:#23241f;stroke-width:0.09375" />
  <path
     d="m 203.84,251.38368 c 0.12,-3 2.17,-7.4 5.8,-6.59 3.34,0.83 5.96,3.53 7.54,6.49 2.12,3.97 1.33,8.75 3.13,12.8 3.61,3.94 9.54,1.8 14.12,1.37 l -0.01,0.81 c -0.05,5.64 -1.43,11.27 -4.53,16.02 -3.06,4 -6.76,7.43 -9.94,11.32 -5.99,2.11 -13.19,-1.17 -18.32,3.39 -3.08,2.06 -6.3,5.84 -10.41,4.29 -5.37,-2.07 -8.32,-7.41 -11.64,-11.76 -2.39,0.44 -4.79,0.95 -7,2.01 -1.38,-4.59 -2.21,-9.34 -3.72,-13.89 -1.35,-3.99 -6.26,-5.26 -7.73,-9.18 -1.17,-3.01 -1.77,-6.31 -3.9,-8.84 11.78,-0.58 23.24,-4.63 33.71,-9.93 2.66,3.4 4.84,7.14 6.98,10.89 0.55,1.63 2.78,1.95 3.84,0.64 2.85,-2.43 1.45,-6.61 2.08,-9.84 z"
     id="path4499"
     style="opacity:1;fill:#f8ff00;fill-opacity:1;stroke:#e3804f;stroke-width:0.09375"
     inkscape:connector-curvature="0" />
  <path
     d="m 234.42,266.26368 c 11.49,5.74 23.43,10.52 34.96,16.16 -13.15,0.58 -26.33,0.37 -39.49,-0.14 3.1,-4.75 4.48,-10.38 4.53,-16.02 z"
     id="path4501"
     inkscape:connector-curvature="0"
     style="opacity:1;fill:#23241f;stroke:#23241f;stroke-width:0.09375" />
  <path
     d="m 219.95,293.60368 c 3.18,-3.89 6.88,-7.32 9.94,-11.32 13.16,0.51 26.34,0.72 39.49,0.14 9.74,3.84 19.94,6.62 29.28,11.38 -14.08,2.5 -28.48,1.9 -42.71,1.36 -12,-0.49 -24.01,-0.92 -36,-1.56 z"
     id="path4503"
     style="opacity:1;fill:#ffffff;fill-opacity:1;stroke:#f8eed7;stroke-width:0.09375"
     inkscape:connector-curvature="0" />
  <path
     d="m 172.58,291.53368 c 2.21,-1.06 4.61,-1.57 7,-2.01 3.32,4.35 6.27,9.69 11.64,11.76 4.11,1.55 7.33,-2.23 10.41,-4.29 5.13,-4.56 12.33,-1.28 18.32,-3.39 11.99,0.64 24,1.07 36,1.56 14.23,0.54 28.63,1.14 42.71,-1.36 1.66,0.88 3.31,1.8 4.94,2.74 2.95,7.93 2.83,16.51 3.31,24.83 1.22,20.99 0.64,42.02 0.73,63.03 0.02,19.7 -4.61,39.67 -15.29,56.39 -3.41,5.81 -7.91,11.02 -10.53,17.26 -1.6,7.31 -0.97,14.9 -1.15,22.33 -0.22,7.11 1.41,14.09 1.52,21.17 -3.77,1.06 -7.45,-0.32 -10.64,-2.3 -5.18,-3.69 -5.66,-10.47 -8.47,-15.71 -2.94,-4.66 -6.94,-8.53 -10.86,-12.36 -3.08,-2.8 -6.17,-5.9 -10.23,-7.2 -4,2.15 -6.15,6.65 -7.62,10.76 -1.05,4.27 -1.58,10.07 2.52,12.93 -7.32,2.65 -11.16,10.22 -17.98,13.64 -5.19,2.17 -10.92,0.45 -16.18,-0.6 -6.61,-1.54 -14.33,-4.06 -17.13,-10.92 -2.95,-8.21 -3.92,-16.95 -5.25,-25.52 -2.64,7.88 -3.66,16.3 -7.87,23.62 -3.09,7.98 -10.49,12.75 -17.54,16.9 -1.86,-0.5 -4.62,0.25 -5.62,-1.85 -1.75,-3.68 -1.17,-7.94 -0.65,-11.84 3.11,-17.25 7.5,-34.27 10.2,-51.6 -7.54,-1.59 -16.08,-2.44 -21.85,-8.07 -1.86,-3.96 -0.55,-8.59 -0.4,-12.81 0.31,-2.96 0.65,-5.91 0.94,-8.86 2.03,-1.23 4.32,-2.14 5.97,-3.88 1.37,-4.23 2.24,-8.61 3.86,-12.76 -1.08,-0.32 -2.16,-0.62 -3.25,-0.9 -1.33,-0.34 -2.67,-0.68 -4,-1.01 0.26,-2.37 0.54,-4.74 0.88,-7.1 7.22,-0.32 14.45,0.16 21.67,0.17 0.43,-3.21 0.85,-6.43 1.31,-9.63 6.11,-1.05 13.15,1.31 18.4,-2.86 4.65,-3.14 9.69,-5.7 14.14,-9.14 -10.34,-1.66 -20.83,-2.34 -31.29,-2.04 -0.41,3.04 -0.82,6.09 -1.22,9.13 -5.62,0.02 -11.25,-0.21 -16.86,0.09 -1.37,-0.08 -2.74,-0.17 -4.1,-0.28 0.57,-4.84 0.54,-9.83 2.12,-14.49 7.17,0.22 14.29,1.12 21.36,2.25 0.42,-3.01 0.87,-6.01 1.42,-9 14.46,-0.42 28.81,1.66 43.05,3.85 2.75,0.73 5.01,-1.23 7.21,-2.52 4.68,-3.15 9.72,-5.75 14.21,-9.18 -10.42,-1.51 -20.88,-2.73 -31.35,-3.87 -10.66,-1.07 -21.42,-0.71 -32.05,-2.06 -0.49,1.99 -0.94,3.98 -1.36,5.99 -7.02,0.41 -14.07,0.56 -21.07,-0.05 0.72,-5.54 1.82,-11.04 3.72,-16.31 6.38,-0.54 12.75,-1.49 19.18,-1.24 0.14,-1.3 0.28,-2.59 0.43,-3.88 11.8,-0.6 23.54,1.21 35.19,2.82 16.25,1.99 32.45,4.97 48.88,4.77 1.87,-0.09 3.4,-1.36 4.99,-2.21 5.66,-3.65 11.49,-7.03 17.12,-10.71 -10.06,0.37 -20.14,0.02 -30.19,-0.58 -11.94,-0.69 -23.92,-1 -35.82,-2.26 -14.31,-1.35 -28.57,-3.27 -42.9,-4.41 0.32,2.2 0.65,4.39 0.94,6.6 -4.19,-1.02 -8.25,-2.46 -12.28,-3.98 4.04,-7.16 10.59,-12.28 16.71,-17.55 z"
     id="path4505"
     inkscape:connector-curvature="0"
     style="opacity:1;fill:#23241f;stroke:#23241f;stroke-width:0.09375" />
  <path
     d="m 167.21,306.46368 c 14.33,1.14 28.59,3.06 42.9,4.41 11.9,1.26 23.88,1.57 35.82,2.26 10.05,0.6 20.13,0.95 30.19,0.58 -5.63,3.68 -11.46,7.06 -17.12,10.71 -1.59,0.85 -3.12,2.12 -4.99,2.21 -16.43,0.2 -32.63,-2.78 -48.88,-4.77 -11.65,-1.61 -23.39,-3.42 -35.19,-2.82 -0.15,1.29 -0.29,2.58 -0.43,3.88 -6.43,-0.25 -12.8,0.7 -19.18,1.24 1.58,-5.12 3.01,-10.33 5.54,-15.08 4.03,1.52 8.09,2.96 12.28,3.98 -0.29,-2.21 -0.62,-4.4 -0.94,-6.6 z"
     id="path4507"
     style="opacity:1;fill:#ffffff;fill-opacity:1;stroke:#f8eed7;stroke-width:0.09375"
     inkscape:connector-curvature="0" />
  <path
     d="m 169.04,334.53368 c 10.63,1.35 21.39,0.99 32.05,2.06 10.47,1.14 20.93,2.36 31.35,3.87 -4.49,3.43 -9.53,6.03 -14.21,9.18 -2.2,1.29 -4.46,3.25 -7.21,2.52 -14.24,-2.19 -28.59,-4.27 -43.05,-3.85 -0.55,2.99 -1,5.99 -1.42,9 -7.07,-1.13 -14.19,-2.03 -21.36,-2.25 -0.12,-4.91 0.58,-9.77 1.42,-14.59 7,0.61 14.05,0.46 21.07,0.05 0.42,-2.01 0.87,-4 1.36,-5.99 z"
     id="path4509"
     style="opacity:1;fill:#ffffff;fill-opacity:1;stroke:#f8eed7;stroke-width:0.09375"
     inkscape:connector-curvature="0" />
  <path
     d="m 165.25,360.61368 c 10.46,-0.3 20.95,0.38 31.29,2.04 -4.45,3.44 -9.49,6 -14.14,9.14 -5.25,4.17 -12.29,1.81 -18.4,2.86 -0.46,3.2 -0.88,6.42 -1.31,9.63 -7.22,-0.01 -14.45,-0.49 -21.67,-0.17 0.66,-4.54 1.3,-9.09 2.18,-13.59 1.32,-0.25 2.64,-0.5 3.97,-0.69 5.61,-0.3 11.24,-0.07 16.86,-0.09 0.4,-3.04 0.81,-6.09 1.22,-9.13 z"
     id="path4511"
     style="opacity:1;fill:#ffffff;fill-opacity:1;stroke:#f8eed7;stroke-width:0.09375"
     inkscape:connector-curvature="0" />
  <path
     d="m 111.38,384.90368 c -1.61,-2.29 0.93,-4.39 3.06,-4.8 6.04,4 11.68,8.56 17.35,13.06 2.08,2.16 6.07,4.27 4.98,7.83 -0.67,1.2 -1.73,2.11 -2.64,3.13 -3.04,-1.9 -6.08,-3.82 -8.87,-6.09 -4.52,-4.48 -9.95,-8.09 -13.88,-13.13 z"
     id="path4513"
     inkscape:connector-curvature="0"
     style="opacity:1;fill:#23241f;stroke:#23241f;stroke-width:0.09375" />
  <path
     d="m 131.79,393.16368 c 4.06,-0.82 8.21,-1.46 12.35,-0.94 1.09,0.28 2.17,0.58 3.25,0.9 -1.62,4.15 -2.49,8.53 -3.86,12.76 -1.65,1.74 -3.94,2.65 -5.97,3.88 -0.29,2.95 -0.63,5.9 -0.94,8.86 -3.57,-3.37 -7.22,-6.65 -10.79,-10.01 -3.06,-2.73 -1.22,-7.19 -0.57,-10.58 2.79,2.27 5.83,4.19 8.87,6.09 0.91,-1.02 1.97,-1.93 2.64,-3.13 1.09,-3.56 -2.9,-5.67 -4.98,-7.83 z"
     id="path4515"
     style="opacity:1;fill:#ffff00;fill-opacity:1;stroke:#e3804f;stroke-width:0.09375"
     inkscape:connector-curvature="0" />
  <path
     d="m 172.48,487.89368 c 4.21,-7.32 5.23,-15.74 7.87,-23.62 1.33,8.57 2.3,17.31 5.25,25.52 2.8,6.86 10.52,9.38 17.13,10.92 5.26,1.05 10.99,2.77 16.18,0.6 6.82,-3.42 10.66,-10.99 17.98,-13.64 8.73,-1.31 17.87,-0.71 26.19,-4.13 2.81,5.24 3.29,12.02 8.47,15.71 -0.29,0.17 -0.88,0.53 -1.18,0.7 -1.58,3.57 -1.08,7.68 -1.54,11.5 -2.37,26.91 -5.73,53.85 -4.84,80.93 0.77,21.78 -1.09,43.51 -2.63,65.21 -2.28,25.94 -4.87,51.87 -8.51,77.67 -0.86,4.55 -0.73,9.62 -3.78,13.42 -8.03,1.1 -16.11,1.58 -24.22,1.57 -2.29,-1.15 -5.16,-1.84 -6.58,-4.13 0.67,-6.7 2.76,-13.19 3.55,-19.88 4.68,-32.37 5.4,-65.27 2.9,-97.86 -1.85,-25.1 -3.68,-50.24 -7.53,-75.13 -0.92,-4.86 -1.23,-10.06 -3.95,-14.35 -2.46,7.22 -2.71,14.91 -3.55,22.42 -2.3,28.29 -4.58,56.66 -3.69,85.07 1.07,22 2.1,44 3.03,66.01 0.05,10.64 0.87,21.33 -0.17,31.95 -1.98,-0.27 -3.95,-0.53 -5.9,-0.95 -7.62,-2.64 -15.37,-5.11 -22.41,-9.13 -2.53,-1.72 -6.3,-3.32 -6.21,-6.92 -0.16,-26.69 -0.82,-53.39 -2.56,-80.03 -1.46,-21.02 -2.98,-42.1 -6.97,-62.82 -5.19,-26.26 -10.15,-52.83 -9.87,-79.71 7.05,-4.15 14.45,-8.92 17.54,-16.9 z"
     id="path4517"
     style="opacity:1;fill:#ff0000;fill-opacity:1;stroke:#323970;stroke-width:0.09375"
     inkscape:connector-curvature="0" />
  <path
     d="m 234.37,474.74368 c 1.47,-4.11 3.62,-8.61 7.62,-10.76 4.06,1.3 7.15,4.4 10.23,7.2 3.92,3.83 7.92,7.7 10.86,12.36 -8.32,3.42 -17.46,2.82 -26.19,4.13 -4.1,-2.86 -3.57,-8.66 -2.52,-12.93 z"
     id="path4519"
     style="opacity:1;fill:#ffff00;fill-opacity:1;stroke:#e3804f;stroke-width:0.09375"
     inkscape:connector-curvature="0" />
  <path
     d="m 180.04,742.11368 c 0.07,-2.62 0.19,-5.24 0.51,-7.84 7.04,4.02 14.79,6.49 22.41,9.13 0.04,0.68 0.12,2.03 0.16,2.71 -5.21,3.11 -11.31,4.69 -17.37,3.94 -0.48,-3.48 -2.51,-6.45 -5.71,-7.94 z"
     id="path4521"
     inkscape:connector-curvature="0"
     style="opacity:1;fill:#f8eed7;stroke:#f8eed7;stroke-width:0.09375" />
  <path
     d="m 162.64,758.00368 c 6.24,-4.47 9.84,-11.49 15.31,-16.74 0.52,0.21 1.56,0.64 2.09,0.85 3.2,1.49 5.23,4.46 5.71,7.94 6.06,0.75 12.16,-0.83 17.37,-3.94 1.21,0.18 2.42,0.36 3.63,0.56 1.11,4.46 2.37,9.61 0.34,13.92 -3.95,2.61 -8.92,2.82 -13.24,4.61 -6.82,2.27 -11.48,8.38 -18.34,10.57 -6.09,1.96 -12.98,3.84 -19.18,1.36 -3.51,-1.18 -3.62,-5.51 -3.09,-8.55 1.1,-4.92 5.62,-7.79 9.4,-10.58 z"
     id="path4523"
     inkscape:connector-curvature="0"
     style="opacity:1;fill:#23241f;stroke:#23241f;stroke-width:0.09375" />
  <path
     d="m 224.85,750.25368 c 8.11,0.01 16.19,-0.47 24.22,-1.57 0.02,1.09 0.08,2.18 0.16,3.28 -2.52,3.52 -4.33,7.68 -8.08,10.13 -1.4,-3.29 -2.57,-7.1 -5.79,-9.09 -2.52,-1.75 -5.71,-1.1 -8.44,-0.33 -0.69,-0.82 -1.38,-1.63 -2.07,-2.42 z"
     id="path4525"
     inkscape:connector-curvature="0"
     style="opacity:1;fill:#f8eed7;stroke:#f8eed7;stroke-width:0.09375" />
  <path
     d="m 226.92,752.67368 c 2.73,-0.77 5.92,-1.42 8.44,0.33 3.22,1.99 4.39,5.8 5.79,9.09 3.75,-2.45 5.56,-6.61 8.08,-10.13 3.1,5.79 2.59,12.58 0.98,18.73 -1.15,3.73 -4.17,6.41 -6.67,9.25 -2.95,3 -5.84,6.47 -9.94,7.9 -4.7,0.93 -9.65,0.46 -14.24,-0.84 -3.11,-0.82 -6.08,-3.26 -6.21,-6.69 -0.74,-4.39 1.71,-8.29 3.8,-11.91 2.04,-3.41 2.57,-7.41 4.08,-11.02 0.96,-2.54 3.58,-3.71 5.89,-4.71 z"
     id="path4527"
     inkscape:connector-curvature="0"
     style="opacity:1;fill:#23241f;stroke:#23241f;stroke-width:0.09375" />
  <path
     style="fill:none;fill-opacity:1;stroke:#000000;stroke-width:1.1302985;stroke-miterlimit:4;stroke-dasharray:none;stroke-opacity:1"
     d="m 87.449854,131.24042 298.869686,0 0,448.86969 -298.869686,0 z"
     id="rect4503"
     inkscape:connector-curvature="0" />
</svg>
