  0
SECTION
  2
HEADER
  9
$ACADVER
  1
AC1027
  9
$ACADMAINTVER
 70
   105
  9
$DWGCODEPAGE
  3
ANSI_1252
  9
$REQUIREDVERSIONS
160
                 0
  9
$INSBASE
 10
0.0
 20
0.0
 30
0.0
  9
$EXTMIN
 10
1.000000000000000E+20
 20
1.000000000000000E+20
 30
1.000000000000000E+20
  9
$EXTMAX
 10
-1.000000000000000E+20
 20
-1.000000000000000E+20
 30
-1.000000000000000E+20
  9
$LIMMIN
 10
0.0
 20
0.0
  9
$LIMMAX
 10
12.0
 20
9.0
  9
$ORTHOMODE
 70
     0
  9
$REGENMODE
 70
     1
  9
$FILLMODE
 70
     1
  9
$QTEXTMODE
 70
     0
  9
$MIRRTEXT
 70
     1
  9
$LTSCALE
 40
1.0
  9
$ATTMODE
 70
     1
  9
$TEXTSIZE
 40
0.2
  9
$TRACEWID
 40
0.05
  9
$TEXTSTYLE
  7
Standard
  9
$CLAYER
  8
ALL
  9
$CELTYPE
  6
ByLayer
  9
$CECOLOR
 62
   178
  9
$CELTSCALE
 40
1.0
  9
$DISPSILH
 70
     0
  9
$DIMSCALE
 40
1.0
  9
$DIMASZ
 40
2.5
  9
$DIMEXO
 40
0.625
  9
$DIMDLI
 40
0.38
  9
$DIMRND
 40
0.0
  9
$DIMDLE
 40
0.0
  9
$DIMEXE
 40
1.25
  9
$DIMTP
 40
0.0
  9
$DIMTM
 40
0.0
  9
$DIMTXT
 40
2.5
  9
$DIMCEN
 40
0.09
  9
$DIMTSZ
 40
0.0
  9
$DIMTOL
 70
     0
  9
$DIMLIM
 70
     0
  9
$DIMTIH
 70
     1
  9
$DIMTOH
 70
     1
  9
$DIMSE1
 70
     0
  9
$DIMSE2
 70
     0
  9
$DIMTAD
 70
     0
  9
$DIMZIN
 70
     8
  9
$DIMBLK
  1

  9
$DIMASO
 70
     1
  9
$DIMSHO
 70
     1
  9
$DIMPOST
  1

  9
$DIMAPOST
  1

  9
$DIMALT
 70
     0
  9
$DIMALTD
 70
     2
  9
$DIMALTF
 40
25.4
  9
$DIMLFAC
 40
1.0
  9
$DIMTOFL
 70
     0
  9
$DIMTVP
 40
0.0
  9
$DIMTIX
 70
     0
  9
$DIMSOXD
 70
     0
  9
$DIMSAH
 70
     0
  9
$DIMBLK1
  1

  9
$DIMBLK2
  1

  9
$DIMSTYLE
  2
Standard
  9
$DIMCLRD
 70
   178
  9
$DIMCLRE
 70
   178
  9
$DIMCLRT
 70
   178
  9
$DIMTFAC
 40
1.0
  9
$DIMGAP
 40
0.625
  9
$DIMJUST
 70
     0
  9
$DIMSD1
 70
     0
  9
$DIMSD2
 70
     0
  9
$DIMTOLJ
 70
     1
  9
$DIMTZIN
 70
     0
  9
$DIMALTZ
 70
     0
  9
$DIMALTTZ
 70
     0
  9
$DIMUPT
 70
     0
  9
$DIMDEC
 70
     4
  9
$DIMTDEC
 70
     4
  9
$DIMALTU
 70
     2
  9
$DIMALTTD
 70
     2
  9
$DIMTXSTY
  7
Standard
  9
$DIMAUNIT
 70
     0
  9
$DIMADEC
 70
     0
  9
$DIMALTRND
 40
0.0
  9
$DIMAZIN
 70
     2
  9
$DIMDSEP
 70
    46
  9
$DIMATFIT
 70
     3
  9
$DIMFRAC
 70
     0
  9
$DIMLDRBLK
  1

  9
$DIMLUNIT
 70
     2
  9
$DIMLWD
 70
    -2
  9
$DIMLWE
 70
    -2
  9
$DIMTMOVE
 70
     0
  9
$DIMFXL
 40
1.0
  9
$DIMFXLON
 70
     0
  9
$DIMJOGANG
 40
0.7853981633974483
  9
$DIMTFILL
 70
     0
  9
$DIMTFILLCLR
 70
     0
  9
$DIMARCSYM
 70
     0
  9
$DIMLTYPE
  6

  9
$DIMLTEX1
  6

  9
$DIMLTEX2
  6

  9
$DIMTXTDIRECTION
 70
     0
  9
$LUNITS
 70
     2
  9
$LUPREC
 70
     4
  9
$SKETCHINC
 40
0.1
  9
$FILLETRAD
 40
0.5
  9
$AUNITS
 70
     0
  9
$AUPREC
 70
     0
  9
$MENU
  1
.
  9
$ELEVATION
 40
0.0
  9
$PELEVATION
 40
0.0
  9
$THICKNESS
 40
0.0
  9
$LIMCHECK
 70
     0
  9
$CHAMFERA
 40
0.0
  9
$CHAMFERB
 40
0.0
  9
$CHAMFERC
 40
0.0
  9
$CHAMFERD
 40
0.0
  9
$SKPOLY
 70
     0
  9
$TDCREATE
 40
2458377.423460139
  9
$TDUCREATE
 40
2458377.381793472
  9
$TDUPDATE
 40
2458377.423460266
  9
$TDUUPDATE
 40
2458377.3817936
  9
$TDINDWG
 40
0.0000000116
  9
$TDUSRTIMER
 40
0.0000000116
  9
$USRTIMER
 70
     1
  9
$ANGBASE
 50
0.0
  9
$ANGDIR
 70
     0
  9
$PDMODE
 70
     0
  9
$PDSIZE
 40
0.0
  9
$PLINEWID
 40
0.0
  9
$SPLFRAME
 70
     0
  9
$SPLINETYPE
 70
     6
  9
$SPLINESEGS
 70
     8
  9
$HANDSEED
  5
1FD6
  9
$SURFTAB1
 70
     6
  9
$SURFTAB2
 70
     6
  9
$SURFTYPE
 70
     6
  9
$SURFU
 70
     6
  9
$SURFV
 70
     6
  9
$UCSBASE
  2

  9
$UCSNAME
  2

  9
$UCSORG
 10
0.0
 20
0.0
 30
0.0
  9
$UCSXDIR
 10
1.0
 20
0.0
 30
0.0
  9
$UCSYDIR
 10
0.0
 20
1.0
 30
0.0
  9
$UCSORTHOREF
  2

  9
$UCSORTHOVIEW
 70
     0
  9
$UCSORGTOP
 10
0.0
 20
0.0
 30
0.0
  9
$UCSORGBOTTOM
 10
0.0
 20
0.0
 30
0.0
  9
$UCSORGLEFT
 10
0.0
 20
0.0
 30
0.0
  9
$UCSORGRIGHT
 10
0.0
 20
0.0
 30
0.0
  9
$UCSORGFRONT
 10
0.0
 20
0.0
 30
0.0
  9
$UCSORGBACK
 10
0.0
 20
0.0
 30
0.0
  9
$PUCSBASE
  2

  9
$PUCSNAME
  2

  9
$PUCSORG
 10
0.0
 20
0.0
 30
0.0
  9
$PUCSXDIR
 10
1.0
 20
0.0
 30
0.0
  9
$PUCSYDIR
 10
0.0
 20
1.0
 30
0.0
  9
$PUCSORTHOREF
  2

  9
$PUCSORTHOVIEW
 70
     0
  9
$PUCSORGTOP
 10
0.0
 20
0.0
 30
0.0
  9
$PUCSORGBOTTOM
 10
0.0
 20
0.0
 30
0.0
  9
$PUCSORGLEFT
 10
0.0
 20
0.0
 30
0.0
  9
$PUCSORGRIGHT
 10
0.0
 20
0.0
 30
0.0
  9
$PUCSORGFRONT
 10
0.0
 20
0.0
 30
0.0
  9
$PUCSORGBACK
 10
0.0
 20
0.0
 30
0.0
  9
$USERI1
 70
     0
  9
$USERI2
 70
     0
  9
$USERI3
 70
     0
  9
$USERI4
 70
     0
  9
$USERI5
 70
     0
  9
$USERR1
 40
0.0
  9
$USERR2
 40
0.0
  9
$USERR3
 40
0.0
  9
$USERR4
 40
0.0
  9
$USERR5
 40
0.0
  9
$WORLDVIEW
 70
     1
  9
$SHADEDGE
 70
     3
  9
$SHADEDIF
 70
    70
  9
$TILEMODE
 70
     1
  9
$MAXACTVP
 70
    64
  9
$PINSBASE
 10
0.0
 20
0.0
 30
0.0
  9
$PLIMCHECK
 70
     0
  9
$PEXTMIN
 10
0.0
 20
0.0
 30
0.0
  9
$PEXTMAX
 10
0.0
 20
0.0
 30
0.0
  9
$PLIMMIN
 10
-20.0
 20
-7.5
  9
$PLIMMAX
 10
277.0
 20
202.5
  9
$UNITMODE
 70
     0
  9
$VISRETAIN
 70
     1
  9
$PLINEGEN
 70
     0
  9
$PSLTSCALE
 70
     1
  9
$TREEDEPTH
 70
  3020
  9
$CMLSTYLE
  2
Standard
  9
$CMLJUST
 70
     0
  9
$CMLSCALE
 40
1.0
  9
$PROXYGRAPHICS
 70
     1
  9
$MEASUREMENT
 70
     1
  9
$CELWEIGHT
370
    -1
  9
$ENDCAPS
280
     0
  9
$JOINSTYLE
280
     0
  9
$LWDISPLAY
290
     0
  9
$INSUNITS
 70
     4
  9
$HYPERLINKBASE
  1

  9
$STYLESHEET
  1

  9
$XEDIT
290
     1
  9
$CEPSNTYPE
380
     0
  9
$PSTYLEMODE
290
     1
  9
$FINGERPRINTGUID
  2
{70637061-7230-3975-3662-3535f4717330}
  9
$VERSIONGUID
  2
{FAEB1C32-E019-11D5-929B-00C0DF256EC4}
  9
$EXTNAMES
290
     1
  9
$PSVPSCALE
 40
0.0
  9
$OLESTARTUP
290
     0
  9
$SORTENTS
280
   127
  9
$INDEXCTL
280
     0
  9
$HIDETEXT
280
     1
  9
$XCLIPFRAME
280
     2
  9
$HALOGAP
280
     0
  9
$OBSCOLOR
 70
   257
  9
$OBSLTYPE
280
     0
  9
$INTERSECTIONDISPLAY
280
     0
  9
$INTERSECTIONCOLOR
 70
   257
  9
$DIMASSOC
280
     2
  9
$PROJECTNAME
  1

  9
$CAMERADISPLAY
290
     0
  9
$LENSLENGTH
 40
50.0
  9
$CAMERAHEIGHT
 40
0.0
  9
$STEPSPERSEC
 40
2.0
  9
$STEPSIZE
 40
6.0
  9
$3DDWFPREC
 40
2.0
  9
$PSOLWIDTH
 40
0.25
  9
$PSOLHEIGHT
 40
4.0
  9
$LOFTANG1
 40
1.570796326794897
  9
$LOFTANG2
 40
1.570796326794897
  9
$LOFTMAG1
 40
0.0
  9
$LOFTMAG2
 40
0.0
  9
$LOFTPARAM
 70
     7
  9
$LOFTNORMALS
280
     1
  9
$LATITUDE
 40
37.795
  9
$LONGITUDE
 40
-122.394
  9
$NORTHDIRECTION
 40
0.0
  9
$TIMEZONE
 70
 -8000
  9
$LIGHTGLYPHDISPLAY
280
     1
  9
$TILEMODELIGHTSYNCH
280
     1
  9
$CMATERIAL
347
1F2F
  9
$SOLIDHIST
280
     0
  9
$SHOWHIST
280
     1
  9
$DWFFRAME
280
     2
  9
$DGNFRAME
280
     2
  9
$REALWORLDSCALE
290
     1
  9
$INTERFERECOLOR
 62
   256
  9
$CSHADOW
280
     0
  9
$SHADOWPLANELOCATION
 40
0.0
  0
ENDSEC
  0
SECTION
  2
CLASSES
  0
CLASS
  1
ACDBDICTIONARYWDFLT
  2
AcDbDictionaryWithDefault
  3
ObjectDBX Classes
 90
        0
 91
        3
280
     0
281
     0
  0
CLASS
  1
VISUALSTYLE
  2
AcDbVisualStyle
  3
ObjectDBX Classes
 90
     4095
 91
        3
280
     0
281
     0
  0
CLASS
  1
MATERIAL
  2
AcDbMaterial
  3
ObjectDBX Classes
 90
     1153
 91
        3
280
     0
281
     0
  0
CLASS
  1
SCALE
  2
AcDbScale
  3
ObjectDBX Classes
 90
     1153
 91
        3
280
     0
281
     0
  0
CLASS
  1
TABLESTYLE
  2
AcDbTableStyle
  3
ObjectDBX Classes
 90
     4095
 91
        3
280
     0
281
     0
  0
CLASS
  1
MLEADERSTYLE
  2
AcDbMLeaderStyle
  3
ACDB_MLEADERSTYLE_CLASS
 90
     4095
 91
        3
280
     0
281
     0
  0
CLASS
  1
SUN
  2
AcDbSun
  3
SCENEOE
 90
     1153
 91
        3
280
     0
281
     0
  0
CLASS
  1
DICTIONARYVAR
  2
AcDbDictionaryVar
  3
ObjectDBX Classes
 90
        0
 91
        3
280
     0
281
     0
  0
CLASS
  1
CELLSTYLEMAP
  2
AcDbCellStyleMap
  3
ObjectDBX Classes
 90
     1152
 91
        3
280
     0
281
     0
  0
ENDSEC
  0
SECTION
  2
TABLES
  0
TABLE
  2
VPORT
  5
1EF4
330
0
100
AcDbSymbolTable
 70
     1
  0
VPORT
  5
1F14
330
1EF4
100
AcDbSymbolTableRecord
100
AcDbViewportTableRecord
  2
*Active
 70
     0
 10
0.0
 20
0.0
 11
1.0
 21
1.0
 12
2776.589286187605
 22
-793.8197088180121
 13
0.0
 23
0.0
 14
0.5
 24
0.5
 15
0.5
 25
0.5
 16
0.0
 26
0.0
 36
1.0
 17
0.0
 27
0.0
 37
0.0
 40
720.5303449469582
 41
1.658349328214971
 42
50.0
 43
0.0
 44
0.0
 50
0.0
 51
0.0
 71
     0
 72
   100
 73
     1
 74
     3
 75
     0
 76
     0
 77
     0
 78
     0
281
     0
 65
     1
110
0.0
120
0.0
130
0.0
111
1.0
121
0.0
131
0.0
112
0.0
122
1.0
132
0.0
 79
     0
146
0.0
348
1F1A
 60
     3
 61
     5
292
     1
282
     1
141
0.0
142
0.0
 63
   250
361
1F58
  0
ENDTAB
  0
TABLE
  2
LTYPE
  5
1EF1
330
0
100
AcDbSymbolTable
 70
    48
  0
LTYPE
  5
1EFF
330
1EF1
100
AcDbSymbolTableRecord
100
AcDbLinetypeTableRecord
  2
ByBlock
 70
     0
  3

 72
    65
 73
     0
 40
0.0
  0
LTYPE
  5
1F00
330
1EF1
100
AcDbSymbolTableRecord
100
AcDbLinetypeTableRecord
  2
ByLayer
 70
     0
  3

 72
    65
 73
     0
 40
0.0
  0
LTYPE
  5
1F01
330
1EF1
100
AcDbSymbolTableRecord
100
AcDbLinetypeTableRecord
  2
Continuous
 70
     0
  3
Solid line
 72
    65
 73
     0
 40
0.0
  0
LTYPE
  5
1F90
330
1EF1
100
AcDbSymbolTableRecord
100
AcDbLinetypeTableRecord
  2
DIVIDEX2
 70
     0
  3
Divide (2x) ________  .  .  ________  .  .  _
 72
    65
 73
     6
 40
63.5
 49
25.4
 74
     0
 49
-12.7
 74
     0
 49
0.0
 74
     0
 49
-12.7
 74
     0
 49
0.0
 74
     0
 49
-12.7
 74
     0
  0
LTYPE
  5
1F91
330
1EF1
100
AcDbSymbolTableRecord
100
AcDbLinetypeTableRecord
  2
DIVIDE2
 70
     0
  3
Divide (.5x) __..__..__..__..__..__..__..__.._
 72
    65
 73
     6
 40
15.875
 49
6.35
 74
     0
 49
-3.175
 74
     0
 49
0.0
 74
     0
 49
-3.175
 74
     0
 49
0.0
 74
     0
 49
-3.175
 74
     0
  0
LTYPE
  5
1F92
330
1EF1
100
AcDbSymbolTableRecord
100
AcDbLinetypeTableRecord
  2
DIVIDE
 70
     0
  3
Divide ____ . . ____ . . ____ . . ____ . . ____
 72
    65
 73
     6
 40
31.75
 49
12.7
 74
     0
 49
-6.35
 74
     0
 49
0.0
 74
     0
 49
-6.35
 74
     0
 49
0.0
 74
     0
 49
-6.35
 74
     0
  0
LTYPE
  5
1F93
330
1EF1
100
AcDbSymbolTableRecord
100
AcDbLinetypeTableRecord
  2
DASHEDX2
 70
     0
  3
Dashed (2x) ____  ____  ____  ____  ____  ___
 72
    65
 73
     2
 40
38.09999999999999
 49
25.4
 74
     0
 49
-12.7
 74
     0
  0
LTYPE
  5
1F94
330
1EF1
100
AcDbSymbolTableRecord
100
AcDbLinetypeTableRecord
  2
DASHED2
 70
     0
  3
Dashed (.5x) _ _ _ _ _ _ _ _ _ _ _ _ _ _ _ _ _ 
 72
    65
 73
     2
 40
9.524999999999999
 49
6.35
 74
     0
 49
-3.175
 74
     0
  0
LTYPE
  5
1F95
330
1EF1
100
AcDbSymbolTableRecord
100
AcDbLinetypeTableRecord
  2
DASHED
 70
     0
  3
Dashed __ __ __ __ __ __ __ __ __ __ __ __ __ _
 72
    65
 73
     2
 40
19.05
 49
12.7
 74
     0
 49
-6.35
 74
     0
  0
LTYPE
  5
1F98
330
1EF1
100
AcDbSymbolTableRecord
100
AcDbLinetypeTableRecord
  2
ZIGZAG
 70
     0
  3
Zig zag /\/\/\/\/\/\/\/\/\/\/\/\/\/\/\/\/\/\/\/\/\/\/\/
 72
    65
 73
     4
 40
20.32254
 49
0.00254
 74
     0
 49
-5.08
 74
     2
 75
     0
340
1F96
 46
5.08
 50
0.0
 44
-5.08
 45
0.0
  9
ZIG
 49
-10.16
 74
     2
 75
     0
340
1F97
 46
5.08
 50
180.0
 44
5.08
 45
0.0
  9
ZIG
 49
-5.08
 74
     0
  0
LTYPE
  5
1F9A
330
1EF1
100
AcDbSymbolTableRecord
100
AcDbLinetypeTableRecord
  2
TRACKS
 70
     0
  3
Tracks -|-|-|-|-|-|-|-|-|-|-|-|-|-|-|-|-|-|-|-|-|-|-|-|-
 72
    65
 73
     2
 40
7.62
 49
3.81
 74
     2
 75
     0
340
1F99
 46
6.35
 50
0.0
 44
0.0
 45
0.0
  9
TRACK1
 49
3.81
 74
     0
  0
LTYPE
  5
1F9B
330
1EF1
100
AcDbSymbolTableRecord
100
AcDbLinetypeTableRecord
  2
PHANTOMX2
 70
     0
  3
Phantom (2x) ____________    ____    ____   _
 72
    65
 73
     6
 40
127.0
 49
63.5
 74
     0
 49
-12.7
 74
     0
 49
12.7
 74
     0
 49
-12.7
 74
     0
 49
12.7
 74
     0
 49
-12.7
 74
     0
  0
LTYPE
  5
1F9C
330
1EF1
100
AcDbSymbolTableRecord
100
AcDbLinetypeTableRecord
  2
PHANTOM2
 70
     0
  3
Phantom (.5x) ___ _ _ ___ _ _ ___ _ _ ___ _ _
 72
    65
 73
     6
 40
31.75
 49
15.875
 74
     0
 49
-3.175
 74
     0
 49
3.175
 74
     0
 49
-3.175
 74
     0
 49
3.175
 74
     0
 49
-3.175
 74
     0
  0
LTYPE
  5
1F9D
330
1EF1
100
AcDbSymbolTableRecord
100
AcDbLinetypeTableRecord
  2
PHANTOM
 70
     0
  3
Phantom ______  __  __  ______  __  __  ______ 
 72
    65
 73
     6
 40
63.50000000000001
 49
31.75
 74
     0
 49
-6.35
 74
     0
 49
6.35
 74
     0
 49
-6.35
 74
     0
 49
6.35
 74
     0
 49
-6.35
 74
     0
  0
LTYPE
  5
1F9F
330
1EF1
100
AcDbSymbolTableRecord
100
AcDbLinetypeTableRecord
  2
HOT_WATER_SUPPLY
 70
     0
  3
Hot water supply ---- HW ---- HW ---- HW ----
 72
    65
 73
     3
 40
22.86
 49
12.7
 74
     0
 49
-5.08
 74
     2
 75
     0
340
1F9E
 46
2.54
 50
0.0
 44
-2.54
 45
-1.27
  9
HW
 49
-5.08
 74
     0
  0
LTYPE
  5
1FA0
330
1EF1
100
AcDbSymbolTableRecord
100
AcDbLinetypeTableRecord
  2
HIDDENX2
 70
     0
  3
Hidden (2x) ____ ____ ____ ____ ____ ____ ____ 
 72
    65
 73
     2
 40
19.05
 49
12.7
 74
     0
 49
-6.35
 74
     0
  0
LTYPE
  5
1FA1
330
1EF1
100
AcDbSymbolTableRecord
100
AcDbLinetypeTableRecord
  2
ACAD_ISO09W100
 70
     0
  3
ISO long-dash double-short-dash ____ __ __ ____
 72
    65
 73
     6
 40
45.0
 49
24.0
 74
     0
 49
-3.0
 74
     0
 49
6.0
 74
     0
 49
-3.0
 74
     0
 49
6.0
 74
     0
 49
-3.0
 74
     0
  0
LTYPE
  5
1FA2
330
1EF1
100
AcDbSymbolTableRecord
100
AcDbLinetypeTableRecord
  2
ACAD_ISO08W100
 70
     0
  3
ISO long-dash short-dash ____ __ ____ __ ____ _
 72
    65
 73
     4
 40
36.0
 49
24.0
 74
     0
 49
-3.0
 74
     0
 49
6.0
 74
     0
 49
-3.0
 74
     0
  0
LTYPE
  5
1FA3
330
1EF1
100
AcDbSymbolTableRecord
100
AcDbLinetypeTableRecord
  2
ACAD_ISO07W100
 70
     0
  3
ISO dot . . . . . . . . . . . . . . . . . . . . 
 72
    65
 73
     2
 40
3.0
 49
0.0
 74
     0
 49
-3.0
 74
     0
  0
LTYPE
  5
1FA4
330
1EF1
100
AcDbSymbolTableRecord
100
AcDbLinetypeTableRecord
  2
ACAD_ISO06W100
 70
     0
  3
ISO long-dash triple-dot ____ ... ____ ... ____
 72
    65
 73
     8
 40
36.0
 49
24.0
 74
     0
 49
-3.0
 74
     0
 49
0.0
 74
     0
 49
-3.0
 74
     0
 49
0.0
 74
     0
 49
-3.0
 74
     0
 49
0.0
 74
     0
 49
-3.0
 74
     0
  0
LTYPE
  5
1FA5
330
1EF1
100
AcDbSymbolTableRecord
100
AcDbLinetypeTableRecord
  2
ACAD_ISO05W100
 70
     0
  3
ISO long-dash double-dot ____ .. ____ .. ____ . 
 72
    65
 73
     6
 40
33.0
 49
24.0
 74
     0
 49
-3.0
 74
     0
 49
0.0
 74
     0
 49
-3.0
 74
     0
 49
0.0
 74
     0
 49
-3.0
 74
     0
  0
LTYPE
  5
1FA6
330
1EF1
100
AcDbSymbolTableRecord
100
AcDbLinetypeTableRecord
  2
ACAD_ISO04W100
 70
     0
  3
ISO long-dash dot ____ . ____ . ____ . ____ . _
 72
    65
 73
     4
 40
30.0
 49
24.0
 74
     0
 49
-3.0
 74
     0
 49
0.0
 74
     0
 49
-3.0
 74
     0
  0
LTYPE
  5
1FA7
330
1EF1
100
AcDbSymbolTableRecord
100
AcDbLinetypeTableRecord
  2
ACAD_ISO03W100
 70
     0
  3
ISO dash space __    __    __    __    __    __
 72
    65
 73
     2
 40
30.0
 49
12.0
 74
     0
 49
-18.0
 74
     0
  0
LTYPE
  5
1FA8
330
1EF1
100
AcDbSymbolTableRecord
100
AcDbLinetypeTableRecord
  2
ACAD_ISO02W100
 70
     0
  3
ISO dash __ __ __ __ __ __ __ __ __ __ __ __ __
 72
    65
 73
     2
 40
15.0
 49
12.0
 74
     0
 49
-3.0
 74
     0
  0
LTYPE
  5
1FA9
330
1EF1
100
AcDbSymbolTableRecord
100
AcDbLinetypeTableRecord
  2
DASHDOTX2
 70
     0
  3
Dash dot (2x) ____  .  ____  .  ____  .  ___
 72
    65
 73
     4
 40
50.8
 49
25.4
 74
     0
 49
-12.7
 74
     0
 49
0.0
 74
     0
 49
-12.7
 74
     0
  0
LTYPE
  5
1FAA
330
1EF1
100
AcDbSymbolTableRecord
100
AcDbLinetypeTableRecord
  2
DASHDOT2
 70
     0
  3
Dash dot (.5x) _._._._._._._._._._._._._._._.
 72
    65
 73
     4
 40
12.7
 49
6.35
 74
     0
 49
-3.175
 74
     0
 49
0.0
 74
     0
 49
-3.175
 74
     0
  0
LTYPE
  5
1FAB
330
1EF1
100
AcDbSymbolTableRecord
100
AcDbLinetypeTableRecord
  2
DASHDOT
 70
     0
  3
Dash dot __ . __ . __ . __ . __ . __ . __ . __
 72
    65
 73
     4
 40
25.4
 49
12.7
 74
     0
 49
-6.35
 74
     0
 49
0.0
 74
     0
 49
-6.35
 74
     0
  0
LTYPE
  5
1FAC
330
1EF1
100
AcDbSymbolTableRecord
100
AcDbLinetypeTableRecord
  2
CENTERX2
 70
     0
  3
Center (2x) ________  __  ________  __  _____
 72
    65
 73
     4
 40
101.6
 49
63.5
 74
     0
 49
-12.7
 74
     0
 49
12.7
 74
     0
 49
-12.7
 74
     0
  0
LTYPE
  5
1FAD
330
1EF1
100
AcDbSymbolTableRecord
100
AcDbLinetypeTableRecord
  2
CENTER2
 70
     0
  3
Center (.5x) ___ _ ___ _ ___ _ ___ _ ___ _ ___
 72
    65
 73
     4
 40
28.575
 49
19.05
 74
     0
 49
-3.175
 74
     0
 49
3.175
 74
     0
 49
-3.175
 74
     0
  0
LTYPE
  5
1FAE
330
1EF1
100
AcDbSymbolTableRecord
100
AcDbLinetypeTableRecord
  2
CENTER
 70
     0
  3
Center ____ _ ____ _ ____ _ ____ _ ____ _ ____
 72
    65
 73
     4
 40
50.8
 49
31.75
 74
     0
 49
-6.35
 74
     0
 49
6.35
 74
     0
 49
-6.35
 74
     0
  0
LTYPE
  5
1FAF
330
1EF1
100
AcDbSymbolTableRecord
100
AcDbLinetypeTableRecord
  2
BORDERX2
 70
     0
  3
Border (2x) ____  ____  .  ____  ____  .  ___
 72
    65
 73
     6
 40
88.89999999999999
 49
25.4
 74
     0
 49
-12.7
 74
     0
 49
25.4
 74
     0
 49
-12.7
 74
     0
 49
0.0
 74
     0
 49
-12.7
 74
     0
  0
LTYPE
  5
1FB0
330
1EF1
100
AcDbSymbolTableRecord
100
AcDbLinetypeTableRecord
  2
BORDER2
 70
     0
  3
Border (.5x) __.__.__.__.__.__.__.__.__.__.__.
 72
    65
 73
     6
 40
22.225
 49
6.35
 74
     0
 49
-3.175
 74
     0
 49
6.35
 74
     0
 49
-3.175
 74
     0
 49
0.0
 74
     0
 49
-3.175
 74
     0
  0
LTYPE
  5
1FB1
330
1EF1
100
AcDbSymbolTableRecord
100
AcDbLinetypeTableRecord
  2
BORDER
 70
     0
  3
Border __ __ . __ __ . __ __ . __ __ . __ __ .
 72
    65
 73
     6
 40
44.45
 49
12.7
 74
     0
 49
-6.35
 74
     0
 49
12.7
 74
     0
 49
-6.35
 74
     0
 49
0.0
 74
     0
 49
-6.35
 74
     0
  0
LTYPE
  5
1FB4
330
1EF1
100
AcDbSymbolTableRecord
100
AcDbLinetypeTableRecord
  2
BATTING
 70
     0
  3
Batting SSSSSSSSSSSSSSSSSSSSSSSSSSSSSSSSSSSSSSSSSSSSSSS
 72
    65
 73
     4
 40
10.16254
 49
0.00254
 74
     0
 49
-2.54
 74
     2
 75
     0
340
1FB2
 46
2.54
 50
0.0
 44
-2.54
 45
0.0
  9
BAT
 49
-5.08
 74
     2
 75
     0
340
1FB3
 46
2.54
 50
180.0
 44
2.54
 45
0.0
  9
BAT
 49
-2.54
 74
     0
  0
LTYPE
  5
1FB5
330
1EF1
100
AcDbSymbolTableRecord
100
AcDbLinetypeTableRecord
  2
ACAD_ISO15W100
 70
     0
  3
ISO double-dash triple-dot __ __ . . . __ __ . .
 72
    65
 73
    10
 40
39.0
 49
12.0
 74
     0
 49
-3.0
 74
     0
 49
12.0
 74
     0
 49
-3.0
 74
     0
 49
0.0
 74
     0
 49
-3.0
 74
     0
 49
0.0
 74
     0
 49
-3.0
 74
     0
 49
0.0
 74
     0
 49
-3.0
 74
     0
  0
LTYPE
  5
1FB6
330
1EF1
100
AcDbSymbolTableRecord
100
AcDbLinetypeTableRecord
  2
ACAD_ISO14W100
 70
     0
  3
ISO dash triple-dot __ . . . __ . . . __ . . . _
 72
    65
 73
     8
 40
24.0
 49
12.0
 74
     0
 49
-3.0
 74
     0
 49
0.0
 74
     0
 49
-3.0
 74
     0
 49
0.0
 74
     0
 49
-3.0
 74
     0
 49
0.0
 74
     0
 49
-3.0
 74
     0
  0
LTYPE
  5
1FB7
330
1EF1
100
AcDbSymbolTableRecord
100
AcDbLinetypeTableRecord
  2
ACAD_ISO13W100
 70
     0
  3
ISO double-dash double-dot __ __ . . __ __ . . _
 72
    65
 73
     8
 40
36.0
 49
12.0
 74
     0
 49
-3.0
 74
     0
 49
12.0
 74
     0
 49
-3.0
 74
     0
 49
0.0
 74
     0
 49
-3.0
 74
     0
 49
0.0
 74
     0
 49
-3.0
 74
     0
  0
LTYPE
  5
1FB8
330
1EF1
100
AcDbSymbolTableRecord
100
AcDbLinetypeTableRecord
  2
ACAD_ISO12W100
 70
     0
  3
ISO dash double-dot __ . . __ . . __ . . __ . . 
 72
    65
 73
     6
 40
21.0
 49
12.0
 74
     0
 49
-3.0
 74
     0
 49
0.0
 74
     0
 49
-3.0
 74
     0
 49
0.0
 74
     0
 49
-3.0
 74
     0
  0
LTYPE
  5
1FB9
330
1EF1
100
AcDbSymbolTableRecord
100
AcDbLinetypeTableRecord
  2
ACAD_ISO11W100
 70
     0
  3
ISO double-dash dot __ __ . __ __ . __ __ . __ _
 72
    65
 73
     6
 40
33.0
 49
12.0
 74
     0
 49
-3.0
 74
     0
 49
12.0
 74
     0
 49
-3.0
 74
     0
 49
0.0
 74
     0
 49
-3.0
 74
     0
  0
LTYPE
  5
1FBA
330
1EF1
100
AcDbSymbolTableRecord
100
AcDbLinetypeTableRecord
  2
ACAD_ISO10W100
 70
     0
  3
ISO dash dot __ . __ . __ . __ . __ . __ . __ . 
 72
    65
 73
     4
 40
18.0
 49
12.0
 74
     0
 49
-3.0
 74
     0
 49
0.0
 74
     0
 49
-3.0
 74
     0
  0
LTYPE
  5
1FBB
330
1EF1
100
AcDbSymbolTableRecord
100
AcDbLinetypeTableRecord
  2
HIDDEN2
 70
     0
  3
Hidden (.5x) _ _ _ _ _ _ _ _ _ _ _ _ _ _ _ _ _ 
 72
    65
 73
     2
 40
4.762499999999999
 49
3.175
 74
     0
 49
-1.5875
 74
     0
  0
LTYPE
  5
1FBC
330
1EF1
100
AcDbSymbolTableRecord
100
AcDbLinetypeTableRecord
  2
HIDDEN
 70
     0
  3
Hidden __ __ __ __ __ __ __ __ __ __ __ __ __ __
 72
    65
 73
     2
 40
9.524999999999999
 49
6.35
 74
     0
 49
-3.175
 74
     0
  0
LTYPE
  5
1FBE
330
1EF1
100
AcDbSymbolTableRecord
100
AcDbLinetypeTableRecord
  2
GAS_LINE
 70
     0
  3
Gas line ----GAS----GAS----GAS----GAS----GAS----GAS--
 72
    65
 73
     3
 40
24.13
 49
12.7
 74
     0
 49
-5.08
 74
     2
 75
     0
340
1FBD
 46
2.54
 50
0.0
 44
-2.54
 45
-1.27
  9
GAS
 49
-6.35
 74
     0
  0
LTYPE
  5
1FC0
330
1EF1
100
AcDbSymbolTableRecord
100
AcDbLinetypeTableRecord
  2
FENCELINE2
 70
     0
  3
Fenceline square ----[]-----[]----[]-----[]----[]---
 72
    65
 73
     4
 40
36.83
 49
6.35
 74
     0
 49
-2.54
 74
     2
 75
     0
340
1FBF
 46
2.54
 50
0.0
 44
-2.54
 45
0.0
  9
BOX
 49
-2.54
 74
     0
 49
25.4
 74
     0
  0
LTYPE
  5
1FC2
330
1EF1
100
AcDbSymbolTableRecord
100
AcDbLinetypeTableRecord
  2
FENCELINE1
 70
     0
  3
Fenceline circle ----0-----0----0-----0----0-----0--
 72
    65
 73
     4
 40
36.83
 49
6.35
 74
     0
 49
-2.54
 74
     2
 75
     0
340
1FC1
 46
2.54
 50
0.0
 44
-2.54
 45
0.0
  9
CIRC1
 49
-2.54
 74
     0
 49
25.4
 74
     0
  0
LTYPE
  5
1FC4
330
1EF1
100
AcDbSymbolTableRecord
100
AcDbLinetypeTableRecord
  2
DRAINAGE2
 70
     0
  3
Drainage reversed----<----<----<----
 72
    65
 73
     2
 40
10.16
 49
5.08
 74
     2
 75
     0
340
1FC3
 46
2.54
 50
0.0
 44
0.0
 45
0.0
  9
RIGHT_ARROW
 49
5.08
 74
     0
  0
LTYPE
  5
1FC6
330
1EF1
100
AcDbSymbolTableRecord
100
AcDbLinetypeTableRecord
  2
DRAINAGE
 70
     0
  3
Drainage ---->---->---->----
 72
    65
 73
     2
 40
10.16
 49
5.08
 74
     2
 75
     0
340
1FC5
 46
2.54
 50
180.0
 44
0.0
 45
0.0
  9
RIGHT_ARROW
 49
5.08
 74
     0
  0
LTYPE
  5
1FC7
330
1EF1
100
AcDbSymbolTableRecord
100
AcDbLinetypeTableRecord
  2
DOTX2
 70
     0
  3
Dot (2x) .  .  .  .  .  .  .  .  .  .  .  .  .  .
 72
    65
 73
     2
 40
12.7
 49
0.0
 74
     0
 49
-12.7
 74
     0
  0
LTYPE
  5
1FC8
330
1EF1
100
AcDbSymbolTableRecord
100
AcDbLinetypeTableRecord
  2
DOT2
 70
     0
  3
Dot (.5x) ........................................
 72
    65
 73
     2
 40
3.175
 49
0.0
 74
     0
 49
-3.175
 74
     0
  0
LTYPE
  5
1FC9
330
1EF1
100
AcDbSymbolTableRecord
100
AcDbLinetypeTableRecord
  2
DOT
 70
     0
  3
Dot . . . . . . . . . . . . . . . . . . . . . . . .
 72
    65
 73
     2
 40
6.35
 49
0.0
 74
     0
 49
-6.35
 74
     0
  0
ENDTAB
  0
TABLE
  2
LAYER
  5
1EEF
330
0
100
AcDbSymbolTable
 70
     2
  0
LAYER
  5
1EFC
330
1EEF
100
AcDbSymbolTableRecord
100
AcDbLayerTableRecord
  2
0
 70
     0
 62
     3
420
    65280
  6
BORDER2
370
    50
390
1EFB
347
1F31
348
0
  0
LAYER
  5
1FCA
330
1EEF
100
AcDbSymbolTableRecord
100
AcDbLayerTableRecord
  2
ALL
 70
     0
 62
     4
420
    65535
  6
Continuous
370
    25
390
1EFB
347
1F31
348
0
  0
ENDTAB
  0
TABLE
  2
STYLE
  5
1EF0
330
0
100
AcDbSymbolTable
 70
    13
  0
STYLE
  5
1EFD
330
1EF0
100
AcDbSymbolTableRecord
100
AcDbTextStyleTableRecord
  2
Standard
 70
     0
 40
0.0
 41
1.0
 50
0.0
 71
     0
 42
0.2
  3
txt
  4

  0
STYLE
  5
1F8E
330
1EF0
100
AcDbSymbolTableRecord
100
AcDbTextStyleTableRecord
  2
QCADDimTextStyle
 70
     0
 40
0.0
 41
1.0
 50
0.0
 71
     0
 42
0.2
  3
txt
  4

  0
STYLE
  5
1F96
330
1EF0
100
AcDbSymbolTableRecord
100
AcDbTextStyleTableRecord
  2
textstyle0
 70
     0
 40
0.0
 41
1.0
 50
0.0
 71
     0
 42
0.2
  3
ltypeshp.shx
  4

  0
STYLE
  5
1F97
330
1EF0
100
AcDbSymbolTableRecord
100
AcDbTextStyleTableRecord
  2
textstyle1
 70
     0
 40
0.0
 41
1.0
 50
0.0
 71
     0
 42
0.2
  3
ltypeshp.shx
  4

  0
STYLE
  5
1F99
330
1EF0
100
AcDbSymbolTableRecord
100
AcDbTextStyleTableRecord
  2
textstyle2
 70
     0
 40
0.0
 41
1.0
 50
0.0
 71
     0
 42
0.2
  3
ltypeshp.shx
  4

  0
STYLE
  5
1F9E
330
1EF0
100
AcDbSymbolTableRecord
100
AcDbTextStyleTableRecord
  2
textstyle3
 70
     0
 40
0.0
 41
1.0
 50
0.0
 71
     0
 42
0.2
  3
STANDARD
  4

  0
STYLE
  5
1FB2
330
1EF0
100
AcDbSymbolTableRecord
100
AcDbTextStyleTableRecord
  2
textstyle4
 70
     0
 40
0.0
 41
1.0
 50
0.0
 71
     0
 42
0.2
  3
ltypeshp.shx
  4

  0
STYLE
  5
1FB3
330
1EF0
100
AcDbSymbolTableRecord
100
AcDbTextStyleTableRecord
  2
textstyle5
 70
     0
 40
0.0
 41
1.0
 50
0.0
 71
     0
 42
0.2
  3
ltypeshp.shx
  4

  0
STYLE
  5
1FBD
330
1EF0
100
AcDbSymbolTableRecord
100
AcDbTextStyleTableRecord
  2
textstyle6
 70
     0
 40
0.0
 41
1.0
 50
0.0
 71
     0
 42
0.2
  3
STANDARD
  4

  0
STYLE
  5
1FBF
330
1EF0
100
AcDbSymbolTableRecord
100
AcDbTextStyleTableRecord
  2
textstyle7
 70
     0
 40
0.0
 41
1.0
 50
0.0
 71
     0
 42
0.2
  3
ltypeshp.shx
  4

  0
STYLE
  5
1FC1
330
1EF0
100
AcDbSymbolTableRecord
100
AcDbTextStyleTableRecord
  2
textstyle8
 70
     0
 40
0.0
 41
1.0
 50
0.0
 71
     0
 42
0.2
  3
ltypeshp.shx
  4

  0
STYLE
  5
1FC3
330
1EF0
100
AcDbSymbolTableRecord
100
AcDbTextStyleTableRecord
  2
textstyle9
 70
     0
 40
0.0
 41
1.0
 50
0.0
 71
     0
 42
0.2
  3
qcadshp.shx
  4

  0
STYLE
  5
1FC5
330
1EF0
100
AcDbSymbolTableRecord
100
AcDbTextStyleTableRecord
  2
textstyle10
 70
     0
 40
0.0
 41
1.0
 50
0.0
 71
     0
 42
0.2
  3
qcadshp.shx
  4

  0
ENDTAB
  0
TABLE
  2
VIEW
  5
1EF2
330
0
100
AcDbSymbolTable
 70
     0
  0
ENDTAB
  0
TABLE
  2
UCS
  5
1EF3
330
0
100
AcDbSymbolTable
 70
     0
  0
ENDTAB
  0
TABLE
  2
APPID
  5
1EF5
330
0
100
AcDbSymbolTable
 70
     2
  0
APPID
  5
1EFE
330
1EF5
100
AcDbSymbolTableRecord
100
AcDbRegAppTableRecord
  2
ACAD
 70
     0
  0
APPID
  5
1F59
330
1EF5
100
AcDbSymbolTableRecord
100
AcDbRegAppTableRecord
  2
QCAD
 70
     0
  0
ENDTAB
  0
TABLE
  2
DIMSTYLE
  5
1EF6
330
0
100
AcDbSymbolTable
 70
     2
100
AcDbDimStyleTable
  0
DIMSTYLE
105
1F12
330
1EF6
100
AcDbSymbolTableRecord
100
AcDbDimStyleTableRecord
  2
Standard
 70
     0
178
     0
340
1EFD
  0
DIMSTYLE
105
1F8F
330
1EF6
100
AcDbSymbolTableRecord
100
AcDbDimStyleTableRecord
  2
QCADDimStyle
 70
     0
 41
2.5
 42
0.625
 44
1.25
 73
     0
 77
     1
140
2.5
147
0.625
178
     0
340
1F8E
  0
ENDTAB
  0
TABLE
  2
BLOCK_RECORD
  5
1EEE
330
0
100
AcDbSymbolTable
 70
     0
  0
BLOCK_RECORD
  5
1F0A
330
1EEE
100
AcDbSymbolTableRecord
100
AcDbBlockTableRecord
  2
*Model_Space
340
1F0D
 70
     0
280
     1
281
     0
  0
BLOCK_RECORD
  5
1F06
330
1EEE
100
AcDbSymbolTableRecord
100
AcDbBlockTableRecord
  2
*Paper_Space
340
1F09
 70
     0
280
     1
281
     0
1001
QCAD
1000
PageSettings/Scale:1:1
  0
ENDTAB
  0
ENDSEC
  0
SECTION
  2
BLOCKS
  0
BLOCK
  5
1F0B
330
1F0A
100
AcDbEntity
  8
0
100
AcDbBlockBegin
  2
*Model_Space
 70
     0
 10
0.0
 20
0.0
 30
0.0
  3
*Model_Space
  1

  0
ENDBLK
  5
1F0C
330
1F0A
100
AcDbEntity
  8
0
100
AcDbBlockEnd
  0
BLOCK
  5
1F07
330
1F06
100
AcDbEntity
 67
     1
  8
0
100
AcDbBlockBegin
  2
*Paper_Space
 70
     0
 10
0.0
 20
0.0
 30
0.0
  3
*Paper_Space
  1

  0
ENDBLK
  5
1F08
330
1F06
100
AcDbEntity
 67
     1
  8
0
100
AcDbBlockEnd
  0
ENDSEC
  0
SECTION
  2
ENTITIES
  0
ARC
  5
19A9
330
1F0A
100
AcDbEntity
  8
ALL
100
AcDbCircle
 10
1623.404473139315
 20
-788.6785688086508
 30
0.0
 40
953.7676097623482
100
AcDbArc
 50
349.9467632741525
 51
351.1445563970508
1001
QCAD
1000
reversed:1
  0
ARC
  5
19AA
330
1F0A
100
AcDbEntity
  8
ALL
100
AcDbCircle
 10
1195.142384697903
 20
-712.75404621413
 30
0.0
 40
1388.707777518104
100
AcDbArc
 50
348.9541154632508
 51
349.9467632741536
1001
QCAD
1000
reversed:1
  0
ARC
  5
19AB
330
1F0A
100
AcDbEntity
  8
ALL
100
AcDbCircle
 10
887.256924423903
 20
-652.6512533683268
 30
0.0
 40
1702.404768826594
100
AcDbArc
 50
348.3725949217746
 51
348.9541154632564
1001
QCAD
1000
reversed:1
  0
ARC
  5
19AC
330
1F0A
100
AcDbEntity
  8
ALL
100
AcDbCircle
 10
-1433.461322465354
 20
-175.1193058531427
 30
0.0
 40
4071.744327088007
100
AcDbArc
 50
347.9965799486188
 51
348.3725949217707
1001
QCAD
1000
reversed:1
  0
ARC
  5
19AD
330
1F0A
100
AcDbEntity
  8
ALL
100
AcDbCircle
 10
-7783.836445916619
 20
1175.090788065037
 30
0.0
 40
10564.07299300343
100
AcDbArc
 50
347.936911481725
 51
347.9965799486287
1001
QCAD
1000
reversed:1
  0
ARC
  5
19AE
330
1F0A
100
AcDbEntity
  8
ALL
100
AcDbCircle
 10
16887.67530854268
 20
-4097.400801438661
 30
0.0
 40
14664.53497120677
100
AcDbArc
 50
167.9369114817121
 51
167.979895594559
  0
ARC
  5
19AF
330
1F0A
100
AcDbEntity
  8
ALL
100
AcDbCircle
 10
8588.13060539165
 20
-2330.234102983798
 30
0.0
 40
6178.940094020481
100
AcDbArc
 50
167.9798955945595
 51
168.099882216418
  0
ARC
  5
19B0
330
1F0A
100
AcDbEntity
  8
ALL
100
AcDbCircle
 10
5506.720148290831
 20
-1680.872455343917
 30
0.0
 40
3029.851185374702
100
AcDbArc
 50
168.0998822164047
 51
168.2712303001801
  0
ARC
  5
19B1
330
1F0A
100
AcDbEntity
  8
ALL
100
AcDbCircle
 10
4693.901629723665
 20
-1512.1201471266
 30
0.0
 40
2199.699822276144
100
AcDbArc
 50
168.2712303002006
 51
168.922605282116
  0
ARC
  5
19B2
330
1F0A
100
AcDbEntity
  8
ALL
100
AcDbCircle
 10
3781.304308197209
 20
-1333.449554027086
 30
0.0
 40
1269.776679163878
100
AcDbArc
 50
168.9226052821138
 51
169.7799408146461
  0
ARC
  5
19B3
330
1F0A
100
AcDbEntity
  8
ALL
100
AcDbCircle
 10
2801.853402681998
 20
-1145.862371028782
 30
0.0
 40
176.5921941036528
100
AcDbArc
 50
0.8901170476458221
 51
3.404615420784677
  0
ARC
  5
19B4
330
1F0A
100
AcDbEntity
  8
ALL
100
AcDbCircle
 10
2683.60125066729
 20
-1152.897402758909
 30
0.0
 40
295.0534245866842
100
AcDbArc
 50
3.404615420781142
 51
5.349853604312555
  0
ARC
  5
19B5
330
1F0A
100
AcDbEntity
  8
ALL
100
AcDbCircle
 10
2581.711595180359
 20
-1162.438845665151
 30
0.0
 40
397.3888584694723
100
AcDbArc
 50
5.349853604315352
 51
5.893467719994628
  0
ARC
  5
19B6
330
1F0A
100
AcDbEntity
  8
ALL
100
AcDbCircle
 10
2250.051149660775
 20
-1196.674402761245
 30
0.0
 40
730.8115998833249
100
AcDbArc
 50
5.893467719995804
 51
6.294329923432238
  0
ARC
  5
19B7
330
1F0A
100
AcDbEntity
  8
ALL
100
AcDbCircle
 10
1624.742205843163
 20
-1265.646517795437
 30
0.0
 40
1359.912885743231
100
AcDbArc
 50
6.29432992343926
 51
6.481468474302293
  0
ARC
  5
19B8
330
1F0A
100
AcDbEntity
  8
ALL
100
AcDbCircle
 10
5576.537955061585
 20
-816.6909632417888
 30
0.0
 40
2617.303569707159
100
AcDbArc
 50
186.3842340353451
 51
186.4814684742928
1001
QCAD
1000
reversed:1
  0
ARC
  5
19B9
330
1F0A
100
AcDbEntity
  8
ALL
100
AcDbCircle
 10
3667.312826349381
 20
-1030.312923056018
 30
0.0
 40
696.1646018495494
100
AcDbArc
 50
185.4781089812051
 51
186.384234035352
1001
QCAD
1000
reversed:1
  0
ARC
  5
19BA
330
1F0A
100
AcDbEntity
  8
ALL
100
AcDbCircle
 10
3235.314125404477
 20
-1071.743088705318
 30
0.0
 40
262.1838001499651
100
AcDbArc
 50
184.0015572331316
 51
185.4781089812121
1001
QCAD
1000
reversed:1
  0
ARC
  5
19BB
330
1F0A
100
AcDbEntity
  8
ALL
100
AcDbCircle
 10
3186.837040838807
 20
-1075.134260677559
 30
0.0
 40
213.5882471092557
100
AcDbArc
 50
181.3907705256843
 51
184.0015572331215
1001
QCAD
1000
reversed:1
  0
ARC
  5
19BC
330
1F0A
100
AcDbEntity
  8
ALL
100
AcDbCircle
 10
3118.793848636731
 20
-1076.786233254172
 30
0.0
 40
145.5250043240151
100
AcDbArc
 50
178.2277002832947
 51
181.3907705256911
1001
QCAD
1000
reversed:1
  0
ARC
  5
19BD
330
1F0A
100
AcDbEntity
  8
ALL
100
AcDbCircle
 10
2766.35874588386
 20
-782.6472905327079
 30
0.0
 40
291.9740590246941
100
AcDbArc
 50
327.4313509337022
 51
332.2178627731449
  0
ARC
  5
19BE
330
1F0A
100
AcDbEntity
  8
ALL
100
AcDbCircle
 10
2750.221437864424
 20
-774.145481723362
 30
0.0
 40
310.2139456237066
100
AcDbArc
 50
332.2178627731448
 51
336.8614454461168
  0
ARC
  5
19BF
330
1F0A
100
AcDbEntity
  8
ALL
100
AcDbCircle
 10
2740.080218350357
 20
-769.8118171281839
 30
0.0
 40
321.2423173102242
100
AcDbArc
 50
336.8614454461169
 51
341.198973856985
  0
ARC
  5
19C0
330
1F0A
100
AcDbEntity
  8
ALL
100
AcDbCircle
 10
2717.306054555112
 20
-762.0584042190509
 30
0.0
 40
345.3001216221757
100
AcDbArc
 50
341.1989738569845
 51
345.3826023522624
  0
ARC
  5
19C1
330
1F0A
100
AcDbEntity
  8
ALL
100
AcDbCircle
 10
2704.910603641811
 20
-758.8256115734958
 30
0.0
 40
358.110201701286
100
AcDbArc
 50
345.3826023522637
 51
349.27886625229
  0
ARC
  5
19C2
330
1F0A
100
AcDbEntity
  8
ALL
100
AcDbCircle
 10
2680.401961632503
 20
-754.1852920819068
 30
0.0
 40
383.0542610767055
100
AcDbArc
 50
349.2788662522895
 51
353.0460873601185
  0
ARC
  5
19C3
330
1F0A
100
AcDbEntity
  8
ALL
100
AcDbCircle
 10
2668.644025601135
 20
-752.7511985130928
 30
0.0
 40
394.8993311095016
100
AcDbArc
 50
353.0460873601173
 51
356.5954435883926
  0
ARC
  5
19C4
330
1F0A
100
AcDbEntity
  8
ALL
100
AcDbCircle
 10
2648.679117690271
 20
-751.563471117452
 30
0.0
 40
414.899537214831
100
AcDbArc
 50
356.5954435883937
 51
0.0581682840884757
  0
ARC
  5
19C8
330
1F0A
100
AcDbEntity
  8
ALL
100
AcDbCircle
 10
2651.052242889705
 20
-552.8914008480509
 30
0.0
 40
109.4089563874338
100
AcDbArc
 50
146.308206893329
 51
150.5663178248581
  0
ARC
  5
19C9
330
1F0A
100
AcDbEntity
  8
ALL
100
AcDbCircle
 10
2781.658203893724
 20
-634.0381575466439
 30
0.0
 40
258.6087007011666
100
AcDbArc
 50
160.9389419131224
 51
173.3644767125487
  0
ARC
  5
19CA
330
1F0A
100
AcDbEntity
  8
ALL
100
AcDbCircle
 10
2593.561499180974
 20
-677.9034702850869
 30
0.0
 40
77.64245262046441
100
AcDbArc
 50
161.270473929409
 51
165.5054792338836
  0
ARC
  5
19CB
330
1F0A
100
AcDbEntity
  8
ALL
100
AcDbCircle
 10
2616.074078692717
 20
-683.7233223876539
 30
0.0
 40
100.8951280529445
100
AcDbArc
 50
165.505479233888
 51
169.2203669304243
  0
ARC
  5
19CC
330
1F0A
100
AcDbEntity
  8
ALL
100
AcDbCircle
 10
2633.447171422573
 20
-687.031017163297
 30
0.0
 40
118.5802968598579
100
AcDbArc
 50
169.2203669304242
 51
171.8304479583486
  0
ARC
  5
19CD
330
1F0A
100
AcDbEntity
  8
ALL
100
AcDbCircle
 10
2706.367687280465
 20
-697.4994711493799
 30
0.0
 40
192.2484050332035
100
AcDbArc
 50
171.8304479583423
 51
173.8802621336515
  0
ARC
  5
19CE
330
1F0A
100
AcDbEntity
  8
ALL
100
AcDbCircle
 10
2735.295805961809
 20
-700.6010748551458
 30
0.0
 40
221.342321854243
100
AcDbArc
 50
173.8802621336635
 51
174.8249144122239
  0
ARC
  5
19CF
330
1F0A
100
AcDbEntity
  8
ALL
100
AcDbCircle
 10
3747.45860796275
 20
-792.2713507018228
 30
0.0
 40
1237.647874937665
100
AcDbArc
 50
174.824914412215
 51
175.2244004614875
  0
ARC
  5
19D0
330
1F0A
100
AcDbEntity
  8
ALL
100
AcDbCircle
 10
1863.825629865154
 20
-634.9060775710929
 30
0.0
 40
652.5470952609983
100
AcDbArc
 50
354.5312729647762
 51
355.2244004614952
1001
QCAD
1000
reversed:1
  0
ARC
  5
19D1
330
1F0A
100
AcDbEntity
  8
ALL
100
AcDbCircle
 10
2313.02237891562
 20
-677.9113659112019
 30
0.0
 40
201.2964174967174
100
AcDbArc
 50
353.2832948418244
 51
354.5312729647755
1001
QCAD
1000
reversed:1
  0
ARC
  5
19D2
330
1F0A
100
AcDbEntity
  8
ALL
100
AcDbCircle
 10
2561.718994209107
 20
-88.0568149524039
 30
0.0
 40
615.3349196224477
100
AcDbArc
 50
265.4530031503449
 51
266.7333640814502
  0
ARC
  5
19D3
330
1F0A
100
AcDbEntity
  8
ALL
100
AcDbCircle
 10
3207.2516820019
 20
-849.138515743034
 30
0.0
 40
708.1234774835966
100
AcDbArc
 50
171.9661027747112
 51
174.1414198412174
  0
ARC
  5
19D4
330
1F0A
100
AcDbEntity
  8
ALL
100
AcDbCircle
 10
2505.466728580006
 20
-905.1461192962698
 30
0.0
 40
128.3153524177103
100
AcDbArc
 50
85.05951164517286
 51
91.17886021764897
  0
ARC
  5
1A5B
330
1F0A
100
AcDbEntity
  8
ALL
100
AcDbCircle
 10
2757.479688185226
 20
-411.2963236594135
 30
0.0
 40
38.20492751608992
100
AcDbArc
 50
283.7904210396965
 51
289.4050037855827
1001
QCAD
1000
reversed:1
  0
ARC
  5
1A5C
330
1F0A
100
AcDbEntity
  8
ALL
100
AcDbCircle
 10
2755.077588155767
 20
-401.5096612455916
 30
0.0
 40
48.28207223836329
100
AcDbArc
 50
278.7964280246645
 51
283.7904210397014
1001
QCAD
1000
reversed:1
  0
ARC
  5
1A5D
330
1F0A
100
AcDbEntity
  8
ALL
100
AcDbCircle
 10
2753.887826821986
 20
-393.8211001563421
 30
0.0
 40
56.06214316699126
100
AcDbArc
 50
275.1443708581107
 51
278.7964280246593
1001
QCAD
1000
reversed:1
  0
ARC
  5
1A5E
330
1F0A
100
AcDbEntity
  8
ALL
100
AcDbCircle
 10
2751.370101154034
 20
-365.8551525608698
 30
0.0
 40
84.14119527798259
100
AcDbArc
 50
272.1634974338626
 51
275.1443708581099
1001
QCAD
1000
reversed:1
  0
ARC
  5
1A5F
330
1F0A
100
AcDbEntity
  8
ALL
100
AcDbCircle
 10
2750.594950875101
 20
-345.3366493283443
 30
0.0
 40
104.6743351464511
100
AcDbArc
 50
270.4624274297372
 51
272.163497433861
1001
QCAD
1000
reversed:1
  0
ARC
  5
1A60
330
1F0A
100
AcDbEntity
  8
ALL
100
AcDbCircle
 10
2749.387881180322
 20
-195.7812965082695
 30
0.0
 40
254.234559051021
100
AcDbArc
 50
269.3709478483481
 51
270.4624274297391
1001
QCAD
1000
reversed:1
  0
ARC
  5
1A61
330
1F0A
100
AcDbEntity
  8
ALL
100
AcDbCircle
 10
2704.133095582874
 20
-4317.544535869023
 30
0.0
 40
3867.777109657005
100
AcDbArc
 50
89.37094784833536
 51
89.47374419038738
  0
ARC
  5
1A62
330
1F0A
100
AcDbEntity
  8
ALL
100
AcDbCircle
 10
2738.90296043386
 20
-532.103212029302
 30
0.0
 40
82.17610588822684
100
AcDbArc
 50
89.4737441904115
 51
90.17898637966076
  0
ARC
  5
1A63
330
1F0A
100
AcDbEntity
  8
ALL
100
AcDbCircle
 10
2739.059422691739
 20
-582.1885754394278
 30
0.0
 40
132.2617136849041
100
AcDbArc
 50
90.17898637964186
 51
92.15478753903557
  0
ARC
  5
1A64
330
1F0A
100
AcDbEntity
  8
ALL
100
AcDbCircle
 10
2736.831155662849
 20
-522.9669133040749
 30
0.0
 40
72.99814612416768
100
AcDbArc
 50
92.1547875390339
 51
94.81442148121756
  0
ARC
  5
1A65
330
1F0A
100
AcDbEntity
  8
ALL
100
AcDbCircle
 10
2735.722426621382
 20
-509.8031480017148
 30
0.0
 40
59.78777152603414
100
AcDbArc
 50
94.81442148122218
 51
98.94724484449098
  0
ARC
  5
1A66
330
1F0A
100
AcDbEntity
  8
ALL
100
AcDbCircle
 10
2733.033349352699
 20
-492.7232139368481
 30
0.0
 40
42.49744809883523
100
AcDbArc
 50
98.94724484449215
 51
103.8496582808582
  0
ARC
  5
1A67
330
1F0A
100
AcDbEntity
  8
ALL
100
AcDbCircle
 10
2731.840412877406
 20
-487.8845540871539
 30
0.0
 40
37.51390251610736
100
AcDbArc
 50
103.849658280858
 51
110.1717069706526
  0
ARC
  5
1A68
330
1F0A
100
AcDbEntity
  8
ALL
100
AcDbCircle
 10
2729.855083003758
 20
-482.4803520080214
 30
0.0
 40
31.75656503952185
100
AcDbArc
 50
110.1717069706537
 51
117.0436127722423
  0
ARC
  5
1A69
330
1F0A
100
AcDbEntity
  8
ALL
100
AcDbCircle
 10
2729.394369890086
 20
-481.5778505582684
 30
0.0
 40
30.74327068943591
100
AcDbArc
 50
117.0436127722502
 51
124.3939922547539
  0
ARC
  5
1A6A
330
1F0A
100
AcDbEntity
  8
ALL
100
AcDbCircle
 10
2729.929436071758
 20
-482.3594708068845
 30
0.0
 40
31.690490849597
100
AcDbArc
 50
124.393992254756
 51
131.6335393365685
  0
ARC
  5
1A6B
330
1F0A
100
AcDbEntity
  8
ALL
100
AcDbCircle
 10
2740.090494074333
 20
-505.3447843827759
 30
0.0
 40
56.147757982342
100
AcDbArc
 50
123.7758395869168
 51
125.8609280315555
  0
ARC
  5
1A6C
330
1F0A
100
AcDbEntity
  8
ALL
100
AcDbCircle
 10
2773.432884886516
 20
-551.4716821945648
 30
0.0
 40
113.063535468128
100
AcDbArc
 50
125.8609280315667
 51
127.3431299855213
  0
ARC
  5
1A6D
330
1F0A
100
AcDbEntity
  8
ALL
100
AcDbCircle
 10
40100.75955145676
 20
-48708.47474547966
 30
0.0
 40
61042.74317158449
100
AcDbArc
 50
127.7790743301646
 51
127.7836916881497
  0
ARC
  5
1A6E
330
1F0A
100
AcDbEntity
  8
ALL
100
AcDbCircle
 10
2576.723028791046
 20
-304.3359650277268
 30
0.0
 40
202.7788527366079
100
AcDbArc
 50
306.9446657316956
 51
307.7836916890555
1001
QCAD
1000
reversed:1
  0
ARC
  5
1A6F
330
1F0A
100
AcDbEntity
  8
ALL
100
AcDbCircle
 10
2644.707554028247
 20
-394.7359922462385
 30
0.0
 40
89.6680195116898
100
AcDbArc
 50
305.6829171235071
 51
306.9446657311198
1001
QCAD
1000
reversed:1
  0
ARC
  5
1A70
330
1F0A
100
AcDbEntity
  8
ALL
100
AcDbCircle
 10
2654.979679385689
 20
-409.0401651271281
 30
0.0
 40
72.0576270922865
100
AcDbArc
 50
303.5129261515036
 51
305.682917123519
1001
QCAD
1000
reversed:1
  0
ARC
  5
1A71
330
1F0A
100
AcDbEntity
  8
ALL
100
AcDbCircle
 10
2668.562591227792
 20
-429.5516506654931
 30
0.0
 40
47.45647807235476
100
AcDbArc
 50
300.8389125531526
 51
303.5129261515013
1001
QCAD
1000
reversed:1
  0
ARC
  5
1A72
330
1F0A
100
AcDbEntity
  8
ALL
100
AcDbCircle
 10
2672.416311007053
 20
-436.0063547046984
 30
0.0
 40
39.93887470620104
100
AcDbArc
 50
297.0141573072914
 51
300.8389125531532
1001
QCAD
1000
reversed:1
  0
ARC
  5
1A73
330
1F0A
100
AcDbEntity
  8
ALL
100
AcDbCircle
 10
2677.317907541387
 20
-445.6204061306343
 30
0.0
 40
29.14741357223359
100
AcDbArc
 50
292.53670032286
 51
297.0141573072862
1001
QCAD
1000
reversed:1
  0
ARC
  5
1A74
330
1F0A
100
AcDbEntity
  8
ALL
100
AcDbCircle
 10
2678.746610702917
 20
-449.0633613359512
 30
0.0
 40
25.41979593229465
100
AcDbArc
 50
286.6542760281402
 51
292.5367003228591
1001
QCAD
1000
reversed:1
  0
ARC
  5
1A75
330
1F0A
100
AcDbEntity
  8
ALL
100
AcDbCircle
 10
2680.21117805201
 20
-453.9592102047349
 30
0.0
 40
20.3095812923798
100
AcDbArc
 50
280.0725477779906
 51
286.6542760281421
1001
QCAD
1000
reversed:1
  0
ARC
  5
1A76
330
1F0A
100
AcDbEntity
  8
ALL
100
AcDbCircle
 10
2680.478575048649
 20
-455.4645455887494
 30
0.0
 40
18.78068110852945
100
AcDbArc
 50
272.4018492014166
 51
280.0725477779956
1001
QCAD
1000
reversed:1
  0
ARC
  5
1A77
330
1F0A
100
AcDbEntity
  8
ALL
100
AcDbCircle
 10
2680.531685444235
 20
-456.7307444886071
 30
0.0
 40
17.51336884704046
100
AcDbArc
 50
264.4580317739429
 51
272.4018492014171
1001
QCAD
1000
reversed:1
  0
ARC
  5
1A78
330
1F0A
100
AcDbEntity
  8
ALL
100
AcDbCircle
 10
2680.553474378673
 20
-456.5061819899382
 30
0.0
 40
17.73898594185455
100
AcDbArc
 50
256.6919792928783
 51
264.4580317739526
1001
QCAD
1000
reversed:1
  0
ARC
  5
1A79
330
1F0A
100
AcDbEntity
  8
ALL
100
AcDbCircle
 10
2681.022051297746
 20
-454.5252008415797
 30
0.0
 40
19.77463095983789
100
AcDbArc
 50
249.3370882758947
 51
256.6919792928813
1001
QCAD
1000
reversed:1
  0
ARC
  5
1A7A
330
1F0A
100
AcDbEntity
  8
ALL
100
AcDbCircle
 10
2648.563968420335
 20
-524.7243329391889
 30
0.0
 40
92.03532940058051
100
AcDbArc
 50
98.41366190464323
 51
118.7221330812358
  0
ARC
  5
1A7D
330
1F0A
100
AcDbEntity
  8
ALL
100
AcDbCircle
 10
2973.708465521673
 20
-111.0745367079045
 30
0.0
 40
342.1954372693741
100
AcDbArc
 50
277.2122457334799
 51
280.0683253299387
1001
QCAD
1000
reversed:1
  0
ARC
  5
1A7E
330
1F0A
100
AcDbEntity
  8
ALL
100
AcDbCircle
 10
2964.70614953968
 20
-39.93614644496904
 30
0.0
 40
413.9011710864222
100
AcDbArc
 50
274.6153692418681
 51
277.2122457334817
1001
QCAD
1000
reversed:1
  0
ARC
  5
1A7F
330
1F0A
100
AcDbEntity
  8
ALL
100
AcDbCircle
 10
2960.778114925359
 20
8.721455949158155
 30
0.0
 40
462.7170673362739
100
AcDbArc
 50
272.5527598930645
 51
274.6153692418679
1001
QCAD
1000
reversed:1
  0
ARC
  5
1A80
330
1F0A
100
AcDbEntity
  8
ALL
100
AcDbCircle
 10
2954.117668458057
 20
158.113856461299
 30
0.0
 40
612.2578673806889
100
AcDbArc
 50
270.7596709782929
 51
272.5527598930644
1001
QCAD
1000
reversed:1
  0
ARC
  5
1A81
330
1F0A
100
AcDbEntity
  8
ALL
100
AcDbCircle
 10
2952.693187753961
 20
265.5445100224695
 30
0.0
 40
719.6979645039537
100
AcDbArc
 50
269.5010430015179
 51
270.7596709782933
1001
QCAD
1000
reversed:1
  0
ARC
  5
1A82
330
1F0A
100
AcDbEntity
  8
ALL
100
AcDbCircle
 10
2956.462041661267
 20
698.3151984549683
 30
0.0
 40
1152.485063463839
100
AcDbArc
 50
268.5064358303459
 51
269.5010430015173
1001
QCAD
1000
reversed:1
  0
ARC
  5
1A83
330
1F0A
100
AcDbEntity
  8
ALL
100
AcDbCircle
 10
2965.476290303739
 20
1044.039488050936
 30
0.0
 40
1498.326849682949
100
AcDbArc
 50
268.2057269600018
 51
268.5064358303438
1001
QCAD
1000
reversed:1
  0
ARC
  5
1A84
330
1F0A
100
AcDbEntity
  8
ALL
100
AcDbCircle
 10
2995.109804357517
 20
1990.004892123104
 30
0.0
 40
2444.756292830507
100
AcDbArc
 50
267.9703133642518
 51
268.2057269600031
1001
QCAD
1000
reversed:1
  0
ARC
  5
1A85
330
1F0A
100
AcDbEntity
  8
ALL
100
AcDbCircle
 10
3002.744827943523
 20
2205.442889370725
 30
0.0
 40
2660.329538487812
100
AcDbArc
 50
267.8657089879578
 51
267.9703133642455
1001
QCAD
1000
reversed:1
  0
ARC
  5
1A86
330
1F0A
100
AcDbEntity
  8
ALL
100
AcDbCircle
 10
3619.119962856061
 20
18744.59219828151
 30
0.0
 40
19210.96028687267
100
AcDbArc
 50
267.8267827006947
 51
267.8657089879801
1001
QCAD
1000
reversed:1
  0
ARC
  5
1A87
330
1F0A
100
AcDbEntity
  8
ALL
100
AcDbCircle
 10
2490.79690139938
 20
-543.8123758519649
 30
0.0
 40
181.5265636649524
100
AcDbArc
 50
36.44536896339854
 51
37.35153941773359
1001
QCAD
1000
reversed:1
  0
ARC
  5
1A88
330
1F0A
100
AcDbEntity
  8
ALL
100
AcDbCircle
 10
2331.187400049765
 20
-661.681845287554
 30
0.0
 40
379.9412928210809
100
AcDbArc
 50
35.81901564987638
 51
36.44536896339139
1001
QCAD
1000
reversed:1
  0
ARC
  5
1A89
330
1F0A
100
AcDbEntity
  8
ALL
100
AcDbCircle
 10
1921.996114290239
 20
-957.0064028493749
 30
0.0
 40
884.5739340965132
100
AcDbArc
 50
35.59149976665742
 51
35.81901564989649
1001
QCAD
1000
reversed:1
  0
ARC
  5
1A8A
330
1F0A
100
AcDbEntity
  8
ALL
100
AcDbCircle
 10
3242.620657638477
 20
-11.82840645676589
 30
0.0
 40
739.4367276167917
100
AcDbArc
 50
215.591499766653
 51
215.8636727185639
  0
ARC
  5
1A8B
330
1F0A
100
AcDbEntity
  8
ALL
100
AcDbCircle
 10
2940.039511166197
 20
-230.5683888587806
 30
0.0
 40
366.070245321295
100
AcDbArc
 50
215.863672718553
 51
216.502269963636
  0
ARC
  5
1A8C
330
1F0A
100
AcDbEntity
  8
ALL
100
AcDbCircle
 10
2799.07008921401
 20
-334.8889171106806
 30
0.0
 40
190.6987808799867
100
AcDbArc
 50
216.5022699636395
 51
217.3870541761376
  0
ARC
  5
1A8D
330
1F0A
100
AcDbEntity
  8
ALL
100
AcDbCircle
 10
2772.494220661493
 20
-355.1981897039275
 30
0.0
 40
157.2511599991608
100
AcDbArc
 50
217.3870541761474
 51
218.7771639149306
  0
ARC
  5
1A8E
330
1F0A
100
AcDbEntity
  8
ALL
100
AcDbCircle
 10
2736.666342659372
 20
-383.9810398726707
 30
0.0
 40
111.2936872012447
100
AcDbArc
 50
218.7771639149216
 51
220.4295637701241
  0
ARC
  5
1A8F
330
1F0A
100
AcDbEntity
  8
ALL
100
AcDbCircle
 10
2719.875024947881
 20
-398.2865175217493
 30
0.0
 40
89.23478783485518
100
AcDbArc
 50
220.4295637701333
 51
225.4141092420102
  0
ARC
  5
1A90
330
1F0A
100
AcDbEntity
  8
ALL
100
AcDbCircle
 10
2698.299518812842
 20
-420.1761766399823
 30
0.0
 40
58.49947197027427
100
AcDbArc
 50
225.4141092420084
 51
231.5713866884816
  0
ARC
  5
1A91
330
1F0A
100
AcDbEntity
  8
ALL
100
AcDbCircle
 10
2693.355722155298
 20
-426.4073006302037
 30
0.0
 40
50.54535155550478
100
AcDbArc
 50
231.5713866884855
 51
239.8736481027504
  0
ARC
  5
1A92
330
1F0A
100
AcDbEntity
  8
ALL
100
AcDbCircle
 10
2689.362855502348
 20
-433.2880613212792
 30
0.0
 40
42.58998532910803
100
AcDbArc
 50
239.8736481027508
 51
248.9196029200809
  0
LINE
  5
1A93
330
1F0A
100
AcDbEntity
  8
ALL
100
AcDbLine
 10
2770.173027197737
 20
-447.3309685338005
 30
0.0
 11
2890.626840632449
 21
-452.550633782638
 31
0.0
  0
ARC
  5
1A94
330
1F0A
100
AcDbEntity
  8
ALL
100
AcDbCircle
 10
2784.238143402058
 20
-916.9409075801378
 30
0.0
 40
531.0864416059526
100
AcDbArc
 50
59.96517771465459
 51
62.00442532581662
1001
QCAD
1000
reversed:1
  0
ARC
  5
1A95
330
1F0A
100
AcDbEntity
  8
ALL
100
AcDbCircle
 10
2937.936774733962
 20
-498.8787502193132
 30
0.0
 40
119.6310647237408
100
AcDbArc
 50
15.6345053305532
 51
20.40545491607425
1001
QCAD
1000
reversed:1
  0
ARC
  5
1A96
330
1F0A
100
AcDbEntity
  8
ALL
100
AcDbCircle
 10
2910.498501789773
 20
-506.5574690213418
 30
0.0
 40
148.1235469708261
100
AcDbArc
 50
11.34713882017209
 51
15.63450533055822
1001
QCAD
1000
reversed:1
  0
ARC
  5
1A97
330
1F0A
100
AcDbEntity
  8
ALL
100
AcDbCircle
 10
2889.383228444549
 20
-510.7947857059198
 30
0.0
 40
169.6597866873802
100
AcDbArc
 50
8.124350151011205
 51
11.34713882016705
1001
QCAD
1000
reversed:1
  0
ARC
  5
1A98
330
1F0A
100
AcDbEntity
  8
ALL
100
AcDbCircle
 10
2813.393436694752
 20
-521.6426856733038
 30
0.0
 40
246.4199676660632
100
AcDbArc
 50
5.45032492411996
 51
8.124350151014086
1001
QCAD
1000
reversed:1
  0
ARC
  5
1A99
330
1F0A
100
AcDbEntity
  8
ALL
100
AcDbCircle
 10
2757.029814419377
 20
-527.0205693448539
 30
0.0
 40
303.0395715924935
100
AcDbArc
 50
3.857317455693344
 51
5.450324924115541
1001
QCAD
1000
reversed:1
  0
ARC
  5
1A9A
330
1F0A
100
AcDbEntity
  8
ALL
100
AcDbCircle
 10
2381.325817052092
 20
-552.352330746607
 30
0.0
 40
679.5965948618416
100
AcDbArc
 50
2.79358077440889
 51
3.857317455687576
1001
QCAD
1000
reversed:1
  0
ARC
  5
1A9B
330
1F0A
100
AcDbEntity
  8
ALL
100
AcDbCircle
 10
896.6265832282788
 20
-624.7994999046158
 30
0.0
 40
2166.062338576114
100
AcDbArc
 50
2.515279395609433
 51
2.793580774416982
1001
QCAD
1000
reversed:1
  0
ARC
  5
1A9C
330
1F0A
100
AcDbEntity
  8
ALL
100
AcDbCircle
 10
3826.241492481548
 20
-496.1069948962
 30
0.0
 40
766.3778189316878
100
AcDbArc
 50
182.515279395608
 51
183.3018656744368
  0
ARC
  5
1A9D
330
1F0A
100
AcDbEntity
  8
ALL
100
AcDbCircle
 10
1767.958065634373
 20
-615.41096837558
 30
0.0
 40
1295.360352168025
100
AcDbArc
 50
2.240357311723249
 51
3.326455238067898
1001
QCAD
1000
reversed:1
  0
ARC
  5
1A9E
330
1F0A
100
AcDbEntity
  8
ALL
100
AcDbCircle
 10
1357.93608862633
 20
-631.4516643307569
 30
0.0
 40
1705.695977670259
100
AcDbArc
 50
1.293876295429091
 51
2.240357311723249
1001
QCAD
1000
reversed:1
  0
ARC
  5
1A9F
330
1F0A
100
AcDbEntity
  8
ALL
100
AcDbCircle
 10
1062.800240603211
 20
-638.1176737206068
 30
0.0
 40
2000.907096142296
100
AcDbArc
 50
0.6278574504569341
 51
1.293876295427401
1001
QCAD
1000
reversed:1
  0
ARC
  5
1AA0
330
1F0A
100
AcDbEntity
  8
ALL
100
AcDbCircle
 10
-149.5298425030373
 20
-651.40313646473
 30
0.0
 40
3213.309972221337
100
AcDbArc
 50
0.1022969150279168
 51
0.6278574504604171
1001
QCAD
1000
reversed:1
  0
ARC
  5
1AA1
330
1F0A
100
AcDbEntity
  8
ALL
100
AcDbCircle
 10
-629.0582265606286
 20
-652.2592959742348
 30
0.0
 40
3692.839120580422
100
AcDbArc
 50
359.8574612293688
 51
0.1022969150279168
1001
QCAD
1000
reversed:1
  0
ARC
  5
1AA2
330
1F0A
100
AcDbEntity
  8
ALL
100
AcDbCircle
 10
-17195.72376744735
 20
-611.0451431817058
 30
0.0
 40
20259.55592717774
100
AcDbArc
 50
359.7529315349256
 51
359.8574612293688
1001
QCAD
1000
reversed:1
  0
ARC
  5
1AA3
330
1F0A
100
AcDbEntity
  8
ALL
100
AcDbCircle
 10
14090.58965524943
 20
-745.9575121714159
 30
0.0
 40
11027.04837770845
100
AcDbArc
 50
179.7529315349124
 51
179.9289887947107
  0
ARC
  5
1AA4
330
1F0A
100
AcDbEntity
  8
ALL
100
AcDbCircle
 10
6476.798157138244
 20
-736.5211314727059
 30
0.0
 40
3413.251031968886
100
AcDbArc
 50
179.9289887947107
 51
180.2454349650249
  0
ARC
  5
1AA5
330
1F0A
100
AcDbEntity
  8
ALL
100
AcDbCircle
 10
2843.07212397284
 20
-840.4268341339529
 30
0.0
 40
196.3602044950843
100
AcDbArc
 50
327.5487624493293
 51
329.5905132498742
1001
QCAD
1000
reversed:1
  0
ARC
  5
1AA6
330
1F0A
100
AcDbEntity
  8
ALL
100
AcDbCircle
 10
2674.422870998497
 20
-733.1870862770769
 30
0.0
 40
396.2174886986134
100
AcDbArc
 50
326.1114504206903
 51
327.548762449336
1001
QCAD
1000
reversed:1
  0
ARC
  5
1AA7
330
1F0A
100
AcDbEntity
  8
ALL
100
AcDbCircle
 10
2257.389686244503
 20
-453.0733760344518
 30
0.0
 40
898.5922172150343
100
AcDbArc
 50
325.571494449505
 51
326.1114504206814
1001
QCAD
1000
reversed:1
  0
ARC
  5
1AA8
330
1F0A
100
AcDbEntity
  8
ALL
100
AcDbCircle
 10
3617.451478323203
 20
-1385.321348984991
 30
0.0
 40
750.3026737172877
100
AcDbArc
 50
145.5714944495012
 51
146.2181681589196
  0
ARC
  5
1AA9
330
1F0A
100
AcDbEntity
  8
ALL
100
AcDbCircle
 10
3297.344918247973
 20
-1171.175646687009
 30
0.0
 40
365.1707591530794
100
AcDbArc
 50
146.2181681589219
 51
147.7645808544381
  0
ARC
  5
1AAA
330
1F0A
100
AcDbEntity
  8
ALL
100
AcDbCircle
 10
3147.883496708832
 20
-1076.92568168165
 30
0.0
 40
188.4739215129775
100
AcDbArc
 50
147.7645808544358
 51
149.9171649645643
  0
ARC
  5
1AAB
330
1F0A
100
AcDbEntity
  8
ALL
100
AcDbCircle
 10
3119.638820523947
 20
-1060.564118662191
 30
0.0
 40
155.8324987923195
100
AcDbArc
 50
149.9171649645685
 51
153.2790261946701
  0
ARC
  5
1AAC
330
1F0A
100
AcDbEntity
  8
ALL
100
AcDbCircle
 10
3081.551125887583
 20
-1041.390531423842
 30
0.0
 40
113.1909822820042
100
AcDbArc
 50
153.2790261946705
 51
157.2238387008077
  0
ARC
  5
1AAD
330
1F0A
100
AcDbEntity
  8
ALL
100
AcDbCircle
 10
3105.362547732692
 20
-1025.625675178612
 30
0.0
 40
131.2106548996905
100
AcDbArc
 50
167.6539003466051
 51
171.4722701362104
  0
ARC
  5
1AAE
330
1F0A
100
AcDbEntity
  8
ALL
100
AcDbCircle
 10
3145.236293271463
 20
-1031.604576830529
 30
0.0
 40
171.530164423666
100
AcDbArc
 50
171.472270136209
 51
174.8117081547312
  0
ARC
  5
1AAF
330
1F0A
100
AcDbEntity
  8
ALL
100
AcDbCircle
 10
3175.236294931729
 20
-1034.328609825004
 30
0.0
 40
201.6535848033464
100
AcDbArc
 50
174.8117081547353
 51
177.158772147754
  0
ARC
  5
1AB0
330
1F0A
100
AcDbEntity
  8
ALL
100
AcDbCircle
 10
3298.048130347646
 20
-1040.423695867659
 30
0.0
 40
324.6165751382175
100
AcDbArc
 50
177.1587721477473
 51
179.0085988965053
  0
ARC
  5
1AB1
330
1F0A
100
AcDbEntity
  8
ALL
100
AcDbCircle
 10
3396.777112218033
 20
-1042.132195028347
 30
0.0
 40
423.3603386402501
100
AcDbArc
 50
179.0085988965038
 51
179.5651490038951
  0
ARC
  5
1AB2
330
1F0A
100
AcDbEntity
  8
ALL
100
AcDbCircle
 10
3665.372747923577
 20
-1044.170762674818
 30
0.0
 40
691.963710320716
100
AcDbArc
 50
179.5651490039001
 51
180.0004774373682
  0
ARC
  5
1AB3
330
1F0A
100
AcDbEntity
  8
ALL
100
AcDbCircle
 10
3734.360203492287
 20
-1044.170187812408
 30
0.0
 40
760.951165891821
100
AcDbArc
 50
180.0004774373682
 51
180.1945373540088
  0
ARC
  5
1AB4
330
1F0A
100
AcDbEntity
  8
ALL
100
AcDbCircle
 10
8258.89721223906
 20
-1028.807889793202
 30
0.0
 40
5285.514254602115
100
AcDbArc
 50
180.1945373540032
 51
180.2681700043217
  0
ARC
  5
1AB5
330
1F0A
100
AcDbEntity
  8
ALL
100
AcDbCircle
 10
1774.555267101115
 20
-1059.157746627319
 30
0.0
 40
1198.898716152078
100
AcDbArc
 50
359.6869340135709
 51
0.2681700043312256
1001
QCAD
1000
reversed:1
  0
ARC
  5
1AB6
330
1F0A
100
AcDbEntity
  8
ALL
100
AcDbCircle
 10
2622.763160435158
 20
-1063.792428025946
 30
0.0
 40
350.6781607622417
100
AcDbArc
 50
358.6122175782359
 51
359.6869340135698
1001
QCAD
1000
reversed:1
  0
ARC
  5
1AB7
330
1F0A
100
AcDbEntity
  8
ALL
100
AcDbCircle
 10
2969.239108463374
 20
-1099.416458147151
 30
0.0
 40
44.6573957519108
100
AcDbArc
 50
233.7352563498688
 51
281.8693678124814
1001
QCAD
1000
reversed:1
  0
ARC
  5
1AB8
330
1F0A
100
AcDbEntity
  8
ALL
100
AcDbCircle
 10
2965.092992989066
 20
-1104.161586636644
 30
0.0
 40
38.38268111853481
100
AcDbArc
 50
228.9154967017828
 51
234.5356306046123
1001
QCAD
1000
reversed:1
  0
ARC
  5
1AB9
330
1F0A
100
AcDbEntity
  8
ALL
100
AcDbCircle
 10
2965.735427983268
 20
-1103.424747365399
 30
0.0
 40
39.36025711733166
100
AcDbArc
 50
223.3656495136611
 51
228.9154967017841
1001
QCAD
1000
reversed:1
  0
ARC
  5
1ABA
330
1F0A
100
AcDbEntity
  8
ALL
100
AcDbCircle
 10
2966.961263328111
 20
-1102.266923853105
 30
0.0
 40
41.04644440772567
100
AcDbArc
 50
218.268360464966
 51
223.365649513672
1001
QCAD
1000
reversed:1
  0
ARC
  5
1ABB
330
1F0A
100
AcDbEntity
  8
ALL
100
AcDbCircle
 10
2971.970759628639
 20
-1098.315151796535
 30
0.0
 40
47.42700516459483
100
AcDbArc
 50
213.5265422481905
 51
218.2683604649531
1001
QCAD
1000
reversed:1
  0
ARC
  5
1ABC
330
1F0A
100
AcDbEntity
  8
ALL
100
AcDbCircle
 10
2976.03884550433
 20
-1095.619833520517
 30
0.0
 40
52.30697066662788
100
AcDbArc
 50
209.6399465053396
 51
213.5265422482096
1001
QCAD
1000
reversed:1
  0
ARC
  5
1ABD
330
1F0A
100
AcDbEntity
  8
ALL
100
AcDbCircle
 10
2989.172528441482
 20
-1088.146746599646
 30
0.0
 40
67.41791556165397
100
AcDbArc
 50
206.2166633369916
 51
209.6399465053346
1001
QCAD
1000
reversed:1
  0
ARC
  5
1ABE
330
1F0A
100
AcDbEntity
  8
ALL
100
AcDbCircle
 10
2998.919023854214
 20
-1083.347354900269
 30
0.0
 40
78.28200013028962
100
AcDbArc
 50
203.7149277525575
 51
206.2166633369777
1001
QCAD
1000
reversed:1
  0
ARC
  5
1ABF
330
1F0A
100
AcDbEntity
  8
ALL
100
AcDbCircle
 10
3033.30501149558
 20
-1068.242275221769
 30
0.0
 40
115.8394172162126
100
AcDbArc
 50
201.6584074853735
 51
203.7149277525581
1001
QCAD
1000
reversed:1
  0
ARC
  5
1AC0
330
1F0A
100
AcDbEntity
  8
ALL
100
AcDbCircle
 10
3058.91820152997
 20
-1058.071080523466
 30
0.0
 40
143.3982398566769
100
AcDbArc
 50
200.4499295151908
 51
201.6584074853822
1001
QCAD
1000
reversed:1
  0
ARC
  5
1AC1
330
1F0A
100
AcDbEntity
  8
ALL
100
AcDbCircle
 10
3228.540428853451
 20
-994.8208265832708
 30
0.0
 40
324.4294377913926
100
AcDbArc
 50
199.6465032429934
 51
200.4499295151834
1001
QCAD
1000
reversed:1
  0
ARC
  5
1AC2
330
1F0A
100
AcDbEntity
  8
ALL
100
AcDbCircle
 10
3898.174189490416
 20
-755.762381681844
 30
0.0
 40
1035.45567743624
100
AcDbArc
 50
199.4369620261343
 51
199.6465032430018
1001
QCAD
1000
reversed:1
  0
ARC
  5
1AC3
330
1F0A
100
AcDbEntity
  8
ALL
100
AcDbCircle
 10
2566.203815760967
 20
-1225.789241291319
 30
0.0
 40
377.0139063946174
100
AcDbArc
 50
19.43696202611881
 51
20.01246184231277
  0
ARC
  5
1AC4
330
1F0A
100
AcDbEntity
  8
ALL
100
AcDbCircle
 10
2722.102559171166
 20
-1169.008336144944
 30
0.0
 40
211.0967903814679
100
AcDbArc
 50
20.01246184232344
 51
21.19437137673094
  0
ARC
  5
1AC5
330
1F0A
100
AcDbEntity
  8
ALL
100
AcDbCircle
 10
2811.35562271184
 20
-1134.399441098652
 30
0.0
 40
115.3686076570432
100
AcDbArc
 50
21.19437137671828
 51
22.79314735823705
  0
ARC
  5
1AC6
330
1F0A
100
AcDbEntity
  8
ALL
100
AcDbCircle
 10
2830.053675232265
 20
-1126.542134903329
 30
0.0
 40
95.08673326872311
100
AcDbArc
 50
22.79314735825252
 51
25.2684718403354
  0
ARC
  5
1AC7
330
1F0A
100
AcDbEntity
  8
ALL
100
AcDbCircle
 10
2854.849845016082
 20
-1114.837728189853
 30
0.0
 40
67.6669744721473
100
AcDbArc
 50
25.26847184033709
 51
28.20285898319694
  0
ARC
  5
1AC8
330
1F0A
100
AcDbEntity
  8
ALL
100
AcDbCircle
 10
2720.280444231847
 20
-1216.8518511165
 30
0.0
 40
235.9426948620224
100
AcDbArc
 50
34.60430605697201
 51
48.00340992905569
  0
ARC
  5
1AC9
330
1F0A
100
AcDbEntity
  8
ALL
100
AcDbCircle
 10
3361.734866320599
 20
-509.5556456437598
 30
0.0
 40
718.9058089636386
100
AcDbArc
 50
227.3057735974564
 51
227.7263109939125
1001
QCAD
1000
reversed:1
  0
ARC
  5
1ACA
330
1F0A
100
AcDbEntity
  8
ALL
100
AcDbCircle
 10
2626.750467365475
 20
-1306.211669068983
 30
0.0
 40
365.0051128224249
100
AcDbArc
 50
47.30577359745593
 51
48.13405988863749
  0
ARC
  5
1ACB
330
1F0A
100
AcDbEntity
  8
ALL
100
AcDbCircle
 10
2737.621762890936
 20
-1182.495716714663
 30
0.0
 40
198.8784110600938
100
AcDbArc
 50
48.13405988863099
 51
49.88651050745474
  0
ARC
  5
1ACC
330
1F0A
100
AcDbEntity
  8
ALL
100
AcDbCircle
 10
2796.559728490948
 20
-1112.538068035552
 30
0.0
 40
107.4029695592283
100
AcDbArc
 50
49.88651050745911
 51
52.27127713604848
  0
ARC
  5
1ACD
330
1F0A
100
AcDbEntity
  8
ALL
100
AcDbCircle
 10
2808.152823916606
 20
-1097.55388604104
 30
0.0
 40
88.45763843008035
100
AcDbArc
 50
52.27127713604462
 51
55.97597606821641
  0
ARC
  5
1ACE
330
1F0A
100
AcDbEntity
  8
ALL
100
AcDbCircle
 10
2822.302837631598
 20
-1076.594590047256
 30
0.0
 40
63.16900508049969
100
AcDbArc
 50
55.97597606822134
 51
60.36026206492433
  0
ARC
  5
1ACF
330
1F0A
100
AcDbEntity
  8
ALL
100
AcDbCircle
 10
2825.983502112867
 20
-1070.125899103154
 30
0.0
 40
55.72647502990715
100
AcDbArc
 50
60.36026206491885
 51
66.03183432670336
  0
ARC
  5
1AD0
330
1F0A
100
AcDbEntity
  8
ALL
100
AcDbCircle
 10
2829.755540613896
 20
-1061.641077663977
 30
0.0
 40
46.4409772345294
100
AcDbArc
 50
66.03183432670275
 51
72.24508784251854
  0
ARC
  5
1AD1
330
1F0A
100
AcDbEntity
  8
ALL
100
AcDbCircle
 10
2919.069473901742
 20
-1078.163915288636
 30
0.0
 40
103.646314952484
100
AcDbArc
 50
166.1849746587403
 51
169.6607952285077
  0
ARC
  5
1AD2
330
1F0A
100
AcDbEntity
  8
ALL
100
AcDbCircle
 10
2893.521864050513
 20
-1073.503067120645
 30
0.0
 40
77.67702780871122
100
AcDbArc
 50
169.6607952285061
 51
173.6760236533077
  0
ARC
  5
1AD3
330
1F0A
100
AcDbEntity
  8
ALL
100
AcDbCircle
 10
2881.844991821751
 20
-1072.208982262809
 30
0.0
 40
65.92866619246426
100
AcDbArc
 50
173.6760236533117
 51
179.2234703780893
  0
ARC
  5
1AD4
330
1F0A
100
AcDbEntity
  8
ALL
100
AcDbCircle
 10
2862.176129151864
 20
-1071.942393870908
 30
0.0
 40
46.25799695886725
100
AcDbArc
 50
179.2234703780893
 51
185.8472992299179
  0
ARC
  5
1AD5
330
1F0A
100
AcDbEntity
  8
ALL
100
AcDbCircle
 10
2854.070472718416
 20
-1072.772497476267
 30
0.0
 40
38.10994576777078
100
AcDbArc
 50
185.8472992299204
 51
195.4158908696717
  0
ARC
  5
1AD6
330
1F0A
100
AcDbEntity
  8
ALL
100
AcDbCircle
 10
2843.41072896521
 20
-1075.711861100114
 30
0.0
 40
27.05236938787657
100
AcDbArc
 50
195.4158908696724
 51
206.7783312115204
  0
ARC
  5
1AD7
330
1F0A
100
AcDbEntity
  8
ALL
100
AcDbCircle
 10
2841.376691142772
 20
-1076.738362180244
 30
0.0
 40
24.77398962791213
100
AcDbArc
 50
206.7783312115152
 51
213.6779370158026
  0
ARC
  5
1AD8
330
1F0A
100
AcDbEntity
  8
ALL
100
AcDbCircle
 10
2839.978967767176
 20
-1077.669750381
 30
0.0
 40
23.09437222647907
100
AcDbArc
 50
213.6779370158033
 51
220.8243529278895
  0
ARC
  5
1AD9
330
1F0A
100
AcDbEntity
  8
ALL
100
AcDbCircle
 10
2839.877236800132
 20
-1077.757637680212
 30
0.0
 40
22.95993500314222
100
AcDbArc
 50
220.8243529278953
 51
228.0512297891358
  0
ARC
  5
1ADA
330
1F0A
100
AcDbEntity
  8
ALL
100
AcDbCircle
 10
2840.653035314609
 20
-1076.894475330704
 30
0.0
 40
24.12050063104641
100
AcDbArc
 50
228.0512297891495
 51
235.1018764389759
  0
ARC
  5
1ADB
330
1F0A
100
AcDbEntity
  8
ALL
100
AcDbCircle
 10
2844.880579811988
 20
-1146.473680327614
 30
0.0
 40
52.95898851503692
100
AcDbArc
 50
109.9013632571614
 51
114.9018838521764
  0
ARC
  5
1ADC
330
1F0A
100
AcDbEntity
  8
ALL
100
AcDbCircle
 10
2847.462843440037
 20
-1152.036212192097
 30
0.0
 40
59.09167521730173
100
AcDbArc
 50
114.9018838521754
 51
119.6356586739872
  0
ARC
  5
1ADD
330
1F0A
100
AcDbEntity
  8
ALL
100
AcDbCircle
 10
2849.972909370678
 20
-1156.448331415644
 30
0.0
 40
64.1678181446583
100
AcDbArc
 50
119.6356586739872
 51
123.6351925126001
  0
ARC
  5
1ADE
330
1F0A
100
AcDbEntity
  8
ALL
100
AcDbCircle
 10
2859.136993764683
 20
-1170.223023974786
 30
0.0
 40
80.7123821425199
100
AcDbArc
 50
123.6351925126007
 51
127.2011802689975
  0
ARC
  5
1ADF
330
1F0A
100
AcDbEntity
  8
ALL
100
AcDbCircle
 10
2866.488419995112
 20
-1179.907756091753
 30
0.0
 40
92.87122681620754
100
AcDbArc
 50
127.2011802689932
 51
129.8537437826862
  0
ARC
  5
1AE0
330
1F0A
100
AcDbEntity
  8
ALL
100
AcDbCircle
 10
2894.135897804599
 20
-1213.028068263376
 30
0.0
 40
136.0144546459814
100
AcDbArc
 50
129.8537437826869
 51
132.0455469308089
  0
ARC
  5
1AE1
330
1F0A
100
AcDbEntity
  8
ALL
100
AcDbCircle
 10
2915.387387770849
 20
-1236.592540752896
 30
0.0
 40
167.7463028350645
100
AcDbArc
 50
132.0455469307925
 51
133.3366327143304
  0
ARC
  5
1AE2
330
1F0A
100
AcDbEntity
  8
ALL
100
AcDbCircle
 10
3064.131845630071
 20
-1394.234267914374
 30
0.0
 40
384.4853807289409
100
AcDbArc
 50
133.3366327143247
 51
134.189411684901
  0
ARC
  5
1AE3
330
1F0A
100
AcDbEntity
  8
ALL
100
AcDbCircle
 10
3403.426888381842
 20
-1743.268047669269
 30
0.0
 40
871.2560715535992
100
AcDbArc
 50
134.1894116849161
 51
134.3456106813549
  0
ARC
  5
1AE4
330
1F0A
100
AcDbEntity
  8
ALL
100
AcDbCircle
 10
1137.514504158387
 20
575.0037182214511
 30
0.0
 40
2370.463057782455
100
AcDbArc
 50
314.2882002580226
 51
314.3456106813243
1001
QCAD
1000
reversed:1
  0
ARC
  5
1AE5
330
1F0A
100
AcDbEntity
  8
ALL
100
AcDbCircle
 10
2269.910030720687
 20
-585.8832943904289
 30
0.0
 40
748.7422789092102
100
AcDbArc
 50
314.0705231138967
 51
314.2882002580611
1001
QCAD
1000
reversed:1
  0
ARC
  5
1AE6
330
1F0A
100
AcDbEntity
  8
ALL
100
AcDbCircle
 10
2556.925974894022
 20
-882.3658334679479
 30
0.0
 40
336.092247784089
100
AcDbArc
 50
313.7456228361516
 51
314.0705231138665
1001
QCAD
1000
reversed:1
  0
ARC
  5
1AE7
330
1F0A
100
AcDbEntity
  8
ALL
100
AcDbCircle
 10
2623.780956457661
 20
-952.2141399514618
 30
0.0
 40
239.4052554920057
100
AcDbArc
 50
312.4436296006408
 51
313.7456228361675
1001
QCAD
1000
reversed:1
  0
ARC
  5
1AE8
330
1F0A
100
AcDbEntity
  8
ALL
100
AcDbCircle
 10
2695.338427917461
 20
-1030.459829727565
 30
0.0
 40
133.3729033995512
100
AcDbArc
 50
310.699217082651
 51
312.4436296006446
1001
QCAD
1000
reversed:1
  0
ARC
  5
1AE9
330
1F0A
100
AcDbEntity
  8
ALL
100
AcDbCircle
 10
2709.96747880903
 20
-1047.468140548509
 30
0.0
 40
110.9387382274309
100
AcDbArc
 50
308.0521546388807
 51
310.6992170826421
1001
QCAD
1000
reversed:1
  0
ARC
  5
1AEA
330
1F0A
100
AcDbEntity
  8
ALL
100
AcDbCircle
 10
2728.51606372488
 20
-1071.164753614222
 30
0.0
 40
80.84589068575389
100
AcDbArc
 50
304.9512300609582
 51
308.0521546388837
1001
QCAD
1000
reversed:1
  0
ARC
  5
1AEB
330
1F0A
100
AcDbEntity
  8
ALL
100
AcDbCircle
 10
2733.694047775174
 20
-1078.573094527441
 30
0.0
 40
71.80736016848715
100
AcDbArc
 50
300.9849828055688
 51
304.9512300609421
1001
QCAD
1000
reversed:1
  0
ARC
  5
1AEC
330
1F0A
100
AcDbEntity
  8
ALL
100
AcDbCircle
 10
2739.965282786689
 20
-1089.016381406465
 30
0.0
 40
59.6257909178829
100
AcDbArc
 50
296.6322208761015
 51
300.9849828055678
1001
QCAD
1000
reversed:1
  0
ARC
  5
1AED
330
1F0A
100
AcDbEntity
  8
ALL
100
AcDbCircle
 10
2750.478279395098
 20
-1103.534584394616
 30
0.0
 40
42.03480060405394
100
AcDbArc
 50
283.6829685215997
 51
292.6903779735094
1001
QCAD
1000
reversed:1
  0
ARC
  5
1AEE
330
1F0A
100
AcDbEntity
  8
ALL
100
AcDbCircle
 10
2748.732910367892
 20
-1096.365532210595
 30
0.0
 40
49.41325723524393
100
AcDbArc
 50
275.3765131470557
 51
283.6829685215997
1001
QCAD
1000
reversed:1
  0
ARC
  5
1AEF
330
1F0A
100
AcDbEntity
  8
ALL
100
AcDbCircle
 10
2748.04866346243
 20
-1089.095147304928
 30
0.0
 40
56.71576985106216
100
AcDbArc
 50
269.0866036712027
 51
275.3765131470547
1001
QCAD
1000
reversed:1
  0
ARC
  5
1AF0
330
1F0A
100
AcDbEntity
  8
ALL
100
AcDbCircle
 10
2748.472611462578
 20
-1062.503871846047
 30
0.0
 40
83.3104246229688
100
AcDbArc
 50
263.8976838377793
 51
269.0866036712035
1001
QCAD
1000
reversed:1
  0
ARC
  5
1AF1
330
1F0A
100
AcDbEntity
  8
ALL
100
AcDbCircle
 10
2750.634684703691
 20
-1042.280580415223
 30
0.0
 40
103.6489613696468
100
AcDbArc
 50
260.7596261449168
 51
263.8976838377744
1001
QCAD
1000
reversed:1
  0
ARC
  5
1AF2
330
1F0A
100
AcDbEntity
  8
ALL
100
AcDbCircle
 10
2767.811155984233
 20
-936.7012894180258
 30
0.0
 40
210.6163295392069
100
AcDbArc
 50
258.5583739175385
 51
260.7596261449232
1001
QCAD
1000
reversed:1
  0
ARC
  5
1AF3
330
1F0A
100
AcDbEntity
  8
ALL
100
AcDbCircle
 10
2816.757763815797
 20
-694.8601027027938
 30
0.0
 40
457.360995155403
100
AcDbArc
 50
257.6959734121053
 51
258.5583739175372
1001
QCAD
1000
reversed:1
  0
ARC
  5
1AF4
330
1F0A
100
AcDbEntity
  8
ALL
100
AcDbCircle
 10
2636.487639312535
 20
-1521.374478194719
 30
0.0
 40
388.5842339718899
100
AcDbArc
 50
77.69597341209453
 51
78.71101662175523
  0
ARC
  5
1AF5
330
1F0A
100
AcDbEntity
  8
ALL
100
AcDbCircle
 10
2778.398995527389
 20
-857.6964293533819
 30
0.0
 40
290.1807366831632
100
AcDbArc
 50
255.9389159151959
 51
256.8851603242495
1001
QCAD
1000
reversed:1
  0
ARC
  5
1AF6
330
1F0A
100
AcDbEntity
  8
ALL
100
AcDbCircle
 10
2758.26434538003
 20
-938.0868872349348
 30
0.0
 40
207.3071591390369
100
AcDbArc
 50
254.8193944140754
 51
255.9389159152028
1001
QCAD
1000
reversed:1
  0
ARC
  5
1AF7
330
1F0A
100
AcDbEntity
  8
ALL
100
AcDbCircle
 10
2751.7979833227
 20
-961.9189340609879
 30
0.0
 40
182.6134292835518
100
AcDbArc
 50
253.3513542521577
 51
254.819394414062
1001
QCAD
1000
reversed:1
  0
ARC
  5
1AF8
330
1F0A
100
AcDbEntity
  8
ALL
100
AcDbCircle
 10
2740.938978464592
 20
-998.232101742757
 30
0.0
 40
144.7113959133924
100
AcDbArc
 50
251.7022199000214
 51
253.3513542521668
1001
QCAD
1000
reversed:1
  0
ARC
  5
1AF9
330
1F0A
100
AcDbEntity
  8
ALL
100
AcDbCircle
 10
2733.952864177838
 20
-1019.358905613911
 30
0.0
 40
122.4594828577069
100
AcDbArc
 50
247.1706130287495
 51
251.7022199000199
1001
QCAD
1000
reversed:1
  0
ARC
  5
1AFA
330
1F0A
100
AcDbEntity
  8
ALL
100
AcDbCircle
 10
2718.860612283266
 20
-1055.210469397428
 30
0.0
 40
83.56075931858828
100
AcDbArc
 50
241.6840548359273
 51
247.170613028749
1001
QCAD
1000
reversed:1
  0
ARC
  5
1AFB
330
1F0A
100
AcDbEntity
  8
ALL
100
AcDbCircle
 10
2714.23974783667
 20
-1063.78662741643
 30
0.0
 40
73.81894867576004
100
AcDbArc
 50
238.1074319438039
 51
241.6840548359286
1001
QCAD
1000
reversed:1
  0
ARC
  5
1AFC
330
1F0A
100
AcDbEntity
  8
ALL
100
AcDbCircle
 10
2708.187999021974
 20
-1073.511980129765
 30
0.0
 40
62.36442340777316
100
AcDbArc
 50
234.2160704125073
 51
238.1074319438094
1001
QCAD
1000
reversed:1
  0
ARC
  5
1AFD
330
1F0A
100
AcDbEntity
  8
ALL
100
AcDbCircle
 10
2705.452652850882
 20
-1077.306874169701
 30
0.0
 40
57.68646023454902
100
AcDbArc
 50
229.6760184093485
 51
234.2160704124943
1001
QCAD
1000
reversed:1
  0
ARC
  5
1AFE
330
1F0A
100
AcDbEntity
  8
ALL
100
AcDbCircle
 10
2700.724247488138
 20
-1082.877689828588
 30
0.0
 40
50.37949065888138
100
AcDbArc
 50
224.8176843088447
 51
229.6760184093605
1001
QCAD
1000
reversed:1
  0
ARC
  5
1AFF
330
1F0A
100
AcDbEntity
  8
ALL
100
AcDbCircle
 10
2698.821161309692
 20
-1084.768703107334
 30
0.0
 40
47.69664362205931
100
AcDbArc
 50
219.4078648618342
 51
224.8176843088417
1001
QCAD
1000
reversed:1
  0
ARC
  5
1B00
330
1F0A
100
AcDbEntity
  8
ALL
100
AcDbCircle
 10
2696.181813383223
 20
-1086.937294748432
 30
0.0
 40
44.28065954967253
100
AcDbArc
 50
213.7930932336295
 51
219.4078648618304
1001
QCAD
1000
reversed:1
  0
ARC
  5
1B01
330
1F0A
100
AcDbEntity
  8
ALL
100
AcDbCircle
 10
2695.554458962374
 20
-1087.357162420419
 30
0.0
 40
43.52576721871505
100
AcDbArc
 50
207.985713978312
 51
213.7930932336319
1001
QCAD
1000
reversed:1
  0
ARC
  5
1B02
330
1F0A
100
AcDbEntity
  8
ALL
100
AcDbCircle
 10
2695.889174148856
 20
-1087.179298236527
 30
0.0
 40
43.90480537507086
100
AcDbArc
 50
202.2034785320523
 51
207.9857139783072
1001
QCAD
1000
reversed:1
  0
ARC
  5
1B03
330
1F0A
100
AcDbEntity
  8
ALL
100
AcDbCircle
 10
2838.456489408767
 20
-1037.937832092793
 30
0.0
 40
194.6850165918403
100
AcDbArc
 50
196.733019346136
 51
199.7642714875841
1001
QCAD
1000
reversed:1
  0
ARC
  5
1B04
330
1F0A
100
AcDbEntity
  8
ALL
100
AcDbCircle
 10
2885.781164720412
 20
-1023.710016085665
 30
0.0
 40
244.1021759768689
100
AcDbArc
 50
194.0259944769176
 51
196.7330193461356
1001
QCAD
1000
reversed:1
  0
ARC
  5
1B05
330
1F0A
100
AcDbEntity
  8
ALL
100
AcDbCircle
 10
2919.884192313206
 20
-1015.190740469772
 30
0.0
 40
279.2532008269982
100
AcDbArc
 50
191.9885771275167
 51
194.0259944769176
1001
QCAD
1000
reversed:1
  0
ARC
  5
1B06
330
1F0A
100
AcDbEntity
  8
ALL
100
AcDbCircle
 10
3039.196329536855
 20
-989.8550233318869
 30
0.0
 40
401.2256758029773
100
AcDbArc
 50
190.2888556403066
 51
191.9885771275112
1001
QCAD
1000
reversed:1
  0
ARC
  5
1B07
330
1F0A
100
AcDbEntity
  8
ALL
100
AcDbCircle
 10
3127.265849210264
 20
-973.8677742024489
 30
0.0
 40
490.73451575877
100
AcDbArc
 50
189.259048999237
 51
190.2888556403102
1001
QCAD
1000
reversed:1
  0
ARC
  5
1B08
330
1F0A
100
AcDbEntity
  8
ALL
100
AcDbCircle
 10
3696.823536517479
 20
-881.0170733378678
 30
0.0
 40
1067.810950749653
100
AcDbArc
 50
188.5609313038885
 51
189.2590489992417
1001
QCAD
1000
reversed:1
  0
ARC
  5
1B09
330
1F0A
100
AcDbEntity
  8
ALL
100
AcDbCircle
 10
3574.805479141709
 20
-899.385473939553
 30
0.0
 40
944.4180641377388
100
AcDbArc
 50
188.4598002103437
 51
188.560931303862
1001
QCAD
1000
reversed:1
  0
ARC
  5
1B0A
330
1F0A
100
AcDbEntity
  8
ALL
100
AcDbCircle
 10
31466.25949858572
 20
3249.01609818416
 30
0.0
 40
29142.68827566592
100
AcDbArc
 50
188.4415947365326
 51
188.4598002103296
1001
QCAD
1000
reversed:1
  0
ARC
  5
1B0B
330
1F0A
100
AcDbEntity
  8
ALL
100
AcDbCircle
 10
93.01439236847
 20
-1407.056696549792
 30
0.0
 40
2574.176676038336
100
AcDbArc
 50
8.441594736629655
 51
8.589691652243907
  0
ARC
  5
1B0C
330
1F0A
100
AcDbEntity
  8
ALL
100
AcDbCircle
 10
1599.46340945451
 20
-1179.504926773088
 30
0.0
 40
1050.638540969835
100
AcDbArc
 50
8.589691652193865
 51
8.821505139505657
  0
ARC
  5
1B0D
330
1F0A
100
AcDbEntity
  8
ALL
100
AcDbCircle
 10
2548.986591786311
 20
-1167.600838511623
 30
0.0
 40
14.12522726844482
100
AcDbArc
 50
74.95360816779409
 51
79.57649411444922
  0
ARC
  5
1B0E
330
1F0A
100
AcDbEntity
  8
ALL
100
AcDbCircle
 10
2547.35360663862
 20
-1176.477762287618
 30
0.0
 40
23.15110208573503
100
AcDbArc
 50
79.57649411446393
 51
83.1870919656101
  0
ARC
  5
1B0F
330
1F0A
100
AcDbEntity
  8
ALL
100
AcDbCircle
 10
2546.545911429762
 20
-1183.238342934001
 30
0.0
 40
29.9597599730625
100
AcDbArc
 50
83.18709196559583
 51
85.1842648097104
  0
ARC
  5
1B10
330
1F0A
100
AcDbEntity
  8
ALL
100
AcDbCircle
 10
2543.484736081977
 20
-1219.573234223284
 30
0.0
 40
66.42337361068603
100
AcDbArc
 50
85.18426480967642
 51
86.52552267542663
  0
ARC
  5
1B11
330
1F0A
100
AcDbEntity
  8
ALL
100
AcDbCircle
 10
2537.627947973856
 20
-1316.036032489445
 30
0.0
 40
163.0638072618313
100
AcDbArc
 50
86.52552267542538
 51
86.98223427655049
  0
ARC
  5
1B12
330
1F0A
100
AcDbEntity
  8
ALL
100
AcDbCircle
 10
2552.540100264887
 20
-1033.173395585627
 30
0.0
 40
120.1916315952748
100
AcDbArc
 50
266.3626129497069
 51
266.9822342765469
1001
QCAD
1000
reversed:1
  0
ARC
  5
1B13
330
1F0A
100
AcDbEntity
  8
ALL
100
AcDbCircle
 10
2548.715620751181
 20
-1093.335284704114
 30
0.0
 40
59.90830433262374
100
AcDbArc
 50
264.9069311486778
 51
266.3626129496537
1001
QCAD
1000
reversed:1
  0
ARC
  5
1B14
330
1F0A
100
AcDbEntity
  8
ALL
100
AcDbCircle
 10
2546.062757992261
 20
-1123.100695729161
 30
0.0
 40
30.0249080345513
100
AcDbArc
 50
262.8506582574251
 51
264.9069311487058
1001
QCAD
1000
reversed:1
  0
ARC
  5
1B15
330
1F0A
100
AcDbEntity
  8
ALL
100
AcDbCircle
 10
2545.297073096846
 20
-1129.205116358256
 30
0.0
 40
23.87265441689335
100
AcDbArc
 50
259.399073098562
 51
262.8506582573993
1001
QCAD
1000
reversed:1
  0
ARC
  5
1B16
330
1F0A
100
AcDbEntity
  8
ALL
100
AcDbCircle
 10
2543.766805479554
 20
-1137.381297522095
 30
0.0
 40
15.55450213381721
100
AcDbArc
 50
255.1226956699551
 51
259.3990730985429
1001
QCAD
1000
reversed:1
  0
ARC
  5
1B17
330
1F0A
100
AcDbEntity
  8
ALL
100
AcDbCircle
 10
2543.098865842577
 20
-1139.895606870567
 30
0.0
 40
12.95298433482813
100
AcDbArc
 50
248.9318674192312
 51
255.1226956699765
1001
QCAD
1000
reversed:1
  0
ARC
  5
1B18
330
1F0A
100
AcDbEntity
  8
ALL
100
AcDbCircle
 10
2541.856123906514
 20
-1143.121589021649
 30
0.0
 40
9.495909218671231
100
AcDbArc
 50
241.7001336183737
 51
248.9318674192228
1001
QCAD
1000
reversed:1
  0
ARC
  5
1B19
330
1F0A
100
AcDbEntity
  8
ALL
100
AcDbCircle
 10
2541.37772133507
 20
-1144.010083979534
 30
0.0
 40
8.48680451124424
100
AcDbArc
 50
232.7022747017669
 51
241.7001336183651
1001
QCAD
1000
reversed:1
  0
ARC
  5
1B1A
330
1F0A
100
AcDbEntity
  8
ALL
100
AcDbCircle
 10
2540.866328901942
 20
-1144.681437794322
 30
0.0
 40
7.642862472184786
100
AcDbArc
 50
223.2195603284787
 51
232.7022747017729
1001
QCAD
1000
reversed:1
  0
ARC
  5
1B1B
330
1F0A
100
AcDbEntity
  8
ALL
100
AcDbCircle
 10
2540.962339988791
 20
-1144.591215680915
 30
0.0
 40
7.774612836684407
100
AcDbArc
 50
214.0058299135914
 51
223.2195603284513
1001
QCAD
1000
reversed:1
  0
ARC
  5
1B1C
330
1F0A
100
AcDbEntity
  8
ALL
100
AcDbCircle
 10
2542.01272720411
 20
-1143.882565043913
 30
0.0
 40
9.041695717725714
100
AcDbArc
 50
205.4633450618623
 51
214.0058299135851
1001
QCAD
1000
reversed:1
  0
ARC
  5
1B1D
330
1F0A
100
AcDbEntity
  8
ALL
100
AcDbCircle
 10
2566.311615836763
 20
-1132.332668722151
 30
0.0
 40
35.94589619601782
100
AcDbArc
 50
197.7287035826495
 51
205.4331193949604
1001
QCAD
1000
reversed:1
  0
ARC
  5
1B1E
330
1F0A
100
AcDbEntity
  8
ALL
100
AcDbCircle
 10
2572.237810652375
 20
-1130.43810694308
 30
0.0
 40
42.1675639247939
100
AcDbArc
 50
190.6161301413869
 51
197.7287035826472
1001
QCAD
1000
reversed:1
  0
ARC
  5
1B1F
330
1F0A
100
AcDbEntity
  8
ALL
100
AcDbCircle
 10
2577.490685207204
 20
-1129.453527506333
 30
0.0
 40
47.5119149383444
100
AcDbArc
 50
185.0132053161261
 51
190.6161301413914
1001
QCAD
1000
reversed:1
  0
ARC
  5
1B20
330
1F0A
100
AcDbEntity
  8
ALL
100
AcDbCircle
 10
2594.605809764243
 20
-1127.952173229651
 30
0.0
 40
64.69276338267542
100
AcDbArc
 50
180.2120890640632
 51
185.0132053161234
1001
QCAD
1000
reversed:1
  0
ARC
  5
1B21
330
1F0A
100
AcDbEntity
  8
ALL
100
AcDbCircle
 10
2607.183704009035
 20
-1127.905614023623
 30
0.0
 40
77.27074380056632
100
AcDbArc
 50
176.9195891211439
 51
180.2120890640666
1001
QCAD
1000
reversed:1
  0
ARC
  5
1B22
330
1F0A
100
AcDbEntity
  8
ALL
100
AcDbCircle
 10
2653.881769360317
 20
-1130.418678487002
 30
0.0
 40
124.036380763508
100
AcDbArc
 50
174.321008202861
 51
176.9195891211419
1001
QCAD
1000
reversed:1
  0
ARC
  5
1B23
330
1F0A
100
AcDbEntity
  8
ALL
100
AcDbCircle
 10
2677.525674582819
 20
-1132.769898591685
 30
0.0
 40
147.7969045403807
100
AcDbArc
 50
173.0361388577797
 51
174.3210082028437
1001
QCAD
1000
reversed:1
  0
ARC
  5
1B24
330
1F0A
100
AcDbEntity
  8
ALL
100
AcDbCircle
 10
3139.507207377236
 20
-1189.198336897751
 30
0.0
 40
613.2118863498837
100
AcDbArc
 50
172.4053566314049
 51
173.0361388577808
1001
QCAD
1000
reversed:1
  0
ARC
  5
1B25
330
1F0A
100
AcDbEntity
  8
ALL
100
AcDbCircle
 10
2495.659449600467
 20
-1268.134198896528
 30
0.0
 40
339.9460294613198
100
AcDbArc
 50
78.09219486192137
 51
78.71451697017334
  0
ARC
  5
1B26
330
1F0A
100
AcDbEntity
  8
ALL
100
AcDbCircle
 10
2374.690536441944
 20
-1874.323761081866
 30
0.0
 40
958.0878119458945
100
AcDbArc
 50
78.71451697018102
 51
79.08521150325639
  0
ARC
  5
1B27
330
1F0A
100
AcDbEntity
  8
ALL
100
AcDbCircle
 10
3358.471491088191
 20
3227.286510539576
 30
0.0
 40
4237.511511542984
100
AcDbArc
 50
258.9831454254152
 51
259.0852115032524
1001
QCAD
1000
reversed:1
  0
ARC
  5
1B28
330
1F0A
100
AcDbEntity
  8
ALL
100
AcDbCircle
 10
2626.736075333751
 20
-531.2625617711668
 30
0.0
 40
408.3957066035105
100
AcDbArc
 50
258.6543719094214
 51
258.9831454254492
1001
QCAD
1000
reversed:1
  0
ARC
  5
1B29
330
1F0A
100
AcDbEntity
  8
ALL
100
AcDbCircle
 10
2627.222047136125
 20
-528.8405501639808
 30
0.0
 40
410.865991772888
100
AcDbArc
 50
257.8771320879611
 51
258.6543719093933
1001
QCAD
1000
reversed:1
  0
ARC
  5
1B2A
330
1F0A
100
AcDbEntity
  8
ALL
100
AcDbCircle
 10
2592.73087930695
 20
-689.4147617928278
 30
0.0
 40
246.629217272029
100
AcDbArc
 50
256.8739376947848
 51
257.8771320879667
1001
QCAD
1000
reversed:1
  0
ARC
  5
1B2B
330
1F0A
100
AcDbEntity
  8
ALL
100
AcDbCircle
 10
2583.870998408026
 20
-727.4095331602358
 30
0.0
 40
207.6151154522421
100
AcDbArc
 50
255.4049195828381
 51
256.8739376947752
1001
QCAD
1000
reversed:1
  0
ARC
  5
1B2C
330
1F0A
100
AcDbEntity
  8
ALL
100
AcDbCircle
 10
2570.092176491819
 20
-780.32587125306
 30
0.0
 40
152.9342708121617
100
AcDbArc
 50
253.6932951386233
 51
255.4049195828418
1001
QCAD
1000
reversed:1
  0
ARC
  5
1B2D
330
1F0A
100
AcDbEntity
  8
ALL
100
AcDbCircle
 10
2565.007433713936
 20
-797.7067848907669
 30
0.0
 40
134.8248597781538
100
AcDbArc
 50
251.4725178185367
 51
253.6932951386259
1001
QCAD
1000
reversed:1
  0
ARC
  5
1B2E
330
1F0A
100
AcDbEntity
  8
ALL
100
AcDbCircle
 10
2556.320192082485
 20
-823.6288861698469
 30
0.0
 40
107.485812576649
100
AcDbArc
 50
248.985256899502
 51
251.4725178185378
1001
QCAD
1000
reversed:1
  0
ARC
  5
1B2F
330
1F0A
100
AcDbEntity
  8
ALL
100
AcDbCircle
 10
2552.704680307477
 20
-833.0403772238718
 30
0.0
 40
97.40374486931749
100
AcDbArc
 50
245.9493754076516
 51
248.9852568994959
1001
QCAD
1000
reversed:1
  0
ARC
  5
1B30
330
1F0A
100
AcDbEntity
  8
ALL
100
AcDbCircle
 10
2546.357150829118
 20
-847.2633276384669
 30
0.0
 40
81.82865421228824
100
AcDbArc
 50
242.6370758201124
 51
245.9493754076516
1001
QCAD
1000
reversed:1
  0
ARC
  5
1B31
330
1F0A
100
AcDbEntity
  8
ALL
100
AcDbCircle
 10
2543.686267907746
 20
-852.4241540858899
 30
0.0
 40
76.01765213002345
100
AcDbArc
 50
238.7981370719911
 51
242.637075820104
1001
QCAD
1000
reversed:1
  0
ARC
  5
1B32
330
1F0A
100
AcDbEntity
  8
ALL
100
AcDbCircle
 10
2539.242592036125
 20
-859.7609966847448
 30
0.0
 40
67.44003506160574
100
AcDbArc
 50
234.722271493378
 51
238.7981370719936
1001
QCAD
1000
reversed:1
  0
ARC
  5
1B33
330
1F0A
100
AcDbEntity
  8
ALL
100
AcDbCircle
 10
2537.571104296847
 20
-862.123670300069
 30
0.0
 40
64.54588615819686
100
AcDbArc
 50
230.2735530117605
 51
234.7222714933804
1001
QCAD
1000
reversed:1
  0
ARC
  5
1B34
330
1F0A
100
AcDbEntity
  8
ALL
100
AcDbCircle
 10
2535.412413730572
 20
-864.7213849426968
 30
0.0
 40
61.16830324649037
100
AcDbArc
 50
225.7035970102633
 51
230.273553011755
1001
QCAD
1000
reversed:1
  0
ARC
  5
1B35
330
1F0A
100
AcDbEntity
  8
ALL
100
AcDbCircle
 10
2520.630251656787
 20
-895.3803377627399
 30
0.0
 40
30.86406399717285
100
AcDbArc
 50
195.6662679637761
 51
205.1593019160328
1001
QCAD
1000
reversed:1
  0
ARC
  5
1B36
330
1F0A
100
AcDbEntity
  8
ALL
100
AcDbCircle
 10
2528.364992258624
 20
-893.211112922175
 30
0.0
 40
38.897229536773
100
AcDbArc
 50
187.2121279583581
 51
195.6662679637738
1001
QCAD
1000
reversed:1
  0
ARC
  5
1B37
330
1F0A
100
AcDbEntity
  8
ALL
100
AcDbCircle
 10
2535.95031098757
 20
-892.2512330484548
 30
0.0
 40
46.54304078161008
100
AcDbArc
 50
181.4016779082215
 51
187.212127958357
1001
QCAD
1000
reversed:1
  0
ARC
  5
1B38
330
1F0A
100
AcDbEntity
  8
ALL
100
AcDbCircle
 10
2567.996242096415
 20
-891.4671083345589
 30
0.0
 40
78.59856374099674
100
AcDbArc
 50
176.9312005876166
 51
181.4016779082286
1001
QCAD
1000
reversed:1
  0
ARC
  5
1B39
330
1F0A
100
AcDbEntity
  8
ALL
100
AcDbCircle
 10
2593.896507921072
 20
-892.8556715711369
 30
0.0
 40
104.5360246354225
100
AcDbArc
 50
175.6293045077648
 51
176.931200587621
1001
QCAD
1000
reversed:1
  0
ARC
  5
1B3A
330
1F0A
100
AcDbEntity
  8
ALL
100
AcDbCircle
 10
2661.546877253136
 20
-898.0262798397349
 30
0.0
 40
172.3837044825037
100
AcDbArc
 50
174.6154922741901
 51
175.6293045077465
1001
QCAD
1000
reversed:1
  0
ARC
  5
1B3B
330
1F0A
100
AcDbEntity
  8
ALL
100
AcDbCircle
 10
2682.193334141332
 20
-899.9723122709848
 30
0.0
 40
193.1216702520672
100
AcDbArc
 50
174.1605028670754
 51
174.615492274212
1001
QCAD
1000
reversed:1
  0
ARC
  5
1B3C
330
1F0A
100
AcDbEntity
  8
ALL
100
AcDbCircle
 10
3727.312307568535
 20
-1006.859568874329
 30
0.0
 40
1243.692255335107
100
AcDbArc
 50
173.9812115071693
 51
174.1605028670564
1001
QCAD
1000
reversed:1
  0
ARC
  5
1B3D
330
1F0A
100
AcDbEntity
  8
ALL
100
AcDbCircle
 10
1973.385538480384
 20
-821.9329138868328
 30
0.0
 40
519.9565132831975
100
AcDbArc
 50
353.9812115071971
 51
354.3626978315713
  0
ARC
  5
1B3E
330
1F0A
100
AcDbEntity
  8
ALL
100
AcDbCircle
 10
2324.387480211597
 20
-856.5796852006928
 30
0.0
 40
167.248756263939
100
AcDbArc
 50
354.3626978315656
 51
355.035337891365
  0
ARC
  5
1B3F
330
1F0A
100
AcDbEntity
  8
ALL
100
AcDbCircle
 10
2357.690536373095
 20
-859.4726288924588
 30
0.0
 40
133.8202852713911
100
AcDbArc
 50
355.0353378913504
 51
356.3307585830611
  0
ARC
  5
1B40
330
1F0A
100
AcDbEntity
  8
ALL
100
AcDbCircle
 10
2407.248904645929
 20
-862.6507096338138
 30
0.0
 40
84.1601195138704
100
AcDbArc
 50
356.3307585830702
 51
357.964277214607
  0
ARC
  5
1B41
330
1F0A
100
AcDbEntity
  8
ALL
100
AcDbCircle
 10
2456.161626567522
 20
-755.1451952890308
 30
0.0
 40
89.47988413133798
100
AcDbArc
 50
295.3705149985084
 51
310.6704730830045
  0
ARC
  5
1B42
330
1F0A
100
AcDbEntity
  8
ALL
100
AcDbCircle
 10
3243.64240159872
 20
-1020.290888231417
 30
0.0
 40
755.38181495133
100
AcDbArc
 50
161.4771330689181
 51
164.860912201602
1001
QCAD
1000
reversed:1
  0
ARC
  5
1B43
330
1F0A
100
AcDbEntity
  8
ALL
100
AcDbCircle
 10
2439.835469723876
 20
-1075.354197093839
 30
0.0
 40
307.7530643290139
100
AcDbArc
 50
73.47094758397873
 51
75.57177608518508
  0
ARC
  5
1B44
330
1F0A
100
AcDbEntity
  8
ALL
100
AcDbCircle
 10
2529.881539270368
 20
-2337.433785981033
 30
0.0
 40
1587.440330323733
100
AcDbArc
 50
88.24187745459682
 51
90.85917628711104
1001
QCAD
1000
reversed:1
  0
ARC
  5
1B45
330
1F0A
100
AcDbEntity
  8
ALL
100
AcDbCircle
 10
2592.818093686776
 20
-775.8391073585279
 30
0.0
 40
58.15999335833629
100
AcDbArc
 50
96.17191161881816
 51
99.75100176224745
1001
QCAD
1000
reversed:1
  0
ARC
  5
1B46
330
1F0A
100
AcDbEntity
  8
ALL
100
AcDbCircle
 10
2595.330238683175
 20
-799.069859706381
 30
0.0
 40
81.5261810476066
100
AcDbArc
 50
93.14906565195194
 51
96.17191161881988
1001
QCAD
1000
reversed:1
  0
ARC
  5
1B47
330
1F0A
100
AcDbEntity
  8
ALL
100
AcDbCircle
 10
2596.279772489768
 20
-816.328784604248
 30
0.0
 40
98.81120644764749
100
AcDbArc
 50
91.17373413197922
 51
93.14906565194875
1001
QCAD
1000
reversed:1
  0
ARC
  5
1B48
330
1F0A
100
AcDbEntity
  8
ALL
100
AcDbCircle
 10
2597.831092674569
 20
-892.0458170138598
 30
0.0
 40
174.5441292172996
100
AcDbArc
 50
89.68752084792989
 51
91.17373413197662
1001
QCAD
1000
reversed:1
  0
ARC
  5
1B49
330
1F0A
100
AcDbEntity
  8
ALL
100
AcDbCircle
 10
2596.584340558861
 20
-1120.646431232544
 30
0.0
 40
403.1481432065501
100
AcDbArc
 50
88.56002281016572
 51
89.68752084793631
1001
QCAD
1000
reversed:1
  0
ARC
  5
1B4A
330
1F0A
100
AcDbEntity
  8
ALL
100
AcDbCircle
 10
2611.309223220836
 20
-534.8760470495309
 30
0.0
 40
182.8072861183459
100
AcDbArc
 50
268.5600228101636
 51
271.0466692192795
  0
ARC
  5
1B4B
330
1F0A
100
AcDbEntity
  8
ALL
100
AcDbCircle
 10
2612.588897792861
 20
-604.9189934209729
 30
0.0
 40
112.7526509868793
100
AcDbArc
 50
271.0466692192699
 51
273.2748649544836
  0
ARC
  5
1B4C
330
1F0A
100
AcDbEntity
  8
ALL
100
AcDbCircle
 10
2614.811601145959
 20
-643.7642006034629
 30
0.0
 40
73.84390478186195
100
AcDbArc
 50
273.274864954494
 51
276.0282935341555
  0
ARC
  5
1B4D
330
1F0A
100
AcDbEntity
  8
ALL
100
AcDbCircle
 10
2615.967084118692
 20
-654.7059082753439
 30
0.0
 40
62.84135472848053
100
AcDbArc
 50
276.0282935341563
 51
279.8925385535903
  0
ARC
  5
1B4E
330
1F0A
100
AcDbEntity
  8
ALL
100
AcDbCircle
 10
2618.55942041383
 20
-669.570754742054
 30
0.0
 40
47.75215766747134
100
AcDbArc
 50
279.8925385535884
 51
284.3257347307705
  0
ARC
  5
1B4F
330
1F0A
100
AcDbEntity
  8
ALL
100
AcDbCircle
 10
2619.737508213364
 20
-674.183919266597
 30
0.0
 40
42.9909416679692
100
AcDbArc
 50
284.3257347307647
 51
289.8076080058902
  0
ARC
  5
1B50
330
1F0A
100
AcDbEntity
  8
ALL
100
AcDbCircle
 10
2621.747761933347
 20
-679.7652883043298
 30
0.0
 40
37.05858965935856
100
AcDbArc
 50
289.8076080058934
 51
295.7123315886928
  0
ARC
  5
1B51
330
1F0A
100
AcDbEntity
  8
ALL
100
AcDbCircle
 10
2622.337310613106
 20
-680.9896055674768
 30
0.0
 40
35.69972233447147
100
AcDbArc
 50
295.7123315886879
 51
302.0819323874958
  0
ARC
  5
1B52
330
1F0A
100
AcDbEntity
  8
ALL
100
AcDbCircle
 10
2622.385281249103
 20
-681.0661309095848
 30
0.0
 40
35.60940450731337
100
AcDbArc
 50
302.081932387488
 51
308.459614171805
  0
ARC
  5
1B53
330
1F0A
100
AcDbEntity
  8
ALL
100
AcDbCircle
 10
2192.236467189798
 20
42.66111040799404
 30
0.0
 40
877.2065669246971
100
AcDbArc
 50
301.0382417382164
 51
304.7184641942964
  0
ARC
  5
1B54
330
1F0A
100
AcDbEntity
  8
ALL
100
AcDbCircle
 10
2603.245588201915
 20
-1230.993565112789
 30
0.0
 40
559.6826920155456
100
AcDbArc
 50
80.89163649989669
 51
91.64794780818454
  0
LINE
  5
1B55
330
1F0A
100
AcDbEntity
  8
ALL
100
AcDbLine
 10
2587.150149562216
 20
-671.542358485469
 30
0.0
 11
2583.068103662484
 21
-702.0907839482169
 31
0.0
  0
ARC
  5
1B56
330
1F0A
100
AcDbEntity
  8
ALL
100
AcDbCircle
 10
2560.904117367145
 20
-1834.162120010897
 30
0.0
 40
1132.288281412133
100
AcDbArc
 50
88.87839165782161
 51
91.73330124580522
  0
ARC
  5
1B57
330
1F0A
100
AcDbEntity
  8
ALL
100
AcDbCircle
 10
2496.950094524404
 20
-1215.08835150139
 30
0.0
 40
562.5895999758881
100
AcDbArc
 50
80.32485753114089
 51
87.64875275310787
1001
QCAD
1000
reversed:1
  0
ARC
  5
1B58
330
1F0A
100
AcDbEntity
  8
ALL
100
AcDbCircle
 10
3289.140687707193
 20
-755.1414304994988
 30
0.0
 40
704.030941370354
100
AcDbArc
 50
169.7933030442442
 51
172.2745204757684
1001
QCAD
1000
reversed:1
  0
ARC
  5
1B59
330
1F0A
100
AcDbEntity
  8
ALL
100
AcDbCircle
 10
2608.890640728017
 20
-1065.548486401949
 30
0.0
 40
435.3447038724507
100
AcDbArc
 50
89.38529053154096
 51
91.66372500429283
1001
QCAD
1000
reversed:1
  0
ARC
  5
1B5A
330
1F0A
100
AcDbEntity
  8
ALL
100
AcDbCircle
 10
2607.999228952692
 20
-1148.631919322355
 30
0.0
 40
518.4329186853398
100
AcDbArc
 50
87.2974260610206
 51
89.38529053154062
1001
QCAD
1000
reversed:1
  0
ARC
  5
1B5B
330
1F0A
100
AcDbEntity
  8
ALL
100
AcDbCircle
 10
2605.403164634883
 20
-1203.628823287708
 30
0.0
 40
573.4910606419697
100
AcDbArc
 50
85.60089444132687
 51
87.29742606102221
1001
QCAD
1000
reversed:1
  0
ARC
  5
1B5C
330
1F0A
100
AcDbEntity
  8
ALL
100
AcDbCircle
 10
2593.009202682214
 20
-1364.735613068501
 30
0.0
 40
735.0738815306918
100
AcDbArc
 50
84.10239598097357
 51
85.60089444132677
1001
QCAD
1000
reversed:1
  0
ARC
  5
1B5D
330
1F0A
100
AcDbEntity
  8
ALL
100
AcDbCircle
 10
2581.378098490335
 20
-1477.333532281264
 30
0.0
 40
848.2709397776539
100
AcDbArc
 50
82.9991934592688
 51
84.10239598097006
1001
QCAD
1000
reversed:1
  0
ARC
  5
1B5E
330
1F0A
100
AcDbEntity
  8
ALL
100
AcDbCircle
 10
2531.669787788102
 20
-1882.128127067938
 30
0.0
 40
1256.106176265843
100
AcDbArc
 50
82.09261126161385
 51
82.99919345926996
1001
QCAD
1000
reversed:1
  0
ARC
  5
1B5F
330
1F0A
100
AcDbEntity
  8
ALL
100
AcDbCircle
 10
2492.266745166622
 20
-2165.821820331473
 30
0.0
 40
1542.523199791567
100
AcDbArc
 50
81.57715753766148
 51
82.09261126161152
1001
QCAD
1000
reversed:1
  0
ARC
  5
1B60
330
1F0A
100
AcDbEntity
  8
ALL
100
AcDbCircle
 10
2133.049496510692
 20
-4591.743479217764
 30
0.0
 40
3994.896117352343
100
AcDbArc
 50
81.25686126143248
 51
81.57715753766847
1001
QCAD
1000
reversed:1
  0
ARC
  5
1B61
330
1F0A
100
AcDbEntity
  8
ALL
100
AcDbCircle
 10
2744.309319286306
 20
-628.1421762798719
 30
0.0
 40
15.65089357949344
100
AcDbArc
 50
255.1334410458085
 51
267.0970081204237
  0
ARC
  5
1B62
330
1F0A
100
AcDbEntity
  8
ALL
100
AcDbCircle
 10
2744.339256802484
 20
-627.551811112685
 30
0.0
 40
16.24201732753855
100
AcDbArc
 50
267.0970081204284
 51
278.8400724010257
  0
ARC
  5
1B63
330
1F0A
100
AcDbEntity
  8
ALL
100
AcDbCircle
 10
2744.008390384223
 20
-625.424386801937
 30
0.0
 40
18.3950168130691
100
AcDbArc
 50
278.8400724010393
 51
288.0090416983277
  0
ARC
  5
1B64
330
1F0A
100
AcDbEntity
  8
ALL
100
AcDbCircle
 10
2740.935461183118
 20
-615.9719589867769
 30
0.0
 40
28.33439735090003
100
AcDbArc
 50
288.0090416982999
 51
295.3940464658551
  0
ARC
  5
1B65
330
1F0A
100
AcDbEntity
  8
ALL
100
AcDbCircle
 10
2737.491714884736
 20
-608.7175007885918
 30
0.0
 40
36.36474929317705
100
AcDbArc
 50
295.3940464658645
 51
299.4625864322848
  0
ARC
  5
1B66
330
1F0A
100
AcDbEntity
  8
ALL
100
AcDbCircle
 10
2712.202533211006
 20
-563.950842214368
 30
0.0
 40
87.78066540509785
100
AcDbArc
 50
299.4625864322878
 51
302.0809261528156
  0
ARC
  5
1B67
330
1F0A
100
AcDbEntity
  8
ALL
100
AcDbCircle
 10
2649.246480523796
 20
-463.5160368930343
 30
0.0
 40
206.3159542008353
100
AcDbArc
 50
302.0809261528237
 51
302.5387125461195
  0
ARC
  5
1B68
330
1F0A
100
AcDbEntity
  8
ALL
100
AcDbCircle
 10
2992.00691037782
 20
-1000.740782290433
 30
0.0
 40
430.9399907231915
100
AcDbArc
 50
122.3195441121287
 51
122.5387125461175
1001
QCAD
1000
reversed:1
  0
ARC
  5
1B69
330
1F0A
100
AcDbEntity
  8
ALL
100
AcDbCircle
 10
2840.625832557778
 20
-761.4603449492578
 30
0.0
 40
147.7945185430041
100
AcDbArc
 50
121.5500914758347
 51
122.3195441121404
1001
QCAD
1000
reversed:1
  0
ARC
  5
1B6A
330
1F0A
100
AcDbEntity
  8
ALL
100
AcDbCircle
 10
2797.070037480638
 20
-690.5230301992079
 30
0.0
 40
64.55264261057681
100
AcDbArc
 50
120.3858092936612
 51
121.5500914758416
1001
QCAD
1000
reversed:1
  0
ARC
  5
1B6B
330
1F0A
100
AcDbEntity
  8
ALL
100
AcDbCircle
 10
2276.294237705625
 20
172.900817550642
 30
0.0
 40
943.772141208322
100
AcDbArc
 50
301.1449618253688
 51
304.5818927706577
  0
ARC
  5
1B6C
330
1F0A
100
AcDbEntity
  8
ALL
100
AcDbCircle
 10
2394.348328529291
 20
-3555.790210922089
 30
0.0
 40
2981.065210912759
100
AcDbArc
 50
81.9469835706877
 51
83.97846837078605
  0
ARC
  5
1B6D
330
1F0A
100
AcDbEntity
  8
ALL
100
AcDbCircle
 10
2664.151990048577
 20
-1018.734764348838
 30
0.0
 40
429.7103519359959
100
AcDbArc
 50
84.26812116476681
 51
85.83392159783875
  0
ARC
  5
1B6E
330
1F0A
100
AcDbEntity
  8
ALL
100
AcDbCircle
 10
2643.561628853428
 20
-1301.413305243023
 30
0.0
 40
713.1378037754605
100
AcDbArc
 50
85.83392159783764
 51
87.04935793460143
  0
ARC
  5
1B6F
330
1F0A
100
AcDbEntity
  8
ALL
100
AcDbCircle
 10
2631.144466035191
 20
-1542.317472082406
 30
0.0
 40
954.3617734240675
100
AcDbArc
 50
87.0493579346011
 51
87.39384475217929
  0
ARC
  5
1B70
330
1F0A
100
AcDbEntity
  8
ALL
100
AcDbCircle
 10
2596.448350845636
 20
-2304.578192409378
 30
0.0
 40
1717.411723402862
100
AcDbArc
 50
87.393844752182
 51
87.65064274390427
  0
ARC
  5
1B71
330
1F0A
100
AcDbEntity
  8
ALL
100
AcDbCircle
 10
2540.973844992861
 20
-3656.723978009605
 30
0.0
 40
3070.695007241122
100
AcDbArc
 50
87.65064274390225
 51
87.77598837066992
  0
ARC
  5
1B72
330
1F0A
100
AcDbEntity
  8
ALL
100
AcDbCircle
 10
2959.712909227422
 20
7125.562383019264
 30
0.0
 40
7719.719330269055
100
AcDbArc
 50
267.7261292878134
 51
267.7759883706656
1001
QCAD
1000
reversed:1
  0
ARC
  5
1B73
330
1F0A
100
AcDbEntity
  8
ALL
100
AcDbCircle
 10
2724.119919942126
 20
1192.333041940596
 30
0.0
 40
1781.814441300456
100
AcDbArc
 50
267.1877530797595
 51
267.72612928782
1001
QCAD
1000
reversed:1
  0
ARC
  5
1B74
330
1F0A
100
AcDbEntity
  8
ALL
100
AcDbCircle
 10
2668.695102855148
 20
64.03328002012262
 30
0.0
 40
652.1541989714092
100
AcDbArc
 50
266.2978458876033
 51
267.1877530797556
1001
QCAD
1000
reversed:1
  0
ARC
  5
1B75
330
1F0A
100
AcDbEntity
  8
ALL
100
AcDbCircle
 10
2660.868418955749
 20
-56.92648661005126
 30
0.0
 40
530.9414846049401
100
AcDbArc
 50
264.7046532694761
 51
266.2978458876049
1001
QCAD
1000
reversed:1
  0
ARC
  5
1B76
330
1F0A
100
AcDbEntity
  8
ALL
100
AcDbCircle
 10
2644.833891119492
 20
-229.9262065711454
 30
0.0
 40
357.200271332013
100
AcDbArc
 50
262.7622359957597
 51
264.7046532694775
1001
QCAD
1000
reversed:1
  0
ARC
  5
1B77
330
1F0A
100
AcDbEntity
  8
ALL
100
AcDbCircle
 10
3162.039442745639
 20
-722.4645315931738
 30
0.0
 40
578.9412178071193
100
AcDbArc
 50
166.1910911583435
 51
168.2251836580971
  0
ARC
  5
1B78
330
1F0A
100
AcDbEntity
  8
ALL
100
AcDbCircle
 10
2561.181689151521
 20
-119.4697924586029
 30
0.0
 40
486.0502409302208
100
AcDbArc
 50
265.705151805363
 51
274.0229180951447
1001
QCAD
1000
reversed:1
  0
ARC
  5
1B79
330
1F0A
100
AcDbEntity
  8
ALL
100
AcDbCircle
 10
2602.864046705771
 20
-1066.416382308011
 30
0.0
 40
520.9845209053298
100
AcDbArc
 50
90.16058667344772
 51
97.23753940903575
1001
QCAD
1000
reversed:1
  0
ARC
  5
1B7A
330
1F0A
100
AcDbEntity
  8
ALL
100
AcDbCircle
 10
4132.19945066561
 20
-708.5130885833968
 30
0.0
 40
1539.457692744135
100
AcDbArc
 50
173.4329489792149
 51
173.9190838107106
1001
QCAD
1000
reversed:1
  0
ARC
  5
1B7B
330
1F0A
100
AcDbEntity
  8
ALL
100
AcDbCircle
 10
2876.047534298839
 20
-517.0382468538048
 30
0.0
 40
41.60289652338928
100
AcDbArc
 50
281.2104912351229
 51
306.5652512796728
  0
LINE
  5
1B7C
330
1F0A
100
AcDbEntity
  8
ALL
100
AcDbLine
 10
2900.831955381779
 20
-550.4528165909618
 30
0.0
 11
2958.114435548509
 21
-514.6178070941359
 31
0.0
  0
ARC
  5
1B7D
330
1F0A
100
AcDbEntity
  8
ALL
100
AcDbCircle
 10
2927.732590960522
 20
533.899114981848
 30
0.0
 40
1048.957002150356
100
AcDbArc
 50
266.1390376781936
 51
271.6597390976535
1001
QCAD
1000
reversed:1
  0
LINE
  5
1B7E
330
1F0A
100
AcDbEntity
  8
ALL
100
AcDbLine
 10
2737.248984858916
 20
-505.1153395898418
 30
0.0
 11
2593.708190515884
 21
-490.3597474440892
 31
0.0
  0
ARC
  5
1B7F
330
1F0A
100
AcDbEntity
  8
ALL
100
AcDbCircle
 10
1017.90301431531
 20
-726.0581805838648
 30
0.0
 40
1593.334774843336
100
AcDbArc
 50
7.704731303516577
 51
8.50685586039557
1001
QCAD
1000
reversed:1
  0
ARC
  5
1B80
330
1F0A
100
AcDbEntity
  8
ALL
100
AcDbCircle
 10
2685.359669607059
 20
-169.317577502888
 30
0.0
 40
354.3562943767145
100
AcDbArc
 50
248.5482314815446
 51
255.5363105862788
1001
QCAD
1000
reversed:1
  0
ARC
  5
1B81
330
1F0A
100
AcDbEntity
  8
ALL
100
AcDbCircle
 10
2955.482003249495
 20
2000.203553967909
 30
0.0
 40
2514.805839171942
100
AcDbArc
 50
265.0216522576756
 51
267.7579652630828
  0
ARC
  5
1B82
330
1F0A
100
AcDbEntity
  8
ALL
100
AcDbCircle
 10
2878.70768885896
 20
-111.9347103038176
 30
0.0
 40
445.9456681399635
100
AcDbArc
 50
268.2236808366976
 51
270.6974187433458
1001
QCAD
1000
reversed:1
  0
ARC
  5
1B83
330
1F0A
100
AcDbEntity
  8
ALL
100
AcDbCircle
 10
2882.713019133266
 20
17.21718709269351
 30
0.0
 40
575.1596583721562
100
AcDbArc
 50
266.0455053247587
 51
268.2236808366975
1001
QCAD
1000
reversed:1
  0
ARC
  5
1B84
330
1F0A
100
AcDbEntity
  8
ALL
100
AcDbCircle
 10
2889.163289556047
 20
110.5252531730266
 30
0.0
 40
668.6904083113011
100
AcDbArc
 50
264.4738852434738
 51
266.045505324759
1001
QCAD
1000
reversed:1
  0
ARC
  5
1B85
330
1F0A
100
AcDbEntity
  8
ALL
100
AcDbCircle
 10
2924.079725624171
 20
471.4220706260554
 30
0.0
 40
1031.272358159089
100
AcDbArc
 50
263.2083663292437
 51
264.4738852434734
1001
QCAD
1000
reversed:1
  0
ARC
  5
1B86
330
1F0A
100
AcDbEntity
  8
ALL
100
AcDbCircle
 10
2956.737660730003
 20
745.6403075595005
 30
0.0
 40
1307.428441185091
100
AcDbArc
 50
262.8047742872501
 51
263.2083663292471
1001
QCAD
1000
reversed:1
  0
ARC
  5
1B87
330
1F0A
100
AcDbEntity
  8
ALL
100
AcDbCircle
 10
3041.708251333391
 20
1418.70282402969
 30
0.0
 40
1985.833299912292
100
AcDbArc
 50
262.4772980006246
 51
262.8047742872463
1001
QCAD
1000
reversed:1
  0
ARC
  5
1B88
330
1F0A
100
AcDbEntity
  8
ALL
100
AcDbCircle
 10
3099.930154722199
 20
1859.592105759555
 30
0.0
 40
2430.550230980238
100
AcDbArc
 50
262.3017199166848
 51
262.4772980006262
1001
QCAD
1000
reversed:1
  0
ARC
  5
1B89
330
1F0A
100
AcDbEntity
  8
ALL
100
AcDbCircle
 10
3783.322023142295
 20
6915.210333418006
 30
0.0
 40
7532.148030655852
100
AcDbArc
 50
262.201981362746
 51
262.3017199166854
1001
QCAD
1000
reversed:1
  0
ARC
  5
1B8A
330
1F0A
100
AcDbEntity
  8
ALL
100
AcDbCircle
 10
572.677929760207
 20
-16529.09268023613
 30
0.0
 40
16130.97896664529
100
AcDbArc
 50
82.20198136275364
 51
82.25391303612898
  0
ARC
  5
1B8B
330
1F0A
100
AcDbEntity
  8
ALL
100
AcDbCircle
 10
2388.103163868355
 20
-3182.778826096307
 30
0.0
 40
2661.759899682221
100
AcDbArc
 50
82.25391303609628
 51
82.38175643710447
  0
ARC
  5
1B8C
330
1F0A
100
AcDbEntity
  8
ALL
100
AcDbCircle
 10
2428.7043291936
 20
-2879.224567365994
 30
0.0
 40
2355.502422028078
100
AcDbArc
 50
82.38175643711901
 51
82.66181378416975
  0
ARC
  5
1B8D
330
1F0A
100
AcDbEntity
  8
ALL
100
AcDbCircle
 10
2543.810905819968
 20
-1985.404121426719
 30
0.0
 40
1454.30071676908
100
AcDbArc
 50
82.66181378417825
 51
83.01823365369526
  0
ARC
  5
1B8E
330
1F0A
100
AcDbEntity
  8
ALL
100
AcDbCircle
 10
3441.934777075205
 20
4677.808960264938
 30
0.0
 40
5269.304687590279
100
AcDbArc
 50
262.0513702775858
 51
262.1317091499006
1001
QCAD
1000
reversed:1
  0
ARC
  5
1B8F
330
1F0A
100
AcDbEntity
  8
ALL
100
AcDbCircle
 10
1557.603301181449
 20
-8817.69020730244
 30
0.0
 40
8357.110941358358
100
AcDbArc
 50
82.05137027760414
 51
82.10202533992913
  0
ARC
  5
1B90
330
1F0A
100
AcDbEntity
  8
ALL
100
AcDbCircle
 10
2243.453641741872
 20
-3873.749479788855
 30
0.0
 40
3365.824473240705
100
AcDbArc
 50
82.10202533993689
 51
82.25064730987594
  0
ARC
  5
1B91
330
1F0A
100
AcDbEntity
  8
ALL
100
AcDbCircle
 10
2478.094962430972
 20
-2149.491871881403
 30
0.0
 40
1625.674810768694
100
AcDbArc
 50
82.25064730986945
 51
82.46449868017669
  0
ARC
  5
1B92
330
1F0A
100
AcDbEntity
  8
ALL
100
AcDbCircle
 10
2536.883449206615
 20
-1705.077021143429
 30
0.0
 40
1177.388467307479
100
AcDbArc
 50
82.46449868016897
 51
83.28343337865965
  0
ARC
  5
1B93
330
1F0A
100
AcDbEntity
  8
ALL
100
AcDbCircle
 10
2595.566390044318
 20
-1206.776414089505
 30
0.0
 40
675.6443267979269
100
AcDbArc
 50
83.28343337866099
 51
84.36450094887141
  0
ARC
  5
1B94
330
1F0A
100
AcDbEntity
  8
ALL
100
AcDbCircle
 10
2606.281830459476
 20
-1098.184719884628
 30
0.0
 40
566.525232622909
100
AcDbArc
 50
84.36450094887297
 51
85.97432500828243
  0
ARC
  5
1B95
330
1F0A
100
AcDbEntity
  8
ALL
100
AcDbCircle
 10
2616.756217175727
 20
-949.3524691502038
 30
0.0
 40
417.324858508914
100
AcDbArc
 50
85.97432500828062
 51
87.8499932407837
  0
ARC
  5
1B96
330
1F0A
100
AcDbEntity
  8
ALL
100
AcDbCircle
 10
2618.510473322968
 20
-902.6250383036098
 30
0.0
 40
370.5645098344939
100
AcDbArc
 50
87.84999324078353
 51
90.2524124389279
  0
ARC
  5
1B97
330
1F0A
100
AcDbEntity
  8
ALL
100
AcDbCircle
 10
2618.211238993352
 20
-834.7014711036708
 30
0.0
 40
302.6402835058217
100
AcDbArc
 50
90.25241243892812
 51
92.9108378261683
  0
LINE
  5
1B98
330
1F0A
100
AcDbEntity
  8
ALL
100
AcDbLine
 10
2582.967725484621
 20
-718.5193457250069
 30
0.0
 11
2578.584545051303
 21
-750.7407408187929
 31
0.0
  0
LINE
  5
1BAF
330
1F0A
100
AcDbEntity
  8
ALL
100
AcDbLine
 10
2494.501091395349
 20
-835.9952732164719
 30
0.0
 11
2491.355908488999
 21
-865.6402950784599
 31
0.0
  0
ARC
  5
1BC0
330
1F0A
100
AcDbEntity
  8
ALL
100
AcDbCircle
 10
2514.176851181138
 20
-1041.530681365542
 30
0.0
 40
112.0884407067478
100
AcDbArc
 50
330.0952160907749
 51
335.0681964381164
  0
ARC
  5
1BC1
330
1F0A
100
AcDbEntity
  8
ALL
100
AcDbCircle
 10
2482.166885702545
 20
-1026.650548113312
 30
0.0
 40
147.3879627367255
100
AcDbArc
 50
335.0681964381164
 51
339.4046378258458
  0
ARC
  5
1BC2
330
1F0A
100
AcDbEntity
  8
ALL
100
AcDbCircle
 10
2455.852593002828
 20
-1016.762086622155
 30
0.0
 40
175.4988800278499
100
AcDbArc
 50
339.4046378258397
 51
342.3178492625355
  0
ARC
  5
1BC3
330
1F0A
100
AcDbEntity
  8
ALL
100
AcDbCircle
 10
2322.732027516357
 20
-974.3235850531238
 30
0.0
 40
315.2204294426143
100
AcDbArc
 50
342.3178492625312
 51
344.4914574621267
  0
ARC
  5
1BC4
330
1F0A
100
AcDbEntity
  8
ALL
100
AcDbCircle
 10
2086.642100385512
 20
-908.8121449741419
 30
0.0
 40
560.2310465061812
100
AcDbArc
 50
344.491457462134
 51
345.5592450599996
  0
ARC
  5
1BC5
330
1F0A
100
AcDbEntity
  8
ALL
100
AcDbCircle
 10
4123.509634059854
 20
-1433.335474856032
 30
0.0
 40
1543.088727880724
100
AcDbArc
 50
165.1715808662852
 51
165.559245059997
1001
QCAD
1000
reversed:1
  0
ARC
  5
1BC6
330
1F0A
100
AcDbEntity
  8
ALL
100
AcDbCircle
 10
3223.680300267932
 20
-1195.112768340268
 30
0.0
 40
612.2595878920205
100
AcDbArc
 50
164.6142994468129
 51
165.1715808662817
1001
QCAD
1000
reversed:1
  0
ARC
  5
1BC7
330
1F0A
100
AcDbEntity
  8
ALL
100
AcDbCircle
 10
2968.289404907785
 20
-1124.834965335413
 30
0.0
 40
347.3756906312644
100
AcDbArc
 50
163.8744489760005
 51
164.6142994468208
1001
QCAD
1000
reversed:1
  0
ARC
  5
1BC8
330
1F0A
100
AcDbEntity
  8
ALL
100
AcDbCircle
 10
2914.163979723535
 20
-1109.186312652252
 30
0.0
 40
291.033504108428
100
AcDbArc
 50
162.7679691037788
 51
163.8744489759937
1001
QCAD
1000
reversed:1
  0
ARC
  5
1BC9
330
1F0A
100
AcDbEntity
  8
ALL
100
AcDbCircle
 10
2840.662102841539
 20
-1086.388644970118
 30
0.0
 40
214.0772856662442
100
AcDbArc
 50
161.4778430564286
 51
162.7679691037844
1001
QCAD
1000
reversed:1
  0
ARC
  5
1BCA
330
1F0A
100
AcDbEntity
  8
ALL
100
AcDbCircle
 10
2192.173299194336
 20
-541.5778266265128
 30
0.0
 40
710.6038048155215
100
AcDbArc
 50
300.4833000411484
 51
300.9625456832645
  0
ARC
  5
1BCB
330
1F0A
100
AcDbEntity
  8
ALL
100
AcDbCircle
 10
2353.003672701901
 20
-809.6412897907509
 30
0.0
 40
397.994736926909
100
AcDbArc
 50
300.9625456832681
 51
301.6029205324739
  0
ARC
  5
1BCC
330
1F0A
100
AcDbEntity
  8
ALL
100
AcDbCircle
 10
2386.588001654591
 20
-864.2256028869948
 30
0.0
 40
333.9060921652101
100
AcDbArc
 50
301.6029205324617
 51
302.5639001554742
  0
ARC
  5
1BCD
330
1F0A
100
AcDbEntity
  8
ALL
100
AcDbCircle
 10
2434.723072602768
 20
-939.596899402805
 30
0.0
 40
244.4755750378878
100
AcDbArc
 50
302.5639001554714
 51
303.6869795890482
  0
ARC
  5
1BCE
330
1F0A
100
AcDbEntity
  8
ALL
100
AcDbCircle
 10
2459.228098551589
 20
-976.3587309162909
 30
0.0
 40
200.2949395402143
100
AcDbArc
 50
303.6869795890597
 51
306.9579646817639
  0
ARC
  5
1BCF
330
1F0A
100
AcDbEntity
  8
ALL
100
AcDbCircle
 10
2499.151058921318
 20
-1029.419237741836
 30
0.0
 40
133.8926794185383
100
AcDbArc
 50
306.9579646817573
 51
310.9589264359149
  0
ARC
  5
1BD0
330
1F0A
100
AcDbEntity
  8
ALL
100
AcDbCircle
 10
2512.206814169968
 20
-1044.459928888321
 30
0.0
 40
113.9759744883399
100
AcDbArc
 50
310.9589264359167
 51
316.5353825150297
  0
ARC
  5
1BD1
330
1F0A
100
AcDbEntity
  8
ALL
100
AcDbCircle
 10
2531.797785333473
 20
-1063.02808670894
 30
0.0
 40
86.98370455821508
100
AcDbArc
 50
316.5353825150297
 51
322.919476174516
  0
ARC
  5
1BD2
330
1F0A
100
AcDbEntity
  8
ALL
100
AcDbCircle
 10
2538.267511994006
 20
-1067.91764632299
 30
0.0
 40
78.87413266560807
100
AcDbArc
 50
322.9194761745153
 51
330.6664159910582
  0
ARC
  5
1BD3
330
1F0A
100
AcDbEntity
  8
ALL
100
AcDbCircle
 10
2545.137528311813
 20
-1071.77821641706
 30
0.0
 40
70.99370592220367
100
AcDbArc
 50
330.6664159910594
 51
338.8326975994049
  0
ARC
  5
1BD4
330
1F0A
100
AcDbEntity
  8
ALL
100
AcDbCircle
 10
2971.349027817396
 20
-1108.111123740331
 30
0.0
 40
162.4148035296153
100
AcDbArc
 50
158.1346653173634
 51
160.3196869103102
1001
QCAD
1000
reversed:1
  0
ARC
  5
1BD5
330
1F0A
100
AcDbEntity
  8
ALL
100
AcDbCircle
 10
2922.399685961942
 20
-1088.468007568699
 30
0.0
 40
109.6711775543917
100
AcDbArc
 50
155.4755636359154
 51
158.1346653173618
1001
QCAD
1000
reversed:1
  0
ARC
  5
1BD6
330
1F0A
100
AcDbEntity
  8
ALL
100
AcDbCircle
 10
2907.781769571517
 20
-1081.798708521391
 30
0.0
 40
93.60372506870219
100
AcDbArc
 50
151.7599009255951
 51
155.4755636359235
1001
QCAD
1000
reversed:1
  0
ARC
  5
1BD7
330
1F0A
100
AcDbEntity
  8
ALL
100
AcDbCircle
 10
2886.140683591161
 20
-1070.175352472434
 30
0.0
 40
69.03872948046777
100
AcDbArc
 50
147.4331335290537
 51
151.7599009255946
1001
QCAD
1000
reversed:1
  0
ARC
  5
1BD8
330
1F0A
100
AcDbEntity
  8
ALL
100
AcDbCircle
 10
2878.386971588329
 20
-1065.222962210693
 30
0.0
 40
59.8383914906193
100
AcDbArc
 50
141.6798362575412
 51
147.4331335290562
1001
QCAD
1000
reversed:1
  0
ARC
  5
1BD9
330
1F0A
100
AcDbEntity
  8
ALL
100
AcDbCircle
 10
2867.603774042051
 20
-1056.70074246995
 30
0.0
 40
46.09409890672963
100
AcDbArc
 50
135.1238417641964
 51
141.6798362575415
1001
QCAD
1000
reversed:1
  0
ARC
  5
1BDA
330
1F0A
100
AcDbEntity
  8
ALL
100
AcDbCircle
 10
2864.180455648441
 20
-1053.292190821191
 30
0.0
 40
41.2632259870299
100
AcDbArc
 50
127.0025561328077
 51
135.1238417641851
1001
QCAD
1000
reversed:1
  0
ARC
  5
1BDB
330
1F0A
100
AcDbEntity
  8
ALL
100
AcDbCircle
 10
2860.772339249556
 20
-1048.769887384207
 30
0.0
 40
35.60049821991053
100
AcDbArc
 50
118.2580296147053
 51
127.0025561328122
1001
QCAD
1000
reversed:1
  0
ARC
  5
1BE4
330
1F0A
100
AcDbEntity
  8
ALL
100
AcDbCircle
 10
2705.932035476888
 20
-581.9173802839849
 30
0.0
 40
171.2878562055316
100
AcDbArc
 50
126.3797752295435
 51
148.4135607604584
1001
QCAD
1000
reversed:1
  0
VIEWPORT
  5
1FCB
330
1F06
100
AcDbEntity
 67
     1
  8
0
 62
   178
420
        0
100
AcDbViewport
 10
128.5
 20
97.5
 30
0.0
 40
314.226
 41
222.18
 68
     1
 69
     1
 12
128.5
 22
97.5
 13
0.0
 23
0.0
 14
10.0
 24
10.0
 15
10.0
 25
10.0
 16
0.0
 26
0.0
 36
1.0
 17
0.0
 27
0.0
 37
0.0
 42
50.0
 43
0.0
 44
0.0
 45
222.18
 50
0.0
 51
0.0
 72
   100
 90
   557152
  1

281
     0
 71
     1
 74
     0
110
0.0
120
0.0
130
0.0
111
1.0
121
0.0
131
0.0
112
0.0
122
1.0
132
0.0
 79
     0
146
0.0
170
     0
 61
     5
348
1F1A
292
     1
282
     1
141
0.0
142
0.0
 63
   256
361
1FCC
  0
ENDSEC
  0
SECTION
  2
OBJECTS
  0
DICTIONARY
  5
1EF8
330
0
100
AcDbDictionary
281
     1
  3
ACAD_DETAILVIEWSTYLE
350
1FD4
  3
ACAD_GROUP
350
1EF9
  3
ACAD_LAYOUT
350
1F05
  3
ACAD_MATERIAL
350
1F2E
  3
ACAD_MLEADERSTYLE
350
1F56
  3
ACAD_MLINESTYLE
350
1F02
  3
ACAD_PLOTSETTINGS
350
1F04
  3
ACAD_PLOTSTYLENAME
350
1EFA
  3
ACAD_SCALELIST
350
1F32
  3
ACAD_SECTIONVIEWSTYLE
350
1FD5
  3
ACAD_TABLESTYLE
350
1F54
  3
ACAD_VISUALSTYLE
350
1F15
  3
ACDB_RECOMPOSE_DATA
350
1FD1
  3
AcDbVariableDictionary
350
1FCD
  3
QCAD_OBJECTS
350
1F5A
  0
SUN
  5
1F58
330
1F14
100
AcDbSun
 90
        1
290
     0
 63
     7
421
 16777215
 40
1.0
291
     1
 91
  2455826
 92
 54000000
292
     0
 70
     2
 71
   256
280
     1
  0
SUN
  5
1FCC
330
1FCB
100
AcDbSun
 90
        1
290
     0
 63
     7
421
 16777215
 40
1.0
291
     1
 91
  2455826
 92
 54000000
292
     0
 70
     2
 71
   256
280
     1
  0
DICTIONARY
  5
1FD4
102
{ACAD_REACTORS
330
1EF8
102
}
330
1EF8
100
AcDbDictionary
281
     1
  0
DICTIONARY
  5
1EF9
102
{ACAD_REACTORS
330
1EF8
102
}
330
1EF8
100
AcDbDictionary
281
     1
  0
DICTIONARY
  5
1F05
102
{ACAD_REACTORS
330
1EF8
102
}
330
1EF8
100
AcDbDictionary
281
     1
  3
Layout1
350
1F09
  3
Model
350
1F0D
  0
DICTIONARY
  5
1F2E
102
{ACAD_REACTORS
330
1EF8
102
}
330
1EF8
100
AcDbDictionary
281
     1
  3
ByBlock
350
1F30
  3
ByLayer
350
1F2F
  3
Global
350
1F31
  0
DICTIONARY
  5
1F56
102
{ACAD_REACTORS
330
1EF8
102
}
330
1EF8
100
AcDbDictionary
281
     1
  3
Standard
350
1F57
  0
DICTIONARY
  5
1F02
102
{ACAD_REACTORS
330
1EF8
102
}
330
1EF8
100
AcDbDictionary
281
     1
  3
Standard
350
1F03
  0
DICTIONARY
  5
1F04
102
{ACAD_REACTORS
330
1EF8
102
}
330
1EF8
100
AcDbDictionary
281
     1
  0
ACDBDICTIONARYWDFLT
  5
1EFA
102
{ACAD_REACTORS
330
1EF8
102
}
330
1EF8
100
AcDbDictionary
281
     1
  3
Normal
350
1EFB
100
AcDbDictionaryWithDefault
340
1EFB
  0
DICTIONARY
  5
1F32
102
{ACAD_REACTORS
330
1EF8
102
}
330
1EF8
100
AcDbDictionary
281
     1
  3
A0
350
1F33
  3
A1
350
1F34
  3
A2
350
1F35
  3
A3
350
1F36
  3
A4
350
1F37
  3
A5
350
1F38
  3
A6
350
1F39
  3
A7
350
1F3A
  3
A8
350
1F3B
  3
A9
350
1F3C
  3
B0
350
1F3D
  3
B1
350
1F3E
  3
B2
350
1F3F
  3
B3
350
1F40
  3
B4
350
1F41
  3
B5
350
1F42
  3
B6
350
1F43
  3
B7
350
1F44
  3
B8
350
1F45
  3
B9
350
1F46
  3
C0
350
1F47
  3
C1
350
1F48
  3
C2
350
1F49
  3
C3
350
1F4A
  3
C4
350
1F4B
  3
C5
350
1F4C
  3
C6
350
1F4D
  3
C7
350
1F4E
  3
C8
350
1F4F
  3
C9
350
1F50
  3
D0
350
1F51
  3
D1
350
1F52
  3
D2
350
1F53
  0
DICTIONARY
  5
1FD5
102
{ACAD_REACTORS
330
1EF8
102
}
330
1EF8
100
AcDbDictionary
281
     1
  0
DICTIONARY
  5
1F54
102
{ACAD_REACTORS
330
1EF8
102
}
330
1EF8
100
AcDbDictionary
281
     1
  3
Standard
350
1F55
  0
DICTIONARY
  5
1F15
102
{ACAD_REACTORS
330
1EF8
102
}
330
1EF8
100
AcDbDictionary
281
     1
  3
2dWireframe
350
1F1A
  3
Basic
350
1F1D
  3
Brighten
350
1F21
  3
ColorChange
350
1F25
  3
Conceptual
350
1F1F
  3
Dim
350
1F20
  3
EdgeColorOff
350
1F28
  3
Facepattern
350
1F24
  3
Flat
350
1F16
  3
FlatWithEdges
350
1F17
  3
Gouraud
350
1F18
  3
GouraudWithEdges
350
1F19
  3
Hidden
350
1F1C
  3
JitterOff
350
1F26
  3
Linepattern
350
1F23
  3
OverhangOff
350
1F27
  3
Realistic
350
1F1E
  3
Shaded
350
1F2D
  3
Shaded with edges
350
1F2C
  3
Shades of Gray
350
1F29
  3
Sketchy
350
1F2A
  3
Thicken
350
1F22
  3
Wireframe
350
1F1B
  3
X-Ray
350
1F2B
  0
XRECORD
  5
1FD1
102
{ACAD_REACTORS
330
1EF8
102
}
330
1EF8
100
AcDbXrecord
280
     1
 90
        1
330
1F55
  0
DICTIONARY
  5
1FCD
102
{ACAD_REACTORS
330
1EF8
102
}
330
1EF8
100
AcDbDictionary
281
     1
  3
CANNOSCALE
350
1FCE
  3
CMLEADERSTYLE
350
1FD3
  3
CTABLESTYLE
350
1FD2
  0
DICTIONARY
  5
1F5A
102
{ACAD_REACTORS
330
1EF8
102
}
330
1EF8
100
AcDbDictionary
281
     1
  3
ColorSettings/BackgroundColor
350
1F5C
  3
ColorSettings/ColorMode
350
1F5D
  3
Grid/DisplayGrid00
350
1F5E
  3
Grid/DisplayGrid01
350
1F5F
  3
Grid/DisplayGrid02
350
1F60
  3
Grid/DisplayGrid03
350
1F61
  3
Grid/GridSpacingX00
350
1F62
  3
Grid/GridSpacingX01
350
1F63
  3
Grid/GridSpacingX02
350
1F64
  3
Grid/GridSpacingX03
350
1F65
  3
Grid/GridSpacingY00
350
1F66
  3
Grid/GridSpacingY01
350
1F67
  3
Grid/GridSpacingY02
350
1F68
  3
Grid/GridSpacingY03
350
1F69
  3
Grid/IsometricGrid00
350
1F6A
  3
Grid/IsometricGrid01
350
1F6B
  3
Grid/IsometricGrid02
350
1F6C
  3
Grid/IsometricGrid03
350
1F6D
  3
Grid/IsometricProjection00
350
1F6E
  3
Grid/IsometricProjection01
350
1F6F
  3
Grid/IsometricProjection02
350
1F70
  3
Grid/IsometricProjection03
350
1F71
  3
Grid/MetaGridSpacingX00
350
1F72
  3
Grid/MetaGridSpacingX01
350
1F73
  3
Grid/MetaGridSpacingX02
350
1F74
  3
Grid/MetaGridSpacingX03
350
1F75
  3
Grid/MetaGridSpacingY00
350
1F76
  3
Grid/MetaGridSpacingY01
350
1F77
  3
Grid/MetaGridSpacingY02
350
1F78
  3
Grid/MetaGridSpacingY03
350
1F79
  3
MultiPageSettings/Columns
350
1F7A
  3
MultiPageSettings/GlueMarginsBottom
350
1F7B
  3
MultiPageSettings/GlueMarginsLeft
350
1F7C
  3
MultiPageSettings/GlueMarginsRight
350
1F7D
  3
MultiPageSettings/GlueMarginsTop
350
1F7E
  3
MultiPageSettings/PrintCropMarks
350
1F7F
  3
MultiPageSettings/Rows
350
1F80
  3
PageSettings/OffsetX
350
1F81
  3
PageSettings/OffsetY
350
1F82
  3
PageSettings/PageOrientation
350
1F83
  3
PageSettings/PaperHeight
350
1F84
  3
PageSettings/PaperSizeName
350
1F85
  3
PageSettings/PaperWidth
350
1F86
  3
PageSettings/Scale
350
1F87
  3
PageSettings/ShowPaperBorders
350
1F88
  3
QCADVersion
350
1F89
  3
UnitSettings/PaperUnit
350
1F8A
  3
ViewportCenter
350
1F8B
  3
ViewportHeight
350
1F8C
  3
ViewportWidth
350
1F8D
  0
LAYOUT
  5
1F09
102
{ACAD_REACTORS
330
1F05
102
}
330
1F05
100
AcDbPlotSettings
  1

  2
none_device
  4
ISO_A4_(210.00_x_297.00_MM)
  6

 40
7.5
 41
20.0
 42
7.5
 43
20.0
 44
210.0
 45
297.0
 46
0.0
 47
0.0
 48
0.0
 49
0.0
140
0.0
141
0.0
142
1.0
143
1.0
 70
   688
 72
     1
 73
     1
 74
     5
  7

 75
    16
 76
     0
 77
     2
 78
   300
147
1.0
148
0.0
149
0.0
100
AcDbLayout
  1
Layout1
 70
     1
 71
     0
 10
-20.0
 20
-7.5
 11
277.0
 21
202.5
 12
0.0
 22
0.0
 32
0.0
 14
0.0
 24
0.0
 34
0.0
 15
0.0
 25
0.0
 35
0.0
146
0.0
 13
0.0
 23
0.0
 33
0.0
 16
1.0
 26
0.0
 36
0.0
 17
0.0
 27
1.0
 37
0.0
 76
     0
330
1F06
331
1FCB
  0
LAYOUT
  5
1F0D
102
{ACAD_REACTORS
330
1F05
102
}
330
1F05
100
AcDbPlotSettings
  1

  2
none_device
  4
Letter_(8.50_x_11.00_Inches)
  6

 40
6.35
 41
6.35
 42
6.35000508
 43
6.35000508
 44
215.9
 45
279.4
 46
0.0
 47
0.0
 48
0.0
 49
0.0
140
0.0
141
0.0
142
1.0
143
1.0
 70
  1712
 72
     0
 73
     0
 74
     0
  7

 75
     0
 76
     0
 77
     2
 78
   300
147
1.0
148
0.0
149
0.0
100
AcDbLayout
  1
Model
 70
     1
 71
     0
 10
0.0
 20
0.0
 11
12.0
 21
9.0
 12
0.0
 22
0.0
 32
0.0
 14
1.000000000000000E+20
 24
1.000000000000000E+20
 34
1.000000000000000E+20
 15
-1.000000000000000E+20
 25
-1.000000000000000E+20
 35
-1.000000000000000E+20
146
0.0
 13
0.0
 23
0.0
 33
0.0
 16
1.0
 26
0.0
 36
0.0
 17
0.0
 27
1.0
 37
0.0
 76
     0
330
1F0A
331
1F14
  0
MATERIAL
  5
1F30
102
{ACAD_REACTORS
330
1F2E
102
}
330
1F2E
100
AcDbMaterial
  1
ByBlock
 72
     1
 94
      127
  0
MATERIAL
  5
1F2F
102
{ACAD_REACTORS
330
1F2E
102
}
330
1F2E
100
AcDbMaterial
  1
ByLayer
 72
     1
 94
      127
  0
MATERIAL
  5
1F31
102
{ACAD_REACTORS
330
1F2E
102
}
330
1F2E
100
AcDbMaterial
  1
Global
 72
     1
 94
      127
  0
MLEADERSTYLE
  5
1F57
102
{ACAD_REACTORS
330
1F56
102
}
330
1F56
100
AcDbMLeaderStyle
179
     2
170
     2
171
     1
172
     0
 90
        2
 40
0.0
 41
0.0
173
     1
 91
-1056964608
340
1EFF
 92
       -2
290
     1
 42
0.09
291
     1
 43
0.36
  3
Standard
341
0
 44
0.18
300

342
1EFD
174
     1
178
     6
175
     1
176
     0
 93
-1056964608
 45
0.18
292
     0
297
     0
 46
0.18
343
0
 94
-1056964608
 47
1.0
 49
1.0
140
1.0
293
     1
141
0.0
294
     1
177
     0
142
1.0
295
     0
296
     0
143
0.125
271
     0
272
     9
273
     9
298
     0
  0
MLINESTYLE
  5
1F03
102
{ACAD_REACTORS
330
1F02
102
}
330
1F02
100
AcDbMlineStyle
  2
Standard
 70
     0
  3

 62
   256
 51
90.0
 52
90.0
 71
     2
 49
0.5
 62
   256
  6
BYLAYER
 49
-0.5
 62
   256
  6
BYLAYER
  0
ACDBPLACEHOLDER
  5
1EFB
102
{ACAD_REACTORS
330
1EFA
102
}
330
1EFA
  0
SCALE
  5
1F33
102
{ACAD_REACTORS
330
1F32
102
}
330
1F32
100
AcDbScale
 70
     0
300
1:1
140
1.0
141
1.0
290
     1
  0
SCALE
  5
1F34
102
{ACAD_REACTORS
330
1F32
102
}
330
1F32
100
AcDbScale
 70
     0
300
1:2
140
1.0
141
2.0
290
     0
  0
SCALE
  5
1F35
102
{ACAD_REACTORS
330
1F32
102
}
330
1F32
100
AcDbScale
 70
     0
300
1:4
140
1.0
141
4.0
290
     0
  0
SCALE
  5
1F36
102
{ACAD_REACTORS
330
1F32
102
}
330
1F32
100
AcDbScale
 70
     0
300
1:5
140
1.0
141
5.0
290
     0
  0
SCALE
  5
1F37
102
{ACAD_REACTORS
330
1F32
102
}
330
1F32
100
AcDbScale
 70
     0
300
1:8
140
1.0
141
8.0
290
     0
  0
SCALE
  5
1F38
102
{ACAD_REACTORS
330
1F32
102
}
330
1F32
100
AcDbScale
 70
     0
300
1:10
140
1.0
141
10.0
290
     0
  0
SCALE
  5
1F39
102
{ACAD_REACTORS
330
1F32
102
}
330
1F32
100
AcDbScale
 70
     0
300
1:16
140
1.0
141
16.0
290
     0
  0
SCALE
  5
1F3A
102
{ACAD_REACTORS
330
1F32
102
}
330
1F32
100
AcDbScale
 70
     0
300
1:20
140
1.0
141
20.0
290
     0
  0
SCALE
  5
1F3B
102
{ACAD_REACTORS
330
1F32
102
}
330
1F32
100
AcDbScale
 70
     0
300
1:30
140
1.0
141
30.0
290
     0
  0
SCALE
  5
1F3C
102
{ACAD_REACTORS
330
1F32
102
}
330
1F32
100
AcDbScale
 70
     0
300
1:40
140
1.0
141
40.0
290
     0
  0
SCALE
  5
1F3D
102
{ACAD_REACTORS
330
1F32
102
}
330
1F32
100
AcDbScale
 70
     0
300
1:50
140
1.0
141
50.0
290
     0
  0
SCALE
  5
1F3E
102
{ACAD_REACTORS
330
1F32
102
}
330
1F32
100
AcDbScale
 70
     0
300
1:100
140
1.0
141
100.0
290
     0
  0
SCALE
  5
1F3F
102
{ACAD_REACTORS
330
1F32
102
}
330
1F32
100
AcDbScale
 70
     0
300
2:1
140
2.0
141
1.0
290
     0
  0
SCALE
  5
1F40
102
{ACAD_REACTORS
330
1F32
102
}
330
1F32
100
AcDbScale
 70
     0
300
4:1
140
4.0
141
1.0
290
     0
  0
SCALE
  5
1F41
102
{ACAD_REACTORS
330
1F32
102
}
330
1F32
100
AcDbScale
 70
     0
300
8:1
140
8.0
141
1.0
290
     0
  0
SCALE
  5
1F42
102
{ACAD_REACTORS
330
1F32
102
}
330
1F32
100
AcDbScale
 70
     0
300
10:1
140
10.0
141
1.0
290
     0
  0
SCALE
  5
1F43
102
{ACAD_REACTORS
330
1F32
102
}
330
1F32
100
AcDbScale
 70
     0
300
100:1
140
100.0
141
1.0
290
     0
  0
SCALE
  5
1F44
102
{ACAD_REACTORS
330
1F32
102
}
330
1F32
100
AcDbScale
 70
     0
300
1/128" = 1'-0"
140
0.0078125
141
12.0
290
     0
  0
SCALE
  5
1F45
102
{ACAD_REACTORS
330
1F32
102
}
330
1F32
100
AcDbScale
 70
     0
300
1/64" = 1'-0"
140
0.015625
141
12.0
290
     0
  0
SCALE
  5
1F46
102
{ACAD_REACTORS
330
1F32
102
}
330
1F32
100
AcDbScale
 70
     0
300
1/32" = 1'-0"
140
0.03125
141
12.0
290
     0
  0
SCALE
  5
1F47
102
{ACAD_REACTORS
330
1F32
102
}
330
1F32
100
AcDbScale
 70
     0
300
1/16" = 1'-0"
140
0.0625
141
12.0
290
     0
  0
SCALE
  5
1F48
102
{ACAD_REACTORS
330
1F32
102
}
330
1F32
100
AcDbScale
 70
     0
300
3/32" = 1'-0"
140
0.09375
141
12.0
290
     0
  0
SCALE
  5
1F49
102
{ACAD_REACTORS
330
1F32
102
}
330
1F32
100
AcDbScale
 70
     0
300
1/8" = 1'-0"
140
0.125
141
12.0
290
     0
  0
SCALE
  5
1F4A
102
{ACAD_REACTORS
330
1F32
102
}
330
1F32
100
AcDbScale
 70
     0
300
3/16" = 1'-0"
140
0.1875
141
12.0
290
     0
  0
SCALE
  5
1F4B
102
{ACAD_REACTORS
330
1F32
102
}
330
1F32
100
AcDbScale
 70
     0
300
1/4" = 1'-0"
140
0.25
141
12.0
290
     0
  0
SCALE
  5
1F4C
102
{ACAD_REACTORS
330
1F32
102
}
330
1F32
100
AcDbScale
 70
     0
300
3/8" = 1'-0"
140
0.375
141
12.0
290
     0
  0
SCALE
  5
1F4D
102
{ACAD_REACTORS
330
1F32
102
}
330
1F32
100
AcDbScale
 70
     0
300
1/2" = 1'-0"
140
0.5
141
12.0
290
     0
  0
SCALE
  5
1F4E
102
{ACAD_REACTORS
330
1F32
102
}
330
1F32
100
AcDbScale
 70
     0
300
3/4" = 1'-0"
140
0.75
141
12.0
290
     0
  0
SCALE
  5
1F4F
102
{ACAD_REACTORS
330
1F32
102
}
330
1F32
100
AcDbScale
 70
     0
300
1" = 1'-0"
140
1.0
141
12.0
290
     0
  0
SCALE
  5
1F50
102
{ACAD_REACTORS
330
1F32
102
}
330
1F32
100
AcDbScale
 70
     0
300
1-1/2" = 1'-0"
140
1.5
141
12.0
290
     0
  0
SCALE
  5
1F51
102
{ACAD_REACTORS
330
1F32
102
}
330
1F32
100
AcDbScale
 70
     0
300
3" = 1'-0"
140
3.0
141
12.0
290
     0
  0
SCALE
  5
1F52
102
{ACAD_REACTORS
330
1F32
102
}
330
1F32
100
AcDbScale
 70
     0
300
6" = 1'-0"
140
6.0
141
12.0
290
     0
  0
SCALE
  5
1F53
102
{ACAD_REACTORS
330
1F32
102
}
330
1F32
100
AcDbScale
 70
     0
300
1'-0" = 1'-0"
140
12.0
141
12.0
290
     0
  0
TABLESTYLE
  5
1F55
102
{ACAD_REACTORS
330
1F54
102
}
102
{ACAD_XDICTIONARY
360
1FCF
102
}
330
1F54
100
AcDbTableStyle
  3
Standard
 70
     0
 71
     0
 40
0.06
 41
0.06
280
     0
281
     0
  7
Standard
140
0.18
170
     2
 62
     0
 63
   257
283
     0
 90
        4
 91
        0
  1

274
    -2
284
     1
 64
     0
275
    -2
285
     1
 65
     0
276
    -2
286
     1
 66
     0
277
    -2
287
     1
 67
     0
278
    -2
288
     1
 68
     0
279
    -2
289
     1
 69
     0
  7
Standard
140
0.25
170
     5
 62
     0
 63
   257
283
     0
 90
        4
 91
        0
  1

274
    -2
284
     1
 64
     0
275
    -2
285
     1
 65
     0
276
    -2
286
     1
 66
     0
277
    -2
287
     1
 67
     0
278
    -2
288
     1
 68
     0
279
    -2
289
     1
 69
     0
  7
Standard
140
0.18
170
     5
 62
     0
 63
   257
283
     0
 90
        4
 91
        0
  1

274
    -2
284
     1
 64
     0
275
    -2
285
     1
 65
     0
276
    -2
286
     1
 66
     0
277
    -2
287
     1
 67
     0
278
    -2
288
     1
 68
     0
279
    -2
289
     1
 69
     0
  0
VISUALSTYLE
  5
1F1A
102
{ACAD_REACTORS
330
1F15
102
}
330
1F15
100
AcDbVisualStyle
  2
2dWireframe
 70
     4
177
     3
291
     0
 70
    58
 90
        0
176
     1
 90
        2
176
     1
 90
        0
176
     1
 90
        0
176
     1
 40
0.6
176
     1
 40
30.0
176
     1
 62
     7
420
 16777215
176
     1
 90
        1
176
     1
 90
        4
176
     1
 62
     7
176
     1
 62
   257
176
     1
 90
        1
176
     1
 90
        1
176
     1
 40
1.0
176
     1
 90
        0
176
     1
 62
   257
176
     1
 40
1.0
176
     1
 90
        1
176
     1
 90
        6
176
     1
 90
        2
176
     1
 62
     7
176
     1
 90
        5
176
     1
 90
        0
176
     1
 90
        0
176
     1
290
     0
176
     1
 90
        1
176
     1
 40
0.0
176
     1
 90
        0
176
     1
290
     1
176
     1
290
     1
176
     1
290
     0
176
     1
290
     0
176
     1
290
     0
176
     1
290
     0
176
     1
290
     0
176
     1
290
     0
176
     1
290
     0
176
     1
 90
       50
176
     1
 40
0.0
176
     1
 40
1.0
176
     1
 90
        0
176
     1
 62
   178
420
        0
176
     1
 90
       50
176
     1
 90
        3
176
     1
 62
     5
420
      255
176
     1
290
     0
176
     1
 90
       50
176
     1
 90
       50
176
     1
 90
       50
176
     1
290
     0
176
     1
 90
       50
176
     1
 62
   256
176
     0
 40
1.0
176
     0
 90
        2
176
     1
  1
strokes_ogs.tif
176
     1
290
     0
176
     1
 40
1.0
176
     1
 40
1.0
176
     1
  0
VISUALSTYLE
  5
1F1D
102
{ACAD_REACTORS
330
1F15
102
}
330
1F15
100
AcDbVisualStyle
  2
Basic
 70
     7
177
     3
291
     1
 70
    58
 90
        1
176
     1
 90
        0
176
     1
 90
        1
176
     1
 90
        0
176
     1
 40
0.6
176
     1
 40
30.0
176
     1
 62
     7
420
 16777215
176
     1
 90
        0
176
     1
 90
        4
176
     1
 62
     7
176
     1
 62
   257
176
     1
 90
        1
176
     1
 90
        1
176
     1
 40
1.0
176
     1
 90
        8
176
     1
 62
     7
176
     1
 40
1.0
176
     1
 90
        1
176
     1
 90
        6
176
     1
 90
        2
176
     1
 62
     7
176
     1
 90
        5
176
     1
 90
        0
176
     1
 90
        0
176
     1
290
     0
176
     1
 90
        1
176
     1
 40
0.0
176
     1
 90
        0
176
     1
290
     0
176
     1
290
     1
176
     1
290
     1
176
     1
290
     0
176
     1
290
     0
176
     1
290
     0
176
     1
290
     0
176
     1
290
     0
176
     1
290
     0
176
     1
 90
       50
176
     1
 40
0.0
176
     1
 40
1.0
176
     1
 90
        0
176
     1
 62
   178
420
        0
176
     1
 90
       50
176
     1
 90
        3
176
     1
 62
     5
420
      255
176
     1
290
     0
176
     1
 90
       50
176
     1
 90
       50
176
     1
 90
       50
176
     1
290
     0
176
     1
 90
       50
176
     1
 62
   256
176
     0
 40
1.0
176
     0
 90
        2
176
     1
  1
strokes_ogs.tif
176
     1
290
     0
176
     1
 40
1.0
176
     1
 40
1.0
176
     1
  0
VISUALSTYLE
  5
1F21
102
{ACAD_REACTORS
330
1F15
102
}
330
1F15
100
AcDbVisualStyle
  2
Brighten
 70
    12
177
     3
291
     1
 70
    58
 90
        2
176
     1
 90
        2
176
     1
 90
        0
176
     1
 90
        0
176
     1
 40
0.6
176
     1
 40
30.0
176
     1
 62
     7
420
 16777215
176
     1
 90
        1
176
     1
 90
        4
176
     1
 62
     7
176
     1
 62
   257
176
     1
 90
        1
176
     1
 90
        1
176
     1
 40
1.0
176
     1
 90
        8
176
     1
 62
     7
176
     1
 40
1.0
176
     1
 90
        1
176
     1
 90
        6
176
     1
 90
        2
176
     1
 62
     7
176
     1
 90
        5
176
     1
 90
        0
176
     1
 90
        0
176
     1
290
     0
176
     1
 90
        1
176
     1
 40
50.0
176
     1
 90
        0
176
     1
290
     0
176
     1
290
     1
176
     1
290
     1
176
     1
290
     0
176
     1
290
     0
176
     1
290
     0
176
     1
290
     0
176
     1
290
     0
176
     1
290
     0
176
     1
 90
       50
176
     1
 40
0.0
176
     1
 40
1.0
176
     1
 90
        0
176
     1
 62
   178
420
        0
176
     1
 90
       50
176
     1
 90
        3
176
     1
 62
     5
420
      255
176
     1
290
     0
176
     1
 90
       50
176
     1
 90
       50
176
     1
 90
       50
176
     1
290
     0
176
     1
 90
       50
176
     1
 62
   256
176
     0
 40
1.0
176
     0
 90
        2
176
     1
  1
strokes_ogs.tif
176
     1
290
     0
176
     1
 40
1.0
176
     1
 40
1.0
176
     1
  0
VISUALSTYLE
  5
1F25
102
{ACAD_REACTORS
330
1F15
102
}
330
1F15
100
AcDbVisualStyle
  2
ColorChange
 70
    16
177
     3
291
     1
 70
    58
 90
        2
176
     1
 90
        2
176
     1
 90
        3
176
     1
 90
        0
176
     1
 40
0.6
176
     1
 40
30.0
176
     1
 62
     8
420
  8421504
176
     1
 90
        1
176
     1
 90
        4
176
     1
 62
     7
176
     1
 62
   257
176
     1
 90
        1
176
     1
 90
        1
176
     1
 40
1.0
176
     1
 90
        8
176
     1
 62
     8
420
  8421504
176
     1
 40
1.0
176
     1
 90
        1
176
     1
 90
        6
176
     1
 90
        2
176
     1
 62
     7
176
     1
 90
        5
176
     1
 90
        0
176
     1
 90
        0
176
     1
290
     0
176
     1
 90
        1
176
     1
 40
0.0
176
     1
 90
        0
176
     1
290
     0
176
     1
290
     1
176
     1
290
     1
176
     1
290
     0
176
     1
290
     0
176
     1
290
     0
176
     1
290
     0
176
     1
290
     0
176
     1
290
     0
176
     1
 90
       50
176
     1
 40
0.0
176
     1
 40
1.0
176
     1
 90
        0
176
     1
 62
   178
420
        0
176
     1
 90
       50
176
     1
 90
        3
176
     1
 62
     5
420
      255
176
     1
290
     0
176
     1
 90
       50
176
     1
 90
       50
176
     1
 90
       50
176
     1
290
     0
176
     1
 90
       50
176
     1
 62
   256
176
     0
 40
1.0
176
     0
 90
        2
176
     1
  1
strokes_ogs.tif
176
     1
290
     0
176
     1
 40
1.0
176
     1
 40
1.0
176
     1
  0
VISUALSTYLE
  5
1F1F
102
{ACAD_REACTORS
330
1F15
102
}
330
1F15
100
AcDbVisualStyle
  2
Conceptual
 70
     9
177
     3
291
     0
 70
    58
 90
        3
176
     1
 90
        2
176
     1
 90
        0
176
     1
 90
        0
176
     1
 40
0.6
176
     1
 40
30.0
176
     1
 62
     7
420
 16777215
176
     1
 90
        2
176
     1
 90
        2
176
     1
 62
     7
176
     1
 62
   257
176
     1
 90
        1
176
     1
 90
        1
176
     1
 40
179.0
176
     1
 90
        8
176
     1
 62
     7
176
     1
 40
1.0
176
     1
 90
        1
176
     1
 90
        6
176
     1
 90
        2
176
     1
 62
     7
176
     1
 90
        3
176
     1
 90
        0
176
     1
 90
        0
176
     1
290
     0
176
     1
 90
        1
176
     1
 40
0.0
176
     1
 90
        0
176
     1
290
     0
176
     1
290
     1
176
     1
290
     1
176
     1
290
     0
176
     1
290
     0
176
     1
290
     0
176
     1
290
     0
176
     1
290
     0
176
     1
290
     0
176
     1
 90
       50
176
     1
 40
0.0
176
     1
 40
1.0
176
     1
 90
        0
176
     1
 62
   178
420
        0
176
     1
 90
       50
176
     1
 90
        3
176
     1
 62
     5
420
      255
176
     1
290
     0
176
     1
 90
       50
176
     1
 90
       50
176
     1
 90
       50
176
     1
290
     0
176
     1
 90
       50
176
     1
 62
   256
176
     0
 40
1.0
176
     0
 90
        2
176
     1
  1
strokes_ogs.tif
176
     1
290
     0
176
     1
 40
1.0
176
     1
 40
1.0
176
     1
  0
VISUALSTYLE
  5
1F20
102
{ACAD_REACTORS
330
1F15
102
}
330
1F15
100
AcDbVisualStyle
  2
Dim
 70
    11
177
     3
291
     1
 70
    58
 90
        2
176
     1
 90
        2
176
     1
 90
        0
176
     1
 90
        0
176
     1
 40
0.6
176
     1
 40
30.0
176
     1
 62
     7
420
 16777215
176
     1
 90
        1
176
     1
 90
        4
176
     1
 62
     7
176
     1
 62
   257
176
     1
 90
        1
176
     1
 90
        1
176
     1
 40
1.0
176
     1
 90
        8
176
     1
 62
     7
176
     1
 40
1.0
176
     1
 90
        1
176
     1
 90
        6
176
     1
 90
        2
176
     1
 62
     7
176
     1
 90
        5
176
     1
 90
        0
176
     1
 90
        0
176
     1
290
     0
176
     1
 90
        1
176
     1
 40
-50.0
176
     1
 90
        0
176
     1
290
     0
176
     1
290
     1
176
     1
290
     1
176
     1
290
     0
176
     1
290
     0
176
     1
290
     0
176
     1
290
     0
176
     1
290
     0
176
     1
290
     0
176
     1
 90
       50
176
     1
 40
0.0
176
     1
 40
1.0
176
     1
 90
        0
176
     1
 62
   178
420
        0
176
     1
 90
       50
176
     1
 90
        3
176
     1
 62
     5
420
      255
176
     1
290
     0
176
     1
 90
       50
176
     1
 90
       50
176
     1
 90
       50
176
     1
290
     0
176
     1
 90
       50
176
     1
 62
   256
176
     0
 40
1.0
176
     0
 90
        2
176
     1
  1
strokes_ogs.tif
176
     1
290
     0
176
     1
 40
1.0
176
     1
 40
1.0
176
     1
  0
VISUALSTYLE
  5
1F28
102
{ACAD_REACTORS
330
1F15
102
}
330
1F15
100
AcDbVisualStyle
  2
EdgeColorOff
 70
    22
177
     3
291
     1
 70
    58
 90
        2
176
     0
 90
        2
176
     0
 90
        0
176
     0
 90
        0
176
     0
 40
0.6
176
     0
 40
30.0
176
     0
 62
     7
420
 16777215
176
     0
 90
        1
176
     0
 90
        4
176
     0
 62
     7
176
     0
 62
   257
176
     0
 90
        1
176
     0
 90
        1
176
     0
 40
1.0
176
     0
 90
        8
176
     2
 62
     7
176
     0
 40
1.0
176
     0
 90
        1
176
     0
 90
        6
176
     0
 90
        2
176
     0
 62
     7
176
     0
 90
        5
176
     0
 90
        0
176
     0
 90
        0
176
     0
290
     0
176
     0
 90
        1
176
     0
 40
0.0
176
     0
 90
        0
176
     0
290
     0
176
     0
290
     1
176
     0
290
     1
176
     0
290
     0
176
     0
290
     0
176
     0
290
     0
176
     0
290
     0
176
     0
290
     0
176
     0
290
     0
176
     0
 90
       50
176
     0
 40
0.0
176
     0
 40
1.0
176
     0
 90
        0
176
     0
 62
   178
420
        0
176
     0
 90
       50
176
     0
 90
        3
176
     0
 62
     5
420
      255
176
     0
290
     0
176
     0
 90
       50
176
     0
 90
       50
176
     0
 90
       50
176
     0
290
     0
176
     0
 90
       50
176
     0
 62
   256
176
     0
 40
1.0
176
     0
 90
        2
176
     0
  1
strokes_ogs.tif
176
     0
290
     0
176
     0
 40
1.0
176
     0
 40
1.0
176
     0
  0
VISUALSTYLE
  5
1F24
102
{ACAD_REACTORS
330
1F15
102
}
330
1F15
100
AcDbVisualStyle
  2
Facepattern
 70
    15
177
     3
291
     1
 70
    58
 90
        2
176
     1
 90
        2
176
     1
 90
        0
176
     1
 90
        0
176
     1
 40
0.6
176
     1
 40
30.0
176
     1
 62
     7
420
 16777215
176
     1
 90
        1
176
     1
 90
        4
176
     1
 62
     7
176
     1
 62
   257
176
     1
 90
        1
176
     1
 90
        1
176
     1
 40
1.0
176
     1
 90
        8
176
     1
 62
     7
176
     1
 40
1.0
176
     1
 90
        1
176
     1
 90
        6
176
     1
 90
        2
176
     1
 62
     7
176
     1
 90
        5
176
     1
 90
        0
176
     1
 90
        0
176
     1
290
     0
176
     1
 90
        1
176
     1
 40
0.0
176
     1
 90
        0
176
     1
290
     0
176
     1
290
     1
176
     1
290
     1
176
     1
290
     0
176
     1
290
     0
176
     1
290
     0
176
     1
290
     0
176
     1
290
     0
176
     1
290
     0
176
     1
 90
       50
176
     1
 40
0.0
176
     1
 40
1.0
176
     1
 90
        0
176
     1
 62
   178
420
        0
176
     1
 90
       50
176
     1
 90
        3
176
     1
 62
     5
420
      255
176
     1
290
     0
176
     1
 90
       50
176
     1
 90
       50
176
     1
 90
       50
176
     1
290
     0
176
     1
 90
       50
176
     1
 62
   256
176
     0
 40
1.0
176
     0
 90
        2
176
     1
  1
strokes_ogs.tif
176
     1
290
     0
176
     1
 40
1.0
176
     1
 40
1.0
176
     1
  0
VISUALSTYLE
  5
1F16
102
{ACAD_REACTORS
330
1F15
102
}
330
1F15
100
AcDbVisualStyle
  2
Flat
 70
     0
177
     3
291
     1
 70
    58
 90
        2
176
     1
 90
        1
176
     1
 90
        1
176
     1
 90
        2
176
     1
 40
0.6
176
     1
 40
30.0
176
     1
 62
     7
420
 16777215
176
     1
 90
        0
176
     1
 90
        0
176
     1
 62
     7
176
     1
 62
   257
176
     1
 90
        1
176
     1
 90
        1
176
     1
 40
1.0
176
     1
 90
        8
176
     1
 62
     7
176
     1
 40
1.0
176
     1
 90
        1
176
     1
 90
        6
176
     1
 90
        2
176
     1
 62
     7
176
     1
 90
        5
176
     1
 90
        0
176
     1
 90
        0
176
     1
290
     0
176
     1
 90
       13
176
     1
 40
0.0
176
     1
 90
        0
176
     1
290
     0
176
     1
290
     1
176
     1
290
     1
176
     1
290
     0
176
     1
290
     0
176
     1
290
     0
176
     1
290
     0
176
     1
290
     0
176
     1
290
     0
176
     1
 90
       50
176
     1
 40
0.0
176
     1
 40
1.0
176
     1
 90
        0
176
     1
 62
   178
420
        0
176
     1
 90
       50
176
     1
 90
        3
176
     1
 62
     5
420
      255
176
     1
290
     0
176
     1
 90
       50
176
     1
 90
       50
176
     1
 90
       50
176
     1
290
     0
176
     1
 90
       50
176
     1
 62
   256
176
     0
 40
1.0
176
     0
 90
        2
176
     1
  1
strokes_ogs.tif
176
     1
290
     0
176
     1
 40
1.0
176
     1
 40
1.0
176
     1
  0
VISUALSTYLE
  5
1F17
102
{ACAD_REACTORS
330
1F15
102
}
330
1F15
100
AcDbVisualStyle
  2
FlatWithEdges
 70
     1
177
     3
291
     1
 70
    58
 90
        2
176
     1
 90
        1
176
     1
 90
        1
176
     1
 90
        2
176
     1
 40
0.6
176
     1
 40
30.0
176
     1
 62
     7
420
 16777215
176
     1
 90
        1
176
     1
 90
        0
176
     1
 62
     7
176
     1
 62
   257
176
     1
 90
        1
176
     1
 90
        1
176
     1
 40
1.0
176
     1
 90
        0
176
     1
 62
   257
176
     1
 40
1.0
176
     1
 90
        1
176
     1
 90
        6
176
     1
 90
        2
176
     1
 62
     7
176
     1
 90
        5
176
     1
 90
        0
176
     1
 90
        0
176
     1
290
     0
176
     1
 90
       13
176
     1
 40
0.0
176
     1
 90
        0
176
     1
290
     0
176
     1
290
     1
176
     1
290
     1
176
     1
290
     0
176
     1
290
     0
176
     1
290
     0
176
     1
290
     0
176
     1
290
     0
176
     1
290
     0
176
     1
 90
       50
176
     1
 40
0.0
176
     1
 40
1.0
176
     1
 90
        0
176
     1
 62
   178
420
        0
176
     1
 90
       50
176
     1
 90
        3
176
     1
 62
     5
420
      255
176
     1
290
     0
176
     1
 90
       50
176
     1
 90
       50
176
     1
 90
       50
176
     1
290
     0
176
     1
 90
       50
176
     1
 62
   256
176
     0
 40
1.0
176
     0
 90
        2
176
     1
  1
strokes_ogs.tif
176
     1
290
     0
176
     1
 40
1.0
176
     1
 40
1.0
176
     1
  0
VISUALSTYLE
  5
1F18
102
{ACAD_REACTORS
330
1F15
102
}
330
1F15
100
AcDbVisualStyle
  2
Gouraud
 70
     2
177
     3
291
     1
 70
    58
 90
        2
176
     1
 90
        2
176
     1
 90
        1
176
     1
 90
        2
176
     1
 40
0.6
176
     1
 40
30.0
176
     1
 62
     7
420
 16777215
176
     1
 90
        0
176
     1
 90
        0
176
     1
 62
     7
176
     1
 62
   257
176
     1
 90
        1
176
     1
 90
        1
176
     1
 40
1.0
176
     1
 90
        0
176
     1
 62
     7
176
     1
 40
1.0
176
     1
 90
        1
176
     1
 90
        6
176
     1
 90
        2
176
     1
 62
     7
176
     1
 90
        5
176
     1
 90
        0
176
     1
 90
        0
176
     1
290
     0
176
     1
 90
       13
176
     1
 40
0.0
176
     1
 90
        0
176
     1
290
     0
176
     1
290
     1
176
     1
290
     1
176
     1
290
     0
176
     1
290
     0
176
     1
290
     0
176
     1
290
     0
176
     1
290
     0
176
     1
290
     0
176
     1
 90
       50
176
     1
 40
0.0
176
     1
 40
1.0
176
     1
 90
        0
176
     1
 62
   178
420
        0
176
     1
 90
       50
176
     1
 90
        3
176
     1
 62
     5
420
      255
176
     1
290
     0
176
     1
 90
       50
176
     1
 90
       50
176
     1
 90
       50
176
     1
290
     0
176
     1
 90
       50
176
     1
 62
   256
176
     0
 40
1.0
176
     0
 90
        2
176
     1
  1
strokes_ogs.tif
176
     1
290
     0
176
     1
 40
1.0
176
     1
 40
1.0
176
     1
  0
VISUALSTYLE
  5
1F19
102
{ACAD_REACTORS
330
1F15
102
}
330
1F15
100
AcDbVisualStyle
  2
GouraudWithEdges
 70
     3
177
     3
291
     1
 70
    58
 90
        2
176
     1
 90
        2
176
     1
 90
        1
176
     1
 90
        2
176
     1
 40
0.6
176
     1
 40
30.0
176
     1
 62
     7
420
 16777215
176
     1
 90
        1
176
     1
 90
        0
176
     1
 62
     7
176
     1
 62
   257
176
     1
 90
        1
176
     1
 90
        1
176
     1
 40
1.0
176
     1
 90
        0
176
     1
 62
   257
176
     1
 40
1.0
176
     1
 90
        1
176
     1
 90
        6
176
     1
 90
        2
176
     1
 62
     7
176
     1
 90
        5
176
     1
 90
        0
176
     1
 90
        0
176
     1
290
     0
176
     1
 90
       13
176
     1
 40
0.0
176
     1
 90
        0
176
     1
290
     0
176
     1
290
     1
176
     1
290
     1
176
     1
290
     0
176
     1
290
     0
176
     1
290
     0
176
     1
290
     0
176
     1
290
     0
176
     1
290
     0
176
     1
 90
       50
176
     1
 40
0.0
176
     1
 40
1.0
176
     1
 90
        0
176
     1
 62
   178
420
        0
176
     1
 90
       50
176
     1
 90
        3
176
     1
 62
     5
420
      255
176
     1
290
     0
176
     1
 90
       50
176
     1
 90
       50
176
     1
 90
       50
176
     1
290
     0
176
     1
 90
       50
176
     1
 62
   256
176
     0
 40
1.0
176
     0
 90
        2
176
     1
  1
strokes_ogs.tif
176
     1
290
     0
176
     1
 40
1.0
176
     1
 40
1.0
176
     1
  0
VISUALSTYLE
  5
1F1C
102
{ACAD_REACTORS
330
1F15
102
}
330
1F15
100
AcDbVisualStyle
  2
Hidden
 70
     6
177
     3
291
     0
 70
    58
 90
        1
176
     1
 90
        2
176
     1
 90
        2
176
     1
 90
        0
176
     1
 40
0.6
176
     1
 40
30.0
176
     1
 62
     7
420
 16777215
176
     1
 90
        2
176
     1
 90
        2
176
     1
 62
     7
176
     1
 62
   257
176
     1
 90
        2
176
     1
 90
        1
176
     1
 40
40.0
176
     1
 90
        0
176
     1
 62
   257
176
     1
 40
1.0
176
     1
 90
        1
176
     1
 90
        6
176
     1
 90
        2
176
     1
 62
     7
176
     1
 90
        3
176
     1
 90
        0
176
     1
 90
        0
176
     1
290
     0
176
     1
 90
        1
176
     1
 40
0.0
176
     1
 90
        0
176
     1
290
     0
176
     1
290
     1
176
     1
290
     1
176
     1
290
     0
176
     1
290
     0
176
     1
290
     0
176
     1
290
     0
176
     1
290
     0
176
     1
290
     0
176
     1
 90
       50
176
     1
 40
0.0
176
     1
 40
1.0
176
     1
 90
        0
176
     1
 62
   178
420
        0
176
     1
 90
       50
176
     1
 90
        3
176
     1
 62
     5
420
      255
176
     1
290
     0
176
     1
 90
       50
176
     1
 90
       50
176
     1
 90
       50
176
     1
290
     0
176
     1
 90
       50
176
     1
 62
   256
176
     0
 40
1.0
176
     0
 90
        2
176
     1
  1
strokes_ogs.tif
176
     1
290
     0
176
     1
 40
1.0
176
     1
 40
1.0
176
     1
  0
VISUALSTYLE
  5
1F26
102
{ACAD_REACTORS
330
1F15
102
}
330
1F15
100
AcDbVisualStyle
  2
JitterOff
 70
    20
177
     3
291
     1
 70
    58
 90
        2
176
     0
 90
        2
176
     0
 90
        0
176
     0
 90
        0
176
     0
 40
0.6
176
     0
 40
30.0
176
     0
 62
     7
420
 16777215
176
     0
 90
        1
176
     0
 90
        4
176
     0
 62
     7
176
     0
 62
   257
176
     0
 90
        1
176
     0
 90
        1
176
     0
 40
1.0
176
     0
 90
       10
176
     2
 62
     7
176
     0
 40
1.0
176
     0
 90
        1
176
     0
 90
        6
176
     0
 90
        2
176
     0
 62
     7
176
     0
 90
        5
176
     0
 90
        0
176
     0
 90
        0
176
     0
290
     0
176
     0
 90
        1
176
     0
 40
0.0
176
     0
 90
        0
176
     0
290
     0
176
     0
290
     1
176
     0
290
     1
176
     0
290
     0
176
     0
290
     0
176
     0
290
     0
176
     0
290
     0
176
     0
290
     0
176
     0
290
     0
176
     0
 90
       50
176
     0
 40
0.0
176
     0
 40
1.0
176
     0
 90
        0
176
     0
 62
   178
420
        0
176
     0
 90
       50
176
     0
 90
        3
176
     0
 62
     5
420
      255
176
     0
290
     0
176
     0
 90
       50
176
     0
 90
       50
176
     0
 90
       50
176
     0
290
     0
176
     0
 90
       50
176
     0
 62
   256
176
     0
 40
1.0
176
     0
 90
        2
176
     0
  1
strokes_ogs.tif
176
     0
290
     0
176
     0
 40
1.0
176
     0
 40
1.0
176
     0
  0
VISUALSTYLE
  5
1F23
102
{ACAD_REACTORS
330
1F15
102
}
330
1F15
100
AcDbVisualStyle
  2
Linepattern
 70
    14
177
     3
291
     1
 70
    58
 90
        2
176
     1
 90
        2
176
     1
 90
        0
176
     1
 90
        0
176
     1
 40
0.6
176
     1
 40
30.0
176
     1
 62
     7
420
 16777215
176
     1
 90
        1
176
     1
 90
        4
176
     1
 62
     7
176
     1
 62
   257
176
     1
 90
        7
176
     1
 90
        7
176
     1
 40
1.0
176
     1
 90
        8
176
     1
 62
     7
176
     1
 40
1.0
176
     1
 90
        1
176
     1
 90
        6
176
     1
 90
        2
176
     1
 62
     7
176
     1
 90
        5
176
     1
 90
        0
176
     1
 90
        0
176
     1
290
     0
176
     1
 90
        1
176
     1
 40
0.0
176
     1
 90
        0
176
     1
290
     0
176
     1
290
     1
176
     1
290
     1
176
     1
290
     0
176
     1
290
     0
176
     1
290
     0
176
     1
290
     0
176
     1
290
     0
176
     1
290
     0
176
     1
 90
       50
176
     1
 40
0.0
176
     1
 40
1.0
176
     1
 90
        0
176
     1
 62
   178
420
        0
176
     1
 90
       50
176
     1
 90
        3
176
     1
 62
     5
420
      255
176
     1
290
     0
176
     1
 90
       50
176
     1
 90
       50
176
     1
 90
       50
176
     1
290
     0
176
     1
 90
       50
176
     1
 62
   256
176
     0
 40
1.0
176
     0
 90
        2
176
     1
  1
strokes_ogs.tif
176
     1
290
     0
176
     1
 40
1.0
176
     1
 40
1.0
176
     1
  0
VISUALSTYLE
  5
1F27
102
{ACAD_REACTORS
330
1F15
102
}
330
1F15
100
AcDbVisualStyle
  2
OverhangOff
 70
    21
177
     3
291
     1
 70
    58
 90
        2
176
     0
 90
        2
176
     0
 90
        0
176
     0
 90
        0
176
     0
 40
0.6
176
     0
 40
30.0
176
     0
 62
     7
420
 16777215
176
     0
 90
        1
176
     0
 90
        4
176
     0
 62
     7
176
     0
 62
   257
176
     0
 90
        1
176
     0
 90
        1
176
     0
 40
1.0
176
     0
 90
        9
176
     2
 62
     7
176
     0
 40
1.0
176
     0
 90
        1
176
     0
 90
        6
176
     0
 90
        2
176
     0
 62
     7
176
     0
 90
        5
176
     0
 90
        0
176
     0
 90
        0
176
     0
290
     0
176
     0
 90
        1
176
     0
 40
0.0
176
     0
 90
        0
176
     0
290
     0
176
     0
290
     1
176
     0
290
     1
176
     0
290
     0
176
     0
290
     0
176
     0
290
     0
176
     0
290
     0
176
     0
290
     0
176
     0
290
     0
176
     0
 90
       50
176
     0
 40
0.0
176
     0
 40
1.0
176
     0
 90
        0
176
     0
 62
   178
420
        0
176
     0
 90
       50
176
     0
 90
        3
176
     0
 62
     5
420
      255
176
     0
290
     0
176
     0
 90
       50
176
     0
 90
       50
176
     0
 90
       50
176
     0
290
     0
176
     0
 90
       50
176
     0
 62
   256
176
     0
 40
1.0
176
     0
 90
        2
176
     0
  1
strokes_ogs.tif
176
     0
290
     0
176
     0
 40
1.0
176
     0
 40
1.0
176
     0
  0
VISUALSTYLE
  5
1F1E
102
{ACAD_REACTORS
330
1F15
102
}
330
1F15
100
AcDbVisualStyle
  2
Realistic
 70
     8
177
     3
291
     0
 70
    58
 90
        2
176
     1
 90
        3
176
     1
 90
        0
176
     1
 90
        2
176
     1
 40
0.6
176
     1
 40
30.0
176
     1
 62
     7
420
 16777215
176
     1
 90
        0
176
     1
 90
        0
176
     1
 62
     7
176
     1
 62
   257
176
     1
 90
        1
176
     1
 90
        1
176
     1
 40
1.0
176
     1
 90
        8
176
     1
 62
   257
176
     1
 40
1.0
176
     1
 90
        1
176
     1
 90
        6
176
     1
 90
        2
176
     1
 62
     7
176
     1
 90
        3
176
     1
 90
        0
176
     1
 90
        0
176
     1
290
     0
176
     1
 90
       13
176
     1
 40
0.0
176
     1
 90
        0
176
     1
290
     0
176
     1
290
     1
176
     1
290
     1
176
     1
290
     0
176
     1
290
     0
176
     1
290
     0
176
     1
290
     0
176
     1
290
     0
176
     1
290
     0
176
     1
 90
       50
176
     1
 40
0.0
176
     1
 40
1.0
176
     1
 90
        0
176
     1
 62
   178
420
        0
176
     1
 90
       50
176
     1
 90
        3
176
     1
 62
     5
420
      255
176
     1
290
     0
176
     1
 90
       50
176
     1
 90
       50
176
     1
 90
       50
176
     1
290
     0
176
     1
 90
       50
176
     1
 62
   256
176
     0
 40
1.0
176
     0
 90
        2
176
     1
  1
strokes_ogs.tif
176
     1
290
     0
176
     1
 40
1.0
176
     1
 40
1.0
176
     1
  0
VISUALSTYLE
  5
1F2D
102
{ACAD_REACTORS
330
1F15
102
}
330
1F15
100
AcDbVisualStyle
  2
Shaded
 70
    27
177
     3
291
     0
 70
    58
 90
        2
176
     1
 90
        2
176
     1
 90
        1
176
     1
 90
        2
176
     1
 40
0.6
176
     1
 40
30.0
176
     1
 62
     7
420
 16777215
176
     1
 90
        0
176
     1
 90
        4
176
     1
 62
     7
176
     1
 62
   257
176
     1
 90
        1
176
     1
 90
        1
176
     1
 40
1.0
176
     1
 90
        8
176
     1
 62
   257
176
     1
 40
1.0
176
     1
 90
        1
176
     1
 90
        6
176
     1
 90
        2
176
     1
 62
     8
420
  7895160
176
     1
 90
        3
176
     1
 90
        0
176
     1
 90
        0
176
     1
290
     0
176
     1
 90
        5
176
     1
 40
0.0
176
     1
 90
        0
176
     1
290
     0
176
     1
290
     1
176
     1
290
     1
176
     1
290
     0
176
     1
290
     0
176
     1
290
     0
176
     1
290
     0
176
     1
290
     0
176
     1
290
     0
176
     1
 90
       50
176
     1
 40
0.0
176
     1
 40
1.0
176
     1
 90
        0
176
     1
 62
   178
420
        0
176
     1
 90
       50
176
     1
 90
        3
176
     1
 62
     5
420
      255
176
     1
290
     0
176
     1
 90
       50
176
     1
 90
       50
176
     1
 90
       50
176
     1
290
     0
176
     1
 90
       50
176
     1
 62
   256
176
     0
 40
1.0
176
     0
 90
        2
176
     1
  1
strokes_ogs.tif
176
     1
290
     0
176
     1
 40
1.0
176
     1
 40
1.0
176
     1
  0
VISUALSTYLE
  5
1F2C
102
{ACAD_REACTORS
330
1F15
102
}
330
1F15
100
AcDbVisualStyle
  2
Shaded with edges
 70
    26
177
     3
291
     0
 70
    58
 90
        2
176
     1
 90
        2
176
     1
 90
        1
176
     1
 90
        2
176
     1
 40
0.6
176
     1
 40
30.0
176
     1
 62
     7
420
 16777215
176
     1
 90
        1
176
     1
 90
       10
176
     1
 62
     7
176
     1
 62
   257
176
     1
 90
        2
176
     1
 90
        1
176
     1
 40
1.0
176
     1
 90
        8
176
     1
 62
   257
176
     1
 40
1.0
176
     1
 90
        1
176
     1
 90
        6
176
     1
 90
        2
176
     1
 62
     7
176
     1
 90
        3
176
     1
 90
        0
176
     1
 90
        0
176
     1
290
     0
176
     1
 90
        5
176
     1
 40
0.0
176
     1
 90
        0
176
     1
290
     0
176
     1
290
     1
176
     1
290
     1
176
     1
290
     0
176
     1
290
     0
176
     1
290
     0
176
     1
290
     0
176
     1
290
     0
176
     1
290
     0
176
     1
 90
       50
176
     1
 40
0.0
176
     1
 40
1.0
176
     1
 90
        0
176
     1
 62
   178
420
        0
176
     1
 90
       50
176
     1
 90
        3
176
     1
 62
     5
420
      255
176
     1
290
     0
176
     1
 90
       50
176
     1
 90
       50
176
     1
 90
       50
176
     1
290
     0
176
     1
 90
       50
176
     1
 62
   256
176
     0
 40
1.0
176
     0
 90
        2
176
     1
  1
strokes_ogs.tif
176
     1
290
     0
176
     1
 40
1.0
176
     1
 40
1.0
176
     1
  0
VISUALSTYLE
  5
1F29
102
{ACAD_REACTORS
330
1F15
102
}
330
1F15
100
AcDbVisualStyle
  2
Shades of Gray
 70
    23
177
     3
291
     0
 70
    58
 90
        2
176
     1
 90
        2
176
     1
 90
        3
176
     1
 90
        0
176
     1
 40
0.6
176
     1
 40
30.0
176
     1
 62
     7
420
 16777215
176
     1
 90
        2
176
     1
 90
        2
176
     1
 62
     7
176
     1
 62
     7
176
     1
 90
        1
176
     1
 90
        1
176
     1
 40
40.0
176
     1
 90
        8
176
     1
 62
     7
176
     1
 40
1.0
176
     1
 90
        1
176
     1
 90
        6
176
     1
 90
        2
176
     1
 62
     7
176
     1
 90
        3
176
     1
 90
        0
176
     1
 90
        0
176
     1
290
     0
176
     1
 90
        1
176
     1
 40
0.0
176
     1
 90
        0
176
     1
290
     0
176
     1
290
     1
176
     1
290
     1
176
     1
290
     0
176
     1
290
     0
176
     1
290
     0
176
     1
290
     0
176
     1
290
     0
176
     1
290
     0
176
     1
 90
       50
176
     1
 40
0.0
176
     1
 40
1.0
176
     1
 90
        0
176
     1
 62
   178
420
        0
176
     1
 90
       50
176
     1
 90
        3
176
     1
 62
     5
420
      255
176
     1
290
     0
176
     1
 90
       50
176
     1
 90
       50
176
     1
 90
       50
176
     1
290
     0
176
     1
 90
       50
176
     1
 62
   256
176
     0
 40
1.0
176
     0
 90
        2
176
     1
  1
strokes_ogs.tif
176
     1
290
     0
176
     1
 40
1.0
176
     1
 40
1.0
176
     1
  0
VISUALSTYLE
  5
1F2A
102
{ACAD_REACTORS
330
1F15
102
}
330
1F15
100
AcDbVisualStyle
  2
Sketchy
 70
    24
177
     3
291
     0
 70
    58
 90
        1
176
     1
 90
        2
176
     1
 90
        2
176
     1
 90
        0
176
     1
 40
0.6
176
     1
 40
30.0
176
     1
 62
     7
420
 16777215
176
     1
 90
        2
176
     1
 90
        2
176
     1
 62
     7
176
     1
 62
     7
176
     1
 90
        1
176
     1
 90
        1
176
     1
 40
40.0
176
     1
 90
       11
176
     1
 62
     7
176
     1
 40
1.0
176
     1
 90
        1
176
     1
 90
        6
176
     1
 90
        2
176
     1
 62
     7
176
     1
 90
        6
176
     1
 90
        0
176
     1
 90
        0
176
     1
290
     0
176
     1
 90
        1
176
     1
 40
0.0
176
     1
 90
        0
176
     1
290
     0
176
     1
290
     1
176
     1
290
     1
176
     1
290
     0
176
     1
290
     0
176
     1
290
     0
176
     1
290
     0
176
     1
290
     0
176
     1
290
     0
176
     1
 90
       50
176
     1
 40
0.0
176
     1
 40
1.0
176
     1
 90
        0
176
     1
 62
   178
420
        0
176
     1
 90
       50
176
     1
 90
        3
176
     1
 62
     5
420
      255
176
     1
290
     0
176
     1
 90
       50
176
     1
 90
       50
176
     1
 90
       50
176
     1
290
     0
176
     1
 90
       50
176
     1
 62
   256
176
     0
 40
1.0
176
     0
 90
        2
176
     1
  1
strokes_ogs.tif
176
     1
290
     0
176
     1
 40
1.0
176
     1
 40
1.0
176
     1
  0
VISUALSTYLE
  5
1F22
102
{ACAD_REACTORS
330
1F15
102
}
330
1F15
100
AcDbVisualStyle
  2
Thicken
 70
    13
177
     3
291
     1
 70
    58
 90
        2
176
     1
 90
        2
176
     1
 90
        0
176
     1
 90
        0
176
     1
 40
0.6
176
     1
 40
30.0
176
     1
 62
     7
420
 16777215
176
     1
 90
        1
176
     1
 90
        4
176
     1
 62
     7
176
     1
 62
   257
176
     1
 90
        1
176
     1
 90
        1
176
     1
 40
1.0
176
     1
 90
       12
176
     1
 62
     7
176
     1
 40
1.0
176
     1
 90
        1
176
     1
 90
        6
176
     1
 90
        2
176
     1
 62
     7
176
     1
 90
        5
176
     1
 90
        0
176
     1
 90
        0
176
     1
290
     0
176
     1
 90
        1
176
     1
 40
0.0
176
     1
 90
        0
176
     1
290
     0
176
     1
290
     1
176
     1
290
     1
176
     1
290
     0
176
     1
290
     0
176
     1
290
     0
176
     1
290
     0
176
     1
290
     0
176
     1
290
     0
176
     1
 90
       50
176
     1
 40
0.0
176
     1
 40
1.0
176
     1
 90
        0
176
     1
 62
   178
420
        0
176
     1
 90
       50
176
     1
 90
        3
176
     1
 62
     5
420
      255
176
     1
290
     0
176
     1
 90
       50
176
     1
 90
       50
176
     1
 90
       50
176
     1
290
     0
176
     1
 90
       50
176
     1
 62
   256
176
     0
 40
1.0
176
     0
 90
        2
176
     1
  1
strokes_ogs.tif
176
     1
290
     0
176
     1
 40
1.0
176
     1
 40
1.0
176
     1
  0
VISUALSTYLE
  5
1F1B
102
{ACAD_REACTORS
330
1F15
102
}
330
1F15
100
AcDbVisualStyle
  2
Wireframe
 70
     5
177
     3
291
     0
 70
    58
 90
        0
176
     1
 90
        2
176
     1
 90
        0
176
     1
 90
        0
176
     1
 40
0.6
176
     1
 40
30.0
176
     1
 62
     7
420
 16777215
176
     1
 90
        1
176
     1
 90
        4
176
     1
 62
     7
176
     1
 62
   257
176
     1
 90
        1
176
     1
 90
        1
176
     1
 40
1.0
176
     1
 90
        0
176
     1
 62
   257
176
     1
 40
1.0
176
     1
 90
        1
176
     1
 90
        6
176
     1
 90
        2
176
     1
 62
     7
176
     1
 90
        3
176
     1
 90
        0
176
     1
 90
        0
176
     1
290
     0
176
     1
 90
        1
176
     1
 40
0.0
176
     1
 90
        0
176
     1
290
     0
176
     1
290
     1
176
     1
290
     1
176
     1
290
     0
176
     1
290
     0
176
     1
290
     0
176
     1
290
     0
176
     1
290
     0
176
     1
290
     0
176
     1
 90
       50
176
     1
 40
0.0
176
     1
 40
1.0
176
     1
 90
        0
176
     1
 62
   178
420
        0
176
     1
 90
       50
176
     1
 90
        3
176
     1
 62
     5
420
      255
176
     1
290
     0
176
     1
 90
       50
176
     1
 90
       50
176
     1
 90
       50
176
     1
290
     0
176
     1
 90
       50
176
     1
 62
   256
176
     0
 40
1.0
176
     0
 90
        2
176
     1
  1
strokes_ogs.tif
176
     1
290
     0
176
     1
 40
1.0
176
     1
 40
1.0
176
     1
  0
VISUALSTYLE
  5
1F2B
102
{ACAD_REACTORS
330
1F15
102
}
330
1F15
100
AcDbVisualStyle
  2
X-Ray
 70
    25
177
     3
291
     0
 70
    58
 90
        2
176
     1
 90
        2
176
     1
 90
        1
176
     1
 90
        1
176
     1
 40
0.5
176
     1
 40
30.0
176
     1
 62
     7
420
 16777215
176
     1
 90
        1
176
     1
 90
        0
176
     1
 62
     7
176
     1
 62
   257
176
     1
 90
        1
176
     1
 90
        1
176
     1
 40
1.0
176
     1
 90
        8
176
     1
 62
     7
176
     1
 40
1.0
176
     1
 90
        1
176
     1
 90
        6
176
     1
 90
        2
176
     1
 62
     7
176
     1
 90
        3
176
     1
 90
        0
176
     1
 90
        0
176
     1
290
     0
176
     1
 90
       13
176
     1
 40
0.0
176
     1
 90
        0
176
     1
290
     0
176
     1
290
     1
176
     1
290
     1
176
     1
290
     0
176
     1
290
     0
176
     1
290
     0
176
     1
290
     0
176
     1
290
     0
176
     1
290
     0
176
     1
 90
       50
176
     1
 40
0.0
176
     1
 40
1.0
176
     1
 90
        0
176
     1
 62
   178
420
        0
176
     1
 90
       50
176
     1
 90
        3
176
     1
 62
     5
420
      255
176
     1
290
     0
176
     1
 90
       50
176
     1
 90
       50
176
     1
 90
       50
176
     1
290
     0
176
     1
 90
       50
176
     1
 62
   256
176
     0
 40
1.0
176
     0
 90
        2
176
     1
  1
strokes_ogs.tif
176
     1
290
     0
176
     1
 40
1.0
176
     1
 40
1.0
176
     1
  0
DICTIONARYVAR
  5
1FCE
102
{ACAD_REACTORS
330
1FCD
102
}
330
1FCD
100
DictionaryVariables
280
     0
  1
1:1
  0
DICTIONARYVAR
  5
1FD3
102
{ACAD_REACTORS
330
1FCD
102
}
330
1FCD
100
DictionaryVariables
280
     0
  1
Standard
  0
DICTIONARYVAR
  5
1FD2
102
{ACAD_REACTORS
330
1FCD
102
}
330
1FCD
100
DictionaryVariables
280
     0
  1
Standard
  0
XRECORD
  5
1F5C
102
{ACAD_REACTORS
330
1F5A
102
}
330
1F5A
100
AcDbXrecord
280
     1
1000
#ffffff
  0
XRECORD
  5
1F5D
102
{ACAD_REACTORS
330
1F5A
102
}
330
1F5A
100
AcDbXrecord
280
     1
1000
FullColor
  0
XRECORD
  5
1F5E
102
{ACAD_REACTORS
330
1F5A
102
}
330
1F5A
100
AcDbXrecord
280
     1
290
     0
  0
XRECORD
  5
1F5F
102
{ACAD_REACTORS
330
1F5A
102
}
330
1F5A
100
AcDbXrecord
280
     1
290
     1
  0
XRECORD
  5
1F60
102
{ACAD_REACTORS
330
1F5A
102
}
330
1F5A
100
AcDbXrecord
280
     1
290
     1
  0
XRECORD
  5
1F61
102
{ACAD_REACTORS
330
1F5A
102
}
330
1F5A
100
AcDbXrecord
280
     1
290
     1
  0
XRECORD
  5
1F62
102
{ACAD_REACTORS
330
1F5A
102
}
330
1F5A
100
AcDbXrecord
280
     1
1000
auto
  0
XRECORD
  5
1F63
102
{ACAD_REACTORS
330
1F5A
102
}
330
1F5A
100
AcDbXrecord
280
     1
1000
auto
  0
XRECORD
  5
1F64
102
{ACAD_REACTORS
330
1F5A
102
}
330
1F5A
100
AcDbXrecord
280
     1
1000
auto
  0
XRECORD
  5
1F65
102
{ACAD_REACTORS
330
1F5A
102
}
330
1F5A
100
AcDbXrecord
280
     1
1000
auto
  0
XRECORD
  5
1F66
102
{ACAD_REACTORS
330
1F5A
102
}
330
1F5A
100
AcDbXrecord
280
     1
1000
auto
  0
XRECORD
  5
1F67
102
{ACAD_REACTORS
330
1F5A
102
}
330
1F5A
100
AcDbXrecord
280
     1
1000
auto
  0
XRECORD
  5
1F68
102
{ACAD_REACTORS
330
1F5A
102
}
330
1F5A
100
AcDbXrecord
280
     1
1000
auto
  0
XRECORD
  5
1F69
102
{ACAD_REACTORS
330
1F5A
102
}
330
1F5A
100
AcDbXrecord
280
     1
1000
auto
  0
XRECORD
  5
1F6A
102
{ACAD_REACTORS
330
1F5A
102
}
330
1F5A
100
AcDbXrecord
280
     1
290
     0
  0
XRECORD
  5
1F6B
102
{ACAD_REACTORS
330
1F5A
102
}
330
1F5A
100
AcDbXrecord
280
     1
290
     0
  0
XRECORD
  5
1F6C
102
{ACAD_REACTORS
330
1F5A
102
}
330
1F5A
100
AcDbXrecord
280
     1
290
     0
  0
XRECORD
  5
1F6D
102
{ACAD_REACTORS
330
1F5A
102
}
330
1F5A
100
AcDbXrecord
280
     1
290
     0
  0
XRECORD
  5
1F6E
102
{ACAD_REACTORS
330
1F5A
102
}
330
1F5A
100
AcDbXrecord
280
     1
 90
    65537
  0
XRECORD
  5
1F6F
102
{ACAD_REACTORS
330
1F5A
102
}
330
1F5A
100
AcDbXrecord
280
     1
 90
    65537
  0
XRECORD
  5
1F70
102
{ACAD_REACTORS
330
1F5A
102
}
330
1F5A
100
AcDbXrecord
280
     1
 90
    65537
  0
XRECORD
  5
1F71
102
{ACAD_REACTORS
330
1F5A
102
}
330
1F5A
100
AcDbXrecord
280
     1
 90
    65537
  0
XRECORD
  5
1F72
102
{ACAD_REACTORS
330
1F5A
102
}
330
1F5A
100
AcDbXrecord
280
     1
1000
auto
  0
XRECORD
  5
1F73
102
{ACAD_REACTORS
330
1F5A
102
}
330
1F5A
100
AcDbXrecord
280
     1
1000
auto
  0
XRECORD
  5
1F74
102
{ACAD_REACTORS
330
1F5A
102
}
330
1F5A
100
AcDbXrecord
280
     1
1000
auto
  0
XRECORD
  5
1F75
102
{ACAD_REACTORS
330
1F5A
102
}
330
1F5A
100
AcDbXrecord
280
     1
1000
auto
  0
XRECORD
  5
1F76
102
{ACAD_REACTORS
330
1F5A
102
}
330
1F5A
100
AcDbXrecord
280
     1
1000
auto
  0
XRECORD
  5
1F77
102
{ACAD_REACTORS
330
1F5A
102
}
330
1F5A
100
AcDbXrecord
280
     1
1000
auto
  0
XRECORD
  5
1F78
102
{ACAD_REACTORS
330
1F5A
102
}
330
1F5A
100
AcDbXrecord
280
     1
1000
auto
  0
XRECORD
  5
1F79
102
{ACAD_REACTORS
330
1F5A
102
}
330
1F5A
100
AcDbXrecord
280
     1
1000
auto
  0
XRECORD
  5
1F7A
102
{ACAD_REACTORS
330
1F5A
102
}
330
1F5A
100
AcDbXrecord
280
     1
 90
        1
  0
XRECORD
  5
1F7B
102
{ACAD_REACTORS
330
1F5A
102
}
330
1F5A
100
AcDbXrecord
280
     1
 40
10.0
  0
XRECORD
  5
1F7C
102
{ACAD_REACTORS
330
1F5A
102
}
330
1F5A
100
AcDbXrecord
280
     1
 40
10.0
  0
XRECORD
  5
1F7D
102
{ACAD_REACTORS
330
1F5A
102
}
330
1F5A
100
AcDbXrecord
280
     1
 40
10.0
  0
XRECORD
  5
1F7E
102
{ACAD_REACTORS
330
1F5A
102
}
330
1F5A
100
AcDbXrecord
280
     1
 40
10.0
  0
XRECORD
  5
1F7F
102
{ACAD_REACTORS
330
1F5A
102
}
330
1F5A
100
AcDbXrecord
280
     1
290
     0
  0
XRECORD
  5
1F80
102
{ACAD_REACTORS
330
1F5A
102
}
330
1F5A
100
AcDbXrecord
280
     1
 90
        1
  0
XRECORD
  5
1F81
102
{ACAD_REACTORS
330
1F5A
102
}
330
1F5A
100
AcDbXrecord
280
     1
 40
0.0
  0
XRECORD
  5
1F82
102
{ACAD_REACTORS
330
1F5A
102
}
330
1F5A
100
AcDbXrecord
280
     1
 40
0.0
  0
XRECORD
  5
1F83
102
{ACAD_REACTORS
330
1F5A
102
}
330
1F5A
100
AcDbXrecord
280
     1
1000
Portrait
  0
XRECORD
  5
1F84
102
{ACAD_REACTORS
330
1F5A
102
}
330
1F5A
100
AcDbXrecord
280
     1
 40
297.0
  0
XRECORD
  5
1F85
102
{ACAD_REACTORS
330
1F5A
102
}
330
1F5A
100
AcDbXrecord
280
     1
1000
ISO A4
  0
XRECORD
  5
1F86
102
{ACAD_REACTORS
330
1F5A
102
}
330
1F5A
100
AcDbXrecord
280
     1
 40
210.0
  0
XRECORD
  5
1F87
102
{ACAD_REACTORS
330
1F5A
102
}
330
1F5A
100
AcDbXrecord
280
     1
1000
1:1
  0
XRECORD
  5
1F88
102
{ACAD_REACTORS
330
1F5A
102
}
330
1F5A
100
AcDbXrecord
280
     1
290
     1
  0
XRECORD
  5
1F89
102
{ACAD_REACTORS
330
1F5A
102
}
330
1F5A
100
AcDbXrecord
280
     1
1000
3.20.1
  0
XRECORD
  5
1F8A
102
{ACAD_REACTORS
330
1F5A
102
}
330
1F5A
100
AcDbXrecord
280
     1
 90
        4
  0
XRECORD
  5
1F8B
102
{ACAD_REACTORS
330
1F5A
102
}
330
1F5A
100
AcDbXrecord
280
     1
  0
XRECORD
  5
1F8C
102
{ACAD_REACTORS
330
1F5A
102
}
330
1F5A
100
AcDbXrecord
280
     1
 40
720.5303449469582
  0
XRECORD
  5
1F8D
102
{ACAD_REACTORS
330
1F5A
102
}
330
1F5A
100
AcDbXrecord
280
     1
 40
1194.89101350129
  0
DICTIONARY
  5
1FCF
330
1F55
100
AcDbDictionary
280
     1
281
     1
  3
ACAD_ROUNDTRIP_2008_TABLESTYLE_CELLSTYLEMAP
360
1FD0
  0
CELLSTYLEMAP
  5
1FD0
102
{ACAD_REACTORS
330
1FCF
102
}
330
1FCF
100
AcDbCellStyleMap
 90
        3
300
CELLSTYLE
  1
TABLEFORMAT_BEGIN
 90
        5
170
     1
 91
        0
 92
    32768
 62
   257
 93
        1
300
CONTENTFORMAT
  1
CONTENTFORMAT_BEGIN
 90
        0
 91
        0
 92
        4
 93
        0
300

 40
0.0
140
1.0
 94
        5
 62
     0
340
1EFD
144
0.25
309
CONTENTFORMAT_END
171
     1
301
MARGIN
  1
CELLMARGIN_BEGIN
 40
0.06
 40
0.06
 40
0.06
 40
0.06
 40
0.06
 40
0.06
309
CELLMARGIN_END
 94
        6
 95
        1
302
GRIDFORMAT
  1
GRIDFORMAT_BEGIN
 90
        0
 91
        1
 62
     0
 92
       -2
340
1EFF
 93
        0
 40
0.045
309
GRIDFORMAT_END
 95
        2
302
GRIDFORMAT
  1
GRIDFORMAT_BEGIN
 90
        0
 91
        1
 62
     0
 92
       -2
340
1EFF
 93
        0
 40
0.045
309
GRIDFORMAT_END
 95
        4
302
GRIDFORMAT
  1
GRIDFORMAT_BEGIN
 90
        0
 91
        1
 62
     0
 92
       -2
340
1EFF
 93
        0
 40
0.045
309
GRIDFORMAT_END
 95
        8
302
GRIDFORMAT
  1
GRIDFORMAT_BEGIN
 90
        0
 91
        1
 62
     0
 92
       -2
340
1EFF
 93
        0
 40
0.045
309
GRIDFORMAT_END
 95
       16
302
GRIDFORMAT
  1
GRIDFORMAT_BEGIN
 90
        0
 91
        1
 62
     0
 92
       -2
340
1EFF
 93
        0
 40
0.045
309
GRIDFORMAT_END
 95
       32
302
GRIDFORMAT
  1
GRIDFORMAT_BEGIN
 90
        0
 91
        1
 62
     0
 92
       -2
340
1EFF
 93
        0
 40
0.045
309
GRIDFORMAT_END
309
TABLEFORMAT_END
  1
CELLSTYLE_BEGIN
 90
        1
 91
        1
300
_TITLE
309
CELLSTYLE_END
300
CELLSTYLE
  1
TABLEFORMAT_BEGIN
 90
        5
170
     1
 91
        0
 92
        0
 62
   257
 93
        1
300
CONTENTFORMAT
  1
CONTENTFORMAT_BEGIN
 90
        0
 91
        0
 92
        4
 93
        0
300

 40
0.0
140
1.0
 94
        5
 62
     0
340
1EFD
144
0.18
309
CONTENTFORMAT_END
171
     1
301
MARGIN
  1
CELLMARGIN_BEGIN
 40
0.06
 40
0.06
 40
0.06
 40
0.06
 40
0.06
 40
0.06
309
CELLMARGIN_END
 94
        6
 95
        1
302
GRIDFORMAT
  1
GRIDFORMAT_BEGIN
 90
        0
 91
        1
 62
     0
 92
       -2
340
1EFF
 93
        0
 40
0.045
309
GRIDFORMAT_END
 95
        2
302
GRIDFORMAT
  1
GRIDFORMAT_BEGIN
 90
        0
 91
        1
 62
     0
 92
       -2
340
1EFF
 93
        0
 40
0.045
309
GRIDFORMAT_END
 95
        4
302
GRIDFORMAT
  1
GRIDFORMAT_BEGIN
 90
        0
 91
        1
 62
     0
 92
       -2
340
1EFF
 93
        0
 40
0.045
309
GRIDFORMAT_END
 95
        8
302
GRIDFORMAT
  1
GRIDFORMAT_BEGIN
 90
        0
 91
        1
 62
     0
 92
       -2
340
1EFF
 93
        0
 40
0.045
309
GRIDFORMAT_END
 95
       16
302
GRIDFORMAT
  1
GRIDFORMAT_BEGIN
 90
        0
 91
        1
 62
     0
 92
       -2
340
1EFF
 93
        0
 40
0.045
309
GRIDFORMAT_END
 95
       32
302
GRIDFORMAT
  1
GRIDFORMAT_BEGIN
 90
        0
 91
        1
 62
     0
 92
       -2
340
1EFF
 93
        0
 40
0.045
309
GRIDFORMAT_END
309
TABLEFORMAT_END
  1
CELLSTYLE_BEGIN
 90
        2
 91
        1
300
_HEADER
309
CELLSTYLE_END
300
CELLSTYLE
  1
TABLEFORMAT_BEGIN
 90
        5
170
     1
 91
        0
 92
        0
 62
   257
 93
        1
300
CONTENTFORMAT
  1
CONTENTFORMAT_BEGIN
 90
        0
 91
        0
 92
        4
 93
        0
300

 40
0.0
140
1.0
 94
        2
 62
     0
340
1EFD
144
0.18
309
CONTENTFORMAT_END
171
     1
301
MARGIN
  1
CELLMARGIN_BEGIN
 40
0.06
 40
0.06
 40
0.06
 40
0.06
 40
0.06
 40
0.06
309
CELLMARGIN_END
 94
        6
 95
        1
302
GRIDFORMAT
  1
GRIDFORMAT_BEGIN
 90
        0
 91
        1
 62
     0
 92
       -2
340
1EFF
 93
        0
 40
0.045
309
GRIDFORMAT_END
 95
        2
302
GRIDFORMAT
  1
GRIDFORMAT_BEGIN
 90
        0
 91
        1
 62
     0
 92
       -2
340
1EFF
 93
        0
 40
0.045
309
GRIDFORMAT_END
 95
        4
302
GRIDFORMAT
  1
GRIDFORMAT_BEGIN
 90
        0
 91
        1
 62
     0
 92
       -2
340
1EFF
 93
        0
 40
0.045
309
GRIDFORMAT_END
 95
        8
302
GRIDFORMAT
  1
GRIDFORMAT_BEGIN
 90
        0
 91
        1
 62
     0
 92
       -2
340
1EFF
 93
        0
 40
0.045
309
GRIDFORMAT_END
 95
       16
302
GRIDFORMAT
  1
GRIDFORMAT_BEGIN
 90
        0
 91
        1
 62
     0
 92
       -2
340
1EFF
 93
        0
 40
0.045
309
GRIDFORMAT_END
 95
       32
302
GRIDFORMAT
  1
GRIDFORMAT_BEGIN
 90
        0
 91
        1
 62
     0
 92
       -2
340
1EFF
 93
        0
 40
0.045
309
GRIDFORMAT_END
309
TABLEFORMAT_END
  1
CELLSTYLE_BEGIN
 90
        3
 91
        2
300
_DATA
309
CELLSTYLE_END
  0
ENDSEC
  0
EOF
