<?xml version="1.0" encoding="UTF-8" standalone="no"?>
<svg
   xmlns:osb="http://www.openswatchbook.org/uri/2009/osb"
   xmlns:dc="http://purl.org/dc/elements/1.1/"
   xmlns:cc="http://creativecommons.org/ns#"
   xmlns:rdf="http://www.w3.org/1999/02/22-rdf-syntax-ns#"
   xmlns:svg="http://www.w3.org/2000/svg"
   xmlns="http://www.w3.org/2000/svg"
   xmlns:sodipodi="http://sodipodi.sourceforge.net/DTD/sodipodi-0.dtd"
   xmlns:inkscape="http://www.inkscape.org/namespaces/inkscape"
   sodipodi:docname="lupo2.svg"
   inkscape:version="1.0 (4035a4fb49, 2020-05-01)"
   id="svg8"
   version="1.1"
   viewBox="0 0 210 297"
   height="297mm"
   width="210mm">
  <defs
     id="defs2">
    <linearGradient
       osb:paint="solid"
       id="linearGradient4390">
      <stop
         id="stop4388"
         offset="0"
         style="stop-color:#000000;stop-opacity:1;" />
    </linearGradient>
  </defs>
  <sodipodi:namedview
     inkscape:window-maximized="0"
     inkscape:window-y="0"
     inkscape:window-x="0"
     inkscape:window-height="749"
     inkscape:window-width="1366"
     showgrid="false"
     inkscape:document-rotation="0"
     inkscape:current-layer="layer1"
     inkscape:document-units="mm"
     inkscape:cy="1058.0385"
     inkscape:cx="1347.005"
     inkscape:zoom="0.12374369"
     inkscape:pageshadow="2"
     inkscape:pageopacity="0.0"
     borderopacity="1.0"
     bordercolor="#666666"
     pagecolor="#ffffff"
     id="base" />
  <metadata
     id="metadata5">
    <rdf:RDF>
      <cc:Work
         rdf:about="">
        <dc:format>image/svg+xml</dc:format>
        <dc:type
           rdf:resource="http://purl.org/dc/dcmitype/StillImage" />
        <dc:title />
      </cc:Work>
    </rdf:RDF>
  </metadata>
  <g
     id="layer1"
     inkscape:groupmode="layer"
     inkscape:label="Livello 1">
    <path
       id="path847"
       d="M 13.023097,227.57141 C 10.808045,224.97663 7.241901,219.29433 5.0982661,214.944 -4.0415279,196.39558 -6.5707895,180.65468 -3.1741442,163.46063 l 1.8700131,-9.46619 -5.0696831,-1.05247 C -18.288942,150.4684 -34.502352,140.56723 -48.461448,127.23995 -75.848749,101.09225 -87.167087,70.829209 -82.476482,36.290503 -75.432,-15.580446 -37.821245,-53.709233 17.923502,-65.492378 c 12.964791,-2.740457 35.184695,-2.980691 47.569241,-0.514305 29.800728,5.934828 56.882287,22.804344 74.815807,46.603929 7.71533,10.2389962 15.99062,27.1731633 19.22089,39.332668 2.23008,8.394544 2.59807,11.770785 2.6553,24.362582 0.0777,17.083114 -0.84373,20.468452 -8.22618,30.222044 l -4.63618,6.125203 5.00269,4.828657 c 2.75146,2.655742 10.37144,9.074234 16.93328,14.263288 11.08612,8.766872 14.86821,12.977972 14.86821,16.554622 0,1.99446 -5.47833,6.314 -15.62543,12.32042 l -8.60161,5.09152 5.76716,3.85115 c 7.17502,4.79131 13.74316,12.17648 17.51817,19.69738 3.83273,7.63577 3.76522,9.12506 -0.2766,6.09964 -1.74192,-1.30395 -4.69529,-3.14487 -6.56306,-4.09096 -3.37948,-1.71179 -3.37237,-1.69433 1.46177,3.60898 2.67169,2.93102 5.78893,7.27114 6.92718,9.64472 1.1382,2.37361 2.82612,5.85047 3.75089,7.72638 3.07345,6.23452 6.38921,16.94234 6.93406,22.3925 0.62253,6.22759 1.91104,7.1423 -10.70285,-7.59795 -4.23136,-4.94472 -7.9115,-8.77226 -8.17805,-8.50571 -0.26666,0.26666 3.37274,5.54393 8.08733,11.72755 4.71455,6.18365 8.39347,11.4214 8.17539,11.63948 -0.21804,0.21804 -4.34207,-1.13931 -9.16439,-3.01643 -11.87101,-4.62082 -19.593,-6.13791 -31.34478,-6.15799 l -9.90833,-0.0184 7.47206,7.64038 c 10.16847,10.39748 15.75538,16.47576 15.75538,17.14105 0,1.18317 -3.93428,0.45465 -10.12169,-1.87433 -3.66242,-1.37849 -10.56451,-2.8733 -15.95169,-3.45469 -5.22279,-0.56363 -13.18353,-1.43672 -17.69054,-1.94017 -9.78722,-1.09335 -13.16504,-2.76775 -18.61751,-9.22897 -4.02732,-4.77238 -20.43225,-21.92632 -20.968923,-21.92632 -0.149537,0 -0.04346,2.52315 0.236458,5.60702 0.279552,3.08384 0.0593,8.49222 -0.489786,12.01866 -1.049553,6.74147 -5.006443,17.90722 -6.354037,17.93021 -0.434908,0.007 -1.969753,-2.62654 -3.410752,-5.85317 -3.838072,-8.59428 -7.710545,-14.82364 -13.344635,-21.46662 -2.749478,-3.24181 -5.846461,-7.95434 -6.882202,-10.47225 -1.035741,-2.51792 -2.155421,-4.57968 -2.488158,-4.5817 -0.332589,-0.002 -0.901637,2.6182 -1.26417,5.8227 -0.727534,6.43028 -3.613547,15.97017 -6.605634,21.83516 -3.138861,6.15268 -13.427616,16.19109 -16.594838,16.19109 -0.174213,0 -0.140696,-4.71415 0.07477,-10.47589 0.466583,-12.49232 -1.513483,-30.72966 -3.040152,-28.00162 -3.205968,5.72871 -5.838064,19.06907 -6.430021,32.58939 l -0.616855,14.08915 -4.027313,-4.71776 z m 28.723514,-34.82787 c 3.642239,-10.56289 6.043179,-20.65474 7.482631,-31.45163 l 0.641753,-4.81333 3.85181,8.22412 c 2.118516,4.52322 7.278989,13.48637 11.467735,19.91808 4.188782,6.43172 8.590856,13.22887 9.782431,15.10482 l 2.166471,3.41075 -0.553174,-8.77052 c -0.304229,-4.8238 -1.493042,-13.59432 -2.641819,-19.49006 -1.14874,-5.89574 -2.14113,-13.90002 -2.205291,-17.7873 -0.0744,-4.51374 -0.488534,-6.92802 -1.14583,-6.68095 -0.675455,0.25377 -0.909777,-1.67134 -0.681716,-5.60075 l 0.34769,-5.98756 -3.013376,5.84701 c -1.657347,3.21587 -4.465535,7.03994 -6.240449,8.49796 l -3.227035,2.65091 4.353529,-8.98516 c 5.38673,-11.11769 7.038921,-15.66908 7.108901,-19.58365 0.05304,-2.96395 0.103128,-2.92841 1.89458,1.34067 l 1.840106,4.38524 0.166478,-9.25776 c 0.2604,-14.47448 1.955315,-4.73264 2.030562,11.6706 0.103129,22.43588 5.098817,33.87426 23.095796,52.87931 6.247926,6.59787 12.894696,13.8482 14.770606,16.11183 2.84973,3.43871 4.3725,4.34631 9.25777,5.51774 6.62158,1.58778 22.0111,2.45133 21.23245,1.19139 -1.23861,-2.00408 -18.37476,-12.40679 -22.04713,-13.38397 -8.10998,-2.158 -16.95222,-7.70645 -23.844657,-14.96239 -5.409565,-5.69486 -7.356998,-8.66227 -10.319547,-15.72461 -2.008426,-4.78778 -4.278504,-11.09946 -5.044601,-14.02595 -1.452011,-5.54675 -1.709869,-16.30563 -0.491443,-20.50343 0.627536,-2.16205 0.889777,-1.81959 2.33015,3.04265 4.920957,16.61192 19.378978,27.63838 38.672018,29.49336 l 6.33426,0.60901 -6.8215,-3.41808 c -10.44934,-5.2359 -11.02495,-5.87121 -12.07281,-13.32507 -0.54547,-3.88024 -0.5679,-9.18123 -0.0556,-13.15576 0.47188,-3.66128 0.87228,-6.98577 0.88981,-7.38775 0.0549,-1.25843 3.89196,-0.79936 7.14544,0.85486 2.85117,1.44965 2.72152,1.19047 -1.51124,-3.02096 -4.93403,-4.90914 -7.82608,-11.93174 -7.37132,-17.89949 l 0.23314,-3.0607 2.96052,2.75982 c 3.68368,3.43392 8.37352,6.67367 13.03021,9.00127 3.89269,1.94574 2.92004,2.21811 -3.49178,0.9777 -2.27789,-0.44066 -4.14164,-0.44165 -4.14164,-0.002 0,1.58957 9.08605,7.68804 14.46888,9.71138 11.20675,4.2125 22.02875,3.45723 34.79767,-2.42842 6.54755,-3.01827 11.15256,-7.10304 11.15256,-9.89292 0,-1.75621 -5.86399,-2.71733 -11.9924,-1.96559 -17.43537,2.13869 -31.55129,1.50703 -33.40661,-1.49489 -0.34327,-0.55538 0.52069,-0.61269 2.19564,-0.14585 4.92346,1.37268 14.28178,0.66157 21.08428,-1.60218 3.64408,-1.21264 6.49377,-2.59467 6.33271,-3.07109 -0.70658,-2.08978 -12.93514,-10.125256 -23.68094,-15.560898 -6.43171,-3.25337 -13.33852,-7.224404 -15.34842,-8.824405 -2.37549,-1.891081 -3.65439,-2.434936 -3.65439,-1.554035 0,2.105183 3.75067,12.496993 5.44234,15.078813 1.43706,2.193211 1.41898,2.263301 -0.34106,1.32137 -2.91827,-1.561806 -9.0476,-8.770594 -10.58425,-12.448301 -0.76757,-1.837049 -2.28934,-7.798351 -3.38169,-13.2474 -1.09236,-5.449011 -2.25122,-10.365807 -2.57523,-10.926162 -0.32412,-0.560393 0.29981,-0.240879 1.38667,0.710186 1.08672,0.951029 2.74068,3.14365 3.6755,4.872524 0.93478,1.728875 3.64662,4.633192 6.02631,6.453998 4.28705,3.280295 20.96954,11.956931 21.66433,11.267776 0.19853,-0.197049 -0.9416,-2.022901 -2.53379,-4.057515 C 133.41324,73.47158 129.06685,66.82731 124.745,58.909883 114.57503,40.278811 108.0625,32.646092 96.608321,25.933462 90.960382,22.623555 76.453048,17.698031 75.413587,18.737455 c -0.237563,0.237564 1.380043,1.918778 3.594873,3.735754 16.562979,13.587649 22.946,25.395707 19.332051,35.762693 -0.985061,2.825682 -0.819245,3.235065 2.486019,6.137099 1.9478,1.710201 4.24127,4.469586 5.09661,6.131943 1.53665,2.986599 1.50427,2.975881 -2.72966,-0.905689 -2.35664,-2.160504 -5.750813,-4.532863 -7.542596,-5.271925 -3.01949,-1.24546 -3.199191,-1.564016 -2.456592,-4.355114 0.440616,-1.656242 0.802412,-6.182918 0.803923,-10.059257 0.0029,-8.001367 -0.509087,-8.828973 -7.947151,-12.840079 -4.01258,-2.163782 -5.172001,-3.521763 -8.094182,-9.480265 C 76.036704,23.677307 73.072167,19.418434 71.173425,17.847567 62.386072,10.577565 52.655537,0.35473853 48.234568,-6.2517792 42.193305,-15.279642 37.225608,-18.872305 31.668017,-18.232872 c -2.143893,0.246772 -5.694604,1.003771 -7.890467,1.68243 -2.249194,0.695122 -4.802212,0.901085 -5.847013,0.471702 -1.661804,-0.683005 -1.570573,-0.86197 0.87777,-1.72195 3.55701,-1.249401 3.141034,-4.056483 -0.665768,-4.492827 -3.661464,-0.419696 -6.926658,0.446509 -8.8199114,2.339763 -1.3902081,1.390208 -1.5299103,1.074193 -1.5299103,-3.460585 0,-11.048701 6.9507087,-16.515941 17.4150037,-13.6982 4.873886,1.312405 11.23017,7.288319 19.882572,18.69282 6.132495,8.083059 22.457468,22.5530832 31.87313,28.2515183 3.221659,1.9497537 8.819507,4.3207127 12.439646,5.2688317 9.874253,2.585982 15.798241,5.671916 22.458501,11.69911 6.32096,5.720129 14.39886,17.075969 19.72199,27.724863 2.9263,5.854086 9.89178,16.629644 14.48118,22.402258 l 1.92787,2.424917 1.0065,-2.647196 c 3.53023,-9.285242 3.84979,-35.228451 0.57925,-47.029769 -4.4926,-16.211089 -18.82425,-39.3158354 -32.40199,-52.236833 -20.399139,-19.412428 -42.004103,-28.758181 -68.981396,-29.8396 -15.697362,-0.62925 -28.782371,1.24543 -43.3257636,6.207237 -12.1841821,4.156912 -17.3849854,6.68284 -27.7732964,13.488879 -28.919569,18.947005 -47.224829,52.231743 -47.256025,85.926269 -0.03315,35.210698 20.557363,66.148124 60.8125516,91.373854 4.7762091,2.993 8.84142138,5.2844 9.03375591,5.09203 1.1939694,-1.19397 3.23399709,-16.93641 3.23399709,-24.95593 0,-20.46985 -4.0511057,-34.69524 -14.1598646,-49.721752 -9.218982,-13.703964 -11.711044,-18.634976 -13.033703,-25.789953 -1.552451,-8.398043 0.860459,-21.980463 3.904848,-21.980463 0.552878,0 2.409964,1.071431 4.126868,2.381015 4.331946,3.304124 10.6459109,4.641037 13.2626475,2.808187 2.45375689,-1.718672 2.58152565,-5.565583 0.5392881,-16.238087 -1.7523362,-9.1575836 -1.8689818,-17.08749692 -0.3270645,-22.2339371 1.0074543,-3.3626498 0.9256145,-3.9498557 -0.7308859,-5.2441539 -1.7596657,-1.374887 -1.7134789,-1.423062 0.8144936,-0.849668 3.23097691,0.732838 3.39159944,-0.181948 0.5610187,-3.19503 -2.5432208,-2.707121 -0.971875,-3.005125 2.21947113,-0.420911 2.01303017,1.630056 2.13369037,2.123967 1.08248017,4.431134 -0.65070353,1.428108 -1.13220281,4.8781959 -1.0700311,7.6668624 0.0622454,2.78866639 0.29833582,4.19323879 0.52518154,3.12125558 C 0.86145547,-1.6067274 1.2604152,-3.4816023 1.5211828,-4.7011696 c 0.6357867,-2.9736715 3.8581819,-6.0658674 6.3212571,-6.0658674 2.5668301,0 4.2690381,4.0463917 5.7393181,13.6430447 1.387519,9.0566283 4.532163,16.0952543 9.691458,21.6924023 6.015776,6.526336 7.310958,15.645688 3.839434,27.032687 -1.497019,4.910387 -2.262822,5.354576 -5.391112,3.127039 -4.062303,-2.892642 -8.770815,-3.454729 -14.4160657,-1.72103 -8.919799,2.739386 -13.2204387,1.620074 -18.9800513,-4.939741 -2.964205,-3.376057 -5.869775,-8.809967 -5.869775,-10.977543 0,-0.511959 1.281849,0.351005 2.848554,1.91771 2.187944,2.187943 3.742236,2.848555 6.7022064,2.848555 2.2365979,0 4.362701,-0.613357 5.0667735,-1.461772 1.0396819,-1.252716 0.7174792,-1.461735 -2.2534667,-1.461735 -4.5803019,0 -8.3549502,-1.502176 -11.6331812,-4.629583 l -2.679866,-2.55659 7.73e-4,5.298481 c 0.0013,8.432369 3.972544,15.530847 15.5736822,27.836794 C 3.5163496,72.76865 6.7885779,77.1059 9.4002685,82.535796 12.935511,89.88587 13.360842,92.788051 10.194652,87.955784 7.7943011,84.292368 -0.01233699,76.027398 -2.1556773,74.880315 c -1.3137088,-0.703078 -0.9192794,0.583817 1.59082974,5.19038 8.55914406,15.707749 10.62197056,39.643045 6.39635676,74.216555 -1.1316872,9.2592 -1.920767,18.99496 -1.7535516,21.63513 0.2806566,4.43341 0.5204671,3.8321 3.136467,-7.86826 1.5578286,-6.96769 3.3848224,-15.0804 4.0599454,-18.02829 l 1.227523,-5.35976 0.08177,6.4449 c 0.04493,3.54467 -0.363159,8.78989 -0.906609,11.65609 -2.0189235,10.64561 -2.9734508,23.04883 -2.3380692,30.38049 0.3598445,4.15379 0.9670132,7.55239 1.3489202,7.55239 0.381943,0 1.244134,-1.86375 1.915979,-4.14164 2.7985,-9.48811 13.710151,-30.94044 15.73773,-30.94044 0.489639,0 0.890256,1.32284 0.890256,2.93964 0,1.61679 0.895081,8.51903 1.989053,15.33829 1.093971,6.81929 2.019991,16.12512 2.05778,20.67964 l 0.06887,8.28099 2.276855,-4.48012 c 1.252274,-2.46407 4.007423,-9.49886 6.122514,-15.6329 z M 22.388226,137.30443 c -0.700279,-1.6906 -1.986843,-6.20737 -2.859051,-10.0373 l -1.585821,-6.96346 -1.908207,4.62524 c -2.299875,5.57453 -3.372963,5.88679 -3.361324,0.97814 0.01105,-4.81072 3.388653,-24.44369 4.361743,-25.3559 0.417744,-0.39163 0.529233,3.15128 0.247877,7.87309 -0.281394,4.72181 -0.376125,8.44927 -0.210309,8.28324 0.165742,-0.16612 1.445861,-2.2752 2.844688,-4.68708 l 2.54322,-4.38524 -0.577298,4.87248 c -0.317488,2.67991 -0.2011,6.61963 0.258558,8.75498 l 0.835929,3.88246 4.643468,-8.51856 c 5.327836,-9.77403 7.864022,-16.59447 8.980608,-24.151132 0.713207,-4.826558 0.845175,-5.041249 1.463835,-2.381272 0.374025,1.607919 0.73188,5.302201 0.795304,8.209501 l 0.115283,5.285993 2.532724,-2.36249 c 5.266732,-4.912776 10.096641,-18.040731 10.17664,-27.660698 l 0.04088,-4.911381 1.761249,3.305782 1.76125,3.305745 0.555641,-4.14278 c 0.305702,-2.278512 0.296862,-5.739502 -0.01842,-7.691024 l -0.57483,-3.548244 3.448283,3.654393 c 3.941716,4.177291 6.039974,4.817792 4.788621,1.461735 -0.449677,-1.20594 -1.098723,-4.385242 -1.442361,-7.065145 l -0.624775,-4.872487 1.802464,4.478537 c 0.991359,2.463222 3.670415,7.862438 5.953457,11.99833 2.28308,4.135855 3.890631,7.780156 3.572332,8.098418 -0.318225,0.318224 -2.832164,-0.822192 -5.586467,-2.534345 -2.754302,-1.712153 -5.095097,-2.986562 -5.201798,-2.83198 -0.106811,0.154692 -0.725361,3.275101 -1.374849,6.934466 -2.172769,12.241529 -5.886681,18.148689 -6.043216,9.612012 -0.06335,-3.447584 -0.109758,-3.495759 -1.120453,-1.1606 -3.538189,8.174401 -5.219072,11.123506 -9.925817,17.414676 -2.883324,3.85394 -5.784731,8.31646 -6.447589,9.91672 -1.075814,2.59732 -1.332825,2.73496 -2.394753,1.28265 -1.061707,-1.45193 -1.301407,-1.32265 -2.229342,1.20245 -0.571884,1.55613 -2.768557,7.34609 -4.881584,12.86663 L 23.662194,140.37825 22.389,137.30443 Z M 110.6157,93.261227 c -1.95225,-2.277887 -5.31932,-7.344991 -7.48244,-11.260152 -2.16308,-3.915234 -5.43314,-9.084031 -7.266837,-11.48626 l -3.333921,-4.36771 2.700786,1.417279 c 2.971498,1.559302 8.559402,7.211329 11.756092,11.890929 2.91525,4.267565 9.02749,17.947551 8.01901,17.947551 -0.46371,0 -2.44043,-1.863751 -4.39269,-4.141637 z M 63.410432,41.997299 C 62.109651,38.971842 60.048961,34.377655 58.831125,31.78799 l -2.214167,-4.708439 2.357295,1.544569 c 1.608435,1.053862 2.23866,1.156548 1.983749,0.323013 -0.205521,-0.671735 -0.636008,-2.756218 -0.956738,-4.632124 -0.440874,-2.578469 0.489713,-1.333524 3.813653,5.101874 4.665199,9.032135 5.03182,10.023089 3.315874,8.962597 -0.756889,-0.467798 -0.89987,0.46452 -0.476896,3.109617 1.001598,6.263763 -0.657075,6.523573 -3.243463,0.508018 z M 26.978178,-2.9766781 c -2.043379,-1.5377186 -4.236,-2.982511 -4.872487,-3.210609 -0.636486,-0.2279875 -0.869115,-0.7263925 -0.516968,-1.1073047 0.895376,-0.9683392 5.720497,1.6963522 8.543712,4.7183835 3.09702,3.3150634 1.516467,3.11440494 -3.154257,-0.4004698 z m 1.336839,-4.5287377 c -6.634878,-1.4369105 -7.612499,-1.8786685 -6.537127,-2.9540032 0.8658,-0.8658 10.296379,1.524017 12.786784,3.2402951 2.218034,1.5286211 2.107356,1.5235384 -6.249657,-0.2861814 z M 172.48352,193.47693 c 0,-0.97821 -8.41565,-15.05487 -10.97497,-18.35752 -1.55749,-2.00994 -2.39759,-3.65439 -1.86684,-3.65439 0.53074,0 5.49873,1.93907 11.04001,4.30907 5.54127,2.37 10.24017,4.14392 10.44208,3.94205 0.58507,-0.58511 -4.59422,-8.98923 -7.76678,-12.60252 -1.59334,-1.81472 -8.90993,-7.9024 -16.25912,-13.5282 -7.34919,-5.62584 -14.67776,-11.60835 -16.28571,-13.29454 l -2.92351,-3.06578 4.38528,2.43799 c 2.41188,1.34093 9.20904,3.84242 15.10478,5.55895 5.89574,1.7165 11.59657,3.52102 12.66852,4.01004 1.07198,0.48901 0.41417,-0.46902 -1.46174,-2.12897 -6.10767,-5.40452 -14.58648,-8.89074 -24.06531,-9.89492 -9.23342,-0.97821 -13.19227,-1.98305 -19.30005,-4.89886 l -3.89799,-1.86088 2.9235,2.15347 c 1.60792,1.1844 6.35478,5.58647 10.54857,9.7824 8.95795,8.96251 9.28178,10.70085 2.18256,11.71638 -5.90822,0.84513 -7.21291,0.17126 -11.66364,-6.02377 l -3.5348,-4.92014 5.41321,4.4091 c 5.64735,4.59982 6.75565,5.08173 7.80012,3.39175 1.11383,-1.80225 -2.07822,-5.29491 -9.57661,-10.47855 -10.84952,-7.50027 -10.42717,-7.54719 -10.42717,1.15935 0,6.01886 0.35284,7.76604 1.87693,9.28999 1.03232,1.03231 7.5514,4.76236 14.48679,8.28895 6.93542,3.52658 14.64202,8.2008 17.12584,10.38713 4.68081,4.12024 5.80602,6.2993 2.75227,5.33008 -0.97003,-0.30791 -10.08953,-1.18716 -20.26554,-1.95392 -13.86455,-1.04469 -19.88895,-1.9131 -24.036,-3.46471 -5.58205,-2.08849 -16.548652,-9.44991 -17.66196,-11.85568 -1.226197,-2.64981 0.380507,3.81196 1.781691,7.1654 3.628279,8.68368 17.697869,19.71897 30.994879,24.31039 5.11506,1.76623 9.37622,2.22253 26.37101,2.8241 11.14859,0.39465 20.54035,0.98772 20.87062,1.31795 0.66948,0.66952 3.19908,0.82672 3.19908,0.19889 z"
       style="fill:#000000;fill-opacity:1;fill-rule:evenodd;stroke-width:1;stroke-miterlimit:4;stroke-dasharray:none;stroke:none;stroke-opacity:1" />
  </g>
</svg>
