<?xml version="1.0" encoding="UTF-8" standalone="no"?>
<svg
   xmlns:dc="http://purl.org/dc/elements/1.1/"
   xmlns:cc="http://creativecommons.org/ns#"
   xmlns:rdf="http://www.w3.org/1999/02/22-rdf-syntax-ns#"
   xmlns:svg="http://www.w3.org/2000/svg"
   xmlns="http://www.w3.org/2000/svg"
   xmlns:sodipodi="http://sodipodi.sourceforge.net/DTD/sodipodi-0.dtd"
   xmlns:inkscape="http://www.inkscape.org/namespaces/inkscape"
   sodipodi:docname="sign.svg"
   inkscape:version="1.0 (4035a4fb49, 2020-05-01)"
   id="svg8"
   version="1.1"
   viewBox="0 0 20 7"
   height="7mm"
   width="20mm">
  <defs
     id="defs2" />
  <sodipodi:namedview
     inkscape:window-maximized="1"
     inkscape:window-y="-8"
     inkscape:window-x="-8"
     inkscape:window-height="745"
     inkscape:window-width="1366"
     showgrid="false"
     inkscape:document-rotation="0"
     inkscape:current-layer="g878"
     inkscape:document-units="mm"
     inkscape:cy="32.530633"
     inkscape:cx="17.31893"
     inkscape:zoom="5.6568543"
     inkscape:pageshadow="2"
     inkscape:pageopacity="0.0"
     borderopacity="1.0"
     bordercolor="#666666"
     pagecolor="#ffffff"
     id="base" />
  <metadata
     id="metadata5">
    <rdf:RDF>
      <cc:Work
         rdf:about="">
        <dc:format>image/svg+xml</dc:format>
        <dc:type
           rdf:resource="http://purl.org/dc/dcmitype/StillImage" />
        <dc:title></dc:title>
      </cc:Work>
    </rdf:RDF>
  </metadata>
  <g
     id="layer1"
     inkscape:groupmode="layer"
     inkscape:label="Livello 1">
    <g
       id="g878">
      <g
         id="g926">
        <path
           id="path909"
           style="font-style:normal;font-variant:normal;font-weight:normal;font-stretch:normal;font-size:7.65038px;line-height:1.25;font-family:'MV Boli';-inkscape-font-specification:'MV Boli';fill:none;fill-opacity:1;stroke:#000000;stroke-width:0.392157;stroke-miterlimit:4;stroke-dasharray:none;stroke-opacity:1"
           d="m 0.21102065,5.9183596 c 0.009339,-0.036421 0.0186388,-0.072532 0.0278998,-0.1083306 0.009261,-0.035799 0.0184831,-0.071287 0.0276663,-0.1064628 0.009183,-0.035176 0.0183275,-0.070041 0.0274329,-0.104595 0.009105,-0.034554 0.0181718,-0.068796 0.0271994,-0.1027273 0.009028,-0.033931 0.0180162,-0.067551 0.0269659,-0.1008595 0.00895,-0.033309 0.0178605,-0.066306 0.0267324,-0.098992 0.008872,-0.032686 0.0177049,-0.065061 0.026499,-0.097124 0.008794,-0.032063 0.0175493,-0.063815 0.0262655,-0.095256 0.008716,-0.031441 0.0173936,-0.062706 0.026032,-0.093797 0.008638,-0.031091 0.017238,-0.062006 0.0257986,-0.092746 0.008561,-0.03074 0.0170823,-0.061306 0.0255651,-0.091696 0.008483,-0.03039 0.0169267,-0.060605 0.0253316,-0.090645 0.008405,-0.03004 0.016771,-0.059905 0.0250981,-0.089595 0.008327,-0.02969 0.0166154,-0.059204 0.0248647,-0.088544 0.008249,-0.02934 0.0164597,-0.058504 0.0246312,-0.087493 0.008171,-0.028989 0.0163041,-0.057804 0.0243977,-0.086443 0.008405,-0.02895 0.016771,-0.057784 0.0250981,-0.086501 0.008327,-0.028717 0.0166154,-0.057317 0.0248647,-0.085801 0.008249,-0.028484 0.0164597,-0.05685 0.0246312,-0.0851 0.008171,-0.02825 0.0163041,-0.056383 0.0243977,-0.0844 0.008094,-0.028017 0.0161484,-0.055916 0.0241643,-0.083699 0.008016,-0.027783 0.0159928,-0.055449 0.0239308,-0.082999 0.007938,-0.02755 0.0158371,-0.054982 0.0236973,-0.082299 0.00786,-0.027316 0.0156815,-0.054515 0.0234638,-0.081598 0.007782,-0.027083 0.0155258,-0.054224 0.0232304,-0.081423 0.007705,-0.027199 0.0153702,-0.054457 0.0229969,-0.081773 0.007627,-0.027316 0.0152145,-0.054691 0.0227634,-0.082123 0.007549,-0.027433 0.0150589,-0.054924 0.02253,-0.082474 0.007471,-0.02755 0.0149032,-0.055158 0.0222965,-0.082824 0.007393,-0.027666 0.0147476,-0.055391 0.022063,-0.083174 0.007315,-0.027783 0.0145919,-0.055624 0.0218295,-0.083524 0.007238,-0.0279 0.0144363,-0.055858 0.0215961,-0.083874 0.0028,-0.010895 0.00545,-0.021732 0.00794,-0.032511 0.00249,-0.010779 0.00483,-0.021499 0.007,-0.032161 0.00218,-0.010662 0.0042,-0.021265 0.00607,-0.03181 0.00187,-0.010545 0.00358,-0.021032 0.00514,-0.03146 0.00156,-0.010428 0.00296,-0.020798 0.0042,-0.03111 0.00125,-0.010312 0.00233,-0.020565 0.00327,-0.03076 9.338e-4,-0.010195 0.00171,-0.020331 0.00233,-0.03041 6.225e-4,-0.010078 0.00109,-0.020098 0.0014,-0.030059 6.225e-4,-0.010273 0.00136,-0.020584 0.00222,-0.030935 8.56e-4,-0.010351 0.00183,-0.02074 0.00292,-0.031168 0.00109,-0.010428 0.0023,-0.020896 0.00362,-0.031402 0.00132,-0.010506 0.00276,-0.021051 0.00432,-0.031635 0.00156,-0.010584 0.00323,-0.021207 0.00502,-0.031869 0.00179,-0.010662 0.0037,-0.021363 0.00572,-0.032102 0.00202,-0.01074 0.00416,-0.021518 0.00642,-0.032336 0.00226,-0.010817 0.00463,-0.021674 0.00712,-0.032569 0.00125,-0.00374 0.00261,-0.00741 0.00409,-0.011031 0.00148,-0.00362 0.00307,-0.00718 0.00479,-0.010681 0.00171,-0.0035 0.00354,-0.00695 0.00549,-0.010331 0.00195,-0.00339 0.00401,-0.00671 0.00619,-0.00998 0.00218,-0.00327 0.00447,-0.00648 0.00689,-0.00963 0.00241,-0.00315 0.00494,-0.00625 0.00759,-0.00928 0.00265,-0.00304 0.00541,-0.00601 0.00829,-0.00893 0.00288,-0.00292 0.00588,-0.00578 0.00899,-0.00858 0.00342,-0.00311 0.00689,-0.00617 0.010389,-0.00916 0.0035,-0.003 0.00704,-0.00593 0.010623,-0.00881 0.00358,-0.00288 0.0072,-0.0057 0.010856,-0.00846 0.00366,-0.00276 0.00735,-0.00547 0.01109,-0.00811 0.00374,-0.00265 0.00751,-0.00523 0.011323,-0.00776 0.00381,-0.00253 0.00767,-0.005 0.011557,-0.00741 0.00389,-0.00241 0.00782,-0.00477 0.01179,-0.00706 0.00397,-0.0023 0.00798,-0.00453 0.012024,-0.00671 0.00405,-0.00218 0.00811,-0.0043 0.012199,-0.00636 0.00409,-0.00206 0.00819,-0.00407 0.012316,-0.00601 0.00412,-0.00195 0.00827,-0.00383 0.012432,-0.00566 0.00416,-0.00183 0.00835,-0.0036 0.012549,-0.00531 0.0042,-0.00171 0.00842,-0.00337 0.012666,-0.00496 0.00424,-0.0016 0.0085,-0.00313 0.012783,-0.00461 0.00428,-0.00148 0.00858,-0.0029 0.012899,-0.00426 0.00432,-0.00136 0.00866,-0.00267 0.013016,-0.00391 0.00467,-0.00125 0.0093,-0.00241 0.013892,-0.0035 0.00459,-0.00109 0.00914,-0.0021 0.013658,-0.00304 0.00451,-9.339e-4 0.00899,-0.00179 0.013424,-0.00257 0.00444,-7.782e-4 0.00883,-0.00148 0.013191,-0.0021 0.00436,-6.226e-4 0.00868,-0.00117 0.012958,-0.00163 0.00428,-4.669e-4 0.00852,-8.56e-4 0.012724,-0.00117 0.0042,-3.113e-4 0.00837,-5.448e-4 0.012491,-7.004e-4 0.00412,-1.557e-4 0.00821,-2.335e-4 0.012257,-2.335e-4 0.00872,0 0.017238,1.362e-4 0.025565,4.086e-4 0.00833,2.724e-4 0.01646,6.809e-4 0.024398,0.00123 0.00794,5.448e-4 0.015681,0.00123 0.02323,0.00204 0.00755,8.172e-4 0.014903,0.00177 0.022063,0.00286 0.00716,0.00109 0.014125,0.00232 0.020896,0.00368 0.00677,0.00136 0.013347,0.00286 0.019728,0.00449 0.00638,0.00163 0.012568,0.0034 0.018561,0.00531 0.00599,0.00191 0.01179,0.00395 0.017394,0.00613 0.00591,0.00187 0.011674,0.00383 0.017277,0.0059 0.0056,0.00206 0.011051,0.00422 0.016343,0.00648 0.00529,0.00226 0.010428,0.00461 0.015409,0.00706 0.00498,0.00245 0.00981,0.005 0.014475,0.00765 0.00467,0.00265 0.00918,0.00539 0.013541,0.00823 0.00436,0.00284 0.00856,0.00578 0.012608,0.00881 0.00405,0.00304 0.00794,0.00617 0.011674,0.0094 0.00374,0.00323 0.00732,0.00656 0.01074,0.00998 0.00374,0.00342 0.00732,0.00695 0.01074,0.010565 0.00342,0.00362 0.00669,0.00733 0.00981,0.011148 0.00311,0.00381 0.00607,0.00772 0.00887,0.011732 0.0028,0.00401 0.00545,0.00811 0.00794,0.012316 0.00249,0.0042 0.00483,0.0085 0.007,0.012899 0.00218,0.0044 0.0042,0.00889 0.00607,0.013483 0.00187,0.00459 0.00358,0.00928 0.00514,0.014067 0.00156,0.00479 0.00296,0.00967 0.0042,0.01465 0.00156,0.00467 0.00302,0.00942 0.00438,0.014242 0.00136,0.00483 0.00263,0.00973 0.00379,0.014709 0.00117,0.00498 0.00224,0.010039 0.00321,0.015176 9.728e-4,0.00514 0.00185,0.010351 0.00263,0.015643 7.782e-4,0.00529 0.00146,0.010662 0.00204,0.016109 5.837e-4,0.00545 0.00107,0.010973 0.00146,0.016577 3.891e-4,0.0056 6.81e-4,0.011284 8.756e-4,0.017043 1.945e-4,0.00576 2.918e-4,0.011596 2.918e-4,0.01751 0,0.010584 -2.14e-4,0.021187 -6.42e-4,0.03181 -4.281e-4,0.010623 -0.00107,0.021265 -0.00193,0.031927 -8.561e-4,0.010662 -0.00193,0.021343 -0.00321,0.032044 -0.00128,0.010701 -0.00278,0.021421 -0.00449,0.032161 -0.00171,0.01074 -0.00364,0.021499 -0.00578,0.032277 -0.00214,0.010778 -0.00449,0.021577 -0.00706,0.032394 -0.00257,0.010817 -0.00535,0.021654 -0.00835,0.032511 -0.003,0.010856 -0.00621,0.021732 -0.00963,0.032628 -0.00342,0.010584 -0.00695,0.021304 -0.010564,0.032161 -0.00362,0.010856 -0.00733,0.021849 -0.011148,0.032978 -0.00381,0.011129 -0.00772,0.022394 -0.011732,0.033795 -0.00401,0.011401 -0.00811,0.022938 -0.012316,0.034612 -0.0042,0.011674 -0.0085,0.023483 -0.012899,0.035429 -0.0044,0.011946 -0.00889,0.024028 -0.013483,0.036246 -0.00459,0.012218 -0.00928,0.024573 -0.014067,0.037063 -0.00479,0.012491 -0.00967,0.025118 -0.01465,0.037881 0.014631,-0.011518 0.029301,-0.022958 0.044009,-0.03432 0.014709,-0.011362 0.029456,-0.022647 0.044243,-0.033853 0.014787,-0.011207 0.029612,-0.022335 0.044476,-0.033386 0.014864,-0.011051 0.029768,-0.022024 0.04471,-0.032919 0.014942,-0.010895 0.029923,-0.021713 0.044943,-0.032452 0.01502,-0.01074 0.030079,-0.021402 0.045177,-0.031986 0.015098,-0.010584 0.030234,-0.02109 0.04541,-0.031519 0.015176,-0.010428 0.03039,-0.020779 0.045644,-0.031052 0.015565,-0.010273 0.031168,-0.02039 0.046811,-0.030351 0.015643,-0.00996 0.031324,-0.019767 0.047044,-0.029417 0.01572,-0.00965 0.03148,-0.019145 0.047278,-0.028483 0.015798,-0.00934 0.031635,-0.018522 0.047511,-0.02755 0.015876,-0.00903 0.031791,-0.017899 0.047745,-0.026616 0.015954,-0.00872 0.031947,-0.017277 0.047978,-0.025682 0.016032,-0.0084 0.032102,-0.016654 0.048212,-0.024748 0.016109,-0.00809 0.032258,-0.016032 0.048445,-0.023814 0.016499,-0.00778 0.033036,-0.01537 0.049613,-0.022763 0.016576,-0.00739 0.033192,-0.014592 0.049846,-0.021596 0.016654,-0.007 0.033347,-0.013814 0.05008,-0.020429 0.016732,-0.00662 0.033503,-0.013035 0.050313,-0.019261 0.01681,-0.00623 0.033659,-0.012257 0.050546,-0.018094 0.016888,-0.00584 0.033814,-0.011479 0.05078,-0.016927 0.016965,-0.00545 0.03397,-0.010701 0.051013,-0.015759 0.017043,-0.00506 0.034126,-0.00992 0.051247,-0.014592 0.017121,-0.00467 0.03432,-0.00905 0.051597,-0.013133 0.017277,-0.00409 0.034632,-0.00788 0.052064,-0.011382 0.017432,-0.0035 0.034943,-0.00671 0.052531,-0.00963 0.017588,-0.00292 0.035254,-0.00554 0.052998,-0.00788 0.017744,-0.00233 0.035565,-0.00438 0.053465,-0.00613 0.017899,-0.00175 0.035877,-0.00321 0.053932,-0.00438 0.018055,-0.00117 0.036188,-0.00204 0.054399,-0.00263 0.018211,-5.837e-4 0.036499,-8.755e-4 0.054866,-8.755e-4 0.0084,0 0.01681,1.751e-4 0.025215,5.253e-4 0.0084,3.502e-4 0.01681,8.755e-4 0.025215,0.00158 0.00841,7.005e-4 0.01681,0.00158 0.025215,0.00263 0.0084,0.00105 0.01681,0.00228 0.025215,0.00368 0.0084,0.0014 0.01681,0.00298 0.025215,0.00473 0.0084,0.00175 0.01681,0.00368 0.025215,0.00578 0.0084,0.0021 0.01681,0.00438 0.025215,0.00683 0.0084,0.00245 0.01681,0.00508 0.025215,0.00788 0.00841,0.00249 0.016693,0.00518 0.024865,0.00805 0.00817,0.00288 0.016226,0.00595 0.024164,0.00922 0.00794,0.00327 0.015759,0.00673 0.023464,0.010389 0.0077,0.00366 0.015292,0.00751 0.022763,0.011557 0.00747,0.00405 0.014825,0.00829 0.022063,0.012724 0.00724,0.00444 0.014358,0.00907 0.021363,0.013892 0.007,0.00482 0.013892,0.00984 0.020662,0.015059 0.00677,0.00521 0.013425,0.010623 0.019962,0.016226 0.00685,0.0056 0.013541,0.011421 0.020079,0.017452 0.00654,0.00603 0.012919,0.012277 0.019145,0.018736 0.00623,0.00646 0.012296,0.013133 0.018211,0.02002 0.00591,0.00689 0.011674,0.013989 0.017277,0.021304 0.0056,0.00732 0.011051,0.014845 0.016343,0.022588 0.00529,0.00774 0.010428,0.015701 0.015409,0.023872 0.00498,0.00817 0.00981,0.016557 0.014475,0.025157 0.00467,0.0086 0.00918,0.017413 0.013541,0.026441 0.00467,0.00903 0.00909,0.018308 0.01325,0.027841 0.00416,0.00953 0.00807,0.01932 0.011732,0.029359 0.00366,0.010039 0.00706,0.020331 0.010214,0.030877 0.00315,0.010545 0.00605,0.021343 0.0087,0.032394 0.00265,0.011051 0.00504,0.022355 0.00718,0.033912 0.00214,0.011557 0.00403,0.023367 0.00566,0.035429 0.00163,0.012063 0.00302,0.024378 0.00414,0.036947 0.00113,0.012569 0.002,0.02539 0.00263,0.038464 0.013386,-0.00903 0.02683,-0.018055 0.040332,-0.027083 0.013502,-0.00903 0.027063,-0.018055 0.040682,-0.027083 0.013619,-0.00903 0.027297,-0.018055 0.041033,-0.027083 0.013736,-0.00903 0.02753,-0.018055 0.041383,-0.027083 0.013853,-0.00903 0.027764,-0.018055 0.041733,-0.027083 0.013969,-0.00903 0.027997,-0.018055 0.042083,-0.027083 0.014086,-0.00903 0.028231,-0.018055 0.042433,-0.027083 0.014203,-0.00903 0.028464,-0.018055 0.042784,-0.027083 0.01432,-0.00934 0.028659,-0.018541 0.043017,-0.027608 0.014359,-0.00907 0.028736,-0.017997 0.043134,-0.026791 0.014397,-0.00879 0.028814,-0.017452 0.043251,-0.025974 0.014436,-0.00852 0.028892,-0.016907 0.043367,-0.025157 0.014475,-0.00825 0.02897,-0.016363 0.043484,-0.024339 0.014514,-0.00798 0.029048,-0.015818 0.043601,-0.023522 0.014553,-0.0077 0.029126,-0.015273 0.043717,-0.022705 0.014592,-0.00743 0.029203,-0.014728 0.043834,-0.021888 0.014942,-0.00747 0.029865,-0.014748 0.044768,-0.02183 0.014903,-0.00708 0.029787,-0.013969 0.044651,-0.020662 0.014864,-0.00669 0.029709,-0.013191 0.044535,-0.019495 0.014825,-0.0063 0.029631,-0.012413 0.044418,-0.018328 0.014787,-0.00591 0.029554,-0.011635 0.044301,-0.01716 0.014748,-0.00553 0.029476,-0.010856 0.044184,-0.015993 0.014709,-0.00514 0.029398,-0.010078 0.044068,-0.014825 0.01467,-0.00475 0.02932,-0.0093 0.043951,-0.013658 0.014942,-0.00467 0.029826,-0.00905 0.044651,-0.013133 0.014826,-0.00409 0.029593,-0.00788 0.044301,-0.011382 0.014709,-0.0035 0.029359,-0.00671 0.043951,-0.00963 0.014592,-0.00292 0.029126,-0.00554 0.043601,-0.00788 0.014475,-0.00233 0.028892,-0.00438 0.043251,-0.00613 0.014358,-0.00175 0.028659,-0.00321 0.0429,-0.00438 0.014242,-0.00117 0.028425,-0.00204 0.04255,-0.00263 0.014125,-5.837e-4 0.028192,-8.755e-4 0.0422,-8.755e-4 0.020857,0 0.041247,3.502e-4 0.061169,0.00105 0.019923,7.004e-4 0.039379,0.00175 0.058368,0.00315 0.018989,0.0014 0.037511,0.00315 0.055566,0.00525 0.018055,0.0021 0.035643,0.00455 0.052764,0.00735 0.017121,0.0028 0.033775,0.00595 0.049963,0.00946 0.016187,0.0035 0.031908,0.00735 0.047161,0.011557 0.015254,0.0042 0.03004,0.00876 0.04436,0.013658 0.01432,0.0049 0.028172,0.010156 0.041558,0.015759 0.013697,0.00529 0.027024,0.010837 0.039982,0.016635 0.012958,0.0058 0.025546,0.011849 0.037764,0.018152 0.012218,0.0063 0.024067,0.01286 0.035546,0.01967 0.011479,0.00681 0.022588,0.013872 0.033328,0.021187 0.01074,0.00732 0.02111,0.014884 0.03111,0.022705 0.01,0.00782 0.019631,0.015896 0.028892,0.024223 0.00926,0.00833 0.018152,0.016907 0.026674,0.02574 0.00852,0.00883 0.016674,0.017919 0.024456,0.027258 0.00809,0.00903 0.015876,0.01825 0.023347,0.027666 0.00747,0.00942 0.014631,0.019028 0.021479,0.028834 0.00685,0.00981 0.013386,0.019806 0.019611,0.030001 0.00623,0.010195 0.012141,0.020584 0.017744,0.031168 0.0056,0.010584 0.010895,0.021363 0.015876,0.032336 0.00498,0.010973 0.00965,0.022141 0.014008,0.033503 0.00436,0.011362 0.0084,0.022919 0.01214,0.03467 0.00374,0.011751 0.00716,0.023697 0.010273,0.035838 0.00342,0.012141 0.00663,0.024378 0.00963,0.036713 0.003,0.012335 0.00578,0.024767 0.00835,0.037297 0.00257,0.01253 0.00492,0.025157 0.00706,0.037881 0.00214,0.012724 0.00407,0.025546 0.00578,0.038464 0.00171,0.012919 0.00321,0.025935 0.00449,0.039048 0.00128,0.013113 0.00235,0.026324 0.00321,0.039632 8.561e-4,0.013308 0.0015,0.026713 0.00193,0.040215 4.28e-4,0.013502 6.42e-4,0.027102 6.42e-4,0.040799 0,0.014942 -1.751e-4,0.029943 -5.253e-4,0.045002 -3.502e-4,0.015059 -8.755e-4,0.030176 -0.00158,0.045352 -7.005e-4,0.015176 -0.00158,0.03041 -0.00263,0.045702 -0.00105,0.015292 -0.00228,0.030643 -0.00368,0.046052 -0.0014,0.015409 -0.00298,0.030876 -0.00473,0.046402 -0.00175,0.015526 -0.00368,0.03111 -0.00578,0.046753 -0.0021,0.015643 -0.00438,0.031343 -0.00683,0.047103 -0.00245,0.015759 -0.00508,0.031577 -0.00788,0.047453 -0.0028,0.015876 -0.00564,0.031655 -0.00852,0.047336 -0.00288,0.015681 -0.0058,0.031266 -0.00876,0.046753 -0.00296,0.015487 -0.00595,0.030877 -0.00899,0.046169 -0.00304,0.015292 -0.00611,0.030488 -0.00922,0.045585 -0.00311,0.015098 -0.00626,0.030098 -0.00946,0.045002 -0.00319,0.014903 -0.00642,0.029709 -0.00969,0.044418 -0.00327,0.014709 -0.00658,0.02932 -0.00992,0.043834 -0.00335,0.014514 -0.00673,0.028931 -0.010156,0.043251 -0.00903,0.03611 -0.018191,0.071987 -0.027491,0.1076302 -0.0093,0.035643 -0.018736,0.071053 -0.028308,0.1062293 -0.00957,0.035176 -0.019281,0.070119 -0.029126,0.1048285 -0.00984,0.034709 -0.019826,0.069185 -0.029943,0.1034277 -0.010117,0.034242 -0.02037,0.068251 -0.03076,0.1020269 -0.010389,0.033775 -0.020915,0.067318 -0.031577,0.100626 -0.010662,0.033309 -0.02146,0.066384 -0.032394,0.099225 -0.010934,0.032842 -0.022005,0.06545 -0.033211,0.097824 -0.011207,0.032063 -0.02253,0.064185 -0.03397,0.096365 -0.01144,0.03218 -0.022997,0.064419 -0.03467,0.096715 -0.011674,0.032297 -0.023464,0.064652 -0.035371,0.097066 -0.011907,0.032413 -0.023931,0.064885 -0.036071,0.097416 -0.012141,0.03253 -0.024398,0.065119 -0.036772,0.097766 -0.012374,0.032647 -0.024865,0.065352 -0.037472,0.098116 -0.012607,0.032764 -0.025332,0.065586 -0.038172,0.098466 -0.012841,0.032881 -0.025798,0.065819 -0.038873,0.098817 -0.00311,0.00778 -0.00625,0.015623 -0.0094,0.023522 -0.00315,0.0079 -0.00632,0.015857 -0.00951,0.023872 -0.00319,0.00802 -0.0064,0.01609 -0.00963,0.024223 -0.00323,0.00813 -0.00648,0.016324 -0.00975,0.024573 -0.00327,0.00825 -0.00656,0.016557 -0.00986,0.024923 -0.00331,0.00837 -0.00663,0.01679 -0.00998,0.025273 -0.00335,0.00848 -0.00671,0.017024 -0.010098,0.025623 -0.00339,0.0086 -0.00679,0.017257 -0.010214,0.025974 -0.00342,0.00872 -0.00693,0.017355 -0.010506,0.025915 -0.00358,0.00856 -0.00724,0.017043 -0.010973,0.025448 -0.00374,0.0084 -0.00755,0.016732 -0.01144,0.024981 -0.00389,0.00825 -0.00786,0.016421 -0.011907,0.024515 -0.00405,0.00809 -0.00817,0.016109 -0.012374,0.024047 -0.0042,0.00794 -0.00848,0.015798 -0.012841,0.023581 -0.00436,0.00778 -0.00879,0.015487 -0.013308,0.023114 -0.00451,0.00763 -0.00911,0.015176 -0.013775,0.022647 -0.00436,0.00716 -0.00883,0.014183 -0.013425,0.021071 -0.00459,0.00689 -0.0093,0.013639 -0.014125,0.020254 -0.00483,0.00661 -0.00977,0.013094 -0.014825,0.019436 -0.00506,0.00634 -0.010234,0.012549 -0.015526,0.018619 -0.00529,0.00607 -0.010701,0.012004 -0.016226,0.017802 -0.00553,0.0058 -0.011168,0.01146 -0.016927,0.016985 -0.00576,0.00553 -0.011635,0.010915 -0.017627,0.016168 -0.00599,0.00525 -0.012101,0.01037 -0.018327,0.015351 -0.00591,0.00467 -0.011965,0.00905 -0.018152,0.013133 -0.00619,0.00409 -0.01251,0.00788 -0.018969,0.011382 -0.00646,0.0035 -0.013055,0.00671 -0.019787,0.00963 -0.00673,0.00292 -0.0136,0.00554 -0.020604,0.00788 -0.007,0.00233 -0.014144,0.00438 -0.021421,0.00613 -0.00728,0.00175 -0.014689,0.00321 -0.022238,0.00438 -0.00755,0.00117 -0.015234,0.00204 -0.023055,0.00263 -0.00782,5.837e-4 -0.015779,8.755e-4 -0.023873,8.755e-4 -0.018366,0 -0.036013,-3.891e-4 -0.05294,-0.00117 -0.016927,-7.782e-4 -0.033133,-0.00195 -0.04862,-0.0035 -0.015487,-0.00156 -0.030254,-0.0035 -0.044301,-0.00584 -0.014047,-0.00233 -0.027374,-0.00506 -0.039982,-0.00817 -0.012607,-0.00311 -0.024495,-0.00662 -0.035663,-0.010506 -0.011168,-0.00389 -0.021616,-0.00817 -0.031344,-0.012841 -0.00973,-0.00467 -0.018736,-0.00973 -0.027024,-0.015176 -0.00829,-0.00545 -0.015857,-0.011284 -0.022705,-0.01751 -0.00685,-0.00623 -0.013269,-0.012783 -0.019261,-0.01967 -0.00599,-0.00689 -0.011557,-0.014106 -0.016693,-0.021655 -0.00514,-0.00755 -0.00984,-0.015429 -0.014125,-0.023639 -0.00428,-0.00821 -0.00813,-0.016751 -0.011557,-0.025623 -0.00342,-0.00887 -0.00642,-0.018075 -0.00899,-0.027608 -0.00257,-0.00953 -0.00471,-0.019398 -0.00642,-0.029592 -0.00171,-0.010195 -0.003,-0.02072 -0.00385,-0.031577 -8.561e-4,-0.010856 -0.00128,-0.022043 -0.00128,-0.033561 0,-0.00311 1.95e-5,-0.00628 5.84e-5,-0.00951 3.9e-5,-0.00323 9.74e-5,-0.00652 1.753e-4,-0.00986 7.8e-5,-0.00335 1.754e-4,-0.00675 2.922e-4,-0.010214 1.169e-4,-0.00346 2.533e-4,-0.00698 4.091e-4,-0.010565 1.558e-4,-0.00358 3.311e-4,-0.00722 5.259e-4,-0.010915 1.948e-4,-0.0037 4.091e-4,-0.00745 6.428e-4,-0.011265 2.338e-4,-0.00381 4.87e-4,-0.00769 7.597e-4,-0.011615 2.727e-4,-0.00393 5.649e-4,-0.00792 8.766e-4,-0.011965 3.117e-4,-0.00405 6.817e-4,-0.00807 0.00111,-0.012082 4.283e-4,-0.00401 9.149e-4,-0.008 0.00146,-0.011965 5.449e-4,-0.00397 0.00115,-0.00792 0.00181,-0.011849 6.616e-4,-0.00393 0.00138,-0.00784 0.00216,-0.011732 7.783e-4,-0.00389 0.00161,-0.00776 0.00251,-0.011615 8.949e-4,-0.00385 0.00185,-0.00769 0.00286,-0.011498 0.00101,-0.00381 0.00208,-0.00761 0.00321,-0.011382 0.00113,-0.00377 0.00231,-0.00753 0.00356,-0.011265 0.00125,-0.00467 0.00268,-0.00959 0.00432,-0.014767 0.00163,-0.00518 0.00346,-0.010604 0.00549,-0.016285 0.00202,-0.00568 0.00424,-0.011615 0.00665,-0.017802 0.00241,-0.00619 0.00502,-0.012627 0.00782,-0.01932 0.0028,-0.00669 0.0058,-0.013639 0.00899,-0.020837 0.00319,-0.0072 0.00658,-0.01465 0.010156,-0.022355 0.00358,-0.0077 0.00735,-0.015662 0.011323,-0.023872 0.00397,-0.00821 0.00813,-0.016674 0.012491,-0.02539 0.00436,-0.00903 0.00875,-0.018133 0.01319,-0.027316 0.00444,-0.00918 0.00891,-0.018444 0.013424,-0.027783 0.00451,-0.00934 0.00907,-0.018756 0.013657,-0.02825 0.00459,-0.00949 0.00922,-0.019067 0.013891,-0.028717 0.00467,-0.00965 0.00938,-0.019378 0.014124,-0.029184 0.00475,-0.00981 0.00953,-0.019689 0.014358,-0.029651 0.00482,-0.00996 0.00969,-0.020001 0.014592,-0.030118 0.0049,-0.010117 0.00984,-0.020312 0.014825,-0.030585 0.00529,-0.010273 0.010565,-0.020545 0.015818,-0.030818 0.00525,-0.010273 0.010487,-0.020545 0.015701,-0.030818 0.00521,-0.010273 0.010409,-0.020545 0.015584,-0.030818 0.00518,-0.010273 0.010331,-0.020545 0.015467,-0.030818 0.00514,-0.010273 0.010253,-0.020545 0.015351,-0.030818 0.0051,-0.010273 0.010175,-0.020545 0.015234,-0.030818 0.00506,-0.010273 0.010098,-0.020545 0.015117,-0.030818 0.00502,-0.010273 0.01002,-0.020545 0.015001,-0.030818 0.00498,-0.010584 0.00981,-0.020993 0.014475,-0.031227 0.00467,-0.010234 0.00918,-0.020292 0.013541,-0.030176 0.00436,-0.00988 0.00856,-0.019592 0.012607,-0.029126 0.00405,-0.00953 0.00794,-0.018892 0.011674,-0.028075 0.00374,-0.00918 0.00732,-0.018191 0.01074,-0.027024 0.00342,-0.00883 0.00669,-0.017491 0.00981,-0.025974 0.00311,-0.00848 0.00607,-0.01679 0.00887,-0.024923 0.0028,-0.00813 0.00545,-0.01609 0.00794,-0.023872 0.00405,-0.013386 0.00817,-0.027024 0.012374,-0.040916 0.0042,-0.013892 0.00848,-0.028036 0.012841,-0.042433 0.00436,-0.014397 0.00879,-0.029048 0.013308,-0.043951 0.00451,-0.014903 0.00911,-0.030059 0.013775,-0.045469 0.00467,-0.015409 0.00942,-0.031071 0.014242,-0.046986 0.00483,-0.015915 0.00973,-0.032083 0.014709,-0.048504 0.00498,-0.016421 0.010039,-0.033094 0.015176,-0.050021 0.00514,-0.016927 0.010351,-0.034106 0.015643,-0.051539 0.0056,-0.017744 0.011168,-0.035488 0.016693,-0.053231 0.00553,-0.017744 0.011012,-0.035488 0.01646,-0.053231 0.00545,-0.017744 0.010856,-0.035488 0.016226,-0.053231 0.00537,-0.017744 0.010701,-0.035488 0.015993,-0.053231 0.00529,-0.017744 0.010545,-0.035488 0.015759,-0.053231 0.00521,-0.017744 0.01039,-0.035488 0.015526,-0.053231 0.00514,-0.017744 0.010234,-0.035488 0.015292,-0.053231 0.00506,-0.017744 0.010078,-0.035488 0.015059,-0.053231 0.00498,-0.018055 0.00984,-0.035974 0.014592,-0.053757 0.00475,-0.017783 0.00938,-0.035429 0.013892,-0.05294 0.00451,-0.01751 0.00891,-0.034884 0.013191,-0.052122 0.00428,-0.017238 0.00844,-0.03434 0.012491,-0.051305 0.00405,-0.016966 0.00798,-0.033795 0.01179,-0.050488 0.00381,-0.016693 0.00751,-0.03325 0.01109,-0.049671 0.00358,-0.016421 0.00704,-0.032705 0.010389,-0.048854 0.00335,-0.016148 0.00658,-0.032161 0.00969,-0.048037 0.00342,-0.016187 0.00663,-0.031985 0.00963,-0.047395 0.003,-0.015409 0.00578,-0.030429 0.00835,-0.04506 0.00257,-0.014631 0.00492,-0.028873 0.00706,-0.042725 0.00214,-0.013853 0.00407,-0.027316 0.00578,-0.04039 0.00171,-0.013074 0.00321,-0.02576 0.00449,-0.038056 0.00128,-0.012296 0.00235,-0.024203 0.00321,-0.035721 8.561e-4,-0.011518 0.0015,-0.022647 0.00193,-0.033386 4.28e-4,-0.01074 6.42e-4,-0.02109 6.42e-4,-0.031052 0,-0.00467 -5.84e-5,-0.00934 -1.751e-4,-0.014008 -1.167e-4,-0.00467 -2.919e-4,-0.00934 -5.253e-4,-0.014008 -2.335e-4,-0.00467 -5.254e-4,-0.00934 -8.756e-4,-0.014008 -3.502e-4,-0.00467 -7.588e-4,-0.00934 -0.00123,-0.014008 -4.669e-4,-0.00467 -9.922e-4,-0.00934 -0.00158,-0.014008 -5.837e-4,-0.00467 -0.00123,-0.00934 -0.00193,-0.014008 -7.005e-4,-0.00467 -0.00146,-0.00934 -0.00228,-0.014008 -8.171e-4,-0.00467 -0.00169,-0.00934 -0.00263,-0.014008 -9.339e-4,-0.00467 -0.00197,-0.00926 -0.00309,-0.013775 -0.00113,-0.00451 -0.00235,-0.00895 -0.00368,-0.013308 -0.00132,-0.00436 -0.00274,-0.00864 -0.00426,-0.012841 -0.00152,-0.0042 -0.00313,-0.00833 -0.00484,-0.012374 -0.00171,-0.00405 -0.00352,-0.00802 -0.00543,-0.011907 -0.00191,-0.00389 -0.00391,-0.0077 -0.00601,-0.01144 -0.0021,-0.00374 -0.0043,-0.00739 -0.0066,-0.010973 -0.0023,-0.00358 -0.00469,-0.00708 -0.00718,-0.010506 -0.00218,-0.00342 -0.00449,-0.00677 -0.00695,-0.010039 -0.00245,-0.00327 -0.00504,-0.00646 -0.00776,-0.00957 -0.00272,-0.00311 -0.00558,-0.00615 -0.00858,-0.00911 -0.003,-0.00296 -0.00613,-0.00584 -0.0094,-0.00864 -0.00327,-0.0028 -0.00667,-0.00553 -0.010214,-0.00817 -0.00354,-0.00265 -0.00722,-0.00521 -0.011031,-0.0077 -0.00381,-0.00249 -0.00776,-0.0049 -0.011849,-0.00724 -0.00409,-0.00233 -0.00831,-0.00459 -0.012666,-0.00677 -0.00405,-0.00218 -0.00825,-0.00422 -0.012607,-0.00613 -0.00436,-0.00191 -0.00887,-0.00368 -0.013541,-0.00531 -0.00467,-0.00163 -0.00949,-0.00313 -0.014475,-0.00449 -0.00498,-0.00136 -0.010117,-0.00259 -0.015409,-0.00368 -0.00529,-0.00109 -0.01074,-0.00204 -0.016343,-0.00286 -0.0056,-8.172e-4 -0.011362,-0.0015 -0.017277,-0.00204 -0.00591,-5.448e-4 -0.011985,-9.533e-4 -0.018211,-0.00123 -0.00623,-2.724e-4 -0.012607,-4.086e-4 -0.019145,-4.086e-4 -0.00934,0 -0.018911,3.308e-4 -0.028717,9.923e-4 -0.00981,6.615e-4 -0.019845,0.00165 -0.030118,0.00298 -0.010273,0.00132 -0.020779,0.00298 -0.031519,0.00496 -0.01074,0.00198 -0.021713,0.0043 -0.032919,0.00695 -0.011207,0.00265 -0.022647,0.00562 -0.03432,0.00893 -0.011673,0.00331 -0.023581,0.00695 -0.035721,0.010915 -0.012141,0.00397 -0.024514,0.00827 -0.037122,0.012899 -0.012607,0.00463 -0.025448,0.00959 -0.038523,0.014884 -0.012763,0.00529 -0.025604,0.010798 -0.038523,0.016518 -0.012919,0.00572 -0.025915,0.011654 -0.03899,0.017802 -0.013074,0.00615 -0.026227,0.01251 -0.039457,0.019086 -0.01323,0.00658 -0.026538,0.013366 -0.039924,0.02037 -0.013386,0.007 -0.026849,0.014222 -0.04039,0.021654 -0.013541,0.00743 -0.02716,0.015078 -0.040857,0.022939 -0.013697,0.00786 -0.027472,0.015934 -0.041324,0.024223 -0.013853,0.00829 -0.027783,0.01679 -0.041791,0.025507 -0.013697,0.00841 -0.027355,0.016966 -0.040974,0.025682 -0.013619,0.00872 -0.027199,0.017588 -0.040741,0.026616 -0.013541,0.00903 -0.027044,0.018211 -0.040507,0.02755 -0.013463,0.00934 -0.026888,0.018833 -0.040274,0.028484 -0.013386,0.00965 -0.026732,0.019456 -0.04004,0.029417 -0.013308,0.00996 -0.026577,0.020079 -0.039807,0.030351 -0.01323,0.010273 -0.026421,0.020701 -0.039573,0.031285 -0.013152,0.010584 -0.026266,0.021324 -0.03934,0.032219 -0.013074,0.010584 -0.025915,0.021168 -0.038523,0.031752 -0.012607,0.010584 -0.024981,0.021168 -0.037122,0.031752 -0.012141,0.010584 -0.024048,0.021168 -0.035721,0.031752 -0.011674,0.010584 -0.023114,0.021168 -0.03432,0.031752 -0.011207,0.010584 -0.02218,0.021168 -0.032919,0.031752 -0.01074,0.010584 -0.021246,0.021168 -0.031519,0.031752 -0.010273,0.010584 -0.020312,0.021168 -0.030118,0.031752 -0.00981,0.010584 -0.019378,0.021168 -0.028717,0.031752 -0.00654,0.00747 -0.013035,0.014767 -0.019495,0.021888 -0.00646,0.00712 -0.01288,0.014067 -0.019261,0.020837 -0.00638,0.00677 -0.012724,0.013366 -0.019028,0.019787 -0.0063,0.00642 -0.012568,0.012666 -0.018794,0.018736 -0.00623,0.00607 -0.012413,0.011965 -0.018561,0.017685 -0.00615,0.00572 -0.012257,0.011265 -0.018327,0.016635 -0.00607,0.00537 -0.012102,0.010565 -0.018094,0.015584 -0.00599,0.00502 -0.011946,0.00986 -0.017861,0.014533 -0.00591,0.00467 -0.011829,0.0092 -0.017744,0.0136 -0.00591,0.0044 -0.011829,0.00866 -0.017744,0.012783 -0.00591,0.00412 -0.011829,0.00811 -0.017744,0.011965 -0.00591,0.00385 -0.011829,0.00757 -0.017744,0.011148 -0.00591,0.00358 -0.011829,0.00702 -0.017744,0.010331 -0.00591,0.00331 -0.011829,0.00648 -0.017744,0.00951 -0.00591,0.00304 -0.011829,0.00593 -0.017744,0.0087 -0.00591,0.00276 -0.011829,0.00539 -0.017744,0.00788 -6.225e-4,0.00125 -0.00136,0.00286 -0.00222,0.00484 -8.56e-4,0.00198 -0.00183,0.00434 -0.00292,0.00706 -0.00109,0.00272 -0.0023,0.00582 -0.00362,0.00928 -0.00132,0.00346 -0.00276,0.0073 -0.00432,0.011499 -0.00156,0.0042 -0.00323,0.00877 -0.00502,0.013716 -0.00179,0.00494 -0.0037,0.010253 -0.00572,0.015934 -0.00202,0.00568 -0.00416,0.011732 -0.00642,0.018152 -0.00226,0.00642 -0.00463,0.013211 -0.00712,0.02037 -0.00249,0.00685 -0.00504,0.013892 -0.00765,0.021129 -0.00261,0.00724 -0.00527,0.01467 -0.008,0.022296 -0.00272,0.00763 -0.00551,0.015448 -0.00835,0.023464 -0.00284,0.00802 -0.00574,0.016226 -0.0087,0.024631 -0.00296,0.0084 -0.00597,0.017004 -0.00905,0.025798 -0.00307,0.00879 -0.00621,0.017783 -0.0094,0.026966 -0.00319,0.00918 -0.00644,0.018561 -0.00975,0.028133 -0.00331,0.00957 -0.00667,0.019339 -0.010098,0.029301 -0.00342,0.00965 -0.00687,0.019417 -0.010331,0.029301 -0.00346,0.00988 -0.00695,0.019884 -0.010448,0.030001 -0.0035,0.010117 -0.00702,0.020351 -0.010565,0.030701 -0.00354,0.010351 -0.0071,0.020818 -0.010681,0.031402 -0.00358,0.010584 -0.00718,0.021285 -0.010798,0.032102 -0.00362,0.010817 -0.00726,0.021752 -0.010915,0.032803 -0.00366,0.011051 -0.00733,0.022219 -0.011032,0.033503 -0.0037,0.011284 -0.00741,0.022686 -0.011148,0.034204 -0.00374,0.011207 -0.00745,0.022335 -0.011148,0.033386 -0.0037,0.011051 -0.00737,0.022024 -0.011031,0.032919 -0.00366,0.010895 -0.0073,0.021713 -0.010915,0.032452 -0.00362,0.01074 -0.00722,0.021401 -0.010798,0.031986 -0.00358,0.010584 -0.00714,0.02109 -0.010681,0.031519 -0.00354,0.010428 -0.00706,0.020779 -0.010564,0.031052 -0.0035,0.010273 -0.00698,0.020468 -0.010448,0.030585 -0.00346,0.010117 -0.00691,0.020156 -0.010331,0.030118 -0.00311,0.00965 -0.00617,0.019125 -0.00916,0.028425 -0.003,0.0093 -0.00593,0.018425 -0.00881,0.027375 -0.00288,0.00895 -0.0057,0.017724 -0.00846,0.026324 -0.00276,0.0086 -0.00547,0.017024 -0.00811,0.025273 -0.00265,0.00825 -0.00523,0.016324 -0.00776,0.024223 -0.00253,0.0079 -0.005,0.015623 -0.00741,0.023172 -0.00241,0.00755 -0.00477,0.014923 -0.00706,0.022121 -0.0023,0.0072 -0.00453,0.014222 -0.00671,0.021071 -0.00218,0.00654 -0.00422,0.012705 -0.00613,0.018503 -0.00191,0.0058 -0.00368,0.011226 -0.00531,0.016285 -0.00163,0.00506 -0.00313,0.00975 -0.00449,0.014067 -0.00136,0.00432 -0.00259,0.00827 -0.00368,0.011849 -0.00109,0.00358 -0.00204,0.00679 -0.00286,0.00963 -8.172e-4,0.00284 -0.0015,0.00531 -0.00204,0.00741 -5.448e-4,0.0021 -9.533e-4,0.00383 -0.00123,0.00519 -2.724e-4,0.00136 -4.086e-4,0.00235 -4.086e-4,0.00298 -0.00218,0.00872 -0.00432,0.017471 -0.00642,0.026266 -0.0021,0.00879 -0.00416,0.017627 -0.00619,0.026499 -0.00202,0.00887 -0.00401,0.017783 -0.00595,0.026732 -0.00195,0.00895 -0.00385,0.017938 -0.00572,0.026966 -0.00187,0.00903 -0.0037,0.018094 -0.00549,0.027199 -0.00179,0.00911 -0.00354,0.01825 -0.00525,0.027433 -0.00171,0.00918 -0.00339,0.018405 -0.00502,0.027666 -0.00163,0.00926 -0.00323,0.018561 -0.00479,0.0279 -0.00156,0.00903 -0.00309,0.018016 -0.00461,0.026966 -0.00152,0.00895 -0.00302,0.017861 -0.00449,0.026732 -0.00148,0.00887 -0.00294,0.017705 -0.00438,0.026499 -0.00144,0.00879 -0.00286,0.017549 -0.00426,0.026266 -0.0014,0.00872 -0.00278,0.017394 -0.00414,0.026032 -0.00136,0.00864 -0.0027,0.017238 -0.00403,0.025799 -0.00132,0.00856 -0.00263,0.017082 -0.00391,0.025565 -0.00128,0.00848 -0.00255,0.016927 -0.00379,0.025332 -0.00125,0.0084 -0.00249,0.016888 -0.00374,0.025448 -0.00125,0.00856 -0.00249,0.017199 -0.00374,0.025915 -0.00125,0.00872 -0.00249,0.01751 -0.00374,0.026382 -0.00125,0.00887 -0.00249,0.017822 -0.00374,0.026849 -0.00125,0.00903 -0.00249,0.018133 -0.00374,0.027316 -0.00125,0.00918 -0.00249,0.018444 -0.00374,0.027783 -0.00125,0.00934 -0.00249,0.018756 -0.00374,0.02825 -0.00125,0.00949 -0.00249,0.019067 -0.00374,0.028717 -9.339e-4,0.00934 -0.00202,0.018619 -0.00327,0.027841 -0.00125,0.00922 -0.00265,0.018386 -0.0042,0.027491 -0.00156,0.00911 -0.00327,0.018152 -0.00514,0.027141 -0.00187,0.00899 -0.00389,0.017919 -0.00607,0.026791 -0.00218,0.00887 -0.00451,0.017685 -0.007,0.026441 -0.00249,0.00876 -0.00514,0.017452 -0.00794,0.02609 -0.0028,0.00864 -0.00576,0.017218 -0.00887,0.02574 -0.00311,0.00852 -0.00638,0.016985 -0.00981,0.02539 -0.00311,0.00809 -0.00646,0.016012 -0.010039,0.023756 -0.00358,0.00774 -0.00739,0.015312 -0.01144,0.022705 -0.00405,0.00739 -0.00833,0.014611 -0.012841,0.021654 -0.00451,0.00704 -0.00926,0.013911 -0.014242,0.020604 -0.00498,0.00669 -0.010195,0.013211 -0.015643,0.019553 -0.00545,0.00634 -0.011129,0.01251 -0.017043,0.018503 -0.00591,0.00599 -0.012063,0.01181 -0.018444,0.017452 -0.00638,0.00564 -0.012997,0.011109 -0.019845,0.016401 -0.00654,0.00529 -0.013425,0.010253 -0.020662,0.014884 -0.00724,0.00463 -0.014825,0.00893 -0.022763,0.012899 -0.00794,0.00397 -0.016226,0.00761 -0.024865,0.010915 -0.00864,0.00331 -0.017627,0.00628 -0.026966,0.00893 -0.00934,0.00265 -0.019028,0.00496 -0.029067,0.00695 -0.010039,0.00198 -0.020429,0.00364 -0.031168,0.00496 -0.01074,0.00132 -0.02183,0.00232 -0.03327,0.00298 -0.01144,6.615e-4 -0.02323,9.923e-4 -0.035371,9.923e-4 -0.00623,0 -0.012393,-1.946e-4 -0.018503,-5.837e-4 -0.00611,-3.891e-4 -0.01216,-9.728e-4 -0.018152,-0.00175 -0.00599,-7.782e-4 -0.011926,-0.00175 -0.017802,-0.00292 -0.00588,-0.00117 -0.011693,-0.00253 -0.017452,-0.00409 -0.00576,-0.00156 -0.01146,-0.00331 -0.017102,-0.00525 -0.00564,-0.00195 -0.011226,-0.00409 -0.016751,-0.00642 -0.00553,-0.00233 -0.010993,-0.00486 -0.016401,-0.00759 -0.00541,-0.00272 -0.010759,-0.00564 -0.016051,-0.00876 -0.00498,-0.00311 -0.00988,-0.00632 -0.014709,-0.00963 -0.00483,-0.00331 -0.00957,-0.00671 -0.014242,-0.010214 -0.00467,-0.0035 -0.00926,-0.0071 -0.013775,-0.010798 -0.00451,-0.0037 -0.00895,-0.00749 -0.013308,-0.011382 -0.00436,-0.00389 -0.00864,-0.00788 -0.012841,-0.011965 -0.0042,-0.00409 -0.00833,-0.00827 -0.012374,-0.012549 -0.00405,-0.00428 -0.00802,-0.00866 -0.011907,-0.013133 -0.00389,-0.00447 -0.0077,-0.00905 -0.01144,-0.013716 -0.00374,-0.00498 -0.00737,-0.01002 -0.010915,-0.015117 -0.00354,-0.0051 -0.00698,-0.010253 -0.010331,-0.015467 -0.00335,-0.00521 -0.0066,-0.010487 -0.00975,-0.015818 -0.00315,-0.00533 -0.00621,-0.01072 -0.00916,-0.016168 -0.00296,-0.00545 -0.00582,-0.010954 -0.00858,-0.016518 -0.00276,-0.00556 -0.00543,-0.011187 -0.008,-0.016868 -0.00257,-0.00568 -0.00504,-0.011421 -0.00741,-0.017219 -0.00237,-0.0058 -0.00465,-0.011654 -0.00683,-0.017569 -0.00218,-0.00623 -0.00424,-0.012452 -0.00619,-0.018678 -0.00195,-0.00623 -0.00377,-0.012452 -0.00549,-0.018678 -0.00171,-0.00623 -0.00331,-0.012452 -0.00479,-0.018678 -0.00148,-0.00623 -0.00284,-0.012452 -0.00409,-0.018678 -0.00125,-0.00623 -0.00237,-0.012452 -0.00339,-0.018678 -0.00101,-0.00623 -0.00191,-0.012452 -0.00268,-0.018678 -7.783e-4,-0.00623 -0.00144,-0.012452 -0.00198,-0.018678 -5.448e-4,-0.00623 -9.728e-4,-0.012452 -0.00128,-0.018678 0.00716,-0.028017 0.0143,-0.055683 0.021421,-0.082999 0.00712,-0.027316 0.014222,-0.054282 0.021304,-0.080898 0.00708,-0.026616 0.014145,-0.052881 0.021187,-0.078796 0.00704,-0.025915 0.014067,-0.05148 0.021071,-0.076695 0.007,-0.025215 0.013989,-0.050079 0.020954,-0.074594 0.00697,-0.024514 0.013911,-0.048679 0.020837,-0.072493 0.00693,-0.023814 0.013833,-0.047278 0.020721,-0.070391 0.00689,-0.023114 0.013755,-0.045877 0.020604,-0.06829 0.00685,-0.022413 0.013697,-0.04471 0.020546,-0.06689 0.00685,-0.02218 0.013697,-0.044243 0.020545,-0.066189 0.00685,-0.021946 0.013697,-0.043776 0.020545,-0.065489 0.00685,-0.021713 0.013697,-0.043309 0.020545,-0.064788 0.00685,-0.021479 0.013697,-0.042842 0.020545,-0.064088 0.00685,-0.021246 0.013697,-0.042375 0.020545,-0.063387 0.00685,-0.021012 0.013697,-0.041908 0.020545,-0.062687 0.00685,-0.020779 0.013697,-0.041441 0.020545,-0.061987 0.00685,-0.020545 0.013658,-0.041091 0.020429,-0.061636 0.00677,-0.020545 0.013502,-0.041091 0.020195,-0.061636 0.00669,-0.020546 0.013347,-0.041091 0.019962,-0.061636 0.00662,-0.020545 0.013191,-0.041091 0.019728,-0.061636 0.00654,-0.020545 0.013035,-0.041091 0.019495,-0.061636 0.00646,-0.020545 0.01288,-0.041091 0.019261,-0.061636 0.00638,-0.020545 0.012724,-0.041091 0.019028,-0.061636 0.0063,-0.020545 0.012568,-0.041091 0.018794,-0.061636 0.00654,-0.020857 0.013055,-0.041966 0.019553,-0.063329 0.0065,-0.021363 0.012977,-0.042978 0.019437,-0.064847 0.00646,-0.021869 0.012899,-0.04399 0.01932,-0.066364 0.00642,-0.022374 0.012821,-0.045002 0.019203,-0.067882 0.00638,-0.02288 0.012744,-0.046013 0.019086,-0.069399 0.00634,-0.023386 0.012666,-0.047025 0.01897,-0.070917 0.0063,-0.023892 0.012588,-0.048037 0.018853,-0.072434 0.00626,-0.024398 0.01251,-0.049048 0.018736,-0.073952 0.00156,-0.00591 0.00307,-0.01181 0.00455,-0.017685 0.00148,-0.00588 0.00292,-0.011732 0.00432,-0.017569 0.0014,-0.00584 0.00276,-0.011654 0.00409,-0.017452 0.00132,-0.0058 0.00261,-0.011576 0.00385,-0.017335 0.00125,-0.00576 0.00245,-0.011499 0.00362,-0.017218 0.00117,-0.00572 0.0023,-0.011421 0.00339,-0.017102 0.00109,-0.00568 0.00214,-0.011343 0.00315,-0.016985 0.00101,-0.00564 0.00198,-0.011265 0.00292,-0.016868 9.339e-4,-0.00591 0.00181,-0.011732 0.00263,-0.017452 8.172e-4,-0.00572 0.00158,-0.011343 0.00228,-0.016868 7.004e-4,-0.00553 0.00134,-0.010954 0.00193,-0.016285 5.837e-4,-0.00533 0.00111,-0.010565 0.00158,-0.015701 4.669e-4,-0.00514 8.755e-4,-0.010175 0.00123,-0.015117 3.502e-4,-0.00494 6.421e-4,-0.00979 8.756e-4,-0.014534 2.334e-4,-0.00475 4.086e-4,-0.0094 5.253e-4,-0.01395 1.167e-4,-0.00455 1.751e-4,-0.00901 1.751e-4,-0.013366 0,-0.00747 -1.946e-4,-0.014767 -5.837e-4,-0.021888 -3.891e-4,-0.00712 -9.728e-4,-0.014067 -0.00175,-0.020837 -7.782e-4,-0.00677 -0.00175,-0.013366 -0.00292,-0.019787 -0.00117,-0.00642 -0.00253,-0.012666 -0.00409,-0.018736 -0.00156,-0.00607 -0.00331,-0.011965 -0.00525,-0.017685 -0.00195,-0.00572 -0.00409,-0.011265 -0.00642,-0.016635 -0.00233,-0.00537 -0.00486,-0.010565 -0.00759,-0.015584 -0.00272,-0.00502 -0.00564,-0.00986 -0.00876,-0.014533 -0.00311,-0.00498 -0.00652,-0.00965 -0.010214,-0.014008 -0.0037,-0.00436 -0.00769,-0.0084 -0.011965,-0.01214 -0.00428,-0.00374 -0.00885,-0.00716 -0.013716,-0.010273 -0.00486,-0.00311 -0.01002,-0.00591 -0.015467,-0.00841 -0.00545,-0.00249 -0.011187,-0.00467 -0.017219,-0.00654 -0.00603,-0.00187 -0.012354,-0.00342 -0.018969,-0.00467 -0.00662,-0.00125 -0.013522,-0.00218 -0.020721,-0.0028 -0.0072,-6.226e-4 -0.014689,-9.339e-4 -0.022472,-9.339e-4 -0.012763,0 -0.025526,3.307e-4 -0.038289,9.923e-4 -0.012763,6.615e-4 -0.025526,0.00165 -0.038289,0.00298 -0.012763,0.00132 -0.025526,0.00298 -0.038289,0.00496 -0.012763,0.00198 -0.025526,0.0043 -0.038289,0.00695 -0.012763,0.00265 -0.025526,0.00562 -0.038289,0.00893 -0.012763,0.00331 -0.025526,0.00695 -0.038289,0.010915 -0.012763,0.00397 -0.025526,0.00827 -0.038289,0.012899 -0.012763,0.00463 -0.025526,0.00959 -0.038289,0.014884 -0.012452,0.00498 -0.02504,0.010331 -0.037764,0.016051 -0.012724,0.00572 -0.025585,0.01181 -0.038581,0.018269 -0.012997,0.00646 -0.026129,0.013288 -0.039398,0.020487 -0.013269,0.0072 -0.026674,0.014767 -0.040215,0.022705 -0.013541,0.00794 -0.027219,0.016246 -0.041033,0.024923 -0.013814,0.00868 -0.027764,0.017724 -0.04185,0.027141 -0.014086,0.00942 -0.028308,0.019203 -0.042667,0.029359 -0.014359,0.010156 -0.028853,0.020682 -0.043484,0.031577 -0.014631,0.010895 -0.029476,0.02216 -0.044535,0.033795 -0.015059,0.011635 -0.030332,0.023639 -0.045819,0.036013 -0.015487,0.012374 -0.031188,0.025118 -0.047103,0.038231 -0.015915,0.013113 -0.032044,0.026596 -0.048387,0.040449 -0.016343,0.013853 -0.0329,0.028075 -0.049671,0.042667 -0.016771,0.014592 -0.033756,0.029554 -0.050955,0.044885 -0.017199,0.015331 -0.034612,0.031032 -0.052239,0.047103 -0.017627,0.016071 -0.035468,0.032511 -0.053523,0.049321 -0.017744,0.01681 -0.035838,0.034028 -0.054282,0.051656 -0.018444,0.017627 -0.037239,0.035663 -0.056383,0.054107 -0.019145,0.018444 -0.038639,0.037297 -0.058484,0.056558 -0.019845,0.019261 -0.04004,0.038931 -0.060586,0.05901 -0.020546,0.020078 -0.041441,0.040566 -0.062687,0.061461 -0.021246,0.020896 -0.042842,0.0422 -0.064788,0.063913 -0.021946,0.021713 -0.044243,0.043834 -0.066889,0.066364 -0.022647,0.02253 -0.045644,0.045468 -0.068991,0.068816 -0.00249,0.00467 -0.00508,0.00984 -0.00776,0.015526 -0.00268,0.00568 -0.00547,0.011868 -0.00835,0.018561 -0.00288,0.00669 -0.00586,0.013891 -0.00893,0.021596 -0.00307,0.0077 -0.00625,0.015915 -0.00951,0.024631 -0.00327,0.00872 -0.00663,0.017938 -0.010098,0.027666 -0.00346,0.00973 -0.00702,0.019962 -0.010681,0.030701 -0.00366,0.01074 -0.00741,0.021985 -0.011265,0.033737 -0.00385,0.011751 -0.0078,0.024009 -0.011849,0.036772 -0.00405,0.012763 -0.00811,0.025624 -0.012199,0.038581 -0.00409,0.012958 -0.00819,0.026013 -0.012316,0.039165 -0.00412,0.013152 -0.00827,0.026402 -0.012432,0.039748 -0.00416,0.013347 -0.00835,0.026791 -0.012549,0.040332 -0.0042,0.013541 -0.00842,0.02718 -0.012666,0.040916 -0.00424,0.013736 -0.0085,0.027569 -0.012782,0.0415 -0.00428,0.01393 -0.00858,0.027958 -0.012899,0.042083 -0.00432,0.014125 -0.00866,0.028347 -0.013016,0.042667 -0.00405,0.01432 -0.00805,0.028522 -0.012024,0.042609 -0.00397,0.014086 -0.0079,0.028055 -0.01179,0.041908 -0.00389,0.013853 -0.00774,0.027588 -0.011557,0.041208 -0.00381,0.013619 -0.00759,0.027122 -0.011323,0.040507 -0.00374,0.013386 -0.00743,0.026655 -0.01109,0.039807 -0.00366,0.013152 -0.00728,0.026188 -0.010856,0.039106 -0.00358,0.012919 -0.00712,0.025721 -0.010623,0.038406 -0.0035,0.012685 -0.00697,0.025254 -0.010389,0.037706 -0.00342,0.012141 -0.00669,0.023775 -0.00981,0.034904 -0.00311,0.011129 -0.00607,0.021752 -0.00887,0.031869 -0.0028,0.010117 -0.00545,0.019728 -0.00794,0.028834 -0.00249,0.00911 -0.00483,0.017705 -0.007,0.025799 -0.00218,0.00809 -0.0042,0.015681 -0.00607,0.022763 -0.00187,0.00708 -0.00358,0.013658 -0.00514,0.019728 -0.00156,0.00607 -0.00296,0.011635 -0.0042,0.016693 -0.00125,0.00506 -0.00233,0.00961 -0.00327,0.013658 -0.00342,0.013074 -0.00671,0.025896 -0.00986,0.038464 -0.00315,0.012569 -0.00617,0.024884 -0.00905,0.036947 -0.00288,0.012063 -0.00562,0.023872 -0.00823,0.035429 -0.00261,0.011557 -0.00508,0.022861 -0.00741,0.033912 -0.00233,0.011051 -0.00453,0.021849 -0.0066,0.032394 -0.00206,0.010545 -0.003988,0.020837 -0.005778,0.030877 -0.00179,0.010039 -0.003444,0.019826 -0.004961,0.029359 -0.001518,0.00953 -0.002899,0.018814 -0.004144,0.027841 -0.001245,0.00872 -0.002471,0.017335 -0.003677,0.025857 -0.001206,0.00852 -0.002393,0.016946 -0.00356,0.025273 -0.001167,0.00833 -0.002315,0.016557 -0.003444,0.02469 -0.001128,0.00813 -0.002237,0.016168 -0.003327,0.024106 -0.00109,0.00794 -0.00216,0.015779 -0.00321,0.023522 -0.001051,0.00774 -0.002082,0.01539 -0.003094,0.022939 -0.001012,0.00755 -0.002004,0.015001 -0.002977,0.022355 -9.728e-4,0.00735 -0.001926,0.014611 -0.00286,0.021771 -6.2258e-4,0.00374 -0.001284,0.00778 -0.001984,0.01214 -7.0041e-4,0.00436 -0.00144,0.00903 -0.002218,0.014008 -7.7823e-4,0.00498 -0.001595,0.010273 -0.002451,0.015876 -8.5606e-4,0.0056 -0.001751,0.011518 -0.002685,0.017744 -9.3388e-4,0.00623 -0.001907,0.012763 -0.002918,0.019612 -0.001012,0.00685 -0.002062,0.014008 -0.003152,0.021479 -0.00109,0.00747 -0.002218,0.015254 -0.003385,0.023347 -0.001167,0.00809 -0.002374,0.016499 -0.003619,0.025215 -0.001245,0.0084 -0.002627,0.016829 -0.004144,0.025273 -0.001518,0.00844 -0.003171,0.016907 -0.004961,0.02539 -0.00179,0.00848 -0.003716,0.016985 -0.005778,0.025507 -0.002062,0.00852 -0.004261,0.017063 -0.006596,0.025624 -0.002335,0.00856 -0.004806,0.017141 -0.007413,0.02574 -0.002607,0.0086 -0.00535,0.017218 -0.00823,0.025857 -0.002879,0.00864 -0.005895,0.017296 -0.009047,0.025974 -0.003152,0.00868 -0.00644,0.017374 -0.009864,0.02609 -0.003113,0.00872 -0.006401,0.017296 -0.009864,0.02574 -0.003463,0.00844 -0.007101,0.016752 -0.0109148,0.024923 -0.003813,0.00817 -0.007802,0.016207 -0.0119654,0.024106 -0.004164,0.0079 -0.008502,0.015662 -0.013016,0.023289 -0.004514,0.00763 -0.009203,0.015117 -0.0140666,0.022472 -0.004864,0.00735 -0.009903,0.014572 -0.0151172,0.021654 -0.005214,0.00708 -0.0106035,0.014028 -0.0161679,0.020837 -0.005564,0.00681 -0.0113039,0.013483 -0.0172185,0.02002 -0.005915,0.00685 -0.0120627,0.013269 -0.0184442,0.019261 -0.006382,0.00599 -0.0129966,0.011557 -0.019845,0.016693 -0.006848,0.00514 -0.0139304,0.00984 -0.0212459,0.014125 -0.007315,0.00428 -0.0148643,0.00813 -0.0226467,0.011557 -0.007782,0.00342 -0.0157982,0.00642 -0.0240475,0.00899 -0.008249,0.00257 -0.0167321,0.00471 -0.0254483,0.00642 -0.008716,0.00171 -0.017666,0.003 -0.0268492,0.00385 -0.009183,8.561e-4 -0.0185999,0.00128 -0.02825,0.00128 -0.0143196,0 -0.0283278,-4.864e-4 -0.0420248,-0.00146 -0.013697,-9.728e-4 -0.0270826,-0.00243 -0.040157,-0.00438 -0.0130744,-0.00195 -0.0258375,-0.00438 -0.0382893,-0.0073 -0.0124518,-0.00292 -0.0245923,-0.00632 -0.0364215,-0.010215 -0.0118292,-0.00389 -0.0233471,-0.00827 -0.0345537,-0.013133 -0.0112066,-0.00486 -0.0221019,-0.010214 -0.0326859,-0.016051 -0.010584,-0.00584 -0.0208568,-0.01216 -0.0308182,-0.01897 -0.009961,-0.00681 -0.0196116,-0.014106 -0.0289504,-0.021888 -0.009028,-0.00778 -0.0174908,-0.015818 -0.0253899,-0.024106 -0.007899,-0.00829 -0.0152339,-0.016829 -0.0220046,-0.025623 -0.006771,-0.00879 -0.012977,-0.017841 -0.0186192,-0.027141 -0.005642,-0.0093 -0.0107202,-0.018853 -0.0152339,-0.028658 -0.004514,-0.00981 -0.008463,-0.019864 -0.0118486,-0.030176 -0.003385,-0.010312 -0.006206,-0.020876 -0.008463,-0.031694 -0.002257,-0.010817 -0.00395,-0.021888 -0.005078,-0.033211 -0.001128,-0.011323 -0.001693,-0.0229 -0.001693,-0.034729 0,-0.00218 1.946e-5,-0.00434 5.837e-5,-0.00648 3.892e-5,-0.00214 9.73e-5,-0.00426 1.7513e-4,-0.00636 7.783e-5,-0.0021 1.7512e-4,-0.00418 2.9188e-4,-0.00625 1.1674e-4,-0.00206 2.5295e-4,-0.00411 4.0862e-4,-0.00613 1.5567e-4,-0.00202 3.3079e-4,-0.00403 5.2538e-4,-0.00601 1.9458e-4,-0.00198 4.0862e-4,-0.00395 6.4212e-4,-0.0059 2.335e-4,-0.00195 4.8646e-4,-0.00387 7.5888e-4,-0.00578 2.7241e-4,-0.00191 5.6429e-4,-0.00379 8.7562e-4,-0.00566 3.1133e-4,-0.00187 6.4212e-4,-0.00375 9.9235e-4,-0.00566 3.5023e-4,-0.00191 7.1991e-4,-0.00383 0.001109,-0.00578 3.8913e-4,-0.00195 7.9771e-4,-0.00391 0.001226,-0.0059 4.2803e-4,-0.00198 8.755e-4,-0.00399 0.001342,-0.00601 4.6692e-4,-0.00202 9.5329e-4,-0.00407 0.001459,-0.00613 5.0582e-4,-0.00206 0.001031,-0.00414 0.001576,-0.00625 5.4472e-4,-0.0021 0.001109,-0.00422 0.001692,-0.00636 5.8361e-4,-0.00214 0.001187,-0.0043 0.001809,-0.00648 z"
           sodipodi:nodetypes="cssssssssssssssscssssssssssssssscssssssscssssssscssssssscssssssssssssssscssssssssssssssscssssssscssssssscssssssssssssssscssssssscssssssscssssssscssssssssssssssssssssssscssssssscssssssscssssssscssssssscssssssscssssssscssssssssssssssscssssssscssssssscssssssssssssssssssssssscssssssscssssssscssssssssssssssscssssssscssssssssssssssssssssssssssssssssssssssscssssssscssssssscssssssscssssssscssssssscssssssscssssssscssssssssssssssssssssssscssssssscssssssssssssssscssssssscssssssscssssssscssssssssssssssscssssssscssssssscssssssscssssssscssssssscssssssscssssssscssssssssssssssscssssssscssssssscssssssssssssssscssssssscssssssscssssssscssssssssssssssssssssssscssssssscssssssscssssssssssssssscssssssssssssssscssssssssssssssscssssssscssssssssssssssscssssssscssssssscssssssscssssssscssssssscssssssscssssssscssssssssssssssscsssssssssssssssssssssssc" />
        <path
           id="path911"
           style="font-style:normal;font-variant:normal;font-weight:normal;font-stretch:normal;font-size:7.65038px;line-height:1.25;font-family:'MV Boli';-inkscape-font-specification:'MV Boli';fill:none;fill-opacity:1;stroke:#000000;stroke-width:0.392157;stroke-miterlimit:4;stroke-dasharray:none;stroke-opacity:1"
           d="m 6.7930371,4.70431 c 0.00591,-0.02397 0.012179,-0.048076 0.018794,-0.072318 0.00662,-0.024242 0.01358,-0.04862 0.020896,-0.073135 0.00732,-0.024514 0.014981,-0.049165 0.022997,-0.073952 0.00802,-0.024787 0.016382,-0.04971 0.025098,-0.074769 0.00872,-0.025059 0.017783,-0.050255 0.027199,-0.075586 0.00942,-0.025332 0.019184,-0.050799 0.029301,-0.076403 0.010117,-0.025604 0.020584,-0.051344 0.031402,-0.07722 0.010817,-0.025876 0.021985,-0.051889 0.033503,-0.078038 0.011829,-0.026149 0.02395,-0.052181 0.036363,-0.078096 0.012413,-0.025915 0.025118,-0.051714 0.038114,-0.077396 0.012996,-0.025682 0.026285,-0.051247 0.039865,-0.076695 0.01358,-0.025448 0.027452,-0.05078 0.041616,-0.075995 0.014164,-0.025215 0.02862,-0.050313 0.043367,-0.075294 0.014748,-0.024981 0.029787,-0.049846 0.045118,-0.074594 0.015331,-0.024748 0.030954,-0.049379 0.046869,-0.073894 0.015915,-0.024514 0.032122,-0.048912 0.04862,-0.073193 0.016499,-0.024592 0.03327,-0.048932 0.050313,-0.073018 0.017043,-0.024086 0.034359,-0.04792 0.051947,-0.0715 0.017588,-0.023581 0.035449,-0.046908 0.053582,-0.069983 0.018133,-0.023075 0.036538,-0.045897 0.055216,-0.068465 0.018678,-0.022569 0.037628,-0.044885 0.05685,-0.066948 0.019223,-0.022063 0.038717,-0.043873 0.058485,-0.06543 0.019767,-0.021557 0.039807,-0.042861 0.060119,-0.063913 0.020312,-0.021051 0.040896,-0.04185 0.061753,-0.062395 0.021168,-0.020857 0.04257,-0.041227 0.064205,-0.061111 0.021635,-0.019884 0.043503,-0.039281 0.065605,-0.058193 0.022102,-0.018911 0.044437,-0.037336 0.067006,-0.055274 0.022569,-0.017938 0.045371,-0.03539 0.068407,-0.052356 0.023036,-0.016965 0.046305,-0.033445 0.069808,-0.049437 0.023503,-0.015993 0.047239,-0.031499 0.071209,-0.046519 0.02397,-0.01502 0.048173,-0.029554 0.07261,-0.043601 0.024437,-0.014047 0.049107,-0.027608 0.07401,-0.040682 0.00809,-0.00436 0.016285,-0.00858 0.024573,-0.012666 0.00829,-0.00409 0.016674,-0.00804 0.025157,-0.011849 0.00848,-0.00381 0.017063,-0.00749 0.02574,-0.011031 0.00868,-0.00354 0.017452,-0.00695 0.026324,-0.010214 0.00887,-0.00327 0.017841,-0.0064 0.026908,-0.0094 0.00907,-0.003 0.01823,-0.00586 0.027491,-0.00858 0.00926,-0.00272 0.018619,-0.00531 0.028075,-0.00776 0.00946,-0.00245 0.019008,-0.00477 0.028659,-0.00695 0.00965,-0.00218 0.01932,-0.00422 0.029009,-0.00613 0.00969,-0.00191 0.019398,-0.00368 0.029126,-0.00531 0.00973,-0.00163 0.019475,-0.00313 0.029242,-0.00449 0.00977,-0.00136 0.019553,-0.00259 0.029359,-0.00368 0.00981,-0.00109 0.019631,-0.00204 0.029476,-0.00286 0.00984,-8.172e-4 0.019709,-0.0015 0.029593,-0.00204 0.00988,-5.448e-4 0.019787,-9.533e-4 0.029709,-0.00123 0.00992,-2.724e-4 0.019865,-4.086e-4 0.029826,-4.086e-4 0.010273,0 0.020448,1.167e-4 0.030526,3.502e-4 0.010078,2.335e-4 0.020059,5.837e-4 0.029943,0.00105 0.00988,4.67e-4 0.01967,0.00105 0.029359,0.00175 0.00969,7.004e-4 0.019281,0.00152 0.028775,0.00245 0.00949,9.338e-4 0.018892,0.00198 0.028192,0.00315 0.0093,0.00117 0.018503,0.00245 0.027608,0.00385 0.00911,0.0014 0.018113,0.00292 0.027024,0.00455 0.00891,0.00163 0.017724,0.00339 0.026441,0.00525 0.00903,0.00187 0.01788,0.00389 0.026557,0.00607 0.00868,0.00218 0.01718,0.00451 0.025507,0.007 0.00833,0.00249 0.016479,0.00514 0.024456,0.00794 0.00798,0.0028 0.015779,0.00576 0.023405,0.00887 0.00763,0.00311 0.015078,0.00638 0.022355,0.00981 0.00728,0.00342 0.014378,0.007 0.021304,0.01074 0.00693,0.00374 0.013678,0.00763 0.020254,0.011674 0.00658,0.00405 0.012977,0.00825 0.019203,0.012608 0.00654,0.00436 0.012899,0.00887 0.019086,0.013541 0.00619,0.00467 0.012199,0.00949 0.018036,0.014475 0.00584,0.00498 0.011498,0.010117 0.016985,0.015409 0.00549,0.00529 0.010798,0.01074 0.015934,0.016343 0.00514,0.0056 0.010098,0.011362 0.014884,0.017277 0.00479,0.00591 0.0094,0.011985 0.013833,0.018211 0.00444,0.00623 0.0087,0.012607 0.012783,0.019145 0.00409,0.00654 0.008,0.01323 0.011732,0.020079 0.00374,0.00685 0.00724,0.013892 0.010506,0.021129 0.00327,0.00724 0.0063,0.01467 0.00911,0.022297 0.0028,0.00763 0.00537,0.015448 0.0077,0.023464 0.00233,0.00802 0.00444,0.016226 0.0063,0.024631 0.00187,0.0084 0.0035,0.017005 0.0049,0.025799 0.0014,0.00879 0.00257,0.017783 0.0035,0.026966 9.339e-4,0.00918 0.00163,0.018561 0.0021,0.028133 4.669e-4,0.00957 7.004e-4,0.019339 7.004e-4,0.029301 0,0.00747 -1.362e-4,0.014962 -4.086e-4,0.022472 -2.724e-4,0.00751 -6.809e-4,0.01504 -0.00123,0.022588 -5.448e-4,0.00755 -0.00123,0.015117 -0.00204,0.022705 -8.172e-4,0.00759 -0.00177,0.015195 -0.00286,0.022822 -0.00109,0.00763 -0.00232,0.015273 -0.00368,0.022939 -0.00136,0.00767 -0.00286,0.015351 -0.00449,0.023055 -0.00163,0.0077 -0.0034,0.015429 -0.00531,0.023172 -0.00191,0.00774 -0.00395,0.015506 -0.00613,0.023289 -0.00218,0.00747 -0.00449,0.014864 -0.00695,0.02218 -0.00245,0.00732 -0.00504,0.014553 -0.00776,0.021713 -0.00272,0.00716 -0.00558,0.014242 -0.00858,0.021246 -0.003,0.007 -0.00613,0.01393 -0.0094,0.020779 -0.00327,0.00685 -0.00667,0.013619 -0.010214,0.020312 -0.00354,0.00669 -0.00722,0.013308 -0.011031,0.019845 -0.00381,0.00654 -0.00776,0.012996 -0.011848,0.019378 -0.00409,0.00638 -0.00831,0.012685 -0.012666,0.018911 -0.00436,0.00591 -0.00885,0.011693 -0.013483,0.017335 -0.00463,0.00564 -0.0094,0.011148 -0.0143,0.016518 -0.0049,0.00537 -0.00994,0.010603 -0.015117,0.015701 -0.00518,0.0051 -0.010487,0.010059 -0.015934,0.014884 -0.00545,0.00483 -0.011031,0.00951 -0.016751,0.014067 -0.00572,0.00455 -0.011576,0.00897 -0.017569,0.01325 -0.00599,0.00428 -0.012121,0.00842 -0.018386,0.012432 -0.00626,0.00401 -0.012666,0.00788 -0.019203,0.011615 -0.00654,0.00374 -0.01321,0.00724 -0.02002,0.010506 -0.00681,0.00327 -0.013755,0.0063 -0.020837,0.00911 -0.00708,0.0028 -0.0143,0.00537 -0.021654,0.0077 -0.00735,0.00233 -0.014845,0.00444 -0.022472,0.0063 -0.00763,0.00187 -0.01539,0.0035 -0.023289,0.0049 -0.0079,0.0014 -0.015934,0.00257 -0.024106,0.0035 -0.00817,9.339e-4 -0.016479,0.00163 -0.024923,0.0021 -0.00844,4.669e-4 -0.017024,7.004e-4 -0.02574,7.004e-4 -0.00685,0 -0.013639,-1.556e-4 -0.02037,-4.669e-4 -0.00673,-3.113e-4 -0.013405,-7.783e-4 -0.02002,-0.0014 -0.00662,-6.226e-4 -0.013172,-0.0014 -0.01967,-0.00233 -0.0065,-9.339e-4 -0.012938,-0.00202 -0.01932,-0.00327 -0.00638,-0.00125 -0.012705,-0.00265 -0.01897,-0.0042 -0.00626,-0.00156 -0.012471,-0.00327 -0.018619,-0.00514 -0.00615,-0.00187 -0.012238,-0.00389 -0.018269,-0.00607 -0.00603,-0.00218 -0.012004,-0.00451 -0.017919,-0.007 -0.0056,-0.00249 -0.011187,-0.00502 -0.016752,-0.00759 -0.00556,-0.00257 -0.011109,-0.00518 -0.016635,-0.00782 -0.00553,-0.00265 -0.011031,-0.00533 -0.016518,-0.00805 -0.00549,-0.00272 -0.010954,-0.00549 -0.016401,-0.00829 -0.00545,-0.0028 -0.010876,-0.00564 -0.016285,-0.00852 -0.00541,-0.00288 -0.010798,-0.0058 -0.016168,-0.00876 -0.00537,-0.00296 -0.01072,-0.00595 -0.016051,-0.00899 -0.00533,-0.00304 -0.010642,-0.00611 -0.015934,-0.00922 -0.0028,-0.00187 -0.00558,-0.0037 -0.00835,-0.00549 -0.00276,-0.00179 -0.00551,-0.00354 -0.00823,-0.00525 -0.00272,-0.00171 -0.00543,-0.00339 -0.00811,-0.00502 -0.00268,-0.00163 -0.00535,-0.00323 -0.008,-0.00479 -0.00265,-0.00156 -0.00527,-0.00307 -0.00788,-0.00455 -0.00261,-0.00148 -0.00519,-0.00292 -0.00776,-0.00432 -0.00257,-0.0014 -0.00512,-0.00276 -0.00765,-0.00409 -0.00253,-0.00132 -0.00504,-0.00261 -0.00753,-0.00385 -0.00249,-0.00156 -0.00504,-0.00309 -0.00765,-0.00461 -0.00261,-0.00152 -0.00527,-0.00302 -0.008,-0.00449 -0.00272,-0.00148 -0.00551,-0.00294 -0.00835,-0.00438 -0.00284,-0.00144 -0.00574,-0.00286 -0.0087,-0.00426 -0.00296,-0.0014 -0.00597,-0.00278 -0.00905,-0.00414 -0.00307,-0.00136 -0.00621,-0.0027 -0.0094,-0.00403 -0.00319,-0.00132 -0.00644,-0.00263 -0.00975,-0.00391 -0.00331,-0.00128 -0.00667,-0.00255 -0.010098,-0.00379 -0.012452,0.0056 -0.024826,0.01144 -0.037122,0.01751 -0.012296,0.00607 -0.024515,0.012374 -0.036655,0.018911 -0.012141,0.00654 -0.024203,0.013308 -0.036188,0.020312 -0.011985,0.007 -0.023892,0.014242 -0.035721,0.021713 -0.011829,0.00747 -0.023581,0.015176 -0.035254,0.023114 -0.011674,0.00794 -0.023269,0.016109 -0.034787,0.024514 -0.011518,0.0084 -0.022958,0.017043 -0.03432,0.025915 -0.011362,0.00887 -0.022647,0.017977 -0.033853,0.027316 -0.010895,0.00903 -0.021713,0.018191 -0.032452,0.027491 -0.01074,0.0093 -0.021401,0.018736 -0.031985,0.028308 -0.010584,0.00957 -0.02109,0.019281 -0.031519,0.029126 -0.010428,0.00984 -0.020779,0.019826 -0.031052,0.029943 -0.010273,0.010117 -0.020468,0.02037 -0.030585,0.03076 -0.010117,0.010389 -0.020156,0.020915 -0.030118,0.031577 -0.00996,0.010662 -0.019845,0.02146 -0.029651,0.032394 -0.00981,0.010934 -0.019534,0.022005 -0.029184,0.033211 -0.00934,0.011207 -0.0186,0.022511 -0.027783,0.033912 -0.00918,0.011401 -0.018289,0.0229 -0.027316,0.034495 -0.00903,0.011596 -0.017977,0.023289 -0.026849,0.035079 -0.00887,0.01179 -0.017666,0.023678 -0.026382,0.035663 -0.00872,0.011985 -0.017355,0.024067 -0.025915,0.036246 -0.00856,0.012179 -0.017043,0.024456 -0.025448,0.03683 -0.0084,0.012374 -0.016732,0.024845 -0.024981,0.037414 -0.00825,0.012568 -0.016421,0.025234 -0.024514,0.037997 -0.00778,0.012763 -0.015487,0.025526 -0.023114,0.038289 -0.00763,0.012763 -0.015176,0.025526 -0.022647,0.038289 -0.00747,0.012763 -0.014864,0.025526 -0.02218,0.038289 -0.00732,0.012763 -0.014553,0.025526 -0.021713,0.038289 -0.00716,0.012763 -0.014242,0.025526 -0.021246,0.038289 -0.007,0.012763 -0.01393,0.025526 -0.020779,0.038289 -0.00685,0.012763 -0.013619,0.025526 -0.020312,0.038289 -0.00669,0.012763 -0.013308,0.025526 -0.019845,0.038289 -0.00623,0.012763 -0.012355,0.025507 -0.018386,0.038231 -0.00603,0.012724 -0.011965,0.025429 -0.017802,0.038114 -0.00584,0.012685 -0.011576,0.025351 -0.017219,0.037997 -0.00564,0.012646 -0.011187,0.025273 -0.016635,0.037881 -0.00545,0.012607 -0.010798,0.025195 -0.016051,0.037764 -0.00525,0.012568 -0.010409,0.025118 -0.015467,0.037647 -0.00506,0.01253 -0.01002,0.02504 -0.014884,0.03753 -0.00486,0.012491 -0.00963,0.024962 -0.0143,0.037414 -0.00436,0.01214 -0.00862,0.024164 -0.012783,0.036071 -0.00416,0.011907 -0.00823,0.023697 -0.012199,0.035371 -0.00397,0.011674 -0.00784,0.02323 -0.011615,0.03467 -0.00377,0.01144 -0.00745,0.022763 -0.011031,0.03397 -0.00358,0.011207 -0.00706,0.022297 -0.010448,0.03327 -0.00339,0.010973 -0.00667,0.02183 -0.00986,0.032569 -0.00319,0.01074 -0.00628,0.021363 -0.00928,0.031869 -0.003,0.010506 -0.0059,0.020896 -0.0087,0.031168 -0.00218,0.00747 -0.00434,0.015078 -0.00648,0.022822 -0.00214,0.00774 -0.00426,0.015623 -0.00636,0.023639 -0.0021,0.00802 -0.00418,0.016168 -0.00625,0.024456 -0.00206,0.00829 -0.00411,0.016713 -0.00613,0.025273 -0.00202,0.00856 -0.00403,0.017257 -0.00601,0.02609 -0.00198,0.00883 -0.00395,0.017802 -0.0059,0.026908 -0.00195,0.00911 -0.00387,0.018347 -0.00578,0.027725 -0.00191,0.00938 -0.00379,0.018892 -0.00566,0.028542 -0.00156,0.00934 -0.00302,0.018658 -0.00438,0.027958 -0.00136,0.0093 -0.00263,0.01858 -0.00379,0.027841 -0.00117,0.00926 -0.00224,0.018503 -0.00321,0.027725 -9.728e-4,0.00922 -0.00185,0.018425 -0.00263,0.027608 -7.783e-4,0.00918 -0.00146,0.018347 -0.00204,0.027491 -5.837e-4,0.00914 -0.00107,0.018269 -0.00146,0.027374 -3.892e-4,0.00911 -6.81e-4,0.018191 -8.756e-4,0.027258 -1.945e-4,0.00907 -2.918e-4,0.018114 -2.918e-4,0.027141 0,0.00623 5.84e-5,0.012413 1.751e-4,0.018561 1.167e-4,0.00615 2.919e-4,0.012257 5.253e-4,0.018328 2.335e-4,0.00607 5.254e-4,0.012102 8.756e-4,0.018094 3.502e-4,0.00599 7.588e-4,0.011946 0.00123,0.01786 4.67e-4,0.00591 9.923e-4,0.01179 0.00158,0.017627 5.837e-4,0.00584 0.00123,0.011635 0.00193,0.017393 7.005e-4,0.00576 0.00146,0.011479 0.00228,0.01716 8.171e-4,0.00568 0.00169,0.011323 0.00263,0.016927 0.00125,0.0056 0.00259,0.011129 0.00403,0.016576 0.00144,0.00545 0.00298,0.010818 0.00461,0.01611 0.00163,0.00529 0.00337,0.010506 0.00519,0.015643 0.00183,0.00514 0.00375,0.010195 0.00578,0.015176 0.00202,0.00498 0.00414,0.00988 0.00636,0.014709 0.00222,0.00482 0.00453,0.00957 0.00695,0.014242 0.00241,0.00467 0.00492,0.00926 0.00753,0.013775 0.00261,0.00451 0.00531,0.00895 0.00811,0.013308 0.0028,0.00436 0.00572,0.0086 0.00876,0.012724 0.00304,0.00412 0.00619,0.00813 0.00946,0.012024 0.00327,0.00389 0.00665,0.00767 0.010156,0.011323 0.0035,0.00366 0.00712,0.0072 0.010856,0.010623 0.00374,0.00342 0.00759,0.00673 0.011557,0.00992 0.00397,0.00319 0.00805,0.00626 0.012257,0.00922 0.0042,0.00296 0.00852,0.0058 0.012958,0.00852 0.00444,0.00272 0.00899,0.00533 0.013658,0.00782 0.00467,0.00249 0.00948,0.00483 0.014417,0.007 0.00494,0.00218 0.01002,0.0042 0.015234,0.00607 0.00521,0.00187 0.010564,0.00358 0.016051,0.00514 0.00549,0.00156 0.011109,0.00296 0.016868,0.0042 0.00576,0.00125 0.011654,0.00233 0.017685,0.00327 0.00603,9.339e-4 0.012199,0.00171 0.018503,0.00233 0.0063,6.226e-4 0.012744,0.00109 0.01932,0.0014 0.00658,3.113e-4 0.013288,4.669e-4 0.020137,4.669e-4 0.010895,0 0.021771,-1.751e-4 0.032628,-5.253e-4 0.010856,-3.502e-4 0.021693,-8.755e-4 0.032511,-0.00158 0.010817,-7.005e-4 0.021616,-0.00158 0.032394,-0.00263 0.010779,-0.00105 0.021538,-0.00228 0.032277,-0.00368 0.01074,-0.0014 0.02146,-0.00298 0.032161,-0.00473 0.010701,-0.00175 0.021382,-0.00368 0.032044,-0.00578 0.010662,-0.0021 0.021304,-0.00438 0.031927,-0.00683 0.010623,-0.00245 0.021226,-0.00508 0.03181,-0.00788 0.010895,-0.0028 0.021752,-0.0057 0.032569,-0.0087 0.010817,-0.003 0.021596,-0.00609 0.032336,-0.00928 0.01074,-0.00319 0.02144,-0.00648 0.032102,-0.00986 0.010662,-0.00339 0.021285,-0.00687 0.031869,-0.010448 0.010584,-0.00358 0.021129,-0.00726 0.031635,-0.011032 0.010506,-0.00377 0.020973,-0.00765 0.031402,-0.011615 0.010428,-0.00397 0.020818,-0.00804 0.031168,-0.012199 0.01035,-0.00416 0.020662,-0.00842 0.030935,-0.012782 0.010273,-0.00436 0.020506,-0.00879 0.030701,-0.013308 0.010195,-0.00451 0.020351,-0.00911 0.030468,-0.013775 0.010117,-0.00467 0.020195,-0.00942 0.030235,-0.014242 0.010039,-0.00483 0.02004,-0.00973 0.030001,-0.014709 0.00996,-0.00498 0.019884,-0.010039 0.029768,-0.015176 0.00988,-0.00514 0.019728,-0.010351 0.029534,-0.015643 0.00981,-0.00529 0.019573,-0.010662 0.029301,-0.016109 0.00973,-0.00545 0.019417,-0.010973 0.029067,-0.016577 0.00996,-0.00591 0.019884,-0.011829 0.029768,-0.017744 0.00988,-0.00591 0.019728,-0.011829 0.029534,-0.017744 0.00981,-0.00591 0.019573,-0.011829 0.029301,-0.017744 0.00973,-0.00591 0.019417,-0.011829 0.029067,-0.017744 0.00965,-0.00591 0.019261,-0.011829 0.028834,-0.017744 0.00957,-0.00591 0.019106,-0.011829 0.0286,-0.017744 0.00949,-0.00591 0.01895,-0.011829 0.028367,-0.017744 0.00942,-0.00591 0.018795,-0.011829 0.028133,-0.017744 0.00591,-0.00374 0.011829,-0.00749 0.017744,-0.011265 0.00591,-0.00377 0.011829,-0.00757 0.017744,-0.011382 0.00591,-0.00381 0.011829,-0.00765 0.017744,-0.011498 0.00591,-0.00385 0.011829,-0.00772 0.017744,-0.011615 0.00591,-0.00389 0.011829,-0.0078 0.017744,-0.011732 0.00591,-0.00393 0.011829,-0.00788 0.017744,-0.011849 0.00591,-0.00397 0.011829,-0.00796 0.017744,-0.011965 0.00591,-0.00401 0.011829,-0.00804 0.017744,-0.012082 0.00591,-0.00405 0.01179,-0.00804 0.017627,-0.011965 0.00584,-0.00393 0.011635,-0.0078 0.017394,-0.011615 0.00576,-0.00381 0.011479,-0.00757 0.01716,-0.011265 0.00568,-0.0037 0.011323,-0.00733 0.016927,-0.010915 0.0056,-0.00358 0.011168,-0.0071 0.016693,-0.010564 0.00553,-0.00346 0.011012,-0.00687 0.01646,-0.010214 0.00545,-0.00335 0.010856,-0.00663 0.016226,-0.00986 0.00537,-0.00323 0.010701,-0.0064 0.015993,-0.00951 0.00529,-0.00311 0.010526,-0.00615 0.015701,-0.00911 0.00518,-0.00296 0.010292,-0.00584 0.015351,-0.00864 0.00506,-0.0028 0.010059,-0.00553 0.015,-0.00817 0.00494,-0.00265 0.00983,-0.00521 0.01465,-0.0077 0.00483,-0.00249 0.00959,-0.0049 0.0143,-0.00724 0.00471,-0.00233 0.00936,-0.00459 0.01395,-0.00677 0.00459,-0.00218 0.00912,-0.00428 0.0136,-0.0063 0.00447,-0.00202 0.00889,-0.00397 0.01325,-0.00584 0.00467,-0.00218 0.00926,-0.00422 0.013775,-0.00613 0.00451,-0.00191 0.00895,-0.00368 0.013308,-0.00531 0.00436,-0.00163 0.00864,-0.00313 0.012841,-0.00449 0.0042,-0.00136 0.00833,-0.00259 0.012374,-0.00368 0.00405,-0.00109 0.00802,-0.00204 0.011907,-0.00286 0.00389,-8.172e-4 0.0077,-0.0015 0.01144,-0.00204 0.00374,-5.448e-4 0.00739,-9.533e-4 0.010973,-0.00123 0.00358,-2.724e-4 0.00708,-4.086e-4 0.010506,-4.086e-4 0.00467,0 0.0093,1.556e-4 0.013891,4.669e-4 0.00459,3.113e-4 0.00914,7.783e-4 0.013658,0.0014 0.00451,6.226e-4 0.00899,0.0014 0.013425,0.00233 0.00444,9.339e-4 0.00883,0.00202 0.013191,0.00327 0.00436,0.00125 0.00868,0.00265 0.012958,0.0042 0.00428,0.00156 0.00852,0.00327 0.012724,0.00514 0.0042,0.00187 0.00837,0.00389 0.012491,0.00607 0.00412,0.00218 0.00821,0.00451 0.012257,0.007 0.00405,0.00218 0.00784,0.00457 0.011382,0.00718 0.00354,0.00261 0.00683,0.00543 0.00986,0.00846 0.00304,0.00304 0.00582,0.00628 0.00835,0.00975 0.00253,0.00346 0.00481,0.00714 0.00683,0.011032 0.00202,0.00389 0.00379,0.008 0.00531,0.012315 0.00152,0.00432 0.00278,0.00885 0.00379,0.0136 0.00101,0.00475 0.00177,0.00971 0.00228,0.014884 5.059e-4,0.00518 7.588e-4,0.010564 7.588e-4,0.016168 0,0.00405 -1.167e-4,0.00815 -3.502e-4,0.012316 -2.335e-4,0.00416 -5.837e-4,0.00839 -0.00105,0.012666 -4.669e-4,0.00428 -0.00105,0.00862 -0.00175,0.013016 -7.004e-4,0.0044 -0.00152,0.00885 -0.00245,0.013366 -9.339e-4,0.00451 -0.00198,0.00909 -0.00315,0.013717 -0.00117,0.00463 -0.00245,0.00932 -0.00385,0.014067 -0.0014,0.00475 -0.00292,0.00955 -0.00455,0.014417 -0.00163,0.00486 -0.00339,0.00979 -0.00525,0.014767 -0.00436,0.012141 -0.00891,0.024125 -0.013658,0.035955 -0.00475,0.011829 -0.00969,0.023503 -0.014826,0.035021 -0.00514,0.011518 -0.010467,0.02288 -0.015993,0.034087 -0.00553,0.011207 -0.011246,0.022258 -0.01716,0.033153 -0.00591,0.010895 -0.012024,0.021635 -0.018327,0.032219 -0.0063,0.010584 -0.012802,0.021012 -0.019495,0.031285 -0.00669,0.010273 -0.01358,0.02039 -0.020662,0.030351 -0.00708,0.00996 -0.014359,0.019767 -0.02183,0.029417 -0.00747,0.00965 -0.015059,0.019184 -0.022763,0.0286 -0.0077,0.00942 -0.015526,0.018717 -0.023464,0.0279 -0.00794,0.00918 -0.015993,0.01825 -0.024164,0.027199 -0.00817,0.00895 -0.01646,0.017783 -0.024865,0.026499 -0.0084,0.00872 -0.016927,0.017316 -0.025565,0.025799 -0.00864,0.00848 -0.017394,0.016849 -0.026266,0.025098 -0.00887,0.00825 -0.01786,0.016382 -0.026966,0.024398 -0.00911,0.00802 -0.018327,0.015915 -0.027666,0.023697 -0.00903,0.00747 -0.018152,0.014845 -0.027375,0.022121 -0.00922,0.00728 -0.018541,0.014456 -0.027958,0.021538 -0.00942,0.00708 -0.018931,0.014067 -0.028542,0.020954 -0.00961,0.00689 -0.01932,0.013678 -0.029125,0.02037 -0.00981,0.00669 -0.019709,0.013288 -0.029709,0.019787 -0.01,0.0065 -0.020098,0.012899 -0.030293,0.019203 -0.010195,0.0063 -0.020487,0.01251 -0.030877,0.018619 -0.010389,0.00611 -0.020876,0.012121 -0.03146,0.018036 -0.010273,0.00591 -0.020545,0.011771 -0.030818,0.017569 -0.010273,0.0058 -0.020545,0.011537 -0.030818,0.017219 -0.010273,0.00568 -0.020545,0.011304 -0.030818,0.016868 -0.010273,0.00556 -0.020546,0.01107 -0.030818,0.016518 -0.010273,0.00545 -0.020546,0.010837 -0.030818,0.016168 -0.010273,0.00533 -0.020545,0.010603 -0.030818,0.015818 -0.010273,0.00521 -0.020545,0.01037 -0.030818,0.015467 -0.010273,0.0051 -0.020546,0.010137 -0.030818,0.015117 -0.0193,0.010273 -0.03864,0.020234 -0.058018,0.029884 -0.019378,0.00965 -0.038795,0.018989 -0.058251,0.028016 -0.019456,0.00903 -0.038951,0.017744 -0.058485,0.026149 -0.019534,0.0084 -0.039106,0.016499 -0.058718,0.024281 -0.019611,0.00778 -0.039262,0.015253 -0.058951,0.022413 -0.019689,0.00716 -0.039418,0.014008 -0.059185,0.020545 -0.019767,0.00654 -0.039573,0.012763 -0.059418,0.018678 -0.019845,0.00591 -0.039729,0.011518 -0.059652,0.01681 -0.019612,0.00498 -0.038834,0.00965 -0.057667,0.014008 -0.018833,0.00436 -0.037278,0.0084 -0.055333,0.012141 -0.018055,0.00374 -0.035721,0.00716 -0.052998,0.010273 -0.017277,0.00311 -0.034165,0.00591 -0.050663,0.0084 -0.016499,0.00249 -0.032608,0.00467 -0.048328,0.00654 -0.01572,0.00187 -0.031052,0.00342 -0.045994,0.00467 -0.014942,0.00125 -0.029495,0.00218 -0.043659,0.0028 -0.014164,6.226e-4 -0.027939,9.339e-4 -0.041324,9.339e-4 -0.00436,0 -0.00881,-5.84e-5 -0.013366,-1.751e-4 -0.00455,-1.167e-4 -0.0092,-2.919e-4 -0.01395,-5.253e-4 -0.00475,-2.335e-4 -0.00959,-5.254e-4 -0.014534,-8.756e-4 -0.00494,-3.502e-4 -0.00998,-7.588e-4 -0.015117,-0.00123 -0.00514,-4.669e-4 -0.01037,-9.922e-4 -0.015701,-0.00158 -0.00533,-5.837e-4 -0.010759,-0.00123 -0.016285,-0.00193 -0.00553,-7.005e-4 -0.011148,-0.00146 -0.016868,-0.00228 -0.00572,-8.171e-4 -0.011538,-0.00169 -0.017452,-0.00263 -0.00591,-9.339e-4 -0.011732,-0.00193 -0.017452,-0.00298 -0.00572,-0.00105 -0.011343,-0.00216 -0.016868,-0.00333 -0.00553,-0.00117 -0.010954,-0.00239 -0.016285,-0.00368 -0.00533,-0.00128 -0.010565,-0.00263 -0.015701,-0.00403 -0.00514,-0.0014 -0.010175,-0.00286 -0.015117,-0.00438 -0.00494,-0.00152 -0.00979,-0.00309 -0.014534,-0.00473 -0.00475,-0.00163 -0.0094,-0.00333 -0.01395,-0.00508 -0.00455,-0.00175 -0.00901,-0.00356 -0.013366,-0.00543 -0.025215,-0.010895 -0.049574,-0.022258 -0.073076,-0.034087 -0.023503,-0.011829 -0.046149,-0.024125 -0.06794,-0.036888 -0.021791,-0.012763 -0.042725,-0.025993 -0.062804,-0.03969 -0.020079,-0.013697 -0.039301,-0.027861 -0.057667,-0.042492 -0.018366,-0.014631 -0.035877,-0.029729 -0.052531,-0.045293 -0.016654,-0.015565 -0.032452,-0.031596 -0.047395,-0.048095 -0.014942,-0.016499 -0.029028,-0.033464 -0.042258,-0.050897 -0.01323,-0.017432 -0.025604,-0.035332 -0.037122,-0.053698 -0.011518,-0.018366 -0.022316,-0.037161 -0.032394,-0.056383 -0.010078,-0.019222 -0.019436,-0.038873 -0.028075,-0.058951 -0.00864,-0.020079 -0.016557,-0.040585 -0.023756,-0.06152 -0.0072,-0.020934 -0.013678,-0.042297 -0.019436,-0.064088 -0.00576,-0.021791 -0.010798,-0.044009 -0.015117,-0.066656 -0.00432,-0.022647 -0.00792,-0.045721 -0.010798,-0.069224 -0.00288,-0.023503 -0.00504,-0.047434 -0.00648,-0.071792 -0.00144,-0.024359 -0.00216,-0.049146 -0.00216,-0.074361 0,-0.010895 9.73e-5,-0.021849 2.918e-4,-0.032861 1.946e-4,-0.011012 4.864e-4,-0.022082 8.756e-4,-0.033211 3.891e-4,-0.011129 8.755e-4,-0.022316 0.00146,-0.033562 5.837e-4,-0.011245 0.00126,-0.022549 0.00204,-0.033912 7.783e-4,-0.011362 0.00165,-0.022783 0.00263,-0.034262 9.728e-4,-0.011479 0.00204,-0.023016 0.00321,-0.034612 0.00117,-0.011596 0.00243,-0.02325 0.00379,-0.034962 0.00136,-0.011713 0.00282,-0.023483 0.00438,-0.035313 0.00187,-0.01214 0.00383,-0.024339 0.0059,-0.036597 0.00206,-0.012257 0.00422,-0.024573 0.00648,-0.036947 0.00226,-0.012374 0.00461,-0.024806 0.00706,-0.037297 0.00245,-0.012491 0.005,-0.02504 0.00765,-0.037647 0.00265,-0.012607 0.00539,-0.025273 0.00823,-0.037997 0.00284,-0.012724 0.00578,-0.025507 0.00881,-0.038348 0.00304,-0.012841 0.00617,-0.02574 0.0094,-0.038698 0.00323,-0.012958 0.00656,-0.025974 0.00998,-0.039048 z"
           sodipodi:nodetypes="cssssssscssssssscssssssscssssssscssssssssssssssssssssssscssssssscssssssssssssssssssssssscssssssscssssssssssssssssssssssscssssssscssssssscssssssscssssssscssssssscssssssscssssssscssssssscssssssscssssssscssssssssssssssscssssssssssssssssssssssssssssssscssssssssssssssscssssssscssssssssssssssssssssssscssssssssssssssscssssssssssssssscssssssssssssssscssssssscssssssscssssssscssssssssssssssssssssssscssssssssssssssssssssssscsssssssc" />
        <path
           id="path913"
           style="font-style:normal;font-variant:normal;font-weight:normal;font-stretch:normal;font-size:7.65038px;line-height:1.25;font-family:'MV Boli';-inkscape-font-specification:'MV Boli';fill:none;fill-opacity:1;stroke:#000000;stroke-width:0.392157;stroke-miterlimit:4;stroke-dasharray:none;stroke-opacity:1"
           d="m 10.797533,5.3318803 c 0.01898,-0.00316 0.03756,-0.00529 0.05567,-0.00674 0.01811,-0.00145 0.03576,-0.00222 0.05288,-0.00268 0.01712,-4.543e-4 0.03372,-5.91e-4 0.04974,-7.698e-4 0.01601,-1.788e-4 0.03144,-3.996e-4 0.04623,-0.00102 0.01479,-6.226e-4 0.02901,-0.00117 0.04267,-0.00163 0.01366,-4.669e-4 0.02675,-8.56e-4 0.03928,-0.00117 0.01253,-3.113e-4 0.02449,-5.448e-4 0.0359,-7.004e-4 0.0114,-1.557e-4 0.02224,-2.335e-4 0.03251,-2.335e-4 0.02615,0 0.05448,3.502e-4 0.08498,0.00105 0.03051,7.004e-4 0.06319,0.00175 0.09806,0.00315 0.03486,0.0014 0.07191,0.00315 0.111133,0.00525 0.03922,0.0021 0.08062,0.00455 0.124206,0.00735 0.04358,0.0028 0.08934,0.00595 0.137281,0.00946 0.04794,0.0035 0.09806,0.00735 0.150356,0.011557 0.0523,0.0042 0.106774,0.00876 0.16343,0.013658 0.05666,0.0049 0.11549,0.010156 0.176504,0.015759 0.06133,0.00529 0.120821,0.010584 0.178488,0.015876 0.05767,0.00529 0.113506,0.010584 0.167516,0.015876 0.05401,0.00529 0.10619,0.010584 0.156542,0.015876 0.05035,0.00529 0.09887,0.010584 0.145569,0.015876 0.04669,0.00529 0.09156,0.010584 0.134596,0.015876 0.04304,0.00529 0.08424,0.010584 0.123623,0.015876 0.03938,0.00529 0.07693,0.010584 0.11265,0.015876 0.03572,0.00529 0.06961,0.010584 0.101677,0.015876 0.03206,0.00498 0.06261,0.00996 0.09164,0.014942 0.02903,0.00498 0.05654,0.00996 0.08253,0.014942 0.02599,0.00498 0.05047,0.00996 0.07343,0.014942 0.02296,0.00498 0.0444,0.00996 0.06432,0.014942 0.01992,0.00498 0.03833,0.00996 0.05522,0.014942 0.01689,0.00498 0.03226,0.00996 0.04611,0.014942 0.01385,0.00498 0.02619,0.00996 0.037,0.014942 0.01082,0.00498 0.02012,0.00996 0.0279,0.014942 0.0078,0.00467 0.01537,0.00957 0.02276,0.014709 0.0074,0.00514 0.01459,0.010506 0.0216,0.016109 0.007,0.0056 0.01381,0.01144 0.02043,0.01751 0.0066,0.00607 0.01304,0.012374 0.01926,0.018911 0.0062,0.00654 0.01226,0.013308 0.0181,0.020312 0.0058,0.007 0.01148,0.014242 0.01693,0.021713 0.0054,0.00747 0.0107,0.015176 0.01576,0.023114 0.0051,0.00794 0.0099,0.016109 0.01459,0.024514 0.0047,0.00809 0.009,0.016265 0.01313,0.024515 0.0041,0.00825 0.0079,0.016576 0.01138,0.024981 0.0035,0.0084 0.0067,0.016888 0.0096,0.025448 0.0029,0.00856 0.0055,0.017199 0.0079,0.025915 0.0023,0.00872 0.0044,0.01751 0.0061,0.026382 0.0018,0.00887 0.0032,0.017822 0.0044,0.026849 0.0012,0.00903 0.002,0.018133 0.0026,0.027316 5.83e-4,0.00918 8.75e-4,0.018444 8.75e-4,0.027783 0,0.00778 -7.39e-4,0.015584 -0.0022,0.023405 -0.0015,0.00782 -0.0037,0.015662 -0.0067,0.023522 -0.003,0.00786 -0.0067,0.01574 -0.01109,0.023639 -0.0044,0.0079 -0.0096,0.015818 -0.01553,0.023756 -0.0059,0.00794 -0.01257,0.015896 -0.01996,0.023872 -0.0074,0.00798 -0.01553,0.015973 -0.0244,0.023989 -0.0089,0.00802 -0.01848,0.016051 -0.02883,0.024106 -0.01035,0.00805 -0.02144,0.016129 -0.03327,0.024223 -0.01152,0.0084 -0.02296,0.016285 -0.03432,0.023639 -0.01136,0.00735 -0.02265,0.014183 -0.03385,0.020487 -0.01121,0.0063 -0.02233,0.012082 -0.03339,0.017335 -0.01105,0.00525 -0.02202,0.00998 -0.03292,0.014183 -0.0109,0.0042 -0.02171,0.00788 -0.03245,0.011031 -0.01074,0.00315 -0.0214,0.00578 -0.03199,0.00788 -0.01058,0.0021 -0.02109,0.00368 -0.03152,0.00473 -0.01043,0.00105 -0.02078,0.00158 -0.03105,0.00158 -0.01214,0 -0.02508,-3.697e-4 -0.03881,-0.00111 -0.01374,-7.393e-4 -0.02827,-0.00185 -0.0436,-0.00333 -0.01533,-0.00148 -0.03146,-0.00333 -0.04839,-0.00555 -0.01693,-0.00222 -0.03465,-0.00481 -0.05317,-0.00776 -0.01852,-0.00296 -0.03784,-0.00628 -0.05796,-0.00998 -0.02012,-0.0037 -0.04103,-0.00776 -0.06275,-0.012199 -0.02171,-0.00444 -0.04422,-0.00924 -0.06753,-0.014417 -0.02331,-0.00518 -0.04741,-0.01072 -0.07232,-0.016635 -0.04203,-0.010273 -0.0851,-0.020234 -0.129226,-0.029884 -0.04413,-0.00965 -0.0893,-0.018989 -0.13553,-0.028016 -0.04623,-0.00903 -0.09351,-0.017744 -0.141834,-0.026149 -0.04833,-0.0084 -0.09771,-0.016499 -0.148137,-0.024281 -0.05043,-0.00778 -0.10191,-0.015253 -0.154441,-0.022413 -0.05253,-0.00716 -0.106113,-0.014008 -0.160745,-0.020545 -0.05463,-0.00654 -0.110315,-0.012763 -0.167049,-0.018678 -0.05673,-0.00591 -0.114517,-0.011518 -0.173352,-0.01681 -0.05852,-0.00529 -0.116541,-0.010253 -0.174053,-0.014884 -0.05751,-0.00463 -0.114517,-0.00893 -0.171017,-0.012899 -0.0565,-0.00397 -0.112494,-0.00761 -0.167983,-0.010915 -0.05549,-0.00331 -0.11047,-0.00628 -0.164947,-0.00893 -0.05448,-0.00265 -0.108447,-0.00496 -0.161912,-0.00695 -0.05347,-0.00198 -0.106424,-0.00364 -0.158877,-0.00496 -0.05245,-0.00132 -0.104401,-0.00232 -0.155842,-0.00298 -0.05144,-6.615e-4 -0.102377,-9.923e-4 -0.152807,-9.923e-4 -0.02241,0 -0.04492,4.28e-4 -0.06753,0.00128 -0.02261,8.561e-4 -0.04531,0.00214 -0.06811,0.00385 -0.0228,0.00171 -0.0457,0.00385 -0.0687,0.00642 -0.023,0.00257 -0.04609,0.00556 -0.06928,0.00899 -0.02319,0.00342 -0.04648,0.00728 -0.06987,0.011557 -0.02339,0.00428 -0.04687,0.00899 -0.07045,0.014125 -0.02358,0.00514 -0.04726,0.010701 -0.07103,0.016693 -0.02377,0.00599 -0.04765,0.012413 -0.07162,0.019261 -0.01339,0.00467 -0.02673,0.00905 -0.04004,0.013133 -0.01331,0.00409 -0.02658,0.00788 -0.03981,0.011382 -0.01323,0.0035 -0.026421,0.00671 -0.039573,0.00963 -0.013152,0.00292 -0.026265,0.00554 -0.03934,0.00788 -0.013074,0.00233 -0.02611,0.00438 -0.039106,0.00613 -0.012997,0.00175 -0.025954,0.00321 -0.038873,0.00438 -0.012919,0.00117 -0.025799,0.00204 -0.038639,0.00263 -0.012841,5.837e-4 -0.025643,8.755e-4 -0.038406,8.755e-4 -0.00778,0 -0.015448,-2.918e-4 -0.022997,-8.755e-4 -0.00755,-5.837e-4 -0.014981,-0.00146 -0.022296,-0.00263 -0.00732,-0.00117 -0.014514,-0.00263 -0.021596,-0.00438 -0.00708,-0.00175 -0.014047,-0.00379 -0.020896,-0.00613 -0.00685,-0.00233 -0.01358,-0.00496 -0.020195,-0.00788 -0.00662,-0.00292 -0.013113,-0.00613 -0.019495,-0.00963 -0.00638,-0.0035 -0.012646,-0.0073 -0.018794,-0.011382 -0.00615,-0.00409 -0.01218,-0.00846 -0.018094,-0.013133 -0.0056,-0.00467 -0.010856,-0.00955 -0.015759,-0.01465 -0.0049,-0.0051 -0.00946,-0.010409 -0.013658,-0.015934 -0.0042,-0.00553 -0.00805,-0.011265 -0.011557,-0.017218 -0.0035,-0.00595 -0.00665,-0.012121 -0.00946,-0.018503 -0.0028,-0.00638 -0.00525,-0.012977 -0.00735,-0.019787 -0.0021,-0.00681 -0.00385,-0.013833 -0.00525,-0.021071 -0.0014,-0.00724 -0.00245,-0.014689 -0.00315,-0.022355 -7.004e-4,-0.00767 -0.00105,-0.015545 -0.00105,-0.023639 0,-0.028639 0.00276,-0.058037 0.00829,-0.088194 0.00553,-0.030157 0.013814,-0.061072 0.024865,-0.092746 0.011051,-0.031674 0.024865,-0.064107 0.041441,-0.097299 0.016576,-0.033192 0.035916,-0.067142 0.058018,-0.1018518 0.022102,-0.034709 0.046967,-0.070177 0.074594,-0.1064044 0.027627,-0.036227 0.058018,-0.073213 0.09117,-0.1109572 0.033153,-0.037744 0.069069,-0.076248 0.107747,-0.1155098 0.038678,-0.039262 0.080119,-0.079283 0.1243235,-0.1200625 0.04452,-0.041091 0.09129,-0.082201 0.140316,-0.1233311 0.04903,-0.04113 0.100315,-0.082279 0.153858,-0.1234478 0.05354,-0.041169 0.109342,-0.082357 0.167398,-0.1235646 0.05806,-0.041208 0.11837,-0.082435 0.180941,-0.1236813 0.06257,-0.041247 0.127397,-0.082512 0.194481,-0.123798 0.06708,-0.041286 0.136425,-0.08259 0.208023,-0.1239148 0.0716,-0.041324 0.145452,-0.082668 0.221564,-0.1240315 0.07611,-0.041363 0.15448,-0.082746 0.235105,-0.1241482 0.09868,-0.050741 0.193178,-0.1004509 0.283492,-0.1491297 0.09032,-0.048679 0.176446,-0.096326 0.258394,-0.1429426 0.08195,-0.046616 0.159714,-0.092202 0.233296,-0.1367557 0.07358,-0.044554 0.142982,-0.088077 0.208198,-0.1305687 0.06522,-0.042492 0.126249,-0.083952 0.1831,-0.1243817 0.05685,-0.04043 0.109517,-0.079828 0.158001,-0.1181948 0.04848,-0.038367 0.09279,-0.075703 0.132904,-0.1120077 0.04012,-0.036305 0.07605,-0.071578 0.107805,-0.1058208 0.03175,-0.034242 0.06152,-0.068407 0.0893,-0.1024938 0.02778,-0.034087 0.05358,-0.068096 0.0774,-0.1020269 0.02381,-0.033931 0.04564,-0.067784 0.06549,-0.1015599 0.01985,-0.033776 0.03771,-0.067473 0.05358,-0.1010929 0.01588,-0.03362 0.02977,-0.067162 0.04167,-0.1006261 0.01191,-0.033464 0.02183,-0.066851 0.02977,-0.1001591 0.0079,-0.033308 0.01389,-0.066539 0.01786,-0.099692 0.004,-0.033153 0.006,-0.066228 0.006,-0.099225 0,-0.030196 -0.0015,-0.059885 -0.0044,-0.089069 -0.003,-0.029184 -0.0074,-0.057862 -0.01331,-0.086034 -0.0059,-0.028172 -0.01331,-0.055839 -0.02218,-0.082999 -0.0089,-0.02716 -0.01922,-0.053815 -0.03105,-0.079964 -0.01183,-0.026149 -0.02514,-0.051792 -0.03992,-0.076929 -0.01479,-0.025137 -0.03105,-0.049768 -0.0488,-0.073894 -0.01774,-0.024125 -0.03697,-0.047745 -0.05767,-0.070858 -0.0207,-0.023114 -0.04288,-0.045721 -0.06654,-0.067823 -0.02335,-0.022102 -0.04743,-0.042822 -0.07226,-0.062162 -0.02483,-0.019339 -0.05039,-0.037297 -0.0767,-0.053873 -0.0263,-0.016576 -0.05335,-0.031772 -0.08113,-0.045585 -0.02778,-0.013814 -0.05631,-0.026246 -0.08557,-0.037297 -0.02926,-0.011051 -0.05926,-0.020721 -0.09,-0.029009 -0.03074,-0.00829 -0.06222,-0.015195 -0.09444,-0.020721 -0.03222,-0.00553 -0.06518,-0.00967 -0.09887,-0.012432 -0.0337,-0.00276 -0.06813,-0.00414 -0.103311,-0.00414 -0.03238,0 -0.06444,6.81e-4 -0.09619,0.00204 -0.03175,0.00136 -0.06319,0.0034 -0.09432,0.00613 -0.03113,0.00272 -0.06195,0.00613 -0.09246,0.010214 -0.03051,0.00409 -0.0607,0.00885 -0.09059,0.0143 -0.02988,0.00545 -0.05946,0.011576 -0.08872,0.018386 -0.02926,0.00681 -0.05821,0.0143 -0.08685,0.022472 -0.02864,0.00817 -0.05697,0.017024 -0.08498,0.026557 -0.02802,0.00953 -0.05572,0.019748 -0.08312,0.030643 -0.02739,0.010895 -0.05469,0.022919 -0.08189,0.036071 -0.0272,0.013152 -0.0543,0.027433 -0.08131,0.042842 -0.027,0.015409 -0.05391,0.031947 -0.08072,0.049613 -0.02681,0.017666 -0.05352,0.03646 -0.08014,0.056383 -0.02662,0.019923 -0.05313,0.040974 -0.07956,0.063154 -0.02642,0.02218 -0.05274,0.045488 -0.07897,0.069924 -0.02623,0.024437 -0.05236,0.050002 -0.07839,0.076695 -0.02603,0.026693 -0.05197,0.054515 -0.0778,0.083466 -0.01058,0.011829 -0.02107,0.022919 -0.03146,0.03327 -0.01039,0.010351 -0.02068,0.019962 -0.03088,0.028834 -0.01019,0.00887 -0.02029,0.017005 -0.03029,0.024398 -0.01,0.00739 -0.0199,0.014047 -0.02971,0.019962 -0.0098,0.00591 -0.01951,0.01109 -0.02913,0.015526 -0.0096,0.00444 -0.01912,0.00813 -0.02854,0.01109 -0.0094,0.00296 -0.01874,0.00518 -0.02796,0.00665 -0.0092,0.00148 -0.01835,0.00222 -0.02737,0.00222 -0.01121,0 -0.02228,-4.864e-4 -0.03321,-0.00146 -0.01093,-9.728e-4 -0.02173,-0.00243 -0.03239,-0.00438 -0.01066,-0.00195 -0.02119,-0.00438 -0.03158,-0.0073 -0.01039,-0.00292 -0.02064,-0.00632 -0.03076,-0.010214 -0.01012,-0.00389 -0.0201,-0.00827 -0.02994,-0.013133 -0.0098,-0.00486 -0.01955,-0.010214 -0.02913,-0.016051 -0.0096,-0.00584 -0.01901,-0.01216 -0.02831,-0.01897 -0.0093,-0.00681 -0.01846,-0.014106 -0.02749,-0.021888 -0.009,-0.00809 -0.01749,-0.016323 -0.02539,-0.02469 -0.0079,-0.00837 -0.01523,-0.016868 -0.022,-0.025507 -0.0068,-0.00864 -0.01298,-0.017413 -0.01862,-0.026324 -0.0056,-0.00891 -0.01072,-0.017958 -0.01523,-0.027141 -0.0045,-0.00918 -0.0085,-0.018503 -0.01185,-0.027958 -0.0034,-0.00946 -0.0062,-0.019047 -0.0085,-0.028775 -0.0023,-0.00973 -0.0039,-0.019592 -0.0051,-0.029593 -0.0011,-0.01 -0.0017,-0.020137 -0.0017,-0.03041 0,-0.031752 0.0031,-0.063329 0.0094,-0.094731 0.0063,-0.031402 0.01566,-0.062629 0.02819,-0.09368 0.01253,-0.031052 0.02819,-0.061928 0.04699,-0.09263 0.01879,-0.030701 0.04072,-0.061228 0.06578,-0.091579 0.02506,-0.030351 0.05325,-0.060527 0.08458,-0.090528 0.03132,-0.030001 0.06578,-0.059827 0.103369,-0.089478 0.03759,-0.029651 0.07831,-0.059127 0.122164,-0.088427 0.04385,-0.029301 0.09084,-0.058426 0.140958,-0.087376 0.05043,-0.029262 0.101949,-0.056695 0.154558,-0.0822985 0.05261,-0.025604 0.106307,-0.0493791 0.161095,-0.0713254 0.05479,-0.0219463 0.110665,-0.0420637 0.167632,-0.0603523 0.05697,-0.0182886 0.115024,-0.0347483 0.17417,-0.0493791 0.05914,-0.0146309 0.119381,-0.0274329 0.180706,-0.038406 0.06133,-0.0109731 0.12374,-0.0201174 0.187244,-0.0274329 0.0635,-0.007315 0.128098,-0.012802 0.193781,-0.0164597 0.06568,-0.003658 0.132456,-0.005487 0.200318,-0.005487 0.05821,0 0.115218,0.002199 0.171018,0.006596 0.0558,0.004397 0.110393,0.0109926 0.16378,0.0197867 0.05339,0.008794 0.105568,0.0197867 0.156542,0.0329778 0.05098,0.0131911 0.100743,0.0285807 0.149305,0.0461689 0.04856,0.0175881 0.09592,0.0373748 0.142067,0.05936 0.04615,0.0219852 0.09109,0.0461689 0.13483,0.0725511 0.04374,0.0263822 0.08627,0.054963 0.127592,0.0857422 0.04132,0.030779 0.08144,0.063757 0.120354,0.098933 0.03922,0.035176 0.076,0.071637 0.110315,0.1093812 0.03432,0.037745 0.06619,0.076773 0.09561,0.1170857 0.02942,0.040313 0.05638,0.08191 0.0809,0.1247903 0.02451,0.042881 0.04658,0.087046 0.06619,0.1324949 0.01961,0.045449 0.03677,0.092182 0.05148,0.1401994 0.01471,0.048017 0.02697,0.097318 0.03677,0.1479039 0.0098,0.050585 0.01716,0.1024549 0.02206,0.1556085 0.0049,0.053154 0.0074,0.1075912 0.0074,0.163313 0,0.055411 -0.0027,0.1102762 -0.008,0.1645971 -0.0053,0.054321 -0.01333,0.1080971 -0.02399,0.1613285 -0.01066,0.053231 -0.02399,0.105918 -0.03998,0.1580599 -0.01599,0.052142 -0.03465,0.103739 -0.05597,0.1547913 -0.02132,0.051052 -0.04531,0.1015599 -0.07197,0.1515227 -0.02665,0.049963 -0.05598,0.099381 -0.08796,0.1482542 -0.03199,0.048873 -0.06664,0.097202 -0.103953,0.1449855 -0.03732,0.047784 -0.0773,0.095023 -0.119946,0.1417169 -0.04234,0.046383 -0.0893,0.093349 -0.1409,0.1408998 -0.0516,0.04755 -0.107824,0.095684 -0.168683,0.1444019 -0.06086,0.048718 -0.126346,0.098019 -0.196466,0.1479039 -0.07012,0.049885 -0.144868,0.1003537 -0.224248,0.151406 -0.07938,0.051052 -0.163391,0.1026884 -0.252033,0.1549081 -0.08864,0.05222 -0.181912,0.105023 -0.279815,0.1584101 -0.0979,0.053387 -0.200435,0.1073578 -0.307598,0.1619122 -0.107163,0.054554 -0.218957,0.1096924 -0.335381,0.1654142 -0.04981,0.02397 -0.09874,0.048367 -0.146795,0.073193 -0.04806,0.024826 -0.09524,0.05008 -0.141542,0.075761 -0.04631,0.025682 -0.09173,0.051792 -0.136289,0.07833 -0.04455,0.026538 -0.08823,0.053504 -0.131035,0.080898 -0.0428,0.027394 -0.08473,0.055216 -0.125783,0.083466 -0.04105,0.02825 -0.08123,0.056928 -0.120529,0.086034 -0.0393,0.029106 -0.07773,0.05864 -0.115277,0.088602 -0.03755,0.029962 -0.07422,0.060352 -0.110023,0.091171 l 0,-1e-7 10e-7,0 0,-1e-7 1e-6,-1e-7 0,0 0,-10e-8 10e-7,0 z"
           sodipodi:nodetypes="sssssssssssssssscssssssscssssssscssssssscssssssssssssssscssssssssssssssscssssssscssssssssssssssscssssssssssssssscssssssssssssssscssssssscssssssssssssssssssssssscssssssssssssssssssssssscssssssssssssssscssssssssssssssscssssssssssssssscssssssssssssssscssssssscsssssssccccccccs" />
        <path
           id="path915"
           style="font-style:normal;font-variant:normal;font-weight:normal;font-stretch:normal;font-size:7.65038px;line-height:1.25;font-family:'MV Boli';-inkscape-font-specification:'MV Boli';fill:none;fill-opacity:1;stroke:#000000;stroke-width:0.392157;stroke-miterlimit:4;stroke-dasharray:none;stroke-opacity:1"
           d="m 19.803913,2.4405745 c 0,0.068796 -0.0025,0.1379814 -0.0074,0.2075558 -0.0049,0.069574 -0.01235,0.1395379 -0.02224,0.2098905 -0.0099,0.070353 -0.02224,0.1410943 -0.03706,0.2122252 -0.01483,0.071131 -0.03212,0.1426508 -0.05189,0.2145599 -0.01977,0.071909 -0.04201,0.1442073 -0.06672,0.2168946 -0.02471,0.072687 -0.05189,0.1457638 -0.08154,0.2192294 -0.02965,0.073466 -0.06177,0.1473202 -0.09636,0.221564 -0.03459,0.074244 -0.07166,0.1488768 -0.111191,0.2238988 -0.03922,0.074711 -0.07981,0.1477094 -0.121755,0.2189959 -0.04195,0.071287 -0.08526,0.1408608 -0.129927,0.2087231 -0.04467,0.067862 -0.0907,0.1340124 -0.138098,0.1984504 -0.04739,0.064438 -0.09615,0.1271639 -0.146269,0.1881777 -0.05012,0.061014 -0.101599,0.1203154 -0.154441,0.177905 -0.05284,0.057589 -0.107047,0.1134669 -0.162613,0.1676322 -0.05557,0.054165 -0.112494,0.1066185 -0.170784,0.1573595 -0.05829,0.050741 -0.117942,0.09977 -0.178956,0.1470868 -0.06101,0.047006 -0.121852,0.091073 -0.182516,0.132203 -0.06066,0.04113 -0.121152,0.079322 -0.181465,0.1145759 -0.06031,0.035254 -0.120452,0.06757 -0.180415,0.096949 -0.05996,0.029378 -0.119751,0.055819 -0.179364,0.079322 -0.05961,0.023503 -0.119051,0.044068 -0.178313,0.061695 -0.05926,0.017627 -0.118351,0.032316 -0.177263,0.044068 -0.05891,0.011751 -0.11765,0.020565 -0.176212,0.026441 -0.05856,0.00588 -0.11695,0.00881 -0.175162,0.00881 -0.06039,0 -0.119323,-0.00251 -0.176796,-0.00753 -0.05747,-0.00502 -0.113486,-0.012549 -0.168041,-0.022588 -0.05455,-0.010039 -0.107649,-0.022588 -0.159285,-0.037647 -0.05164,-0.015059 -0.101813,-0.032628 -0.150531,-0.052706 -0.04872,-0.020078 -0.09598,-0.042667 -0.141775,-0.067765 -0.0458,-0.025098 -0.09014,-0.052706 -0.13302,-0.082824 -0.04288,-0.030118 -0.0843,-0.062745 -0.124265,-0.097883 -0.03996,-0.035137 -0.07847,-0.072785 -0.11551,-0.1129416 -0.03704,-0.040468 -0.07177,-0.082843 -0.104186,-0.127125 -0.03241,-0.044282 -0.06251,-0.09047 -0.09029,-0.1385651 -0.02778,-0.048095 -0.05325,-0.098097 -0.0764,-0.1500052 -0.02315,-0.051908 -0.04399,-0.1057235 -0.06251,-0.1614452 -0.01852,-0.055722 -0.03473,-0.1133502 -0.04862,-0.1728854 -0.01389,-0.059535 -0.02547,-0.1209769 -0.03473,-0.1843254 -0.0093,-0.063348 -0.01621,-0.1286036 -0.02084,-0.1957654 -0.0046,-0.067162 -0.0069,-0.1362304 -0.0069,-0.2072056 0,-0.067862 0.0026,-0.1360358 0.0077,-0.2045207 0.0051,-0.068485 0.01284,-0.137281 0.02311,-0.2063884 0.01027,-0.069107 0.02311,-0.1385262 0.03852,-0.2082562 0.01541,-0.06973 0.03339,-0.1397713 0.05393,-0.210124 0.02055,-0.070353 0.04366,-0.1410165 0.06934,-0.2119917 0.02568,-0.070975 0.05393,-0.1422617 0.08475,-0.2138595 0.03082,-0.071598 0.0642,-0.1435069 0.100159,-0.2157273 0.03595,-0.07222 0.07448,-0.144752 0.115568,-0.217595 0.0414,-0.072843 0.08417,-0.1440322 0.128292,-0.2135677 0.04413,-0.069535 0.08961,-0.1374172 0.136464,-0.2036451 0.04685,-0.066228 0.09506,-0.1308022 0.144635,-0.1937226 0.04957,-0.062921 0.100509,-0.1241872 0.152807,-0.1838002 0.0523,-0.059613 0.105957,-0.1175721 0.160978,-0.1738775 0.05502,-0.056305 0.111405,-0.1109572 0.16915,-0.1639551 0.05774,-0.052998 0.116852,-0.1043421 0.177321,-0.1540326 0.06047,-0.04969 0.1223,-0.097727 0.185493,-0.14411 0.0635,-0.046694 0.126541,-0.09047 0.189112,-0.1313275 0.06257,-0.040857 0.124673,-0.078796 0.18631,-0.1138171 0.06164,-0.0350207 0.122805,-0.067123 0.183508,-0.0963068 0.0607,-0.0291839 0.120938,-0.0554494 0.180706,-0.0787965 0.05977,-0.0233471 0.119071,-0.0437758 0.177905,-0.0612862 0.05883,-0.0175103 0.117203,-0.0321023 0.175104,-0.0437758 0.0579,-0.0116735 0.115334,-0.0204287 0.172301,-0.0262655 0.05697,-0.005837 0.113467,-0.008755 0.1695,-0.008755 0.05977,0 0.117942,0.002432 0.17452,0.007296 0.05658,0.004864 0.11156,0.01216 0.164947,0.0218879 0.05339,0.009728 0.105179,0.0218879 0.155375,0.0364799 0.0502,0.0145919 0.0988,0.0316159 0.145803,0.0510718 0.04701,0.0194559 0.09242,0.0413438 0.13623,0.0656637 0.04381,0.0243199 0.08603,0.0510718 0.126658,0.0802557 0.04062,0.0291839 0.07965,0.0607998 0.117086,0.0948476 0.03743,0.034048 0.07327,0.070528 0.107514,0.1094396 0.03424,0.038912 0.06634,0.079614 0.09631,0.1221053 0.02996,0.042492 0.05778,0.086773 0.08347,0.132845 0.02568,0.046072 0.04922,0.093933 0.07062,0.1435847 0.0214,0.049651 0.04066,0.1010929 0.05778,0.1543244 0.01712,0.053231 0.0321,0.1082527 0.04494,0.165064 0.01284,0.056811 0.02354,0.1154126 0.0321,0.1758038 0.0086,0.060391 0.01498,0.1225723 0.01926,0.1865434 0.0043,0.063971 0.0064,0.1297321 0.0064,0.1972831 z m -3.99329,2.0246612 c 0,0.039846 0.0013,0.078797 0.0039,0.1168523 0.0026,0.038056 0.0065,0.075217 0.01173,0.1114824 0.0052,0.036266 0.01173,0.071637 0.01955,0.1061126 0.0078,0.034476 0.01695,0.068057 0.02737,0.1007427 0.01043,0.032686 0.02216,0.064477 0.0352,0.095373 0.01304,0.030896 0.02738,0.060897 0.04302,0.090003 0.01564,0.029106 0.03259,0.057317 0.05084,0.084633 0.01825,0.027316 0.0378,0.053737 0.05866,0.079263 0.02117,0.025215 0.04307,0.048854 0.06572,0.070917 0.02265,0.022063 0.04603,0.04255 0.07016,0.061461 0.02413,0.018911 0.04899,0.036246 0.07459,0.052006 0.0256,0.015759 0.05195,0.029943 0.07903,0.04255 0.02708,0.012607 0.0549,0.023639 0.08347,0.033095 0.02856,0.00946 0.05786,0.017335 0.0879,0.023639 0.03004,0.0063 0.06082,0.011032 0.09234,0.014183 0.03152,0.00315 0.06378,0.00473 0.09677,0.00473 0.04389,0 0.08792,-0.00255 0.132086,-0.00765 0.04416,-0.0051 0.08847,-0.012744 0.132904,-0.022939 0.04444,-0.010195 0.08901,-0.022938 0.13372,-0.038231 0.04471,-0.015292 0.08956,-0.033133 0.134538,-0.053523 0.04498,-0.02039 0.0901,-0.043328 0.135355,-0.068816 0.04525,-0.025487 0.09064,-0.053523 0.136172,-0.084108 0.04553,-0.030585 0.09119,-0.063718 0.136989,-0.0994 0.0458,-0.035682 0.09173,-0.073913 0.137806,-0.1146927 0.04638,-0.041091 0.09175,-0.083641 0.136114,-0.1276503 0.04436,-0.044009 0.08771,-0.089478 0.130043,-0.1364055 0.04234,-0.046928 0.08366,-0.095314 0.123973,-0.1451606 0.04031,-0.049846 0.07961,-0.1011514 0.117903,-0.1539158 0.03829,-0.052765 0.07557,-0.1069881 0.111833,-0.162671 0.03627,-0.055683 0.07152,-0.1128249 0.105762,-0.1714261 0.03424,-0.058601 0.06747,-0.1186617 0.09969,-0.1801813 0.03222,-0.06152 0.06343,-0.1244985 0.09362,-0.1889365 0.03051,-0.064438 0.05911,-0.1284091 0.0858,-0.1919132 0.02669,-0.063504 0.05148,-0.1265413 0.07436,-0.1891116 0.02288,-0.06257 0.04385,-0.1246735 0.06292,-0.1863099 0.01907,-0.061636 0.03623,-0.1228058 0.05148,-0.1835083 0.01525,-0.060703 0.0286,-0.120938 0.04004,-0.1807066 0.01144,-0.059769 0.02097,-0.1190702 0.0286,-0.1779049 0.0076,-0.058835 0.01335,-0.1172025 0.01716,-0.1751033 0.0038,-0.057901 0.0057,-0.1153348 0.0057,-0.1723017 0,-0.040157 -0.0011,-0.079147 -0.0033,-0.116969 -0.0022,-0.037822 -0.0055,-0.074477 -0.01,-0.1099649 -0.0044,-0.035488 -0.01,-0.069808 -0.01664,-0.1029607 -0.0067,-0.033153 -0.01442,-0.065139 -0.02329,-0.095957 -0.0089,-0.030818 -0.01885,-0.060469 -0.02994,-0.088952 -0.01109,-0.028483 -0.02329,-0.0558 -0.0366,-0.081948 -0.01331,-0.026149 -0.02772,-0.05113 -0.04325,-0.074944 -0.01553,-0.023814 -0.03216,-0.046461 -0.04991,-0.06794 -0.01743,-0.021791 -0.03584,-0.042219 -0.05522,-0.061286 -0.01938,-0.019067 -0.03973,-0.036772 -0.06105,-0.053115 -0.02132,-0.016343 -0.04362,-0.031324 -0.06689,-0.044943 -0.02327,-0.013619 -0.04751,-0.025876 -0.07273,-0.036772 -0.02521,-0.010895 -0.0514,-0.020429 -0.07856,-0.0286 -0.02716,-0.00817 -0.05529,-0.014981 -0.0844,-0.020429 -0.02911,-0.00545 -0.05918,-0.00953 -0.09024,-0.012257 -0.03105,-0.00272 -0.06308,-0.00409 -0.09607,-0.00409 -0.04545,0 -0.09107,0.00247 -0.136872,0.00741 -0.0458,0.00494 -0.09177,0.012355 -0.137923,0.022238 -0.04615,0.00988 -0.09247,0.022238 -0.138974,0.037064 -0.0465,0.014825 -0.09317,0.032122 -0.140024,0.051889 -0.04685,0.019767 -0.09388,0.042005 -0.141075,0.066714 -0.0472,0.024709 -0.09458,0.051889 -0.142125,0.08154 -0.04755,0.029651 -0.09528,0.061773 -0.143176,0.096365 -0.0479,0.034593 -0.09598,0.071656 -0.144227,0.1111906 -0.04794,0.039223 -0.09483,0.079905 -0.140666,0.122047 -0.04584,0.042142 -0.09063,0.085742 -0.134363,0.1308021 -0.04374,0.04506 -0.08642,0.091579 -0.128059,0.1395574 -0.04164,0.047978 -0.08222,0.097416 -0.121755,0.1483124 -0.03954,0.050897 -0.07802,0.1032526 -0.115452,0.1570677 -0.03743,0.053815 -0.07382,0.1090894 -0.109148,0.1658228 -0.03533,0.056733 -0.06961,0.1149262 -0.102844,0.174578 -0.03323,0.059652 -0.06541,0.120763 -0.09654,0.1833332 -0.03113,0.062259 -0.06031,0.1241872 -0.08755,0.1857846 -0.02724,0.061597 -0.05253,0.1228642 -0.07588,0.1838001 -0.02335,0.060936 -0.04475,0.1215412 -0.0642,0.1818156 -0.01946,0.060274 -0.03697,0.1202182 -0.05253,0.1798312 -0.01556,0.059613 -0.02918,0.1188951 -0.04086,0.1778465 -0.01167,0.058952 -0.0214,0.1175722 -0.02918,0.1758621 -0.0078,0.05829 -0.01362,0.1162492 -0.01751,0.1738776 -0.0039,0.057628 -0.0058,0.1149262 -0.0058,0.1718931 z"
           sodipodi:nodetypes="sssssssscssssssscssssssssssssssscssssssssssssssscssssssscsssssssssssssssssssssssssssssssscssssssssssssssscssssssscssssssssssssssscssssssssssssssscssssssscssssssss" />
      </g>
    </g>
  </g>
</svg>
