  0
SECTION
  2
HEADER
  9
$ACADVER
  1
AC1027
  9
$ACADMAINTVER
 70
   105
  9
$DWGCODEPAGE
  3
ANSI_1252
  9
$REQUIREDVERSIONS
160
                 0
  9
$INSBASE
 10
0.0
 20
0.0
 30
0.0
  9
$EXTMIN
 10
-354.4234984086411
 20
-6586.460868730419
 30
0.0
  9
$EXTMAX
 10
1359.107588907842
 20
91.14373740045546
 30
0.0
  9
$LIMMIN
 10
0.0
 20
0.0
  9
$LIMMAX
 10
12.0
 20
9.0
  9
$ORTHOMODE
 70
     0
  9
$REGENMODE
 70
     1
  9
$FILLMODE
 70
     1
  9
$QTEXTMODE
 70
     0
  9
$MIRRTEXT
 70
     1
  9
$LTSCALE
 40
1.0
  9
$ATTMODE
 70
     1
  9
$TEXTSIZE
 40
2.5
  9
$TRACEWID
 40
0.05
  9
$TEXTSTYLE
  7
Standard
  9
$CLAYER
  8
CUT
  9
$CELTYPE
  6
ByLayer
  9
$CECOLOR
 62
    18
  9
$CELTSCALE
 40
1.0
  9
$DISPSILH
 70
     0
  9
$DIMSCALE
 40
1.0
  9
$DIMASZ
 40
50.0
  9
$DIMEXO
 40
12.5
  9
$DIMDLI
 40
100.0
  9
$DIMRND
 40
0.0
  9
$DIMDLE
 40
0.0
  9
$DIMEXE
 40
25.0
  9
$DIMTP
 40
0.0
  9
$DIMTM
 40
0.0
  9
$DIMTXT
 40
50.0
  9
$DIMCEN
 40
0.09
  9
$DIMTSZ
 40
0.0
  9
$DIMTOL
 70
     0
  9
$DIMLIM
 70
     0
  9
$DIMTIH
 70
     1
  9
$DIMTOH
 70
     1
  9
$DIMSE1
 70
     0
  9
$DIMSE2
 70
     0
  9
$DIMTAD
 70
     0
  9
$DIMZIN
 70
     0
  9
$DIMBLK
  1

  9
$DIMASO
 70
     1
  9
$DIMSHO
 70
     1
  9
$DIMPOST
  1

  9
$DIMAPOST
  1

  9
$DIMALT
 70
     0
  9
$DIMALTD
 70
     2
  9
$DIMALTF
 40
25.4
  9
$DIMLFAC
 40
1.0
  9
$DIMTOFL
 70
     0
  9
$DIMTVP
 40
0.0
  9
$DIMTIX
 70
     0
  9
$DIMSOXD
 70
     0
  9
$DIMSAH
 70
     0
  9
$DIMBLK1
  1

  9
$DIMBLK2
  1

  9
$DIMSTYLE
  2
Standard
  9
$DIMCLRD
 70
    18
  9
$DIMCLRE
 70
    18
  9
$DIMCLRT
 70
    18
  9
$DIMTFAC
 40
1.0
  9
$DIMGAP
 40
12.5
  9
$DIMJUST
 70
     0
  9
$DIMSD1
 70
     0
  9
$DIMSD2
 70
     0
  9
$DIMTOLJ
 70
     1
  9
$DIMTZIN
 70
     0
  9
$DIMALTZ
 70
     0
  9
$DIMALTTZ
 70
     0
  9
$DIMUPT
 70
     0
  9
$DIMDEC
 70
     2
  9
$DIMTDEC
 70
     4
  9
$DIMALTU
 70
     2
  9
$DIMALTTD
 70
     2
  9
$DIMTXSTY
  7
Standard
  9
$DIMAUNIT
 70
     0
  9
$DIMADEC
 70
     2
  9
$DIMALTRND
 40
0.0
  9
$DIMAZIN
 70
     0
  9
$DIMDSEP
 70
    46
  9
$DIMATFIT
 70
     3
  9
$DIMFRAC
 70
     0
  9
$DIMLDRBLK
  1

  9
$DIMLUNIT
 70
     2
  9
$DIMLWD
 70
    -2
  9
$DIMLWE
 70
    -2
  9
$DIMTMOVE
 70
     0
  9
$DIMFXL
 40
1.0
  9
$DIMFXLON
 70
     0
  9
$DIMJOGANG
 40
0.7853981633974483
  9
$DIMTFILL
 70
     0
  9
$DIMTFILLCLR
 70
     0
  9
$DIMARCSYM
 70
     0
  9
$DIMLTYPE
  6

  9
$DIMLTEX1
  6

  9
$DIMLTEX2
  6

  9
$DIMTXTDIRECTION
 70
     0
  9
$LUNITS
 70
     2
  9
$LUPREC
 70
     4
  9
$SKETCHINC
 40
0.1
  9
$FILLETRAD
 40
0.5
  9
$AUNITS
 70
     0
  9
$AUPREC
 70
     0
  9
$MENU
  1
.
  9
$ELEVATION
 40
0.0
  9
$PELEVATION
 40
0.0
  9
$THICKNESS
 40
0.0
  9
$LIMCHECK
 70
     0
  9
$CHAMFERA
 40
0.0
  9
$CHAMFERB
 40
0.0
  9
$CHAMFERC
 40
0.0
  9
$CHAMFERD
 40
0.0
  9
$SKPOLY
 70
     0
  9
$TDCREATE
 40
2459021.950210128
  9
$TDUCREATE
 40
2459021.866876794
  9
$TDUPDATE
 40
2459021.950210312
  9
$TDUUPDATE
 40
2459021.866876979
  9
$TDINDWG
 40
0.0000000116
  9
$TDUSRTIMER
 40
0.0000000116
  9
$USRTIMER
 70
     1
  9
$ANGBASE
 50
0.0
  9
$ANGDIR
 70
     0
  9
$PDMODE
 70
     0
  9
$PDSIZE
 40
0.0
  9
$PLINEWID
 40
0.0
  9
$SPLFRAME
 70
     0
  9
$SPLINETYPE
 70
     6
  9
$SPLINESEGS
 70
     8
  9
$HANDSEED
  5
195AF
  9
$SURFTAB1
 70
     6
  9
$SURFTAB2
 70
     6
  9
$SURFTYPE
 70
     6
  9
$SURFU
 70
     6
  9
$SURFV
 70
     6
  9
$UCSBASE
  2

  9
$UCSNAME
  2

  9
$UCSORG
 10
0.0
 20
0.0
 30
0.0
  9
$UCSXDIR
 10
1.0
 20
0.0
 30
0.0
  9
$UCSYDIR
 10
0.0
 20
1.0
 30
0.0
  9
$UCSORTHOREF
  2

  9
$UCSORTHOVIEW
 70
     0
  9
$UCSORGTOP
 10
0.0
 20
0.0
 30
0.0
  9
$UCSORGBOTTOM
 10
0.0
 20
0.0
 30
0.0
  9
$UCSORGLEFT
 10
0.0
 20
0.0
 30
0.0
  9
$UCSORGRIGHT
 10
0.0
 20
0.0
 30
0.0
  9
$UCSORGFRONT
 10
0.0
 20
0.0
 30
0.0
  9
$UCSORGBACK
 10
0.0
 20
0.0
 30
0.0
  9
$PUCSBASE
  2

  9
$PUCSNAME
  2

  9
$PUCSORG
 10
0.0
 20
0.0
 30
0.0
  9
$PUCSXDIR
 10
1.0
 20
0.0
 30
0.0
  9
$PUCSYDIR
 10
0.0
 20
1.0
 30
0.0
  9
$PUCSORTHOREF
  2

  9
$PUCSORTHOVIEW
 70
     0
  9
$PUCSORGTOP
 10
0.0
 20
0.0
 30
0.0
  9
$PUCSORGBOTTOM
 10
0.0
 20
0.0
 30
0.0
  9
$PUCSORGLEFT
 10
0.0
 20
0.0
 30
0.0
  9
$PUCSORGRIGHT
 10
0.0
 20
0.0
 30
0.0
  9
$PUCSORGFRONT
 10
0.0
 20
0.0
 30
0.0
  9
$PUCSORGBACK
 10
0.0
 20
0.0
 30
0.0
  9
$USERI1
 70
     0
  9
$USERI2
 70
     0
  9
$USERI3
 70
     0
  9
$USERI4
 70
     0
  9
$USERI5
 70
     0
  9
$USERR1
 40
0.0
  9
$USERR2
 40
0.0
  9
$USERR3
 40
0.0
  9
$USERR4
 40
0.0
  9
$USERR5
 40
0.0
  9
$WORLDVIEW
 70
     1
  9
$SHADEDGE
 70
     3
  9
$SHADEDIF
 70
    70
  9
$TILEMODE
 70
     1
  9
$MAXACTVP
 70
    64
  9
$PINSBASE
 10
0.0
 20
0.0
 30
0.0
  9
$PLIMCHECK
 70
     0
  9
$PEXTMIN
 10
1.000000000000000E+20
 20
1.000000000000000E+20
 30
1.000000000000000E+20
  9
$PEXTMAX
 10
-1.000000000000000E+20
 20
-1.000000000000000E+20
 30
-1.000000000000000E+20
  9
$PLIMMIN
 10
-20.0
 20
-7.5
  9
$PLIMMAX
 10
277.0
 20
202.5
  9
$UNITMODE
 70
     0
  9
$VISRETAIN
 70
     1
  9
$PLINEGEN
 70
     0
  9
$PSLTSCALE
 70
     1
  9
$TREEDEPTH
 70
  3020
  9
$CMLSTYLE
  2
Standard
  9
$CMLJUST
 70
     0
  9
$CMLSCALE
 40
1.0
  9
$PROXYGRAPHICS
 70
     1
  9
$MEASUREMENT
 70
     1
  9
$CELWEIGHT
370
    -1
  9
$ENDCAPS
280
     0
  9
$JOINSTYLE
280
     0
  9
$LWDISPLAY
290
     0
  9
$INSUNITS
 70
     0
  9
$HYPERLINKBASE
  1

  9
$STYLESHEET
  1

  9
$XEDIT
290
     1
  9
$CEPSNTYPE
380
     0
  9
$PSTYLEMODE
290
     1
  9
$FINGERPRINTGUID
  2
{39fff7c6-14e8-4014-82d5-091326d35bf9}
  9
$VERSIONGUID
  2
{FAEB1C32-E019-11D5-929B-00C0DF256EC4}
  9
$EXTNAMES
290
     1
  9
$PSVPSCALE
 40
0.0
  9
$OLESTARTUP
290
     0
  9
$SORTENTS
280
   127
  9
$INDEXCTL
280
     0
  9
$HIDETEXT
280
     1
  9
$XCLIPFRAME
280
     2
  9
$HALOGAP
280
     0
  9
$OBSCOLOR
 70
   257
  9
$OBSLTYPE
280
     0
  9
$INTERSECTIONDISPLAY
280
     0
  9
$INTERSECTIONCOLOR
 70
   257
  9
$DIMASSOC
280
     2
  9
$PROJECTNAME
  1

  9
$CAMERADISPLAY
290
     0
  9
$LENSLENGTH
 40
50.0
  9
$CAMERAHEIGHT
 40
0.0
  9
$STEPSPERSEC
 40
2.0
  9
$STEPSIZE
 40
6.0
  9
$3DDWFPREC
 40
2.0
  9
$PSOLWIDTH
 40
0.25
  9
$PSOLHEIGHT
 40
4.0
  9
$LOFTANG1
 40
1.570796326794897
  9
$LOFTANG2
 40
1.570796326794897
  9
$LOFTMAG1
 40
0.0
  9
$LOFTMAG2
 40
0.0
  9
$LOFTPARAM
 70
     7
  9
$LOFTNORMALS
280
     1
  9
$LATITUDE
 40
37.795
  9
$LONGITUDE
 40
-122.394
  9
$NORTHDIRECTION
 40
0.0
  9
$TIMEZONE
 70
 -8000
  9
$LIGHTGLYPHDISPLAY
280
     1
  9
$TILEMODELIGHTSYNCH
280
     1
  9
$CMATERIAL
347
194F7
  9
$SOLIDHIST
280
     0
  9
$SHOWHIST
280
     1
  9
$DWFFRAME
280
     2
  9
$DGNFRAME
280
     2
  9
$REALWORLDSCALE
290
     1
  9
$INTERFERECOLOR
 62
   256
  9
$CSHADOW
280
     0
  9
$SHADOWPLANELOCATION
 40
0.0
  0
ENDSEC
  0
SECTION
  2
CLASSES
  0
CLASS
  1
ACDBDICTIONARYWDFLT
  2
AcDbDictionaryWithDefault
  3
ObjectDBX Classes
 90
        0
 91
        3
280
     0
281
     0
  0
CLASS
  1
VISUALSTYLE
  2
AcDbVisualStyle
  3
ObjectDBX Classes
 90
     4095
 91
        3
280
     0
281
     0
  0
CLASS
  1
MATERIAL
  2
AcDbMaterial
  3
ObjectDBX Classes
 90
     1153
 91
        3
280
     0
281
     0
  0
CLASS
  1
SCALE
  2
AcDbScale
  3
ObjectDBX Classes
 90
     1153
 91
        3
280
     0
281
     0
  0
CLASS
  1
TABLESTYLE
  2
AcDbTableStyle
  3
ObjectDBX Classes
 90
     4095
 91
        3
280
     0
281
     0
  0
CLASS
  1
MLEADERSTYLE
  2
AcDbMLeaderStyle
  3
ACDB_MLEADERSTYLE_CLASS
 90
     4095
 91
        3
280
     0
281
     0
  0
CLASS
  1
SUN
  2
AcDbSun
  3
SCENEOE
 90
     1153
 91
        3
280
     0
281
     0
  0
CLASS
  1
DICTIONARYVAR
  2
AcDbDictionaryVar
  3
ObjectDBX Classes
 90
        0
 91
        3
280
     0
281
     0
  0
CLASS
  1
CELLSTYLEMAP
  2
AcDbCellStyleMap
  3
ObjectDBX Classes
 90
     1152
 91
        3
280
     0
281
     0
  0
ENDSEC
  0
SECTION
  2
TABLES
  0
TABLE
  2
VPORT
  5
194BC
330
0
100
AcDbSymbolTable
 70
     1
  0
VPORT
  5
194DC
330
194BC
100
AcDbSymbolTableRecord
100
AcDbViewportTableRecord
  2
*Active
 70
     0
 10
0.0
 20
0.0
 11
1.0
 21
1.0
 12
502.3419862931682
 22
-4604.423577149423
 13
0.0
 23
0.0
 14
0.5
 24
0.5
 15
0.5
 25
0.5
 16
0.0
 26
0.0
 36
1.0
 17
0.0
 27
0.0
 37
0.0
 40
881.7418533604905
 41
1.807763401109058
 42
50.0
 43
0.0
 44
0.0
 50
0.0
 51
0.0
 71
     0
 72
   100
 73
     1
 74
     3
 75
     0
 76
     0
 77
     0
 78
     0
281
     0
 65
     1
110
0.0
120
0.0
130
0.0
111
1.0
121
0.0
131
0.0
112
0.0
122
1.0
132
0.0
 79
     0
146
0.0
348
194E2
 60
     3
 61
     5
292
     1
282
     1
141
0.0
142
0.0
 63
   250
361
19520
  0
ENDTAB
  0
TABLE
  2
LTYPE
  5
194B9
330
0
100
AcDbSymbolTable
 70
    52
  0
LTYPE
  5
194C7
330
194B9
100
AcDbSymbolTableRecord
100
AcDbLinetypeTableRecord
  2
ByBlock
 70
     0
  3

 72
    65
 73
     0
 40
0.0
  0
LTYPE
  5
194C8
330
194B9
100
AcDbSymbolTableRecord
100
AcDbLinetypeTableRecord
  2
ByLayer
 70
     0
  3

 72
    65
 73
     0
 40
0.0
  0
LTYPE
  5
194C9
330
194B9
100
AcDbSymbolTableRecord
100
AcDbLinetypeTableRecord
  2
Continuous
 70
     0
  3
Solid line
 72
    65
 73
     0
 40
0.0
  0
LTYPE
  5
19563
330
194B9
100
AcDbSymbolTableRecord
100
AcDbLinetypeTableRecord
  2
ZIGZAG
 70
     0
  3
Zig zag /\/\/\/\/\/\/\/\/\/\/\/\/\/\/\/\/\/\/\/\/\/\/\/
 72
    65
 73
     4
 40
20.32254
 49
0.00254
 74
     0
 49
-5.08
 74
     2
 75
     0
340
19561
 46
5.08
 50
0.0
 44
-5.08
 45
0.0
  9
ZIG
 49
-10.16
 74
     2
 75
     0
340
19562
 46
5.08
 50
180.0
 44
5.08
 45
0.0
  9
ZIG
 49
-5.08
 74
     0
  0
LTYPE
  5
19565
330
194B9
100
AcDbSymbolTableRecord
100
AcDbLinetypeTableRecord
  2
TRACKS
 70
     0
  3
Tracks -|-|-|-|-|-|-|-|-|-|-|-|-|-|-|-|-|-|-|-|-|-|-|-|-
 72
    65
 73
     2
 40
7.62
 49
3.81
 74
     2
 75
     0
340
19564
 46
6.35
 50
0.0
 44
0.0
 45
0.0
  9
TRACK1
 49
3.81
 74
     0
  0
LTYPE
  5
19566
330
194B9
100
AcDbSymbolTableRecord
100
AcDbLinetypeTableRecord
  2
PHANTOMX2
 70
     0
  3
Phantom (2x) ____________    ____    ____   _
 72
    65
 73
     6
 40
127.0
 49
63.5
 74
     0
 49
-12.7
 74
     0
 49
12.7
 74
     0
 49
-12.7
 74
     0
 49
12.7
 74
     0
 49
-12.7
 74
     0
  0
LTYPE
  5
19567
330
194B9
100
AcDbSymbolTableRecord
100
AcDbLinetypeTableRecord
  2
HIDDEN2
 70
     0
  3
Hidden (.5x) _ _ _ _ _ _ _ _ _ _ _ _ _ _ _ _ _ 
 72
    65
 73
     2
 40
4.762499999999999
 49
3.175
 74
     0
 49
-1.5875
 74
     0
  0
LTYPE
  5
19568
330
194B9
100
AcDbSymbolTableRecord
100
AcDbLinetypeTableRecord
  2
HIDDEN
 70
     0
  3
Hidden __ __ __ __ __ __ __ __ __ __ __ __ __ __
 72
    65
 73
     2
 40
9.524999999999999
 49
6.35
 74
     0
 49
-3.175
 74
     0
  0
LTYPE
  5
1956A
330
194B9
100
AcDbSymbolTableRecord
100
AcDbLinetypeTableRecord
  2
GAS_LINE
 70
     0
  3
Gas line ----GAS----GAS----GAS----GAS----GAS----GAS--
 72
    65
 73
     3
 40
24.13
 49
12.7
 74
     0
 49
-5.08
 74
     2
 75
     0
340
19569
 46
2.54
 50
0.0
 44
-2.54
 45
-1.27
  9
GAS
 49
-6.35
 74
     0
  0
LTYPE
  5
1956C
330
194B9
100
AcDbSymbolTableRecord
100
AcDbLinetypeTableRecord
  2
FENCELINE2
 70
     0
  3
Fenceline square ----[]-----[]----[]-----[]----[]---
 72
    65
 73
     4
 40
36.83
 49
6.35
 74
     0
 49
-2.54
 74
     2
 75
     0
340
1956B
 46
2.54
 50
0.0
 44
-2.54
 45
0.0
  9
BOX
 49
-2.54
 74
     0
 49
25.4
 74
     0
  0
LTYPE
  5
1956D
330
194B9
100
AcDbSymbolTableRecord
100
AcDbLinetypeTableRecord
  2
PHANTOM2
 70
     0
  3
Phantom (.5x) ___ _ _ ___ _ _ ___ _ _ ___ _ _
 72
    65
 73
     6
 40
31.75
 49
15.875
 74
     0
 49
-3.175
 74
     0
 49
3.175
 74
     0
 49
-3.175
 74
     0
 49
3.175
 74
     0
 49
-3.175
 74
     0
  0
LTYPE
  5
1956E
330
194B9
100
AcDbSymbolTableRecord
100
AcDbLinetypeTableRecord
  2
PHANTOM
 70
     0
  3
Phantom ______  __  __  ______  __  __  ______ 
 72
    65
 73
     6
 40
63.50000000000001
 49
31.75
 74
     0
 49
-6.35
 74
     0
 49
6.35
 74
     0
 49
-6.35
 74
     0
 49
6.35
 74
     0
 49
-6.35
 74
     0
  0
LTYPE
  5
19570
330
194B9
100
AcDbSymbolTableRecord
100
AcDbLinetypeTableRecord
  2
HOT_WATER_SUPPLY
 70
     0
  3
Hot water supply ---- HW ---- HW ---- HW ----
 72
    65
 73
     3
 40
22.86
 49
12.7
 74
     0
 49
-5.08
 74
     2
 75
     0
340
1956F
 46
2.54
 50
0.0
 44
-2.54
 45
-1.27
  9
HW
 49
-5.08
 74
     0
  0
LTYPE
  5
19571
330
194B9
100
AcDbSymbolTableRecord
100
AcDbLinetypeTableRecord
  2
HIDDENX2
 70
     0
  3
Hidden (2x) ____ ____ ____ ____ ____ ____ ____ 
 72
    65
 73
     2
 40
19.05
 49
12.7
 74
     0
 49
-6.35
 74
     0
  0
LTYPE
  5
19572
330
194B9
100
AcDbSymbolTableRecord
100
AcDbLinetypeTableRecord
  2
DOT2
 70
     0
  3
Dot (.5x) ........................................
 72
    65
 73
     2
 40
3.175
 49
0.0
 74
     0
 49
-3.175
 74
     0
  0
LTYPE
  5
19573
330
194B9
100
AcDbSymbolTableRecord
100
AcDbLinetypeTableRecord
  2
DOT
 70
     0
  3
Dot . . . . . . . . . . . . . . . . . . . . . . . .
 72
    65
 73
     2
 40
6.35
 49
0.0
 74
     0
 49
-6.35
 74
     0
  0
LTYPE
  5
19574
330
194B9
100
AcDbSymbolTableRecord
100
AcDbLinetypeTableRecord
  2
DIVIDEX2
 70
     0
  3
Divide (2x) ________  .  .  ________  .  .  _
 72
    65
 73
     6
 40
63.5
 49
25.4
 74
     0
 49
-12.7
 74
     0
 49
0.0
 74
     0
 49
-12.7
 74
     0
 49
0.0
 74
     0
 49
-12.7
 74
     0
  0
LTYPE
  5
19575
330
194B9
100
AcDbSymbolTableRecord
100
AcDbLinetypeTableRecord
  2
DIVIDE2
 70
     0
  3
Divide (.5x) __..__..__..__..__..__..__..__.._
 72
    65
 73
     6
 40
15.875
 49
6.35
 74
     0
 49
-3.175
 74
     0
 49
0.0
 74
     0
 49
-3.175
 74
     0
 49
0.0
 74
     0
 49
-3.175
 74
     0
  0
LTYPE
  5
19577
330
194B9
100
AcDbSymbolTableRecord
100
AcDbLinetypeTableRecord
  2
FENCELINE1
 70
     0
  3
Fenceline circle ----0-----0----0-----0----0-----0--
 72
    65
 73
     4
 40
36.83
 49
6.35
 74
     0
 49
-2.54
 74
     2
 75
     0
340
19576
 46
2.54
 50
0.0
 44
-2.54
 45
0.0
  9
CIRC1
 49
-2.54
 74
     0
 49
25.4
 74
     0
  0
LTYPE
  5
19579
330
194B9
100
AcDbSymbolTableRecord
100
AcDbLinetypeTableRecord
  2
DRAINAGE2
 70
     0
  3
Drainage reversed----<----<----<----
 72
    65
 73
     2
 40
10.16
 49
5.08
 74
     2
 75
     0
340
19578
 46
2.54
 50
0.0
 44
0.0
 45
0.0
  9
RIGHT_ARROW
 49
5.08
 74
     0
  0
LTYPE
  5
1957B
330
194B9
100
AcDbSymbolTableRecord
100
AcDbLinetypeTableRecord
  2
DRAINAGE
 70
     0
  3
Drainage ---->---->---->----
 72
    65
 73
     2
 40
10.16
 49
5.08
 74
     2
 75
     0
340
1957A
 46
2.54
 50
180.0
 44
0.0
 45
0.0
  9
RIGHT_ARROW
 49
5.08
 74
     0
  0
LTYPE
  5
1957C
330
194B9
100
AcDbSymbolTableRecord
100
AcDbLinetypeTableRecord
  2
DOTX2
 70
     0
  3
Dot (2x) .  .  .  .  .  .  .  .  .  .  .  .  .  .
 72
    65
 73
     2
 40
12.7
 49
0.0
 74
     0
 49
-12.7
 74
     0
  0
LTYPE
  5
1957D
330
194B9
100
AcDbSymbolTableRecord
100
AcDbLinetypeTableRecord
  2
DASHDOTX2
 70
     0
  3
Dash dot (2x) ____  .  ____  .  ____  .  ___
 72
    65
 73
     4
 40
50.8
 49
25.4
 74
     0
 49
-12.7
 74
     0
 49
0.0
 74
     0
 49
-12.7
 74
     0
  0
LTYPE
  5
1957E
330
194B9
100
AcDbSymbolTableRecord
100
AcDbLinetypeTableRecord
  2
DASHDOT2
 70
     0
  3
Dash dot (.5x) _._._._._._._._._._._._._._._.
 72
    65
 73
     4
 40
12.7
 49
6.35
 74
     0
 49
-3.175
 74
     0
 49
0.0
 74
     0
 49
-3.175
 74
     0
  0
LTYPE
  5
1957F
330
194B9
100
AcDbSymbolTableRecord
100
AcDbLinetypeTableRecord
  2
DASHDOT
 70
     0
  3
Dash dot __ . __ . __ . __ . __ . __ . __ . __
 72
    65
 73
     4
 40
25.4
 49
12.7
 74
     0
 49
-6.35
 74
     0
 49
0.0
 74
     0
 49
-6.35
 74
     0
  0
LTYPE
  5
19581
330
194B9
100
AcDbSymbolTableRecord
100
AcDbLinetypeTableRecord
  2
CUTRIGHT2
 70
     0
  3
G42 reversed----\----\----\----
 72
    65
 73
     2
 40
10.16
 49
5.08
 74
     2
 75
     0
340
19580
 46
2.54
 50
0.0
 44
0.0
 45
0.0
  9
HRIGHT_ARROW
 49
5.08
 74
     0
  0
LTYPE
  5
19582
330
194B9
100
AcDbSymbolTableRecord
100
AcDbLinetypeTableRecord
  2
DIVIDE
 70
     0
  3
Divide ____ . . ____ . . ____ . . ____ . . ____
 72
    65
 73
     6
 40
31.75
 49
12.7
 74
     0
 49
-6.35
 74
     0
 49
0.0
 74
     0
 49
-6.35
 74
     0
 49
0.0
 74
     0
 49
-6.35
 74
     0
  0
LTYPE
  5
19583
330
194B9
100
AcDbSymbolTableRecord
100
AcDbLinetypeTableRecord
  2
DASHEDX2
 70
     0
  3
Dashed (2x) ____  ____  ____  ____  ____  ___
 72
    65
 73
     2
 40
38.09999999999999
 49
25.4
 74
     0
 49
-12.7
 74
     0
  0
LTYPE
  5
19584
330
194B9
100
AcDbSymbolTableRecord
100
AcDbLinetypeTableRecord
  2
DASHED2
 70
     0
  3
Dashed (.5x) _ _ _ _ _ _ _ _ _ _ _ _ _ _ _ _ _ 
 72
    65
 73
     2
 40
9.524999999999999
 49
6.35
 74
     0
 49
-3.175
 74
     0
  0
LTYPE
  5
19585
330
194B9
100
AcDbSymbolTableRecord
100
AcDbLinetypeTableRecord
  2
DASHED
 70
     0
  3
Dashed __ __ __ __ __ __ __ __ __ __ __ __ __ _
 72
    65
 73
     2
 40
19.05
 49
12.7
 74
     0
 49
-6.35
 74
     0
  0
LTYPE
  5
19586
330
194B9
100
AcDbSymbolTableRecord
100
AcDbLinetypeTableRecord
  2
CENTER2
 70
     0
  3
Center (.5x) ___ _ ___ _ ___ _ ___ _ ___ _ ___
 72
    65
 73
     4
 40
28.575
 49
19.05
 74
     0
 49
-3.175
 74
     0
 49
3.175
 74
     0
 49
-3.175
 74
     0
  0
LTYPE
  5
19587
330
194B9
100
AcDbSymbolTableRecord
100
AcDbLinetypeTableRecord
  2
CENTER
 70
     0
  3
Center ____ _ ____ _ ____ _ ____ _ ____ _ ____
 72
    65
 73
     4
 40
50.8
 49
31.75
 74
     0
 49
-6.35
 74
     0
 49
6.35
 74
     0
 49
-6.35
 74
     0
  0
LTYPE
  5
19588
330
194B9
100
AcDbSymbolTableRecord
100
AcDbLinetypeTableRecord
  2
BORDERX2
 70
     0
  3
Border (2x) ____  ____  .  ____  ____  .  ___
 72
    65
 73
     6
 40
88.89999999999999
 49
25.4
 74
     0
 49
-12.7
 74
     0
 49
25.4
 74
     0
 49
-12.7
 74
     0
 49
0.0
 74
     0
 49
-12.7
 74
     0
  0
LTYPE
  5
19589
330
194B9
100
AcDbSymbolTableRecord
100
AcDbLinetypeTableRecord
  2
BORDER2
 70
     0
  3
Border (.5x) __.__.__.__.__.__.__.__.__.__.__.
 72
    65
 73
     6
 40
22.225
 49
6.35
 74
     0
 49
-3.175
 74
     0
 49
6.35
 74
     0
 49
-3.175
 74
     0
 49
0.0
 74
     0
 49
-3.175
 74
     0
  0
LTYPE
  5
1958B
330
194B9
100
AcDbSymbolTableRecord
100
AcDbLinetypeTableRecord
  2
CUTRIGHT
 70
     0
  3
G42 ----/----/-----/---
 72
    65
 73
     2
 40
10.16
 49
5.08
 74
     2
 75
     0
340
1958A
 46
2.54
 50
180.0
 44
0.0
 45
0.0
  9
HRIGHT_ARROW
 49
5.08
 74
     0
  0
LTYPE
  5
1958D
330
194B9
100
AcDbSymbolTableRecord
100
AcDbLinetypeTableRecord
  2
CUTLEFT2
 70
     0
  3
G41 reversed----/----/----/----
 72
    65
 73
     2
 40
10.16
 49
5.08
 74
     2
 75
     0
340
1958C
 46
2.54
 50
0.0
 44
0.0
 45
0.0
  9
LRIGHT_ARROW
 49
5.08
 74
     0
  0
LTYPE
  5
1958F
330
194B9
100
AcDbSymbolTableRecord
100
AcDbLinetypeTableRecord
  2
CUTLEFT
 70
     0
  3
G41 ----\----\----\----
 72
    65
 73
     2
 40
10.16
 49
5.08
 74
     2
 75
     0
340
1958E
 46
2.54
 50
180.0
 44
0.0
 45
0.0
  9
LRIGHT_ARROW
 49
5.08
 74
     0
  0
LTYPE
  5
19590
330
194B9
100
AcDbSymbolTableRecord
100
AcDbLinetypeTableRecord
  2
CENTERX2
 70
     0
  3
Center (2x) ________  __  ________  __  _____
 72
    65
 73
     4
 40
101.6
 49
63.5
 74
     0
 49
-12.7
 74
     0
 49
12.7
 74
     0
 49
-12.7
 74
     0
  0
LTYPE
  5
19591
330
194B9
100
AcDbSymbolTableRecord
100
AcDbLinetypeTableRecord
  2
ACAD_ISO13W100
 70
     0
  3
ISO double-dash double-dot __ __ . . __ __ . . _
 72
    65
 73
     8
 40
36.0
 49
12.0
 74
     0
 49
-3.0
 74
     0
 49
12.0
 74
     0
 49
-3.0
 74
     0
 49
0.0
 74
     0
 49
-3.0
 74
     0
 49
0.0
 74
     0
 49
-3.0
 74
     0
  0
LTYPE
  5
19592
330
194B9
100
AcDbSymbolTableRecord
100
AcDbLinetypeTableRecord
  2
ACAD_ISO12W100
 70
     0
  3
ISO dash double-dot __ . . __ . . __ . . __ . . 
 72
    65
 73
     6
 40
21.0
 49
12.0
 74
     0
 49
-3.0
 74
     0
 49
0.0
 74
     0
 49
-3.0
 74
     0
 49
0.0
 74
     0
 49
-3.0
 74
     0
  0
LTYPE
  5
19593
330
194B9
100
AcDbSymbolTableRecord
100
AcDbLinetypeTableRecord
  2
ACAD_ISO11W100
 70
     0
  3
ISO double-dash dot __ __ . __ __ . __ __ . __ _
 72
    65
 73
     6
 40
33.0
 49
12.0
 74
     0
 49
-3.0
 74
     0
 49
12.0
 74
     0
 49
-3.0
 74
     0
 49
0.0
 74
     0
 49
-3.0
 74
     0
  0
LTYPE
  5
19594
330
194B9
100
AcDbSymbolTableRecord
100
AcDbLinetypeTableRecord
  2
ACAD_ISO10W100
 70
     0
  3
ISO dash dot __ . __ . __ . __ . __ . __ . __ . 
 72
    65
 73
     4
 40
18.0
 49
12.0
 74
     0
 49
-3.0
 74
     0
 49
0.0
 74
     0
 49
-3.0
 74
     0
  0
LTYPE
  5
19595
330
194B9
100
AcDbSymbolTableRecord
100
AcDbLinetypeTableRecord
  2
BORDER
 70
     0
  3
Border __ __ . __ __ . __ __ . __ __ . __ __ .
 72
    65
 73
     6
 40
44.45
 49
12.7
 74
     0
 49
-6.35
 74
     0
 49
12.7
 74
     0
 49
-6.35
 74
     0
 49
0.0
 74
     0
 49
-6.35
 74
     0
  0
LTYPE
  5
19598
330
194B9
100
AcDbSymbolTableRecord
100
AcDbLinetypeTableRecord
  2
BATTING
 70
     0
  3
Batting SSSSSSSSSSSSSSSSSSSSSSSSSSSSSSSSSSSSSSSSSSSSSSS
 72
    65
 73
     4
 40
10.16254
 49
0.00254
 74
     0
 49
-2.54
 74
     2
 75
     0
340
19596
 46
2.54
 50
0.0
 44
-2.54
 45
0.0
  9
BAT
 49
-5.08
 74
     2
 75
     0
340
19597
 46
2.54
 50
180.0
 44
2.54
 45
0.0
  9
BAT
 49
-2.54
 74
     0
  0
LTYPE
  5
19599
330
194B9
100
AcDbSymbolTableRecord
100
AcDbLinetypeTableRecord
  2
ACAD_ISO15W100
 70
     0
  3
ISO double-dash triple-dot __ __ . . . __ __ . .
 72
    65
 73
    10
 40
39.0
 49
12.0
 74
     0
 49
-3.0
 74
     0
 49
12.0
 74
     0
 49
-3.0
 74
     0
 49
0.0
 74
     0
 49
-3.0
 74
     0
 49
0.0
 74
     0
 49
-3.0
 74
     0
 49
0.0
 74
     0
 49
-3.0
 74
     0
  0
LTYPE
  5
1959A
330
194B9
100
AcDbSymbolTableRecord
100
AcDbLinetypeTableRecord
  2
ACAD_ISO14W100
 70
     0
  3
ISO dash triple-dot __ . . . __ . . . __ . . . _
 72
    65
 73
     8
 40
24.0
 49
12.0
 74
     0
 49
-3.0
 74
     0
 49
0.0
 74
     0
 49
-3.0
 74
     0
 49
0.0
 74
     0
 49
-3.0
 74
     0
 49
0.0
 74
     0
 49
-3.0
 74
     0
  0
LTYPE
  5
1959B
330
194B9
100
AcDbSymbolTableRecord
100
AcDbLinetypeTableRecord
  2
ACAD_ISO05W100
 70
     0
  3
ISO long-dash double-dot ____ .. ____ .. ____ . 
 72
    65
 73
     6
 40
33.0
 49
24.0
 74
     0
 49
-3.0
 74
     0
 49
0.0
 74
     0
 49
-3.0
 74
     0
 49
0.0
 74
     0
 49
-3.0
 74
     0
  0
LTYPE
  5
1959C
330
194B9
100
AcDbSymbolTableRecord
100
AcDbLinetypeTableRecord
  2
ACAD_ISO04W100
 70
     0
  3
ISO long-dash dot ____ . ____ . ____ . ____ . _
 72
    65
 73
     4
 40
30.0
 49
24.0
 74
     0
 49
-3.0
 74
     0
 49
0.0
 74
     0
 49
-3.0
 74
     0
  0
LTYPE
  5
1959D
330
194B9
100
AcDbSymbolTableRecord
100
AcDbLinetypeTableRecord
  2
ACAD_ISO03W100
 70
     0
  3
ISO dash space __    __    __    __    __    __
 72
    65
 73
     2
 40
30.0
 49
12.0
 74
     0
 49
-18.0
 74
     0
  0
LTYPE
  5
1959E
330
194B9
100
AcDbSymbolTableRecord
100
AcDbLinetypeTableRecord
  2
ACAD_ISO02W100
 70
     0
  3
ISO dash __ __ __ __ __ __ __ __ __ __ __ __ __
 72
    65
 73
     2
 40
15.0
 49
12.0
 74
     0
 49
-3.0
 74
     0
  0
LTYPE
  5
1959F
330
194B9
100
AcDbSymbolTableRecord
100
AcDbLinetypeTableRecord
  2
ACAD_ISO09W100
 70
     0
  3
ISO long-dash double-short-dash ____ __ __ ____
 72
    65
 73
     6
 40
45.0
 49
24.0
 74
     0
 49
-3.0
 74
     0
 49
6.0
 74
     0
 49
-3.0
 74
     0
 49
6.0
 74
     0
 49
-3.0
 74
     0
  0
LTYPE
  5
195A0
330
194B9
100
AcDbSymbolTableRecord
100
AcDbLinetypeTableRecord
  2
ACAD_ISO08W100
 70
     0
  3
ISO long-dash short-dash ____ __ ____ __ ____ _
 72
    65
 73
     4
 40
36.0
 49
24.0
 74
     0
 49
-3.0
 74
     0
 49
6.0
 74
     0
 49
-3.0
 74
     0
  0
LTYPE
  5
195A1
330
194B9
100
AcDbSymbolTableRecord
100
AcDbLinetypeTableRecord
  2
ACAD_ISO07W100
 70
     0
  3
ISO dot . . . . . . . . . . . . . . . . . . . . 
 72
    65
 73
     2
 40
3.0
 49
0.0
 74
     0
 49
-3.0
 74
     0
  0
LTYPE
  5
195A2
330
194B9
100
AcDbSymbolTableRecord
100
AcDbLinetypeTableRecord
  2
ACAD_ISO06W100
 70
     0
  3
ISO long-dash triple-dot ____ ... ____ ... ____
 72
    65
 73
     8
 40
36.0
 49
24.0
 74
     0
 49
-3.0
 74
     0
 49
0.0
 74
     0
 49
-3.0
 74
     0
 49
0.0
 74
     0
 49
-3.0
 74
     0
 49
0.0
 74
     0
 49
-3.0
 74
     0
  0
ENDTAB
  0
TABLE
  2
LAYER
  5
194B7
330
0
100
AcDbSymbolTable
 70
     2
  0
LAYER
  5
194C4
330
194B7
100
AcDbSymbolTableRecord
100
AcDbLayerTableRecord
  2
0
 70
     0
 62
    18
420
        0
  6
Continuous
370
   200
390
194C3
347
194F9
348
0
  0
LAYER
  5
195A3
330
194B7
100
AcDbSymbolTableRecord
100
AcDbLayerTableRecord
  2
CUT
 70
     0
 62
     4
420
    65535
  6
Continuous
370
    25
390
194C3
347
194F9
348
0
  0
ENDTAB
  0
TABLE
  2
STYLE
  5
194B8
330
0
100
AcDbSymbolTable
 70
    17
  0
STYLE
  5
194C5
330
194B8
100
AcDbSymbolTableRecord
100
AcDbTextStyleTableRecord
  2
Standard
 70
     0
 40
0.0
 41
1.0
 50
0.0
 71
     0
 42
2.5
  3
txt
  4

  0
STYLE
  5
1955F
330
194B8
100
AcDbSymbolTableRecord
100
AcDbTextStyleTableRecord
  2
QCADDimTextStyle
 70
     0
 40
0.0
 41
1.0
 50
0.0
 71
     0
 42
2.5
  3

  4

  0
STYLE
  5
19561
330
194B8
100
AcDbSymbolTableRecord
100
AcDbTextStyleTableRecord
  2
textstyle0
 70
     0
 40
0.0
 41
1.0
 50
0.0
 71
     0
 42
2.5
  3
ltypeshp.shx
  4

  0
STYLE
  5
19562
330
194B8
100
AcDbSymbolTableRecord
100
AcDbTextStyleTableRecord
  2
textstyle1
 70
     0
 40
0.0
 41
1.0
 50
0.0
 71
     0
 42
2.5
  3
ltypeshp.shx
  4

  0
STYLE
  5
19564
330
194B8
100
AcDbSymbolTableRecord
100
AcDbTextStyleTableRecord
  2
textstyle2
 70
     0
 40
0.0
 41
1.0
 50
0.0
 71
     0
 42
2.5
  3
ltypeshp.shx
  4

  0
STYLE
  5
19569
330
194B8
100
AcDbSymbolTableRecord
100
AcDbTextStyleTableRecord
  2
textstyle3
 70
     0
 40
0.0
 41
1.0
 50
0.0
 71
     0
 42
2.5
  3
STANDARD
  4

  0
STYLE
  5
1956B
330
194B8
100
AcDbSymbolTableRecord
100
AcDbTextStyleTableRecord
  2
textstyle4
 70
     0
 40
0.0
 41
1.0
 50
0.0
 71
     0
 42
2.5
  3
ltypeshp.shx
  4

  0
STYLE
  5
1956F
330
194B8
100
AcDbSymbolTableRecord
100
AcDbTextStyleTableRecord
  2
textstyle5
 70
     0
 40
0.0
 41
1.0
 50
0.0
 71
     0
 42
2.5
  3
STANDARD
  4

  0
STYLE
  5
19576
330
194B8
100
AcDbSymbolTableRecord
100
AcDbTextStyleTableRecord
  2
textstyle6
 70
     0
 40
0.0
 41
1.0
 50
0.0
 71
     0
 42
2.5
  3
ltypeshp.shx
  4

  0
STYLE
  5
19578
330
194B8
100
AcDbSymbolTableRecord
100
AcDbTextStyleTableRecord
  2
textstyle7
 70
     0
 40
0.0
 41
1.0
 50
0.0
 71
     0
 42
2.5
  3
qcadshp.shx
  4

  0
STYLE
  5
1957A
330
194B8
100
AcDbSymbolTableRecord
100
AcDbTextStyleTableRecord
  2
textstyle8
 70
     0
 40
0.0
 41
1.0
 50
0.0
 71
     0
 42
2.5
  3
qcadshp.shx
  4

  0
STYLE
  5
19580
330
194B8
100
AcDbSymbolTableRecord
100
AcDbTextStyleTableRecord
  2
textstyle9
 70
     0
 40
0.0
 41
1.0
 50
0.0
 71
     0
 42
2.5
  3
qcadshp.shx
  4

  0
STYLE
  5
1958A
330
194B8
100
AcDbSymbolTableRecord
100
AcDbTextStyleTableRecord
  2
textstyle10
 70
     0
 40
0.0
 41
1.0
 50
0.0
 71
     0
 42
2.5
  3
qcadshp.shx
  4

  0
STYLE
  5
1958C
330
194B8
100
AcDbSymbolTableRecord
100
AcDbTextStyleTableRecord
  2
textstyle11
 70
     0
 40
0.0
 41
1.0
 50
0.0
 71
     0
 42
2.5
  3
qcadshp.shx
  4

  0
STYLE
  5
1958E
330
194B8
100
AcDbSymbolTableRecord
100
AcDbTextStyleTableRecord
  2
textstyle12
 70
     0
 40
0.0
 41
1.0
 50
0.0
 71
     0
 42
2.5
  3
qcadshp.shx
  4

  0
STYLE
  5
19596
330
194B8
100
AcDbSymbolTableRecord
100
AcDbTextStyleTableRecord
  2
textstyle13
 70
     0
 40
0.0
 41
1.0
 50
0.0
 71
     0
 42
2.5
  3
ltypeshp.shx
  4

  0
STYLE
  5
19597
330
194B8
100
AcDbSymbolTableRecord
100
AcDbTextStyleTableRecord
  2
textstyle14
 70
     0
 40
0.0
 41
1.0
 50
0.0
 71
     0
 42
2.5
  3
ltypeshp.shx
  4

  0
ENDTAB
  0
TABLE
  2
VIEW
  5
194BA
330
0
100
AcDbSymbolTable
 70
     0
  0
ENDTAB
  0
TABLE
  2
UCS
  5
194BB
330
0
100
AcDbSymbolTable
 70
     0
  0
ENDTAB
  0
TABLE
  2
APPID
  5
194BD
330
0
100
AcDbSymbolTable
 70
     2
  0
APPID
  5
194C6
330
194BD
100
AcDbSymbolTableRecord
100
AcDbRegAppTableRecord
  2
ACAD
 70
     0
  0
APPID
  5
19521
330
194BD
100
AcDbSymbolTableRecord
100
AcDbRegAppTableRecord
  2
QCAD
 70
     0
  0
ENDTAB
  0
TABLE
  2
DIMSTYLE
  5
194BE
330
0
100
AcDbSymbolTable
 70
     2
100
AcDbDimStyleTable
  0
DIMSTYLE
105
194DA
330
194BE
100
AcDbSymbolTableRecord
100
AcDbDimStyleTableRecord
  2
Standard
 70
     0
178
     0
340
194C5
  0
DIMSTYLE
105
19560
330
194BE
100
AcDbSymbolTableRecord
100
AcDbDimStyleTableRecord
  2
QCADDimStyle
 70
     0
 41
50.0
 42
12.5
 44
25.0
 73
     0
 77
     1
140
50.0
147
12.5
178
     0
340
1955F
  0
ENDTAB
  0
TABLE
  2
BLOCK_RECORD
  5
194B6
330
0
100
AcDbSymbolTable
 70
     0
  0
BLOCK_RECORD
  5
194D2
330
194B6
100
AcDbSymbolTableRecord
100
AcDbBlockTableRecord
  2
*Model_Space
340
194D5
 70
     0
280
     1
281
     0
  0
BLOCK_RECORD
  5
194CE
330
194B6
100
AcDbSymbolTableRecord
100
AcDbBlockTableRecord
  2
*Paper_Space
340
194D1
 70
     0
280
     1
281
     0
  0
ENDTAB
  0
ENDSEC
  0
SECTION
  2
BLOCKS
  0
BLOCK
  5
194D3
330
194D2
100
AcDbEntity
  8
0
100
AcDbBlockBegin
  2
*Model_Space
 70
     0
 10
0.0
 20
0.0
 30
0.0
  3
*Model_Space
  1

  0
ENDBLK
  5
194D4
330
194D2
100
AcDbEntity
  8
0
100
AcDbBlockEnd
  0
BLOCK
  5
194CF
330
194CE
100
AcDbEntity
 67
     1
  8
0
100
AcDbBlockBegin
  2
*Paper_Space
 70
     0
 10
0.0
 20
0.0
 30
0.0
  3
*Paper_Space
  1

  0
ENDBLK
  5
194D0
330
194CE
100
AcDbEntity
 67
     1
  8
0
100
AcDbBlockEnd
  0
ENDSEC
  0
SECTION
  2
ENTITIES
  0
ARC
  5
17E42
330
194D2
100
AcDbEntity
  8
CUT
100
AcDbCircle
 10
699.0290085377974
 20
-4361.134155582129
 30
0.0
 40
470.8322926569859
100
AcDbArc
 50
193.0451671697094
 51
197.5771618921131
  0
ARC
  5
17E43
330
194D2
100
AcDbEntity
  8
CUT
100
AcDbCircle
 10
653.2626433091025
 20
-4375.632026161269
 30
0.0
 40
422.8244970652712
100
AcDbArc
 50
197.577161892113
 51
202.3596655334906
  0
ARC
  5
17E44
330
194D2
100
AcDbEntity
  8
CUT
100
AcDbCircle
 10
631.267256223025
 20
-4384.679761184771
 30
0.0
 40
399.0409194933031
100
AcDbArc
 50
202.3596655334907
 51
207.7095985697415
  0
ARC
  5
17E45
330
194D2
100
AcDbEntity
  8
CUT
100
AcDbCircle
 10
594.6395915979592
 20
-4403.917543165089
 30
0.0
 40
357.6684881965012
100
AcDbArc
 50
207.7095985697419
 51
213.3607245633222
  0
ARC
  5
17E46
330
194D2
100
AcDbEntity
  8
CUT
100
AcDbCircle
 10
599.8396286286373
 20
-4402.684817680723
 30
0.0
 40
362.6941916436726
100
AcDbArc
 50
213.0716426944731
 51
216.4069214518311
  0
ARC
  5
17E47
330
194D2
100
AcDbEntity
  8
CUT
100
AcDbCircle
 10
632.8789075825725
 20
-4378.319999213409
 30
0.0
 40
403.7458460895194
100
AcDbArc
 50
216.4069214518304
 51
219.5680500775503
  0
ARC
  5
17E48
330
194D2
100
AcDbEntity
  8
CUT
100
AcDbCircle
 10
652.5161303141562
 20
-4362.093111753871
 30
0.0
 40
429.2199975618315
100
AcDbArc
 50
219.5680500775508
 51
222.3653043891128
  0
ARC
  5
17E49
330
194D2
100
AcDbEntity
  8
CUT
100
AcDbCircle
 10
698.8808728043282
 20
-4319.807741804845
 30
0.0
 40
491.9714266922184
100
AcDbArc
 50
222.3653043891126
 51
224.9780461277772
  0
ARC
  5
17E4A
330
194D2
100
AcDbEntity
  8
CUT
100
AcDbCircle
 10
725.7521233944594
 20
-4292.957075700389
 30
0.0
 40
529.9585610738836
100
AcDbArc
 50
224.978046127777
 51
227.2281734159831
  0
ARC
  5
17E4B
330
194D2
100
AcDbEntity
  8
CUT
100
AcDbCircle
 10
789.4932149299896
 20
-4224.055028124743
 30
0.0
 40
623.822392821034
100
AcDbArc
 50
227.2281734159826
 51
229.3020999244629
  0
ARC
  5
17E4C
330
194D2
100
AcDbEntity
  8
CUT
100
AcDbCircle
 10
826.9346193655399
 20
-4180.522152440702
 30
0.0
 40
681.2416407386845
100
AcDbArc
 50
229.3020999244631
 51
231.0369490485164
  0
ARC
  5
17E4D
330
194D2
100
AcDbEntity
  8
CUT
100
AcDbCircle
 10
920.5025885348423
 20
-4064.822854285825
 30
0.0
 40
830.0411449314022
100
AcDbArc
 50
231.0369490485166
 51
232.6086123757497
  0
ARC
  5
17E4E
330
194D2
100
AcDbEntity
  8
CUT
100
AcDbCircle
 10
907.7697141167832
 20
-4067.327957024042
 30
0.0
 40
820.3637337486825
100
AcDbArc
 50
233.2089219546255
 51
235.0868166612516
  0
ARC
  5
17E4F
330
194D2
100
AcDbEntity
  8
CUT
100
AcDbCircle
 10
824.2603885820174
 20
-4186.977089092095
 30
0.0
 40
674.4537537750371
100
AcDbArc
 50
235.0868166612514
 51
237.1579238786996
  0
ARC
  5
17E50
330
194D2
100
AcDbEntity
  8
CUT
100
AcDbCircle
 10
793.0547330691732
 20
-4235.320783274668
 30
0.0
 40
616.9132836413607
100
AcDbArc
 50
237.1579238787003
 51
239.6383691730265
  0
ARC
  5
17E51
330
194D2
100
AcDbEntity
  8
CUT
100
AcDbCircle
 10
745.0483137872359
 20
-4317.271432619293
 30
0.0
 40
521.9368380336264
100
AcDbArc
 50
239.6383691730265
 51
242.335108147121
  0
ARC
  5
17E52
330
194D2
100
AcDbEntity
  8
CUT
100
AcDbCircle
 10
727.0203698927762
 20
-4351.660788928839
 30
0.0
 40
483.1085675539017
100
AcDbArc
 50
242.3351081471213
 51
245.4837036191141
  0
ARC
  5
17E53
330
194D2
100
AcDbEntity
  8
CUT
100
AcDbCircle
 10
700.4992864896783
 20
-4409.812158706069
 30
0.0
 40
419.1949565477755
100
AcDbArc
 50
245.4837036191132
 51
248.8638814298899
  0
ARC
  5
17E54
330
194D2
100
AcDbEntity
  8
CUT
100
AcDbCircle
 10
691.2199210748092
 20
-4433.815133278056
 30
0.0
 40
393.4607495305355
100
AcDbArc
 50
248.8638814298903
 51
252.6983814914692
  0
ARC
  5
17E55
330
194D2
100
AcDbEntity
  8
CUT
100
AcDbCircle
 10
679.2319315514563
 20
-4472.300307368982
 30
0.0
 40
353.1516870554433
100
AcDbArc
 50
252.6983814914683
 51
256.7458927871685
  0
ARC
  5
17E56
330
194D2
100
AcDbEntity
  8
CUT
100
AcDbCircle
 10
623.6158025614557
 20
-4978.711128626461
 30
0.0
 40
76.0897041450671
100
AcDbArc
 50
36.5356454223102
 51
43.21432947668551
  0
ARC
  5
17E57
330
194D2
100
AcDbEntity
  8
CUT
100
AcDbCircle
 10
608.7278238055192
 20
-4992.698879807176
 30
0.0
 40
96.51784881194445
100
AcDbArc
 50
43.21432947668521
 51
49.14355450973432
  0
ARC
  5
17E58
330
194D2
100
AcDbEntity
  8
CUT
100
AcDbCircle
 10
599.0072410145508
 20
-5003.937879748186
 30
0.0
 40
111.3773524870365
100
AcDbArc
 50
49.14355450973396
 51
53.57636425701783
  0
ARC
  5
17E59
330
194D2
100
AcDbEntity
  8
CUT
100
AcDbCircle
 10
571.7388344284382
 20
-5040.891920970338
 30
0.0
 40
157.3030224374488
100
AcDbArc
 50
53.57636425701717
 51
57.30609402352921
  0
ARC
  5
17E5A
330
194D2
100
AcDbEntity
  8
CUT
100
AcDbCircle
 10
-34.8107071566539
 20
-4654.43224222316
 30
0.0
 40
279.3723881663988
100
AcDbArc
 50
34.98689042592586
 51
38.65914661173299
  0
ARC
  5
17E5B
330
194D2
100
AcDbEntity
  8
CUT
100
AcDbCircle
 10
-10.57490716189824
 20
-4635.044061211693
 30
0.0
 40
248.3357072175725
100
AcDbArc
 50
38.6591466117331
 51
42.55420902440149
  0
ARC
  5
17E5C
330
194D2
100
AcDbEntity
  8
CUT
100
AcDbCircle
 10
1.882483687152217
 20
-4623.607264062894
 30
0.0
 40
231.4245595395236
100
AcDbArc
 50
42.5542090244016
 51
47.02211727471386
  0
ARC
  5
17E5D
330
194D2
100
AcDbEntity
  8
CUT
100
AcDbCircle
 10
23.86898226107178
 20
-4600.011376100916
 30
0.0
 40
199.172861161685
100
AcDbArc
 50
47.022117274714
 51
51.8383971779083
  0
ARC
  5
17E5E
330
194D2
100
AcDbEntity
  8
CUT
100
AcDbCircle
 10
33.16827881608799
 20
-4588.177768387013
 30
0.0
 40
184.1225725284148
100
AcDbArc
 50
51.83839717790779
 51
57.4496558380687
  0
ARC
  5
17E5F
330
194D2
100
AcDbEntity
  8
CUT
100
AcDbCircle
 10
46.6436342563278
 20
-4567.066654971322
 30
0.0
 40
159.0773271934032
100
AcDbArc
 50
57.4496558380686
 51
63.48687606489353
  0
ARC
  5
17E60
330
194D2
100
AcDbEntity
  8
CUT
100
AcDbCircle
 10
51.05405493600273
 20
-4558.22579146335
 30
0.0
 40
149.1974143325369
100
AcDbArc
 50
63.4868760648947
 51
88.04929012051377
  0
ARC
  5
17E61
330
194D2
100
AcDbEntity
  8
CUT
100
AcDbCircle
 10
61.21133524995128
 20
-4558.22579146335
 30
0.0
 40
149.1974143325369
100
AcDbArc
 50
91.95070987948624
 51
101.3063418241941
1001
QCAD
1000
reversed:1
  0
ARC
  5
17E62
330
194D2
100
AcDbEntity
  8
CUT
100
AcDbCircle
 10
2.709631684970361
 20
-4558.22579146335
 30
0.0
 40
149.1974143325369
100
AcDbArc
 50
78.69365817580595
 51
88.04929012051377
  0
ARC
  5
17E63
330
194D2
100
AcDbEntity
  8
CUT
100
AcDbCircle
 10
1015.154934183275
 20
-4835.03070420867
 30
0.0
 40
552.3446913586885
100
AcDbArc
 50
143.9566350389543
 51
146.8736486157575
  0
ARC
  5
17E64
330
194D2
100
AcDbEntity
  8
CUT
100
AcDbCircle
 10
899.3915837748336
 20
-4759.489635280646
 30
0.0
 40
414.1144255245506
100
AcDbArc
 50
146.8736486157575
 51
149.1684248843651
  0
ARC
  5
17E65
330
194D2
100
AcDbEntity
  8
CUT
100
AcDbCircle
 10
858.2249126277816
 20
-4734.918615588856
 30
0.0
 40
366.1724833233444
100
AcDbArc
 50
149.1684248843646
 51
152.1239603351284
  0
ARC
  5
17E66
330
194D2
100
AcDbEntity
  8
CUT
100
AcDbCircle
 10
792.2411866605287
 20
-4700.017352369463
 30
0.0
 40
291.5269860255787
100
AcDbArc
 50
152.1239603351287
 51
155.4364305149708
  0
ARC
  5
17E67
330
194D2
100
AcDbEntity
  8
CUT
100
AcDbCircle
 10
766.2396045658547
 20
-4688.132890934077
 30
0.0
 40
262.9381298918465
100
AcDbArc
 50
155.4364305149714
 51
159.5112884611636
  0
ARC
  5
17E68
330
194D2
100
AcDbEntity
  8
CUT
100
AcDbCircle
 10
724.5096520787567
 20
-4672.54007130776
 30
0.0
 40
218.3901225461267
100
AcDbArc
 50
159.5112884611632
 51
163.9826670579033
  0
ARC
  5
17E69
330
194D2
100
AcDbEntity
  8
CUT
100
AcDbCircle
 10
708.464237279909
 20
-4667.933869075639
 30
0.0
 40
201.6966377370676
100
AcDbArc
 50
163.9826670579031
 51
169.2166027723165
  0
ARC
  5
17E6A
330
194D2
100
AcDbEntity
  8
CUT
100
AcDbCircle
 10
685.3494691337187
 20
-4663.531432620914
 30
0.0
 40
178.1663603653485
100
AcDbArc
 50
169.2166027723162
 51
174.785700266223
  0
ARC
  5
17E6B
330
194D2
100
AcDbEntity
  8
CUT
100
AcDbCircle
 10
-2490.70053224962
 20
-15936.27252090947
 30
0.0
 40
11894.92030466509
100
AcDbArc
 50
73.26714326659673
 51
73.33579948464016
  0
ARC
  5
17E6C
330
194D2
100
AcDbEntity
  8
CUT
100
AcDbCircle
 10
3805.551926606128
 20
5097.970439384901
 30
0.0
 40
10061.44943029657
100
AcDbArc
 50
253.2565625924468
 51
253.3357994846362
1001
QCAD
1000
reversed:1
  0
ARC
  5
17E6D
330
194D2
100
AcDbEntity
  8
CUT
100
AcDbCircle
 10
1682.295394460804
 20
-1959.767797462584
 30
0.0
 40
2691.246765433349
100
AcDbArc
 50
253.1033547339844
 51
253.25656259247
1001
QCAD
1000
reversed:1
  0
ARC
  5
17E6E
330
194D2
100
AcDbEntity
  8
CUT
100
AcDbCircle
 10
1547.380060265651
 20
-2403.919944289676
 30
0.0
 40
2227.055773564588
100
AcDbArc
 50
252.8020378578105
 51
253.1033547339745
1001
QCAD
1000
reversed:1
  0
ARC
  5
17E6F
330
194D2
100
AcDbEntity
  8
CUT
100
AcDbCircle
 10
1312.989984895151
 20
-3161.207284275521
 30
0.0
 40
1434.324531128021
100
AcDbArc
 50
252.4265762231787
 51
252.8020378578065
1001
QCAD
1000
reversed:1
  0
ARC
  5
17E70
330
194D2
100
AcDbEntity
  8
CUT
100
AcDbCircle
 10
-327.9052245603312
 20
-4773.266758734444
 30
0.0
 40
599.9784199502709
100
AcDbArc
 50
7.833795259304201
 51
10.4315156685831
  0
ARC
  5
17E71
330
194D2
100
AcDbEntity
  8
CUT
100
AcDbCircle
 10
-269.7402177663633
 20
-4762.558407497118
 30
0.0
 40
540.8359073086499
100
AcDbArc
 50
10.43151566858183
 51
13.16761292866392
  0
ARC
  5
17E72
330
194D2
100
AcDbEntity
  8
CUT
100
AcDbCircle
 10
-241.8586509338714
 20
-4756.035470216983
 30
0.0
 40
512.2014790832555
100
AcDbArc
 50
13.16761292866565
 51
16.21529469932456
  0
ARC
  5
17E73
330
194D2
100
AcDbEntity
  8
CUT
100
AcDbCircle
 10
-190.7358720802615
 20
-4741.168130085272
 30
0.0
 40
458.9607397917402
100
AcDbArc
 50
16.21529469932355
 51
19.43494129649531
  0
ARC
  5
17E74
330
194D2
100
AcDbEntity
  8
CUT
100
AcDbCircle
 10
-167.6048354820978
 20
-4733.006547217503
 30
0.0
 40
434.4320568060394
100
AcDbArc
 50
19.43494129649557
 51
23.02402697090898
  0
ARC
  5
17E75
330
194D2
100
AcDbEntity
  8
CUT
100
AcDbCircle
 10
-127.7952494089838
 20
-4716.088674905612
 30
0.0
 40
391.1767964684316
100
AcDbArc
 50
23.02402697090913
 51
26.80641490815139
  0
ARC
  5
17E76
330
194D2
100
AcDbEntity
  8
CUT
100
AcDbCircle
 10
-111.1016825494187
 20
-4707.653801432425
 30
0.0
 40
372.4732603053577
100
AcDbArc
 50
26.80641490815139
 51
30.97238978862649
  0
ARC
  5
17E77
330
194D2
100
AcDbEntity
  8
CUT
100
AcDbCircle
 10
-85.05624784469722
 20
-4692.021202815686
 30
0.0
 40
342.096578319499
100
AcDbArc
 50
30.97238978862669
 51
35.31947678502385
  0
ARC
  5
17E78
330
194D2
100
AcDbEntity
  8
CUT
100
AcDbCircle
 10
615.1180261841379
 20
-4986.506311234551
 30
0.0
 40
75.52765249046429
100
AcDbArc
 50
91.77854791947946
 51
93.94166722156136
1001
QCAD
1000
reversed:1
  0
ARC
  5
17E79
330
194D2
100
AcDbEntity
  8
CUT
100
AcDbCircle
 10
617.7823255580427
 20
-5072.308933540136
 30
0.0
 40
161.3716300641335
100
AcDbArc
 50
90.29873726004404
 51
91.77854791948029
1001
QCAD
1000
reversed:1
  0
ARC
  5
17E7A
330
194D2
100
AcDbEntity
  8
CUT
100
AcDbCircle
 10
619.140593051884
 20
-5332.813062223157
 30
0.0
 40
421.8792997237512
100
AcDbArc
 50
89.8221023289794
 51
90.29873726004404
1001
QCAD
1000
reversed:1
  0
ARC
  5
17E7B
330
194D2
100
AcDbEntity
  8
CUT
100
AcDbCircle
 10
621.1407899937329
 20
-4688.608593252939
 30
0.0
 40
222.3282744547932
100
AcDbArc
 50
269.8221023289813
 51
270.7265483307277
  0
ARC
  5
17E7C
330
194D2
100
AcDbEntity
  8
CUT
100
AcDbCircle
 10
620.0404533716978
 20
-4967.624365488567
 30
0.0
 40
56.84067210354297
100
AcDbArc
 50
82.04009861843603
 51
86.04594915680592
1001
QCAD
1000
reversed:1
  0
ARC
  5
17E7D
330
194D2
100
AcDbEntity
  8
CUT
100
AcDbCircle
 10
619.2320875628208
 20
-4973.405541424314
 30
0.0
 40
62.67809023838734
100
AcDbArc
 50
78.22541763565577
 51
82.0400986184393
1001
QCAD
1000
reversed:1
  0
ARC
  5
17E7E
330
194D2
100
AcDbEntity
  8
CUT
100
AcDbCircle
 10
618.3269738352585
 20
-4977.747698550442
 30
0.0
 40
67.11357886623958
100
AcDbArc
 50
74.9063104401113
 51
78.22541763565023
1001
QCAD
1000
reversed:1
  0
ARC
  5
17E7F
330
194D2
100
AcDbEntity
  8
CUT
100
AcDbCircle
 10
614.8365809053017
 20
-4990.689336905672
 30
0.0
 40
80.5176396734393
100
AcDbArc
 50
71.87611354875612
 51
74.90631044011181
1001
QCAD
1000
reversed:1
  0
ARC
  5
17E80
330
194D2
100
AcDbEntity
  8
CUT
100
AcDbCircle
 10
611.9138423955595
 20
-4999.618858544933
 30
0.0
 40
89.91331724891654
100
AcDbArc
 50
69.46427562158571
 51
71.87611354876012
1001
QCAD
1000
reversed:1
  0
ARC
  5
17E81
330
194D2
100
AcDbEntity
  8
CUT
100
AcDbCircle
 10
601.5855889553213
 20
-5027.190607464063
 30
0.0
 40
119.3560439838072
100
AcDbArc
 50
67.37098266540161
 51
69.46427562157905
1001
QCAD
1000
reversed:1
  0
ARC
  5
17E82
330
194D2
100
AcDbEntity
  8
CUT
100
AcDbCircle
 10
593.3469631123872
 20
-5046.954416518984
 30
0.0
 40
140.768262554968
100
AcDbArc
 50
65.91298194092016
 51
67.370982665404
1001
QCAD
1000
reversed:1
  0
ARC
  5
17E83
330
194D2
100
AcDbEntity
  8
CUT
100
AcDbCircle
 10
557.5593974060542
 20
-5127.007178724467
 30
0.0
 40
228.4563153096786
100
AcDbArc
 50
64.76851294178852
 51
65.9129819409194
1001
QCAD
1000
reversed:1
  0
ARC
  5
17E84
330
194D2
100
AcDbEntity
  8
CUT
100
AcDbCircle
 10
466.4970167992161
 20
-5320.248865315143
 30
0.0
 40
442.0791291620245
100
AcDbArc
 50
63.71291764812047
 51
64.76851294178923
1001
QCAD
1000
reversed:1
  0
ARC
  5
17E85
330
194D2
100
AcDbEntity
  8
CUT
100
AcDbCircle
 10
812.1902203525392
 20
-4620.39462574652
 30
0.0
 40
338.4974190541884
100
AcDbArc
 50
243.7129176481189
 51
245.0915435382282
  0
ARC
  5
17E86
330
194D2
100
AcDbEntity
  8
CUT
100
AcDbCircle
 10
752.7730894908282
 20
-4748.348422717878
 30
0.0
 40
197.4209518485451
100
AcDbArc
 50
245.0915435382277
 51
246.4002266862392
  0
ARC
  5
17E87
330
194D2
100
AcDbEntity
  8
CUT
100
AcDbCircle
 10
725.1087225752153
 20
-4811.670339621582
 30
0.0
 40
128.3197047020485
100
AcDbArc
 50
246.4002266862389
 51
248.0234921141649
  0
ARC
  5
17E88
330
194D2
100
AcDbEntity
  8
CUT
100
AcDbCircle
 10
718.2867013979819
 20
-4828.575387297298
 30
0.0
 40
110.0900417907124
100
AcDbArc
 50
248.0234921141681
 51
250.2813493995703
  0
ARC
  5
17E89
330
194D2
100
AcDbEntity
  8
CUT
100
AcDbCircle
 10
709.7338173398175
 20
-4852.438187689118
 30
0.0
 40
84.74078010023581
100
AcDbArc
 50
250.2813493995651
 51
252.8548998407787
  0
ARC
  5
17E8A
330
194D2
100
AcDbEntity
  8
CUT
100
AcDbCircle
 10
586.3279608022553
 20
-4042.793857151568
 30
0.0
 40
391.5278238111936
100
AcDbArc
 50
291.9074835633566
 51
297.9592515398434
  0
ARC
  5
17E8B
330
194D2
100
AcDbEntity
  8
CUT
100
AcDbCircle
 10
584.1872153359615
 20
-4038.760783519781
 30
0.0
 40
396.0938367405305
100
AcDbArc
 50
297.959251539843
 51
303.9760049391864
  0
ARC
  5
17E8C
330
194D2
100
AcDbEntity
  8
CUT
100
AcDbCircle
 10
584.1536615930979
 20
-4038.710993084037
 30
0.0
 40
396.153877902677
100
AcDbArc
 50
303.9760049391876
 51
309.9916231259791
  0
ARC
  5
17E8D
330
194D2
100
AcDbEntity
  8
CUT
100
AcDbCircle
 10
586.9626990976959
 20
-4042.059667784815
 30
0.0
 40
391.7830297065174
100
AcDbArc
 50
309.9916231259779
 51
316.0407352865012
  0
ARC
  5
17EAD
330
194D2
100
AcDbEntity
  8
CUT
100
AcDbCircle
 10
740.8140595959386
 20
-4916.941533473273
 30
0.0
 40
261.775847879815
100
AcDbArc
 50
4.091880605486371
 51
7.866273806059336
  0
ARC
  5
17EAE
330
194D2
100
AcDbEntity
  8
CUT
100
AcDbCircle
 10
775.7895285040729
 20
-4912.10926852374
 30
0.0
 40
226.4681403659259
100
AcDbArc
 50
7.866273806058725
 51
11.92435395842561
  0
ARC
  5
17EAF
330
194D2
100
AcDbEntity
  8
CUT
100
AcDbCircle
 10
794.5960266020165
 20
-4908.137768200553
 30
0.0
 40
207.2468712734588
100
AcDbArc
 50
11.92435395842632
 51
16.7435366117591
  0
ARC
  5
17EB0
330
194D2
100
AcDbEntity
  8
CUT
100
AcDbCircle
 10
828.9344774506194
 20
-4897.807291889772
 30
0.0
 40
171.3881492174584
100
AcDbArc
 50
16.7435366117593
 51
22.04326718196592
  0
ARC
  5
17EB1
330
194D2
100
AcDbEntity
  8
CUT
100
AcDbCircle
 10
844.1017345266791
 20
-4891.665994903731
 30
0.0
 40
155.0247383296869
100
AcDbArc
 50
22.0432671819654
 51
28.47697035558758
  0
ARC
  5
17EB2
330
194D2
100
AcDbEntity
  8
CUT
100
AcDbCircle
 10
867.0381841090887
 20
-4879.224453230823
 30
0.0
 40
128.9312012247788
100
AcDbArc
 50
28.47697035558758
 51
35.5324859388481
  0
ARC
  5
17EB3
330
194D2
100
AcDbEntity
  8
CUT
100
AcDbCircle
 10
872.8366330101928
 20
-4875.083497464959
 30
0.0
 40
121.8059275939947
100
AcDbArc
 50
35.5324859388485
 51
39.5094019756478
  0
ARC
  5
17EB4
330
194D2
100
AcDbEntity
  8
CUT
100
AcDbCircle
 10
878.6608813901407
 20
-4870.280752206201
 30
0.0
 40
114.2568726059954
100
AcDbArc
 50
39.50940197564582
 51
43.61565049659983
  0
ARC
  5
17EB5
330
194D2
100
AcDbEntity
  8
CUT
100
AcDbCircle
 10
880.639483497625
 20
-4868.395524037673
 30
0.0
 40
111.5239343434007
100
AcDbArc
 50
43.61565049660121
 51
47.92200817836141
  0
ARC
  5
17EB6
330
194D2
100
AcDbEntity
  8
CUT
100
AcDbCircle
 10
882.801241707569
 20
-4866.001210613904
 30
0.0
 40
108.2981111415658
100
AcDbArc
 50
47.92200817836019
 51
52.29206159669346
  0
ARC
  5
17EB7
330
194D2
100
AcDbEntity
  8
CUT
100
AcDbCircle
 10
956.9585778089302
 20
-4861.300444934706
 30
0.0
 40
49.48484087985939
100
AcDbArc
 50
189.9605977080494
 51
198.2674002062763
  0
ARC
  5
17EB8
330
194D2
100
AcDbEntity
  8
CUT
100
AcDbCircle
 10
963.8152315066225
 20
-4859.037150671656
 30
0.0
 40
56.70538108480595
100
AcDbArc
 50
198.2674002062762
 51
206.0264638492966
  0
ARC
  5
17EB9
330
194D2
100
AcDbEntity
  8
CUT
100
AcDbCircle
 10
968.096709280979
 20
-4856.946485925586
 30
0.0
 40
61.4700354282779
100
AcDbArc
 50
206.0264638492975
 51
212.689701197953
  0
ARC
  5
17EBA
330
194D2
100
AcDbEntity
  8
CUT
100
AcDbCircle
 10
976.4568779670778
 20
-4851.58147484296
 30
0.0
 40
71.40360298362889
100
AcDbArc
 50
212.6897011979515
 51
218.87161384804
  0
ARC
  5
17EBB
330
194D2
100
AcDbEntity
  8
CUT
100
AcDbCircle
 10
980.2801598554056
 20
-4848.499601459798
 30
0.0
 40
76.31434915376043
100
AcDbArc
 50
218.8716138480425
 51
224.3221849230692
  0
ARC
  5
17EBC
330
194D2
100
AcDbEntity
  8
CUT
100
AcDbCircle
 10
985.3735414892542
 20
-4843.525326811428
 30
0.0
 40
83.43375536112333
100
AcDbArc
 50
224.3221849230684
 51
229.5348548806665
  0
ARC
  5
17EBD
330
194D2
100
AcDbEntity
  8
CUT
100
AcDbCircle
 10
986.5631558149239
 20
-4842.130750404172
 30
0.0
 40
85.26679262193082
100
AcDbArc
 50
229.5348548806657
 51
234.5572577144849
  0
ARC
  5
17EBE
330
194D2
100
AcDbEntity
  8
CUT
100
AcDbCircle
 10
985.2422385058112
 20
-4843.986528189909
 30
0.0
 40
82.98891340486524
100
AcDbArc
 50
234.5572577144852
 51
239.6481661648896
  0
ARC
  5
17EBF
330
194D2
100
AcDbEntity
  8
CUT
100
AcDbCircle
 10
-335.5303673449103
 20
-4772.448183565666
 30
0.0
 40
607.4236482213939
100
AcDbArc
 50
4.437523358887307
 51
7.65926922389875
1001
QCAD
1000
reversed:1
  0
ARC
  5
17EC0
330
194D2
100
AcDbEntity
  8
CUT
100
AcDbCircle
 10
-362.6691740007035
 20
-4774.554280436007
 30
0.0
 40
634.6440536321838
100
AcDbArc
 50
1.285644150602876
 51
4.437523358887206
1001
QCAD
1000
reversed:1
  0
ARC
  5
17EC1
330
194D2
100
AcDbEntity
  8
CUT
100
AcDbCircle
 10
-376.0198882657428
 20
-4774.853903709167
 30
0.0
 40
647.9981296201571
100
AcDbArc
 50
358.2599674836668
 51
1.285644150601909
1001
QCAD
1000
reversed:1
  0
ARC
  5
17EC2
330
194D2
100
AcDbEntity
  8
CUT
100
AcDbCircle
 10
-400.5188092591222
 20
-4774.109659895579
 30
0.0
 40
672.5083525627152
100
AcDbArc
 50
355.2899520146626
 51
358.2599674836679
1001
QCAD
1000
reversed:1
  0
ARC
  5
17EC3
330
194D2
100
AcDbEntity
  8
CUT
100
AcDbCircle
 10
264.591885773938
 20
-5854.239220624147
 30
0.0
 40
1024.920510195528
100
AcDbArc
 50
88.7925575136103
 51
89.71340835078267
1001
QCAD
1000
reversed:1
  0
ARC
  5
17EC4
330
194D2
100
AcDbEntity
  8
CUT
100
AcDbCircle
 10
267.9255390013977
 20
-5696.073522331457
 30
0.0
 40
866.7196841538941
100
AcDbArc
 50
87.7911844555614
 51
88.79255751361478
1001
QCAD
1000
reversed:1
  0
ARC
  5
17EC5
330
194D2
100
AcDbEntity
  8
CUT
100
AcDbCircle
 10
270.3483780261536
 20
-5633.257197985731
 30
0.0
 40
803.8566524639793
100
AcDbArc
 50
86.6244985738395
 51
87.79118445555794
1001
QCAD
1000
reversed:1
  0
ARC
  5
17EC6
330
194D2
100
AcDbEntity
  8
CUT
100
AcDbCircle
 10
276.5784346328417
 20
-5527.630556725866
 30
0.0
 40
698.0464405316586
100
AcDbArc
 50
85.37250463479516
 51
86.62449857383805
1001
QCAD
1000
reversed:1
  0
ARC
  5
17EC7
330
194D2
100
AcDbEntity
  8
CUT
100
AcDbCircle
 10
280.1612266945497
 20
-5483.366368515588
 30
0.0
 40
653.6374914687462
100
AcDbArc
 50
83.94312045628293
 51
85.37250463479634
1001
QCAD
1000
reversed:1
  0
ARC
  5
17EC8
330
194D2
100
AcDbEntity
  8
CUT
100
AcDbCircle
 10
288.273525248884
 20
-5406.913176290172
 30
0.0
 40
576.7551138436294
100
AcDbArc
 50
82.42144084221013
 51
83.9431204562824
1001
QCAD
1000
reversed:1
  0
ARC
  5
17EC9
330
194D2
100
AcDbEntity
  8
CUT
100
AcDbCircle
 10
292.6520419250546
 20
-5374.00378403343
 30
0.0
 40
543.5557236836928
100
AcDbArc
 50
80.70748754465211
 51
82.42144084221003
1001
QCAD
1000
reversed:1
  0
ARC
  5
17ECA
330
194D2
100
AcDbEntity
  8
CUT
100
AcDbCircle
 10
302.0531700347287
 20
-5316.547435994056
 30
0.0
 40
485.3353394548328
100
AcDbArc
 50
78.8936348875694
 51
80.70748754465266
1001
QCAD
1000
reversed:1
  0
ARC
  5
17ECB
330
194D2
100
AcDbEntity
  8
CUT
100
AcDbCircle
 10
306.9508278779151
 20
-5291.598536542291
 30
0.0
 40
459.9102605719033
100
AcDbArc
 50
76.87328412135324
 51
78.89363488756848
1001
QCAD
1000
reversed:1
  0
ARC
  5
17ECC
330
194D2
100
AcDbEntity
  8
CUT
100
AcDbCircle
 10
317.0800420501424
 20
-5248.162588378054
 30
0.0
 40
415.3088864599629
100
AcDbArc
 50
74.74720153321184
 51
76.87328412135548
1001
QCAD
1000
reversed:1
  0
ARC
  5
17ECD
330
194D2
100
AcDbEntity
  8
CUT
100
AcDbCircle
 10
322.187355969965
 20
-5229.432782762276
 30
0.0
 40
395.8952244179786
100
AcDbArc
 50
72.40759206327769
 51
74.74720153320871
1001
QCAD
1000
reversed:1
  0
ARC
  5
17ECE
330
194D2
100
AcDbEntity
  8
CUT
100
AcDbCircle
 10
332.3480077791435
 20
-5197.387617858965
 30
0.0
 40
362.277796811634
100
AcDbArc
 50
69.96182302134257
 51
72.40759206327901
1001
QCAD
1000
reversed:1
  0
ARC
  5
17ECF
330
194D2
100
AcDbEntity
  8
CUT
100
AcDbCircle
 10
337.2640604081741
 20
-5183.908825297623
 30
0.0
 40
347.9304826949401
100
AcDbArc
 50
67.3107954028145
 51
69.96182302134257
1001
QCAD
1000
reversed:1
  0
ARC
  5
17ED0
330
194D2
100
AcDbEntity
  8
CUT
100
AcDbCircle
 10
346.5456372352164
 20
-5161.708753502544
 30
0.0
 40
323.8682538683549
100
AcDbArc
 50
64.56303297359729
 51
67.31079540281466
1001
QCAD
1000
reversed:1
  0
ARC
  5
17ED1
330
194D2
100
AcDbEntity
  8
CUT
100
AcDbCircle
 10
350.7554438711212
 20
-5152.857664158775
 30
0.0
 40
314.0670164728496
100
AcDbArc
 50
61.64179401499175
 51
64.56303297359683
1001
QCAD
1000
reversed:1
  0
ARC
  5
17ED2
330
194D2
100
AcDbEntity
  8
CUT
100
AcDbCircle
 10
358.0233023769288
 20
-5139.392574108211
 30
0.0
 40
298.7656957020704
100
AcDbArc
 50
58.64666666441352
 51
61.64179401499132
1001
QCAD
1000
reversed:1
  0
ARC
  5
17ED3
330
194D2
100
AcDbEntity
  8
CUT
100
AcDbCircle
 10
823.49102806065
 20
-4331.531965237569
 30
0.0
 40
598.7644926765483
100
AcDbArc
 50
191.1672033964414
 51
193.1164347368561
1001
QCAD
1000
reversed:1
  0
ARC
  5
17ED4
330
194D2
100
AcDbEntity
  8
CUT
100
AcDbCircle
 10
922.5927151048129
 20
-4311.968246819049
 30
0.0
 40
699.7787661895451
100
AcDbArc
 50
189.3641524384774
 51
191.1672033964428
1001
QCAD
1000
reversed:1
  0
ARC
  5
17ED5
330
194D2
100
AcDbEntity
  8
CUT
100
AcDbCircle
 10
986.3015029042808
 20
-4301.462273485959
 30
0.0
 40
764.3479935238815
100
AcDbArc
 50
187.85825409063
 51
189.3641524384742
1001
QCAD
1000
reversed:1
  0
ARC
  5
17ED6
330
194D2
100
AcDbEntity
  8
CUT
100
AcDbCircle
 10
1162.400050088877
 20
-4277.157344102608
 30
0.0
 40
942.1158981435148
100
AcDbArc
 50
186.5018574775898
 51
187.8582540906321
1001
QCAD
1000
reversed:1
  0
ARC
  5
17ED7
330
194D2
100
AcDbEntity
  8
CUT
100
AcDbCircle
 10
1280.65241853022
 20
-4263.680305155828
 30
0.0
 40
1061.133767477327
100
AcDbArc
 50
185.4432801220187
 51
186.5018574775887
1001
QCAD
1000
reversed:1
  0
ARC
  5
17ED8
330
194D2
100
AcDbEntity
  8
CUT
100
AcDbCircle
 10
1280.652418530221
 20
-4448.455629231687
 30
0.0
 40
1061.133767477327
100
AcDbArc
 50
174.3497990849475
 51
174.5567198779812
  0
ARC
  5
17ED9
330
194D2
100
AcDbEntity
  8
CUT
100
AcDbCircle
 10
1280.652418530221
 20
-4239.508093530312
 30
0.0
 40
1061.133767477327
100
AcDbArc
 50
185.4432801220187
 51
185.6502009150525
1001
QCAD
1000
reversed:1
  0
ARC
  5
17EDA
330
194D2
100
AcDbEntity
  8
CUT
100
AcDbCircle
 10
1652.282073377457
 20
-4228.267709366064
 30
0.0
 40
1434.446842928005
100
AcDbArc
 50
185.1114737247746
 51
185.4432801220217
1001
QCAD
1000
reversed:1
  0
ARC
  5
17EDB
330
194D2
100
AcDbEntity
  8
CUT
100
AcDbCircle
 10
1652.282073377455
 20
-4483.868225021452
 30
0.0
 40
1434.446842928005
100
AcDbArc
 50
174.5567198779782
 51
174.8885262752254
  0
ARC
  5
17EDC
330
194D2
100
AcDbEntity
  8
CUT
100
AcDbCircle
 10
1652.282073377457
 20
-4204.095497740549
 30
0.0
 40
1434.446842928005
100
AcDbArc
 50
185.1114737247746
 51
185.4432801220217
1001
QCAD
1000
reversed:1
  0
ARC
  5
17EFB
330
194D2
100
AcDbEntity
  8
CUT
100
AcDbCircle
 10
988.6985841302319
 20
-4224.445188952332
 30
0.0
 40
149.4404290754805
100
AcDbArc
 50
197.3725113634396
 51
209.3734490997764
  0
ARC
  5
17EFC
330
194D2
100
AcDbEntity
  8
CUT
100
AcDbCircle
 10
967.3453228186936
 20
-4181.738757306885
 30
0.0
 40
149.4404290754805
100
AcDbArc
 50
211.089161930019
 51
215.7576886365593
1001
QCAD
1000
reversed:1
  0
ARC
  5
17EFD
330
194D2
100
AcDbEntity
  8
CUT
100
AcDbCircle
 10
977.8884240349107
 20
-4202.824914819417
 30
0.0
 40
149.4404290754805
100
AcDbArc
 50
197.3725113634411
 51
202.0410380699814
  0
ARC
  5
17EFE
330
194D2
100
AcDbEntity
  8
CUT
100
AcDbCircle
 10
994.5093920931088
 20
-4221.174513684506
 30
0.0
 40
156.1084727082873
100
AcDbArc
 50
209.373449099778
 51
212.8662280137046
  0
ARC
  5
17EFF
330
194D2
100
AcDbEntity
  8
CUT
100
AcDbCircle
 10
1004.271118931991
 20
-4214.867528242936
 30
0.0
 40
167.7304078413494
100
AcDbArc
 50
212.8662280137055
 51
216.2357924928727
  0
ARC
  5
17F00
330
194D2
100
AcDbEntity
  8
CUT
100
AcDbCircle
 10
954.816429860075
 20
-4330.702941424421
 30
0.0
 40
637.6623612849945
100
AcDbArc
 50
198.7362732337361
 51
201.133931969066
  0
ARC
  5
17F01
330
194D2
100
AcDbEntity
  8
CUT
100
AcDbCircle
 10
931.1489956883051
 20
-4339.851551295418
 30
0.0
 40
612.2882701121714
100
AcDbArc
 50
201.1339319690661
 51
203.5807749697933
  0
ARC
  5
17F02
330
194D2
100
AcDbEntity
  8
CUT
100
AcDbCircle
 10
918.8035329338184
 20
-4345.240219008958
 30
0.0
 40
598.8179995005845
100
AcDbArc
 50
203.5807749697937
 51
206.1381401386629
  0
ARC
  5
17F03
330
194D2
100
AcDbEntity
  8
CUT
100
AcDbCircle
 10
894.2656016982946
 20
-4357.281488439297
 30
0.0
 40
571.4848284658628
100
AcDbArc
 50
206.1381401386624
 51
208.7559586882203
  0
ARC
  5
17F04
330
194D2
100
AcDbEntity
  8
CUT
100
AcDbCircle
 10
956.4971133084723
 20
-4309.50910452429
 30
0.0
 40
649.1339501431806
100
AcDbArc
 50
209.8101316746308
 51
210.75418313087
  0
ARC
  5
17F05
330
194D2
100
AcDbEntity
  8
CUT
100
AcDbCircle
 10
750.4601427139769
 20
-4432.108588785883
 30
0.0
 40
409.3801873093822
100
AcDbArc
 50
210.7541831308716
 51
211.9429653355628
  0
ARC
  5
17F06
330
194D2
100
AcDbEntity
  8
CUT
100
AcDbCircle
 10
699.1441805230355
 20
-4464.103377250012
 30
0.0
 40
348.9070985471361
100
AcDbArc
 50
211.9429653355585
 51
213.6289520934051
  0
ARC
  5
17F07
330
194D2
100
AcDbEntity
  8
CUT
100
AcDbCircle
 10
628.0480070917879
 20
-4511.39136334943
 30
0.0
 40
263.5208027737214
100
AcDbArc
 50
213.6289520934074
 51
215.5689742371731
  0
ARC
  5
17F08
330
194D2
100
AcDbEntity
  8
CUT
100
AcDbCircle
 10
604.8005111777874
 20
-4528.015902216612
 30
0.0
 40
234.9407160205671
100
AcDbArc
 50
215.5689742371736
 51
218.0271547751356
  0
ARC
  5
17F09
330
194D2
100
AcDbEntity
  8
CUT
100
AcDbCircle
 10
570.9122392735509
 20
-4554.518196320809
 30
0.0
 40
191.9199470195277
100
AcDbArc
 50
218.0271547751348
 51
220.7469758240229
  0
ARC
  5
17F0A
330
194D2
100
AcDbEntity
  8
CUT
100
AcDbCircle
 10
559.0335262189803
 20
-4564.752457889006
 30
0.0
 40
176.2405358801034
100
AcDbArc
 50
220.7469758240236
 51
223.9789116839966
  0
ARC
  5
17F0B
330
194D2
100
AcDbEntity
  8
CUT
100
AcDbCircle
 10
541.9806378586952
 20
-4581.208115394329
 30
0.0
 40
152.5426527391806
100
AcDbArc
 50
223.9789116839958
 51
227.4529046633055
  0
ARC
  5
17F0C
330
194D2
100
AcDbEntity
  8
CUT
100
AcDbCircle
 10
1172.040127906058
 20
-3917.674890581569
 30
0.0
 40
1067.538264571545
100
AcDbArc
 50
226.6209740843189
 51
228.1995606687263
  0
ARC
  5
17F0D
330
194D2
100
AcDbEntity
  8
CUT
100
AcDbCircle
 10
1034.964214684038
 20
-4070.983590603535
 30
0.0
 40
861.8847611049697
100
AcDbArc
 50
228.1995606687266
 51
229.9564273631717
  0
ARC
  5
17F0E
330
194D2
100
AcDbEntity
  8
CUT
100
AcDbCircle
 10
986.2918164352741
 20
-4128.899591422694
 30
0.0
 40
786.2324941054206
100
AcDbArc
 50
229.9564273631713
 51
232.0750128042612
  0
ARC
  5
17F0F
330
194D2
100
AcDbEntity
  8
CUT
100
AcDbCircle
 10
912.8738488588624
 20
-4223.124319922477
 30
0.0
 40
666.7816781856083
100
AcDbArc
 50
232.0750128042614
 51
234.3755755457287
  0
ARC
  5
17F10
330
194D2
100
AcDbEntity
  8
CUT
100
AcDbCircle
 10
521.6934605067048
 20
-5138.803125738399
 30
0.0
 40
370.3958697893755
100
AcDbArc
 50
87.15588912635356
 51
88.4205523379203
1001
QCAD
1000
reversed:1
  0
ARC
  5
17F11
330
194D2
100
AcDbEntity
  8
CUT
100
AcDbCircle
 10
531.0716282242304
 20
-4950.031292517366
 30
0.0
 40
181.3912268639489
100
AcDbArc
 50
85.34867754565778
 51
87.15588912635275
1001
QCAD
1000
reversed:1
  0
ARC
  5
17F12
330
194D2
100
AcDbEntity
  8
CUT
100
AcDbCircle
 10
533.7339464970894
 20
-4917.308478923504
 30
0.0
 40
148.5602891970978
100
AcDbArc
 50
82.41851311330224
 51
85.34867754565887
1001
QCAD
1000
reversed:1
  0
ARC
  5
17F13
330
194D2
100
AcDbEntity
  8
CUT
100
AcDbCircle
 10
539.8601618785718
 20
-4871.2811895834
 30
0.0
 40
102.1270911713548
100
AcDbArc
 50
78.88428639992374
 51
82.4185131133041
1001
QCAD
1000
reversed:1
  0
ARC
  5
17F14
330
194D2
100
AcDbEntity
  8
CUT
100
AcDbCircle
 10
542.6671035446286
 20
-4856.994828847433
 30
0.0
 40
87.5675917089841
100
AcDbArc
 50
74.03273165594143
 51
78.88428639992297
1001
QCAD
1000
reversed:1
  0
ARC
  5
17F15
330
194D2
100
AcDbEntity
  8
CUT
100
AcDbCircle
 10
548.3469673783333
 20
-4837.143996622592
 30
0.0
 40
66.92016104102257
100
AcDbArc
 50
68.48246027457792
 51
74.03273165594157
1001
QCAD
1000
reversed:1
  0
ARC
  5
17F16
330
194D2
100
AcDbEntity
  8
CUT
100
AcDbCircle
 10
550.8428440781578
 20
-4830.813528241884
 30
0.0
 40
60.11543985497202
100
AcDbArc
 50
61.61830960759578
 51
68.48246027457898
1001
QCAD
1000
reversed:1
  0
ARC
  5
17F17
330
194D2
100
AcDbEntity
  8
CUT
100
AcDbCircle
 10
554.7407261510145
 20
-4823.599036633899
 30
0.0
 40
51.91529511139827
100
AcDbArc
 50
54.23122200683507
 51
61.61830960759112
1001
QCAD
1000
reversed:1
  0
ARC
  5
17F18
330
194D2
100
AcDbEntity
  8
CUT
100
AcDbCircle
 10
710.8165633238063
 20
-4755.430368225649
 30
0.0
 40
327.1596840929386
100
AcDbArc
 50
134.3193105389841
 51
139.2552909545332
1001
QCAD
1000
reversed:1
  0
ARC
  5
17F19
330
194D2
100
AcDbEntity
  8
CUT
100
AcDbCircle
 10
731.9108458341052
 20
-4777.031912650442
 30
0.0
 40
357.3523235297378
100
AcDbArc
 50
129.5965746604656
 51
134.3193105389839
1001
QCAD
1000
reversed:1
  0
ARC
  5
17F1A
330
194D2
100
AcDbEntity
  8
CUT
100
AcDbCircle
 10
741.6977753982044
 20
-4788.863718372628
 30
0.0
 40
372.7073102422113
100
AcDbArc
 50
125.2437621431105
 51
129.5965746604668
1001
QCAD
1000
reversed:1
  0
ARC
  5
17F1B
330
194D2
100
AcDbEntity
  8
CUT
100
AcDbCircle
 10
757.3131488918609
 20
-4810.964065410173
 30
0.0
 40
399.7677098794354
100
AcDbArc
 50
121.0409208771598
 51
125.2437621431099
1001
QCAD
1000
reversed:1
  0
ARC
  5
17F1C
330
194D2
100
AcDbEntity
  8
CUT
100
AcDbCircle
 10
708.8776632251189
 20
-4657.194188935502
 30
0.0
 40
245.9627253620867
100
AcDbArc
 50
129.8793822468258
 51
132.9932592340974
  0
ARC
  5
17F1D
330
194D2
100
AcDbEntity
  8
CUT
100
AcDbCircle
 10
724.8260866602418
 20
-4674.300813727441
 30
0.0
 40
269.3505175160735
100
AcDbArc
 50
132.993259234098
 51
135.9688455366395
  0
ARC
  5
17F1E
330
194D2
100
AcDbEntity
  8
CUT
100
AcDbCircle
 10
734.9829467824032
 20
-4684.119858202612
 30
0.0
 40
283.4776347714285
100
AcDbArc
 50
135.9688455366388
 51
138.6559644808661
  0
ARC
  5
17F1F
330
194D2
100
AcDbEntity
  8
CUT
100
AcDbCircle
 10
760.216161925628
 20
-4706.3221637428
 30
0.0
 40
317.0880128973014
100
AcDbArc
 50
138.6559644808669
 51
141.1966572939564
  0
ARC
  5
17F20
330
194D2
100
AcDbEntity
  8
CUT
100
AcDbCircle
 10
775.574473369397
 20
-4718.672038504126
 30
0.0
 40
336.7958067115327
100
AcDbArc
 50
141.1966572939561
 51
143.4486376939185
  0
ARC
  5
17F21
330
194D2
100
AcDbEntity
  8
CUT
100
AcDbCircle
 10
812.78783381472
 20
-4746.260136373732
 30
0.0
 40
383.1200696813465
100
AcDbArc
 50
143.4486376939181
 51
145.5600697562271
  0
ARC
  5
17F22
330
194D2
100
AcDbEntity
  8
CUT
100
AcDbCircle
 10
835.0826370251061
 20
-4761.548539730718
 30
0.0
 40
410.1532627483115
100
AcDbArc
 50
145.5600697562295
 51
147.4012567572411
  0
ARC
  5
17F23
330
194D2
100
AcDbEntity
  8
CUT
100
AcDbCircle
 10
889.3398070135597
 20
-4796.245770721127
 30
0.0
 40
474.5562000536681
100
AcDbArc
 50
147.4012567572398
 51
149.1129448255001
  0
ARC
  5
17F24
330
194D2
100
AcDbEntity
  8
CUT
100
AcDbCircle
 10
2153.170158616551
 20
-3842.632961196889
 30
0.0
 40
1340.583793852648
100
AcDbArc
 50
203.7407885199109
 51
204.3797171208848
1001
QCAD
1000
reversed:1
  0
ARC
  5
17F25
330
194D2
100
AcDbEntity
  8
CUT
100
AcDbCircle
 10
2426.111127494713
 20
-3722.588433521554
 30
0.0
 40
1638.757335799188
100
AcDbArc
 50
203.1629033120743
 51
203.7407885199138
1001
QCAD
1000
reversed:1
  0
ARC
  5
17F26
330
194D2
100
AcDbEntity
  8
CUT
100
AcDbCircle
 10
2608.008944849915
 20
-3644.766296637664
 30
0.0
 40
1836.603490545145
100
AcDbArc
 50
202.7070824408202
 51
203.1629033120742
1001
QCAD
1000
reversed:1
  0
ARC
  5
17F27
330
194D2
100
AcDbEntity
  8
CUT
100
AcDbCircle
 10
3172.282018626046
 20
-3408.643796470335
 30
0.0
 40
2448.287998174717
100
AcDbArc
 50
202.312288597257
 51
202.7070824408182
1001
QCAD
1000
reversed:1
  0
ARC
  5
17F28
330
194D2
100
AcDbEntity
  8
CUT
100
AcDbCircle
 10
3580.857823851054
 20
-3240.972267807385
 30
0.0
 40
2889.9303083528
100
AcDbArc
 50
202.0394000727491
 51
202.3122885972547
1001
QCAD
1000
reversed:1
  0
ARC
  5
17F29
330
194D2
100
AcDbEntity
  8
CUT
100
AcDbCircle
 10
5342.132488264462
 20
-2527.96185449835
 30
0.0
 40
4790.054591917345
100
AcDbArc
 50
201.8274378019206
 51
202.039400072749
1001
QCAD
1000
reversed:1
  0
ARC
  5
17F2A
330
194D2
100
AcDbEntity
  8
CUT
100
AcDbCircle
 10
5440.563826596474
 20
-2488.537439909439
 30
0.0
 40
4896.087666151329
100
AcDbArc
 50
201.7373038132386
 51
201.8274378018897
1001
QCAD
1000
reversed:1
  0
ARC
  5
17F2B
330
194D2
100
AcDbEntity
  8
CUT
100
AcDbCircle
 10
44254.00755557455
 20
12986.4876884876
 30
0.0
 40
46680.77166432303
100
AcDbArc
 50
201.7081131388192
 51
201.7373038132647
1001
QCAD
1000
reversed:1
  0
ARC
  5
17F2C
330
194D2
100
AcDbEntity
  8
CUT
100
AcDbCircle
 10
909.166667432246
 20
-4314.79714064984
 30
0.0
 40
43.27453968586745
100
AcDbArc
 50
117.5059259016651
 51
125.8429095027013
1001
QCAD
1000
reversed:1
  0
ARC
  5
17F2D
330
194D2
100
AcDbEntity
  8
CUT
100
AcDbCircle
 10
910.8632490014948
 20
-4318.055420693285
 30
0.0
 40
46.94806358842104
100
AcDbArc
 50
109.5023089379388
 51
117.5059259016649
1001
QCAD
1000
reversed:1
  0
ARC
  5
17F2E
330
194D2
100
AcDbEntity
  8
CUT
100
AcDbCircle
 10
910.0159039208418
 20
-4315.662898416469
 30
0.0
 40
44.40992321981023
100
AcDbArc
 50
100.7362335962163
 51
109.5023089379391
1001
QCAD
1000
reversed:1
  0
ARC
  5
17F2F
330
194D2
100
AcDbEntity
  8
CUT
100
AcDbCircle
 10
908.3186940934361
 20
-4306.711700920054
 30
0.0
 40
35.29924498939909
100
AcDbArc
 50
90.90128384440325
 51
100.7362335962162
1001
QCAD
1000
reversed:1
  0
ARC
  5
17F30
330
194D2
100
AcDbEntity
  8
CUT
100
AcDbCircle
 10
908.2554762569816
 20
-4302.693192789942
 30
0.0
 40
31.28023962903703
100
AcDbArc
 50
84.77146319914193
 51
90.90128384440246
1001
QCAD
1000
reversed:1
  0
ARC
  5
17F31
330
194D2
100
AcDbEntity
  8
CUT
100
AcDbCircle
 10
908.6942136891741
 20
-4297.898737487645
 30
0.0
 40
26.46575189095512
100
AcDbArc
 50
78.10679683510185
 51
84.77146319914463
1001
QCAD
1000
reversed:1
  0
ARC
  5
17F32
330
194D2
100
AcDbEntity
  8
CUT
100
AcDbCircle
 10
909.1215724806107
 20
-4295.86958172593
 30
0.0
 40
24.3920815598952
100
AcDbArc
 50
70.32420733074433
 51
78.10679683510025
1001
QCAD
1000
reversed:1
  0
ARC
  5
17F33
330
194D2
100
AcDbEntity
  8
CUT
100
AcDbCircle
 10
910.1011285724012
 20
-4293.130141287755
 30
0.0
 40
21.48277510452294
100
AcDbArc
 50
62.03050062770945
 51
70.32420733074586
1001
QCAD
1000
reversed:1
  0
ARC
  5
17F34
330
194D2
100
AcDbEntity
  8
CUT
100
AcDbCircle
 10
910.4799493947867
 20
-4292.416767065908
 30
0.0
 40
20.67505733458754
100
AcDbArc
 50
53.12759720825208
 51
62.03050062770863
1001
QCAD
1000
reversed:1
  0
ARC
  5
17F35
330
194D2
100
AcDbEntity
  8
CUT
100
AcDbCircle
 10
910.505307982686
 20
-4292.382958695069
 30
0.0
 40
20.63279548513697
100
AcDbArc
 50
44.21556220158509
 51
53.12759720825161
1001
QCAD
1000
reversed:1
  0
ARC
  5
17F36
330
194D2
100
AcDbEntity
  8
CUT
100
AcDbCircle
 10
909.9453733093756
 20
-4292.927767357562
 30
0.0
 40
21.41404020806479
100
AcDbArc
 50
35.91786427025302
 51
44.2155622015833
1001
QCAD
1000
reversed:1
  0
ARC
  5
17F37
330
194D2
100
AcDbEntity
  8
CUT
100
AcDbCircle
 10
907.3808704064872
 20
-4294.785376710866
 30
0.0
 40
24.58064527475819
100
AcDbArc
 50
28.17393630183603
 51
35.9178642702524
1001
QCAD
1000
reversed:1
  0
ARC
  5
17F38
330
194D2
100
AcDbEntity
  8
CUT
100
AcDbCircle
 10
654.6540811194603
 20
-4421.591296002911
 30
0.0
 40
307.3279168666463
100
AcDbArc
 50
24.07177715411473
 51
26.76750719025809
1001
QCAD
1000
reversed:1
  0
ARC
  5
17F39
330
194D2
100
AcDbEntity
  8
CUT
100
AcDbCircle
 10
606.4845967781014
 20
-4443.110078734149
 30
0.0
 40
360.0854493330781
100
AcDbArc
 50
21.58137921948592
 51
24.07177715411422
1001
QCAD
1000
reversed:1
  0
ARC
  5
17F3A
330
194D2
100
AcDbEntity
  8
CUT
100
AcDbCircle
 10
574.4898068501266
 20
-4455.765685639244
 30
0.0
 40
394.4922941269787
100
AcDbArc
 50
19.51356447148894
 51
21.58137921948749
1001
QCAD
1000
reversed:1
  0
ARC
  5
17F3B
330
194D2
100
AcDbEntity
  8
CUT
100
AcDbCircle
 10
484.0473241093323
 20
-4487.817147357855
 30
0.0
 40
490.4461313750057
100
AcDbArc
 50
17.65904831078306
 51
19.51356447148629
1001
QCAD
1000
reversed:1
  0
ARC
  5
17F3C
330
194D2
100
AcDbEntity
  8
CUT
100
AcDbCircle
 10
422.3169781415875
 20
-4507.46920979419
 30
0.0
 40
555.2291474463294
100
AcDbArc
 50
16.22765449069668
 51
17.6590483107852
1001
QCAD
1000
reversed:1
  0
ARC
  5
17F3D
330
194D2
100
AcDbEntity
  8
CUT
100
AcDbCircle
 10
224.6632987665613
 20
-4564.996378715172
 30
0.0
 40
761.0843201638218
100
AcDbArc
 50
15.0050786089084
 51
16.2276544906952
1001
QCAD
1000
reversed:1
  0
ARC
  5
17F3E
330
194D2
100
AcDbEntity
  8
CUT
100
AcDbCircle
 10
79.99108588844035
 20
-4603.774925857206
 30
0.0
 40
910.8635740593447
100
AcDbArc
 50
14.19501461784169
 51
15.00507860891191
1001
QCAD
1000
reversed:1
  0
ARC
  5
17F3F
330
194D2
100
AcDbEntity
  8
CUT
100
AcDbCircle
 10
-618.2587582529707
 20
-4780.394654683445
 30
0.0
 40
1631.104765226693
100
AcDbArc
 50
13.58966890745146
 51
14.19501461783701
1001
QCAD
1000
reversed:1
  0
ARC
  5
17F40
330
194D2
100
AcDbEntity
  8
CUT
100
AcDbCircle
 10
1327.206293070273
 20
-4299.507747401321
 30
0.0
 40
373.0286665672622
100
AcDbArc
 50
195.1725098555181
 51
197.3153180224144
  0
ARC
  5
17F41
330
194D2
100
AcDbEntity
  8
CUT
100
AcDbCircle
 10
1382.625236685618
 20
-4282.230413679918
 30
0.0
 40
431.078348495432
100
AcDbArc
 50
197.3153180224146
 51
199.3086190146505
  0
ARC
  5
17F42
330
194D2
100
AcDbEntity
  8
CUT
100
AcDbCircle
 10
1417.26758785143
 20
-4270.092984181454
 30
0.0
 40
467.7854280459151
100
AcDbArc
 50
199.3086190146494
 51
200.9970706931493
  0
ARC
  5
17F43
330
194D2
100
AcDbEntity
  8
CUT
100
AcDbCircle
 10
1509.045213244274
 20
-4234.868238101119
 30
0.0
 40
566.0906428576095
100
AcDbArc
 50
200.997070693152
 51
202.5319218410648
  0
ARC
  5
17F44
330
194D2
100
AcDbEntity
  8
CUT
100
AcDbCircle
 10
1568.467812838329
 20
-4210.215795474931
 30
0.0
 40
630.4240577362941
100
AcDbArc
 50
202.5319218410647
 51
203.7609873606174
  0
ARC
  5
17F45
330
194D2
100
AcDbEntity
  8
CUT
100
AcDbCircle
 10
1742.334869480146
 20
-4133.672659228181
 30
0.0
 40
820.3940687690284
100
AcDbArc
 50
203.7609873606153
 51
204.8383905079993
  0
ARC
  5
17F46
330
194D2
100
AcDbEntity
  8
CUT
100
AcDbCircle
 10
1863.725822423916
 20
-4077.483431142461
 30
0.0
 40
954.1587607077672
100
AcDbArc
 50
204.8383905080004
 51
205.6151667050722
  0
ARC
  5
17F47
330
194D2
100
AcDbEntity
  8
CUT
100
AcDbCircle
 10
2322.031669220695
 20
-3857.750875769128
 30
0.0
 40
1462.417203922444
100
AcDbArc
 50
205.6151667050721
 51
206.2426027007419
  0
ARC
  5
17F48
330
194D2
100
AcDbEntity
  8
CUT
100
AcDbCircle
 10
600.5053299398604
 20
-4662.575733132398
 30
0.0
 40
92.39981160928703
100
AcDbArc
 50
196.1668623058729
 51
204.361553017426
1001
QCAD
1000
reversed:1
  0
ARC
  5
17F49
330
194D2
100
AcDbEntity
  8
CUT
100
AcDbCircle
 10
612.4769377657436
 20
-4659.105166621128
 30
0.0
 40
104.8643302861511
100
AcDbArc
 50
188.4753783792907
 51
196.1668623058731
1001
QCAD
1000
reversed:1
  0
ARC
  5
17F4A
330
194D2
100
AcDbEntity
  8
CUT
100
AcDbCircle
 10
620.2827613467924
 20
-4657.942007556425
 30
0.0
 40
112.7563402195115
100
AcDbArc
 50
181.7620193892811
 51
188.47537837929
1001
QCAD
1000
reversed:1
  0
ARC
  5
17F4B
330
194D2
100
AcDbEntity
  8
CUT
100
AcDbCircle
 10
635.6161195248689
 20
-4657.47031147021
 30
0.0
 40
128.0969520135348
100
AcDbArc
 50
175.4638959134968
 51
181.7620193892825
1001
QCAD
1000
reversed:1
  0
ARC
  5
180D8
330
194D2
100
AcDbEntity
  8
CUT
100
AcDbCircle
 10
826.1841736059955
 20
-4701.417726413509
 30
0.0
 40
178.1664522596672
100
AcDbArc
 50
169.2164598078839
 51
174.7857002662232
1001
QCAD
1000
reversed:1
  0
ARC
  5
180D9
330
194D2
100
AcDbEntity
  8
CUT
100
AcDbCircle
 10
849.299808944419
 20
-4705.820387804017
 30
0.0
 40
201.6976235951204
100
AcDbArc
 50
163.9824011950684
 51
169.2164598078841
1001
QCAD
1000
reversed:1
  0
ARC
  5
180DA
330
194D2
100
AcDbEntity
  8
CUT
100
AcDbCircle
 10
865.3451088885904
 20
-4710.426637653443
 30
0.0
 40
218.3910111474942
100
AcDbArc
 50
159.5113921923242
 51
163.9824011950682
1001
QCAD
1000
reversed:1
  0
ARC
  5
180DB
330
194D2
100
AcDbEntity
  8
CUT
100
AcDbCircle
 10
907.0713558389621
 20
-4726.017986577674
 30
0.0
 40
262.9350325851747
100
AcDbArc
 50
155.4368387343063
 51
159.5113921923249
1001
QCAD
1000
reversed:1
  0
ARC
  5
180DC
330
194D2
100
AcDbEntity
  8
CUT
100
AcDbCircle
 10
933.070954913775
 20
-4737.901317701173
 30
0.0
 40
291.5216152882843
100
AcDbArc
 50
152.124355439481
 51
155.4368387343048
1001
QCAD
1000
reversed:1
  0
ARC
  5
180DD
330
194D2
100
AcDbEntity
  8
CUT
100
AcDbCircle
 10
999.0516402059754
 20
-4772.800390305474
 30
0.0
 40
366.1634005045338
100
AcDbArc
 50
149.1687988541792
 51
152.1243554394833
1001
QCAD
1000
reversed:1
  0
ARC
  5
180DE
330
194D2
100
AcDbEntity
  8
CUT
100
AcDbCircle
 10
1040.2175604398
 20
-4797.370597392512
 30
0.0
 40
414.1042814413444
100
AcDbArc
 50
146.873812856561
 51
149.1687988541772
1001
QCAD
1000
reversed:1
  0
ARC
  5
180DF
330
194D2
100
AcDbEntity
  8
CUT
100
AcDbCircle
 10
1155.986367926908
 20
-4872.914754157086
 30
0.0
 40
552.3408048649959
100
AcDbArc
 50
143.9566284256252
 51
146.8738128565613
1001
QCAD
1000
reversed:1
  0
ARC
  5
17F4C
330
194D2
100
AcDbEntity
  8
CUT
100
AcDbCircle
 10
1380.98487489637
 20
-4908.656261855305
 30
0.0
 40
897.917406512594
100
AcDbArc
 50
153.460000447746
 51
154.2634640846721
  0
ARC
  5
17F4D
330
194D2
100
AcDbEntity
  8
CUT
100
AcDbCircle
 10
1095.266428581731
 20
-4770.924796527695
 30
0.0
 40
580.7345143104109
100
AcDbArc
 50
154.2634640846725
 51
155.0999985575861
  0
ARC
  5
17F4E
330
194D2
100
AcDbEntity
  8
CUT
100
AcDbCircle
 10
1022.272272936687
 20
-4737.04203534433
 30
0.0
 40
500.2597464403393
100
AcDbArc
 50
155.0999985575877
 51
156.2617522713041
  0
ARC
  5
17F4F
330
194D2
100
AcDbEntity
  8
CUT
100
AcDbCircle
 10
915.3099120166612
 20
-4690.003655164946
 30
0.0
 40
383.4113152849054
100
AcDbArc
 50
156.2617522713034
 51
157.5887850590751
  0
ARC
  5
17F50
330
194D2
100
AcDbEntity
  8
CUT
100
AcDbCircle
 10
877.690971753018
 20
-4674.48963181428
 30
0.0
 40
342.7189377789812
100
AcDbArc
 50
157.5887850590734
 51
159.2615290781563
  0
ARC
  5
17F51
330
194D2
100
AcDbEntity
  8
CUT
100
AcDbCircle
 10
817.5889660718565
 20
-4651.732847421941
 30
0.0
 40
278.4529100288732
100
AcDbArc
 50
159.2615290781578
 51
161.117307911381
  0
ARC
  5
17F52
330
194D2
100
AcDbEntity
  8
CUT
100
AcDbCircle
 10
793.7580039856014
 20
-4643.581727306844
 30
0.0
 40
253.2664947800279
100
AcDbArc
 50
161.1173079113803
 51
163.3654767600015
  0
ARC
  5
17F53
330
194D2
100
AcDbEntity
  8
CUT
100
AcDbCircle
 10
753.9767493583583
 20
-4631.696315332145
 30
0.0
 40
211.7476889503091
100
AcDbArc
 50
163.3654767600011
 51
165.824224195093
  0
ARC
  5
17F54
330
194D2
100
AcDbEntity
  8
CUT
100
AcDbCircle
 10
737.4910846072166
 20
-4627.532216335936
 30
0.0
 40
194.7442521583768
100
AcDbArc
 50
165.8242241950942
 51
168.7324272593065
  0
ARC
  5
17F55
330
194D2
100
AcDbEntity
  8
CUT
100
AcDbCircle
 10
709.8265140907062
 20
-4622.020570089277
 30
0.0
 40
166.535978439282
100
AcDbArc
 50
168.7324272593058
 51
171.8773567605585
  0
ARC
  5
17F56
330
194D2
100
AcDbEntity
  8
CUT
100
AcDbCircle
 10
698.4183964732475
 20
-4620.392354461126
 30
0.0
 40
155.0122536202179
100
AcDbArc
 50
171.8773567605577
 51
175.505228754391
  0
ARC
  5
17F57
330
194D2
100
AcDbEntity
  8
CUT
100
AcDbCircle
 10
679.9593728306353
 20
-4618.941292767679
 30
0.0
 40
136.4962839216932
100
AcDbArc
 50
175.5052287543906
 51
179.3714295151395
  0
ARC
  5
17F58
330
194D2
100
AcDbEntity
  8
CUT
100
AcDbCircle
 10
672.8096944634912
 20
-4618.862853183837
 30
0.0
 40
129.3461752846219
100
AcDbArc
 50
179.3714295151407
 51
183.6724863739759
  0
ARC
  5
17F59
330
194D2
100
AcDbEntity
  8
CUT
100
AcDbCircle
 10
662.5011165603006
 20
-4619.524508252658
 30
0.0
 40
119.0163850729941
100
AcDbArc
 50
183.672486373977
 51
188.1564022669917
  0
ARC
  5
17F5A
330
194D2
100
AcDbEntity
  8
CUT
100
AcDbCircle
 10
659.2811226273916
 20
-4619.986015690909
 30
0.0
 40
115.763486358995
100
AcDbArc
 50
188.1564022669907
 51
192.8929848194894
  0
ARC
  5
17F5B
330
194D2
100
AcDbEntity
  8
CUT
100
AcDbCircle
 10
656.5407235117564
 20
-4620.613297754639
 30
0.0
 40
112.9522108299068
100
AcDbArc
 50
192.8929848194903
 51
197.6881836747237
  0
ARC
  5
17F5C
330
194D2
100
AcDbEntity
  8
CUT
100
AcDbCircle
 10
1161.205061169587
 20
-5246.839140498141
 30
0.0
 40
843.8166420986769
100
AcDbArc
 50
136.3378764257324
 51
136.696834682246
  0
ARC
  5
17F5D
330
194D2
100
AcDbEntity
  8
CUT
100
AcDbCircle
 10
1700.513436772487
 20
-5755.113899348706
 30
0.0
 40
1584.894744919182
100
AcDbArc
 50
136.6968346822473
 51
136.9587539485752
  0
ARC
  5
17F5E
330
194D2
100
AcDbEntity
  8
CUT
100
AcDbCircle
 10
2796.494621916828
 20
-6778.608933732845
 30
0.0
 40
3084.466965120457
100
AcDbArc
 50
136.9587539485794
 51
137.0751455456084
  0
ARC
  5
17F5F
330
194D2
100
AcDbEntity
  8
CUT
100
AcDbCircle
 10
-2845.363689181971
 20
-1531.308056717471
 30
0.0
 40
4620.384214262626
100
AcDbArc
 50
316.9974450806115
 51
317.0751455455916
1001
QCAD
1000
reversed:1
  0
ARC
  5
17F60
330
194D2
100
AcDbEntity
  8
CUT
100
AcDbCircle
 10
-475.4158229360829
 20
-3741.517781499956
 30
0.0
 40
1379.754658721528
100
AcDbArc
 50
316.3558355672608
 51
316.9974450806296
1001
QCAD
1000
reversed:1
  0
ARC
  5
17F61
330
194D2
100
AcDbEntity
  8
CUT
100
AcDbCircle
 10
136.5091516244888
 20
-4325.146145236065
 30
0.0
 40
534.1340337080151
100
AcDbArc
 50
315.3246182526597
 51
316.3558355672569
1001
QCAD
1000
reversed:1
  0
ARC
  5
17F62
330
194D2
100
AcDbEntity
  8
CUT
100
AcDbCircle
 10
700.1091471890688
 20
-4645.371328094418
 30
0.0
 40
146.4207598397904
100
AcDbArc
 50
294.4086688539363
 51
302.8280860650685
  0
ARC
  5
17F63
330
194D2
100
AcDbEntity
  8
CUT
100
AcDbCircle
 10
694.6791968630941
 20
-4636.954758135344
 30
0.0
 40
156.4368973397705
100
AcDbArc
 50
302.8280860650677
 51
310.9730411370993
  0
ARC
  5
17F64
330
194D2
100
AcDbEntity
  8
CUT
100
AcDbCircle
 10
691.941210813456
 20
-4633.80207074182
 30
0.0
 40
160.6125416504495
100
AcDbArc
 50
310.9730411371004
 51
318.7366321914803
  0
ARC
  5
17F65
330
194D2
100
AcDbEntity
  8
CUT
100
AcDbCircle
 10
689.3897886771467
 20
-4631.563480266412
 30
0.0
 40
164.0068077322748
100
AcDbArc
 50
318.7366321914803
 51
326.4193441728891
  0
ARC
  5
17F66
330
194D2
100
AcDbEntity
  8
CUT
100
AcDbCircle
 10
1436.084883228996
 20
-4168.20765919392
 30
0.0
 40
553.0500099402992
100
AcDbArc
 50
204.3234372857035
 51
206.2037529736891
  0
ARC
  5
17F67
330
194D2
100
AcDbEntity
  8
CUT
100
AcDbCircle
 10
1307.393332069791
 20
-4231.542223706172
 30
0.0
 40
409.6178573324588
100
AcDbArc
 50
206.2037529736883
 51
208.3886468941573
  0
ARC
  5
17F68
330
194D2
100
AcDbEntity
  8
CUT
100
AcDbCircle
 10
1264.841379792342
 20
-4254.539082987681
 30
0.0
 40
361.2492292824951
100
AcDbArc
 50
208.3886468941588
 51
211.220811037366
  0
ARC
  5
17F69
330
194D2
100
AcDbEntity
  8
CUT
100
AcDbCircle
 10
1201.298586101845
 20
-4293.053519013146
 30
0.0
 40
286.9454715554945
100
AcDbArc
 50
211.2208110373652
 51
214.3986629091709
  0
ARC
  5
17F6A
330
194D2
100
AcDbEntity
  8
CUT
100
AcDbCircle
 10
1178.207085991695
 20
-4308.863807614545
 30
0.0
 40
258.960071737079
100
AcDbArc
 50
214.398662909171
 51
218.3054850710722
  0
ARC
  5
17F6B
330
194D2
100
AcDbEntity
  8
CUT
100
AcDbCircle
 10
1144.230968328012
 20
-4335.70181021013
 30
0.0
 40
215.6627859697577
100
AcDbArc
 50
218.305485071072
 51
222.5867227689633
  0
ARC
  5
17F6C
330
194D2
100
AcDbEntity
  8
CUT
100
AcDbCircle
 10
1132.387390079692
 20
-4346.587474558102
 30
0.0
 40
199.5765174770099
100
AcDbArc
 50
222.5867227689634
 51
227.5805941400951
  0
ARC
  5
17F6D
330
194D2
100
AcDbEntity
  8
CUT
100
AcDbCircle
 10
1117.077302529201
 20
-4363.342759507555
 30
0.0
 40
176.8798579311419
100
AcDbArc
 50
227.5805941400948
 51
232.8854127205266
  0
ARC
  5
17F6E
330
194D2
100
AcDbEntity
  8
CUT
100
AcDbCircle
 10
718.7682720946968
 20
-4936.413362447103
 30
0.0
 40
273.0725220373099
100
AcDbArc
 50
14.57613010655553
 51
19.44350314419301
1001
QCAD
1000
reversed:1
  0
ARC
  5
17F6F
330
194D2
100
AcDbEntity
  8
CUT
100
AcDbCircle
 10
727.1618515432001
 20
-4934.230732455087
 30
0.0
 40
264.399803337826
100
AcDbArc
 50
9.62952369972812
 51
14.57613010655553
1001
QCAD
1000
reversed:1
  0
ARC
  5
17F70
330
194D2
100
AcDbEntity
  8
CUT
100
AcDbCircle
 10
733.3088012591988
 20
-4933.187795400343
 30
0.0
 40
258.1650051445262
100
AcDbArc
 50
4.450883684461508
 51
9.629523699728527
1001
QCAD
1000
reversed:1
  0
ARC
  5
17F71
330
194D2
100
AcDbEntity
  8
CUT
100
AcDbCircle
 10
747.3049952997909
 20
-4932.098342661959
 30
0.0
 40
244.126474064279
100
AcDbArc
 50
359.1253212824338
 51
4.450883684461406
1001
QCAD
1000
reversed:1
  0
ARC
  5
17F72
330
194D2
100
AcDbEntity
  8
CUT
100
AcDbCircle
 10
916.6348320821025
 20
-4921.487193878205
 30
0.0
 40
85.74736831964957
100
AcDbArc
 50
350.9745548225544
 51
353.881943533736
  0
ARC
  5
17F73
330
194D2
100
AcDbEntity
  8
CUT
100
AcDbCircle
 10
896.5415398088835
 20
-4919.333435565813
 30
0.0
 40
105.9557593799292
100
AcDbArc
 50
353.8819435337362
 51
356.4973688727667
  0
ARC
  5
17F74
330
194D2
100
AcDbEntity
  8
CUT
100
AcDbCircle
 10
882.5692799339715
 20
-4918.47821150858
 30
0.0
 40
119.9541683681017
100
AcDbArc
 50
356.4973688727647
 51
358.5164025931375
  0
ARC
  5
17F75
330
194D2
100
AcDbEntity
  8
CUT
100
AcDbCircle
 10
837.3416945288445
 20
-4917.306842005413
 30
0.0
 40
165.1969201421815
100
AcDbArc
 50
358.5164025931375
 51
0.2368607576444462
  0
ARC
  5
17F76
330
194D2
100
AcDbEntity
  8
CUT
100
AcDbCircle
 10
804.1537645549893
 20
-4917.444041692503
 30
0.0
 40
198.3851337082004
100
AcDbArc
 50
0.2368607576505019
 51
1.367432690806441
  0
ARC
  5
17F77
330
194D2
100
AcDbEntity
  8
CUT
100
AcDbCircle
 10
642.7403666222037
 20
-4921.297098163928
 30
0.0
 40
359.8445127370436
100
AcDbArc
 50
1.367432690805322
 51
2.206877520058814
  0
ARC
  5
17F78
330
194D2
100
AcDbEntity
  8
CUT
100
AcDbCircle
 10
353.7007386566888
 20
-4932.435626978509
 30
0.0
 40
649.0986801376132
100
AcDbArc
 50
2.206877520055607
 51
2.612326889573997
  0
ARC
  5
17F79
330
194D2
100
AcDbEntity
  8
CUT
100
AcDbCircle
 10
2484.591241145562
 20
-4835.21305560693
 30
0.0
 40
1484.008575014218
100
AcDbArc
 50
182.4349854570502
 51
182.6123268895635
1001
QCAD
1000
reversed:1
  0
LINE
  5
17F7A
330
194D2
100
AcDbEntity
  8
CUT
100
AcDbLine
 10
879.9276382783057
 20
-4528.593061786141
 30
0.0
 11
879.1653414444422
 21
-4534.88045141669
 31
0.0
  0
ARC
  5
17F7B
330
194D2
100
AcDbEntity
  8
CUT
100
AcDbCircle
 10
-9284.591202894668
 20
-3302.073072972707
 30
0.0
 40
10238.2499053765
100
AcDbArc
 50
353.0632252470455
 51
353.0841234782799
1001
QCAD
1000
reversed:1
  0
ARC
  5
17F7C
330
194D2
100
AcDbEntity
  8
CUT
100
AcDbCircle
 10
-4117.749476291719
 20
-3930.694738829328
 30
0.0
 40
5033.308154833114
100
AcDbArc
 50
353.0334198001677
 51
353.0632252469115
1001
QCAD
1000
reversed:1
  0
ARC
  5
17F7D
330
194D2
100
AcDbEntity
  8
CUT
100
AcDbCircle
 10
-2766.043261765245
 20
-4095.863132958637
 30
0.0
 40
3671.548158061018
100
AcDbArc
 50
352.9211320335846
 51
353.0334198002636
1001
QCAD
1000
reversed:1
  0
ARC
  5
17F7E
330
194D2
100
AcDbEntity
  8
CUT
100
AcDbCircle
 10
-1244.180787568766
 20
-4284.851143856912
 30
0.0
 40
2137.996118307974
100
AcDbArc
 50
352.7739842746257
 51
352.9211320336053
1001
QCAD
1000
reversed:1
  0
ARC
  5
17F7F
330
194D2
100
AcDbEntity
  8
CUT
100
AcDbCircle
 10
-734.6402516177441
 20
-4349.456150897104
 30
0.0
 40
1624.376254291875
100
AcDbArc
 50
352.2724753076188
 51
352.773984274605
1001
QCAD
1000
reversed:1
  0
ARC
  5
17F80
330
194D2
100
AcDbEntity
  8
CUT
100
AcDbCircle
 10
-115.9674961921536
 20
-4433.406650292063
 30
0.0
 40
1000.033668322796
100
AcDbArc
 50
351.6333064988184
 51
352.2724753076211
1001
QCAD
1000
reversed:1
  0
ARC
  5
17F81
330
194D2
100
AcDbEntity
  8
CUT
100
AcDbCircle
 10
32.7637822019575
 20
-4455.281038274607
 30
0.0
 40
849.702427316952
100
AcDbArc
 50
350.7167563759143
 51
351.6333064988189
1001
QCAD
1000
reversed:1
  0
ARC
  5
17F82
330
194D2
100
AcDbEntity
  8
CUT
100
AcDbCircle
 10
241.2501323285625
 20
-4489.359382714634
 30
0.0
 40
638.449281189169
100
AcDbArc
 50
349.6593839504836
 51
350.7167563759128
1001
QCAD
1000
reversed:1
  0
ARC
  5
17F83
330
194D2
100
AcDbEntity
  8
CUT
100
AcDbCircle
 10
310.2355996970957
 20
-4501.946691153496
 30
0.0
 40
568.3248557598647
100
AcDbArc
 50
348.3135297456404
 51
349.6593839504824
1001
QCAD
1000
reversed:1
  0
ARC
  5
17F84
330
194D2
100
AcDbEntity
  8
CUT
100
AcDbCircle
 10
415.1067400093557
 20
-4523.638635355892
 30
0.0
 40
461.2337893085799
100
AcDbArc
 50
346.8195727319543
 51
348.3135297456416
1001
QCAD
1000
reversed:1
  0
ARC
  5
17F85
330
194D2
100
AcDbEntity
  8
CUT
100
AcDbCircle
 10
454.2081353241979
 20
-4532.795693759192
 30
0.0
 40
421.0744711598731
100
AcDbArc
 50
345.0216507400876
 51
346.8195727319517
1001
QCAD
1000
reversed:1
  0
ARC
  5
17F86
330
194D2
100
AcDbEntity
  8
CUT
100
AcDbCircle
 10
516.3491502570616
 20
-4549.421163526447
 30
0.0
 40
356.7478671622407
100
AcDbArc
 50
343.0683333290018
 51
345.0216507400905
1001
QCAD
1000
reversed:1
  0
ARC
  5
17F87
330
194D2
100
AcDbEntity
  8
CUT
100
AcDbCircle
 10
540.652554071547
 20
-4556.819776736407
 30
0.0
 40
331.3432432838883
100
AcDbArc
 50
340.8012628100603
 51
343.0683333289995
1001
QCAD
1000
reversed:1
  0
ARC
  5
17F88
330
194D2
100
AcDbEntity
  8
CUT
100
AcDbCircle
 10
579.6825381085928
 20
-4570.410490659662
 30
0.0
 40
290.0147161037934
100
AcDbArc
 50
338.3780134372894
 51
340.8012628100578
1001
QCAD
1000
reversed:1
  0
ARC
  5
17F89
330
194D2
100
AcDbEntity
  8
CUT
100
AcDbCircle
 10
594.9974269746626
 20
-4576.480883307622
 30
0.0
 40
273.5406307610349
100
AcDbArc
 50
335.6531610726403
 51
338.3780134372919
1001
QCAD
1000
reversed:1
  0
ARC
  5
17F8A
330
194D2
100
AcDbEntity
  8
CUT
100
AcDbCircle
 10
618.9945279813492
 20
-4587.339615448836
 30
0.0
 40
247.2010612801245
100
AcDbArc
 50
332.7867854926346
 51
335.6531610726403
1001
QCAD
1000
reversed:1
  0
ARC
  5
17F8B
330
194D2
100
AcDbEntity
  8
CUT
100
AcDbCircle
 10
628.0025813585676
 20
-4591.971752686066
 30
0.0
 40
237.0718105165507
100
AcDbArc
 50
329.6700625609722
 51
332.7867854926336
1001
QCAD
1000
reversed:1
  0
ARC
  5
17F8C
330
194D2
100
AcDbEntity
  8
CUT
100
AcDbCircle
 10
640.9863574350213
 20
-4599.567962287641
 30
0.0
 40
222.0291763883622
100
AcDbArc
 50
326.4494627766062
 51
329.670062560972
1001
QCAD
1000
reversed:1
  0
ARC
  5
17F8D
330
194D2
100
AcDbEntity
  8
CUT
100
AcDbCircle
 10
1360.385838436347
 20
-6264.393574478034
 30
0.0
 40
1602.183958252173
100
AcDbArc
 50
111.9838317244185
 51
112.873647928249
  0
ARC
  5
17F8E
330
194D2
100
AcDbEntity
  8
CUT
100
AcDbCircle
 10
1107.572470566057
 20
-5665.13175390819
 30
0.0
 40
951.7769098843047
100
AcDbArc
 50
112.8736479282511
 51
114.0281425124694
  0
ARC
  5
17F8F
330
194D2
100
AcDbEntity
  8
CUT
100
AcDbCircle
 10
1046.634179171605
 20
-5528.442838350851
 30
0.0
 40
802.1195178372819
100
AcDbArc
 50
114.0281425124663
 51
115.7201377906826
  0
ARC
  5
17F90
330
194D2
100
AcDbEntity
  8
CUT
100
AcDbCircle
 10
956.1083148804923
 20
-5340.513048695162
 30
0.0
 40
593.5229264325197
100
AcDbArc
 50
115.720137790683
 51
118.6527732490315
  0
ARC
  5
17F91
330
194D2
100
AcDbEntity
  8
CUT
100
AcDbCircle
 10
1258.943574712075
 20
-4734.843819290825
 30
0.0
 40
593.5229264325197
100
AcDbArc
 50
188.2170267509686
 51
189.6501705796595
1001
QCAD
1000
reversed:1
  0
ARC
  5
17F92
330
194D2
100
AcDbEntity
  8
CUT
100
AcDbCircle
 10
945.2981547851746
 20
-5362.133322828071
 30
0.0
 40
593.5229264325197
100
AcDbArc
 50
117.2196294203408
 51
118.6527732490317
  0
ARC
  5
17F93
330
194D2
100
AcDbEntity
  8
CUT
100
AcDbCircle
 10
400.6456345946499
 20
-5067.969233528518
 30
0.0
 40
215.931244491812
100
AcDbArc
 50
45.38653356751597
 51
48.98152566348239
  0
ARC
  5
17F94
330
194D2
100
AcDbEntity
  8
CUT
100
AcDbCircle
 10
400.6456345946499
 20
-4760.543171650226
 30
0.0
 40
215.931244491812
100
AcDbArc
 50
309.8403084210165
 51
314.613466432484
1001
QCAD
1000
reversed:1
  0
ARC
  5
17F95
330
194D2
100
AcDbEntity
  8
CUT
100
AcDbCircle
 10
400.6456345946509
 20
-5092.141445154035
 30
0.0
 40
215.931244491812
100
AcDbArc
 50
45.38653356751597
 51
50.15969157898351
  0
ARC
  5
17F96
330
194D2
100
AcDbEntity
  8
CUT
100
AcDbCircle
 10
411.3362176767002
 20
-5055.679130222348
 30
0.0
 40
199.6421313818066
100
AcDbArc
 50
48.98152566348239
 51
54.24988967519997
  0
ARC
  5
17F97
330
194D2
100
AcDbEntity
  8
CUT
100
AcDbCircle
 10
424.5205162316706
 20
-5037.365058593083
 30
0.0
 40
177.0759853212033
100
AcDbArc
 50
54.24988967519988
 51
59.84413561843867
  0
ARC
  5
17F98
330
194D2
100
AcDbEntity
  8
CUT
100
AcDbCircle
 10
518.0651683496199
 20
-4509.902715766526
 30
0.0
 40
169.0727613427852
100
AcDbArc
 50
182.9534034783466
 51
188.7175948831561
1001
QCAD
1000
reversed:1
  0
ARC
  5
17F99
330
194D2
100
AcDbEntity
  8
CUT
100
AcDbCircle
 10
524.9957656670749
 20
-4509.545150189613
 30
0.0
 40
176.0125763488586
100
AcDbArc
 50
177.3040839651769
 51
182.9534034783463
1001
QCAD
1000
reversed:1
  0
ARC
  5
17F9A
330
194D2
100
AcDbEntity
  8
CUT
100
AcDbCircle
 10
528.2490807175199
 20
-4509.69834022597
 30
0.0
 40
179.2694960599794
100
AcDbArc
 50
171.8499970695976
 51
177.3040839651771
1001
QCAD
1000
reversed:1
  0
ARC
  5
17F9B
330
194D2
100
AcDbEntity
  8
CUT
100
AcDbCircle
 10
533.0427361379378
 20
-4510.384847189902
 30
0.0
 40
184.1120598542139
100
AcDbArc
 50
166.4681690355221
 51
171.8499970695978
1001
QCAD
1000
reversed:1
  0
ARC
  5
17F9C
330
194D2
100
AcDbEntity
  8
CUT
100
AcDbCircle
 10
534.4597153808004
 20
-4510.725866502478
 30
0.0
 40
185.5694974502214
100
AcDbArc
 50
161.1663963988647
 51
166.4681690355217
1001
QCAD
1000
reversed:1
  0
ARC
  5
17F9D
330
194D2
100
AcDbEntity
  8
CUT
100
AcDbCircle
 10
534.8844536132543
 20
-4510.870737222105
 30
0.0
 40
186.0182625240764
100
AcDbArc
 50
155.8710273919993
 51
161.1663963988652
1001
QCAD
1000
reversed:1
  0
ARC
  5
17F9E
330
194D2
100
AcDbEntity
  8
CUT
100
AcDbCircle
 10
533.9544559921327
 20
-4510.454164685696
 30
0.0
 40
184.9992295249137
100
AcDbArc
 50
150.5204220831694
 51
155.8710273919984
1001
QCAD
1000
reversed:1
  0
ARC
  5
17F9F
330
194D2
100
AcDbEntity
  8
CUT
100
AcDbCircle
 10
530.3617111823135
 20
-4508.4231776133
 30
0.0
 40
180.8721574687558
100
AcDbArc
 50
145.1090721327722
 51
150.5204220831701
1001
QCAD
1000
reversed:1
  0
ARC
  5
17FA0
330
194D2
100
AcDbEntity
  8
CUT
100
AcDbCircle
 10
585.6621116393021
 20
-3780.721179599492
 30
0.0
 40
656.6224367923768
100
AcDbArc
 50
251.9309976213085
 51
255.8830450667232
  0
ARC
  5
17FA1
330
194D2
100
AcDbEntity
  8
CUT
100
AcDbCircle
 10
576.7138352116141
 20
-3816.301196356042
 30
0.0
 40
619.9344381630879
100
AcDbArc
 50
255.8830450667229
 51
259.9504014332258
  0
ARC
  5
17FA2
330
194D2
100
AcDbEntity
  8
CUT
100
AcDbCircle
 10
572.5540243533047
 20
-3839.773818737398
 30
0.0
 40
596.0960651516045
100
AcDbArc
 50
259.9504014332255
 51
264.3388934121964
  0
ARC
  5
17FA3
330
194D2
100
AcDbEntity
  8
CUT
100
AcDbCircle
 10
567.4955894182156
 20
-3890.803280292066
 30
0.0
 40
544.8165008930063
100
AcDbArc
 50
264.3388934121963
 51
268.9293756205696
  0
ARC
  5
17FA4
330
194D2
100
AcDbEntity
  8
CUT
100
AcDbCircle
 10
566.9987425226354
 20
-3917.389557803988
 30
0.0
 40
518.2255812252208
100
AcDbArc
 50
268.9293756205709
 51
273.9896894961647
  0
ARC
  5
17FA5
330
194D2
100
AcDbEntity
  8
CUT
100
AcDbCircle
 10
570.382290237375
 20
-3965.901997016286
 30
0.0
 40
469.5952907318991
100
AcDbArc
 50
273.9896894961624
 51
279.3057466628399
  0
ARC
  5
17FA6
330
194D2
100
AcDbEntity
  8
CUT
100
AcDbCircle
 10
572.9492033344585
 20
-3981.567348776553
 30
0.0
 40
453.7210257529824
100
AcDbArc
 50
279.3057466628418
 51
282.15620524275
  0
ARC
  5
17FA7
330
194D2
100
AcDbEntity
  8
CUT
100
AcDbCircle
 10
576.9297069369998
 20
-4000.046278537278
 30
0.0
 40
434.8182414598776
100
AcDbArc
 50
282.1562052427508
 51
285.067976516519
  0
ARC
  5
17FA8
330
194D2
100
AcDbEntity
  8
CUT
100
AcDbCircle
 10
579.0685988076965
 20
-4007.991016668285
 30
0.0
 40
426.5906219739737
100
AcDbArc
 50
285.0679765165175
 51
288.0921011951001
  0
ARC
  5
17FA9
330
194D2
100
AcDbEntity
  8
CUT
100
AcDbCircle
 10
583.2682736162601
 20
-4020.845938865312
 30
0.0
 40
413.0670760932042
100
AcDbArc
 50
288.0921011951003
 51
291.1653428064739
  0
ARC
  5
180E8
330
194D2
100
AcDbEntity
  8
CUT
100
AcDbCircle
 10
817.3080431395799
 20
-4912.06490993131
 30
0.0
 40
379.8039314398045
100
AcDbArc
 50
105.0758076731742
 51
106.50924243167
  0
ARC
  5
180E9
330
194D2
100
AcDbEntity
  8
CUT
100
AcDbCircle
 10
817.3080431395799
 20
-4912.06490993131
 30
0.0
 40
379.8039314398045
100
AcDbArc
 50
106.50924243167
 51
113.5342424816188
  0
ARC
  5
180EA
330
194D2
100
AcDbEntity
  8
CUT
100
AcDbCircle
 10
754.8693982838672
 20
-4768.700226935976
 30
0.0
 40
223.4325251604882
100
AcDbArc
 50
113.5342424816165
 51
115.6856350891617
  0
ARC
  5
180EB
330
194D2
100
AcDbEntity
  8
CUT
100
AcDbCircle
 10
739.108134389366
 20
-4735.929716252089
 30
0.0
 40
187.0687545909392
100
AcDbArc
 50
115.6856350891619
 51
118.8719806930381
  0
ARC
  5
180EC
330
194D2
100
AcDbEntity
  8
CUT
100
AcDbCircle
 10
715.2508687079064
 20
-4692.662357659454
 30
0.0
 40
137.6599148415642
100
AcDbArc
 50
118.8719806930374
 51
122.5865618692583
  0
ARC
  5
180ED
330
194D2
100
AcDbEntity
  8
CUT
100
AcDbCircle
 10
707.0158545789693
 20
-4679.778968662553
 30
0.0
 40
122.3694874522029
100
AcDbArc
 50
122.5865618692581
 51
127.3171209404605
  0
ARC
  5
180EE
330
194D2
100
AcDbEntity
  8
CUT
100
AcDbCircle
 10
694.6601857373442
 20
-4663.569885078916
 30
0.0
 40
101.9881984069737
100
AcDbArc
 50
127.31712094046
 51
132.4991369605278
  0
ARC
  5
180EF
330
194D2
100
AcDbEntity
  8
CUT
100
AcDbCircle
 10
689.5759109118266
 20
-4648.796066241584
 30
0.0
 40
87.88208257555341
100
AcDbArc
 50
136.5657804578314
 51
141.7641144935679
  0
ARC
  5
180F0
330
194D2
100
AcDbEntity
  8
CUT
100
AcDbCircle
 10
687.3870979501985
 20
-4647.071419367552
 30
0.0
 40
85.0954521692918
100
AcDbArc
 50
141.7641144935677
 51
147.0469374926325
  0
ARC
  5
180F1
330
194D2
100
AcDbEntity
  8
CUT
100
AcDbCircle
 10
684.5707981557185
 20
-4645.2457713001
 30
0.0
 40
81.73918409320261
100
AcDbArc
 50
147.0469374926323
 51
152.74180529383
  0
ARC
  5
180F2
330
194D2
100
AcDbEntity
  8
CUT
100
AcDbCircle
 10
677.0536619710514
 20
-4641.372831334569
 30
0.0
 40
73.28300289862945
100
AcDbArc
 50
152.74180529383
 51
158.7565585872282
  0
ARC
  5
180F3
330
194D2
100
AcDbEntity
  8
CUT
100
AcDbCircle
 10
672.577215185411
 20
-4639.632626263912
 30
0.0
 40
68.48020272450083
100
AcDbArc
 50
158.7565585872283
 51
165.5960436814557
  0
ARC
  5
180F4
330
194D2
100
AcDbEntity
  8
CUT
100
AcDbCircle
 10
664.2199846821995
 20
-4637.486239050038
 30
0.0
 40
59.85174517081931
100
AcDbArc
 50
165.5960436814558
 51
172.9125668189692
  0
ARC
  5
180F5
330
194D2
100
AcDbEntity
  8
CUT
100
AcDbCircle
 10
660.6181337149167
 20
-4637.038407033124
 30
0.0
 40
56.22216063455488
100
AcDbArc
 50
172.9125668189687
 51
181.1360939245459
  0
ARC
  5
180F6
330
194D2
100
AcDbEntity
  8
CUT
100
AcDbCircle
 10
656.1868311664714
 20
-4637.126284985785
 30
0.0
 40
51.78998681007304
100
AcDbArc
 50
181.1360939245462
 51
189.7049128734089
  0
ARC
  5
180F7
330
194D2
100
AcDbEntity
  8
CUT
100
AcDbCircle
 10
643.7086034395245
 20
-4641.815705544024
 30
0.0
 40
38.78170345644331
100
AcDbArc
 50
185.9810265131125
 51
197.506723918004
  0
ARC
  5
180F8
330
194D2
100
AcDbEntity
  8
CUT
100
AcDbCircle
 10
647.2403667706815
 20
-4640.701689154215
 30
0.0
 40
42.48499722605773
100
AcDbArc
 50
197.5067239180032
 51
208.5170147266328
  0
ARC
  5
180F9
330
194D2
100
AcDbEntity
  8
CUT
100
AcDbCircle
 10
649.3116686124293
 20
-4639.576267453065
 30
0.0
 40
44.84229765770685
100
AcDbArc
 50
208.5170147266352
 51
218.5425167946601
  0
ARC
  5
180FA
330
194D2
100
AcDbEntity
  8
CUT
100
AcDbCircle
 10
651.7809544583745
 20
-4637.609115318193
 30
0.0
 40
47.9993627680136
100
AcDbArc
 50
218.5425167946592
 51
228.2318920902416
  0
ARC
  5
180FB
330
194D2
100
AcDbEntity
  8
CUT
100
AcDbCircle
 10
652.1184536107289
 20
-4637.231219940639
 30
0.0
 40
48.50602892458723
100
AcDbArc
 50
228.2318920902405
 51
237.7407750605043
  0
ARC
  5
180FC
330
194D2
100
AcDbEntity
  8
CUT
100
AcDbCircle
 10
651.233627594635
 20
-4638.63308411344
 30
0.0
 40
46.8482773636639
100
AcDbArc
 50
237.740775060503
 51
247.4168280213971
  0
ARC
  5
180FD
330
194D2
100
AcDbEntity
  8
CUT
100
AcDbCircle
 10
650.4643199352332
 20
-4640.482758104405
 30
0.0
 40
44.84499801527898
100
AcDbArc
 50
247.4168280213982
 51
257.8610228086787
  0
ARC
  5
180FE
330
194D2
100
AcDbEntity
  8
CUT
100
AcDbCircle
 10
649.5846786177359
 20
-4644.572342683776
 30
0.0
 40
40.66188065148466
100
AcDbArc
 50
257.8610228086791
 51
268.830863480751
  0
ARC
  5
180FF
330
194D2
100
AcDbEntity
  8
CUT
100
AcDbCircle
 10
649.5846786177359
 20
-4644.572342683776
 30
0.0
 40
40.66188065148466
100
AcDbArc
 50
268.8308634807516
 51
277.0994520166154
  0
ARC
  5
17FAA
330
194D2
100
AcDbEntity
  8
CUT
100
AcDbCircle
 10
312.8684405527347
 20
-4705.193422560889
 30
0.0
 40
241.3947492307929
100
AcDbArc
 50
9.761768209211006
 51
11.151872298515
  0
ARC
  5
17FAB
330
194D2
100
AcDbEntity
  8
CUT
100
AcDbCircle
 10
457.3931650125742
 20
-4676.702894007032
 30
0.0
 40
94.08858439893457
100
AcDbArc
 50
11.15187229851342
 51
13.37856067582114
  0
ARC
  5
17FAC
330
194D2
100
AcDbEntity
  8
CUT
100
AcDbCircle
 10
640.8872977578128
 20
-4803.203244293303
 30
0.0
 40
44.51505419032917
100
AcDbArc
 50
194.0605302734283
 51
196.7670910470327
1001
QCAD
1000
reversed:1
  0
ARC
  5
17FAD
330
194D2
100
AcDbEntity
  8
CUT
100
AcDbCircle
 10
665.5400219988464
 20
-4797.028959022953
 30
0.0
 40
69.92919614130038
100
AcDbArc
 50
191.9011591407846
 51
194.0605302734277
1001
QCAD
1000
reversed:1
  0
ARC
  5
17FAE
330
194D2
100
AcDbEntity
  8
CUT
100
AcDbCircle
 10
683.6173529487063
 20
-4793.219085927663
 30
0.0
 40
88.40363868425626
100
AcDbArc
 50
190.714652038311
 51
191.9011591407828
1001
QCAD
1000
reversed:1
  0
ARC
  5
17FAF
330
194D2
100
AcDbEntity
  8
CUT
100
AcDbCircle
 10
815.9766027457586
 20
-4768.174488146549
 30
0.0
 40
223.1114813841386
100
AcDbArc
 50
189.9677910630575
 51
190.7146520383015
1001
QCAD
1000
reversed:1
  0
ARC
  5
17FB0
330
194D2
100
AcDbEntity
  8
CUT
100
AcDbCircle
 10
-2191.354519089733
 20
-5296.705138153775
 30
0.0
 40
2830.310389952571
100
AcDbArc
 50
9.967791063055014
 51
10.04984874737106
  0
ARC
  5
17FB1
330
194D2
100
AcDbEntity
  8
CUT
100
AcDbCircle
 10
515.9021282104587
 20
-4816.913762340018
 30
0.0
 40
80.86711564114609
100
AcDbArc
 50
10.04984874746169
 51
10.53530665004591
  0
ARC
  5
17FB2
330
194D2
100
AcDbEntity
  8
CUT
100
AcDbCircle
 10
479.0463839771141
 20
-4823.768064750011
 30
0.0
 40
118.3548115495549
100
AcDbArc
 50
10.53530664996021
 51
11.84485821038708
  0
ARC
  5
17FB3
330
194D2
100
AcDbEntity
  8
CUT
100
AcDbCircle
 10
529.4220414074833
 20
-4813.202873258235
 30
0.0
 40
66.8831675812519
100
AcDbArc
 50
11.84485821038458
 51
13.58692347152745
  0
ARC
  5
17FB4
330
194D2
100
AcDbEntity
  8
CUT
100
AcDbCircle
 10
540.8586176395663
 20
-4810.438837048143
 30
0.0
 40
55.11731988195823
100
AcDbArc
 50
13.5869234715276
 51
16.26230816228587
  0
ARC
  5
17FB5
330
194D2
100
AcDbEntity
  8
CUT
100
AcDbCircle
 10
556.3405145354662
 20
-4805.922667054478
 30
0.0
 40
38.99017125280069
100
AcDbArc
 50
16.26230816228561
 51
19.44334747442781
  0
ARC
  5
17FB6
330
194D2
100
AcDbEntity
  8
CUT
100
AcDbCircle
 10
561.1990221384484
 20
-4804.207583765141
 30
0.0
 40
33.83783131665576
100
AcDbArc
 50
19.44334747443112
 51
23.69633451140781
  0
ARC
  5
17FB7
330
194D2
100
AcDbEntity
  8
CUT
100
AcDbCircle
 10
567.8463833350968
 20
-4801.290103403793
 30
0.0
 40
26.5784165649312
100
AcDbArc
 50
23.69633451141447
 51
28.49541483553664
  0
ARC
  5
17FB8
330
194D2
100
AcDbEntity
  8
CUT
100
AcDbCircle
 10
569.9263886165251
 20
-4800.160968197621
 30
0.0
 40
24.2116955664632
100
AcDbArc
 50
28.4954148355313
 51
34.27853247585067
  0
ARC
  5
17FB9
330
194D2
100
AcDbEntity
  8
CUT
100
AcDbCircle
 10
572.3090520043846
 20
-4798.536933252984
 30
0.0
 40
21.32819520730879
100
AcDbArc
 50
34.27853247585053
 51
40.44054431177022
  0
ARC
  5
17FBA
330
194D2
100
AcDbEntity
  8
CUT
100
AcDbCircle
 10
572.7603548655665
 20
-4798.152293409708
 30
0.0
 40
20.73521790458428
100
AcDbArc
 50
40.44054431177145
 51
46.96406502705705
  0
ARC
  5
17FBB
330
194D2
100
AcDbEntity
  8
CUT
100
AcDbCircle
 10
572.567701383772
 20
-4798.358629370521
 30
0.0
 40
21.01751188746707
100
AcDbArc
 50
46.96406502705705
 51
53.44358066009898
  0
ARC
  5
17FBC
330
194D2
100
AcDbEntity
  8
CUT
100
AcDbCircle
 10
531.6373887573728
 20
-4762.777284712791
 30
0.0
 40
5.776793150488523
100
AcDbArc
 50
262.6223861158056
 51
272.6324342266145
1001
QCAD
1000
reversed:1
  0
ARC
  5
17FBD
330
194D2
100
AcDbEntity
  8
CUT
100
AcDbCircle
 10
531.7342179638947
 20
-4762.029453578898
 30
0.0
 40
6.530866953278822
100
AcDbArc
 50
253.209339559318
 51
262.6223861158085
1001
QCAD
1000
reversed:1
  0
ARC
  5
17FBE
330
194D2
100
AcDbEntity
  8
CUT
100
AcDbCircle
 10
532.00914223557
 20
-4761.118323724111
 30
0.0
 40
7.482571196960373
100
AcDbArc
 50
246.0703422237718
 51
253.2093395593151
1001
QCAD
1000
reversed:1
  0
ARC
  5
17FBF
330
194D2
100
AcDbEntity
  8
CUT
100
AcDbCircle
 10
533.5910972705655
 20
-4757.553422265211
 30
0.0
 40
11.38271275136739
100
AcDbArc
 50
240.2834765698459
 51
246.0703422237656
1001
QCAD
1000
reversed:1
  0
ARC
  5
17FC0
330
194D2
100
AcDbEntity
  8
CUT
100
AcDbCircle
 10
537.0654201613338
 20
-4751.466365376749
 30
0.0
 40
18.39150587947942
100
AcDbArc
 50
233.797291741319
 51
240.2834765698502
1001
QCAD
1000
reversed:1
  0
ARC
  5
17FC1
330
194D2
100
AcDbEntity
  8
CUT
100
AcDbCircle
 10
501.1167723110329
 20
-4800.57909284117
 30
0.0
 40
42.47199123709408
100
AcDbArc
 50
53.79729174131729
 51
56.60476421991002
  0
ARC
  5
17FC2
330
194D2
100
AcDbEntity
  8
CUT
100
AcDbCircle
 10
532.1268677627743
 20
-4624.252177908565
 30
0.0
 40
72.70075043259314
100
AcDbArc
 50
203.5971246424032
 51
209.184385698034
1001
QCAD
1000
reversed:1
  0
ARC
  5
17FC3
330
194D2
100
AcDbEntity
  8
CUT
100
AcDbCircle
 10
531.7273773434397
 20
-4624.426687106929
 30
0.0
 40
72.26480771221217
100
AcDbArc
 50
197.9930227389687
 51
203.5971246424046
1001
QCAD
1000
reversed:1
  0
ARC
  5
17FC4
330
194D2
100
AcDbEntity
  8
CUT
100
AcDbCircle
 10
532.6920341391265
 20
-4624.113380982859
 30
0.0
 40
73.27906776803745
100
AcDbArc
 50
192.5395512449103
 51
197.9930227389667
1001
QCAD
1000
reversed:1
  0
ARC
  5
17FC5
330
194D2
100
AcDbEntity
  8
CUT
100
AcDbCircle
 10
536.9496981714815
 20
-4623.166395605367
 30
0.0
 40
77.64077435119947
100
AcDbArc
 50
187.2415888829454
 51
192.5395512449124
1001
QCAD
1000
reversed:1
  0
ARC
  5
17FC6
330
194D2
100
AcDbEntity
  8
CUT
100
AcDbCircle
 10
540.2651564157861
 20
-4622.745110626493
 30
0.0
 40
80.98289110606487
100
AcDbArc
 50
182.3621344142911
 51
187.2415888829447
1001
QCAD
1000
reversed:1
  0
ARC
  5
17FC7
330
194D2
100
AcDbEntity
  8
CUT
100
AcDbCircle
 10
548.969946696434
 20
-4622.386034578549
 30
0.0
 40
89.6950842535031
100
AcDbArc
 50
177.7258418733654
 51
182.3621344142874
1001
QCAD
1000
reversed:1
  0
ARC
  5
17FC8
330
194D2
100
AcDbEntity
  8
CUT
100
AcDbCircle
 10
554.3290907940277
 20
-4622.598859072794
 30
0.0
 40
95.05845257239784
100
AcDbArc
 50
173.5899442180829
 51
177.725841873373
1001
QCAD
1000
reversed:1
  0
ARC
  5
17FC9
330
194D2
100
AcDbEntity
  8
CUT
100
AcDbCircle
 10
566.5360955215992
 20
-4623.970263444704
 30
0.0
 40
107.3422514298464
100
AcDbArc
 50
169.697978481324
 51
173.5899442180786
1001
QCAD
1000
reversed:1
  0
ARC
  5
17FCA
330
194D2
100
AcDbEntity
  8
CUT
100
AcDbCircle
 10
576.5427086564054
 20
-4625.789137972894
 30
0.0
 40
117.5128271745603
100
AcDbArc
 50
163.1956663578493
 51
169.697978481324
1001
QCAD
1000
reversed:1
  0
ARC
  5
17FCB
330
194D2
100
AcDbEntity
  8
CUT
100
AcDbCircle
 10
605.6923414308792
 20
-4634.592336782211
 30
0.0
 40
147.9627434332804
100
AcDbArc
 50
157.4015628365762
 51
163.1956663578495
1001
QCAD
1000
reversed:1
  0
ARC
  5
17FCC
330
194D2
100
AcDbEntity
  8
CUT
100
AcDbCircle
 10
620.4040933926228
 20
-4640.715777253428
 30
0.0
 40
163.8979926935963
100
AcDbArc
 50
152.6296996561512
 51
157.4015628365757
1001
QCAD
1000
reversed:1
  0
ARC
  5
17FCD
330
194D2
100
AcDbEntity
  8
CUT
100
AcDbCircle
 10
642.4172848094136
 20
-4652.111859173277
 30
0.0
 40
188.6861204864766
100
AcDbArc
 50
148.1824826354504
 51
152.6296996561521
1001
QCAD
1000
reversed:1
  0
ARC
  5
17FCE
330
194D2
100
AcDbEntity
  8
CUT
100
AcDbCircle
 10
654.3911078037476
 20
-4699.643707478919
 30
0.0
 40
248.0585428831813
100
AcDbArc
 50
140.5112275301551
 51
142.8484790675524
  0
ARC
  5
17FCF
330
194D2
100
AcDbEntity
  8
CUT
100
AcDbCircle
 10
587.1949764452272
 20
-4648.728623348907
 30
0.0
 40
163.7515689040511
100
AcDbArc
 50
142.8484790675525
 51
145.7252502544092
  0
ARC
  5
17FD0
330
194D2
100
AcDbEntity
  8
CUT
100
AcDbCircle
 10
566.4970281602709
 20
-4634.622802475687
 30
0.0
 40
138.7040291902568
100
AcDbArc
 50
145.7252502544107
 51
149.8085711119127
  0
ARC
  5
17FD1
330
194D2
100
AcDbEntity
  8
CUT
100
AcDbCircle
 10
534.3171263943965
 20
-4615.900096436884
 30
0.0
 40
101.4738559556779
100
AcDbArc
 50
149.8085711119111
 51
154.5829261030068
  0
ARC
  5
17FD2
330
194D2
100
AcDbEntity
  8
CUT
100
AcDbCircle
 10
522.2186400862765
 20
-4610.150893965019
 30
0.0
 40
88.07883075934933
100
AcDbArc
 50
154.5829261030082
 51
160.90996531697
  0
ARC
  5
17FD3
330
194D2
100
AcDbEntity
  8
CUT
100
AcDbCircle
 10
504.2623170056967
 20
-4603.936456984526
 30
0.0
 40
69.07754749850955
100
AcDbArc
 50
160.9099653169701
 51
168.0553996497353
  0
ARC
  5
17FD4
330
194D2
100
AcDbEntity
  8
CUT
100
AcDbCircle
 10
498.3493512087261
 20
-4602.685591671832
 30
0.0
 40
63.03372184362505
100
AcDbArc
 50
168.0553996497351
 51
176.5813217829396
  0
ARC
  5
17FD5
330
194D2
100
AcDbEntity
  8
CUT
100
AcDbCircle
 10
492.8049036295465
 20
-4602.354376905372
 30
0.0
 40
57.47939000443889
100
AcDbArc
 50
176.5813217829396
 51
185.5104811691477
  0
ARC
  5
17FD6
330
194D2
100
AcDbEntity
  8
CUT
100
AcDbCircle
 10
507.6476878361224
 20
-4602.264460721513
 30
0.0
 40
72.27456069423265
100
AcDbArc
 50
184.4514474341639
 51
190.8086958737723
  0
ARC
  5
17FD7
330
194D2
100
AcDbEntity
  8
CUT
100
AcDbCircle
 10
509.7950422423542
 20
-4601.854493183893
 30
0.0
 40
74.46069983158553
100
AcDbArc
 50
190.8086958737721
 51
197.0718313929237
  0
ARC
  5
17FD8
330
194D2
100
AcDbEntity
  8
CUT
100
AcDbCircle
 10
507.9544824708951
 20
-4602.419732930062
 30
0.0
 40
72.53530214721881
100
AcDbArc
 50
197.0718313929234
 51
203.6242714378878
  0
ARC
  5
17FD9
330
194D2
100
AcDbEntity
  8
CUT
100
AcDbCircle
 10
501.1660118895437
 20
-4605.388968037316
 30
0.0
 40
65.12586964830206
100
AcDbArc
 50
203.6242714378869
 51
210.5398411693139
  0
ARC
  5
17FDA
330
194D2
100
AcDbEntity
  8
CUT
100
AcDbCircle
 10
496.8360539980076
 20
-4607.943565391215
 30
0.0
 40
60.09849429101826
100
AcDbArc
 50
210.5398411693146
 51
218.5675320359739
  0
ARC
  5
17FDB
330
194D2
100
AcDbEntity
  8
CUT
100
AcDbCircle
 10
489.4760688996735
 20
-4613.812138839827
 30
0.0
 40
50.68523051220762
100
AcDbArc
 50
218.5675320359743
 51
227.3102777714065
  0
ARC
  5
17FDC
330
194D2
100
AcDbEntity
  8
CUT
100
AcDbCircle
 10
486.7300700611161
 20
-4616.789020544233
 30
0.0
 40
46.63525096863179
100
AcDbArc
 50
227.3102777714097
 51
237.4823058299532
  0
ARC
  5
17FDD
330
194D2
100
AcDbEntity
  8
CUT
100
AcDbCircle
 10
484.3234104263568
 20
-4620.564146231212
 30
0.0
 40
42.15824476469768
100
AcDbArc
 50
237.4823058299535
 51
248.1823169011198
  0
ARC
  5
17FDE
330
194D2
100
AcDbEntity
  8
CUT
100
AcDbCircle
 10
654.7162729011552
 20
-5005.259696810945
 30
0.0
 40
104.1866447990476
100
AcDbArc
 50
110.3686824207076
 51
113.7303579611439
1001
QCAD
1000
reversed:1
  0
ARC
  5
17FDF
330
194D2
100
AcDbEntity
  8
CUT
100
AcDbCircle
 10
646.3919070848704
 20
-4982.838648297122
 30
0.0
 40
80.27015503356178
100
AcDbArc
 50
106.5386421719991
 51
110.3686824207062
1001
QCAD
1000
reversed:1
  0
ARC
  5
17FE0
330
194D2
100
AcDbEntity
  8
CUT
100
AcDbCircle
 10
643.3601686217536
 20
-4972.628961388427
 30
0.0
 40
69.61984307182524
100
AcDbArc
 50
101.4637771936853
 51
106.5386421719993
1001
QCAD
1000
reversed:1
  0
ARC
  5
17FE1
330
194D2
100
AcDbEntity
  8
CUT
100
AcDbCircle
 10
639.7886461127063
 20
-4955.017383286853
 30
0.0
 40
51.64977194618908
100
AcDbArc
 50
95.57118683115664
 51
101.4637771936844
1001
QCAD
1000
reversed:1
  0
ARC
  5
17FE2
330
194D2
100
AcDbEntity
  8
CUT
100
AcDbCircle
 10
639.0611199968591
 20
-4947.558878822903
 30
0.0
 40
44.155868885167
100
AcDbArc
 50
87.60202535785498
 51
95.57118683115617
1001
QCAD
1000
reversed:1
  0
ARC
  5
17FE3
330
194D2
100
AcDbEntity
  8
CUT
100
AcDbCircle
 10
639.5147343660497
 20
-4936.726815992122
 30
0.0
 40
33.31431220884437
100
AcDbArc
 50
78.42492187120212
 51
87.60202535785423
1001
QCAD
1000
reversed:1
  0
ARC
  5
17FE4
330
194D2
100
AcDbEntity
  8
CUT
100
AcDbCircle
 10
640.2102957234442
 20
-4933.330806577767
 30
0.0
 40
29.8478030794329
100
AcDbArc
 50
67.1815625893515
 51
78.42492187120453
1001
QCAD
1000
reversed:1
  0
ARC
  5
17FE5
330
194D2
100
AcDbEntity
  8
CUT
100
AcDbCircle
 10
641.13737896317
 20
-4931.127347814916
 30
0.0
 40
27.45725631081116
100
AcDbArc
 50
55.4573245699233
 51
67.1815625893517
1001
QCAD
1000
reversed:1
  0
ARC
  5
17FE6
330
194D2
100
AcDbEntity
  8
CUT
100
AcDbCircle
 10
1038.240973462159
 20
-4878.958870126087
 30
0.0
 40
132.3866086811851
100
AcDbArc
 50
138.5407161852727
 51
140.1547717513775
1001
QCAD
1000
reversed:1
  0
ARC
  5
17FE7
330
194D2
100
AcDbEntity
  8
CUT
100
AcDbCircle
 10
1160.139874586585
 20
-4986.651574576881
 30
0.0
 40
295.0428741223561
100
AcDbArc
 50
137.4595560392905
 51
138.5407161852743
1001
QCAD
1000
reversed:1
  0
ARC
  5
17FE8
330
194D2
100
AcDbEntity
  8
CUT
100
AcDbCircle
 10
1634.998224842729
 20
-5422.396125740808
 30
0.0
 40
939.5300863128242
100
AcDbArc
 50
137.1760795650524
 51
137.4595560392877
1001
QCAD
1000
reversed:1
  0
ARC
  5
17FE9
330
194D2
100
AcDbEntity
  8
CUT
100
AcDbCircle
 10
691.5396089819468
 20
-4548.01194620045
 30
0.0
 40
346.8065155423881
100
AcDbArc
 50
317.1760795650532
 51
317.9440478309933
  0
ARC
  5
17FEA
330
194D2
100
AcDbEntity
  8
CUT
100
AcDbCircle
 10
998.4976287320533
 20
-4930.863834845959
 30
0.0
 40
4.957110509265365
100
AcDbArc
 50
291.1392326766943
 51
304.713107989674
1001
QCAD
1000
reversed:1
  0
ARC
  5
17FEB
330
194D2
100
AcDbEntity
  8
CUT
100
AcDbCircle
 10
997.897583154253
 20
-4929.311945154936
 30
0.0
 40
6.620966364965787
100
AcDbArc
 50
279.4010428240788
 51
291.1392326766948
1001
QCAD
1000
reversed:1
  0
ARC
  5
17FEC
330
194D2
100
AcDbEntity
  8
CUT
100
AcDbCircle
 10
997.5959181622061
 20
-4927.489940459773
 30
0.0
 40
8.467775200935256
100
AcDbArc
 50
272.4033641265559
 51
279.4010428240779
1001
QCAD
1000
reversed:1
  0
ARC
  5
17FED
330
194D2
100
AcDbEntity
  8
CUT
100
AcDbCircle
 10
997.2067944638516
 20
-4918.218741142919
 30
0.0
 40
17.74713692604792
100
AcDbArc
 50
267.5712935823921
 51
272.4033641265561
1001
QCAD
1000
reversed:1
  0
ARC
  5
17FEE
330
194D2
100
AcDbEntity
  8
CUT
100
AcDbCircle
 10
997.9607016167547
 20
-4900.443919554775
 30
0.0
 40
35.53793956352158
100
AcDbArc
 50
265.531124926632
 51
267.5712935823921
1001
QCAD
1000
reversed:1
  0
ARC
  5
17FEF
330
194D2
100
AcDbEntity
  8
CUT
100
AcDbCircle
 10
990.5954016901603
 20
-4994.683410301626
 30
0.0
 40
58.98893100371387
100
AcDbArc
 50
85.53112492663281
 51
86.76018517499818
  0
ARC
  5
17FF0
330
194D2
100
AcDbEntity
  8
CUT
100
AcDbCircle
 10
992.7006667269363
 20
-4957.491712248255
 30
0.0
 40
21.73769552127289
100
AcDbArc
 50
86.76018517499813
 51
90.82278843496506
  0
ARC
  5
17FF1
330
194D2
100
AcDbEntity
  8
CUT
100
AcDbCircle
 10
992.5168003656368
 20
-4944.688855670654
 30
0.0
 40
8.933518726748725
100
AcDbArc
 50
90.82278843496462
 51
97.16192978298028
  0
ARC
  5
17FF2
330
194D2
100
AcDbEntity
  8
CUT
100
AcDbCircle
 10
862.7475734819909
 20
-4889.011169322817
 30
0.0
 40
121.5681035736058
100
AcDbArc
 50
20.96532742606811
 51
28.89824562354529
  0
ARC
  5
17FF3
330
194D2
100
AcDbEntity
  8
CUT
100
AcDbCircle
 10
871.3301918786926
 20
-4884.273652301024
 30
0.0
 40
111.7647670969171
100
AcDbArc
 50
28.89824562354529
 51
37.17234682677994
  0
ARC
  5
17FF4
330
194D2
100
AcDbEntity
  8
CUT
100
AcDbCircle
 10
876.8756827588304
 20
-4880.068612578274
 30
0.0
 40
104.8052535958461
100
AcDbArc
 50
37.17234682677969
 51
46.4596480818146
  0
ARC
  5
17FF5
330
194D2
100
AcDbEntity
  8
CUT
100
AcDbCircle
 10
885.186826856449
 20
-4871.322838107681
 30
0.0
 40
92.74027587925443
100
AcDbArc
 50
46.45964808181455
 51
56.33400688424069
  0
ARC
  5
17FF6
330
194D2
100
AcDbEntity
  8
CUT
100
AcDbCircle
 10
913.0141202311695
 20
-4868.059717484988
 30
0.0
 40
5.121306027930282
100
AcDbArc
 50
182.3502938609995
 51
200.5793890507274
1001
QCAD
1000
reversed:1
  0
ARC
  5
17FF7
330
194D2
100
AcDbEntity
  8
CUT
100
AcDbCircle
 10
913.4417554672045
 20
-4868.042165885356
 30
0.0
 40
5.549301300975364
100
AcDbArc
 50
164.8440203280251
 51
182.3502938609996
1001
QCAD
1000
reversed:1
  0
ARC
  5
17FF8
330
194D2
100
AcDbEntity
  8
CUT
100
AcDbCircle
 10
913.8775603214185
 20
-4868.160211973616
 30
0.0
 40
6.00081071384475
100
AcDbArc
 50
149.0042804787625
 51
164.8440203280241
1001
QCAD
1000
reversed:1
  0
ARC
  5
17FF9
330
194D2
100
AcDbEntity
  8
CUT
100
AcDbCircle
 10
913.917794022999
 20
-4868.184382729645
 30
0.0
 40
6.047746587012049
100
AcDbArc
 50
133.226518485428
 51
149.0042804787658
1001
QCAD
1000
reversed:1
  0
ARC
  5
17FFA
330
194D2
100
AcDbEntity
  8
CUT
100
AcDbCircle
 10
913.550364220725
 20
-4867.793472458257
 30
0.0
 40
5.511262197792514
100
AcDbArc
 50
114.9172198437049
 51
133.2265184854225
1001
QCAD
1000
reversed:1
  0
ARC
  5
17FFB
330
194D2
100
AcDbEntity
  8
CUT
100
AcDbCircle
 10
913.0512995900033
 20
-4866.719175306269
 30
0.0
 40
4.3267032602948
100
AcDbArc
 50
94.22861751300661
 51
114.9172198437075
1001
QCAD
1000
reversed:1
  0
ARC
  5
17FFC
330
194D2
100
AcDbEntity
  8
CUT
100
AcDbCircle
 10
913.0273258310003
 20
-4866.394932136465
 30
0.0
 40
4.001575017464789
100
AcDbArc
 50
71.73202398737573
 51
94.22861751300766
1001
QCAD
1000
reversed:1
  0
ARC
  5
17FFD
330
194D2
100
AcDbEntity
  8
CUT
100
AcDbCircle
 10
912.7244016969198
 20
-4867.312610316003
 30
0.0
 40
4.96795810517409
100
AcDbArc
 50
51.56723603759849
 51
71.73202398737862
1001
QCAD
1000
reversed:1
  0
ARC
  5
17FFE
330
194D2
100
AcDbEntity
  8
CUT
100
AcDbCircle
 10
897.9582951345606
 20
-4883.549598871146
 30
0.0
 40
26.90596684045227
100
AcDbArc
 50
39.57937592548134
 51
48.42678555568568
1001
QCAD
1000
reversed:1
  0
ARC
  5
17FFF
330
194D2
100
AcDbEntity
  8
CUT
100
AcDbCircle
 10
894.1486794837913
 20
-4886.698877919951
 30
0.0
 40
31.84875248559307
100
AcDbArc
 50
31.44869116934252
 51
39.5793759254822
1001
QCAD
1000
reversed:1
  0
ARC
  5
18000
330
194D2
100
AcDbEntity
  8
CUT
100
AcDbCircle
 10
890.0334537005615
 20
-4889.215625193759
 30
0.0
 40
36.67255804626749
100
AcDbArc
 50
25.34512873567321
 51
31.44869116934038
1001
QCAD
1000
reversed:1
  0
ARC
  5
18001
330
194D2
100
AcDbEntity
  8
CUT
100
AcDbCircle
 10
873.8096098027117
 20
-4896.900240825338
 30
0.0
 40
54.62433868850171
100
AcDbArc
 50
20.34485986310398
 51
25.34512873567428
1001
QCAD
1000
reversed:1
  0
ARC
  5
18002
330
194D2
100
AcDbEntity
  8
CUT
100
AcDbCircle
 10
861.021015922744
 20
-4901.642271608986
 30
0.0
 40
68.26380309806692
100
AcDbArc
 50
17.41154905859455
 51
20.34485986310449
1001
QCAD
1000
reversed:1
  0
ARC
  5
18003
330
194D2
100
AcDbEntity
  8
CUT
100
AcDbCircle
 10
783.1904878460382
 20
-4926.050110665607
 30
0.0
 40
149.8317729643864
100
AcDbArc
 50
15.43172982513817
 51
17.41154905859322
1001
QCAD
1000
reversed:1
  0
ARC
  5
18004
330
194D2
100
AcDbEntity
  8
CUT
100
AcDbCircle
 10
531.9878445531356
 20
-4995.392537474438
 30
0.0
 40
410.4294324954713
100
AcDbArc
 50
14.82645030401721
 51
15.43172982513329
1001
QCAD
1000
reversed:1
  0
ARC
  5
18005
330
194D2
100
AcDbEntity
  8
CUT
100
AcDbCircle
 10
1106.35369904858
 20
-4843.354835397253
 30
0.0
 40
183.7183585996344
100
AcDbArc
 50
194.8264503040228
 51
196.1786784789687
  0
ARC
  5
18006
330
194D2
100
AcDbEntity
  8
CUT
100
AcDbCircle
 10
939.8227068249994
 20
-4891.824119504034
 30
0.0
 40
10.27831702677069
100
AcDbArc
 50
195.3501521704935
 51
203.9917086701636
  0
ARC
  5
18007
330
194D2
100
AcDbEntity
  8
CUT
100
AcDbCircle
 10
941.6620810543861
 20
-4891.005496255268
 30
0.0
 40
12.29163309215993
100
AcDbArc
 50
203.991708670166
 51
211.8926826176719
  0
ARC
  5
18008
330
194D2
100
AcDbEntity
  8
CUT
100
AcDbCircle
 10
943.2713895011605
 20
-4890.004075105437
 30
0.0
 40
14.18707974036424
100
AcDbArc
 50
211.8926826176683
 51
217.8051684245253
  0
ARC
  5
18009
330
194D2
100
AcDbEntity
  8
CUT
100
AcDbCircle
 10
948.6556932392255
 20
-4885.82680303015
 30
0.0
 40
21.00179387484558
100
AcDbArc
 50
217.8051684245269
 51
222.6639329011307
  0
ARC
  5
1800A
330
194D2
100
AcDbEntity
  8
CUT
100
AcDbCircle
 10
952.5057805096862
 20
-4882.278529449773
 30
0.0
 40
26.23757627973578
100
AcDbArc
 50
222.6639329011281
 51
225.5882034562314
  0
ARC
  5
1800B
330
194D2
100
AcDbEntity
  8
CUT
100
AcDbCircle
 10
971.3241777197197
 20
-4863.069727995204
 30
0.0
 40
53.12828335254686
100
AcDbArc
 50
225.5882034562352
 51
227.643112743853
  0
ARC
  5
1800C
330
194D2
100
AcDbEntity
  8
CUT
100
AcDbCircle
 10
1010.920398318409
 20
-4819.640751185954
 30
0.0
 40
111.8984859419406
100
AcDbArc
 50
227.6431127438588
 51
228.4737601184358
  0
ARC
  5
1800D
330
194D2
100
AcDbEntity
  8
CUT
100
AcDbCircle
 10
856.973839135419
 20
-4993.485190101908
 30
0.0
 40
120.3114019316912
100
AcDbArc
 50
47.70119764959049
 51
48.47376011843856
1001
QCAD
1000
reversed:1
  0
ARC
  5
1800E
330
194D2
100
AcDbEntity
  8
CUT
100
AcDbCircle
 10
902.7002920293958
 20
-4943.230364249923
 30
0.0
 40
52.36689504792332
100
AcDbArc
 50
45.58734270351929
 51
47.70119764958994
1001
QCAD
1000
reversed:1
  0
ARC
  5
1800F
330
194D2
100
AcDbEntity
  8
CUT
100
AcDbCircle
 10
922.4545566249544
 20
-4923.066885982909
 30
0.0
 40
24.1393052546782
100
AcDbArc
 50
42.47369106133689
 51
45.58734270351961
1001
QCAD
1000
reversed:1
  0
ARC
  5
18010
330
194D2
100
AcDbEntity
  8
CUT
100
AcDbCircle
 10
926.4296749855598
 20
-4919.427717606177
 30
0.0
 40
18.74995348892458
100
AcDbArc
 50
36.96341796605332
 51
42.47369106134331
1001
QCAD
1000
reversed:1
  0
ARC
  5
18011
330
194D2
100
AcDbEntity
  8
CUT
100
AcDbCircle
 10
931.8695876847239
 20
-4915.333892268492
 30
0.0
 40
11.9417190577388
100
AcDbArc
 50
30.05727839390405
 51
36.96341796605444
1001
QCAD
1000
reversed:1
  0
ARC
  5
18012
330
194D2
100
AcDbEntity
  8
CUT
100
AcDbCircle
 10
933.4406417411317
 20
-4914.424748472929
 30
0.0
 40
10.12657352936818
100
AcDbArc
 50
20.47365905956043
 51
30.05727839389947
1001
QCAD
1000
reversed:1
  0
ARC
  5
18013
330
194D2
100
AcDbEntity
  8
CUT
100
AcDbCircle
 10
935.0043502316023
 20
-4913.840921071622
 30
0.0
 40
8.457430432540548
100
AcDbArc
 50
9.984471598913698
 51
20.47365905955952
1001
QCAD
1000
reversed:1
  0
ARC
  5
18014
330
194D2
100
AcDbEntity
  8
CUT
100
AcDbCircle
 10
934.9575214542124
 20
-4913.849165162963
 30
0.0
 40
8.504979348761973
100
AcDbArc
 50
359.5301750143706
 51
9.984471598919802
1001
QCAD
1000
reversed:1
  0
ARC
  5
18015
330
194D2
100
AcDbEntity
  8
CUT
100
AcDbCircle
 10
933.3584561761304
 20
-4913.836052545124
 30
0.0
 40
10.10409838883186
100
AcDbArc
 50
349.9408718840049
 51
359.5301750143716
1001
QCAD
1000
reversed:1
  0
LINE
  5
1802A
330
194D2
100
AcDbEntity
  8
CUT
100
AcDbLine
 10
612.7881413021983
 20
-4909.882085522429
 30
0.0
 11
609.9261935129297
 21
-4911.157315459992
 31
0.0
  0
LINE
  5
1802D
330
194D2
100
AcDbEntity
  8
CUT
100
AcDbLine
 10
552.2985490647768
 20
-4914.256202589371
 30
0.0
 11
56.13269509297788
 21
-4914.256202589371
 31
0.0
  0
LINE
  5
1802E
330
194D2
100
AcDbEntity
  8
CUT
100
AcDbLine
 10
995.9609379564095
 20
-4563.760350791968
 30
0.0
 11
828.7065397965264
 21
-4898.26843450824
 31
0.0
  0
LINE
  5
1802F
330
194D2
100
AcDbEntity
  8
CUT
100
AcDbLine
 10
828.7065397965264
 20
-4898.26843450824
 30
0.0
 11
671.5138723052103
 21
-4819.671933328596
 31
0.0
  0
LINE
  5
18032
330
194D2
100
AcDbEntity
  8
CUT
100
AcDbLine
 10
846.0750761947027
 20
-4269.065552312884
 30
0.0
 11
672.0706171151342
 21
-4356.067967193758
 31
0.0
  0
LINE
  5
18033
330
194D2
100
AcDbEntity
  8
CUT
100
AcDbLine
 10
672.0706171151342
 20
-4356.067967193758
 30
0.0
 11
223.5396755725554
 21
-4356.067967193758
 31
0.0
  0
LINE
  5
18034
330
194D2
100
AcDbEntity
  8
CUT
100
AcDbLine
 10
56.13269509297788
 20
-4914.256202589371
 30
0.0
 11
56.13269509297788
 21
-4409.114839961891
 31
0.0
  0
LINE
  5
18035
330
194D2
100
AcDbEntity
  8
CUT
100
AcDbLine
 10
31.96048346746255
 20
-4926.342308402129
 30
0.0
 11
31.9604834674617
 21
-4411.923856706788
 31
0.0
  0
LINE
  5
18036
330
194D2
100
AcDbEntity
  8
CUT
100
AcDbLine
 10
7.788271841947278
 20
-4938.428414214886
 30
0.0
 11
7.788271841947278
 21
-4409.114839961891
 31
0.0
  0
LINE
  5
18037
330
194D2
100
AcDbEntity
  8
CUT
100
AcDbLine
 10
538.9819949635215
 20
-4926.342308402129
 30
0.0
 11
56.13269509297788
 21
-4926.342308402129
 31
0.0
  0
LINE
  5
18038
330
194D2
100
AcDbEntity
  8
CUT
100
AcDbLine
 10
56.13269509297788
 20
-4926.342308402129
 30
0.0
 11
31.96048346746255
 21
-4926.342308402129
 31
0.0
  0
LINE
  5
18039
330
194D2
100
AcDbEntity
  8
CUT
100
AcDbLine
 10
552.2985490647768
 20
-4938.428414214886
 30
0.0
 11
7.788271841947278
 21
-4938.428414214886
 31
0.0
  0
LINE
  5
1803A
330
194D2
100
AcDbEntity
  8
CUT
100
AcDbLine
 10
1005.843291850202
 20
-4571.020993232045
 30
0.0
 11
839.516676862982
 21
-4903.673514555901
 31
0.0
  0
LINE
  5
1803B
330
194D2
100
AcDbEntity
  8
CUT
100
AcDbLine
 10
839.516676862982
 20
-4903.673514555901
 30
0.0
 11
834.1115968153217
 21
-4914.483651622355
 31
0.0
  0
LINE
  5
1803C
330
194D2
100
AcDbEntity
  8
CUT
100
AcDbLine
 10
1017.697042307793
 20
-4574.338850943856
 30
0.0
 11
850.3268139294375
 21
-4909.078594603561
 31
0.0
  0
LINE
  5
1803D
330
194D2
100
AcDbEntity
  8
CUT
100
AcDbLine
 10
850.3268139294375
 20
-4909.078594603561
 30
0.0
 11
844.9217338817775
 21
-4919.888731670017
 31
0.0
  0
LINE
  5
1803E
330
194D2
100
AcDbEntity
  8
CUT
100
AcDbLine
 10
844.9217338817775
 20
-4919.888731670017
 30
0.0
 11
839.516653834117
 21
-4930.698868736472
 31
0.0
  0
LINE
  5
1803F
330
194D2
100
AcDbEntity
  8
CUT
100
AcDbLine
 10
823.3014597488661
 20
-4909.078571574697
 30
0.0
 11
673.8192176495611
 21
-4834.337291303827
 31
0.0
  0
LINE
  5
18040
330
194D2
100
AcDbEntity
  8
CUT
100
AcDbLine
 10
834.1115968153217
 20
-4914.483651622355
 30
0.0
 11
823.3014597488661
 21
-4909.078571574697
 31
0.0
  0
LINE
  5
18041
330
194D2
100
AcDbEntity
  8
CUT
100
AcDbLine
 10
817.8963797012059
 20
-4919.888708641152
 30
0.0
 11
660.7037122098897
 21
-4841.292207461509
 31
0.0
  0
LINE
  5
18042
330
194D2
100
AcDbEntity
  8
CUT
100
AcDbLine
 10
839.516653834117
 20
-4930.698868736472
 30
0.0
 11
828.7065167676615
 21
-4925.293788688812
 31
0.0
  0
LINE
  5
18043
330
194D2
100
AcDbEntity
  8
CUT
100
AcDbLine
 10
828.7065167676615
 20
-4925.293788688812
 30
0.0
 11
817.8963797012059
 21
-4919.888708641152
 31
0.0
  0
LINE
  5
18044
330
194D2
100
AcDbEntity
  8
CUT
100
AcDbLine
 10
839.369803139343
 20
-4258.90551313518
 30
0.0
 11
669.2174691236905
 21
-4343.981861380998
 31
0.0
  0
LINE
  5
18045
330
194D2
100
AcDbEntity
  8
CUT
100
AcDbLine
 10
835.264916099381
 20
-4247.445278179973
 30
0.0
 11
666.3643211322451
 21
-4331.895755568241
 31
0.0
  0
LINE
  5
18046
330
194D2
100
AcDbEntity
  8
CUT
100
AcDbLine
 10
669.2174691236905
 20
-4343.981861380998
 30
0.0
 11
224.6723401332573
 21
-4343.981861380998
 31
0.0
  0
LINE
  5
18047
330
194D2
100
AcDbEntity
  8
CUT
100
AcDbLine
 10
666.3643211322451
 20
-4331.895755568241
 30
0.0
 11
223.5396755725545
 21
-4331.895755568241
 31
0.0
  0
LINE
  5
18050
330
194D2
100
AcDbEntity
  8
CUT
100
AcDbLine
 10
995.9609379564095
 20
-4563.760350791968
 30
0.0
 11
933.9629241621301
 21
-4545.012306839561
 31
0.0
  0
LINE
  5
18051
330
194D2
100
AcDbEntity
  8
CUT
100
AcDbLine
 10
995.9609379564095
 20
-4563.760350791968
 30
0.0
 11
1005.843291850202
 21
-4571.020993232045
 31
0.0
  0
LINE
  5
18052
330
194D2
100
AcDbEntity
  8
CUT
100
AcDbLine
 10
1017.697042307793
 20
-4574.338850943856
 30
0.0
 11
1005.613844144735
 21
-4570.90870448492
 31
0.0
  0
ARC
  5
18158
330
194D2
100
AcDbEntity
  8
CUT
100
AcDbCircle
 10
849.299808944419
 20
-4705.820387804017
 30
0.0
 40
195.8962928049967
100
AcDbArc
 50
163.9824011950684
 51
169.2164598078841
1001
QCAD
1000
reversed:1
  0
ARC
  5
18159
330
194D2
100
AcDbEntity
  8
CUT
100
AcDbCircle
 10
826.1841736059955
 20
-4701.417726413509
 30
0.0
 40
172.3651214695436
100
AcDbArc
 50
169.2164598078839
 51
174.5084193856844
1001
QCAD
1000
reversed:1
  0
ARC
  5
1815A
330
194D2
100
AcDbEntity
  8
CUT
100
AcDbCircle
 10
865.3451088885904
 20
-4710.426637653443
 30
0.0
 40
212.5896803573706
100
AcDbArc
 50
159.5113921923242
 51
163.9824011950682
1001
QCAD
1000
reversed:1
  0
ARC
  5
1815B
330
194D2
100
AcDbEntity
  8
CUT
100
AcDbCircle
 10
907.0742175240946
 20
-4726.019176375215
 30
0.0
 40
257.1367991017228
100
AcDbArc
 50
155.4364305149714
 51
159.5112884611636
  0
ARC
  5
1815C
330
194D2
100
AcDbEntity
  8
CUT
100
AcDbCircle
 10
933.0757996187695
 20
-4737.903637810599
 30
0.0
 40
285.7256552354551
100
AcDbArc
 50
152.1239603351287
 51
155.4364305149708
  0
ARC
  5
1815D
330
194D2
100
AcDbEntity
  8
CUT
100
AcDbCircle
 10
999.0516402059754
 20
-4772.800390305474
 30
0.0
 40
360.3620697144101
100
AcDbArc
 50
149.1687988541792
 51
152.1243554394833
1001
QCAD
1000
reversed:1
  0
ARC
  5
1815E
330
194D2
100
AcDbEntity
  8
CUT
100
AcDbCircle
 10
1040.226196733073
 20
-4797.375920721781
 30
0.0
 40
408.313094734427
100
AcDbArc
 50
146.8736486157575
 51
149.1684248843651
  0
ARC
  5
1815F
330
194D2
100
AcDbEntity
  8
CUT
100
AcDbCircle
 10
1155.986367926908
 20
-4872.914754157086
 30
0.0
 40
546.5394740748723
100
AcDbArc
 50
143.1759217659408
 51
146.8738128565613
1001
QCAD
1000
reversed:1
  0
LINE
  5
18053
330
194D2
100
AcDbEntity
  8
CUT
100
AcDbLine
 10
568.5445435478342
 20
-4510.032525009234
 30
0.0
 11
577.6876322129095
 21
-4507.446579998734
 31
0.0
  0
LINE
  5
191AF
330
194D2
100
AcDbEntity
  8
CUT
100
AcDbLine
 10
1052.341986293168
 20
-5004.423577149424
 30
0.0
 11
1052.341986293168
 21
-4204.423577149424
 31
0.0
  0
LINE
  5
191AB
330
194D2
100
AcDbEntity
  8
CUT
100
AcDbLine
 10
-47.6580137068317
 20
-5004.423577149422
 30
0.0
 11
-47.6580137068317
 21
-4204.423577149423
 31
0.0
  0
LINE
  5
191BD
330
194D2
100
AcDbEntity
  8
CUT
100
AcDbLine
 10
-47.65801370683172
 20
-4204.423577149422
 30
0.0
 11
1052.341986293168
 21
-4204.423577149424
 31
0.0
  0
LINE
  5
191BF
330
194D2
100
AcDbEntity
  8
CUT
100
AcDbLine
 10
-47.6580137068317
 20
-5004.423577149422
 30
0.0
 11
1052.341986293168
 21
-5004.423577149424
 31
0.0
  0
VIEWPORT
  5
195A4
330
194CE
100
AcDbEntity
 67
     1
  8
0
 62
    18
420
        0
100
AcDbViewport
 10
128.5
 20
97.5
 30
0.0
 40
314.226
 41
222.18
 68
     1
 69
     1
 12
128.5
 22
97.5
 13
0.0
 23
0.0
 14
10.0
 24
10.0
 15
10.0
 25
10.0
 16
0.0
 26
0.0
 36
1.0
 17
0.0
 27
0.0
 37
0.0
 42
50.0
 43
0.0
 44
0.0
 45
222.18
 50
0.0
 51
0.0
 72
   100
 90
   557152
  1

281
     0
 71
     1
 74
     0
110
0.0
120
0.0
130
0.0
111
1.0
121
0.0
131
0.0
112
0.0
122
1.0
132
0.0
 79
     0
146
0.0
170
     0
 61
     5
348
194E2
292
     1
282
     1
141
0.0
142
0.0
 63
   256
361
195A5
  0
ENDSEC
  0
SECTION
  2
OBJECTS
  0
DICTIONARY
  5
194C0
330
0
100
AcDbDictionary
281
     1
  3
ACAD_DETAILVIEWSTYLE
350
195AD
  3
ACAD_GROUP
350
194C1
  3
ACAD_LAYOUT
350
194CD
  3
ACAD_MATERIAL
350
194F6
  3
ACAD_MLEADERSTYLE
350
1951E
  3
ACAD_MLINESTYLE
350
194CA
  3
ACAD_PLOTSETTINGS
350
194CC
  3
ACAD_PLOTSTYLENAME
350
194C2
  3
ACAD_SCALELIST
350
194FA
  3
ACAD_SECTIONVIEWSTYLE
350
195AE
  3
ACAD_TABLESTYLE
350
1951C
  3
ACAD_VISUALSTYLE
350
194DD
  3
ACDB_RECOMPOSE_DATA
350
195AA
  3
AcDbVariableDictionary
350
195A6
  3
QCAD_OBJECTS
350
19522
  0
SUN
  5
19520
330
194DC
100
AcDbSun
 90
        1
290
     0
 63
     7
421
 16777215
 40
1.0
291
     1
 91
  2455826
 92
 54000000
292
     0
 70
     2
 71
   256
280
     1
  0
SUN
  5
195A5
330
195A4
100
AcDbSun
 90
        1
290
     0
 63
     7
421
 16777215
 40
1.0
291
     1
 91
  2455826
 92
 54000000
292
     0
 70
     2
 71
   256
280
     1
  0
DICTIONARY
  5
195AD
102
{ACAD_REACTORS
330
194C0
102
}
330
194C0
100
AcDbDictionary
281
     1
  0
DICTIONARY
  5
194C1
102
{ACAD_REACTORS
330
194C0
102
}
330
194C0
100
AcDbDictionary
281
     1
  0
DICTIONARY
  5
194CD
102
{ACAD_REACTORS
330
194C0
102
}
330
194C0
100
AcDbDictionary
281
     1
  3
Layout1
350
194D1
  3
Model
350
194D5
  0
DICTIONARY
  5
194F6
102
{ACAD_REACTORS
330
194C0
102
}
330
194C0
100
AcDbDictionary
281
     1
  3
ByBlock
350
194F8
  3
ByLayer
350
194F7
  3
Global
350
194F9
  0
DICTIONARY
  5
1951E
102
{ACAD_REACTORS
330
194C0
102
}
330
194C0
100
AcDbDictionary
281
     1
  3
Standard
350
1951F
  0
DICTIONARY
  5
194CA
102
{ACAD_REACTORS
330
194C0
102
}
330
194C0
100
AcDbDictionary
281
     1
  3
Standard
350
194CB
  0
DICTIONARY
  5
194CC
102
{ACAD_REACTORS
330
194C0
102
}
330
194C0
100
AcDbDictionary
281
     1
  0
ACDBDICTIONARYWDFLT
  5
194C2
102
{ACAD_REACTORS
330
194C0
102
}
330
194C0
100
AcDbDictionary
281
     1
  3
Normal
350
194C3
100
AcDbDictionaryWithDefault
340
194C3
  0
DICTIONARY
  5
194FA
102
{ACAD_REACTORS
330
194C0
102
}
330
194C0
100
AcDbDictionary
281
     1
  3
A0
350
194FB
  3
A1
350
194FC
  3
A2
350
194FD
  3
A3
350
194FE
  3
A4
350
194FF
  3
A5
350
19500
  3
A6
350
19501
  3
A7
350
19502
  3
A8
350
19503
  3
A9
350
19504
  3
B0
350
19505
  3
B1
350
19506
  3
B2
350
19507
  3
B3
350
19508
  3
B4
350
19509
  3
B5
350
1950A
  3
B6
350
1950B
  3
B7
350
1950C
  3
B8
350
1950D
  3
B9
350
1950E
  3
C0
350
1950F
  3
C1
350
19510
  3
C2
350
19511
  3
C3
350
19512
  3
C4
350
19513
  3
C5
350
19514
  3
C6
350
19515
  3
C7
350
19516
  3
C8
350
19517
  3
C9
350
19518
  3
D0
350
19519
  3
D1
350
1951A
  3
D2
350
1951B
  0
DICTIONARY
  5
195AE
102
{ACAD_REACTORS
330
194C0
102
}
330
194C0
100
AcDbDictionary
281
     1
  0
DICTIONARY
  5
1951C
102
{ACAD_REACTORS
330
194C0
102
}
330
194C0
100
AcDbDictionary
281
     1
  3
Standard
350
1951D
  0
DICTIONARY
  5
194DD
102
{ACAD_REACTORS
330
194C0
102
}
330
194C0
100
AcDbDictionary
281
     1
  3
2dWireframe
350
194E2
  3
Basic
350
194E5
  3
Brighten
350
194E9
  3
ColorChange
350
194ED
  3
Conceptual
350
194E7
  3
Dim
350
194E8
  3
EdgeColorOff
350
194F0
  3
Facepattern
350
194EC
  3
Flat
350
194DE
  3
FlatWithEdges
350
194DF
  3
Gouraud
350
194E0
  3
GouraudWithEdges
350
194E1
  3
Hidden
350
194E4
  3
JitterOff
350
194EE
  3
Linepattern
350
194EB
  3
OverhangOff
350
194EF
  3
Realistic
350
194E6
  3
Shaded
350
194F5
  3
Shaded with edges
350
194F4
  3
Shades of Gray
350
194F1
  3
Sketchy
350
194F2
  3
Thicken
350
194EA
  3
Wireframe
350
194E3
  3
X-Ray
350
194F3
  0
XRECORD
  5
195AA
102
{ACAD_REACTORS
330
194C0
102
}
330
194C0
100
AcDbXrecord
280
     1
 90
        1
330
1951D
  0
DICTIONARY
  5
195A6
102
{ACAD_REACTORS
330
194C0
102
}
330
194C0
100
AcDbDictionary
281
     1
  3
CANNOSCALE
350
195A7
  3
CMLEADERSTYLE
350
195AC
  3
CTABLESTYLE
350
195AB
  0
DICTIONARY
  5
19522
102
{ACAD_REACTORS
330
194C0
102
}
330
194C0
100
AcDbDictionary
281
     1
  3
CamExport/ConfigV2
350
19524
  3
ColorSettings/BackgroundColor
350
19525
  3
ColorSettings/ColorMode
350
19526
  3
DimensionSettings/AngularFormat
350
19527
  3
DimensionSettings/AngularPrecision
350
19528
  3
DimensionSettings/DecimalPoint
350
19529
  3
DimensionSettings/DimensionFont
350
1952A
  3
DimensionSettings/KeepProportions
350
1952B
  3
DimensionSettings/LinearFormat
350
1952C
  3
DimensionSettings/LinearPrecision
350
1952D
  3
Grid/DisplayGrid00
350
1952E
  3
Grid/DisplayGrid01
350
1952F
  3
Grid/DisplayGrid02
350
19530
  3
Grid/DisplayGrid03
350
19531
  3
Grid/GridSpacingX00
350
19532
  3
Grid/GridSpacingX01
350
19533
  3
Grid/GridSpacingX02
350
19534
  3
Grid/GridSpacingX03
350
19535
  3
Grid/GridSpacingY00
350
19536
  3
Grid/GridSpacingY01
350
19537
  3
Grid/GridSpacingY02
350
19538
  3
Grid/GridSpacingY03
350
19539
  3
Grid/IsometricGrid00
350
1953A
  3
Grid/IsometricGrid01
350
1953B
  3
Grid/IsometricGrid02
350
1953C
  3
Grid/IsometricGrid03
350
1953D
  3
Grid/IsometricProjection00
350
1953E
  3
Grid/IsometricProjection01
350
1953F
  3
Grid/IsometricProjection02
350
19540
  3
Grid/IsometricProjection03
350
19541
  3
Grid/MetaGridSpacingX00
350
19542
  3
Grid/MetaGridSpacingX01
350
19543
  3
Grid/MetaGridSpacingX02
350
19544
  3
Grid/MetaGridSpacingX03
350
19545
  3
Grid/MetaGridSpacingY00
350
19546
  3
Grid/MetaGridSpacingY01
350
19547
  3
Grid/MetaGridSpacingY02
350
19548
  3
Grid/MetaGridSpacingY03
350
19549
  3
MultiPageSettings/Columns
350
1954A
  3
MultiPageSettings/GlueMarginsBottom
350
1954B
  3
MultiPageSettings/GlueMarginsLeft
350
1954C
  3
MultiPageSettings/GlueMarginsRight
350
1954D
  3
MultiPageSettings/GlueMarginsTop
350
1954E
  3
MultiPageSettings/PrintCropMarks
350
1954F
  3
MultiPageSettings/Rows
350
19550
  3
PageSettings/OffsetX
350
19551
  3
PageSettings/OffsetY
350
19552
  3
PageSettings/PageOrientation
350
19553
  3
PageSettings/PaperHeight
350
19554
  3
PageSettings/PaperSizeName
350
19555
  3
PageSettings/PaperWidth
350
19556
  3
PageSettings/PointSize
350
19557
  3
PageSettings/Scale
350
19558
  3
PageSettings/ShowPaperBorders
350
19559
  3
QCADVersion
350
1955A
  3
UnitSettings/PaperUnit
350
1955B
  3
ViewportCenter
350
1955C
  3
ViewportHeight
350
1955D
  3
ViewportWidth
350
1955E
  0
LAYOUT
  5
194D1
102
{ACAD_REACTORS
330
194CD
102
}
330
194CD
100
AcDbPlotSettings
  1

  2
none_device
  4
ISO_A4_(210.00_x_297.00_MM)
  6

 40
7.5
 41
20.0
 42
7.5
 43
20.0
 44
210.0
 45
297.0
 46
0.0
 47
0.0
 48
0.0
 49
0.0
140
0.0
141
0.0
142
1.0
143
1.0
 70
   688
 72
     1
 73
     1
 74
     5
  7

 75
    16
 76
     0
 77
     2
 78
   300
147
1.0
148
0.0
149
0.0
100
AcDbLayout
  1
Layout1
 70
     1
 71
     1
 10
-20.0
 20
-7.5
 11
277.0
 21
202.5
 12
0.0
 22
0.0
 32
0.0
 14
1.000000000000000E+20
 24
1.000000000000000E+20
 34
1.000000000000000E+20
 15
-1.000000000000000E+20
 25
-1.000000000000000E+20
 35
-1.000000000000000E+20
146
0.0
 13
0.0
 23
0.0
 33
0.0
 16
1.0
 26
0.0
 36
0.0
 17
0.0
 27
1.0
 37
0.0
 76
     0
330
194CE
331
195A4
  0
LAYOUT
  5
194D5
102
{ACAD_REACTORS
330
194CD
102
}
330
194CD
100
AcDbPlotSettings
  1

  2
none_device
  4
Letter_(8.50_x_11.00_Inches)
  6

 40
6.35
 41
6.35
 42
6.35000508
 43
6.35000508
 44
215.9
 45
279.4
 46
0.0
 47
0.0
 48
0.0
 49
0.0
140
0.0
141
0.0
142
1.0
143
1.0
 70
  1712
 72
     0
 73
     0
 74
     0
  7

 75
     0
 76
     0
 77
     2
 78
   300
147
1.0
148
0.0
149
0.0
100
AcDbLayout
  1
Model
 70
     1
 71
     0
 10
0.0
 20
0.0
 11
12.0
 21
9.0
 12
0.0
 22
0.0
 32
0.0
 14
-354.4234984086411
 24
-6586.460868730419
 34
0.0
 15
1359.107588907842
 25
91.14373740045546
 35
0.0
146
0.0
 13
0.0
 23
0.0
 33
0.0
 16
1.0
 26
0.0
 36
0.0
 17
0.0
 27
1.0
 37
0.0
 76
     0
330
194D2
331
194DC
  0
MATERIAL
  5
194F8
102
{ACAD_REACTORS
330
194F6
102
}
330
194F6
100
AcDbMaterial
  1
ByBlock
 72
     1
 94
      127
  0
MATERIAL
  5
194F7
102
{ACAD_REACTORS
330
194F6
102
}
330
194F6
100
AcDbMaterial
  1
ByLayer
 72
     1
 94
      127
  0
MATERIAL
  5
194F9
102
{ACAD_REACTORS
330
194F6
102
}
330
194F6
100
AcDbMaterial
  1
Global
 72
     1
 94
      127
  0
MLEADERSTYLE
  5
1951F
102
{ACAD_REACTORS
330
1951E
102
}
330
1951E
100
AcDbMLeaderStyle
179
     2
170
     2
171
     1
172
     0
 90
        2
 40
0.0
 41
0.0
173
     1
 91
-1056964608
340
194C7
 92
       -2
290
     1
 42
0.09
291
     1
 43
0.36
  3
Standard
341
0
 44
0.18
300

342
194C5
174
     1
178
     6
175
     1
176
     0
 93
-1056964608
 45
0.18
292
     0
297
     0
 46
0.18
343
0
 94
-1056964608
 47
1.0
 49
1.0
140
1.0
293
     1
141
0.0
294
     1
177
     0
142
1.0
295
     0
296
     0
143
0.125
271
     0
272
     9
273
     9
298
     0
  0
MLINESTYLE
  5
194CB
102
{ACAD_REACTORS
330
194CA
102
}
330
194CA
100
AcDbMlineStyle
  2
Standard
 70
     0
  3

 62
   256
 51
90.0
 52
90.0
 71
     2
 49
0.5
 62
   256
  6
BYLAYER
 49
-0.5
 62
   256
  6
BYLAYER
  0
ACDBPLACEHOLDER
  5
194C3
102
{ACAD_REACTORS
330
194C2
102
}
330
194C2
  0
SCALE
  5
194FB
102
{ACAD_REACTORS
330
194FA
102
}
330
194FA
100
AcDbScale
 70
     0
300
1:1
140
1.0
141
1.0
290
     1
  0
SCALE
  5
194FC
102
{ACAD_REACTORS
330
194FA
102
}
330
194FA
100
AcDbScale
 70
     0
300
1:2
140
1.0
141
2.0
290
     0
  0
SCALE
  5
194FD
102
{ACAD_REACTORS
330
194FA
102
}
330
194FA
100
AcDbScale
 70
     0
300
1:4
140
1.0
141
4.0
290
     0
  0
SCALE
  5
194FE
102
{ACAD_REACTORS
330
194FA
102
}
330
194FA
100
AcDbScale
 70
     0
300
1:5
140
1.0
141
5.0
290
     0
  0
SCALE
  5
194FF
102
{ACAD_REACTORS
330
194FA
102
}
330
194FA
100
AcDbScale
 70
     0
300
1:8
140
1.0
141
8.0
290
     0
  0
SCALE
  5
19500
102
{ACAD_REACTORS
330
194FA
102
}
330
194FA
100
AcDbScale
 70
     0
300
1:10
140
1.0
141
10.0
290
     0
  0
SCALE
  5
19501
102
{ACAD_REACTORS
330
194FA
102
}
330
194FA
100
AcDbScale
 70
     0
300
1:16
140
1.0
141
16.0
290
     0
  0
SCALE
  5
19502
102
{ACAD_REACTORS
330
194FA
102
}
330
194FA
100
AcDbScale
 70
     0
300
1:20
140
1.0
141
20.0
290
     0
  0
SCALE
  5
19503
102
{ACAD_REACTORS
330
194FA
102
}
330
194FA
100
AcDbScale
 70
     0
300
1:30
140
1.0
141
30.0
290
     0
  0
SCALE
  5
19504
102
{ACAD_REACTORS
330
194FA
102
}
330
194FA
100
AcDbScale
 70
     0
300
1:40
140
1.0
141
40.0
290
     0
  0
SCALE
  5
19505
102
{ACAD_REACTORS
330
194FA
102
}
330
194FA
100
AcDbScale
 70
     0
300
1:50
140
1.0
141
50.0
290
     0
  0
SCALE
  5
19506
102
{ACAD_REACTORS
330
194FA
102
}
330
194FA
100
AcDbScale
 70
     0
300
1:100
140
1.0
141
100.0
290
     0
  0
SCALE
  5
19507
102
{ACAD_REACTORS
330
194FA
102
}
330
194FA
100
AcDbScale
 70
     0
300
2:1
140
2.0
141
1.0
290
     0
  0
SCALE
  5
19508
102
{ACAD_REACTORS
330
194FA
102
}
330
194FA
100
AcDbScale
 70
     0
300
4:1
140
4.0
141
1.0
290
     0
  0
SCALE
  5
19509
102
{ACAD_REACTORS
330
194FA
102
}
330
194FA
100
AcDbScale
 70
     0
300
8:1
140
8.0
141
1.0
290
     0
  0
SCALE
  5
1950A
102
{ACAD_REACTORS
330
194FA
102
}
330
194FA
100
AcDbScale
 70
     0
300
10:1
140
10.0
141
1.0
290
     0
  0
SCALE
  5
1950B
102
{ACAD_REACTORS
330
194FA
102
}
330
194FA
100
AcDbScale
 70
     0
300
100:1
140
100.0
141
1.0
290
     0
  0
SCALE
  5
1950C
102
{ACAD_REACTORS
330
194FA
102
}
330
194FA
100
AcDbScale
 70
     0
300
1/128" = 1'-0"
140
0.0078125
141
12.0
290
     0
  0
SCALE
  5
1950D
102
{ACAD_REACTORS
330
194FA
102
}
330
194FA
100
AcDbScale
 70
     0
300
1/64" = 1'-0"
140
0.015625
141
12.0
290
     0
  0
SCALE
  5
1950E
102
{ACAD_REACTORS
330
194FA
102
}
330
194FA
100
AcDbScale
 70
     0
300
1/32" = 1'-0"
140
0.03125
141
12.0
290
     0
  0
SCALE
  5
1950F
102
{ACAD_REACTORS
330
194FA
102
}
330
194FA
100
AcDbScale
 70
     0
300
1/16" = 1'-0"
140
0.0625
141
12.0
290
     0
  0
SCALE
  5
19510
102
{ACAD_REACTORS
330
194FA
102
}
330
194FA
100
AcDbScale
 70
     0
300
3/32" = 1'-0"
140
0.09375
141
12.0
290
     0
  0
SCALE
  5
19511
102
{ACAD_REACTORS
330
194FA
102
}
330
194FA
100
AcDbScale
 70
     0
300
1/8" = 1'-0"
140
0.125
141
12.0
290
     0
  0
SCALE
  5
19512
102
{ACAD_REACTORS
330
194FA
102
}
330
194FA
100
AcDbScale
 70
     0
300
3/16" = 1'-0"
140
0.1875
141
12.0
290
     0
  0
SCALE
  5
19513
102
{ACAD_REACTORS
330
194FA
102
}
330
194FA
100
AcDbScale
 70
     0
300
1/4" = 1'-0"
140
0.25
141
12.0
290
     0
  0
SCALE
  5
19514
102
{ACAD_REACTORS
330
194FA
102
}
330
194FA
100
AcDbScale
 70
     0
300
3/8" = 1'-0"
140
0.375
141
12.0
290
     0
  0
SCALE
  5
19515
102
{ACAD_REACTORS
330
194FA
102
}
330
194FA
100
AcDbScale
 70
     0
300
1/2" = 1'-0"
140
0.5
141
12.0
290
     0
  0
SCALE
  5
19516
102
{ACAD_REACTORS
330
194FA
102
}
330
194FA
100
AcDbScale
 70
     0
300
3/4" = 1'-0"
140
0.75
141
12.0
290
     0
  0
SCALE
  5
19517
102
{ACAD_REACTORS
330
194FA
102
}
330
194FA
100
AcDbScale
 70
     0
300
1" = 1'-0"
140
1.0
141
12.0
290
     0
  0
SCALE
  5
19518
102
{ACAD_REACTORS
330
194FA
102
}
330
194FA
100
AcDbScale
 70
     0
300
1-1/2" = 1'-0"
140
1.5
141
12.0
290
     0
  0
SCALE
  5
19519
102
{ACAD_REACTORS
330
194FA
102
}
330
194FA
100
AcDbScale
 70
     0
300
3" = 1'-0"
140
3.0
141
12.0
290
     0
  0
SCALE
  5
1951A
102
{ACAD_REACTORS
330
194FA
102
}
330
194FA
100
AcDbScale
 70
     0
300
6" = 1'-0"
140
6.0
141
12.0
290
     0
  0
SCALE
  5
1951B
102
{ACAD_REACTORS
330
194FA
102
}
330
194FA
100
AcDbScale
 70
     0
300
1'-0" = 1'-0"
140
12.0
141
12.0
290
     0
  0
TABLESTYLE
  5
1951D
102
{ACAD_REACTORS
330
1951C
102
}
102
{ACAD_XDICTIONARY
360
195A8
102
}
330
1951C
100
AcDbTableStyle
  3
Standard
 70
     0
 71
     0
 40
0.06
 41
0.06
280
     0
281
     0
  7
Standard
140
0.18
170
     2
 62
     0
 63
   257
283
     0
 90
        4
 91
        0
  1

274
    -2
284
     1
 64
     0
275
    -2
285
     1
 65
     0
276
    -2
286
     1
 66
     0
277
    -2
287
     1
 67
     0
278
    -2
288
     1
 68
     0
279
    -2
289
     1
 69
     0
  7
Standard
140
0.25
170
     5
 62
     0
 63
   257
283
     0
 90
        4
 91
        0
  1

274
    -2
284
     1
 64
     0
275
    -2
285
     1
 65
     0
276
    -2
286
     1
 66
     0
277
    -2
287
     1
 67
     0
278
    -2
288
     1
 68
     0
279
    -2
289
     1
 69
     0
  7
Standard
140
0.18
170
     5
 62
     0
 63
   257
283
     0
 90
        4
 91
        0
  1

274
    -2
284
     1
 64
     0
275
    -2
285
     1
 65
     0
276
    -2
286
     1
 66
     0
277
    -2
287
     1
 67
     0
278
    -2
288
     1
 68
     0
279
    -2
289
     1
 69
     0
  0
VISUALSTYLE
  5
194E2
102
{ACAD_REACTORS
330
194DD
102
}
330
194DD
100
AcDbVisualStyle
  2
2dWireframe
 70
     4
177
     3
291
     0
 70
    58
 90
        0
176
     1
 90
        2
176
     1
 90
        0
176
     1
 90
        0
176
     1
 40
0.6
176
     1
 40
30.0
176
     1
 62
     7
420
 16777215
176
     1
 90
        1
176
     1
 90
        4
176
     1
 62
     7
176
     1
 62
   257
176
     1
 90
        1
176
     1
 90
        1
176
     1
 40
1.0
176
     1
 90
        0
176
     1
 62
   257
176
     1
 40
1.0
176
     1
 90
        1
176
     1
 90
        6
176
     1
 90
        2
176
     1
 62
     7
176
     1
 90
        5
176
     1
 90
        0
176
     1
 90
        0
176
     1
290
     0
176
     1
 90
        1
176
     1
 40
0.0
176
     1
 90
        0
176
     1
290
     1
176
     1
290
     1
176
     1
290
     0
176
     1
290
     0
176
     1
290
     0
176
     1
290
     0
176
     1
290
     0
176
     1
290
     0
176
     1
290
     0
176
     1
 90
       50
176
     1
 40
0.0
176
     1
 40
1.0
176
     1
 90
        0
176
     1
 62
    18
420
        0
176
     1
 90
       50
176
     1
 90
        3
176
     1
 62
     5
420
      255
176
     1
290
     0
176
     1
 90
       50
176
     1
 90
       50
176
     1
 90
       50
176
     1
290
     0
176
     1
 90
       50
176
     1
 62
   256
176
     0
 40
1.0
176
     0
 90
        2
176
     1
  1
strokes_ogs.tif
176
     1
290
     0
176
     1
 40
1.0
176
     1
 40
1.0
176
     1
  0
VISUALSTYLE
  5
194E5
102
{ACAD_REACTORS
330
194DD
102
}
330
194DD
100
AcDbVisualStyle
  2
Basic
 70
     7
177
     3
291
     1
 70
    58
 90
        1
176
     1
 90
        0
176
     1
 90
        1
176
     1
 90
        0
176
     1
 40
0.6
176
     1
 40
30.0
176
     1
 62
     7
420
 16777215
176
     1
 90
        0
176
     1
 90
        4
176
     1
 62
     7
176
     1
 62
   257
176
     1
 90
        1
176
     1
 90
        1
176
     1
 40
1.0
176
     1
 90
        8
176
     1
 62
     7
176
     1
 40
1.0
176
     1
 90
        1
176
     1
 90
        6
176
     1
 90
        2
176
     1
 62
     7
176
     1
 90
        5
176
     1
 90
        0
176
     1
 90
        0
176
     1
290
     0
176
     1
 90
        1
176
     1
 40
0.0
176
     1
 90
        0
176
     1
290
     0
176
     1
290
     1
176
     1
290
     1
176
     1
290
     0
176
     1
290
     0
176
     1
290
     0
176
     1
290
     0
176
     1
290
     0
176
     1
290
     0
176
     1
 90
       50
176
     1
 40
0.0
176
     1
 40
1.0
176
     1
 90
        0
176
     1
 62
    18
420
        0
176
     1
 90
       50
176
     1
 90
        3
176
     1
 62
     5
420
      255
176
     1
290
     0
176
     1
 90
       50
176
     1
 90
       50
176
     1
 90
       50
176
     1
290
     0
176
     1
 90
       50
176
     1
 62
   256
176
     0
 40
1.0
176
     0
 90
        2
176
     1
  1
strokes_ogs.tif
176
     1
290
     0
176
     1
 40
1.0
176
     1
 40
1.0
176
     1
  0
VISUALSTYLE
  5
194E9
102
{ACAD_REACTORS
330
194DD
102
}
330
194DD
100
AcDbVisualStyle
  2
Brighten
 70
    12
177
     3
291
     1
 70
    58
 90
        2
176
     1
 90
        2
176
     1
 90
        0
176
     1
 90
        0
176
     1
 40
0.6
176
     1
 40
30.0
176
     1
 62
     7
420
 16777215
176
     1
 90
        1
176
     1
 90
        4
176
     1
 62
     7
176
     1
 62
   257
176
     1
 90
        1
176
     1
 90
        1
176
     1
 40
1.0
176
     1
 90
        8
176
     1
 62
     7
176
     1
 40
1.0
176
     1
 90
        1
176
     1
 90
        6
176
     1
 90
        2
176
     1
 62
     7
176
     1
 90
        5
176
     1
 90
        0
176
     1
 90
        0
176
     1
290
     0
176
     1
 90
        1
176
     1
 40
50.0
176
     1
 90
        0
176
     1
290
     0
176
     1
290
     1
176
     1
290
     1
176
     1
290
     0
176
     1
290
     0
176
     1
290
     0
176
     1
290
     0
176
     1
290
     0
176
     1
290
     0
176
     1
 90
       50
176
     1
 40
0.0
176
     1
 40
1.0
176
     1
 90
        0
176
     1
 62
    18
420
        0
176
     1
 90
       50
176
     1
 90
        3
176
     1
 62
     5
420
      255
176
     1
290
     0
176
     1
 90
       50
176
     1
 90
       50
176
     1
 90
       50
176
     1
290
     0
176
     1
 90
       50
176
     1
 62
   256
176
     0
 40
1.0
176
     0
 90
        2
176
     1
  1
strokes_ogs.tif
176
     1
290
     0
176
     1
 40
1.0
176
     1
 40
1.0
176
     1
  0
VISUALSTYLE
  5
194ED
102
{ACAD_REACTORS
330
194DD
102
}
330
194DD
100
AcDbVisualStyle
  2
ColorChange
 70
    16
177
     3
291
     1
 70
    58
 90
        2
176
     1
 90
        2
176
     1
 90
        3
176
     1
 90
        0
176
     1
 40
0.6
176
     1
 40
30.0
176
     1
 62
     8
420
  8421504
176
     1
 90
        1
176
     1
 90
        4
176
     1
 62
     7
176
     1
 62
   257
176
     1
 90
        1
176
     1
 90
        1
176
     1
 40
1.0
176
     1
 90
        8
176
     1
 62
     8
420
  8421504
176
     1
 40
1.0
176
     1
 90
        1
176
     1
 90
        6
176
     1
 90
        2
176
     1
 62
     7
176
     1
 90
        5
176
     1
 90
        0
176
     1
 90
        0
176
     1
290
     0
176
     1
 90
        1
176
     1
 40
0.0
176
     1
 90
        0
176
     1
290
     0
176
     1
290
     1
176
     1
290
     1
176
     1
290
     0
176
     1
290
     0
176
     1
290
     0
176
     1
290
     0
176
     1
290
     0
176
     1
290
     0
176
     1
 90
       50
176
     1
 40
0.0
176
     1
 40
1.0
176
     1
 90
        0
176
     1
 62
    18
420
        0
176
     1
 90
       50
176
     1
 90
        3
176
     1
 62
     5
420
      255
176
     1
290
     0
176
     1
 90
       50
176
     1
 90
       50
176
     1
 90
       50
176
     1
290
     0
176
     1
 90
       50
176
     1
 62
   256
176
     0
 40
1.0
176
     0
 90
        2
176
     1
  1
strokes_ogs.tif
176
     1
290
     0
176
     1
 40
1.0
176
     1
 40
1.0
176
     1
  0
VISUALSTYLE
  5
194E7
102
{ACAD_REACTORS
330
194DD
102
}
330
194DD
100
AcDbVisualStyle
  2
Conceptual
 70
     9
177
     3
291
     0
 70
    58
 90
        3
176
     1
 90
        2
176
     1
 90
        0
176
     1
 90
        0
176
     1
 40
0.6
176
     1
 40
30.0
176
     1
 62
     7
420
 16777215
176
     1
 90
        2
176
     1
 90
        2
176
     1
 62
     7
176
     1
 62
   257
176
     1
 90
        1
176
     1
 90
        1
176
     1
 40
179.0
176
     1
 90
        8
176
     1
 62
     7
176
     1
 40
1.0
176
     1
 90
        1
176
     1
 90
        6
176
     1
 90
        2
176
     1
 62
     7
176
     1
 90
        3
176
     1
 90
        0
176
     1
 90
        0
176
     1
290
     0
176
     1
 90
        1
176
     1
 40
0.0
176
     1
 90
        0
176
     1
290
     0
176
     1
290
     1
176
     1
290
     1
176
     1
290
     0
176
     1
290
     0
176
     1
290
     0
176
     1
290
     0
176
     1
290
     0
176
     1
290
     0
176
     1
 90
       50
176
     1
 40
0.0
176
     1
 40
1.0
176
     1
 90
        0
176
     1
 62
    18
420
        0
176
     1
 90
       50
176
     1
 90
        3
176
     1
 62
     5
420
      255
176
     1
290
     0
176
     1
 90
       50
176
     1
 90
       50
176
     1
 90
       50
176
     1
290
     0
176
     1
 90
       50
176
     1
 62
   256
176
     0
 40
1.0
176
     0
 90
        2
176
     1
  1
strokes_ogs.tif
176
     1
290
     0
176
     1
 40
1.0
176
     1
 40
1.0
176
     1
  0
VISUALSTYLE
  5
194E8
102
{ACAD_REACTORS
330
194DD
102
}
330
194DD
100
AcDbVisualStyle
  2
Dim
 70
    11
177
     3
291
     1
 70
    58
 90
        2
176
     1
 90
        2
176
     1
 90
        0
176
     1
 90
        0
176
     1
 40
0.6
176
     1
 40
30.0
176
     1
 62
     7
420
 16777215
176
     1
 90
        1
176
     1
 90
        4
176
     1
 62
     7
176
     1
 62
   257
176
     1
 90
        1
176
     1
 90
        1
176
     1
 40
1.0
176
     1
 90
        8
176
     1
 62
     7
176
     1
 40
1.0
176
     1
 90
        1
176
     1
 90
        6
176
     1
 90
        2
176
     1
 62
     7
176
     1
 90
        5
176
     1
 90
        0
176
     1
 90
        0
176
     1
290
     0
176
     1
 90
        1
176
     1
 40
-50.0
176
     1
 90
        0
176
     1
290
     0
176
     1
290
     1
176
     1
290
     1
176
     1
290
     0
176
     1
290
     0
176
     1
290
     0
176
     1
290
     0
176
     1
290
     0
176
     1
290
     0
176
     1
 90
       50
176
     1
 40
0.0
176
     1
 40
1.0
176
     1
 90
        0
176
     1
 62
    18
420
        0
176
     1
 90
       50
176
     1
 90
        3
176
     1
 62
     5
420
      255
176
     1
290
     0
176
     1
 90
       50
176
     1
 90
       50
176
     1
 90
       50
176
     1
290
     0
176
     1
 90
       50
176
     1
 62
   256
176
     0
 40
1.0
176
     0
 90
        2
176
     1
  1
strokes_ogs.tif
176
     1
290
     0
176
     1
 40
1.0
176
     1
 40
1.0
176
     1
  0
VISUALSTYLE
  5
194F0
102
{ACAD_REACTORS
330
194DD
102
}
330
194DD
100
AcDbVisualStyle
  2
EdgeColorOff
 70
    22
177
     3
291
     1
 70
    58
 90
        2
176
     0
 90
        2
176
     0
 90
        0
176
     0
 90
        0
176
     0
 40
0.6
176
     0
 40
30.0
176
     0
 62
     7
420
 16777215
176
     0
 90
        1
176
     0
 90
        4
176
     0
 62
     7
176
     0
 62
   257
176
     0
 90
        1
176
     0
 90
        1
176
     0
 40
1.0
176
     0
 90
        8
176
     2
 62
     7
176
     0
 40
1.0
176
     0
 90
        1
176
     0
 90
        6
176
     0
 90
        2
176
     0
 62
     7
176
     0
 90
        5
176
     0
 90
        0
176
     0
 90
        0
176
     0
290
     0
176
     0
 90
        1
176
     0
 40
0.0
176
     0
 90
        0
176
     0
290
     0
176
     0
290
     1
176
     0
290
     1
176
     0
290
     0
176
     0
290
     0
176
     0
290
     0
176
     0
290
     0
176
     0
290
     0
176
     0
290
     0
176
     0
 90
       50
176
     0
 40
0.0
176
     0
 40
1.0
176
     0
 90
        0
176
     0
 62
    18
420
        0
176
     0
 90
       50
176
     0
 90
        3
176
     0
 62
     5
420
      255
176
     0
290
     0
176
     0
 90
       50
176
     0
 90
       50
176
     0
 90
       50
176
     0
290
     0
176
     0
 90
       50
176
     0
 62
   256
176
     0
 40
1.0
176
     0
 90
        2
176
     0
  1
strokes_ogs.tif
176
     0
290
     0
176
     0
 40
1.0
176
     0
 40
1.0
176
     0
  0
VISUALSTYLE
  5
194EC
102
{ACAD_REACTORS
330
194DD
102
}
330
194DD
100
AcDbVisualStyle
  2
Facepattern
 70
    15
177
     3
291
     1
 70
    58
 90
        2
176
     1
 90
        2
176
     1
 90
        0
176
     1
 90
        0
176
     1
 40
0.6
176
     1
 40
30.0
176
     1
 62
     7
420
 16777215
176
     1
 90
        1
176
     1
 90
        4
176
     1
 62
     7
176
     1
 62
   257
176
     1
 90
        1
176
     1
 90
        1
176
     1
 40
1.0
176
     1
 90
        8
176
     1
 62
     7
176
     1
 40
1.0
176
     1
 90
        1
176
     1
 90
        6
176
     1
 90
        2
176
     1
 62
     7
176
     1
 90
        5
176
     1
 90
        0
176
     1
 90
        0
176
     1
290
     0
176
     1
 90
        1
176
     1
 40
0.0
176
     1
 90
        0
176
     1
290
     0
176
     1
290
     1
176
     1
290
     1
176
     1
290
     0
176
     1
290
     0
176
     1
290
     0
176
     1
290
     0
176
     1
290
     0
176
     1
290
     0
176
     1
 90
       50
176
     1
 40
0.0
176
     1
 40
1.0
176
     1
 90
        0
176
     1
 62
    18
420
        0
176
     1
 90
       50
176
     1
 90
        3
176
     1
 62
     5
420
      255
176
     1
290
     0
176
     1
 90
       50
176
     1
 90
       50
176
     1
 90
       50
176
     1
290
     0
176
     1
 90
       50
176
     1
 62
   256
176
     0
 40
1.0
176
     0
 90
        2
176
     1
  1
strokes_ogs.tif
176
     1
290
     0
176
     1
 40
1.0
176
     1
 40
1.0
176
     1
  0
VISUALSTYLE
  5
194DE
102
{ACAD_REACTORS
330
194DD
102
}
330
194DD
100
AcDbVisualStyle
  2
Flat
 70
     0
177
     3
291
     1
 70
    58
 90
        2
176
     1
 90
        1
176
     1
 90
        1
176
     1
 90
        2
176
     1
 40
0.6
176
     1
 40
30.0
176
     1
 62
     7
420
 16777215
176
     1
 90
        0
176
     1
 90
        0
176
     1
 62
     7
176
     1
 62
   257
176
     1
 90
        1
176
     1
 90
        1
176
     1
 40
1.0
176
     1
 90
        8
176
     1
 62
     7
176
     1
 40
1.0
176
     1
 90
        1
176
     1
 90
        6
176
     1
 90
        2
176
     1
 62
     7
176
     1
 90
        5
176
     1
 90
        0
176
     1
 90
        0
176
     1
290
     0
176
     1
 90
       13
176
     1
 40
0.0
176
     1
 90
        0
176
     1
290
     0
176
     1
290
     1
176
     1
290
     1
176
     1
290
     0
176
     1
290
     0
176
     1
290
     0
176
     1
290
     0
176
     1
290
     0
176
     1
290
     0
176
     1
 90
       50
176
     1
 40
0.0
176
     1
 40
1.0
176
     1
 90
        0
176
     1
 62
    18
420
        0
176
     1
 90
       50
176
     1
 90
        3
176
     1
 62
     5
420
      255
176
     1
290
     0
176
     1
 90
       50
176
     1
 90
       50
176
     1
 90
       50
176
     1
290
     0
176
     1
 90
       50
176
     1
 62
   256
176
     0
 40
1.0
176
     0
 90
        2
176
     1
  1
strokes_ogs.tif
176
     1
290
     0
176
     1
 40
1.0
176
     1
 40
1.0
176
     1
  0
VISUALSTYLE
  5
194DF
102
{ACAD_REACTORS
330
194DD
102
}
330
194DD
100
AcDbVisualStyle
  2
FlatWithEdges
 70
     1
177
     3
291
     1
 70
    58
 90
        2
176
     1
 90
        1
176
     1
 90
        1
176
     1
 90
        2
176
     1
 40
0.6
176
     1
 40
30.0
176
     1
 62
     7
420
 16777215
176
     1
 90
        1
176
     1
 90
        0
176
     1
 62
     7
176
     1
 62
   257
176
     1
 90
        1
176
     1
 90
        1
176
     1
 40
1.0
176
     1
 90
        0
176
     1
 62
   257
176
     1
 40
1.0
176
     1
 90
        1
176
     1
 90
        6
176
     1
 90
        2
176
     1
 62
     7
176
     1
 90
        5
176
     1
 90
        0
176
     1
 90
        0
176
     1
290
     0
176
     1
 90
       13
176
     1
 40
0.0
176
     1
 90
        0
176
     1
290
     0
176
     1
290
     1
176
     1
290
     1
176
     1
290
     0
176
     1
290
     0
176
     1
290
     0
176
     1
290
     0
176
     1
290
     0
176
     1
290
     0
176
     1
 90
       50
176
     1
 40
0.0
176
     1
 40
1.0
176
     1
 90
        0
176
     1
 62
    18
420
        0
176
     1
 90
       50
176
     1
 90
        3
176
     1
 62
     5
420
      255
176
     1
290
     0
176
     1
 90
       50
176
     1
 90
       50
176
     1
 90
       50
176
     1
290
     0
176
     1
 90
       50
176
     1
 62
   256
176
     0
 40
1.0
176
     0
 90
        2
176
     1
  1
strokes_ogs.tif
176
     1
290
     0
176
     1
 40
1.0
176
     1
 40
1.0
176
     1
  0
VISUALSTYLE
  5
194E0
102
{ACAD_REACTORS
330
194DD
102
}
330
194DD
100
AcDbVisualStyle
  2
Gouraud
 70
     2
177
     3
291
     1
 70
    58
 90
        2
176
     1
 90
        2
176
     1
 90
        1
176
     1
 90
        2
176
     1
 40
0.6
176
     1
 40
30.0
176
     1
 62
     7
420
 16777215
176
     1
 90
        0
176
     1
 90
        0
176
     1
 62
     7
176
     1
 62
   257
176
     1
 90
        1
176
     1
 90
        1
176
     1
 40
1.0
176
     1
 90
        0
176
     1
 62
     7
176
     1
 40
1.0
176
     1
 90
        1
176
     1
 90
        6
176
     1
 90
        2
176
     1
 62
     7
176
     1
 90
        5
176
     1
 90
        0
176
     1
 90
        0
176
     1
290
     0
176
     1
 90
       13
176
     1
 40
0.0
176
     1
 90
        0
176
     1
290
     0
176
     1
290
     1
176
     1
290
     1
176
     1
290
     0
176
     1
290
     0
176
     1
290
     0
176
     1
290
     0
176
     1
290
     0
176
     1
290
     0
176
     1
 90
       50
176
     1
 40
0.0
176
     1
 40
1.0
176
     1
 90
        0
176
     1
 62
    18
420
        0
176
     1
 90
       50
176
     1
 90
        3
176
     1
 62
     5
420
      255
176
     1
290
     0
176
     1
 90
       50
176
     1
 90
       50
176
     1
 90
       50
176
     1
290
     0
176
     1
 90
       50
176
     1
 62
   256
176
     0
 40
1.0
176
     0
 90
        2
176
     1
  1
strokes_ogs.tif
176
     1
290
     0
176
     1
 40
1.0
176
     1
 40
1.0
176
     1
  0
VISUALSTYLE
  5
194E1
102
{ACAD_REACTORS
330
194DD
102
}
330
194DD
100
AcDbVisualStyle
  2
GouraudWithEdges
 70
     3
177
     3
291
     1
 70
    58
 90
        2
176
     1
 90
        2
176
     1
 90
        1
176
     1
 90
        2
176
     1
 40
0.6
176
     1
 40
30.0
176
     1
 62
     7
420
 16777215
176
     1
 90
        1
176
     1
 90
        0
176
     1
 62
     7
176
     1
 62
   257
176
     1
 90
        1
176
     1
 90
        1
176
     1
 40
1.0
176
     1
 90
        0
176
     1
 62
   257
176
     1
 40
1.0
176
     1
 90
        1
176
     1
 90
        6
176
     1
 90
        2
176
     1
 62
     7
176
     1
 90
        5
176
     1
 90
        0
176
     1
 90
        0
176
     1
290
     0
176
     1
 90
       13
176
     1
 40
0.0
176
     1
 90
        0
176
     1
290
     0
176
     1
290
     1
176
     1
290
     1
176
     1
290
     0
176
     1
290
     0
176
     1
290
     0
176
     1
290
     0
176
     1
290
     0
176
     1
290
     0
176
     1
 90
       50
176
     1
 40
0.0
176
     1
 40
1.0
176
     1
 90
        0
176
     1
 62
    18
420
        0
176
     1
 90
       50
176
     1
 90
        3
176
     1
 62
     5
420
      255
176
     1
290
     0
176
     1
 90
       50
176
     1
 90
       50
176
     1
 90
       50
176
     1
290
     0
176
     1
 90
       50
176
     1
 62
   256
176
     0
 40
1.0
176
     0
 90
        2
176
     1
  1
strokes_ogs.tif
176
     1
290
     0
176
     1
 40
1.0
176
     1
 40
1.0
176
     1
  0
VISUALSTYLE
  5
194E4
102
{ACAD_REACTORS
330
194DD
102
}
330
194DD
100
AcDbVisualStyle
  2
Hidden
 70
     6
177
     3
291
     0
 70
    58
 90
        1
176
     1
 90
        2
176
     1
 90
        2
176
     1
 90
        0
176
     1
 40
0.6
176
     1
 40
30.0
176
     1
 62
     7
420
 16777215
176
     1
 90
        2
176
     1
 90
        2
176
     1
 62
     7
176
     1
 62
   257
176
     1
 90
        2
176
     1
 90
        1
176
     1
 40
40.0
176
     1
 90
        0
176
     1
 62
   257
176
     1
 40
1.0
176
     1
 90
        1
176
     1
 90
        6
176
     1
 90
        2
176
     1
 62
     7
176
     1
 90
        3
176
     1
 90
        0
176
     1
 90
        0
176
     1
290
     0
176
     1
 90
        1
176
     1
 40
0.0
176
     1
 90
        0
176
     1
290
     0
176
     1
290
     1
176
     1
290
     1
176
     1
290
     0
176
     1
290
     0
176
     1
290
     0
176
     1
290
     0
176
     1
290
     0
176
     1
290
     0
176
     1
 90
       50
176
     1
 40
0.0
176
     1
 40
1.0
176
     1
 90
        0
176
     1
 62
    18
420
        0
176
     1
 90
       50
176
     1
 90
        3
176
     1
 62
     5
420
      255
176
     1
290
     0
176
     1
 90
       50
176
     1
 90
       50
176
     1
 90
       50
176
     1
290
     0
176
     1
 90
       50
176
     1
 62
   256
176
     0
 40
1.0
176
     0
 90
        2
176
     1
  1
strokes_ogs.tif
176
     1
290
     0
176
     1
 40
1.0
176
     1
 40
1.0
176
     1
  0
VISUALSTYLE
  5
194EE
102
{ACAD_REACTORS
330
194DD
102
}
330
194DD
100
AcDbVisualStyle
  2
JitterOff
 70
    20
177
     3
291
     1
 70
    58
 90
        2
176
     0
 90
        2
176
     0
 90
        0
176
     0
 90
        0
176
     0
 40
0.6
176
     0
 40
30.0
176
     0
 62
     7
420
 16777215
176
     0
 90
        1
176
     0
 90
        4
176
     0
 62
     7
176
     0
 62
   257
176
     0
 90
        1
176
     0
 90
        1
176
     0
 40
1.0
176
     0
 90
       10
176
     2
 62
     7
176
     0
 40
1.0
176
     0
 90
        1
176
     0
 90
        6
176
     0
 90
        2
176
     0
 62
     7
176
     0
 90
        5
176
     0
 90
        0
176
     0
 90
        0
176
     0
290
     0
176
     0
 90
        1
176
     0
 40
0.0
176
     0
 90
        0
176
     0
290
     0
176
     0
290
     1
176
     0
290
     1
176
     0
290
     0
176
     0
290
     0
176
     0
290
     0
176
     0
290
     0
176
     0
290
     0
176
     0
290
     0
176
     0
 90
       50
176
     0
 40
0.0
176
     0
 40
1.0
176
     0
 90
        0
176
     0
 62
    18
420
        0
176
     0
 90
       50
176
     0
 90
        3
176
     0
 62
     5
420
      255
176
     0
290
     0
176
     0
 90
       50
176
     0
 90
       50
176
     0
 90
       50
176
     0
290
     0
176
     0
 90
       50
176
     0
 62
   256
176
     0
 40
1.0
176
     0
 90
        2
176
     0
  1
strokes_ogs.tif
176
     0
290
     0
176
     0
 40
1.0
176
     0
 40
1.0
176
     0
  0
VISUALSTYLE
  5
194EB
102
{ACAD_REACTORS
330
194DD
102
}
330
194DD
100
AcDbVisualStyle
  2
Linepattern
 70
    14
177
     3
291
     1
 70
    58
 90
        2
176
     1
 90
        2
176
     1
 90
        0
176
     1
 90
        0
176
     1
 40
0.6
176
     1
 40
30.0
176
     1
 62
     7
420
 16777215
176
     1
 90
        1
176
     1
 90
        4
176
     1
 62
     7
176
     1
 62
   257
176
     1
 90
        7
176
     1
 90
        7
176
     1
 40
1.0
176
     1
 90
        8
176
     1
 62
     7
176
     1
 40
1.0
176
     1
 90
        1
176
     1
 90
        6
176
     1
 90
        2
176
     1
 62
     7
176
     1
 90
        5
176
     1
 90
        0
176
     1
 90
        0
176
     1
290
     0
176
     1
 90
        1
176
     1
 40
0.0
176
     1
 90
        0
176
     1
290
     0
176
     1
290
     1
176
     1
290
     1
176
     1
290
     0
176
     1
290
     0
176
     1
290
     0
176
     1
290
     0
176
     1
290
     0
176
     1
290
     0
176
     1
 90
       50
176
     1
 40
0.0
176
     1
 40
1.0
176
     1
 90
        0
176
     1
 62
    18
420
        0
176
     1
 90
       50
176
     1
 90
        3
176
     1
 62
     5
420
      255
176
     1
290
     0
176
     1
 90
       50
176
     1
 90
       50
176
     1
 90
       50
176
     1
290
     0
176
     1
 90
       50
176
     1
 62
   256
176
     0
 40
1.0
176
     0
 90
        2
176
     1
  1
strokes_ogs.tif
176
     1
290
     0
176
     1
 40
1.0
176
     1
 40
1.0
176
     1
  0
VISUALSTYLE
  5
194EF
102
{ACAD_REACTORS
330
194DD
102
}
330
194DD
100
AcDbVisualStyle
  2
OverhangOff
 70
    21
177
     3
291
     1
 70
    58
 90
        2
176
     0
 90
        2
176
     0
 90
        0
176
     0
 90
        0
176
     0
 40
0.6
176
     0
 40
30.0
176
     0
 62
     7
420
 16777215
176
     0
 90
        1
176
     0
 90
        4
176
     0
 62
     7
176
     0
 62
   257
176
     0
 90
        1
176
     0
 90
        1
176
     0
 40
1.0
176
     0
 90
        9
176
     2
 62
     7
176
     0
 40
1.0
176
     0
 90
        1
176
     0
 90
        6
176
     0
 90
        2
176
     0
 62
     7
176
     0
 90
        5
176
     0
 90
        0
176
     0
 90
        0
176
     0
290
     0
176
     0
 90
        1
176
     0
 40
0.0
176
     0
 90
        0
176
     0
290
     0
176
     0
290
     1
176
     0
290
     1
176
     0
290
     0
176
     0
290
     0
176
     0
290
     0
176
     0
290
     0
176
     0
290
     0
176
     0
290
     0
176
     0
 90
       50
176
     0
 40
0.0
176
     0
 40
1.0
176
     0
 90
        0
176
     0
 62
    18
420
        0
176
     0
 90
       50
176
     0
 90
        3
176
     0
 62
     5
420
      255
176
     0
290
     0
176
     0
 90
       50
176
     0
 90
       50
176
     0
 90
       50
176
     0
290
     0
176
     0
 90
       50
176
     0
 62
   256
176
     0
 40
1.0
176
     0
 90
        2
176
     0
  1
strokes_ogs.tif
176
     0
290
     0
176
     0
 40
1.0
176
     0
 40
1.0
176
     0
  0
VISUALSTYLE
  5
194E6
102
{ACAD_REACTORS
330
194DD
102
}
330
194DD
100
AcDbVisualStyle
  2
Realistic
 70
     8
177
     3
291
     0
 70
    58
 90
        2
176
     1
 90
        3
176
     1
 90
        0
176
     1
 90
        2
176
     1
 40
0.6
176
     1
 40
30.0
176
     1
 62
     7
420
 16777215
176
     1
 90
        0
176
     1
 90
        0
176
     1
 62
     7
176
     1
 62
   257
176
     1
 90
        1
176
     1
 90
        1
176
     1
 40
1.0
176
     1
 90
        8
176
     1
 62
   257
176
     1
 40
1.0
176
     1
 90
        1
176
     1
 90
        6
176
     1
 90
        2
176
     1
 62
     7
176
     1
 90
        3
176
     1
 90
        0
176
     1
 90
        0
176
     1
290
     0
176
     1
 90
       13
176
     1
 40
0.0
176
     1
 90
        0
176
     1
290
     0
176
     1
290
     1
176
     1
290
     1
176
     1
290
     0
176
     1
290
     0
176
     1
290
     0
176
     1
290
     0
176
     1
290
     0
176
     1
290
     0
176
     1
 90
       50
176
     1
 40
0.0
176
     1
 40
1.0
176
     1
 90
        0
176
     1
 62
    18
420
        0
176
     1
 90
       50
176
     1
 90
        3
176
     1
 62
     5
420
      255
176
     1
290
     0
176
     1
 90
       50
176
     1
 90
       50
176
     1
 90
       50
176
     1
290
     0
176
     1
 90
       50
176
     1
 62
   256
176
     0
 40
1.0
176
     0
 90
        2
176
     1
  1
strokes_ogs.tif
176
     1
290
     0
176
     1
 40
1.0
176
     1
 40
1.0
176
     1
  0
VISUALSTYLE
  5
194F5
102
{ACAD_REACTORS
330
194DD
102
}
330
194DD
100
AcDbVisualStyle
  2
Shaded
 70
    27
177
     3
291
     0
 70
    58
 90
        2
176
     1
 90
        2
176
     1
 90
        1
176
     1
 90
        2
176
     1
 40
0.6
176
     1
 40
30.0
176
     1
 62
     7
420
 16777215
176
     1
 90
        0
176
     1
 90
        4
176
     1
 62
     7
176
     1
 62
   257
176
     1
 90
        1
176
     1
 90
        1
176
     1
 40
1.0
176
     1
 90
        8
176
     1
 62
   257
176
     1
 40
1.0
176
     1
 90
        1
176
     1
 90
        6
176
     1
 90
        2
176
     1
 62
     8
420
  7895160
176
     1
 90
        3
176
     1
 90
        0
176
     1
 90
        0
176
     1
290
     0
176
     1
 90
        5
176
     1
 40
0.0
176
     1
 90
        0
176
     1
290
     0
176
     1
290
     1
176
     1
290
     1
176
     1
290
     0
176
     1
290
     0
176
     1
290
     0
176
     1
290
     0
176
     1
290
     0
176
     1
290
     0
176
     1
 90
       50
176
     1
 40
0.0
176
     1
 40
1.0
176
     1
 90
        0
176
     1
 62
    18
420
        0
176
     1
 90
       50
176
     1
 90
        3
176
     1
 62
     5
420
      255
176
     1
290
     0
176
     1
 90
       50
176
     1
 90
       50
176
     1
 90
       50
176
     1
290
     0
176
     1
 90
       50
176
     1
 62
   256
176
     0
 40
1.0
176
     0
 90
        2
176
     1
  1
strokes_ogs.tif
176
     1
290
     0
176
     1
 40
1.0
176
     1
 40
1.0
176
     1
  0
VISUALSTYLE
  5
194F4
102
{ACAD_REACTORS
330
194DD
102
}
330
194DD
100
AcDbVisualStyle
  2
Shaded with edges
 70
    26
177
     3
291
     0
 70
    58
 90
        2
176
     1
 90
        2
176
     1
 90
        1
176
     1
 90
        2
176
     1
 40
0.6
176
     1
 40
30.0
176
     1
 62
     7
420
 16777215
176
     1
 90
        1
176
     1
 90
       10
176
     1
 62
     7
176
     1
 62
   257
176
     1
 90
        2
176
     1
 90
        1
176
     1
 40
1.0
176
     1
 90
        8
176
     1
 62
   257
176
     1
 40
1.0
176
     1
 90
        1
176
     1
 90
        6
176
     1
 90
        2
176
     1
 62
     7
176
     1
 90
        3
176
     1
 90
        0
176
     1
 90
        0
176
     1
290
     0
176
     1
 90
        5
176
     1
 40
0.0
176
     1
 90
        0
176
     1
290
     0
176
     1
290
     1
176
     1
290
     1
176
     1
290
     0
176
     1
290
     0
176
     1
290
     0
176
     1
290
     0
176
     1
290
     0
176
     1
290
     0
176
     1
 90
       50
176
     1
 40
0.0
176
     1
 40
1.0
176
     1
 90
        0
176
     1
 62
    18
420
        0
176
     1
 90
       50
176
     1
 90
        3
176
     1
 62
     5
420
      255
176
     1
290
     0
176
     1
 90
       50
176
     1
 90
       50
176
     1
 90
       50
176
     1
290
     0
176
     1
 90
       50
176
     1
 62
   256
176
     0
 40
1.0
176
     0
 90
        2
176
     1
  1
strokes_ogs.tif
176
     1
290
     0
176
     1
 40
1.0
176
     1
 40
1.0
176
     1
  0
VISUALSTYLE
  5
194F1
102
{ACAD_REACTORS
330
194DD
102
}
330
194DD
100
AcDbVisualStyle
  2
Shades of Gray
 70
    23
177
     3
291
     0
 70
    58
 90
        2
176
     1
 90
        2
176
     1
 90
        3
176
     1
 90
        0
176
     1
 40
0.6
176
     1
 40
30.0
176
     1
 62
     7
420
 16777215
176
     1
 90
        2
176
     1
 90
        2
176
     1
 62
     7
176
     1
 62
     7
176
     1
 90
        1
176
     1
 90
        1
176
     1
 40
40.0
176
     1
 90
        8
176
     1
 62
     7
176
     1
 40
1.0
176
     1
 90
        1
176
     1
 90
        6
176
     1
 90
        2
176
     1
 62
     7
176
     1
 90
        3
176
     1
 90
        0
176
     1
 90
        0
176
     1
290
     0
176
     1
 90
        1
176
     1
 40
0.0
176
     1
 90
        0
176
     1
290
     0
176
     1
290
     1
176
     1
290
     1
176
     1
290
     0
176
     1
290
     0
176
     1
290
     0
176
     1
290
     0
176
     1
290
     0
176
     1
290
     0
176
     1
 90
       50
176
     1
 40
0.0
176
     1
 40
1.0
176
     1
 90
        0
176
     1
 62
    18
420
        0
176
     1
 90
       50
176
     1
 90
        3
176
     1
 62
     5
420
      255
176
     1
290
     0
176
     1
 90
       50
176
     1
 90
       50
176
     1
 90
       50
176
     1
290
     0
176
     1
 90
       50
176
     1
 62
   256
176
     0
 40
1.0
176
     0
 90
        2
176
     1
  1
strokes_ogs.tif
176
     1
290
     0
176
     1
 40
1.0
176
     1
 40
1.0
176
     1
  0
VISUALSTYLE
  5
194F2
102
{ACAD_REACTORS
330
194DD
102
}
330
194DD
100
AcDbVisualStyle
  2
Sketchy
 70
    24
177
     3
291
     0
 70
    58
 90
        1
176
     1
 90
        2
176
     1
 90
        2
176
     1
 90
        0
176
     1
 40
0.6
176
     1
 40
30.0
176
     1
 62
     7
420
 16777215
176
     1
 90
        2
176
     1
 90
        2
176
     1
 62
     7
176
     1
 62
     7
176
     1
 90
        1
176
     1
 90
        1
176
     1
 40
40.0
176
     1
 90
       11
176
     1
 62
     7
176
     1
 40
1.0
176
     1
 90
        1
176
     1
 90
        6
176
     1
 90
        2
176
     1
 62
     7
176
     1
 90
        6
176
     1
 90
        0
176
     1
 90
        0
176
     1
290
     0
176
     1
 90
        1
176
     1
 40
0.0
176
     1
 90
        0
176
     1
290
     0
176
     1
290
     1
176
     1
290
     1
176
     1
290
     0
176
     1
290
     0
176
     1
290
     0
176
     1
290
     0
176
     1
290
     0
176
     1
290
     0
176
     1
 90
       50
176
     1
 40
0.0
176
     1
 40
1.0
176
     1
 90
        0
176
     1
 62
    18
420
        0
176
     1
 90
       50
176
     1
 90
        3
176
     1
 62
     5
420
      255
176
     1
290
     0
176
     1
 90
       50
176
     1
 90
       50
176
     1
 90
       50
176
     1
290
     0
176
     1
 90
       50
176
     1
 62
   256
176
     0
 40
1.0
176
     0
 90
        2
176
     1
  1
strokes_ogs.tif
176
     1
290
     0
176
     1
 40
1.0
176
     1
 40
1.0
176
     1
  0
VISUALSTYLE
  5
194EA
102
{ACAD_REACTORS
330
194DD
102
}
330
194DD
100
AcDbVisualStyle
  2
Thicken
 70
    13
177
     3
291
     1
 70
    58
 90
        2
176
     1
 90
        2
176
     1
 90
        0
176
     1
 90
        0
176
     1
 40
0.6
176
     1
 40
30.0
176
     1
 62
     7
420
 16777215
176
     1
 90
        1
176
     1
 90
        4
176
     1
 62
     7
176
     1
 62
   257
176
     1
 90
        1
176
     1
 90
        1
176
     1
 40
1.0
176
     1
 90
       12
176
     1
 62
     7
176
     1
 40
1.0
176
     1
 90
        1
176
     1
 90
        6
176
     1
 90
        2
176
     1
 62
     7
176
     1
 90
        5
176
     1
 90
        0
176
     1
 90
        0
176
     1
290
     0
176
     1
 90
        1
176
     1
 40
0.0
176
     1
 90
        0
176
     1
290
     0
176
     1
290
     1
176
     1
290
     1
176
     1
290
     0
176
     1
290
     0
176
     1
290
     0
176
     1
290
     0
176
     1
290
     0
176
     1
290
     0
176
     1
 90
       50
176
     1
 40
0.0
176
     1
 40
1.0
176
     1
 90
        0
176
     1
 62
    18
420
        0
176
     1
 90
       50
176
     1
 90
        3
176
     1
 62
     5
420
      255
176
     1
290
     0
176
     1
 90
       50
176
     1
 90
       50
176
     1
 90
       50
176
     1
290
     0
176
     1
 90
       50
176
     1
 62
   256
176
     0
 40
1.0
176
     0
 90
        2
176
     1
  1
strokes_ogs.tif
176
     1
290
     0
176
     1
 40
1.0
176
     1
 40
1.0
176
     1
  0
VISUALSTYLE
  5
194E3
102
{ACAD_REACTORS
330
194DD
102
}
330
194DD
100
AcDbVisualStyle
  2
Wireframe
 70
     5
177
     3
291
     0
 70
    58
 90
        0
176
     1
 90
        2
176
     1
 90
        0
176
     1
 90
        0
176
     1
 40
0.6
176
     1
 40
30.0
176
     1
 62
     7
420
 16777215
176
     1
 90
        1
176
     1
 90
        4
176
     1
 62
     7
176
     1
 62
   257
176
     1
 90
        1
176
     1
 90
        1
176
     1
 40
1.0
176
     1
 90
        0
176
     1
 62
   257
176
     1
 40
1.0
176
     1
 90
        1
176
     1
 90
        6
176
     1
 90
        2
176
     1
 62
     7
176
     1
 90
        3
176
     1
 90
        0
176
     1
 90
        0
176
     1
290
     0
176
     1
 90
        1
176
     1
 40
0.0
176
     1
 90
        0
176
     1
290
     0
176
     1
290
     1
176
     1
290
     1
176
     1
290
     0
176
     1
290
     0
176
     1
290
     0
176
     1
290
     0
176
     1
290
     0
176
     1
290
     0
176
     1
 90
       50
176
     1
 40
0.0
176
     1
 40
1.0
176
     1
 90
        0
176
     1
 62
    18
420
        0
176
     1
 90
       50
176
     1
 90
        3
176
     1
 62
     5
420
      255
176
     1
290
     0
176
     1
 90
       50
176
     1
 90
       50
176
     1
 90
       50
176
     1
290
     0
176
     1
 90
       50
176
     1
 62
   256
176
     0
 40
1.0
176
     0
 90
        2
176
     1
  1
strokes_ogs.tif
176
     1
290
     0
176
     1
 40
1.0
176
     1
 40
1.0
176
     1
  0
VISUALSTYLE
  5
194F3
102
{ACAD_REACTORS
330
194DD
102
}
330
194DD
100
AcDbVisualStyle
  2
X-Ray
 70
    25
177
     3
291
     0
 70
    58
 90
        2
176
     1
 90
        2
176
     1
 90
        1
176
     1
 90
        1
176
     1
 40
0.5
176
     1
 40
30.0
176
     1
 62
     7
420
 16777215
176
     1
 90
        1
176
     1
 90
        0
176
     1
 62
     7
176
     1
 62
   257
176
     1
 90
        1
176
     1
 90
        1
176
     1
 40
1.0
176
     1
 90
        8
176
     1
 62
     7
176
     1
 40
1.0
176
     1
 90
        1
176
     1
 90
        6
176
     1
 90
        2
176
     1
 62
     7
176
     1
 90
        3
176
     1
 90
        0
176
     1
 90
        0
176
     1
290
     0
176
     1
 90
       13
176
     1
 40
0.0
176
     1
 90
        0
176
     1
290
     0
176
     1
290
     1
176
     1
290
     1
176
     1
290
     0
176
     1
290
     0
176
     1
290
     0
176
     1
290
     0
176
     1
290
     0
176
     1
290
     0
176
     1
 90
       50
176
     1
 40
0.0
176
     1
 40
1.0
176
     1
 90
        0
176
     1
 62
    18
420
        0
176
     1
 90
       50
176
     1
 90
        3
176
     1
 62
     5
420
      255
176
     1
290
     0
176
     1
 90
       50
176
     1
 90
       50
176
     1
 90
       50
176
     1
290
     0
176
     1
 90
       50
176
     1
 62
   256
176
     0
 40
1.0
176
     0
 90
        2
176
     1
  1
strokes_ogs.tif
176
     1
290
     0
176
     1
 40
1.0
176
     1
 40
1.0
176
     1
  0
DICTIONARYVAR
  5
195A7
102
{ACAD_REACTORS
330
195A6
102
}
330
195A6
100
DictionaryVariables
280
     0
  1
1:1
  0
DICTIONARYVAR
  5
195AC
102
{ACAD_REACTORS
330
195A6
102
}
330
195A6
100
DictionaryVariables
280
     0
  1
Standard
  0
DICTIONARYVAR
  5
195AB
102
{ACAD_REACTORS
330
195A6
102
}
330
195A6
100
DictionaryVariables
280
     0
  1
Standard
  0
XRECORD
  5
19524
102
{ACAD_REACTORS
330
19522
102
}
330
19522
100
AcDbXrecord
280
     1
1000
GCodeMM
  0
XRECORD
  5
19525
102
{ACAD_REACTORS
330
19522
102
}
330
19522
100
AcDbXrecord
280
     1
1000
#ffffff
  0
XRECORD
  5
19526
102
{ACAD_REACTORS
330
19522
102
}
330
19522
100
AcDbXrecord
280
     1
1000
Grayscale
  0
XRECORD
  5
19527
102
{ACAD_REACTORS
330
19522
102
}
330
19522
100
AcDbXrecord
280
     1
 90
        0
  0
XRECORD
  5
19528
102
{ACAD_REACTORS
330
19522
102
}
330
19522
100
AcDbXrecord
280
     1
 90
        2
  0
XRECORD
  5
19529
102
{ACAD_REACTORS
330
19522
102
}
330
19522
100
AcDbXrecord
280
     1
 90
       46
  0
XRECORD
  5
1952A
102
{ACAD_REACTORS
330
19522
102
}
330
19522
100
AcDbXrecord
280
     1
1000

  0
XRECORD
  5
1952B
102
{ACAD_REACTORS
330
19522
102
}
330
19522
100
AcDbXrecord
280
     1
290
     1
  0
XRECORD
  5
1952C
102
{ACAD_REACTORS
330
19522
102
}
330
19522
100
AcDbXrecord
280
     1
 90
        2
  0
XRECORD
  5
1952D
102
{ACAD_REACTORS
330
19522
102
}
330
19522
100
AcDbXrecord
280
     1
 90
        2
  0
XRECORD
  5
1952E
102
{ACAD_REACTORS
330
19522
102
}
330
19522
100
AcDbXrecord
280
     1
290
     0
  0
XRECORD
  5
1952F
102
{ACAD_REACTORS
330
19522
102
}
330
19522
100
AcDbXrecord
280
     1
290
     1
  0
XRECORD
  5
19530
102
{ACAD_REACTORS
330
19522
102
}
330
19522
100
AcDbXrecord
280
     1
290
     1
  0
XRECORD
  5
19531
102
{ACAD_REACTORS
330
19522
102
}
330
19522
100
AcDbXrecord
280
     1
290
     1
  0
XRECORD
  5
19532
102
{ACAD_REACTORS
330
19522
102
}
330
19522
100
AcDbXrecord
280
     1
1000
auto
  0
XRECORD
  5
19533
102
{ACAD_REACTORS
330
19522
102
}
330
19522
100
AcDbXrecord
280
     1
1000
auto
  0
XRECORD
  5
19534
102
{ACAD_REACTORS
330
19522
102
}
330
19522
100
AcDbXrecord
280
     1
1000
auto
  0
XRECORD
  5
19535
102
{ACAD_REACTORS
330
19522
102
}
330
19522
100
AcDbXrecord
280
     1
1000
auto
  0
XRECORD
  5
19536
102
{ACAD_REACTORS
330
19522
102
}
330
19522
100
AcDbXrecord
280
     1
1000
auto
  0
XRECORD
  5
19537
102
{ACAD_REACTORS
330
19522
102
}
330
19522
100
AcDbXrecord
280
     1
1000
auto
  0
XRECORD
  5
19538
102
{ACAD_REACTORS
330
19522
102
}
330
19522
100
AcDbXrecord
280
     1
1000
auto
  0
XRECORD
  5
19539
102
{ACAD_REACTORS
330
19522
102
}
330
19522
100
AcDbXrecord
280
     1
1000
auto
  0
XRECORD
  5
1953A
102
{ACAD_REACTORS
330
19522
102
}
330
19522
100
AcDbXrecord
280
     1
290
     0
  0
XRECORD
  5
1953B
102
{ACAD_REACTORS
330
19522
102
}
330
19522
100
AcDbXrecord
280
     1
290
     0
  0
XRECORD
  5
1953C
102
{ACAD_REACTORS
330
19522
102
}
330
19522
100
AcDbXrecord
280
     1
290
     0
  0
XRECORD
  5
1953D
102
{ACAD_REACTORS
330
19522
102
}
330
19522
100
AcDbXrecord
280
     1
290
     0
  0
XRECORD
  5
1953E
102
{ACAD_REACTORS
330
19522
102
}
330
19522
100
AcDbXrecord
280
     1
 90
    65552
  0
XRECORD
  5
1953F
102
{ACAD_REACTORS
330
19522
102
}
330
19522
100
AcDbXrecord
280
     1
 90
    65537
  0
XRECORD
  5
19540
102
{ACAD_REACTORS
330
19522
102
}
330
19522
100
AcDbXrecord
280
     1
 90
    65537
  0
XRECORD
  5
19541
102
{ACAD_REACTORS
330
19522
102
}
330
19522
100
AcDbXrecord
280
     1
 90
    65537
  0
XRECORD
  5
19542
102
{ACAD_REACTORS
330
19522
102
}
330
19522
100
AcDbXrecord
280
     1
1000
auto
  0
XRECORD
  5
19543
102
{ACAD_REACTORS
330
19522
102
}
330
19522
100
AcDbXrecord
280
     1
1000
auto
  0
XRECORD
  5
19544
102
{ACAD_REACTORS
330
19522
102
}
330
19522
100
AcDbXrecord
280
     1
1000
auto
  0
XRECORD
  5
19545
102
{ACAD_REACTORS
330
19522
102
}
330
19522
100
AcDbXrecord
280
     1
1000
auto
  0
XRECORD
  5
19546
102
{ACAD_REACTORS
330
19522
102
}
330
19522
100
AcDbXrecord
280
     1
1000
auto
  0
XRECORD
  5
19547
102
{ACAD_REACTORS
330
19522
102
}
330
19522
100
AcDbXrecord
280
     1
1000
auto
  0
XRECORD
  5
19548
102
{ACAD_REACTORS
330
19522
102
}
330
19522
100
AcDbXrecord
280
     1
1000
auto
  0
XRECORD
  5
19549
102
{ACAD_REACTORS
330
19522
102
}
330
19522
100
AcDbXrecord
280
     1
1000
auto
  0
XRECORD
  5
1954A
102
{ACAD_REACTORS
330
19522
102
}
330
19522
100
AcDbXrecord
280
     1
 90
        1
  0
XRECORD
  5
1954B
102
{ACAD_REACTORS
330
19522
102
}
330
19522
100
AcDbXrecord
280
     1
 40
10.0
  0
XRECORD
  5
1954C
102
{ACAD_REACTORS
330
19522
102
}
330
19522
100
AcDbXrecord
280
     1
 40
10.0
  0
XRECORD
  5
1954D
102
{ACAD_REACTORS
330
19522
102
}
330
19522
100
AcDbXrecord
280
     1
 40
10.0
  0
XRECORD
  5
1954E
102
{ACAD_REACTORS
330
19522
102
}
330
19522
100
AcDbXrecord
280
     1
 40
10.0
  0
XRECORD
  5
1954F
102
{ACAD_REACTORS
330
19522
102
}
330
19522
100
AcDbXrecord
280
     1
290
     0
  0
XRECORD
  5
19550
102
{ACAD_REACTORS
330
19522
102
}
330
19522
100
AcDbXrecord
280
     1
 90
        1
  0
XRECORD
  5
19551
102
{ACAD_REACTORS
330
19522
102
}
330
19522
100
AcDbXrecord
280
     1
1000
3123.3
  0
XRECORD
  5
19552
102
{ACAD_REACTORS
330
19522
102
}
330
19522
100
AcDbXrecord
280
     1
1000
-1008.6
  0
XRECORD
  5
19553
102
{ACAD_REACTORS
330
19522
102
}
330
19522
100
AcDbXrecord
280
     1
1000
Landscape
  0
XRECORD
  5
19554
102
{ACAD_REACTORS
330
19522
102
}
330
19522
100
AcDbXrecord
280
     1
 40
297.0
  0
XRECORD
  5
19555
102
{ACAD_REACTORS
330
19522
102
}
330
19522
100
AcDbXrecord
280
     1
1000
ISO A4
  0
XRECORD
  5
19556
102
{ACAD_REACTORS
330
19522
102
}
330
19522
100
AcDbXrecord
280
     1
 40
210.0
  0
XRECORD
  5
19557
102
{ACAD_REACTORS
330
19522
102
}
330
19522
100
AcDbXrecord
280
     1
1000
0.5
  0
XRECORD
  5
19558
102
{ACAD_REACTORS
330
19522
102
}
330
19522
100
AcDbXrecord
280
     1
1000
1:4
  0
XRECORD
  5
19559
102
{ACAD_REACTORS
330
19522
102
}
330
19522
100
AcDbXrecord
280
     1
290
     1
  0
XRECORD
  5
1955A
102
{ACAD_REACTORS
330
19522
102
}
330
19522
100
AcDbXrecord
280
     1
1000
3.21.3
  0
XRECORD
  5
1955B
102
{ACAD_REACTORS
330
19522
102
}
330
19522
100
AcDbXrecord
280
     1
 90
        4
  0
XRECORD
  5
1955C
102
{ACAD_REACTORS
330
19522
102
}
330
19522
100
AcDbXrecord
280
     1
  0
XRECORD
  5
1955D
102
{ACAD_REACTORS
330
19522
102
}
330
19522
100
AcDbXrecord
280
     1
 40
881.7418533604905
  0
XRECORD
  5
1955E
102
{ACAD_REACTORS
330
19522
102
}
330
19522
100
AcDbXrecord
280
     1
 40
1593.980651731164
  0
DICTIONARY
  5
195A8
330
1951D
100
AcDbDictionary
280
     1
281
     1
  3
ACAD_ROUNDTRIP_2008_TABLESTYLE_CELLSTYLEMAP
360
195A9
  0
CELLSTYLEMAP
  5
195A9
102
{ACAD_REACTORS
330
195A8
102
}
330
195A8
100
AcDbCellStyleMap
 90
        3
300
CELLSTYLE
  1
TABLEFORMAT_BEGIN
 90
        5
170
     1
 91
        0
 92
    32768
 62
   257
 93
        1
300
CONTENTFORMAT
  1
CONTENTFORMAT_BEGIN
 90
        0
 91
        0
 92
        4
 93
        0
300

 40
0.0
140
1.0
 94
        5
 62
     0
340
194C5
144
0.25
309
CONTENTFORMAT_END
171
     1
301
MARGIN
  1
CELLMARGIN_BEGIN
 40
0.06
 40
0.06
 40
0.06
 40
0.06
 40
0.06
 40
0.06
309
CELLMARGIN_END
 94
        6
 95
        1
302
GRIDFORMAT
  1
GRIDFORMAT_BEGIN
 90
        0
 91
        1
 62
     0
 92
       -2
340
194C7
 93
        0
 40
0.045
309
GRIDFORMAT_END
 95
        2
302
GRIDFORMAT
  1
GRIDFORMAT_BEGIN
 90
        0
 91
        1
 62
     0
 92
       -2
340
194C7
 93
        0
 40
0.045
309
GRIDFORMAT_END
 95
        4
302
GRIDFORMAT
  1
GRIDFORMAT_BEGIN
 90
        0
 91
        1
 62
     0
 92
       -2
340
194C7
 93
        0
 40
0.045
309
GRIDFORMAT_END
 95
        8
302
GRIDFORMAT
  1
GRIDFORMAT_BEGIN
 90
        0
 91
        1
 62
     0
 92
       -2
340
194C7
 93
        0
 40
0.045
309
GRIDFORMAT_END
 95
       16
302
GRIDFORMAT
  1
GRIDFORMAT_BEGIN
 90
        0
 91
        1
 62
     0
 92
       -2
340
194C7
 93
        0
 40
0.045
309
GRIDFORMAT_END
 95
       32
302
GRIDFORMAT
  1
GRIDFORMAT_BEGIN
 90
        0
 91
        1
 62
     0
 92
       -2
340
194C7
 93
        0
 40
0.045
309
GRIDFORMAT_END
309
TABLEFORMAT_END
  1
CELLSTYLE_BEGIN
 90
        1
 91
        1
300
_TITLE
309
CELLSTYLE_END
300
CELLSTYLE
  1
TABLEFORMAT_BEGIN
 90
        5
170
     1
 91
        0
 92
        0
 62
   257
 93
        1
300
CONTENTFORMAT
  1
CONTENTFORMAT_BEGIN
 90
        0
 91
        0
 92
        4
 93
        0
300

 40
0.0
140
1.0
 94
        5
 62
     0
340
194C5
144
0.18
309
CONTENTFORMAT_END
171
     1
301
MARGIN
  1
CELLMARGIN_BEGIN
 40
0.06
 40
0.06
 40
0.06
 40
0.06
 40
0.06
 40
0.06
309
CELLMARGIN_END
 94
        6
 95
        1
302
GRIDFORMAT
  1
GRIDFORMAT_BEGIN
 90
        0
 91
        1
 62
     0
 92
       -2
340
194C7
 93
        0
 40
0.045
309
GRIDFORMAT_END
 95
        2
302
GRIDFORMAT
  1
GRIDFORMAT_BEGIN
 90
        0
 91
        1
 62
     0
 92
       -2
340
194C7
 93
        0
 40
0.045
309
GRIDFORMAT_END
 95
        4
302
GRIDFORMAT
  1
GRIDFORMAT_BEGIN
 90
        0
 91
        1
 62
     0
 92
       -2
340
194C7
 93
        0
 40
0.045
309
GRIDFORMAT_END
 95
        8
302
GRIDFORMAT
  1
GRIDFORMAT_BEGIN
 90
        0
 91
        1
 62
     0
 92
       -2
340
194C7
 93
        0
 40
0.045
309
GRIDFORMAT_END
 95
       16
302
GRIDFORMAT
  1
GRIDFORMAT_BEGIN
 90
        0
 91
        1
 62
     0
 92
       -2
340
194C7
 93
        0
 40
0.045
309
GRIDFORMAT_END
 95
       32
302
GRIDFORMAT
  1
GRIDFORMAT_BEGIN
 90
        0
 91
        1
 62
     0
 92
       -2
340
194C7
 93
        0
 40
0.045
309
GRIDFORMAT_END
309
TABLEFORMAT_END
  1
CELLSTYLE_BEGIN
 90
        2
 91
        1
300
_HEADER
309
CELLSTYLE_END
300
CELLSTYLE
  1
TABLEFORMAT_BEGIN
 90
        5
170
     1
 91
        0
 92
        0
 62
   257
 93
        1
300
CONTENTFORMAT
  1
CONTENTFORMAT_BEGIN
 90
        0
 91
        0
 92
        4
 93
        0
300

 40
0.0
140
1.0
 94
        2
 62
     0
340
194C5
144
0.18
309
CONTENTFORMAT_END
171
     1
301
MARGIN
  1
CELLMARGIN_BEGIN
 40
0.06
 40
0.06
 40
0.06
 40
0.06
 40
0.06
 40
0.06
309
CELLMARGIN_END
 94
        6
 95
        1
302
GRIDFORMAT
  1
GRIDFORMAT_BEGIN
 90
        0
 91
        1
 62
     0
 92
       -2
340
194C7
 93
        0
 40
0.045
309
GRIDFORMAT_END
 95
        2
302
GRIDFORMAT
  1
GRIDFORMAT_BEGIN
 90
        0
 91
        1
 62
     0
 92
       -2
340
194C7
 93
        0
 40
0.045
309
GRIDFORMAT_END
 95
        4
302
GRIDFORMAT
  1
GRIDFORMAT_BEGIN
 90
        0
 91
        1
 62
     0
 92
       -2
340
194C7
 93
        0
 40
0.045
309
GRIDFORMAT_END
 95
        8
302
GRIDFORMAT
  1
GRIDFORMAT_BEGIN
 90
        0
 91
        1
 62
     0
 92
       -2
340
194C7
 93
        0
 40
0.045
309
GRIDFORMAT_END
 95
       16
302
GRIDFORMAT
  1
GRIDFORMAT_BEGIN
 90
        0
 91
        1
 62
     0
 92
       -2
340
194C7
 93
        0
 40
0.045
309
GRIDFORMAT_END
 95
       32
302
GRIDFORMAT
  1
GRIDFORMAT_BEGIN
 90
        0
 91
        1
 62
     0
 92
       -2
340
194C7
 93
        0
 40
0.045
309
GRIDFORMAT_END
309
TABLEFORMAT_END
  1
CELLSTYLE_BEGIN
 90
        3
 91
        2
300
_DATA
309
CELLSTYLE_END
  0
ENDSEC
  0
EOF
