  0
SECTION
  2
HEADER
  9
$ACADVER
  1
AC1027
  9
$ACADMAINTVER
 70
   105
  9
$DWGCODEPAGE
  3
ANSI_1252
  9
$REQUIREDVERSIONS
160
                 0
  9
$INSBASE
 10
0.0
 20
0.0
 30
0.0
  9
$EXTMIN
 10
1.000000000000000E+20
 20
1.000000000000000E+20
 30
1.000000000000000E+20
  9
$EXTMAX
 10
-1.000000000000000E+20
 20
-1.000000000000000E+20
 30
-1.000000000000000E+20
  9
$LIMMIN
 10
0.0
 20
0.0
  9
$LIMMAX
 10
12.0
 20
9.0
  9
$ORTHOMODE
 70
     0
  9
$REGENMODE
 70
     1
  9
$FILLMODE
 70
     1
  9
$QTEXTMODE
 70
     0
  9
$MIRRTEXT
 70
     1
  9
$LTSCALE
 40
1.0
  9
$ATTMODE
 70
     1
  9
$TEXTSIZE
 40
0.2
  9
$TRACEWID
 40
0.05
  9
$TEXTSTYLE
  7
Standard
  9
$CLAYER
  8
0
  9
$CELTYPE
  6
ByLayer
  9
$CECOLOR
 62
    18
  9
$CELTSCALE
 40
1.0
  9
$DISPSILH
 70
     0
  9
$DIMSCALE
 40
1.0
  9
$DIMASZ
 40
25.0
  9
$DIMEXO
 40
6.25
  9
$DIMDLI
 40
0.38
  9
$DIMRND
 40
0.0
  9
$DIMDLE
 40
0.0
  9
$DIMEXE
 40
12.5
  9
$DIMTP
 40
0.0
  9
$DIMTM
 40
0.0
  9
$DIMTXT
 40
25.0
  9
$DIMCEN
 40
0.09
  9
$DIMTSZ
 40
0.0
  9
$DIMTOL
 70
     0
  9
$DIMLIM
 70
     0
  9
$DIMTIH
 70
     1
  9
$DIMTOH
 70
     1
  9
$DIMSE1
 70
     0
  9
$DIMSE2
 70
     0
  9
$DIMTAD
 70
     0
  9
$DIMZIN
 70
     8
  9
$DIMBLK
  1

  9
$DIMASO
 70
     1
  9
$DIMSHO
 70
     1
  9
$DIMPOST
  1

  9
$DIMAPOST
  1

  9
$DIMALT
 70
     0
  9
$DIMALTD
 70
     2
  9
$DIMALTF
 40
25.4
  9
$DIMLFAC
 40
1.0
  9
$DIMTOFL
 70
     0
  9
$DIMTVP
 40
0.0
  9
$DIMTIX
 70
     0
  9
$DIMSOXD
 70
     0
  9
$DIMSAH
 70
     0
  9
$DIMBLK1
  1

  9
$DIMBLK2
  1

  9
$DIMSTYLE
  2
Standard
  9
$DIMCLRD
 70
    18
  9
$DIMCLRE
 70
    18
  9
$DIMCLRT
 70
    18
  9
$DIMTFAC
 40
1.0
  9
$DIMGAP
 40
6.25
  9
$DIMJUST
 70
     0
  9
$DIMSD1
 70
     0
  9
$DIMSD2
 70
     0
  9
$DIMTOLJ
 70
     1
  9
$DIMTZIN
 70
     0
  9
$DIMALTZ
 70
     0
  9
$DIMALTTZ
 70
     0
  9
$DIMUPT
 70
     0
  9
$DIMDEC
 70
     4
  9
$DIMTDEC
 70
     4
  9
$DIMALTU
 70
     2
  9
$DIMALTTD
 70
     2
  9
$DIMTXSTY
  7
Standard
  9
$DIMAUNIT
 70
     0
  9
$DIMADEC
 70
     0
  9
$DIMALTRND
 40
0.0
  9
$DIMAZIN
 70
     2
  9
$DIMDSEP
 70
    46
  9
$DIMATFIT
 70
     3
  9
$DIMFRAC
 70
     0
  9
$DIMLDRBLK
  1

  9
$DIMLUNIT
 70
     2
  9
$DIMLWD
 70
    -2
  9
$DIMLWE
 70
    -2
  9
$DIMTMOVE
 70
     0
  9
$DIMFXL
 40
1.0
  9
$DIMFXLON
 70
     0
  9
$DIMJOGANG
 40
0.7853981633974483
  9
$DIMTFILL
 70
     0
  9
$DIMTFILLCLR
 70
     0
  9
$DIMARCSYM
 70
     0
  9
$DIMLTYPE
  6

  9
$DIMLTEX1
  6

  9
$DIMLTEX2
  6

  9
$DIMTXTDIRECTION
 70
     0
  9
$LUNITS
 70
     2
  9
$LUPREC
 70
     4
  9
$SKETCHINC
 40
0.1
  9
$FILLETRAD
 40
0.5
  9
$AUNITS
 70
     0
  9
$AUPREC
 70
     0
  9
$MENU
  1
.
  9
$ELEVATION
 40
0.0
  9
$PELEVATION
 40
0.0
  9
$THICKNESS
 40
0.0
  9
$LIMCHECK
 70
     0
  9
$CHAMFERA
 40
0.0
  9
$CHAMFERB
 40
0.0
  9
$CHAMFERC
 40
0.0
  9
$CHAMFERD
 40
0.0
  9
$SKPOLY
 70
     0
  9
$TDCREATE
 40
2459344.876807141
  9
$TDUCREATE
 40
2459344.793473808
  9
$TDUPDATE
 40
2459344.876807315
  9
$TDUUPDATE
 40
2459344.793473981
  9
$TDINDWG
 40
0.0000000116
  9
$TDUSRTIMER
 40
0.0000000116
  9
$USRTIMER
 70
     1
  9
$ANGBASE
 50
0.0
  9
$ANGDIR
 70
     0
  9
$PDMODE
 70
     0
  9
$PDSIZE
 40
0.0
  9
$PLINEWID
 40
0.0
  9
$SPLFRAME
 70
     0
  9
$SPLINETYPE
 70
     6
  9
$SPLINESEGS
 70
     8
  9
$HANDSEED
  5
21C5
  9
$SURFTAB1
 70
     6
  9
$SURFTAB2
 70
     6
  9
$SURFTYPE
 70
     6
  9
$SURFU
 70
     6
  9
$SURFV
 70
     6
  9
$UCSBASE
  2

  9
$UCSNAME
  2

  9
$UCSORG
 10
0.0
 20
0.0
 30
0.0
  9
$UCSXDIR
 10
1.0
 20
0.0
 30
0.0
  9
$UCSYDIR
 10
0.0
 20
1.0
 30
0.0
  9
$UCSORTHOREF
  2

  9
$UCSORTHOVIEW
 70
     0
  9
$UCSORGTOP
 10
0.0
 20
0.0
 30
0.0
  9
$UCSORGBOTTOM
 10
0.0
 20
0.0
 30
0.0
  9
$UCSORGLEFT
 10
0.0
 20
0.0
 30
0.0
  9
$UCSORGRIGHT
 10
0.0
 20
0.0
 30
0.0
  9
$UCSORGFRONT
 10
0.0
 20
0.0
 30
0.0
  9
$UCSORGBACK
 10
0.0
 20
0.0
 30
0.0
  9
$PUCSBASE
  2

  9
$PUCSNAME
  2

  9
$PUCSORG
 10
0.0
 20
0.0
 30
0.0
  9
$PUCSXDIR
 10
1.0
 20
0.0
 30
0.0
  9
$PUCSYDIR
 10
0.0
 20
1.0
 30
0.0
  9
$PUCSORTHOREF
  2

  9
$PUCSORTHOVIEW
 70
     0
  9
$PUCSORGTOP
 10
0.0
 20
0.0
 30
0.0
  9
$PUCSORGBOTTOM
 10
0.0
 20
0.0
 30
0.0
  9
$PUCSORGLEFT
 10
0.0
 20
0.0
 30
0.0
  9
$PUCSORGRIGHT
 10
0.0
 20
0.0
 30
0.0
  9
$PUCSORGFRONT
 10
0.0
 20
0.0
 30
0.0
  9
$PUCSORGBACK
 10
0.0
 20
0.0
 30
0.0
  9
$USERI1
 70
     0
  9
$USERI2
 70
     0
  9
$USERI3
 70
     0
  9
$USERI4
 70
     0
  9
$USERI5
 70
     0
  9
$USERR1
 40
0.0
  9
$USERR2
 40
0.0
  9
$USERR3
 40
0.0
  9
$USERR4
 40
0.0
  9
$USERR5
 40
0.0
  9
$WORLDVIEW
 70
     1
  9
$SHADEDGE
 70
     3
  9
$SHADEDIF
 70
    70
  9
$TILEMODE
 70
     1
  9
$MAXACTVP
 70
    64
  9
$PINSBASE
 10
0.0
 20
0.0
 30
0.0
  9
$PLIMCHECK
 70
     0
  9
$PEXTMIN
 10
0.0
 20
0.0
 30
0.0
  9
$PEXTMAX
 10
0.0
 20
0.0
 30
0.0
  9
$PLIMMIN
 10
-20.0
 20
-7.5
  9
$PLIMMAX
 10
277.0
 20
202.5
  9
$UNITMODE
 70
     0
  9
$VISRETAIN
 70
     1
  9
$PLINEGEN
 70
     0
  9
$PSLTSCALE
 70
     1
  9
$TREEDEPTH
 70
  3020
  9
$CMLSTYLE
  2
Standard
  9
$CMLJUST
 70
     0
  9
$CMLSCALE
 40
1.0
  9
$PROXYGRAPHICS
 70
     1
  9
$MEASUREMENT
 70
     1
  9
$CELWEIGHT
370
    -1
  9
$ENDCAPS
280
     0
  9
$JOINSTYLE
280
     0
  9
$LWDISPLAY
290
     0
  9
$INSUNITS
 70
     4
  9
$HYPERLINKBASE
  1

  9
$STYLESHEET
  1

  9
$XEDIT
290
     1
  9
$CEPSNTYPE
380
     0
  9
$PSTYLEMODE
290
     1
  9
$FINGERPRINTGUID
  2
{9559605b-9541-4d45-8435-d134aef88a67}
  9
$VERSIONGUID
  2
{FAEB1C32-E019-11D5-929B-00C0DF256EC4}
  9
$EXTNAMES
290
     1
  9
$PSVPSCALE
 40
0.0
  9
$OLESTARTUP
290
     0
  9
$SORTENTS
280
   127
  9
$INDEXCTL
280
     0
  9
$HIDETEXT
280
     1
  9
$XCLIPFRAME
280
     2
  9
$HALOGAP
280
     0
  9
$OBSCOLOR
 70
   257
  9
$OBSLTYPE
280
     0
  9
$INTERSECTIONDISPLAY
280
     0
  9
$INTERSECTIONCOLOR
 70
   257
  9
$DIMASSOC
280
     2
  9
$PROJECTNAME
  1

  9
$CAMERADISPLAY
290
     0
  9
$LENSLENGTH
 40
50.0
  9
$CAMERAHEIGHT
 40
0.0
  9
$STEPSPERSEC
 40
2.0
  9
$STEPSIZE
 40
6.0
  9
$3DDWFPREC
 40
2.0
  9
$PSOLWIDTH
 40
0.25
  9
$PSOLHEIGHT
 40
4.0
  9
$LOFTANG1
 40
1.570796326794897
  9
$LOFTANG2
 40
1.570796326794897
  9
$LOFTMAG1
 40
0.0
  9
$LOFTMAG2
 40
0.0
  9
$LOFTPARAM
 70
     7
  9
$LOFTNORMALS
280
     1
  9
$LATITUDE
 40
37.795
  9
$LONGITUDE
 40
-122.394
  9
$NORTHDIRECTION
 40
0.0
  9
$TIMEZONE
 70
 -8000
  9
$LIGHTGLYPHDISPLAY
280
     1
  9
$TILEMODELIGHTSYNCH
280
     1
  9
$CMATERIAL
347
2104
  9
$SOLIDHIST
280
     0
  9
$SHOWHIST
280
     1
  9
$DWFFRAME
280
     2
  9
$DGNFRAME
280
     2
  9
$REALWORLDSCALE
290
     1
  9
$INTERFERECOLOR
 62
   256
  9
$CSHADOW
280
     0
  9
$SHADOWPLANELOCATION
 40
0.0
  0
ENDSEC
  0
SECTION
  2
CLASSES
  0
CLASS
  1
ACDBDICTIONARYWDFLT
  2
AcDbDictionaryWithDefault
  3
ObjectDBX Classes
 90
        0
 91
        3
280
     0
281
     0
  0
CLASS
  1
VISUALSTYLE
  2
AcDbVisualStyle
  3
ObjectDBX Classes
 90
     4095
 91
        3
280
     0
281
     0
  0
CLASS
  1
MATERIAL
  2
AcDbMaterial
  3
ObjectDBX Classes
 90
     1153
 91
        3
280
     0
281
     0
  0
CLASS
  1
SCALE
  2
AcDbScale
  3
ObjectDBX Classes
 90
     1153
 91
        3
280
     0
281
     0
  0
CLASS
  1
TABLESTYLE
  2
AcDbTableStyle
  3
ObjectDBX Classes
 90
     4095
 91
        3
280
     0
281
     0
  0
CLASS
  1
MLEADERSTYLE
  2
AcDbMLeaderStyle
  3
ACDB_MLEADERSTYLE_CLASS
 90
     4095
 91
        3
280
     0
281
     0
  0
CLASS
  1
SUN
  2
AcDbSun
  3
SCENEOE
 90
     1153
 91
        3
280
     0
281
     0
  0
CLASS
  1
DICTIONARYVAR
  2
AcDbDictionaryVar
  3
ObjectDBX Classes
 90
        0
 91
        3
280
     0
281
     0
  0
CLASS
  1
CELLSTYLEMAP
  2
AcDbCellStyleMap
  3
ObjectDBX Classes
 90
     1152
 91
        3
280
     0
281
     0
  0
ENDSEC
  0
SECTION
  2
TABLES
  0
TABLE
  2
VPORT
  5
20C9
330
0
100
AcDbSymbolTable
 70
     1
  0
VPORT
  5
20E9
330
20C9
100
AcDbSymbolTableRecord
100
AcDbViewportTableRecord
  2
*Active
 70
     0
 10
0.0
 20
0.0
 11
1.0
 21
1.0
 12
9548.9688
 22
-627.5748000000006
 13
0.0
 23
0.0
 14
0.5
 24
0.5
 15
0.5
 25
0.5
 16
0.0
 26
0.0
 36
1.0
 17
0.0
 27
0.0
 37
0.0
 40
893.2253654188995
 41
1.600654664484452
 42
50.0
 43
0.0
 44
0.0
 50
0.0
 51
0.0
 71
     0
 72
   100
 73
     1
 74
     3
 75
     0
 76
     0
 77
     0
 78
     0
281
     0
 65
     1
110
0.0
120
0.0
130
0.0
111
1.0
121
0.0
131
0.0
112
0.0
122
1.0
132
0.0
 79
     0
146
0.0
348
20EF
 60
     3
 61
     5
292
     1
282
     1
141
0.0
142
0.0
 63
   250
361
212D
  0
ENDTAB
  0
TABLE
  2
LTYPE
  5
20C6
330
0
100
AcDbSymbolTable
 70
    52
  0
LTYPE
  5
20D4
330
20C6
100
AcDbSymbolTableRecord
100
AcDbLinetypeTableRecord
  2
ByBlock
 70
     0
  3

 72
    65
 73
     0
 40
0.0
  0
LTYPE
  5
20D5
330
20C6
100
AcDbSymbolTableRecord
100
AcDbLinetypeTableRecord
  2
ByLayer
 70
     0
  3

 72
    65
 73
     0
 40
0.0
  0
LTYPE
  5
20D6
330
20C6
100
AcDbSymbolTableRecord
100
AcDbLinetypeTableRecord
  2
Continuous
 70
     0
  3
Solid line
 72
    65
 73
     0
 40
0.0
  0
LTYPE
  5
216F
330
20C6
100
AcDbSymbolTableRecord
100
AcDbLinetypeTableRecord
  2
PHANTOM
 70
     0
  3
Phantom ______  __  __  ______  __  __  ______ 
 72
    65
 73
     6
 40
63.50000000000001
 49
31.75
 74
     0
 49
-6.35
 74
     0
 49
6.35
 74
     0
 49
-6.35
 74
     0
 49
6.35
 74
     0
 49
-6.35
 74
     0
  0
LTYPE
  5
2170
330
20C6
100
AcDbSymbolTableRecord
100
AcDbLinetypeTableRecord
  2
PHANTOM2
 70
     0
  3
Phantom (.5x) ___ _ _ ___ _ _ ___ _ _ ___ _ _
 72
    65
 73
     6
 40
31.75
 49
15.875
 74
     0
 49
-3.175
 74
     0
 49
3.175
 74
     0
 49
-3.175
 74
     0
 49
3.175
 74
     0
 49
-3.175
 74
     0
  0
LTYPE
  5
2171
330
20C6
100
AcDbSymbolTableRecord
100
AcDbLinetypeTableRecord
  2
ACAD_ISO02W100
 70
     0
  3
ISO dash __ __ __ __ __ __ __ __ __ __ __ __ __
 72
    65
 73
     2
 40
15.0
 49
12.0
 74
     0
 49
-3.0
 74
     0
  0
LTYPE
  5
2172
330
20C6
100
AcDbSymbolTableRecord
100
AcDbLinetypeTableRecord
  2
ACAD_ISO03W100
 70
     0
  3
ISO dash space __    __    __    __    __    __
 72
    65
 73
     2
 40
30.0
 49
12.0
 74
     0
 49
-18.0
 74
     0
  0
LTYPE
  5
2173
330
20C6
100
AcDbSymbolTableRecord
100
AcDbLinetypeTableRecord
  2
ACAD_ISO04W100
 70
     0
  3
ISO long-dash dot ____ . ____ . ____ . ____ . _
 72
    65
 73
     4
 40
30.0
 49
24.0
 74
     0
 49
-3.0
 74
     0
 49
0.0
 74
     0
 49
-3.0
 74
     0
  0
LTYPE
  5
2174
330
20C6
100
AcDbSymbolTableRecord
100
AcDbLinetypeTableRecord
  2
ACAD_ISO05W100
 70
     0
  3
ISO long-dash double-dot ____ .. ____ .. ____ . 
 72
    65
 73
     6
 40
33.0
 49
24.0
 74
     0
 49
-3.0
 74
     0
 49
0.0
 74
     0
 49
-3.0
 74
     0
 49
0.0
 74
     0
 49
-3.0
 74
     0
  0
LTYPE
  5
2175
330
20C6
100
AcDbSymbolTableRecord
100
AcDbLinetypeTableRecord
  2
ACAD_ISO06W100
 70
     0
  3
ISO long-dash triple-dot ____ ... ____ ... ____
 72
    65
 73
     8
 40
36.0
 49
24.0
 74
     0
 49
-3.0
 74
     0
 49
0.0
 74
     0
 49
-3.0
 74
     0
 49
0.0
 74
     0
 49
-3.0
 74
     0
 49
0.0
 74
     0
 49
-3.0
 74
     0
  0
LTYPE
  5
2176
330
20C6
100
AcDbSymbolTableRecord
100
AcDbLinetypeTableRecord
  2
ACAD_ISO07W100
 70
     0
  3
ISO dot . . . . . . . . . . . . . . . . . . . . 
 72
    65
 73
     2
 40
3.0
 49
0.0
 74
     0
 49
-3.0
 74
     0
  0
LTYPE
  5
2177
330
20C6
100
AcDbSymbolTableRecord
100
AcDbLinetypeTableRecord
  2
ACAD_ISO08W100
 70
     0
  3
ISO long-dash short-dash ____ __ ____ __ ____ _
 72
    65
 73
     4
 40
36.0
 49
24.0
 74
     0
 49
-3.0
 74
     0
 49
6.0
 74
     0
 49
-3.0
 74
     0
  0
LTYPE
  5
2178
330
20C6
100
AcDbSymbolTableRecord
100
AcDbLinetypeTableRecord
  2
ACAD_ISO09W100
 70
     0
  3
ISO long-dash double-short-dash ____ __ __ ____
 72
    65
 73
     6
 40
45.0
 49
24.0
 74
     0
 49
-3.0
 74
     0
 49
6.0
 74
     0
 49
-3.0
 74
     0
 49
6.0
 74
     0
 49
-3.0
 74
     0
  0
LTYPE
  5
2179
330
20C6
100
AcDbSymbolTableRecord
100
AcDbLinetypeTableRecord
  2
BORDER2
 70
     0
  3
Border (.5x) __.__.__.__.__.__.__.__.__.__.__.
 72
    65
 73
     6
 40
22.225
 49
6.35
 74
     0
 49
-3.175
 74
     0
 49
6.35
 74
     0
 49
-3.175
 74
     0
 49
0.0
 74
     0
 49
-3.175
 74
     0
  0
LTYPE
  5
217A
330
20C6
100
AcDbSymbolTableRecord
100
AcDbLinetypeTableRecord
  2
BORDERX2
 70
     0
  3
Border (2x) ____  ____  .  ____  ____  .  ___
 72
    65
 73
     6
 40
88.89999999999999
 49
25.4
 74
     0
 49
-12.7
 74
     0
 49
25.4
 74
     0
 49
-12.7
 74
     0
 49
0.0
 74
     0
 49
-12.7
 74
     0
  0
LTYPE
  5
217B
330
20C6
100
AcDbSymbolTableRecord
100
AcDbLinetypeTableRecord
  2
CENTER
 70
     0
  3
Center ____ _ ____ _ ____ _ ____ _ ____ _ ____
 72
    65
 73
     4
 40
50.8
 49
31.75
 74
     0
 49
-6.35
 74
     0
 49
6.35
 74
     0
 49
-6.35
 74
     0
  0
LTYPE
  5
217C
330
20C6
100
AcDbSymbolTableRecord
100
AcDbLinetypeTableRecord
  2
CENTER2
 70
     0
  3
Center (.5x) ___ _ ___ _ ___ _ ___ _ ___ _ ___
 72
    65
 73
     4
 40
28.575
 49
19.05
 74
     0
 49
-3.175
 74
     0
 49
3.175
 74
     0
 49
-3.175
 74
     0
  0
LTYPE
  5
217D
330
20C6
100
AcDbSymbolTableRecord
100
AcDbLinetypeTableRecord
  2
CENTERX2
 70
     0
  3
Center (2x) ________  __  ________  __  _____
 72
    65
 73
     4
 40
101.6
 49
63.5
 74
     0
 49
-12.7
 74
     0
 49
12.7
 74
     0
 49
-12.7
 74
     0
  0
LTYPE
  5
217F
330
20C6
100
AcDbSymbolTableRecord
100
AcDbLinetypeTableRecord
  2
CUTLEFT
 70
     0
  3
G41 ----\----\----\----
 72
    65
 73
     2
 40
10.16
 49
5.08
 74
     2
 75
     0
340
217E
 46
2.54
 50
180.0
 44
0.0
 45
0.0
  9
LRIGHT_ARROW
 49
5.08
 74
     0
  0
LTYPE
  5
2181
330
20C6
100
AcDbSymbolTableRecord
100
AcDbLinetypeTableRecord
  2
CUTLEFT2
 70
     0
  3
G41 reversed----/----/----/----
 72
    65
 73
     2
 40
10.16
 49
5.08
 74
     2
 75
     0
340
2180
 46
2.54
 50
0.0
 44
0.0
 45
0.0
  9
LRIGHT_ARROW
 49
5.08
 74
     0
  0
LTYPE
  5
2183
330
20C6
100
AcDbSymbolTableRecord
100
AcDbLinetypeTableRecord
  2
CUTRIGHT
 70
     0
  3
G42 ----/----/-----/---
 72
    65
 73
     2
 40
10.16
 49
5.08
 74
     2
 75
     0
340
2182
 46
2.54
 50
180.0
 44
0.0
 45
0.0
  9
HRIGHT_ARROW
 49
5.08
 74
     0
  0
LTYPE
  5
2184
330
20C6
100
AcDbSymbolTableRecord
100
AcDbLinetypeTableRecord
  2
ACAD_ISO10W100
 70
     0
  3
ISO dash dot __ . __ . __ . __ . __ . __ . __ . 
 72
    65
 73
     4
 40
18.0
 49
12.0
 74
     0
 49
-3.0
 74
     0
 49
0.0
 74
     0
 49
-3.0
 74
     0
  0
LTYPE
  5
2185
330
20C6
100
AcDbSymbolTableRecord
100
AcDbLinetypeTableRecord
  2
ACAD_ISO11W100
 70
     0
  3
ISO double-dash dot __ __ . __ __ . __ __ . __ _
 72
    65
 73
     6
 40
33.0
 49
12.0
 74
     0
 49
-3.0
 74
     0
 49
12.0
 74
     0
 49
-3.0
 74
     0
 49
0.0
 74
     0
 49
-3.0
 74
     0
  0
LTYPE
  5
2186
330
20C6
100
AcDbSymbolTableRecord
100
AcDbLinetypeTableRecord
  2
ACAD_ISO12W100
 70
     0
  3
ISO dash double-dot __ . . __ . . __ . . __ . . 
 72
    65
 73
     6
 40
21.0
 49
12.0
 74
     0
 49
-3.0
 74
     0
 49
0.0
 74
     0
 49
-3.0
 74
     0
 49
0.0
 74
     0
 49
-3.0
 74
     0
  0
LTYPE
  5
2187
330
20C6
100
AcDbSymbolTableRecord
100
AcDbLinetypeTableRecord
  2
ACAD_ISO13W100
 70
     0
  3
ISO double-dash double-dot __ __ . . __ __ . . _
 72
    65
 73
     8
 40
36.0
 49
12.0
 74
     0
 49
-3.0
 74
     0
 49
12.0
 74
     0
 49
-3.0
 74
     0
 49
0.0
 74
     0
 49
-3.0
 74
     0
 49
0.0
 74
     0
 49
-3.0
 74
     0
  0
LTYPE
  5
2188
330
20C6
100
AcDbSymbolTableRecord
100
AcDbLinetypeTableRecord
  2
ACAD_ISO14W100
 70
     0
  3
ISO dash triple-dot __ . . . __ . . . __ . . . _
 72
    65
 73
     8
 40
24.0
 49
12.0
 74
     0
 49
-3.0
 74
     0
 49
0.0
 74
     0
 49
-3.0
 74
     0
 49
0.0
 74
     0
 49
-3.0
 74
     0
 49
0.0
 74
     0
 49
-3.0
 74
     0
  0
LTYPE
  5
2189
330
20C6
100
AcDbSymbolTableRecord
100
AcDbLinetypeTableRecord
  2
ACAD_ISO15W100
 70
     0
  3
ISO double-dash triple-dot __ __ . . . __ __ . .
 72
    65
 73
    10
 40
39.0
 49
12.0
 74
     0
 49
-3.0
 74
     0
 49
12.0
 74
     0
 49
-3.0
 74
     0
 49
0.0
 74
     0
 49
-3.0
 74
     0
 49
0.0
 74
     0
 49
-3.0
 74
     0
 49
0.0
 74
     0
 49
-3.0
 74
     0
  0
LTYPE
  5
218C
330
20C6
100
AcDbSymbolTableRecord
100
AcDbLinetypeTableRecord
  2
BATTING
 70
     0
  3
Batting SSSSSSSSSSSSSSSSSSSSSSSSSSSSSSSSSSSSSSSSSSSSSSS
 72
    65
 73
     4
 40
10.16254
 49
0.00254
 74
     0
 49
-2.54
 74
     2
 75
     0
340
218A
 46
2.54
 50
0.0
 44
-2.54
 45
0.0
  9
BAT
 49
-5.08
 74
     2
 75
     0
340
218B
 46
2.54
 50
180.0
 44
2.54
 45
0.0
  9
BAT
 49
-2.54
 74
     0
  0
LTYPE
  5
218D
330
20C6
100
AcDbSymbolTableRecord
100
AcDbLinetypeTableRecord
  2
BORDER
 70
     0
  3
Border __ __ . __ __ . __ __ . __ __ . __ __ .
 72
    65
 73
     6
 40
44.45
 49
12.7
 74
     0
 49
-6.35
 74
     0
 49
12.7
 74
     0
 49
-6.35
 74
     0
 49
0.0
 74
     0
 49
-6.35
 74
     0
  0
LTYPE
  5
218E
330
20C6
100
AcDbSymbolTableRecord
100
AcDbLinetypeTableRecord
  2
DIVIDE2
 70
     0
  3
Divide (.5x) __..__..__..__..__..__..__..__.._
 72
    65
 73
     6
 40
15.875
 49
6.35
 74
     0
 49
-3.175
 74
     0
 49
0.0
 74
     0
 49
-3.175
 74
     0
 49
0.0
 74
     0
 49
-3.175
 74
     0
  0
LTYPE
  5
218F
330
20C6
100
AcDbSymbolTableRecord
100
AcDbLinetypeTableRecord
  2
DIVIDEX2
 70
     0
  3
Divide (2x) ________  .  .  ________  .  .  _
 72
    65
 73
     6
 40
63.5
 49
25.4
 74
     0
 49
-12.7
 74
     0
 49
0.0
 74
     0
 49
-12.7
 74
     0
 49
0.0
 74
     0
 49
-12.7
 74
     0
  0
LTYPE
  5
2190
330
20C6
100
AcDbSymbolTableRecord
100
AcDbLinetypeTableRecord
  2
DOT
 70
     0
  3
Dot . . . . . . . . . . . . . . . . . . . . . . . .
 72
    65
 73
     2
 40
6.35
 49
0.0
 74
     0
 49
-6.35
 74
     0
  0
LTYPE
  5
2191
330
20C6
100
AcDbSymbolTableRecord
100
AcDbLinetypeTableRecord
  2
DOT2
 70
     0
  3
Dot (.5x) ........................................
 72
    65
 73
     2
 40
3.175
 49
0.0
 74
     0
 49
-3.175
 74
     0
  0
LTYPE
  5
2192
330
20C6
100
AcDbSymbolTableRecord
100
AcDbLinetypeTableRecord
  2
DOTX2
 70
     0
  3
Dot (2x) .  .  .  .  .  .  .  .  .  .  .  .  .  .
 72
    65
 73
     2
 40
12.7
 49
0.0
 74
     0
 49
-12.7
 74
     0
  0
LTYPE
  5
2194
330
20C6
100
AcDbSymbolTableRecord
100
AcDbLinetypeTableRecord
  2
DRAINAGE
 70
     0
  3
Drainage ---->---->---->----
 72
    65
 73
     2
 40
10.16
 49
5.08
 74
     2
 75
     0
340
2193
 46
2.54
 50
180.0
 44
0.0
 45
0.0
  9
RIGHT_ARROW
 49
5.08
 74
     0
  0
LTYPE
  5
2196
330
20C6
100
AcDbSymbolTableRecord
100
AcDbLinetypeTableRecord
  2
DRAINAGE2
 70
     0
  3
Drainage reversed----<----<----<----
 72
    65
 73
     2
 40
10.16
 49
5.08
 74
     2
 75
     0
340
2195
 46
2.54
 50
0.0
 44
0.0
 45
0.0
  9
RIGHT_ARROW
 49
5.08
 74
     0
  0
LTYPE
  5
2198
330
20C6
100
AcDbSymbolTableRecord
100
AcDbLinetypeTableRecord
  2
FENCELINE1
 70
     0
  3
Fenceline circle ----0-----0----0-----0----0-----0--
 72
    65
 73
     4
 40
36.83
 49
6.35
 74
     0
 49
-2.54
 74
     2
 75
     0
340
2197
 46
2.54
 50
0.0
 44
-2.54
 45
0.0
  9
CIRC1
 49
-2.54
 74
     0
 49
25.4
 74
     0
  0
LTYPE
  5
219A
330
20C6
100
AcDbSymbolTableRecord
100
AcDbLinetypeTableRecord
  2
CUTRIGHT2
 70
     0
  3
G42 reversed----\----\----\----
 72
    65
 73
     2
 40
10.16
 49
5.08
 74
     2
 75
     0
340
2199
 46
2.54
 50
0.0
 44
0.0
 45
0.0
  9
HRIGHT_ARROW
 49
5.08
 74
     0
  0
LTYPE
  5
219B
330
20C6
100
AcDbSymbolTableRecord
100
AcDbLinetypeTableRecord
  2
DASHDOT
 70
     0
  3
Dash dot __ . __ . __ . __ . __ . __ . __ . __
 72
    65
 73
     4
 40
25.4
 49
12.7
 74
     0
 49
-6.35
 74
     0
 49
0.0
 74
     0
 49
-6.35
 74
     0
  0
LTYPE
  5
219C
330
20C6
100
AcDbSymbolTableRecord
100
AcDbLinetypeTableRecord
  2
DASHDOT2
 70
     0
  3
Dash dot (.5x) _._._._._._._._._._._._._._._.
 72
    65
 73
     4
 40
12.7
 49
6.35
 74
     0
 49
-3.175
 74
     0
 49
0.0
 74
     0
 49
-3.175
 74
     0
  0
LTYPE
  5
219D
330
20C6
100
AcDbSymbolTableRecord
100
AcDbLinetypeTableRecord
  2
DASHDOTX2
 70
     0
  3
Dash dot (2x) ____  .  ____  .  ____  .  ___
 72
    65
 73
     4
 40
50.8
 49
25.4
 74
     0
 49
-12.7
 74
     0
 49
0.0
 74
     0
 49
-12.7
 74
     0
  0
LTYPE
  5
219E
330
20C6
100
AcDbSymbolTableRecord
100
AcDbLinetypeTableRecord
  2
DASHED
 70
     0
  3
Dashed __ __ __ __ __ __ __ __ __ __ __ __ __ _
 72
    65
 73
     2
 40
19.05
 49
12.7
 74
     0
 49
-6.35
 74
     0
  0
LTYPE
  5
219F
330
20C6
100
AcDbSymbolTableRecord
100
AcDbLinetypeTableRecord
  2
DASHED2
 70
     0
  3
Dashed (.5x) _ _ _ _ _ _ _ _ _ _ _ _ _ _ _ _ _ 
 72
    65
 73
     2
 40
9.524999999999999
 49
6.35
 74
     0
 49
-3.175
 74
     0
  0
LTYPE
  5
21A0
330
20C6
100
AcDbSymbolTableRecord
100
AcDbLinetypeTableRecord
  2
DASHEDX2
 70
     0
  3
Dashed (2x) ____  ____  ____  ____  ____  ___
 72
    65
 73
     2
 40
38.09999999999999
 49
25.4
 74
     0
 49
-12.7
 74
     0
  0
LTYPE
  5
21A1
330
20C6
100
AcDbSymbolTableRecord
100
AcDbLinetypeTableRecord
  2
DIVIDE
 70
     0
  3
Divide ____ . . ____ . . ____ . . ____ . . ____
 72
    65
 73
     6
 40
31.75
 49
12.7
 74
     0
 49
-6.35
 74
     0
 49
0.0
 74
     0
 49
-6.35
 74
     0
 49
0.0
 74
     0
 49
-6.35
 74
     0
  0
LTYPE
  5
21A2
330
20C6
100
AcDbSymbolTableRecord
100
AcDbLinetypeTableRecord
  2
PHANTOMX2
 70
     0
  3
Phantom (2x) ____________    ____    ____   _
 72
    65
 73
     6
 40
127.0
 49
63.5
 74
     0
 49
-12.7
 74
     0
 49
12.7
 74
     0
 49
-12.7
 74
     0
 49
12.7
 74
     0
 49
-12.7
 74
     0
  0
LTYPE
  5
21A4
330
20C6
100
AcDbSymbolTableRecord
100
AcDbLinetypeTableRecord
  2
TRACKS
 70
     0
  3
Tracks -|-|-|-|-|-|-|-|-|-|-|-|-|-|-|-|-|-|-|-|-|-|-|-|-
 72
    65
 73
     2
 40
7.62
 49
3.81
 74
     2
 75
     0
340
21A3
 46
6.35
 50
0.0
 44
0.0
 45
0.0
  9
TRACK1
 49
3.81
 74
     0
  0
LTYPE
  5
21A7
330
20C6
100
AcDbSymbolTableRecord
100
AcDbLinetypeTableRecord
  2
ZIGZAG
 70
     0
  3
Zig zag /\/\/\/\/\/\/\/\/\/\/\/\/\/\/\/\/\/\/\/\/\/\/\/
 72
    65
 73
     4
 40
20.32254
 49
0.00254
 74
     0
 49
-5.08
 74
     2
 75
     0
340
21A5
 46
5.08
 50
0.0
 44
-5.08
 45
0.0
  9
ZIG
 49
-10.16
 74
     2
 75
     0
340
21A6
 46
5.08
 50
180.0
 44
5.08
 45
0.0
  9
ZIG
 49
-5.08
 74
     0
  0
LTYPE
  5
21A9
330
20C6
100
AcDbSymbolTableRecord
100
AcDbLinetypeTableRecord
  2
FENCELINE2
 70
     0
  3
Fenceline square ----[]-----[]----[]-----[]----[]---
 72
    65
 73
     4
 40
36.83
 49
6.35
 74
     0
 49
-2.54
 74
     2
 75
     0
340
21A8
 46
2.54
 50
0.0
 44
-2.54
 45
0.0
  9
BOX
 49
-2.54
 74
     0
 49
25.4
 74
     0
  0
LTYPE
  5
21AB
330
20C6
100
AcDbSymbolTableRecord
100
AcDbLinetypeTableRecord
  2
GAS_LINE
 70
     0
  3
Gas line ----GAS----GAS----GAS----GAS----GAS----GAS--
 72
    65
 73
     3
 40
24.13
 49
12.7
 74
     0
 49
-5.08
 74
     2
 75
     0
340
21AA
 46
2.54
 50
0.0
 44
-2.54
 45
-1.27
  9
GAS
 49
-6.35
 74
     0
  0
LTYPE
  5
21AC
330
20C6
100
AcDbSymbolTableRecord
100
AcDbLinetypeTableRecord
  2
HIDDEN
 70
     0
  3
Hidden __ __ __ __ __ __ __ __ __ __ __ __ __ __
 72
    65
 73
     2
 40
9.524999999999999
 49
6.35
 74
     0
 49
-3.175
 74
     0
  0
LTYPE
  5
21AD
330
20C6
100
AcDbSymbolTableRecord
100
AcDbLinetypeTableRecord
  2
HIDDEN2
 70
     0
  3
Hidden (.5x) _ _ _ _ _ _ _ _ _ _ _ _ _ _ _ _ _ 
 72
    65
 73
     2
 40
4.762499999999999
 49
3.175
 74
     0
 49
-1.5875
 74
     0
  0
LTYPE
  5
21AE
330
20C6
100
AcDbSymbolTableRecord
100
AcDbLinetypeTableRecord
  2
HIDDENX2
 70
     0
  3
Hidden (2x) ____ ____ ____ ____ ____ ____ ____ 
 72
    65
 73
     2
 40
19.05
 49
12.7
 74
     0
 49
-6.35
 74
     0
  0
LTYPE
  5
21B0
330
20C6
100
AcDbSymbolTableRecord
100
AcDbLinetypeTableRecord
  2
HOT_WATER_SUPPLY
 70
     0
  3
Hot water supply ---- HW ---- HW ---- HW ----
 72
    65
 73
     3
 40
22.86
 49
12.7
 74
     0
 49
-5.08
 74
     2
 75
     0
340
21AF
 46
2.54
 50
0.0
 44
-2.54
 45
-1.27
  9
HW
 49
-5.08
 74
     0
  0
ENDTAB
  0
TABLE
  2
LAYER
  5
20C4
330
0
100
AcDbSymbolTable
 70
    10
  0
LAYER
  5
20D1
330
20C4
100
AcDbSymbolTableRecord
100
AcDbLayerTableRecord
  2
0
 70
     0
 62
   216
420
  8388736
  6
ACAD_ISO03W100
370
     0
390
20D0
347
2106
348
0
  0
LAYER
  5
21B1
330
20C4
100
AcDbSymbolTableRecord
100
AcDbLayerTableRecord
  2
3
 70
     0
 62
     1
420
 16711680
  6
Continuous
370
     0
390
20D0
347
2106
348
0
1001
QCAD
1000
collapsed:1
  0
LAYER
  5
21B2
330
20C4
100
AcDbSymbolTableRecord
100
AcDbLayerTableRecord
  2
5
 70
     0
 62
     9
420
 12632256
  6
Continuous
370
     0
390
20D0
347
2106
348
0
  0
LAYER
  5
21B3
330
20C4
100
AcDbSymbolTableRecord
100
AcDbLayerTableRecord
  2
7
 70
     0
 62
     4
420
    65535
  6
Continuous
370
     0
390
20D0
347
2106
348
0
  0
LAYER
  5
21B4
330
20C4
100
AcDbSymbolTableRecord
100
AcDbLayerTableRecord
  2
3 ... 1
 70
     0
 62
     1
420
 16711680
  6
Continuous
370
     0
390
20D0
347
2106
348
0
  0
LAYER
  5
21B5
330
20C4
100
AcDbSymbolTableRecord
100
AcDbLayerTableRecord
  2
6
 70
     0
 62
    18
420
        0
  6
Continuous
370
     0
390
20D0
347
2106
348
0
  0
LAYER
  5
21B6
330
20C4
100
AcDbSymbolTableRecord
100
AcDbLayerTableRecord
  2
2
 70
     0
 62
     2
420
 16776960
  6
Continuous
370
     0
390
20D0
347
2106
348
0
  0
LAYER
  5
21B7
330
20C4
100
AcDbSymbolTableRecord
100
AcDbLayerTableRecord
  2
3 ... 2
 70
     0
 62
     1
420
 16711680
  6
Continuous
370
    -3
390
20D0
347
2106
348
0
  0
LAYER
  5
21B8
330
20C4
100
AcDbSymbolTableRecord
100
AcDbLayerTableRecord
  2
1
 70
     0
 62
     7
420
 16777215
  6
Continuous
370
     0
390
20D0
347
2106
348
0
  0
LAYER
  5
21B9
330
20C4
100
AcDbSymbolTableRecord
100
AcDbLayerTableRecord
  2
4
 70
     0
 62
     6
420
 16711935
  6
Continuous
370
     0
390
20D0
347
2106
348
0
  0
ENDTAB
  0
TABLE
  2
STYLE
  5
20C5
330
0
100
AcDbSymbolTable
 70
    17
  0
STYLE
  5
20D2
330
20C5
100
AcDbSymbolTableRecord
100
AcDbTextStyleTableRecord
  2
Standard
 70
     0
 40
0.0
 41
1.0
 50
0.0
 71
     0
 42
0.2
  3
txt
  4

  0
STYLE
  5
216D
330
20C5
100
AcDbSymbolTableRecord
100
AcDbTextStyleTableRecord
  2
QCADDimTextStyle
 70
     0
 40
0.0
 41
1.0
 50
0.0
 71
     0
 42
0.2
  3
txt
  4

  0
STYLE
  5
217E
330
20C5
100
AcDbSymbolTableRecord
100
AcDbTextStyleTableRecord
  2
textstyle0
 70
     0
 40
0.0
 41
1.0
 50
0.0
 71
     0
 42
0.2
  3
qcadshp.shx
  4

  0
STYLE
  5
2180
330
20C5
100
AcDbSymbolTableRecord
100
AcDbTextStyleTableRecord
  2
textstyle1
 70
     0
 40
0.0
 41
1.0
 50
0.0
 71
     0
 42
0.2
  3
qcadshp.shx
  4

  0
STYLE
  5
2182
330
20C5
100
AcDbSymbolTableRecord
100
AcDbTextStyleTableRecord
  2
textstyle2
 70
     0
 40
0.0
 41
1.0
 50
0.0
 71
     0
 42
0.2
  3
qcadshp.shx
  4

  0
STYLE
  5
218A
330
20C5
100
AcDbSymbolTableRecord
100
AcDbTextStyleTableRecord
  2
textstyle3
 70
     0
 40
0.0
 41
1.0
 50
0.0
 71
     0
 42
0.2
  3
ltypeshp.shx
  4

  0
STYLE
  5
218B
330
20C5
100
AcDbSymbolTableRecord
100
AcDbTextStyleTableRecord
  2
textstyle4
 70
     0
 40
0.0
 41
1.0
 50
0.0
 71
     0
 42
0.2
  3
ltypeshp.shx
  4

  0
STYLE
  5
2193
330
20C5
100
AcDbSymbolTableRecord
100
AcDbTextStyleTableRecord
  2
textstyle5
 70
     0
 40
0.0
 41
1.0
 50
0.0
 71
     0
 42
0.2
  3
qcadshp.shx
  4

  0
STYLE
  5
2195
330
20C5
100
AcDbSymbolTableRecord
100
AcDbTextStyleTableRecord
  2
textstyle6
 70
     0
 40
0.0
 41
1.0
 50
0.0
 71
     0
 42
0.2
  3
qcadshp.shx
  4

  0
STYLE
  5
2197
330
20C5
100
AcDbSymbolTableRecord
100
AcDbTextStyleTableRecord
  2
textstyle7
 70
     0
 40
0.0
 41
1.0
 50
0.0
 71
     0
 42
0.2
  3
ltypeshp.shx
  4

  0
STYLE
  5
2199
330
20C5
100
AcDbSymbolTableRecord
100
AcDbTextStyleTableRecord
  2
textstyle8
 70
     0
 40
0.0
 41
1.0
 50
0.0
 71
     0
 42
0.2
  3
qcadshp.shx
  4

  0
STYLE
  5
21A3
330
20C5
100
AcDbSymbolTableRecord
100
AcDbTextStyleTableRecord
  2
textstyle9
 70
     0
 40
0.0
 41
1.0
 50
0.0
 71
     0
 42
0.2
  3
ltypeshp.shx
  4

  0
STYLE
  5
21A5
330
20C5
100
AcDbSymbolTableRecord
100
AcDbTextStyleTableRecord
  2
textstyle10
 70
     0
 40
0.0
 41
1.0
 50
0.0
 71
     0
 42
0.2
  3
ltypeshp.shx
  4

  0
STYLE
  5
21A6
330
20C5
100
AcDbSymbolTableRecord
100
AcDbTextStyleTableRecord
  2
textstyle11
 70
     0
 40
0.0
 41
1.0
 50
0.0
 71
     0
 42
0.2
  3
ltypeshp.shx
  4

  0
STYLE
  5
21A8
330
20C5
100
AcDbSymbolTableRecord
100
AcDbTextStyleTableRecord
  2
textstyle12
 70
     0
 40
0.0
 41
1.0
 50
0.0
 71
     0
 42
0.2
  3
ltypeshp.shx
  4

  0
STYLE
  5
21AA
330
20C5
100
AcDbSymbolTableRecord
100
AcDbTextStyleTableRecord
  2
textstyle13
 70
     0
 40
0.0
 41
1.0
 50
0.0
 71
     0
 42
0.2
  3
STANDARD
  4

  0
STYLE
  5
21AF
330
20C5
100
AcDbSymbolTableRecord
100
AcDbTextStyleTableRecord
  2
textstyle14
 70
     0
 40
0.0
 41
1.0
 50
0.0
 71
     0
 42
0.2
  3
STANDARD
  4

  0
ENDTAB
  0
TABLE
  2
VIEW
  5
20C7
330
0
100
AcDbSymbolTable
 70
     0
  0
ENDTAB
  0
TABLE
  2
UCS
  5
20C8
330
0
100
AcDbSymbolTable
 70
     0
  0
ENDTAB
  0
TABLE
  2
APPID
  5
20CA
330
0
100
AcDbSymbolTable
 70
     2
  0
APPID
  5
20D3
330
20CA
100
AcDbSymbolTableRecord
100
AcDbRegAppTableRecord
  2
ACAD
 70
     0
  0
APPID
  5
212E
330
20CA
100
AcDbSymbolTableRecord
100
AcDbRegAppTableRecord
  2
QCAD
 70
     0
  0
ENDTAB
  0
TABLE
  2
DIMSTYLE
  5
20CB
330
0
100
AcDbSymbolTable
 70
     2
100
AcDbDimStyleTable
  0
DIMSTYLE
105
20E7
330
20CB
100
AcDbSymbolTableRecord
100
AcDbDimStyleTableRecord
  2
Standard
 70
     0
178
     0
340
20D2
  0
DIMSTYLE
105
216E
330
20CB
100
AcDbSymbolTableRecord
100
AcDbDimStyleTableRecord
  2
QCADDimStyle
 70
     0
 41
25.0
 42
6.25
 44
12.5
 73
     0
 77
     1
140
25.0
147
6.25
178
     0
340
216D
  0
ENDTAB
  0
TABLE
  2
BLOCK_RECORD
  5
20C3
330
0
100
AcDbSymbolTable
 70
     0
  0
BLOCK_RECORD
  5
20DF
330
20C3
100
AcDbSymbolTableRecord
100
AcDbBlockTableRecord
  2
*Model_Space
340
20E2
 70
     0
280
     1
281
     0
  0
BLOCK_RECORD
  5
20DB
330
20C3
100
AcDbSymbolTableRecord
100
AcDbBlockTableRecord
  2
*Paper_Space
340
20DE
 70
     0
280
     1
281
     0
  0
ENDTAB
  0
ENDSEC
  0
SECTION
  2
BLOCKS
  0
BLOCK
  5
20E0
330
20DF
100
AcDbEntity
  8
0
100
AcDbBlockBegin
  2
*Model_Space
 70
     0
 10
0.0
 20
0.0
 30
0.0
  3
*Model_Space
  1

  0
ENDBLK
  5
20E1
330
20DF
100
AcDbEntity
  8
0
100
AcDbBlockEnd
  0
BLOCK
  5
20DC
330
20DB
100
AcDbEntity
 67
     1
  8
0
100
AcDbBlockBegin
  2
*Paper_Space
 70
     0
 10
0.0
 20
0.0
 30
0.0
  3
*Paper_Space
  1

  0
ENDBLK
  5
20DD
330
20DB
100
AcDbEntity
 67
     1
  8
0
100
AcDbBlockEnd
  0
ENDSEC
  0
SECTION
  2
ENTITIES
  0
LINE
  5
2D4
330
20DF
100
AcDbEntity
  8
5
100
AcDbLine
 10
9548.9688
 20
-1037.5748
 30
0.0
 11
9548.9688
 21
-217.5748000000002
 31
0.0
  0
LINE
  5
2D8
330
20DF
100
AcDbEntity
  8
5
100
AcDbLine
 10
8998.9688
 20
-237.5748000000002
 30
0.0
 11
10098.9688
 21
-237.5748000000002
 31
0.0
  0
LINE
  5
2D9
330
20DF
100
AcDbEntity
  8
5
100
AcDbLine
 10
8998.9688
 20
-612.5748000000002
 30
0.0
 11
10098.9688
 21
-612.5748000000002
 31
0.0
  0
LINE
  5
2DA
330
20DF
100
AcDbEntity
  8
5
100
AcDbLine
 10
8998.9688
 20
-987.5748000000002
 30
0.0
 11
10098.9688
 21
-987.5748000000002
 31
0.0
  0
LINE
  5
42D
330
20DF
100
AcDbEntity
  8
2
370
    13
100
AcDbLine
 10
9049.093800000002
 20
-898.8715931814585
 30
0.0
 11
9049.0938
 21
-764.1267186133691
 31
0.0
  0
LINE
  5
42E
330
20DF
100
AcDbEntity
  8
2
370
    13
100
AcDbLine
 10
9049.0938
 20
-648.7240440398843
 30
0.0
 11
9049.0938
 21
-464.7499814283104
 31
0.0
  0
LINE
  5
42F
330
20DF
100
AcDbEntity
  8
2
370
    13
100
AcDbLine
 10
9284.795123924343
 20
-987.5748000000003
 30
0.0
 11
9460.178409191056
 21
-987.5748000000003
 31
0.0
  0
LINE
  5
430
330
20DF
100
AcDbEntity
  8
2
370
    13
100
AcDbLine
 10
9530.815220923158
 20
-987.5748000000001
 30
0.0
 11
9609.232941032798
 21
-987.5748000000001
 31
0.0
  0
ARC
  5
758
330
20DF
100
AcDbEntity
  8
6
370
    13
100
AcDbCircle
 10
10760.299125
 20
-1184.017874551664
 30
0.0
 40
1822.499925
100
AcDbArc
 50
147.9753349865261
 51
148.8758722093614
1001
QCAD
1000
reversed:1
  0
LINE
  5
75A
330
20DF
100
AcDbEntity
  8
6
370
    13
100
AcDbLine
 10
9200.148990670556
 20
-241.9788440562079
 30
0.0
 11
9150.166676068386
 21
-217.5748000000004
 31
0.0
  0
ARC
  5
75B
330
20DF
100
AcDbEntity
  8
6
370
    13
100
AcDbCircle
 10
10760.29919999999
 20
-1184.01779999984
 30
0.0
 40
1755.0
100
AcDbArc
 50
146.5863393195813
 51
148.6791709229637
  0
ARC
  5
75C
330
20DF
100
AcDbEntity
  8
6
370
    13
100
AcDbCircle
 10
10760.29852499999
 20
-1184.017424999998
 30
0.0
 40
1687.5
100
AcDbArc
 50
145.0608084778818
 51
148.4666608780115
1001
QCAD
1000
reversed:1
  0
LINE
  5
75E
330
20DF
100
AcDbEntity
  8
6
370
    13
100
AcDbLine
 10
9321.981542051202
 20
-301.4640234649353
 30
0.0
 11
9261.05550832129
 21
-271.7166693628049
 31
0.0
  0
ARC
  5
774
330
20DF
100
AcDbEntity
  8
6
370
    13
100
AcDbCircle
 10
10760.29919999998
 20
-1184.017914328125
 30
0.0
 40
1350.0
100
AcDbArc
 50
134.2843242805071
 51
136.2501609668411
  0
ARC
  5
775
330
20DF
100
AcDbEntity
  8
6
370
    13
100
AcDbCircle
 10
10760.298525
 20
-1184.017567499998
 30
0.0
 40
1282.5
100
AcDbArc
 50
131.1001551605393
 51
136.5818011201616
1001
QCAD
1000
reversed:1
  0
LINE
  5
777
330
20DF
100
AcDbEntity
  8
6
370
    13
100
AcDbLine
 10
9828.746449104607
 20
-302.5319011985081
 30
0.0
 11
9785.10522852723
 21
-250.4780287296512
 31
0.0
  0
ARC
  5
778
330
20DF
100
AcDbEntity
  8
6
370
    13
100
AcDbCircle
 10
10760.29919999999
 20
-1184.017769999768
 30
0.0
 40
1215.0
100
AcDbArc
 50
132.8314760978949
 51
136.9505780201712
  0
LINE
  5
779
330
20DF
100
AcDbEntity
  8
6
370
    13
100
AcDbLine
 10
9934.288394107238
 20
-292.9896287222909
 30
0.0
 11
9919.596375158355
 21
-403.0087947516281
 31
0.0
  0
ARC
  5
77A
330
20DF
100
AcDbEntity
  8
6
370
    13
100
AcDbCircle
 10
10760.29919999999
 20
-1184.017764164459
 30
0.0
 40
1147.5
100
AcDbArc
 50
137.1080580100418
 51
151.5770698598813
1001
QCAD
1000
reversed:1
  0
LINE
  5
77B
330
20DF
100
AcDbEntity
  8
6
370
    13
100
AcDbLine
 10
9751.120967649013
 20
-637.8350608966333
 30
0.0
 11
9737.281962474404
 21
-520.0595081310117
 31
0.0
  0
LINE
  5
77C
330
20DF
100
AcDbEntity
  8
6
370
    13
100
AcDbLine
 10
9737.281962474404
 20
-520.0595081310124
 30
0.0
 11
9901.09148709867
 21
-388.8226412795033
 31
0.0
  0
LINE
  5
77D
330
20DF
100
AcDbEntity
  8
6
370
    13
100
AcDbLine
 10
9901.09148709867
 20
-388.8226412795034
 30
0.0
 11
9872.41953787472
 21
-354.6235901405698
 31
0.0
  0
ARC
  5
77E
330
20DF
100
AcDbEntity
  8
6
370
    13
100
AcDbCircle
 10
10760.29919999996
 20
-1184.017448810126
 30
0.0
 40
1080.0
100
AcDbArc
 50
142.5400817575207
 51
157.0468163652772
  0
LINE
  5
77F
330
20DF
100
AcDbEntity
  8
6
370
    13
100
AcDbLine
 10
9903.017868717681
 20
-527.1546632644062
 30
0.0
 11
9882.741040114914
 21
-678.9949093435057
 31
0.0
  0
ARC
  5
780
330
20DF
100
AcDbEntity
  8
6
370
    13
100
AcDbCircle
 10
10760.29919999999
 20
-1184.017607862209
 30
0.0
 40
1012.5
100
AcDbArc
 50
150.0801628221911
 51
164.6668921079744
1001
QCAD
1000
reversed:1
  0
LINE
  5
781
330
20DF
100
AcDbEntity
  8
6
370
    13
100
AcDbLine
 10
9783.839359668065
 20
-916.2818608672549
 30
0.0
 11
9765.809482582728
 21
-762.840286618979
 31
0.0
  0
ARC
  5
782
330
20DF
100
AcDbEntity
  8
6
370
    13
100
AcDbCircle
 10
10760.29919999999
 20
-1184.017717915973
 30
0.0
 40
1620.0
100
AcDbArc
 50
143.3753862975823
 51
148.2363570680519
  0
ARC
  5
783
330
20DF
100
AcDbEntity
  8
6
370
    13
100
AcDbCircle
 10
10760.29919999999
 20
-1184.017725
 30
0.0
 40
1552.5
100
AcDbArc
 50
142.1224924387623
 51
147.9859142652597
1001
QCAD
1000
reversed:1
  0
LINE
  5
784
330
20DF
100
AcDbEntity
  8
6
370
    13
100
AcDbLine
 10
9530.974902734475
 20
-217.5748000000009
 30
0.0
 11
9534.871870169227
 21
-230.8209408552789
 31
0.0
  0
LINE
  5
785
330
20DF
100
AcDbEntity
  8
6
370
    13
100
AcDbLine
 10
9443.90682500008
 20
-360.9944172850315
 30
0.0
 11
9382.931618849825
 21
-331.2231668097079
 31
0.0
  0
ARC
  5
786
330
20DF
100
AcDbEntity
  8
6
370
    13
100
AcDbCircle
 10
10760.29919999999
 20
-1184.017641245263
 30
0.0
 40
1485.0
100
AcDbArc
 50
144.0187989185764
 51
147.7125758674385
  0
ARC
  5
787
330
20DF
100
AcDbEntity
  8
6
370
    13
100
AcDbCircle
 10
10760.2992
 20
-1184.017894428373
 30
0.0
 40
1417.5
100
AcDbArc
 50
146.1529557848713
 51
147.4130283843217
1001
QCAD
1000
reversed:1
  0
LINE
  5
788
330
20DF
100
AcDbEntity
  8
6
370
    13
100
AcDbLine
 10
9565.949300020831
 20
-420.5818680189897
 30
0.0
 11
9504.91123944915
 21
-390.7799287630626
 31
0.0
  0
LINE
  5
789
330
20DF
100
AcDbEntity
  8
6
370
    13
100
AcDbLine
 10
9558.622639656944
 20
-311.5507683371266
 30
0.0
 11
9583.026570828872
 21
-394.5019626040057
 31
0.0
  0
ARC
  5
78A
330
20DF
100
AcDbEntity
  8
6
370
    13
100
AcDbCircle
 10
10760.29919999998
 20
-1184.017914328125
 30
0.0
 40
1350.0
100
AcDbArc
 50
148.5798400172422
 51
157.7067716869018
  0
ARC
  5
78B
330
20DF
100
AcDbEntity
  8
6
370
    13
100
AcDbCircle
 10
10760.298525
 20
-1184.017567499998
 30
0.0
 40
1282.5
100
AcDbArc
 50
151.3757515979992
 51
160.0152331242133
1001
QCAD
1000
reversed:1
  0
LINE
  5
78C
330
20DF
100
AcDbEntity
  8
6
370
    13
100
AcDbLine
 10
9608.253178955665
 20
-480.2495110902638
 30
0.0
 11
9634.545280640077
 21
-569.618769638945
 31
0.0
  0
LINE
  5
78D
330
20DF
100
AcDbEntity
  8
6
370
    13
100
AcDbLine
 10
9555.026160800158
 20
-745.6971617508211
 30
0.0
 11
9511.205545111634
 21
-671.899723557985
 31
0.0
  0
ARC
  5
78E
330
20DF
100
AcDbEntity
  8
6
370
    13
100
AcDbCircle
 10
10760.29919999999
 20
-1184.017769999768
 30
0.0
 40
1215.0
100
AcDbArc
 50
154.6522856130835
 51
162.6732909143525
  0
LINE
  5
78F
330
20DF
100
AcDbEntity
  8
6
370
    13
100
AcDbLine
 10
9662.271691977732
 20
-663.8633778944763
 30
0.0
 11
9692.031302833671
 21
-765.0190172882385
 31
0.0
  0
ARC
  5
790
330
20DF
100
AcDbEntity
  8
6
370
    13
100
AcDbCircle
 10
10760.29919999999
 20
-1184.017764164459
 30
0.0
 40
1147.5
100
AcDbArc
 50
158.5837691919916
 51
165.7823202593198
1001
QCAD
1000
reversed:1
  0
LINE
  5
791
330
20DF
100
AcDbEntity
  8
6
370
    13
100
AcDbLine
 10
9647.947573304866
 20
-902.1842874646451
 30
0.0
 11
9600.433383665597
 21
-822.1665739274781
 31
0.0
  0
ARC
  5
792
330
20DF
100
AcDbEntity
  8
6
370
    13
100
AcDbCircle
 10
10760.29919999996
 20
-1184.017448810126
 30
0.0
 40
1080.0
100
AcDbArc
 50
163.4733537320849
 51
169.5200554823013
  0
ARC
  5
1EA6
330
20DF
100
AcDbEntity
  8
6
370
    13
100
AcDbCircle
 10
10760.29919999996
 20
-791.1321511898747
 30
0.0
 40
1080.0
100
AcDbArc
 50
190.4799445176987
 51
191.8318107437312
1001
QCAD
1000
reversed:1
  0
ARC
  5
1EA8
330
20DF
100
AcDbEntity
  8
6
370
    13
100
AcDbCircle
 10
10760.29919999996
 20
-1234.017448810126
 30
0.0
 40
1080.0
100
AcDbArc
 50
168.1681892562687
 51
169.5200554823013
  0
LINE
  5
793
330
20DF
100
AcDbEntity
  8
6
370
    13
100
AcDbLine
 10
9724.91665079902
 20
-876.7993230262566
 30
0.0
 11
9757.506381899297
 21
-987.5748000000002
 31
0.0
  0
LINE
  5
1EA5
330
20DF
100
AcDbEntity
  8
6
370
    13
100
AcDbLine
 10
9750.151475382396
 20
-1012.574800000002
 30
0.0
 11
9757.506381899297
 21
-987.5748000000002
 31
0.0
  0
LINE
  5
1EA7
330
20DF
100
AcDbEntity
  8
6
370
    13
100
AcDbLine
 10
9750.151475382396
 20
-1012.574800000002
 30
0.0
 11
9757.506381899297
 21
-1037.574799999999
 31
0.0
  0
LINE
  5
794
330
20DF
100
AcDbEntity
  8
6
370
    13
100
AcDbLine
 10
9698.315073127786
 20
-987.5748000000002
 30
0.0
 11
9757.506381899297
 21
-987.5748000000002
 31
0.0
  0
LINE
  5
1395
330
20DF
100
AcDbEntity
  8
6
370
    13
100
AcDbLine
 10
9698.315073127782
 20
-1037.5748
 30
0.0
 11
9757.506381899295
 21
-1037.5748
 31
0.0
  0
ARC
  5
795
330
20DF
100
AcDbEntity
  8
6
370
    13
100
AcDbCircle
 10
10760.2992
 20
-1184.017836750001
 30
0.0
 40
877.5
100
AcDbArc
 50
144.1717579095868
 51
167.06375449493
1001
QCAD
1000
reversed:1
  0
ARC
  5
1EA9
330
20DF
100
AcDbEntity
  8
6
370
    13
100
AcDbCircle
 10
10760.2992
 20
-791.1317632499981
 30
0.0
 40
877.5
100
AcDbArc
 50
192.93624550507
 51
194.6170156795556
  0
ARC
  5
1EAB
330
20DF
100
AcDbEntity
  8
6
370
    13
100
AcDbCircle
 10
10760.2992
 20
-1234.017836750003
 30
0.0
 40
877.5
100
AcDbArc
 50
165.3829843204444
 51
167.0637544949299
1001
QCAD
1000
reversed:1
  0
ARC
  5
E39
330
20DF
100
AcDbEntity
  8
6
370
    13
100
AcDbCircle
 10
9337.388400000002
 20
-1184.017836750001
 30
0.0
 40
877.5
100
AcDbArc
 50
34.46717010504713
 51
35.82824209041321
  0
ARC
  5
E3B
330
20DF
100
AcDbEntity
  8
6
370
    13
100
AcDbCircle
 10
10784.2992
 20
-1184.017836750001
 30
0.0
 40
877.5
100
AcDbArc
 50
144.1717579095868
 51
145.5328298949528
1001
QCAD
1000
reversed:1
  0
ARC
  5
796
330
20DF
100
AcDbEntity
  8
6
370
    13
100
AcDbCircle
 10
10760.29920000841
 20
-1184.017607868717
 30
0.0
 40
945.0000000106193
100
AcDbArc
 50
138.8389797076561
 51
145.4031153193809
1001
QCAD
1000
reversed:1
  0
ARC
  5
E38
330
20DF
100
AcDbEntity
  8
6
370
    13
100
AcDbCircle
 10
9337.388399991594
 20
-1184.017607868717
 30
0.0
 40
945.0000000106193
100
AcDbArc
 50
40.04304906157419
 51
41.16102029234388
  0
ARC
  5
E3A
330
20DF
100
AcDbEntity
  8
6
370
    13
100
AcDbCircle
 10
10784.29920000841
 20
-1184.017607868717
 30
0.0
 40
945.0000000106193
100
AcDbArc
 50
138.8389797076559
 51
139.9569509384258
1001
QCAD
1000
reversed:1
  0
LINE
  5
797
330
20DF
100
AcDbEntity
  8
6
370
    13
100
AcDbLine
 10
9876.479064812234
 20
-987.5747999999996
 30
0.0
 11
9982.406155886887
 21
-647.4475640464547
 31
0.0
  0
LINE
  5
1EAA
330
20DF
100
AcDbEntity
  8
6
370
    13
100
AcDbLine
 10
9876.479064812234
 20
-987.5747999999996
 30
0.0
 11
9884.264907864297
 21
-1012.5748
 31
0.0
  0
LINE
  5
1EAC
330
20DF
100
AcDbEntity
  8
6
370
    13
100
AcDbLine
 10
9876.479064812233
 20
-1037.574800000001
 30
0.0
 11
9884.264907864297
 21
-1012.5748
 31
0.0
  0
LINE
  5
798
330
20DF
100
AcDbEntity
  8
6
370
    13
100
AcDbLine
 10
10048.8438
 20
-670.3667257701436
 30
0.0
 11
10048.8438
 21
-562.0399444281821
 31
0.0
  0
LINE
  5
799
330
20DF
100
AcDbEntity
  8
6
370
    13
100
AcDbLine
 10
9876.479064812234
 20
-987.5747999999998
 30
0.0
 11
9905.070351496606
 21
-987.5747999999998
 31
0.0
  0
ARC
  5
79A
330
20DF
100
AcDbEntity
  8
6
370
    13
100
AcDbCircle
 10
10760.29919999999
 20
-1184.01783655
 30
0.0
 40
810.0
100
AcDbArc
 50
151.4427624020514
 51
165.9645454244076
  0
ARC
  5
1EAD
330
20DF
100
AcDbEntity
  8
6
370
    13
100
AcDbCircle
 10
10760.29919999999
 20
-791.1317634499993
 30
0.0
 40
810.0
100
AcDbArc
 50
194.0354545755924
 51
195.8658810587708
1001
QCAD
1000
reversed:1
  0
ARC
  5
1EAE
330
20DF
100
AcDbEntity
  8
6
370
    13
100
AcDbCircle
 10
10760.29919999999
 20
-1234.017836550001
 30
0.0
 40
810.0
100
AcDbArc
 50
164.1341189412292
 51
165.9645454244075
  0
ARC
  5
E3E
330
20DF
100
AcDbEntity
  8
6
370
    13
100
AcDbCircle
 10
9337.388400000009
 20
-1184.01783655
 30
0.0
 40
810.0
100
AcDbArc
 50
26.72760356995402
 51
28.55723759794858
1001
QCAD
1000
reversed:1
  0
ARC
  5
E3F
330
20DF
100
AcDbEntity
  8
6
370
    13
100
AcDbCircle
 10
10784.29919999999
 20
-1184.01783655
 30
0.0
 40
810.0
100
AcDbArc
 50
151.4427624020513
 51
153.272396430046
  0
LINE
  5
79B
330
20DF
100
AcDbEntity
  8
6
370
    13
100
AcDbLine
 10
9974.48107002906
 20
-987.5747999999996
 30
0.0
 11
10048.8438
 21
-987.5747999999996
 31
0.0
  0
LINE
  5
79C
330
20DF
100
AcDbEntity
  8
6
370
    13
100
AcDbLine
 10
10048.8438
 20
-987.5747999999996
 30
0.0
 11
10048.8438
 21
-796.8083147005872
 31
0.0
  0
ARC
  5
79D
330
20DF
100
AcDbEntity
  8
6
370
    13
100
AcDbCircle
 10
10760.29919999998
 20
-1184.017914328125
 30
0.0
 40
1350.0
100
AcDbArc
 50
162.6106449332839
 51
165.6495531177783
  0
LINE
  5
79E
330
20DF
100
AcDbEntity
  8
6
370
    13
100
AcDbLine
 10
9471.999774721198
 20
-780.5521898528425
 30
0.0
 11
9524.254050836133
 21
-841.9644899097364
 31
0.0
  0
ARC
  5
7A0
330
20DF
100
AcDbEntity
  8
6
370
    13
100
AcDbCircle
 10
10760.298525
 20
-1184.017567499998
 30
0.0
 40
1282.5
100
AcDbArc
 50
164.5315296951082
 51
167.3123160934243
1001
QCAD
1000
reversed:1
  0
ARC
  5
7A1
330
20DF
100
AcDbEntity
  8
6
370
    13
100
AcDbCircle
 10
10760.29919999999
 20
-1184.017769999768
 30
0.0
 40
1215.0
100
AcDbArc
 50
166.7185683341332
 51
169.193702975366
  0
LINE
  5
7A2
330
20DF
100
AcDbEntity
  8
6
370
    13
100
AcDbLine
 10
9577.796348330074
 20
-904.8905484814977
 30
0.0
 11
9632.981768904172
 21
-969.747701982355
 31
0.0
  0
LINE
  5
1EA1
330
20DF
100
AcDbEntity
  8
6
370
    13
100
AcDbLine
 10
9626.878515966504
 20
-1012.5748
 30
0.0
 11
9632.981768904172
 21
-1005.401898017647
 31
0.0
  0
LINE
  5
1EA2
330
20DF
100
AcDbEntity
  8
6
370
    13
100
AcDbLine
 10
9626.878515966504
 20
-1012.5748
 30
0.0
 11
9632.981768904172
 21
-1019.747701982353
 31
0.0
  0
LINE
  5
7A4
330
20DF
100
AcDbEntity
  8
6
370
    13
100
AcDbLine
 10
9600.439644786928
 20
-987.574800000001
 30
0.0
 11
9629.738979653335
 21
-987.574800000001
 31
0.0
  0
ARC
  5
7A5
330
20DF
100
AcDbEntity
  8
6
370
    13
100
AcDbCircle
 10
10760.29919999999
 20
-1184.017641245263
 30
0.0
 40
1485.0
100
AcDbArc
 50
159.383934151147
 51
162.837305231584
  0
ARC
  5
7A7
330
20DF
100
AcDbEntity
  8
6
370
    13
100
AcDbCircle
 10
10760.2992
 20
-1184.017894428373
 30
0.0
 40
1417.5
100
AcDbArc
 50
160.9070771706675
 51
164.1676058919406
1001
QCAD
1000
reversed:1
  0
LINE
  5
7A8
330
20DF
100
AcDbEntity
  8
6
370
    13
100
AcDbLine
 10
9370.397349847368
 20
-661.1430416113601
 30
0.0
 11
9420.776834816552
 21
-720.3519767965697
 31
0.0
  0
ARC
  5
7A9
330
20DF
100
AcDbEntity
  8
6
370
    13
100
AcDbCircle
 10
10760.29919999999
 20
-1184.017717915973
 30
0.0
 40
1620.0
100
AcDbArc
 50
156.7704765969718
 51
160.5442040379845
  0
ARC
  5
7AA
330
20DF
100
AcDbEntity
  8
6
370
    13
100
AcDbCircle
 10
10760.29919999999
 20
-1184.017725
 30
0.0
 40
1552.5
100
AcDbArc
 50
158.0125964264226
 51
161.6356382781579
1001
QCAD
1000
reversed:1
  0
LINE
  5
7AB
330
20DF
100
AcDbEntity
  8
6
370
    13
100
AcDbLine
 10
9271.628992870357
 20
-545.0646567255528
 30
0.0
 11
9320.71844144227
 21
-602.7574652278623
 31
0.0
  0
ARC
  5
8AF
330
20DF
100
AcDbEntity
  8
6
370
    13
100
AcDbCircle
 10
10760.29919999999
 20
-1184.01779999984
 30
0.0
 40
1755.0
100
AcDbArc
 50
154.6046436285445
 51
158.6348681580707
  0
ARC
  5
8B0
330
20DF
100
AcDbEntity
  8
6
370
    13
100
AcDbCircle
 10
10760.29852499999
 20
-1184.017424999998
 30
0.0
 40
1687.5
100
AcDbArc
 50
155.6394084873449
 51
159.5480362150955
1001
QCAD
1000
reversed:1
  0
LINE
  5
8B1
330
20DF
100
AcDbEntity
  8
6
370
    13
100
AcDbLine
 10
9174.884755872688
 20
-431.3651308671849
 30
0.0
 11
9223.04073063893
 21
-487.9608729324386
 31
0.0
  0
ARC
  5
8B3
330
20DF
100
AcDbEntity
  8
6
370
    13
100
AcDbCircle
 10
10760.299125
 20
-1184.017874551664
 30
0.0
 40
1822.499925
100
AcDbArc
 50
153.653961032453
 51
157.794462795657
1001
QCAD
1000
reversed:1
  0
LINE
  5
8B4
330
20DF
100
AcDbEntity
  8
6
370
    13
100
AcDbLine
 10
9079.645793020063
 20
-319.4346839738535
 30
0.0
 11
9127.102049750778
 21
-375.2080761303095
 31
0.0
  0
ARC
  5
8B6
330
20DF
100
AcDbEntity
  8
6
370
    13
100
AcDbCircle
 10
10760.299125
 20
-1184.01787499988
 30
0.0
 40
1889.999925
100
AcDbArc
 50
152.7772244102152
 51
154.8771669764276
  0
ARC
  5
13C7
330
20DF
100
AcDbEntity
  8
6
370
    13
100
AcDbCircle
 10
7337.888475000034
 20
-1184.017874999949
 30
0.0
 40
1889.999925
100
AcDbArc
 50
25.12283302357469
 51
25.96646462054303
1001
QCAD
1000
reversed:1
  0
ARC
  5
13C8
330
20DF
100
AcDbEntity
  8
6
370
    13
100
AcDbCircle
 10
10736.29912499997
 20
-1184.01787499995
 30
0.0
 40
1889.999925
100
AcDbArc
 50
154.033535379457
 51
154.8771669764253
  0
ARC
  5
8B7
330
20DF
100
AcDbEntity
  8
6
370
    13
100
AcDbCircle
 10
10760.29919999999
 20
-1184.017764164459
 30
0.0
 40
1147.5
100
AcDbArc
 50
169.2381208896414
 51
170.1428610138649
1001
QCAD
1000
reversed:1
  0
ARC
  5
1E9F
330
20DF
100
AcDbEntity
  8
6
370
    13
100
AcDbCircle
 10
10760.29919999999
 20
-791.1318358355431
 30
0.0
 40
1147.5
100
AcDbArc
 50
189.8571389861351
 51
190.7618791103586
  0
ARC
  5
1EA3
330
20DF
100
AcDbEntity
  8
6
370
    13
100
AcDbCircle
 10
10760.29919999999
 20
-1234.017764164455
 30
0.0
 40
1147.5
100
AcDbArc
 50
169.2381208896414
 51
170.1428610138651
1001
QCAD
1000
reversed:1
  0
LINE
  5
8B8
330
20DF
100
AcDbEntity
  8
6
370
    13
100
AcDbLine
 10
9049.0938
 20
-472.9575019845788
 30
0.0
 11
9049.0938
 21
-381.598999230092
 31
0.0
  0
ARC
  5
8BA
330
20DF
100
AcDbEntity
  8
6
370
    13
100
AcDbCircle
 10
10760.29919999999
 20
-1184.01779999984
 30
0.0
 40
1755.0
100
AcDbArc
 50
162.8207970779148
 51
166.4758637350658
  0
ARC
  5
13E4
330
20DF
100
AcDbEntity
  8
6
370
    13
100
AcDbCircle
 10
7337.888400000011
 20
-1184.01779999984
 30
0.0
 40
1755.0
100
AcDbArc
 50
13.52413626493418
 51
14.48613416047007
1001
QCAD
1000
reversed:1
  0
ARC
  5
13E5
330
20DF
100
AcDbEntity
  8
6
370
    13
100
AcDbCircle
 10
10736.29919999999
 20
-1184.01779999984
 30
0.0
 40
1755.0
100
AcDbArc
 50
165.51386583953
 51
166.4758637350658
  0
ARC
  5
8BB
330
20DF
100
AcDbEntity
  8
6
370
    13
100
AcDbCircle
 10
10760.29852499999
 20
-1184.017424999998
 30
0.0
 40
1687.5
100
AcDbArc
 50
163.5645628589263
 51
167.0909613797331
1001
QCAD
1000
reversed:1
  0
ARC
  5
8BD
330
20DF
100
AcDbEntity
  8
6
370
    13
100
AcDbCircle
 10
10760.29919999999
 20
-1184.017717915973
 30
0.0
 40
1620.0
100
AcDbArc
 50
164.3740249513592
 51
167.7594114706491
  0
ARC
  5
8C0
330
20DF
100
AcDbEntity
  8
6
370
    13
100
AcDbCircle
 10
10760.29919999999
 20
-1184.017725
 30
0.0
 40
1552.5
100
AcDbArc
 50
165.2584924271415
 51
168.4885819105604
1001
QCAD
1000
reversed:1
  0
ARC
  5
8C1
330
20DF
100
AcDbEntity
  8
6
370
    13
100
AcDbCircle
 10
10760.29919999999
 20
-1184.017641245263
 30
0.0
 40
1485.0
100
AcDbArc
 50
166.2291990678651
 51
169.287300791073
  0
ARC
  5
8C2
330
20DF
100
AcDbEntity
  8
6
370
    13
100
AcDbCircle
 10
10760.2992
 20
-1184.017894428373
 30
0.0
 40
1417.5
100
AcDbArc
 50
167.2997842007706
 51
170.1662070668338
1001
QCAD
1000
reversed:1
  0
ARC
  5
8C6
330
20DF
100
AcDbEntity
  8
6
370
    13
100
AcDbCircle
 10
10760.29919999998
 20
-1184.017914328125
 30
0.0
 40
1350.0
100
AcDbArc
 50
168.4870687773193
 51
171.1383208579088
  0
ARC
  5
1E9B
330
20DF
100
AcDbEntity
  8
6
370
    13
100
AcDbCircle
 10
10760.29919999998
 20
-791.1316856718752
 30
0.0
 40
1350.0
100
AcDbArc
 50
188.8616791420911
 51
189.4410023198621
1001
QCAD
1000
reversed:1
  0
ARC
  5
1E9C
330
20DF
100
AcDbEntity
  8
6
370
    13
100
AcDbCircle
 10
10760.29919999998
 20
-1234.017914328125
 30
0.0
 40
1350.0
100
AcDbArc
 50
170.5589976801378
 51
171.1383208579089
  0
ARC
  5
8C8
330
20DF
100
AcDbEntity
  8
6
370
    13
100
AcDbCircle
 10
10760.298525
 20
-1184.017567499998
 30
0.0
 40
1282.5
100
AcDbArc
 50
169.8119889365083
 51
171.1892209706869
1001
QCAD
1000
reversed:1
  0
ARC
  5
1E9A
330
20DF
100
AcDbEntity
  8
6
370
    13
100
AcDbCircle
 10
10760.298525
 20
-791.1320325000007
 30
0.0
 40
1282.5
100
AcDbArc
 50
188.8107790293131
 51
189.9427997737946
  0
ARC
  5
1E9E
330
20DF
100
AcDbEntity
  8
6
370
    13
100
AcDbCircle
 10
10760.298525
 20
-1234.0175675
 30
0.0
 40
1282.5
100
AcDbArc
 50
170.0572002262055
 51
171.1892209706868
1001
QCAD
1000
reversed:1
  0
LINE
  5
8C9
330
20DF
100
AcDbEntity
  8
6
370
    13
100
AcDbLine
 10
9447.614726932596
 20
-987.5748000000001
 30
0.0
 11
9492.93256005659
 21
-987.5748000000001
 31
0.0
  0
LINE
  5
13A7
330
20DF
100
AcDbEntity
  8
6
370
    13
100
AcDbLine
 10
9447.614726932597
 20
-1037.5748
 30
0.0
 11
9492.93256005659
 21
-1037.5748
 31
0.0
  0
ARC
  5
8CA
330
20DF
100
AcDbEntity
  8
6
370
    13
100
AcDbCircle
 10
10760.29919999999
 20
-1184.017717915973
 30
0.0
 40
1620.0
100
AcDbArc
 50
171.1249617788177
 51
173.0351124604917
  0
ARC
  5
1E95
330
20DF
100
AcDbEntity
  8
6
370
    13
100
AcDbCircle
 10
10760.29919999999
 20
-791.1318820840293
 30
0.0
 40
1620.0
100
AcDbArc
 50
186.9648875395083
 51
187.8565384943336
1001
QCAD
1000
reversed:1
  0
ARC
  5
1E97
330
20DF
100
AcDbEntity
  8
6
370
    13
100
AcDbCircle
 10
10760.29919999999
 20
-1234.01771791597
 30
0.0
 40
1620.0
100
AcDbArc
 50
172.1434615056664
 51
173.0351124604916
  0
ARC
  5
8CB
330
20DF
100
AcDbEntity
  8
6
370
    13
100
AcDbCircle
 10
10760.29919999999
 20
-1184.017725
 30
0.0
 40
1552.5
100
AcDbArc
 50
171.6435267885367
 51
172.730690317698
1001
QCAD
1000
reversed:1
  0
ARC
  5
1E96
330
20DF
100
AcDbEntity
  8
6
370
    13
100
AcDbCircle
 10
10760.29919999999
 20
-791.1318750000021
 30
0.0
 40
1552.5
100
AcDbArc
 50
187.269309682302
 51
188.2004289995112
  0
ARC
  5
1E98
330
20DF
100
AcDbEntity
  8
6
370
    13
100
AcDbCircle
 10
10760.29919999999
 20
-1234.017724999996
 30
0.0
 40
1552.5
100
AcDbArc
 50
171.7995710004888
 51
172.730690317698
1001
QCAD
1000
reversed:1
  0
LINE
  5
8CD
330
20DF
100
AcDbEntity
  8
6
370
    13
100
AcDbLine
 10
9152.253746662103
 20
-987.5748000000012
 30
0.0
 11
9220.277632872621
 21
-987.5748000000012
 31
0.0
  0
LINE
  5
13B5
330
20DF
100
AcDbEntity
  8
6
370
    13
100
AcDbLine
 10
9152.517538262493
 20
-1037.574799999999
 30
0.0
 11
9220.541424473011
 21
-1037.574799999999
 31
0.0
  0
ARC
  5
8CF
330
20DF
100
AcDbEntity
  8
6
370
    13
100
AcDbCircle
 10
10760.29852499999
 20
-1184.017424999998
 30
0.0
 40
1687.5
100
AcDbArc
 50
170.6487445928532
 51
173.3150159906255
1001
QCAD
1000
reversed:1
  0
ARC
  5
1E93
330
20DF
100
AcDbEntity
  8
6
370
    13
100
AcDbCircle
 10
10760.29852499999
 20
-791.1321750000008
 30
0.0
 40
1687.5
100
AcDbArc
 50
186.6849840093744
 51
187.5404010904135
  0
ARC
  5
1E94
330
20DF
100
AcDbEntity
  8
6
370
    13
100
AcDbCircle
 10
10760.29852499999
 20
-1234.017425
 30
0.0
 40
1687.5
100
AcDbArc
 50
172.4595989095865
 51
173.3150159906255
1001
QCAD
1000
reversed:1
  0
LINE
  5
8D0
330
20DF
100
AcDbEntity
  8
6
370
    13
100
AcDbLine
 10
9049.0938
 20
-987.5747999999986
 30
0.0
 11
9084.271512961364
 21
-987.5747999999986
 31
0.0
  0
LINE
  5
8D1
330
20DF
100
AcDbEntity
  8
6
370
    13
100
AcDbLine
 10
9049.0938
 20
-987.5747999999986
 30
0.0
 11
9049.0938
 21
-892.4607685634993
 31
0.0
  0
LINE
  5
8D4
330
20DF
100
AcDbEntity
  8
6
370
    13
100
AcDbLine
 10
10048.8438
 20
-442.658440928048
 30
0.0
 11
10048.8438
 21
-337.138852082286
 31
0.0
  0
LINE
  5
8D6
330
20DF
100
AcDbEntity
  8
3 ... 2
370
    13
100
AcDbLine
 10
9049.0938
 20
-292.7869275388671
 30
0.0
 11
9049.0938
 21
-220.4561792566983
 31
0.0
  0
LINE
  5
921
330
20DF
100
AcDbEntity
  8
7
370
    13
100
AcDbLine
 10
9792.216508663785
 20
-987.5748000000001
 30
0.0
 11
9841.53311458347
 21
-987.5748000000001
 31
0.0
  0
LINE
  5
136B
330
20DF
100
AcDbEntity
  8
7
370
    13
100
AcDbLine
 10
9792.216508663783
 20
-1037.5748
 30
0.0
 11
9841.53311458347
 21
-1037.5748
 31
0.0
  0
LINE
  5
95C
330
20DF
100
AcDbEntity
  8
1
370
    13
100
AcDbLine
 10
9049.093800000002
 20
-395.8351213877114
 30
0.0
 11
9049.093800000002
 21
-283.5281796421193
 31
0.0
  0
LINE
  5
96F
330
20DF
100
AcDbEntity
  8
7
370
    13
100
AcDbLine
 10
9623.649556604858
 20
-987.5748000000001
 30
0.0
 11
9648.150425692455
 21
-987.5748000000001
 31
0.0
  0
LINE
  5
972
330
20DF
100
AcDbEntity
  8
7
370
    13
100
AcDbLine
 10
9486.861251673614
 20
-987.5748000000006
 30
0.0
 11
9541.24390517296
 21
-987.5748000000006
 31
0.0
  0
LINE
  5
983
330
20DF
100
AcDbEntity
  8
7
370
    13
100
AcDbLine
 10
9049.0938
 20
-770.9558010772656
 30
0.0
 11
9049.0938
 21
-678.6799561157964
 31
0.0
  0
LINE
  5
986
330
20DF
100
AcDbEntity
  8
1
370
    13
100
AcDbLine
 10
9049.093800000002
 20
-690.9154811995971
 30
0.0
 11
9049.093800000002
 21
-641.3883363295188
 31
0.0
  0
LINE
  5
98C
330
20DF
100
AcDbEntity
  8
7
370
    13
100
AcDbLine
 10
9078.230587881184
 20
-987.5747999999999
 30
0.0
 11
9158.298519600428
 21
-987.5747999999999
 31
0.0
  0
LINE
  5
1363
330
20DF
100
AcDbEntity
  8
7
370
    13
100
AcDbLine
 10
9078.230587881184
 20
-1037.5748
 30
0.0
 11
9158.298519600428
 21
-1037.5748
 31
0.0
  0
LINE
  5
98D
330
20DF
100
AcDbEntity
  8
7
370
    13
100
AcDbLine
 10
9214.22920571854
 20
-987.5748000000004
 30
0.0
 11
9301.829906589988
 21
-987.5748000000004
 31
0.0
  0
LINE
  5
991
330
20DF
100
AcDbEntity
  8
2
370
    13
100
AcDbLine
 10
10048.8438
 20
-343.2500033572642
 30
0.0
 11
10048.8438
 21
-217.5748000000002
 31
0.0
  0
LINE
  5
992
330
20DF
100
AcDbEntity
  8
2
370
    13
100
AcDbLine
 10
10048.8438
 20
-500.23927188099
 30
0.0
 11
10048.8438
 21
-436.5472896531111
 31
0.0
  0
LINE
  5
995
330
20DF
100
AcDbEntity
  8
7
370
    13
100
AcDbLine
 10
9898.915207048867
 20
-987.5748000000001
 30
0.0
 11
9980.667149997545
 21
-987.5748000000001
 31
0.0
  0
LINE
  5
137B
330
20DF
100
AcDbEntity
  8
7
370
    13
100
AcDbLine
 10
9898.915207048865
 20
-1037.5748
 30
0.0
 11
9980.667149997545
 21
-1037.5748
 31
0.0
  0
LINE
  5
996
330
20DF
100
AcDbEntity
  8
7
370
    13
100
AcDbLine
 10
10048.8438
 20
-809.5218902290094
 30
0.0
 11
10048.8438
 21
-660.1824963892711
 31
0.0
  0
LINE
  5
997
330
20DF
100
AcDbEntity
  8
2
370
    13
100
AcDbLine
 10
9049.0938
 20
-229.817376335054
 30
0.0
 11
9049.0938
 21
-217.5748000000002
 31
0.0
  0
LINE
  5
D30
330
20DF
100
AcDbEntity
  8
4
370
    13
100
AcDbLine
 10
9640.27237627276
 20
-987.5748000000001
 30
0.0
 11
9705.630172280064
 21
-987.5748000000001
 31
0.0
  0
LINE
  5
D31
330
20DF
100
AcDbEntity
  8
4
370
    13
100
AcDbLine
 10
9751.252115209058
 20
-987.5748000000002
 30
0.0
 11
9798.25778767844
 21
-987.5748000000002
 31
0.0
  0
LINE
  5
D32
330
20DF
100
AcDbEntity
  8
4
370
    13
100
AcDbLine
 10
9835.479851765867
 20
-987.5748000000002
 30
0.0
 11
9882.763304995186
 21
-987.5748000000002
 31
0.0
  0
LINE
  5
D33
330
20DF
100
AcDbEntity
  8
4
370
    13
100
AcDbLine
 10
10048.8438
 20
-539.6198470855888
 30
0.0
 11
10048.8438
 21
-494.0552862550741
 31
0.0
  0
LINE
  5
D89
330
20DF
100
AcDbEntity
  8
1
370
    13
100
AcDbLine
 10
9025.093800000002
 20
-283.5281796421297
 30
0.0
 11
9025.0938
 21
-395.8351213877095
 31
0.0
  0
LINE
  5
D8A
330
20DF
100
AcDbEntity
  8
1
370
    13
100
AcDbLine
 10
9037.0938
 20
-297.631287472037
 30
0.0
 11
9037.0938
 21
-370.2875874403791
 31
0.0
  0
LINE
  5
D8F
330
20DF
100
AcDbEntity
  8
1
370
    13
100
AcDbLine
 10
9037.0938
 20
-649.8293333350688
 30
0.0
 11
9037.0938
 21
-669.9832488868681
 31
0.0
  0
LINE
  5
D90
330
20DF
100
AcDbEntity
  8
1
370
    13
100
AcDbLine
 10
9025.093800000002
 20
-641.3883363295206
 30
0.0
 11
9025.0938
 21
-690.9154811996005
 31
0.0
  0
LINE
  5
D95
330
20DF
100
AcDbEntity
  8
2
370
    13
100
AcDbLine
 10
9025.0938
 20
-217.5748000000002
 30
0.0
 11
9025.0938
 21
-229.8173763350522
 31
0.0
  0
LINE
  5
D96
330
20DF
100
AcDbEntity
  8
2
370
    13
100
AcDbLine
 10
9037.093800000002
 20
-217.5748000000002
 30
0.0
 11
9037.0938
 21
-244.1884599044704
 31
0.0
  0
LINE
  5
D9B
330
20DF
100
AcDbEntity
  8
2
370
    13
100
AcDbLine
 10
9025.0938
 20
-464.7499814283132
 30
0.0
 11
9025.0938
 21
-648.7240440398828
 31
0.0
  0
LINE
  5
D9C
330
20DF
100
AcDbEntity
  8
2
370
    13
100
AcDbLine
 10
9037.0938
 20
-475.9505874264781
 30
0.0
 11
9037.0938
 21
-657.1650410454314
 31
0.0
  0
LINE
  5
DA1
330
20DF
100
AcDbEntity
  8
2
370
    13
100
AcDbLine
 10
9037.0938
 20
-770.6494074143818
 30
0.0
 11
9037.0938
 21
-903.387641136132
 31
0.0
  0
LINE
  5
DA2
330
20DF
100
AcDbEntity
  8
2
370
    13
100
AcDbLine
 10
9025.0938
 20
-764.1267186133683
 30
0.0
 11
9025.0938
 21
-898.8715931814581
 31
0.0
  0
LINE
  5
DA7
330
20DF
100
AcDbEntity
  8
2
370
    13
100
AcDbLine
 10
9218.365359889289
 20
-1012.5748
 30
0.0
 11
9414.185106558964
 21
-1012.5748
 31
0.0
  0
LINE
  5
DA8
330
20DF
100
AcDbEntity
  8
2
370
    13
100
AcDbLine
 10
9284.795123924341
 20
-1037.5748
 30
0.0
 11
9460.17840919106
 21
-1037.5748
 31
0.0
  0
LINE
  5
DAD
330
20DF
100
AcDbEntity
  8
2
370
    13
100
AcDbLine
 10
9495.27439561511
 20
-1012.5748
 30
0.0
 11
9582.448675962758
 21
-1012.5748
 31
0.0
  0
LINE
  5
DAE
330
20DF
100
AcDbEntity
  8
2
370
    13
100
AcDbLine
 10
9530.81522092316
 20
-1037.5748
 30
0.0
 11
9609.232941032797
 21
-1037.574799999999
 31
0.0
  0
LINE
  5
DB7
330
20DF
100
AcDbEntity
  8
2
370
    13
100
AcDbLine
 10
10060.8438
 20
-217.5748000000002
 30
0.0
 11
10060.8438
 21
-347.3206135815781
 31
0.0
  0
LINE
  5
DB8
330
20DF
100
AcDbEntity
  8
2
370
    13
100
AcDbLine
 10
10072.8438
 20
-217.5748000000002
 30
0.0
 11
10072.8438
 21
-343.2486228181369
 31
0.0
  0
LINE
  5
DB9
330
20DF
100
AcDbEntity
  8
2
370
    13
100
AcDbLine
 10
10060.8438
 20
-432.3467331029705
 30
0.0
 11
10060.8438
 21
-503.4280684055482
 31
0.0
  0
LINE
  5
DBA
330
20DF
100
AcDbEntity
  8
2
370
    13
100
AcDbLine
 10
10072.8438
 20
-436.5472896531111
 30
0.0
 11
10072.8438
 21
-500.23927188099
 31
0.0
  0
LINE
  5
DC0
330
20DF
100
AcDbEntity
  8
3 ... 2
370
    13
100
AcDbLine
 10
9037.0938
 20
-217.5748000000002
 30
0.0
 11
9037.0938
 21
-220.90799770004
 31
0.0
  0
LINE
  5
DC5
330
20DF
100
AcDbEntity
  8
3 ... 2
370
    13
100
AcDbLine
 10
9025.0938
 20
-220.4561792566985
 30
0.0
 11
9025.0938
 21
-292.7869275388689
 31
0.0
  0
LINE
  5
DC6
330
20DF
100
AcDbEntity
  8
3 ... 2
370
    13
100
AcDbLine
 10
9037.0938
 20
-234.8272628261161
 30
0.0
 11
9037.0938
 21
-306.8900353687845
 31
0.0
  0
LINE
  5
DED
330
20DF
100
AcDbEntity
  8
4
370
    13
100
AcDbLine
 10
10072.8438
 20
-494.0552862550742
 30
0.0
 11
10072.8438
 21
-538.8478823581152
 31
0.0
  0
LINE
  5
DEE
330
20DF
100
AcDbEntity
  8
4
370
    13
100
AcDbLine
 10
10060.8438
 20
-497.0497332634806
 30
0.0
 11
10060.8438
 21
-542.5452466067292
 31
0.0
  0
LINE
  5
DF3
330
20DF
100
AcDbEntity
  8
4
370
    13
100
AcDbLine
 10
9835.47985176587
 20
-1037.5748
 30
0.0
 11
9882.763304995184
 21
-1037.5748
 31
0.0
  0
LINE
  5
DF4
330
20DF
100
AcDbEntity
  8
4
370
    13
100
AcDbLine
 10
9838.818365290175
 20
-1012.574800000001
 30
0.0
 11
9890.549148047248
 21
-1012.574799999994
 31
0.0
  0
LINE
  5
DF9
330
20DF
100
AcDbEntity
  8
4
370
    13
100
AcDbLine
 10
9743.89720869216
 20
-1012.574799999995
 30
0.0
 11
9795.320207499526
 21
-1012.574799999998
 31
0.0
  0
LINE
  5
DFA
330
20DF
100
AcDbEntity
  8
4
370
    13
100
AcDbLine
 10
9751.25211520906
 20
-1037.5748
 30
0.0
 11
9798.257787678442
 21
-1037.5748
 31
0.0
  0
LINE
  5
DFF
330
20DF
100
AcDbEntity
  8
4
370
    13
100
AcDbLine
 10
9619.000466546808
 20
-1012.5748
 30
0.0
 11
9690.785274963298
 21
-1012.5748
 31
0.0
  0
LINE
  5
E00
330
20DF
100
AcDbEntity
  8
4
370
    13
100
AcDbLine
 10
9640.272376272762
 20
-1037.5748
 30
0.0
 11
9705.630172280064
 21
-1037.5748
 31
0.0
  0
LINE
  5
E36
330
20DF
100
AcDbEntity
  8
6
370
    13
100
AcDbLine
 10
10060.8438
 20
-340.8136176693719
 30
0.0
 11
10060.8438
 21
-438.9836753410075
 31
0.0
  0
LINE
  5
E37
330
20DF
100
AcDbEntity
  8
6
370
    13
100
AcDbLine
 10
10072.8438
 20
-337.138852082329
 30
0.0
 11
10072.8438
 21
-442.6584409280464
 31
0.0
  0
LINE
  5
E3C
330
20DF
100
AcDbEntity
  8
6
370
    13
100
AcDbLine
 10
10060.8438
 20
-687.410814839475
 30
0.0
 11
10060.8438
 21
-576.0395784805268
 31
0.0
  0
LINE
  5
E3D
330
20DF
100
AcDbEntity
  8
6
370
    13
100
AcDbLine
 10
10072.8438
 20
-670.3667257701435
 30
0.0
 11
10072.8438
 21
-562.039944428181
 31
0.0
  0
LINE
  5
E42
330
20DF
100
AcDbEntity
  8
6
370
    13
100
AcDbLine
 10
9974.481070029056
 20
-1037.5748
 30
0.0
 11
10072.8438
 21
-1037.5748
 31
0.0
  0
LINE
  5
E43
330
20DF
100
AcDbEntity
  8
6
370
    13
100
AcDbLine
 10
9981.156734488377
 20
-1012.5748
 30
0.0
 11
10060.8438
 21
-1012.5748
 31
0.0
  0
LINE
  5
E44
330
20DF
100
AcDbEntity
  8
6
370
    13
100
AcDbLine
 10
10060.8438
 20
-1012.5748
 30
0.0
 11
10060.8438
 21
-819.7208639975895
 31
0.0
  0
LINE
  5
E45
330
20DF
100
AcDbEntity
  8
6
370
    13
100
AcDbLine
 10
10072.8438
 20
-1037.5748
 30
0.0
 11
10072.8438
 21
-796.8083147005868
 31
0.0
  0
LINE
  5
E4A
330
20DF
100
AcDbEntity
  8
6
370
    13
100
AcDbLine
 10
9884.264907864297
 20
-1012.5748
 30
0.0
 11
9911.20012952887
 21
-1012.574800000001
 31
0.0
  0
LINE
  5
E4B
330
20DF
100
AcDbEntity
  8
6
370
    13
100
AcDbLine
 10
9876.479064812233
 20
-1037.574800000001
 30
0.0
 11
9905.070351496608
 21
-1037.5748
 31
0.0
  0
ARC
  5
F89
330
20DF
100
AcDbEntity
  8
1
370
    13
100
AcDbCircle
 10
9784.410377274757
 20
-1098.550684448471
 30
0.0
 40
840.7477596879444
100
AcDbArc
 50
79.53498563161072
 51
84.77621322790793
  0
ARC
  5
F8D
330
20DF
100
AcDbEntity
  8
1
370
    13
100
AcDbCircle
 10
9784.41038675039
 20
-1098.55078420365
 30
0.0
 40
840.7478598909706
100
AcDbArc
 50
106.0181277324834
 51
112.5652501777187
  0
LINE
  5
FA9
330
20DF
100
AcDbEntity
  8
1
370
    13
100
AcDbLine
 10
9068.275047456664
 20
-490.8609682608665
 30
0.0
 11
9130.627632399512
 21
-549.0598630035403
 31
0.0
  0
LINE
  5
FAA
330
20DF
100
AcDbEntity
  8
1
370
    13
100
AcDbLine
 10
9069.655475120278
 20
-655.8517561727961
 30
0.0
 11
9049.093800000002
 21
-641.3883363295182
 31
0.0
  0
ARC
  5
FAB
330
20DF
100
AcDbEntity
  8
1
370
    13
100
AcDbCircle
 10
9784.410582556528
 20
-1098.551040006725
 30
0.0
 40
840.7481903122239
100
AcDbArc
 50
148.2270863079367
 51
150.9974483167264
  0
LINE
  5
FAC
330
20DF
100
AcDbEntity
  8
1
370
    13
100
AcDbLine
 10
9037.093799999999
 20
-649.8293333350698
 30
0.0
 11
9049.093800000002
 21
-641.3883363295186
 31
0.0
  0
LINE
  5
FAD
330
20DF
100
AcDbEntity
  8
1
370
    13
100
AcDbLine
 10
9037.0938
 20
-649.8293333350683
 30
0.0
 11
9025.093800000004
 21
-641.3883363295217
 31
0.0
  0
ARC
  5
FAE
330
20DF
100
AcDbEntity
  8
1
370
    13
100
AcDbCircle
 10
9760.410582556528
 20
-1098.551040006725
 30
0.0
 40
840.7481903122239
100
AcDbArc
 50
149.3531062740966
 51
150.9974483167266
  0
ARC
  5
FAF
330
20DF
100
AcDbEntity
  8
1
370
    13
100
AcDbCircle
 10
8313.777017443474
 20
-1098.551040006725
 30
0.0
 40
840.7481903122239
100
AcDbArc
 50
29.00255168327313
 51
30.64689372590342
1001
QCAD
1000
reversed:1
  0
LINE
  5
FB2
330
20DF
100
AcDbEntity
  8
2
370
    13
100
AcDbLine
 10
9067.859537679391
 20
-217.5748000000001
 30
0.0
 11
9516.386430542
 21
-440.9752796755835
 31
0.0
  0
LINE
  5
FB3
330
20DF
100
AcDbEntity
  8
2
370
    13
100
AcDbLine
 10
9037.093799999999
 20
-244.1884599044704
 30
0.0
 11
9049.0938
 21
-229.817376335054
 31
0.0
  0
LINE
  5
FB4
330
20DF
100
AcDbEntity
  8
2
370
    13
100
AcDbLine
 10
9037.0938
 20
-244.1884599044704
 30
0.0
 11
9025.0938
 21
-229.817376335053
 31
0.0
  0
LINE
  5
FB5
330
20DF
100
AcDbEntity
  8
2
370
    13
100
AcDbLine
 10
9607.388769319017
 20
-898.4260147074085
 30
0.0
 11
9049.0938
 21
-229.817376335054
 31
0.0
  0
ARC
  5
FB6
330
20DF
100
AcDbEntity
  8
2
370
    13
100
AcDbCircle
 10
9609.115842136764
 20
-896.9838914525529
 30
0.0
 40
2.25
100
AcDbArc
 50
219.8622225499244
 51
29.47052646279343
  0
LINE
  5
FB7
330
20DF
100
AcDbEntity
  8
2
370
    13
100
AcDbLine
 10
9437.31663878031
 20
-588.3916371686611
 30
0.0
 11
9611.074712135909
 21
-895.8769459586539
 31
0.0
  0
LINE
  5
FB8
330
20DF
100
AcDbEntity
  8
2
370
    13
100
AcDbLine
 10
9516.386430542
 20
-440.975279675583
 30
0.0
 11
9437.31663878031
 21
-588.3916371686616
 31
0.0
  0
ARC
  5
FB9
330
20DF
100
AcDbEntity
  8
2
370
    13
100
AcDbCircle
 10
9365.84946939847
 20
-468.4778698345161
 30
0.0
 40
47.62499999999864
100
AcDbArc
 50
0.0
 51
180.0
  0
ARC
  5
FBA
330
20DF
100
AcDbEntity
  8
2
370
    13
100
AcDbCircle
 10
9365.84946939847
 20
-468.4778698345161
 30
0.0
 40
47.62499999999864
100
AcDbArc
 50
180.0
 51
0.0
  0
LINE
  5
FBB
330
20DF
100
AcDbEntity
  8
2
370
    13
100
AcDbLine
 10
9707.873988556896
 20
-217.5748000000002
 30
0.0
 11
9847.733925060109
 21
-385.3539060327066
 31
0.0
  0
LINE
  5
FBD
330
20DF
100
AcDbEntity
  8
2
370
    13
100
AcDbLine
 10
9741.95395145519
 20
-840.562807291102
 30
0.0
 11
9568.69590977106
 21
-217.5748000000001
 31
0.0
  0
ARC
  5
FBE
330
20DF
100
AcDbEntity
  8
2
370
    13
100
AcDbCircle
 10
9704.22217373631
 20
-345.90947839873
 30
0.0
 40
47.62499999998499
100
AcDbArc
 50
180.0
 51
0.0
  0
ARC
  5
FBF
330
20DF
100
AcDbEntity
  8
2
370
    13
100
AcDbCircle
 10
9704.22217373631
 20
-345.90947839873
 30
0.0
 40
47.62499999998499
100
AcDbArc
 50
0.0
 51
180.0
  0
LINE
  5
FC0
330
20DF
100
AcDbEntity
  8
2
370
    13
100
AcDbLine
 10
9847.733925060107
 20
-385.353906032708
 30
0.0
 11
9717.3459091079
 21
-488.4901151338529
 31
0.0
  0
LINE
  5
FC1
330
20DF
100
AcDbEntity
  8
2
370
    13
100
AcDbLine
 10
9717.3459091079
 20
-488.4901151338508
 30
0.0
 11
9746.364044355552
 21
-839.7747116943995
 31
0.0
  0
ARC
  5
FC2
330
20DF
100
AcDbEntity
  8
2
370
    13
100
AcDbCircle
 10
9744.121681967787
 20
-839.9599437702705
 30
0.0
 40
2.25
100
AcDbArc
 50
195.5416824500259
 51
4.722240495380898
  0
LINE
  5
FC3
330
20DF
100
AcDbEntity
  8
2
370
    13
100
AcDbLine
 10
9887.732365570331
 20
-845.6186093226228
 30
0.0
 11
9982.50739443047
 21
-217.5748000000001
 31
0.0
  0
ARC
  5
FC8
330
20DF
100
AcDbEntity
  8
2
370
    13
100
AcDbCircle
 10
10082.01139409663
 20
-389.9829340196457
 30
0.0
 40
47.62500000000032
100
AcDbArc
 50
101.0984496594968
 51
116.3890454991227
  0
ARC
  5
FC9
330
20DF
100
AcDbEntity
  8
2
370
    13
100
AcDbCircle
 10
10039.67620590337
 20
-389.9829340196457
 30
0.0
 40
47.62500000000032
100
AcDbArc
 50
63.61095450087727
 51
78.89733825221766
1001
QCAD
1000
reversed:1
  0
ARC
  5
FCA
330
20DF
100
AcDbEntity
  8
2
370
    13
100
AcDbCircle
 10
10058.43779382206
 20
-389.8986465051877
 30
0.0
 40
47.62500000000032
100
AcDbArc
 50
101.62168722535
 51
258.3783127746501
  0
ARC
  5
118B
330
20DF
100
AcDbEntity
  8
2
370
    13
100
AcDbCircle
 10
10039.24980617794
 20
-389.8986465051877
 30
0.0
 40
47.62500000000032
100
AcDbArc
 50
281.6216872253499
 51
296.9631398103544
1001
QCAD
1000
reversed:1
  0
ARC
  5
118C
330
20DF
100
AcDbEntity
  8
2
370
    13
100
AcDbCircle
 10
10082.43779382206
 20
-389.8986465051877
 30
0.0
 40
47.62500000000032
100
AcDbArc
 50
243.036860189646
 51
258.3783127746501
  0
LINE
  5
FCF
330
20DF
100
AcDbEntity
  8
2
370
    13
100
AcDbLine
 10
10048.8438
 20
-500.23927188099
 30
0.0
 11
10005.84531433009
 21
-510.9689957793461
 31
0.0
  0
LINE
  5
1189
330
20DF
100
AcDbEntity
  8
2
370
    13
100
AcDbLine
 10
10048.8438
 20
-500.2392718809897
 30
0.0
 11
10060.8438
 21
-503.4280684055487
 31
0.0
  0
LINE
  5
118A
330
20DF
100
AcDbEntity
  8
2
370
    13
100
AcDbLine
 10
10072.8438
 20
-500.2392718809897
 30
0.0
 11
10060.8438
 21
-503.4280684055493
 31
0.0
  0
LINE
  5
FD0
330
20DF
100
AcDbEntity
  8
2
370
    13
100
AcDbLine
 10
10005.84531433009
 20
-510.9689957793462
 30
0.0
 11
9892.088155308922
 21
-846.6764440164981
 31
0.0
  0
ARC
  5
FD1
330
20DF
100
AcDbEntity
  8
2
370
    13
100
AcDbCircle
 10
9889.957176080137
 20
-845.954344628258
 30
0.0
 40
2.25
100
AcDbArc
 50
171.4185225262289
 51
341.2806381341754
  0
LINE
  5
FD2
330
20DF
100
AcDbEntity
  8
2
370
    13
100
AcDbLine
 10
9025.0938
 20
-464.7499814283125
 30
0.0
 11
9037.0938
 21
-475.9505874264791
 31
0.0
  0
LINE
  5
FD3
330
20DF
100
AcDbEntity
  8
2
370
    13
100
AcDbLine
 10
9049.0938
 20
-464.7499814283105
 30
0.0
 11
9037.0938
 21
-475.9505874264786
 31
0.0
  0
LINE
  5
FD4
330
20DF
100
AcDbEntity
  8
2
370
    13
100
AcDbLine
 10
9049.093799999997
 20
-464.7499814283127
 30
0.0
 11
9609.232941032798
 21
-987.5747999999999
 31
0.0
  0
LINE
  5
1E82
330
20DF
100
AcDbEntity
  8
2
370
    13
100
AcDbLine
 10
9582.448675962758
 20
-1012.5748
 30
0.0
 11
9609.232941032798
 21
-987.5748000000004
 31
0.0
  0
LINE
  5
1E84
330
20DF
100
AcDbEntity
  8
2
370
    13
100
AcDbLine
 10
9582.448675962758
 20
-1012.5748
 30
0.0
 11
9609.232941032797
 21
-1037.574799999999
 31
0.0
  0
LINE
  5
FD9
330
20DF
100
AcDbEntity
  8
2
370
    13
100
AcDbLine
 10
9530.815220923158
 20
-987.5748
 30
0.0
 11
9049.0938
 21
-648.7240440398838
 31
0.0
  0
LINE
  5
1E81
330
20DF
100
AcDbEntity
  8
2
370
    13
100
AcDbLine
 10
9530.815220923158
 20
-987.5748000000004
 30
0.0
 11
9495.27439561511
 21
-1012.5748
 31
0.0
  0
LINE
  5
1E83
330
20DF
100
AcDbEntity
  8
2
370
    13
100
AcDbLine
 10
9530.81522092316
 20
-1037.574800000001
 30
0.0
 11
9495.27439561511
 21
-1012.5748
 31
0.0
  0
LINE
  5
FDA
330
20DF
100
AcDbEntity
  8
2
370
    13
100
AcDbLine
 10
9037.0938
 20
-657.1650410454314
 30
0.0
 11
9049.0938
 21
-648.724044039884
 31
0.0
  0
LINE
  5
FDB
330
20DF
100
AcDbEntity
  8
2
370
    13
100
AcDbLine
 10
9037.093800000002
 20
-657.1650410454338
 30
0.0
 11
9025.0938
 21
-648.7240440398832
 31
0.0
  0
LINE
  5
FDC
330
20DF
100
AcDbEntity
  8
2
370
    13
100
AcDbLine
 10
9025.0938
 20
-764.1267186133683
 30
0.0
 11
9037.0938
 21
-770.649407414382
 31
0.0
  0
LINE
  5
FDD
330
20DF
100
AcDbEntity
  8
2
370
    13
100
AcDbLine
 10
9049.093799999999
 20
-764.1267186133689
 30
0.0
 11
9037.0938
 21
-770.649407414382
 31
0.0
  0
LINE
  5
FDE
330
20DF
100
AcDbEntity
  8
2
370
    13
100
AcDbLine
 10
9049.0938
 20
-764.1267186133691
 30
0.0
 11
9460.178409191058
 21
-987.5748000000007
 31
0.0
  0
LINE
  5
1E7F
330
20DF
100
AcDbEntity
  8
2
370
    13
100
AcDbLine
 10
9414.185106558964
 20
-1012.5748
 30
0.0
 11
9460.178409191058
 21
-987.5748000000007
 31
0.0
  0
LINE
  5
1E85
330
20DF
100
AcDbEntity
  8
2
370
    13
100
AcDbLine
 10
9414.185106558964
 20
-1012.5748
 30
0.0
 11
9460.17840919106
 21
-1037.5748
 31
0.0
  0
LINE
  5
FE3
330
20DF
100
AcDbEntity
  8
2
370
    13
100
AcDbLine
 10
9284.795123924343
 20
-987.5748000000001
 30
0.0
 11
9049.0938
 21
-898.8715931814584
 31
0.0
  0
LINE
  5
1E80
330
20DF
100
AcDbEntity
  8
2
370
    13
100
AcDbLine
 10
9284.795123924343
 20
-987.5748000000001
 30
0.0
 11
9218.365359889289
 21
-1012.574799999999
 31
0.0
  0
LINE
  5
1E86
330
20DF
100
AcDbEntity
  8
2
370
    13
100
AcDbLine
 10
9284.795123924341
 20
-1037.5748
 30
0.0
 11
9218.365359889289
 21
-1012.574799999999
 31
0.0
  0
LINE
  5
FE4
330
20DF
100
AcDbEntity
  8
2
370
    13
100
AcDbLine
 10
9037.0938
 20
-903.3876411361324
 30
0.0
 11
9049.093800000002
 21
-898.8715931814579
 31
0.0
  0
LINE
  5
FE5
330
20DF
100
AcDbEntity
  8
2
370
    13
100
AcDbLine
 10
9037.0938
 20
-903.387641136132
 30
0.0
 11
9025.0938
 21
-898.8715931814584
 31
0.0
  0
LINE
  5
1025
330
20DF
100
AcDbEntity
  8
3 ... 2
370
    13
100
AcDbLine
 10
9054.401653188737
 20
-217.5748000000003
 30
0.0
 11
9362.778133160078
 21
-371.1697229411507
 31
0.0
  0
LINE
  5
11E7
330
20DF
100
AcDbEntity
  8
3 ... 2
370
    13
100
AcDbLine
 10
9043.785946811264
 20
-217.5748000000002
 30
0.0
 11
9037.093799999999
 21
-220.9079977000407
 31
0.0
  0
LINE
  5
11EB
330
20DF
100
AcDbEntity
  8
3 ... 2
370
    13
100
AcDbLine
 10
9030.401653188737
 20
-217.5748000000007
 30
0.0
 11
9037.0938
 21
-220.90799770004
 31
0.0
  0
ARC
  5
1026
330
20DF
100
AcDbEntity
  8
3 ... 2
370
    13
100
AcDbCircle
 10
9784.410405517505
 20
-1098.550839078582
 30
0.0
 40
840.7479177533663
100
AcDbArc
 50
115.823234645719
 51
120.0990677027179
  0
LINE
  5
1029
330
20DF
100
AcDbEntity
  8
3 ... 2
370
    13
100
AcDbLine
 10
9244.302808078855
 20
-454.2365933070379
 30
0.0
 11
9049.0938
 21
-220.4561792566988
 31
0.0
  0
LINE
  5
11E6
330
20DF
100
AcDbEntity
  8
3 ... 2
370
    13
100
AcDbLine
 10
9037.0938
 20
-234.8272628261161
 30
0.0
 11
9049.0938
 21
-220.4561792566988
 31
0.0
  0
LINE
  5
11EA
330
20DF
100
AcDbEntity
  8
3 ... 2
370
    13
100
AcDbLine
 10
9037.0938
 20
-234.8272628261161
 30
0.0
 11
9025.0938
 21
-220.4561792566986
 31
0.0
  0
ARC
  5
102A
330
20DF
100
AcDbEntity
  8
3 ... 2
370
    13
100
AcDbCircle
 10
9784.410462764385
 20
-1098.550938232901
 30
0.0
 40
840.7480322469667
100
AcDbArc
 50
129.9720038761184
 51
132.9746853927685
  0
ARC
  5
102E
330
20DF
100
AcDbEntity
  8
3 ... 2
370
    13
100
AcDbCircle
 10
9784.41038675039
 20
-1098.55078420365
 30
0.0
 40
840.7478598909706
100
AcDbArc
 50
103.2089197377914
 51
106.4270219518115
  0
LINE
  5
1030
330
20DF
100
AcDbEntity
  8
3 ... 2
370
    13
100
AcDbLine
 10
9592.297455283548
 20
-280.0463031685959
 30
0.0
 11
9574.923621159327
 21
-217.5748000000004
 31
0.0
  0
LINE
  5
1031
330
20DF
100
AcDbEntity
  8
3 ... 2
370
    13
100
AcDbLine
 10
9700.062731119817
 20
-217.5748
 30
0.0
 11
9734.817071020505
 21
-259.2668829873271
 31
0.0
  0
ARC
  5
1032
330
20DF
100
AcDbEntity
  8
3 ... 2
370
    13
100
AcDbCircle
 10
9784.410377274757
 20
-1098.550684448471
 30
0.0
 40
840.7477596879444
100
AcDbArc
 50
88.99308849168484
 51
93.38167721619578
  0
ARC
  5
1034
330
20DF
100
AcDbEntity
  8
3 ... 2
370
    13
100
AcDbCircle
 10
9784.410377274757
 20
-1098.550684448471
 30
0.0
 40
840.7477596879444
100
AcDbArc
 50
76.61360737198592
 51
79.94431715558451
  0
LINE
  5
1035
330
20DF
100
AcDbEntity
  8
3 ... 2
370
    13
100
AcDbLine
 10
9979.057666273151
 20
-280.6452936446973
 30
0.0
 11
9988.575326931008
 21
-217.5748000000002
 31
0.0
  0
ARC
  5
103D
330
20DF
100
AcDbEntity
  8
4
370
    13
100
AcDbCircle
 10
9784.410462764385
 20
-1098.550938232901
 30
0.0
 40
846.7480322469667
100
AcDbArc
 50
129.9712259720318
 51
132.9563842790534
  0
LINE
  5
103E
330
20DF
100
AcDbEntity
  8
4
370
    13
100
AcDbLine
 10
9585.562631452949
 20
-862.9260466898112
 30
0.0
 11
9240.457139056756
 21
-449.6310573989618
 31
0.0
  0
LINE
  5
1040
330
20DF
100
AcDbEntity
  8
4
370
    13
100
AcDbLine
 10
9430.46756121969
 20
-588.4671128313383
 30
0.0
 11
9585.562631452947
 21
-862.926046689811
 31
0.0
  0
LINE
  5
1047
330
20DF
100
AcDbEntity
  8
4
370
    13
100
AcDbLine
 10
9508.175969458
 20
-443.5888953244169
 30
0.0
 11
9430.467561219688
 21
-588.4671128313377
 31
0.0
  0
ARC
  5
104A
330
20DF
100
AcDbEntity
  8
4
370
    13
100
AcDbCircle
 10
9784.410405517505
 20
-1098.550839078582
 30
0.0
 40
846.7479177533663
100
AcDbArc
 50
116.1414849384395
 51
120.3666057144957
  0
LINE
  5
104B
330
20DF
100
AcDbEntity
  8
4
370
    13
100
AcDbLine
 10
9356.353108860687
 20
-367.96957255273
 30
0.0
 11
9508.175969458
 21
-443.5888953244163
 31
0.0
  0
ARC
  5
104C
330
20DF
100
AcDbEntity
  8
4
370
    13
100
AcDbCircle
 10
9784.41038675039
 20
-1098.55078420365
 30
0.0
 40
846.7478598909706
100
AcDbArc
 50
103.2254585845804
 51
106.4267858000323
  0
LINE
  5
104F
330
20DF
100
AcDbEntity
  8
4
370
    13
100
AcDbLine
 10
9737.12439712887
 20
-800.803937418978
 30
0.0
 11
9590.6884953087
 21
-274.2609280206486
 31
0.0
  0
LINE
  5
1050
330
20DF
100
AcDbEntity
  8
4
370
    13
100
AcDbLine
 10
9711.101540892101
 20
-485.7792648661482
 30
0.0
 11
9737.12439712887
 21
-800.8039374189774
 31
0.0
  0
LINE
  5
1051
330
20DF
100
AcDbEntity
  8
4
370
    13
100
AcDbLine
 10
9839.183474939893
 20
-384.4671539672921
 30
0.0
 11
9711.101540892101
 21
-485.7792648661489
 31
0.0
  0
ARC
  5
1059
330
20DF
100
AcDbEntity
  8
4
370
    13
100
AcDbCircle
 10
9784.410377274757
 20
-1098.550684448471
 30
0.0
 40
846.7477596879444
100
AcDbArc
 50
89.34484512808935
 51
93.6807855182583
  0
LINE
  5
105A
330
20DF
100
AcDbEntity
  8
4
370
    13
100
AcDbLine
 10
9730.051162933065
 20
-253.5495931162129
 30
0.0
 11
9839.183474939893
 21
-384.467153967293
 31
0.0
  0
ARC
  5
105B
330
20DF
100
AcDbEntity
  8
4
370
    13
100
AcDbCircle
 10
9784.410377274757
 20
-1098.550684448471
 30
0.0
 40
846.7477596879444
100
AcDbArc
 50
76.64773387928884
 51
79.96168379536319
  0
LINE
  5
105D
330
20DF
100
AcDbEntity
  8
4
370
    13
100
AcDbLine
 10
9899.973545679459
 20
-804.7104714869447
 30
0.0
 11
9979.956095379566
 21
-274.6916912539879
 31
0.0
  0
LINE
  5
105E
330
20DF
100
AcDbEntity
  8
4
370
    13
100
AcDbLine
 10
10001.21408566991
 20
-505.9406742206566
 30
0.0
 11
9899.973545679459
 21
-804.7104714869447
 31
0.0
  0
LINE
  5
105F
330
20DF
100
AcDbEntity
  8
4
370
    13
100
AcDbLine
 10
10048.8438
 20
-494.0552862550741
 30
0.0
 11
10001.21408566991
 21
-505.9406742206564
 31
0.0
  0
LINE
  5
11FE
330
20DF
100
AcDbEntity
  8
4
370
    13
100
AcDbLine
 10
10048.8438
 20
-494.0552862550741
 30
0.0
 11
10060.8438
 21
-497.0497332634802
 31
0.0
  0
LINE
  5
11FF
330
20DF
100
AcDbEntity
  8
4
370
    13
100
AcDbLine
 10
10072.8438
 20
-494.0552862550741
 30
0.0
 11
10060.8438
 21
-497.0497332634802
 31
0.0
  0
ARC
  5
106A
330
20DF
100
AcDbEntity
  8
7
370
    13
100
AcDbCircle
 10
9784.410582556528
 20
-1098.551040006725
 30
0.0
 40
846.7481903122239
100
AcDbArc
 50
148.2033197237411
 51
150.2733274451397
  0
ARC
  5
1351
330
20DF
100
AcDbEntity
  8
7
370
    13
100
AcDbCircle
 10
8313.777017443474
 20
-1098.551040006724
 30
0.0
 40
846.7481903122239
100
AcDbArc
 50
29.72667255486028
 51
31.32534793564222
1001
QCAD
1000
reversed:1
  0
ARC
  5
1352
330
20DF
100
AcDbEntity
  8
7
370
    13
100
AcDbCircle
 10
9760.410582556528
 20
-1098.551040006725
 30
0.0
 40
846.7481903122239
100
AcDbArc
 50
148.6746520643578
 51
150.2733274451397
  0
LINE
  5
106B
330
20DF
100
AcDbEntity
  8
7
370
    13
100
AcDbLine
 10
9088.756756245712
 20
-669.2879109046245
 30
0.0
 11
9064.739631207092
 21
-652.3938708602174
 31
0.0
  0
LINE
  5
106D
330
20DF
100
AcDbEntity
  8
7
370
    13
100
AcDbLine
 10
9049.0938
 20
-770.9558010772654
 30
0.0
 11
9059.420997613961
 21
-776.569225762468
 31
0.0
  0
LINE
  5
13E8
330
20DF
100
AcDbEntity
  8
7
370
    13
100
AcDbLine
 10
9049.0938
 20
-770.9558010772654
 30
0.0
 11
9038.76660238604
 21
-776.569225762468
 31
0.0
  0
LINE
  5
13E9
330
20DF
100
AcDbEntity
  8
7
370
    13
100
AcDbLine
 10
9025.0938
 20
-770.9558010772654
 30
0.0
 11
9035.420997613961
 21
-776.569225762468
 31
0.0
  0
LINE
  5
106E
330
20DF
100
AcDbEntity
  8
7
370
    13
100
AcDbLine
 10
9109.975559531436
 20
-804.0485320007407
 30
0.0
 11
9182.621182760919
 21
-843.535598090874
 31
0.0
  0
LINE
  5
1070
330
20DF
100
AcDbEntity
  8
7
370
    13
100
AcDbLine
 10
9205.380745034343
 20
-751.3231392496315
 30
0.0
 11
9136.571603815471
 21
-702.9216596677217
 31
0.0
  0
LINE
  5
1073
330
20DF
100
AcDbEntity
  8
7
370
    13
100
AcDbLine
 10
9323.255282921506
 20
-834.23802436097
 30
0.0
 11
9253.667935573092
 21
-785.2891418116302
 31
0.0
  0
LINE
  5
1076
330
20DF
100
AcDbEntity
  8
7
370
    13
100
AcDbLine
 10
9233.515914863603
 20
-871.1998063506047
 30
0.0
 11
9306.71854853567
 21
-910.9896395887292
 31
0.0
  0
LINE
  5
1077
330
20DF
100
AcDbEntity
  8
7
370
    13
100
AcDbLine
 10
9165.431291878383
 20
-936.2429095842735
 30
0.0
 11
9089.498576376667
 21
-907.6665942064083
 31
0.0
  0
LINE
  5
107B
330
20DF
100
AcDbEntity
  8
7
370
    13
100
AcDbLine
 10
9301.829906589988
 20
-987.5748
 30
0.0
 11
9218.53587264982
 21
-956.2281456989962
 31
0.0
  0
LINE
  5
1EB3
330
20DF
100
AcDbEntity
  8
7
370
    13
100
AcDbLine
 10
9301.829906589988
 20
-987.5748
 30
0.0
 11
9235.400142554934
 21
-1012.574799999999
 31
0.0
  0
LINE
  5
1EB5
330
20DF
100
AcDbEntity
  8
7
370
    13
100
AcDbLine
 10
9301.829906589992
 20
-1037.5748
 30
0.0
 11
9235.400142554934
 21
-1012.574799999999
 31
0.0
  0
LINE
  5
107C
330
20DF
100
AcDbEntity
  8
7
370
    13
100
AcDbLine
 10
9442.8197458172
 20
-918.3416304670274
 30
0.0
 11
9372.173171276268
 21
-868.6476701209997
 31
0.0
  0
LINE
  5
107E
330
20DF
100
AcDbEntity
  8
7
370
    13
100
AcDbLine
 10
9358.062260181747
 20
-938.8978940017579
 30
0.0
 11
9432.013656337142
 21
-979.0947226286017
 31
0.0
  0
LINE
  5
1ECB
330
20DF
100
AcDbEntity
  8
7
370
    13
100
AcDbLine
 10
9401.6214243005
 20
-1012.5748
 30
0.0
 11
9432.013656337142
 21
-996.0548773713987
 31
0.0
  0
LINE
  5
1ECE
330
20DF
100
AcDbEntity
  8
7
370
    13
100
AcDbLine
 10
9401.6214243005
 20
-1012.5748
 30
0.0
 11
9432.013656337142
 21
-1029.094722628601
 31
0.0
  0
LINE
  5
1081
330
20DF
100
AcDbEntity
  8
7
370
    13
100
AcDbLine
 10
9541.24390517296
 20
-987.5748000000013
 30
0.0
 11
9492.61090689434
 21
-953.3655505966093
 31
0.0
  0
LINE
  5
1EB7
330
20DF
100
AcDbEntity
  8
7
370
    13
100
AcDbLine
 10
9541.24390517296
 20
-987.5748000000013
 30
0.0
 11
9505.70307986491
 21
-1012.5748
 31
0.0
  0
LINE
  5
1EB9
330
20DF
100
AcDbEntity
  8
7
370
    13
100
AcDbLine
 10
9541.243905172963
 20
-1037.5748
 30
0.0
 11
9505.70307986491
 21
-1012.5748
 31
0.0
  0
LINE
  5
1085
330
20DF
100
AcDbEntity
  8
7
370
    13
100
AcDbLine
 10
9504.03672263587
 20
-897.5938709928355
 30
0.0
 11
9572.034972131007
 21
-961.062337756176
 31
0.0
  0
LINE
  5
1089
330
20DF
100
AcDbEntity
  8
7
370
    13
100
AcDbLine
 10
9391.645050151841
 20
-792.6893009121138
 30
0.0
 11
9457.424822805542
 21
-854.0870772573728
 31
0.0
  0
LINE
  5
108C
330
20DF
100
AcDbEntity
  8
7
370
    13
100
AcDbLine
 10
9282.04014689672
 20
-690.3858561764579
 30
0.0
 11
9346.302029381202
 21
-750.366858377227
 31
0.0
  0
LINE
  5
1090
330
20DF
100
AcDbEntity
  8
7
370
    13
100
AcDbLine
 10
9174.420568132173
 20
-589.9354812239249
 30
0.0
 11
9237.590419432025
 21
-648.8971991716282
 31
0.0
  0
ARC
  5
10A4
330
20DF
100
AcDbEntity
  8
7
370
    13
100
AcDbCircle
 10
9784.41038675039
 20
-1098.55078420365
 30
0.0
 40
846.7478598909706
100
AcDbArc
 50
106.0207890161587
 51
111.9604469820181
  0
ARC
  5
10AF
330
20DF
100
AcDbEntity
  8
7
370
    13
100
AcDbCircle
 10
9784.410377274757
 20
-1098.550684448471
 30
0.0
 40
846.7477596879444
100
AcDbArc
 50
79.55525895071061
 51
84.42807204846045
  0
ARC
  5
117D
330
20DF
100
AcDbEntity
  8
1
370
    13
100
AcDbCircle
 10
10760.299125
 20
-1184.017874551664
 30
0.0
 40
1828.499925
100
AcDbArc
 50
148.0928533973475
 51
148.892651419159
1001
QCAD
1000
reversed:1
  0
ARC
  5
117F
330
20DF
100
AcDbEntity
  8
1
370
    13
100
AcDbCircle
 10
10760.29919999999
 20
-1184.01779999984
 30
0.0
 40
1749.0
100
AcDbArc
 50
146.4565708736581
 51
148.6609481485976
  0
LINE
  5
1180
330
20DF
100
AcDbEntity
  8
1
370
    13
100
AcDbLine
 10
9266.470366373458
 20
-274.3604931935949
 30
0.0
 11
9194.735974159732
 21
-239.3359193645737
 31
0.0
  0
ARC
  5
1182
330
20DF
100
AcDbEntity
  8
1
370
    13
100
AcDbCircle
 10
10760.29852499999
 20
-1184.017424999998
 30
0.0
 40
1693.5
100
AcDbArc
 50
145.2025051037447
 51
148.4862399060029
1001
QCAD
1000
reversed:1
  0
LINE
  5
1183
330
20DF
100
AcDbEntity
  8
1
370
    13
100
AcDbLine
 10
9388.35056711304
 20
-333.8689375724216
 30
0.0
 11
9316.564953264935
 21
-298.8193545970257
 31
0.0
  0
ARC
  5
1184
330
20DF
100
AcDbEntity
  8
1
370
    13
100
AcDbCircle
 10
10760.29919999999
 20
-1184.017717915973
 30
0.0
 40
1614.0
100
AcDbArc
 50
143.2168967498199
 51
148.2149468452325
  0
ARC
  5
1187
330
20DF
100
AcDbEntity
  8
1
370
    13
100
AcDbCircle
 10
10760.29919999999
 20
-1184.017725
 30
0.0
 40
1558.5
100
AcDbArc
 50
141.9639786408301
 51
146.4269622992586
1001
QCAD
1000
reversed:1
  0
LINE
  5
1188
330
20DF
100
AcDbEntity
  8
1
370
    13
100
AcDbLine
 10
9532.787917779058
 20
-223.7374002925091
 30
0.0
 11
9552.413182798262
 21
-290.4454313754177
 31
0.0
  0
LINE
  5
11D9
330
20DF
100
AcDbEntity
  8
3 ... 2
370
    13
100
AcDbLine
 10
9524.720635746777
 20
-217.5748000000002
 30
0.0
 11
9546.65205498111
 21
-292.1216555224397
 31
0.0
  0
LINE
  5
11DA
330
20DF
100
AcDbEntity
  8
3 ... 2
370
    13
100
AcDbLine
 10
9799.184851539925
 20
-257.9327508243512
 30
0.0
 11
9765.34932402888
 21
-217.5748000000003
 31
0.0
  0
LINE
  5
11DB
330
20DF
100
AcDbEntity
  8
3 ... 2
370
    13
100
AcDbLine
 10
9938.306057904887
 20
-217.5748
 30
0.0
 11
9931.209291117419
 21
-270.7180477912104
 31
0.0
  0
LINE
  5
11E3
330
20DF
100
AcDbEntity
  8
3 ... 2
370
    13
100
AcDbLine
 10
9049.0938
 20
-292.7869275388678
 30
0.0
 11
9211.293409628483
 21
-483.4134762522741
 31
0.0
  0
LINE
  5
11E8
330
20DF
100
AcDbEntity
  8
3 ... 2
370
    13
100
AcDbLine
 10
9049.0938
 20
-292.7869275388671
 30
0.0
 11
9037.0938
 21
-306.8900353687841
 31
0.0
  0
LINE
  5
11EC
330
20DF
100
AcDbEntity
  8
3 ... 2
370
    13
100
AcDbLine
 10
9025.0938
 20
-292.7869275388689
 30
0.0
 11
9037.0938
 21
-306.8900353687843
 31
0.0
  0
LINE
  5
11E4
330
20DF
100
AcDbEntity
  8
3 ... 2
370
    13
100
AcDbLine
 10
9418.183839497717
 20
-341.7581570658818
 30
0.0
 11
9163.841911294157
 21
-217.5747999999995
 31
0.0
  0
LINE
  5
11ED
330
20DF
100
AcDbEntity
  8
4
370
    13
100
AcDbLine
 10
9207.401274233915
 20
-478.8392097126816
 30
0.0
 11
9640.27237627276
 21
-987.5748000000003
 31
0.0
  0
LINE
  5
1E8A
330
20DF
100
AcDbEntity
  8
4
370
    13
100
AcDbLine
 10
9619.000466546808
 20
-1012.5748
 30
0.0
 11
9640.27237627276
 21
-987.5748000000003
 31
0.0
  0
LINE
  5
1E90
330
20DF
100
AcDbEntity
  8
4
370
    13
100
AcDbLine
 10
9619.000466546808
 20
-1012.5748
 30
0.0
 11
9640.272376272762
 21
-1037.574800000001
 31
0.0
  0
LINE
  5
11EE
330
20DF
100
AcDbEntity
  8
4
370
    13
100
AcDbLine
 10
9705.630172280064
 20
-987.5748000000001
 30
0.0
 11
9478.657332026434
 21
-605.3342977412342
 31
0.0
  0
LINE
  5
1E89
330
20DF
100
AcDbEntity
  8
4
370
    13
100
AcDbLine
 10
9705.630172280064
 20
-987.5748000000001
 30
0.0
 11
9690.785274963297
 21
-1012.574799999999
 31
0.0
  0
LINE
  5
1E8F
330
20DF
100
AcDbEntity
  8
4
370
    13
100
AcDbLine
 10
9705.630172280064
 20
-1037.5748
 30
0.0
 11
9690.785274963297
 21
-1012.574799999999
 31
0.0
  0
LINE
  5
11F0
330
20DF
100
AcDbEntity
  8
4
370
    13
100
AcDbLine
 10
9798.25778767844
 20
-987.5748000000002
 30
0.0
 11
9743.629106261666
 21
-522.6625415290603
 31
0.0
  0
LINE
  5
1E88
330
20DF
100
AcDbEntity
  8
4
370
    13
100
AcDbLine
 10
9798.25778767844
 20
-987.5748
 30
0.0
 11
9795.320207499524
 21
-1012.574799999997
 31
0.0
  0
LINE
  5
1E92
330
20DF
100
AcDbEntity
  8
4
370
    13
100
AcDbLine
 10
9798.257787678442
 20
-1037.5748
 30
0.0
 11
9795.320207499524
 21
-1012.5748
 31
0.0
  0
LINE
  5
11F1
330
20DF
100
AcDbEntity
  8
4
370
    13
100
AcDbLine
 10
9932.004204467938
 20
-264.7654418883603
 30
0.0
 11
9835.47985176587
 21
-987.5748000000003
 31
0.0
  0
LINE
  5
1E8C
330
20DF
100
AcDbEntity
  8
4
370
    13
100
AcDbLine
 10
9838.818365290177
 20
-1012.574800000001
 30
0.0
 11
9835.47985176587
 21
-987.5748
 31
0.0
  0
LINE
  5
1E8E
330
20DF
100
AcDbEntity
  8
4
370
    13
100
AcDbLine
 10
9838.818365290177
 20
-1012.5748
 30
0.0
 11
9835.47985176587
 21
-1037.5748
 31
0.0
  0
LINE
  5
11F2
330
20DF
100
AcDbEntity
  8
4
370
    13
100
AcDbLine
 10
9882.763304995187
 20
-987.5748000000006
 30
0.0
 11
10020.08840659625
 21
-546.629931593382
 31
0.0
  0
LINE
  5
1E8B
330
20DF
100
AcDbEntity
  8
4
370
    13
100
AcDbLine
 10
9882.763304995187
 20
-987.5748000000001
 30
0.0
 11
9890.549148047248
 21
-1012.574799999994
 31
0.0
  0
LINE
  5
1E8D
330
20DF
100
AcDbEntity
  8
4
370
    13
100
AcDbLine
 10
9882.763304995187
 20
-1037.5748
 30
0.0
 11
9890.549148047248
 21
-1012.5748
 31
0.0
  0
LINE
  5
11F3
330
20DF
100
AcDbEntity
  8
4
370
    13
100
AcDbLine
 10
9478.657332026434
 20
-605.3342977412345
 30
0.0
 11
9578.444185027167
 21
-420.0058445508063
 31
0.0
  0
LINE
  5
11F4
330
20DF
100
AcDbEntity
  8
4
370
    13
100
AcDbLine
 10
9578.444185027167
 20
-420.005844550807
 30
0.0
 11
9411.342358358459
 21
-338.4177794050818
 31
0.0
  0
LINE
  5
11F5
330
20DF
100
AcDbEntity
  8
4
370
    13
100
AcDbLine
 10
9604.413694277326
 20
-488.4575760274346
 30
0.0
 11
9628.438577365217
 21
-570.1203511853699
 31
0.0
  0
LINE
  5
11F6
330
20DF
100
AcDbEntity
  8
4
370
    13
100
AcDbLine
 10
9576.87376253498
 20
-394.846828973542
 30
0.0
 11
9604.413694277326
 21
-488.4575760274353
 31
0.0
  0
LINE
  5
11F7
330
20DF
100
AcDbEntity
  8
4
370
    13
100
AcDbLine
 10
9554.592745898015
 20
-319.1116153927616
 30
0.0
 11
9576.87376253498
 21
-394.8468289735425
 31
0.0
  0
LINE
  5
11F8
330
20DF
100
AcDbEntity
  8
4
370
    13
100
AcDbLine
 10
9544.958639348602
 20
-286.3655843285422
 30
0.0
 11
9554.59250404112
 21
-319.1119520707448
 31
0.0
  0
LINE
  5
11F9
330
20DF
100
AcDbEntity
  8
4
370
    13
100
AcDbLine
 10
9628.438577365217
 20
-570.120351185369
 30
0.0
 11
9751.252115209058
 21
-987.5748000000004
 31
0.0
  0
LINE
  5
1E87
330
20DF
100
AcDbEntity
  8
4
370
    13
100
AcDbLine
 10
9743.897208692159
 20
-1012.574799999994
 30
0.0
 11
9751.252115209058
 21
-987.5748
 31
0.0
  0
LINE
  5
1E91
330
20DF
100
AcDbEntity
  8
4
370
    13
100
AcDbLine
 10
9743.897208692159
 20
-1012.5748
 30
0.0
 11
9751.252115209058
 21
-1037.574800000001
 31
0.0
  0
LINE
  5
11FA
330
20DF
100
AcDbEntity
  8
4
370
    13
100
AcDbLine
 10
9909.630972184787
 20
-389.6692688532223
 30
0.0
 11
9794.092396366874
 21
-251.8582804180268
 31
0.0
  0
LINE
  5
11FB
330
20DF
100
AcDbEntity
  8
4
370
    13
100
AcDbLine
 10
9743.629106261666
 20
-522.6625415290604
 30
0.0
 11
9909.630972184787
 21
-389.6692688532225
 31
0.0
  0
LINE
  5
11FC
330
20DF
100
AcDbEntity
  8
4
370
    13
100
AcDbLine
 10
10020.08840659625
 20
-546.6299315933825
 30
0.0
 11
10048.8438
 21
-539.6198470855886
 31
0.0
  0
LINE
  5
11FD
330
20DF
100
AcDbEntity
  8
4
370
    13
100
AcDbLine
 10
10060.8438
 20
-542.5452466067286
 30
0.0
 11
10048.8438
 21
-539.6198470855886
 31
0.0
  0
LINE
  5
1200
330
20DF
100
AcDbEntity
  8
4
370
    13
100
AcDbLine
 10
10060.8438
 20
-542.5452466067286
 30
0.0
 11
10072.8438
 21
-539.6198470855886
 31
0.0
  0
ARC
  5
120D
330
20DF
100
AcDbEntity
  8
7
370
    13
100
AcDbCircle
 10
10760.29919999999
 20
-1184.017725
 30
0.0
 40
1558.5
100
AcDbArc
 50
146.0321646894694
 51
148.0090607661286
1001
QCAD
1000
reversed:1
  0
LINE
  5
120E
330
20DF
100
AcDbEntity
  8
7
370
    13
100
AcDbLine
 10
9510.335320727983
 20
-393.4284302669734
 30
0.0
 11
9438.485653968239
 21
-358.347573228141
 31
0.0
  0
ARC
  5
120F
330
20DF
100
AcDbEntity
  8
7
370
    13
100
AcDbCircle
 10
10760.29919999999
 20
-1184.017641245263
 30
0.0
 40
1479.0
100
AcDbArc
 50
144.198194800272
 51
147.68707066855
  0
LINE
  5
1210
330
20DF
100
AcDbEntity
  8
7
370
    13
100
AcDbLine
 10
9550.719731327234
 20
-284.6892383631835
 30
0.0
 11
9560.763070389074
 21
-318.8274461100766
 31
0.0
  0
ARC
  5
1211
330
20DF
100
AcDbEntity
  8
7
370
    13
100
AcDbCircle
 10
10760.2992
 20
-1184.017894428373
 30
0.0
 40
1423.5
100
AcDbArc
 50
145.9523284067787
 51
147.4408218889149
1001
QCAD
1000
reversed:1
  0
LINE
  5
1212
330
20DF
100
AcDbEntity
  8
7
370
    13
100
AcDbLine
 10
9570.201549406218
 20
-422.6583307582009
 30
0.0
 11
9560.522090507515
 21
-417.9323002955391
 31
0.0
  0
LINE
  5
1213
330
20DF
100
AcDbEntity
  8
7
370
    13
100
AcDbLine
 10
9580.826926014088
 20
-387.0251686783164
 30
0.0
 11
9610.542796301685
 21
-488.0321298793597
 31
0.0
  0
LINE
  5
1214
330
20DF
100
AcDbEntity
  8
7
370
    13
100
AcDbLine
 10
9471.765075000001
 20
-605.4788025000021
 30
0.0
 11
9570.201549406216
 21
-422.6583307582001
 31
0.0
  0
LINE
  5
1215
330
20DF
100
AcDbEntity
  8
7
370
    13
100
AcDbLine
 10
9515.046480973446
 20
-678.3681682023846
 30
0.0
 11
9471.765075000001
 21
-605.4788025000023
 31
0.0
  0
ARC
  5
1216
330
20DF
100
AcDbEntity
  8
7
370
    13
100
AcDbCircle
 10
10760.29919999998
 20
-1184.017914328125
 30
0.0
 40
1344.0
100
AcDbArc
 50
148.8120860723514
 51
157.8998004733938
  0
LINE
  5
131B
330
20DF
100
AcDbEntity
  8
7
370
    13
100
AcDbLine
 10
9604.562074321264
 20
-829.119620768367
 30
0.0
 11
9551.072847832316
 21
-739.0394650293756
 31
0.0
  0
ARC
  5
131C
330
20DF
100
AcDbEntity
  8
7
370
    13
100
AcDbCircle
 10
10760.298525
 20
-1184.017567499998
 30
0.0
 40
1288.5
100
AcDbArc
 50
151.1097325450928
 51
159.7970920361661
1001
QCAD
1000
reversed:1
  0
ARC
  5
131D
330
20DF
100
AcDbEntity
  8
7
370
    13
100
AcDbCircle
 10
10760.29919999999
 20
-1184.017769999768
 30
0.0
 40
1209.0
100
AcDbArc
 50
154.9719661602528
 51
162.9295790454634
  0
LINE
  5
131E
330
20DF
100
AcDbEntity
  8
7
370
    13
100
AcDbLine
 10
9632.15672173845
 20
-561.4998394522113
 30
0.0
 11
9664.823213457023
 21
-672.5362327887827
 31
0.0
  0
LINE
  5
131F
330
20DF
100
AcDbEntity
  8
7
370
    13
100
AcDbLine
 10
9698.652108921402
 20
-987.5748000000002
 30
0.0
 11
9643.62043749961
 21
-894.8970430450299
 31
0.0
  0
LINE
  5
1EC0
330
20DF
100
AcDbEntity
  8
7
370
    13
100
AcDbLine
 10
9698.652108921402
 20
-987.5748000000002
 30
0.0
 11
9683.807211604635
 21
-1012.5748
 31
0.0
  0
LINE
  5
1EC1
330
20DF
100
AcDbEntity
  8
7
370
    13
100
AcDbLine
 10
9698.652108921402
 20
-1037.5748
 30
0.0
 11
9683.807211604635
 21
-1012.5748
 31
0.0
  0
ARC
  5
1320
330
20DF
100
AcDbEntity
  8
7
370
    13
100
AcDbCircle
 10
10760.29919999999
 20
-1184.017764164459
 30
0.0
 40
1153.5
100
AcDbArc
 50
158.2013337885072
 51
165.4842288408286
1001
QCAD
1000
reversed:1
  0
ARC
  5
1321
330
20DF
100
AcDbEntity
  8
7
370
    13
100
AcDbCircle
 10
10760.29919999996
 20
-1184.017448810126
 30
0.0
 40
1074.0
100
AcDbArc
 50
163.9710954876747
 51
169.4608408619594
  0
ARC
  5
1EBF
330
20DF
100
AcDbEntity
  8
7
370
    13
100
AcDbCircle
 10
10760.29919999996
 20
-791.1321511898745
 30
0.0
 40
1074.0
100
AcDbArc
 50
190.5391591380405
 51
191.8988743717324
1001
QCAD
1000
reversed:1
  0
ARC
  5
1EC2
330
20DF
100
AcDbEntity
  8
7
370
    13
100
AcDbCircle
 10
10760.29919999996
 20
-1234.017448810123
 30
0.0
 40
1074.0
100
AcDbArc
 50
168.1011256282676
 51
169.4608408619595
  0
LINE
  5
1322
330
20DF
100
AcDbEntity
  8
7
370
    13
100
AcDbLine
 10
9689.280826892264
 20
-755.669897978951
 30
0.0
 11
9728.053613099286
 21
-887.4621448209964
 31
0.0
  0
LINE
  5
1327
330
20DF
100
AcDbEntity
  8
7
370
    13
100
AcDbLine
 10
9683.807211604635
 20
-1012.574799999999
 30
0.0
 11
9709.376199353406
 21
-1012.5748
 31
0.0
  0
LINE
  5
1328
330
20DF
100
AcDbEntity
  8
7
370
    13
100
AcDbLine
 10
9698.6521089214
 20
-987.5748000000003
 30
0.0
 11
9704.417442543916
 21
-987.5748000000002
 31
0.0
  0
LINE
  5
1329
330
20DF
100
AcDbEntity
  8
7
370
    13
100
AcDbLine
 10
9698.652108921402
 20
-1037.5748
 30
0.0
 11
9704.417442543916
 21
-1037.5748
 31
0.0
  0
ARC
  5
132E
330
20DF
100
AcDbEntity
  8
7
370
    13
100
AcDbCircle
 10
10760.29919999999
 20
-1184.017764164459
 30
0.0
 40
1153.5
100
AcDbArc
 50
168.9985225198386
 51
170.1946413688934
1001
QCAD
1000
reversed:1
  0
ARC
  5
1EBC
330
20DF
100
AcDbEntity
  8
7
370
    13
100
AcDbCircle
 10
10760.29919999999
 20
-791.1318358355411
 30
0.0
 40
1153.5
100
AcDbArc
 50
189.8053586311066
 51
191.0014774801614
  0
ARC
  5
1EBE
330
20DF
100
AcDbEntity
  8
7
370
    13
100
AcDbCircle
 10
10760.29919999999
 20
-1234.017764164458
 30
0.0
 40
1153.5
100
AcDbArc
 50
168.9985225198386
 51
170.1946413688934
1001
QCAD
1000
reversed:1
  0
LINE
  5
132F
330
20DF
100
AcDbEntity
  8
7
370
    13
100
AcDbLine
 10
9627.997919917798
 20
-963.8903893919676
 30
0.0
 11
9648.150425692456
 21
-987.5747999999991
 31
0.0
  0
LINE
  5
1EBB
330
20DF
100
AcDbEntity
  8
7
370
    13
100
AcDbLine
 10
9627.997919917798
 20
-1011.259210608032
 30
0.0
 11
9648.150425692456
 21
-987.5747999999991
 31
0.0
  0
LINE
  5
1EBD
330
20DF
100
AcDbEntity
  8
7
370
    13
100
AcDbLine
 10
9627.997919917798
 20
-1013.890389391966
 30
0.0
 11
9648.150425692458
 21
-1037.574800000001
 31
0.0
  0
LINE
  5
1335
330
20DF
100
AcDbEntity
  8
7
370
    13
100
AcDbLine
 10
9623.649556604858
 20
-1037.5748
 30
0.0
 11
9648.150425692458
 21
-1037.5748
 31
0.0
  0
ARC
  5
1336
330
20DF
100
AcDbEntity
  8
7
370
    13
100
AcDbCircle
 10
10760.298525
 20
-1184.017567499998
 30
0.0
 40
1288.5
100
AcDbArc
 50
164.3508267192423
 51
167.1562903294988
1001
QCAD
1000
reversed:1
  0
ARC
  5
1337
330
20DF
100
AcDbEntity
  8
7
370
    13
100
AcDbCircle
 10
10760.29919999999
 20
-1184.017769999768
 30
0.0
 40
1209.0
100
AcDbArc
 50
166.927913374092
 51
169.3730834921764
  0
LINE
  5
1338
330
20DF
100
AcDbEntity
  8
7
370
    13
100
AcDbLine
 10
9519.561396088915
 20
-836.4494059237729
 30
0.0
 11
9582.62889746771
 21
-910.5700445867998
 31
0.0
  0
ARC
  5
1339
330
20DF
100
AcDbEntity
  8
7
370
    13
100
AcDbCircle
 10
10760.2992
 20
-1184.017894428373
 30
0.0
 40
1423.5
100
AcDbArc
 50
160.764850829111
 51
164.0435916241927
1001
QCAD
1000
reversed:1
  0
ARC
  5
133A
330
20DF
100
AcDbEntity
  8
7
370
    13
100
AcDbCircle
 10
10760.29919999998
 20
-1184.017914328125
 30
0.0
 40
1344.0
100
AcDbArc
 50
162.7719703244557
 51
165.7895465816167
  0
LINE
  5
133B
330
20DF
100
AcDbEntity
  8
7
370
    13
100
AcDbLine
 10
9416.266880203646
 20
-715.0516127589628
 30
0.0
 11
9476.599662507504
 21
-785.9582486477107
 31
0.0
  0
ARC
  5
133C
330
20DF
100
AcDbEntity
  8
7
370
    13
100
AcDbCircle
 10
10760.29919999999
 20
-1184.017725
 30
0.0
 40
1558.5
100
AcDbArc
 50
157.8972476432189
 51
161.5343996290557
1001
QCAD
1000
reversed:1
  0
ARC
  5
133D
330
20DF
100
AcDbEntity
  8
7
370
    13
100
AcDbCircle
 10
10760.29919999999
 20
-1184.017641245263
 30
0.0
 40
1479.0
100
AcDbArc
 50
159.5128049730864
 51
162.9500436974885
  0
LINE
  5
133E
330
20DF
100
AcDbEntity
  8
7
370
    13
100
AcDbLine
 10
9316.332497135194
 20
-597.6028453987308
 30
0.0
 11
9374.845309101396
 21
-666.3705450552561
 31
0.0
  0
ARC
  5
133F
330
20DF
100
AcDbEntity
  8
7
370
    13
100
AcDbCircle
 10
10760.29852499999
 20
-1184.017424999998
 30
0.0
 40
1693.5
100
AcDbArc
 50
155.5437251772283
 51
159.4636680587341
1001
QCAD
1000
reversed:1
  0
ARC
  5
1340
330
20DF
100
AcDbEntity
  8
7
370
    13
100
AcDbCircle
 10
10760.29919999999
 20
-1184.017717915973
 30
0.0
 40
1614.0
100
AcDbArc
 50
156.8761493766785
 51
160.6371632404706
  0
LINE
  5
1341
330
20DF
100
AcDbEntity
  8
7
370
    13
100
AcDbLine
 10
9218.743615475269
 20
-482.9106493087125
 30
0.0
 11
9275.971028677382
 21
-550.1676727017432
 31
0.0
  0
ARC
  5
1342
330
20DF
100
AcDbEntity
  8
7
370
    13
100
AcDbCircle
 10
10760.298525
 20
-1184.017567499998
 30
0.0
 40
1288.5
100
AcDbArc
 50
169.6880066077752
 51
171.2305732269082
1001
QCAD
1000
reversed:1
  0
ARC
  5
1EB8
330
20DF
100
AcDbEntity
  8
7
370
    13
100
AcDbCircle
 10
10760.298525
 20
-791.1320325000021
 30
0.0
 40
1288.5
100
AcDbArc
 50
188.7694267730918
 51
189.8960332725848
  0
ARC
  5
1EBA
330
20DF
100
AcDbEntity
  8
7
370
    13
100
AcDbCircle
 10
10760.298525
 20
-1234.017567499996
 30
0.0
 40
1288.5
100
AcDbArc
 50
170.1039667274152
 51
171.2305732269083
1001
QCAD
1000
reversed:1
  0
LINE
  5
1347
330
20DF
100
AcDbEntity
  8
7
370
    13
100
AcDbLine
 10
9490.969824181358
 20
-1012.574799999999
 30
0.0
 11
9505.70307986491
 21
-1012.574799999999
 31
0.0
  0
LINE
  5
1348
330
20DF
100
AcDbEntity
  8
7
370
    13
100
AcDbLine
 10
9486.861251673614
 20
-1037.5748
 30
0.0
 11
9541.243905172963
 21
-1037.5748
 31
0.0
  0
ARC
  5
1349
330
20DF
100
AcDbEntity
  8
7
370
    13
100
AcDbCircle
 10
10760.2992
 20
-1184.017894428373
 30
0.0
 40
1423.5
100
AcDbArc
 50
167.2001676639004
 51
170.0845173396303
1001
QCAD
1000
reversed:1
  0
ARC
  5
134A
330
20DF
100
AcDbEntity
  8
7
370
    13
100
AcDbCircle
 10
10760.29919999998
 20
-1184.017914328125
 30
0.0
 40
1344.0
100
AcDbArc
 50
168.598920676611
 51
171.2297546148012
  0
ARC
  5
1ECC
330
20DF
100
AcDbEntity
  8
7
370
    13
100
AcDbCircle
 10
10760.29919999998
 20
-791.131685671875
 30
0.0
 40
1344.0
100
AcDbArc
 50
188.7702453851988
 51
189.4835379217011
1001
QCAD
1000
reversed:1
  0
ARC
  5
1ECF
330
20DF
100
AcDbEntity
  8
7
370
    13
100
AcDbCircle
 10
10760.29919999998
 20
-1234.017914328124
 30
0.0
 40
1344.0
100
AcDbArc
 50
170.5164620782989
 51
171.2297546148013
  0
ARC
  5
134B
330
20DF
100
AcDbEntity
  8
7
370
    13
100
AcDbCircle
 10
10760.29919999999
 20
-1184.017725
 30
0.0
 40
1558.5
100
AcDbArc
 50
165.1765613139136
 51
168.4210918425141
1001
QCAD
1000
reversed:1
  0
ARC
  5
134C
330
20DF
100
AcDbEntity
  8
7
370
    13
100
AcDbCircle
 10
10760.29919999999
 20
-1184.017641245263
 30
0.0
 40
1479.0
100
AcDbArc
 50
166.3200956780088
 51
169.3620061905723
  0
ARC
  5
134D
330
20DF
100
AcDbEntity
  8
7
370
    13
100
AcDbCircle
 10
10760.29919999999
 20
-1184.017717915973
 30
0.0
 40
1614.0
100
AcDbArc
 50
164.4494565214751
 51
167.8216492224449
  0
ARC
  5
134E
330
20DF
100
AcDbEntity
  8
7
370
    13
100
AcDbCircle
 10
10760.29852499999
 20
-1184.017424999998
 30
0.0
 40
1693.5
100
AcDbArc
 50
163.4959145948327
 51
167.0342244171693
1001
QCAD
1000
reversed:1
  0
ARC
  5
134F
330
20DF
100
AcDbEntity
  8
7
370
    13
100
AcDbCircle
 10
10760.29919999999
 20
-1184.01779999984
 30
0.0
 40
1749.0
100
AcDbArc
 50
162.8844607323666
 51
166.528546112577
  0
ARC
  5
13E7
330
20DF
100
AcDbEntity
  8
7
370
    13
100
AcDbCircle
 10
7337.888400000011
 20
-1184.01779999984
 30
0.0
 40
1749.0
100
AcDbArc
 50
13.47145388742301
 51
13.70470355111007
1001
QCAD
1000
reversed:1
  0
ARC
  5
13EA
330
20DF
100
AcDbEntity
  8
7
370
    13
100
AcDbCircle
 10
10736.29919999999
 20
-1184.01779999984
 30
0.0
 40
1749.0
100
AcDbArc
 50
166.2952964488899
 51
166.528546112577
  0
LINE
  5
1354
330
20DF
100
AcDbEntity
  8
7
370
    13
100
AcDbLine
 10
9025.0938
 20
-678.6799561157957
 30
0.0
 11
9025.0938
 21
-770.9558010772657
 31
0.0
  0
LINE
  5
1355
330
20DF
100
AcDbEntity
  8
7
370
    13
100
AcDbLine
 10
9037.0938
 20
-658.3291302054292
 30
0.0
 11
9037.0938
 21
-769.6483891948492
 31
0.0
  0
ARC
  5
1356
330
20DF
100
AcDbEntity
  8
7
370
    13
100
AcDbCircle
 10
10760.29919999999
 20
-1184.017725
 30
0.0
 40
1558.5
100
AcDbArc
 50
171.5955710250636
 51
172.7588263647088
1001
QCAD
1000
reversed:1
  0
ARC
  5
1EB4
330
20DF
100
AcDbEntity
  8
7
370
    13
100
AcDbCircle
 10
10760.29919999999
 20
-791.1318750000017
 30
0.0
 40
1558.5
100
AcDbArc
 50
187.2411736352912
 51
188.1686424500046
  0
ARC
  5
1EB6
330
20DF
100
AcDbEntity
  8
7
370
    13
100
AcDbCircle
 10
10760.29919999999
 20
-1234.017724999996
 30
0.0
 40
1558.5
100
AcDbArc
 50
171.8313575499954
 51
172.7588263647089
1001
QCAD
1000
reversed:1
  0
LINE
  5
135B
330
20DF
100
AcDbEntity
  8
7
370
    13
100
AcDbLine
 10
9217.61151904592
 20
-1012.574799999999
 30
0.0
 11
9235.400142554934
 21
-1012.574799999999
 31
0.0
  0
LINE
  5
135C
330
20DF
100
AcDbEntity
  8
7
370
    13
100
AcDbLine
 10
9301.829906589992
 20
-1037.5748
 30
0.0
 11
9214.229205718539
 21
-1037.5748
 31
0.0
  0
ARC
  5
135D
330
20DF
100
AcDbEntity
  8
7
370
    13
100
AcDbCircle
 10
10760.29852499999
 20
-1184.017424999998
 30
0.0
 40
1693.5
100
AcDbArc
 50
170.6082881068637
 51
173.3388080941488
1001
QCAD
1000
reversed:1
  0
ARC
  5
1EB0
330
20DF
100
AcDbEntity
  8
7
370
    13
100
AcDbCircle
 10
10760.29852499999
 20
-791.1321750000022
 30
0.0
 40
1693.5
100
AcDbArc
 50
186.6611919058512
 51
187.5135312852196
  0
ARC
  5
1EB2
330
20DF
100
AcDbEntity
  8
7
370
    13
100
AcDbCircle
 10
10760.29852499999
 20
-1234.017424999997
 30
0.0
 40
1693.5
100
AcDbArc
 50
172.4864687147805
 51
173.3388080941489
1001
QCAD
1000
reversed:1
  0
ARC
  5
135E
330
20DF
100
AcDbEntity
  8
7
370
    13
100
AcDbCircle
 10
10760.29919999999
 20
-1184.017717915973
 30
0.0
 40
1614.0
100
AcDbArc
 50
171.1692613057483
 51
173.009091670909
  0
ARC
  5
1EAF
330
20DF
100
AcDbEntity
  8
7
370
    13
100
AcDbCircle
 10
10760.29919999999
 20
-791.1318820840263
 30
0.0
 40
1614.0
100
AcDbArc
 50
186.990908329091
 51
187.8859304381869
1001
QCAD
1000
reversed:1
  0
ARC
  5
1EB1
330
20DF
100
AcDbEntity
  8
7
370
    13
100
AcDbCircle
 10
10760.29919999999
 20
-1234.017717915973
 30
0.0
 40
1614.0
100
AcDbArc
 50
172.1140695618132
 51
173.009091670909
  0
LINE
  5
1364
330
20DF
100
AcDbEntity
  8
7
370
    13
100
AcDbLine
 10
9081.338902545325
 20
-1012.574799999999
 30
0.0
 11
9161.562500569826
 21
-1012.574799999999
 31
0.0
  0
LINE
  5
1365
330
20DF
100
AcDbEntity
  8
7
370
    13
100
AcDbLine
 10
9792.216508663785
 20
-987.5748000000001
 30
0.0
 11
9782.005406124537
 21
-900.6741716142988
 31
0.0
  0
LINE
  5
1EC3
330
20DF
100
AcDbEntity
  8
7
370
    13
100
AcDbLine
 10
9792.216508663785
 20
-987.5748000000001
 30
0.0
 11
9789.27892848487
 21
-1012.5748
 31
0.0
  0
LINE
  5
1EC5
330
20DF
100
AcDbEntity
  8
7
370
    13
100
AcDbLine
 10
9792.216508663783
 20
-1037.5748
 30
0.0
 11
9789.27892848487
 21
-1012.5748
 31
0.0
  0
LINE
  5
1366
330
20DF
100
AcDbEntity
  8
7
370
    13
100
AcDbLine
 10
9884.797457054203
 20
-663.5957135313815
 30
0.0
 11
9841.533114583472
 21
-987.5748000000003
 31
0.0
  0
LINE
  5
1EC4
330
20DF
100
AcDbEntity
  8
7
370
    13
100
AcDbLine
 10
9844.87162810778
 20
-1012.574800000005
 30
0.0
 11
9841.533114583472
 21
-987.5748000000003
 31
0.0
  0
LINE
  5
1EC6
330
20DF
100
AcDbEntity
  8
7
370
    13
100
AcDbLine
 10
9844.87162810778
 20
-1012.574800000005
 30
0.0
 11
9841.533114583472
 21
-1037.5748
 31
0.0
  0
ARC
  5
1367
330
20DF
100
AcDbEntity
  8
7
370
    13
100
AcDbCircle
 10
10760.29919999999
 20
-1184.017607862209
 30
0.0
 40
1018.5
100
AcDbArc
 50
149.2716061823145
 51
163.8473867303383
1001
QCAD
1000
reversed:1
  0
LINE
  5
136D
330
20DF
100
AcDbEntity
  8
7
370
    13
100
AcDbLine
 10
9789.27892848487
 20
-1012.5748
 30
0.0
 11
9844.87162810778
 21
-1012.574800000005
 31
0.0
  0
ARC
  5
136F
330
20DF
100
AcDbEntity
  8
7
370
    13
100
AcDbCircle
 10
10760.29919999999
 20
-1184.017764164459
 30
0.0
 40
1153.5
100
AcDbArc
 50
136.6890758980737
 51
151.1556068137155
1001
QCAD
1000
reversed:1
  0
ARC
  5
1370
330
20DF
100
AcDbEntity
  8
7
370
    13
100
AcDbCircle
 10
10760.29919999996
 20
-1184.017448810126
 30
0.0
 40
1074.0
100
AcDbArc
 50
143.1025966007816
 51
157.6139579428486
  0
LINE
  5
1371
330
20DF
100
AcDbEntity
  8
7
370
    13
100
AcDbLine
 10
9920.96417002297
 20
-392.766250767187
 30
0.0
 11
9901.408653499502
 21
-539.2050504087416
 31
0.0
  0
LINE
  5
1372
330
20DF
100
AcDbEntity
  8
7
370
    13
100
AcDbLine
 10
9767.237086359608
 20
-774.989774377018
 30
0.0
 11
9749.910310553254
 21
-627.5318774767638
 31
0.0
  0
LINE
  5
1373
330
20DF
100
AcDbEntity
  8
7
370
    13
100
AcDbLine
 10
9876.303215617345
 20
-359.2559258317933
 30
0.0
 11
9824.866134989958
 21
-297.903300760037
 31
0.0
  0
ARC
  5
1374
330
20DF
100
AcDbEntity
  8
7
370
    13
100
AcDbCircle
 10
10760.298525
 20
-1184.017567499998
 30
0.0
 40
1288.5
100
AcDbArc
 50
133.9138674320203
 51
136.5508964027636
1001
QCAD
1000
reversed:1
  0
ARC
  5
1375
330
20DF
100
AcDbEntity
  8
7
370
    13
100
AcDbCircle
 10
10760.29919999999
 20
-1184.017769999768
 30
0.0
 40
1209.0
100
AcDbArc
 50
133.176916147057
 51
136.9853648836359
  0
LINE
  5
1376
330
20DF
100
AcDbEntity
  8
7
370
    13
100
AcDbLine
 10
9937.914856987978
 20
-265.8333595148979
 30
0.0
 11
9933.036891672162
 21
-302.3613328202321
 31
0.0
  0
ARC
  5
1377
330
20DF
100
AcDbEntity
  8
7
370
    13
100
AcDbCircle
 10
10760.2992
 20
-1184.017836750001
 30
0.0
 40
883.5
100
AcDbArc
 50
143.6362682012828
 51
167.1531146714393
1001
QCAD
1000
reversed:1
  0
ARC
  5
1EC7
330
20DF
100
AcDbEntity
  8
7
370
    13
100
AcDbCircle
 10
10760.2992
 20
-791.1317632499986
 30
0.0
 40
883.5
100
AcDbArc
 50
192.8468853285607
 51
194.515561264242
  0
ARC
  5
1EC9
330
20DF
100
AcDbEntity
  8
7
370
    13
100
AcDbCircle
 10
10760.2992
 20
-1234.01783675
 30
0.0
 40
883.5
100
AcDbArc
 50
165.4844387357581
 51
167.1531146714394
1001
QCAD
1000
reversed:1
  0
ARC
  5
1548
330
20DF
100
AcDbEntity
  8
7
370
    13
100
AcDbCircle
 10
9337.388400000002
 20
-1184.017836750001
 30
0.0
 40
883.5
100
AcDbArc
 50
35.02999952008884
 51
36.36373179871719
  0
ARC
  5
1549
330
20DF
100
AcDbEntity
  8
7
370
    13
100
AcDbCircle
 10
10784.2992
 20
-1184.017836750001
 30
0.0
 40
883.5
100
AcDbArc
 50
143.6362682012828
 51
144.9700004799112
1001
QCAD
1000
reversed:1
  0
ARC
  5
1378
330
20DF
100
AcDbEntity
  8
7
370
    13
100
AcDbCircle
 10
10760.29919999999
 20
-1184.01783655
 30
0.0
 40
804.0
100
AcDbArc
 50
152.2385751950938
 51
165.8576315703456
  0
ARC
  5
1EC8
330
20DF
100
AcDbEntity
  8
7
370
    13
100
AcDbCircle
 10
10760.29919999999
 20
-791.1317634500001
 30
0.0
 40
804.0
100
AcDbArc
 50
194.1423684296543
 51
195.9874420610169
1001
QCAD
1000
reversed:1
  0
ARC
  5
1ECA
330
20DF
100
AcDbEntity
  8
7
370
    13
100
AcDbCircle
 10
10760.29919999999
 20
-1234.017836549998
 30
0.0
 40
804.0
100
AcDbArc
 50
164.0125579389831
 51
165.8576315703457
  0
ARC
  5
1547
330
20DF
100
AcDbEntity
  8
7
370
    13
100
AcDbCircle
 10
9337.38840000001
 20
-1184.01783655
 30
0.0
 40
804.0
100
AcDbArc
 50
25.86556327962568
 51
27.76142480490621
1001
QCAD
1000
reversed:1
  0
ARC
  5
154A
330
20DF
100
AcDbEntity
  8
7
370
    13
100
AcDbCircle
 10
10784.29919999999
 20
-1184.01783655
 30
0.0
 40
804.0
100
AcDbArc
 50
152.2385751950938
 51
154.1344367203743
  0
LINE
  5
137E
330
20DF
100
AcDbEntity
  8
7
370
    13
100
AcDbLine
 10
9905.000871067376
 20
-1012.574799999999
 30
0.0
 11
9987.396242596205
 21
-1012.574799999999
 31
0.0
  0
ARC
  5
1B36
330
20DF
100
AcDbEntity
  8
6
370
    13
100
AcDbCircle
 10
9704.222173736274
 20
-345.9094783987165
 30
0.0
 40
53.62500000001455
100
AcDbArc
 50
0.0
 51
180.0
  0
ARC
  5
1B37
330
20DF
100
AcDbEntity
  8
6
370
    13
100
AcDbCircle
 10
9704.222173736274
 20
-345.9094783987165
 30
0.0
 40
53.62500000001455
100
AcDbArc
 50
180.0
 51
0.0
  0
ARC
  5
138C
330
20DF
100
AcDbEntity
  8
6
370
    13
100
AcDbCircle
 10
10058.43779382201
 20
-389.8986465051665
 30
0.0
 40
53.62500000001272
100
AcDbArc
 50
100.3062171809214
 51
259.6937828190786
  0
ARC
  5
138D
330
20DF
100
AcDbEntity
  8
6
370
    13
100
AcDbCircle
 10
10039.24980617795
 20
-389.8986465051877
 30
0.0
 40
53.62500000000032
100
AcDbArc
 50
66.25384905822582
 51
79.69378281903074
1001
QCAD
1000
reversed:1
  0
ARC
  5
138E
330
20DF
100
AcDbEntity
  8
6
370
    13
100
AcDbCircle
 10
10082.43779382206
 20
-389.8986465051877
 30
0.0
 40
53.62500000000032
100
AcDbArc
 50
100.3062171809791
 51
113.7461509417786
  0
ARC
  5
138F
330
20DF
100
AcDbEntity
  8
6
370
    13
100
AcDbCircle
 10
10039.24980617795
 20
-389.8986465051877
 30
0.0
 40
53.62500000000032
100
AcDbArc
 50
280.3062171809692
 51
293.746150941768
1001
QCAD
1000
reversed:1
  0
ARC
  5
1390
330
20DF
100
AcDbEntity
  8
6
370
    13
100
AcDbCircle
 10
10082.43779382206
 20
-389.8986465051877
 30
0.0
 40
53.62500000000032
100
AcDbArc
 50
246.2538490582276
 51
259.6937828190209
  0
LINE
  5
1396
330
20DF
100
AcDbEntity
  8
6
370
    13
100
AcDbLine
 10
9703.245202662096
 20
-1012.5748
 30
0.0
 11
9750.151475382394
 21
-1012.574800000001
 31
0.0
  0
LINE
  5
1397
330
20DF
100
AcDbEntity
  8
6
370
    13
100
AcDbLine
 10
9566.84521918646
 20
-956.2183062595343
 30
0.0
 11
9600.439644786928
 21
-987.5748000000002
 31
0.0
  0
LINE
  5
1EA0
330
20DF
100
AcDbEntity
  8
6
370
    13
100
AcDbLine
 10
9573.655379716887
 20
-1012.574800000001
 30
0.0
 11
9600.439644786928
 21
-987.5748000000002
 31
0.0
  0
LINE
  5
1EA4
330
20DF
100
AcDbEntity
  8
6
370
    13
100
AcDbLine
 10
9573.655379716887
 20
-1012.574800000001
 30
0.0
 11
9600.439644786928
 21
-1037.574799999999
 31
0.0
  0
LINE
  5
139E
330
20DF
100
AcDbEntity
  8
6
370
    13
100
AcDbLine
 10
9573.655379716887
 20
-1012.5748
 30
0.0
 11
9626.878515966504
 21
-1012.5748
 31
0.0
  0
LINE
  5
139F
330
20DF
100
AcDbEntity
  8
6
370
    13
100
AcDbLine
 10
9600.439644786928
 20
-1037.5748
 30
0.0
 11
9629.738979653333
 21
-1037.5748
 31
0.0
  0
ARC
  5
1B38
330
20DF
100
AcDbEntity
  8
6
370
    13
100
AcDbCircle
 10
9365.84946939846
 20
-468.4778698344986
 30
0.0
 40
53.62500000001637
100
AcDbArc
 50
0.0
 51
180.0
  0
ARC
  5
1B39
330
20DF
100
AcDbEntity
  8
6
370
    13
100
AcDbCircle
 10
9365.84946939846
 20
-468.4778698344986
 30
0.0
 40
53.62500000001637
100
AcDbArc
 50
180.0
 51
0.0
  0
LINE
  5
13A1
330
20DF
100
AcDbEntity
  8
6
370
    13
100
AcDbLine
 10
9498.020163212283
 20
-957.1705102951105
 30
0.0
 11
9437.461626824139
 21
-914.5726416023783
 31
0.0
  0
LINE
  5
13A2
330
20DF
100
AcDbEntity
  8
6
370
    13
100
AcDbLine
 10
9426.413989367153
 20
-976.0509822090556
 30
0.0
 11
9447.614726932596
 21
-987.5748000000009
 31
0.0
  0
LINE
  5
1E99
330
20DF
100
AcDbEntity
  8
6
370
    13
100
AcDbLine
 10
9426.413989367153
 20
-999.0986177909443
 30
0.0
 11
9447.614726932596
 21
-987.5748000000009
 31
0.0
  0
LINE
  5
1E9D
330
20DF
100
AcDbEntity
  8
6
370
    13
100
AcDbLine
 10
9426.413989367153
 20
-1026.050982209056
 30
0.0
 11
9447.614726932597
 21
-1037.5748
 31
0.0
  0
LINE
  5
13AA
330
20DF
100
AcDbEntity
  8
6
370
    13
100
AcDbLine
 10
9428.58491115396
 20
-1012.5748
 30
0.0
 11
9497.06087882176
 21
-1012.5748
 31
0.0
  0
LINE
  5
13AB
330
20DF
100
AcDbEntity
  8
6
370
    13
100
AcDbLine
 10
9301.180343258906
 20
-907.9793071273581
 30
0.0
 11
9363.626048550503
 21
-941.9221323420998
 31
0.0
  0
LINE
  5
13AC
330
20DF
100
AcDbEntity
  8
6
370
    13
100
AcDbLine
 10
9377.480157699507
 20
-872.380691496588
 30
0.0
 11
9317.9844629475
 21
-830.5304430595227
 31
0.0
  0
LINE
  5
13AD
330
20DF
100
AcDbEntity
  8
6
370
    13
100
AcDbLine
 10
9177.128367759726
 20
-840.549937849681
 30
0.0
 11
9239.02780818236
 21
-874.1958367524918
 31
0.0
  0
LINE
  5
13AE
330
20DF
100
AcDbEntity
  8
6
370
    13
100
AcDbLine
 10
9258.901809156952
 20
-788.9707344156951
 30
0.0
 11
9200.173504155095
 21
-747.6602805272219
 31
0.0
  0
LINE
  5
13AF
330
20DF
100
AcDbEntity
  8
6
370
    13
100
AcDbLine
 10
9141.751185167153
 20
-706.565062224349
 30
0.0
 11
9083.597411357929
 21
-665.6587430089265
 31
0.0
  0
LINE
  5
13B0
330
20DF
100
AcDbEntity
  8
6
370
    13
100
AcDbLine
 10
9053.962728799635
 20
-773.6023433567916
 30
0.0
 11
9115.448461536089
 21
-807.0233683853069
 31
0.0
  0
LINE
  5
13E3
330
20DF
100
AcDbEntity
  8
6
370
    13
100
AcDbLine
 10
9044.224871200366
 20
-773.6023433567916
 30
0.0
 11
9037.0938
 21
-777.4784898782792
 31
0.0
  0
LINE
  5
13E6
330
20DF
100
AcDbEntity
  8
6
370
    13
100
AcDbLine
 10
9029.962728799635
 20
-773.6023433567916
 30
0.0
 11
9037.0938
 21
-777.4784898782792
 31
0.0
  0
LINE
  5
13B1
330
20DF
100
AcDbEntity
  8
6
370
    13
100
AcDbLine
 10
9159.69517821161
 20
-934.0841958848887
 30
0.0
 11
9224.282054176336
 21
-958.3906483098294
 31
0.0
  0
LINE
  5
13B7
330
20DF
100
AcDbEntity
  8
6
370
    13
100
AcDbLine
 10
9155.505433154898
 20
-1012.574799999999
 30
0.0
 11
9223.673259516281
 21
-1012.5748
 31
0.0
  0
LINE
  5
13B8
330
20DF
100
AcDbEntity
  8
6
370
    13
100
AcDbLine
 10
9049.0938
 20
-892.460768563499
 30
0.0
 11
9095.224126417928
 21
-909.8213324191765
 31
0.0
  0
LINE
  5
13BD
330
20DF
100
AcDbEntity
  8
6
370
    13
100
AcDbLine
 10
9049.0938
 20
-892.460768563499
 30
0.0
 11
9037.0938
 21
-896.9768165181729
 31
0.0
  0
LINE
  5
13BE
330
20DF
100
AcDbEntity
  8
6
370
    13
100
AcDbLine
 10
9025.0938
 20
-892.460768563499
 30
0.0
 11
9037.0938
 21
-896.9768165181729
 31
0.0
  0
LINE
  5
13BB
330
20DF
100
AcDbEntity
  8
6
370
    13
100
AcDbLine
 10
9037.0938
 20
-1012.5748
 30
0.0
 11
9087.391051816518
 21
-1012.5748
 31
0.0
  0
LINE
  5
13BC
330
20DF
100
AcDbEntity
  8
6
370
    13
100
AcDbLine
 10
9025.0938
 20
-1037.5748
 30
0.0
 11
9084.271512961368
 21
-1037.5748
 31
0.0
  0
LINE
  5
13BF
330
20DF
100
AcDbEntity
  8
6
370
    13
100
AcDbLine
 10
9025.0938
 20
-1037.5748
 30
0.0
 11
9025.0938
 21
-892.4607685634986
 31
0.0
  0
LINE
  5
13C0
330
20DF
100
AcDbEntity
  8
6
370
    13
100
AcDbLine
 10
9037.0938
 20
-1012.5748
 30
0.0
 11
9037.0938
 21
-896.976816518173
 31
0.0
  0
LINE
  5
13C1
330
20DF
100
AcDbEntity
  8
6
370
    13
100
AcDbLine
 10
9452.422059232522
 20
-849.4175786170899
 30
0.0
 11
9509.114893750413
 21
-902.3337538132732
 31
0.0
  0
LINE
  5
13C2
330
20DF
100
AcDbEntity
  8
6
370
    13
100
AcDbLine
 10
9341.425218111937
 20
-745.8149215810201
 30
0.0
 11
9396.573626152702
 21
-797.2895540719171
 31
0.0
  0
LINE
  5
13C3
330
20DF
100
AcDbEntity
  8
6
370
    13
100
AcDbLine
 10
9232.803233872773
 20
-644.4289175641865
 30
0.0
 11
9286.864666246747
 21
-694.8889845406397
 31
0.0
  0
LINE
  5
13C4
330
20DF
100
AcDbEntity
  8
6
370
    13
100
AcDbLine
 10
9125.906846371756
 20
-544.6535576453274
 30
0.0
 11
9179.169293653269
 21
-594.3678648535259
 31
0.0
  0
LINE
  5
13C5
330
20DF
100
AcDbEntity
  8
6
370
    13
100
AcDbLine
 10
9049.093799999999
 20
-472.957501984578
 30
0.0
 11
9072.966610923882
 21
-495.2399977535077
 31
0.0
  0
LINE
  5
13C6
330
20DF
100
AcDbEntity
  8
6
370
    13
100
AcDbLine
 10
9049.093799999999
 20
-472.957501984578
 30
0.0
 11
9037.0938
 21
-484.1581079827465
 31
0.0
  0
LINE
  5
13C9
330
20DF
100
AcDbEntity
  8
6
370
    13
100
AcDbLine
 10
9025.093800000002
 20
-472.957501984578
 30
0.0
 11
9037.0938
 21
-484.1581079827465
 31
0.0
  0
LINE
  5
13CA
330
20DF
100
AcDbEntity
  8
6
370
    13
100
AcDbLine
 10
9025.0938
 20
-381.5989992300907
 30
0.0
 11
9025.0938
 21
-472.9575019845769
 31
0.0
  0
LINE
  5
13CB
330
20DF
100
AcDbEntity
  8
6
370
    13
100
AcDbLine
 10
9037.0938
 20
-484.158107982747
 30
0.0
 11
9037.0938
 21
-356.4908482559501
 31
0.0
  0
LINE
  5
1417
330
20DF
100
AcDbEntity
  8
1
370
    13
100
AcDbLine
 10
9788.983360264567
 20
-255.1037420392682
 30
0.0
 11
9757.519633170083
 21
-217.5748000000009
 31
0.0
  0
ARC
  5
1418
330
20DF
100
AcDbEntity
  8
1
370
    13
100
AcDbCircle
 10
10760.29919999998
 20
-1184.017914328125
 30
0.0
 40
1344.0
100
AcDbArc
 50
134.0214492043429
 51
136.278283932985
  0
ARC
  5
141B
330
20DF
100
AcDbEntity
  8
1
370
    13
100
AcDbCircle
 10
10760.298525
 20
-1184.017567499998
 30
0.0
 40
1288.5
100
AcDbArc
 50
131.4050660409774
 51
134.2648015201185
1001
QCAD
1000
reversed:1
  0
LINE
  5
141C
330
20DF
100
AcDbEntity
  8
1
370
    13
100
AcDbLine
 10
9944.359320554047
 20
-217.5748000000002
 30
0.0
 11
9937.119682268893
 21
-271.7879230782545
 31
0.0
  0
ARC
  5
1422
330
20DF
100
AcDbEntity
  8
1
370
    13
100
AcDbCircle
 10
10760.299125
 20
-1184.01787499988
 30
0.0
 40
1883.999925
100
AcDbArc
 50
152.8523924378031
 51
155.2691589561123
  0
ARC
  5
1426
330
20DF
100
AcDbEntity
  8
1
370
    13
100
AcDbCircle
 10
7337.888475000005
 20
-1184.017874999879
 30
0.0
 40
1883.999925
100
AcDbArc
 50
24.73084104388775
 51
25.58923532140634
1001
QCAD
1000
reversed:1
  0
ARC
  5
1427
330
20DF
100
AcDbEntity
  8
1
370
    13
100
AcDbCircle
 10
10736.29912500004
 20
-1184.017874999794
 30
0.0
 40
1883.999925
100
AcDbArc
 50
154.4107646785965
 51
155.269158956115
  0
LINE
  5
1423
330
20DF
100
AcDbEntity
  8
1
370
    13
100
AcDbLine
 10
9049.093800000002
 20
-283.5281796421193
 30
0.0
 11
9083.851971310742
 21
-324.3780328059592
 31
0.0
  0
LINE
  5
1425
330
20DF
100
AcDbEntity
  8
1
370
    13
100
AcDbLine
 10
9049.093800000002
 20
-283.5281796421193
 30
0.0
 11
9037.093800000002
 21
-297.6312874720368
 31
0.0
  0
LINE
  5
1428
330
20DF
100
AcDbEntity
  8
1
370
    13
100
AcDbLine
 10
9025.093800000002
 20
-283.5281796421297
 30
0.0
 11
9037.093800000002
 21
-297.6312874720368
 31
0.0
  0
ARC
  5
1429
330
20DF
100
AcDbEntity
  8
1
370
    13
100
AcDbCircle
 10
10760.299125
 20
-1184.017874551664
 30
0.0
 40
1828.499925
100
AcDbArc
 50
153.5731703961613
 51
157.7229826196508
1001
QCAD
1000
reversed:1
  0
ARC
  5
142A
330
20DF
100
AcDbEntity
  8
1
370
    13
100
AcDbCircle
 10
10760.29919999999
 20
-1184.01779999984
 30
0.0
 40
1749.0
100
AcDbArc
 50
154.693054894662
 51
158.7129550185142
  0
LINE
  5
142B
330
20DF
100
AcDbEntity
  8
1
370
    13
100
AcDbLine
 10
9122.871124720186
 20
-370.2356434697481
 30
0.0
 11
9179.149434244884
 21
-436.3772324457677
 31
0.0
  0
LINE
  5
154B
330
20DF
100
AcDbEntity
  8
7
100
AcDbLine
 10
10060.8438
 20
-676.8841914346449
 30
0.0
 11
10060.8438
 21
-833.2639567270469
 31
0.0
  0
LINE
  5
154C
330
20DF
100
AcDbEntity
  8
7
100
AcDbLine
 10
10072.8438
 20
-809.5218902290087
 30
0.0
 11
10072.8438
 21
-660.1824963892717
 31
0.0
  0
ARC
  5
154D
330
20DF
100
AcDbEntity
  8
7
100
AcDbCircle
 10
10760.29920000841
 20
-1184.017607868717
 30
0.0
 40
939.0000000106193
100
AcDbArc
 50
139.2595243000765
 51
146.6202567110096
1001
QCAD
1000
reversed:1
  0
ARC
  5
1551
330
20DF
100
AcDbEntity
  8
7
100
AcDbCircle
 10
9337.38839999159
 20
-1184.017607868717
 30
0.0
 40
939.0000000106193
100
AcDbArc
 50
39.60541154136822
 51
40.74047569992346
  0
ARC
  5
1553
330
20DF
100
AcDbEntity
  8
7
100
AcDbCircle
 10
10784.29920000841
 20
-1184.017607868718
 30
0.0
 40
939.0000000106193
100
AcDbArc
 50
139.2595243000765
 51
140.3945884586318
1001
QCAD
1000
reversed:1
  0
LINE
  5
154E
330
20DF
100
AcDbEntity
  8
7
100
AcDbLine
 10
9976.194356808046
 20
-667.3933779978418
 30
0.0
 11
10015.36920000001
 21
-541.6046774999979
 31
0.0
  0
LINE
  5
154F
330
20DF
100
AcDbEntity
  8
7
100
AcDbLine
 10
10015.36920000002
 20
-541.6046774999982
 30
0.0
 11
10048.8438
 21
-533.4441292658067
 31
0.0
  0
LINE
  5
1550
330
20DF
100
AcDbEntity
  8
7
100
AcDbLine
 10
10060.8438
 20
-536.3695287869464
 30
0.0
 11
10048.8438
 21
-533.4441292658067
 31
0.0
  0
LINE
  5
1552
330
20DF
100
AcDbEntity
  8
7
100
AcDbLine
 10
10060.8438
 20
-536.3695287869464
 30
0.0
 11
10072.8438
 21
-533.4441292658067
 31
0.0
  0
LINE
  5
1554
330
20DF
100
AcDbEntity
  8
7
100
AcDbLine
 10
10060.8438
 20
-536.3695287869465
 30
0.0
 11
10060.8438
 21
-585.408149023792
 31
0.0
  0
LINE
  5
1555
330
20DF
100
AcDbEntity
  8
7
100
AcDbLine
 10
10072.8438
 20
-571.1944573441825
 30
0.0
 11
10072.8438
 21
-533.4441292658067
 31
0.0
  0
LINE
  5
1556
330
20DF
100
AcDbEntity
  8
7
100
AcDbLine
 10
10048.8438
 20
-571.1944573441826
 30
0.0
 11
10048.8438
 21
-533.4441292658066
 31
0.0
  0
CIRCLE
  5
1B81
330
20DF
100
AcDbEntity
  8
5
100
AcDbCircle
 10
9548.9688
 20
-987.5748000000002
 30
0.0
 40
10.0
  0
CIRCLE
  5
1B82
330
20DF
100
AcDbEntity
  8
5
100
AcDbCircle
 10
9548.9688
 20
-612.5748000000002
 30
0.0
 40
10.0
  0
CIRCLE
  5
1B83
330
20DF
100
AcDbEntity
  8
5
100
AcDbCircle
 10
9548.9688
 20
-237.5748000000002
 30
0.0
 40
10.0
  0
LINE
  5
1ECD
330
20DF
100
AcDbEntity
  8
7
100
AcDbLine
 10
9401.6214243005
 20
-1012.5748
 30
0.0
 11
9434.667672343572
 21
-1012.5748
 31
0.0
  0
LINE
  5
1ED0
330
20DF
100
AcDbEntity
  8
5
100
AcDbLine
 10
8998.9688
 20
-227.5748000000002
 30
0.0
 11
10098.9688
 21
-227.5748000000002
 31
0.0
  0
LINE
  5
1ED1
330
20DF
100
AcDbEntity
  8
5
100
AcDbLine
 10
8998.9688
 20
-217.5748000000002
 30
0.0
 11
10098.9688
 21
-217.5748000000002
 31
0.0
  0
VIEWPORT
  5
21BA
330
20DB
100
AcDbEntity
 67
     1
  8
0
 62
    18
420
        0
100
AcDbViewport
 10
128.5
 20
97.5
 30
0.0
 40
314.226
 41
222.18
 68
     1
 69
     1
 12
128.5
 22
97.5
 13
0.0
 23
0.0
 14
10.0
 24
10.0
 15
10.0
 25
10.0
 16
0.0
 26
0.0
 36
1.0
 17
0.0
 27
0.0
 37
0.0
 42
50.0
 43
0.0
 44
0.0
 45
222.18
 50
0.0
 51
0.0
 72
   100
 90
   557152
  1

281
     0
 71
     1
 74
     0
110
0.0
120
0.0
130
0.0
111
1.0
121
0.0
131
0.0
112
0.0
122
1.0
132
0.0
 79
     0
146
0.0
170
     0
 61
     5
348
20EF
292
     1
282
     1
141
0.0
142
0.0
 63
   256
361
21BB
  0
ENDSEC
  0
SECTION
  2
OBJECTS
  0
DICTIONARY
  5
20CD
330
0
100
AcDbDictionary
281
     1
  3
ACAD_DETAILVIEWSTYLE
350
21C3
  3
ACAD_GROUP
350
20CE
  3
ACAD_LAYOUT
350
20DA
  3
ACAD_MATERIAL
350
2103
  3
ACAD_MLEADERSTYLE
350
212B
  3
ACAD_MLINESTYLE
350
20D7
  3
ACAD_PLOTSETTINGS
350
20D9
  3
ACAD_PLOTSTYLENAME
350
20CF
  3
ACAD_SCALELIST
350
2107
  3
ACAD_SECTIONVIEWSTYLE
350
21C4
  3
ACAD_TABLESTYLE
350
2129
  3
ACAD_VISUALSTYLE
350
20EA
  3
ACDB_RECOMPOSE_DATA
350
21C0
  3
AcDbVariableDictionary
350
21BC
  3
QCAD_OBJECTS
350
212F
  0
SUN
  5
212D
330
20E9
100
AcDbSun
 90
        1
290
     0
 63
     7
421
 16777215
 40
1.0
291
     1
 91
  2455826
 92
 54000000
292
     0
 70
     2
 71
   256
280
     1
  0
SUN
  5
21BB
330
21BA
100
AcDbSun
 90
        1
290
     0
 63
     7
421
 16777215
 40
1.0
291
     1
 91
  2455826
 92
 54000000
292
     0
 70
     2
 71
   256
280
     1
  0
DICTIONARY
  5
21C3
102
{ACAD_REACTORS
330
20CD
102
}
330
20CD
100
AcDbDictionary
281
     1
  0
DICTIONARY
  5
20CE
102
{ACAD_REACTORS
330
20CD
102
}
330
20CD
100
AcDbDictionary
281
     1
  0
DICTIONARY
  5
20DA
102
{ACAD_REACTORS
330
20CD
102
}
330
20CD
100
AcDbDictionary
281
     1
  3
Layout1
350
20DE
  3
Model
350
20E2
  0
DICTIONARY
  5
2103
102
{ACAD_REACTORS
330
20CD
102
}
330
20CD
100
AcDbDictionary
281
     1
  3
ByBlock
350
2105
  3
ByLayer
350
2104
  3
Global
350
2106
  0
DICTIONARY
  5
212B
102
{ACAD_REACTORS
330
20CD
102
}
330
20CD
100
AcDbDictionary
281
     1
  3
Standard
350
212C
  0
DICTIONARY
  5
20D7
102
{ACAD_REACTORS
330
20CD
102
}
330
20CD
100
AcDbDictionary
281
     1
  3
Standard
350
20D8
  0
DICTIONARY
  5
20D9
102
{ACAD_REACTORS
330
20CD
102
}
330
20CD
100
AcDbDictionary
281
     1
  0
ACDBDICTIONARYWDFLT
  5
20CF
102
{ACAD_REACTORS
330
20CD
102
}
330
20CD
100
AcDbDictionary
281
     1
  3
Normal
350
20D0
100
AcDbDictionaryWithDefault
340
20D0
  0
DICTIONARY
  5
2107
102
{ACAD_REACTORS
330
20CD
102
}
330
20CD
100
AcDbDictionary
281
     1
  3
A0
350
2108
  3
A1
350
2109
  3
A2
350
210A
  3
A3
350
210B
  3
A4
350
210C
  3
A5
350
210D
  3
A6
350
210E
  3
A7
350
210F
  3
A8
350
2110
  3
A9
350
2111
  3
B0
350
2112
  3
B1
350
2113
  3
B2
350
2114
  3
B3
350
2115
  3
B4
350
2116
  3
B5
350
2117
  3
B6
350
2118
  3
B7
350
2119
  3
B8
350
211A
  3
B9
350
211B
  3
C0
350
211C
  3
C1
350
211D
  3
C2
350
211E
  3
C3
350
211F
  3
C4
350
2120
  3
C5
350
2121
  3
C6
350
2122
  3
C7
350
2123
  3
C8
350
2124
  3
C9
350
2125
  3
D0
350
2126
  3
D1
350
2127
  3
D2
350
2128
  0
DICTIONARY
  5
21C4
102
{ACAD_REACTORS
330
20CD
102
}
330
20CD
100
AcDbDictionary
281
     1
  0
DICTIONARY
  5
2129
102
{ACAD_REACTORS
330
20CD
102
}
330
20CD
100
AcDbDictionary
281
     1
  3
Standard
350
212A
  0
DICTIONARY
  5
20EA
102
{ACAD_REACTORS
330
20CD
102
}
330
20CD
100
AcDbDictionary
281
     1
  3
2dWireframe
350
20EF
  3
Basic
350
20F2
  3
Brighten
350
20F6
  3
ColorChange
350
20FA
  3
Conceptual
350
20F4
  3
Dim
350
20F5
  3
EdgeColorOff
350
20FD
  3
Facepattern
350
20F9
  3
Flat
350
20EB
  3
FlatWithEdges
350
20EC
  3
Gouraud
350
20ED
  3
GouraudWithEdges
350
20EE
  3
Hidden
350
20F1
  3
JitterOff
350
20FB
  3
Linepattern
350
20F8
  3
OverhangOff
350
20FC
  3
Realistic
350
20F3
  3
Shaded
350
2102
  3
Shaded with edges
350
2101
  3
Shades of Gray
350
20FE
  3
Sketchy
350
20FF
  3
Thicken
350
20F7
  3
Wireframe
350
20F0
  3
X-Ray
350
2100
  0
XRECORD
  5
21C0
102
{ACAD_REACTORS
330
20CD
102
}
330
20CD
100
AcDbXrecord
280
     1
 90
        1
330
212A
  0
DICTIONARY
  5
21BC
102
{ACAD_REACTORS
330
20CD
102
}
330
20CD
100
AcDbDictionary
281
     1
  3
CANNOSCALE
350
21BD
  3
CMLEADERSTYLE
350
21C2
  3
CTABLESTYLE
350
21C1
  0
DICTIONARY
  5
212F
102
{ACAD_REACTORS
330
20CD
102
}
330
20CD
100
AcDbDictionary
281
     1
  3
CamExport/ConfigV2
350
2131
  3
ColorSettings/BackgroundColor
350
2132
  3
ColorSettings/ColorMode
350
2133
  3
DimensionSettings/AngularFormat
350
2134
  3
DimensionSettings/AngularPrecision
350
2135
  3
DimensionSettings/DecimalPoint
350
2136
  3
DimensionSettings/DimensionFont
350
2137
  3
DimensionSettings/KeepProportions
350
2138
  3
DimensionSettings/LinearFormat
350
2139
  3
DimensionSettings/LinearPrecision
350
213A
  3
Grid/DisplayGrid00
350
213B
  3
Grid/DisplayGrid01
350
213C
  3
Grid/DisplayGrid02
350
213D
  3
Grid/DisplayGrid03
350
213E
  3
Grid/GridSpacingX00
350
213F
  3
Grid/GridSpacingX01
350
2140
  3
Grid/GridSpacingX02
350
2141
  3
Grid/GridSpacingX03
350
2142
  3
Grid/GridSpacingY00
350
2143
  3
Grid/GridSpacingY01
350
2144
  3
Grid/GridSpacingY02
350
2145
  3
Grid/GridSpacingY03
350
2146
  3
Grid/IsometricGrid00
350
2147
  3
Grid/IsometricGrid01
350
2148
  3
Grid/IsometricGrid02
350
2149
  3
Grid/IsometricGrid03
350
214A
  3
Grid/IsometricProjection00
350
214B
  3
Grid/IsometricProjection01
350
214C
  3
Grid/IsometricProjection02
350
214D
  3
Grid/IsometricProjection03
350
214E
  3
Grid/MetaGridSpacingX00
350
214F
  3
Grid/MetaGridSpacingX01
350
2150
  3
Grid/MetaGridSpacingX02
350
2151
  3
Grid/MetaGridSpacingX03
350
2152
  3
Grid/MetaGridSpacingY00
350
2153
  3
Grid/MetaGridSpacingY01
350
2154
  3
Grid/MetaGridSpacingY02
350
2155
  3
Grid/MetaGridSpacingY03
350
2156
  3
MultiPageSettings/Columns
350
2157
  3
MultiPageSettings/GlueMarginsBottom
350
2158
  3
MultiPageSettings/GlueMarginsLeft
350
2159
  3
MultiPageSettings/GlueMarginsRight
350
215A
  3
MultiPageSettings/GlueMarginsTop
350
215B
  3
MultiPageSettings/PrintCropMarks
350
215C
  3
MultiPageSettings/Rows
350
215D
  3
PageSettings/OffsetX
350
215E
  3
PageSettings/OffsetY
350
215F
  3
PageSettings/PageOrientation
350
2160
  3
PageSettings/PaperHeight
350
2161
  3
PageSettings/PaperSizeName
350
2162
  3
PageSettings/PaperWidth
350
2163
  3
PageSettings/PointSize
350
2164
  3
PageSettings/Scale
350
2165
  3
PageSettings/ShowPaperBorders
350
2166
  3
Print/HairlineMode
350
2167
  3
QCADVersion
350
2168
  3
UnitSettings/PaperUnit
350
2169
  3
ViewportCenter
350
216A
  3
ViewportHeight
350
216B
  3
ViewportWidth
350
216C
  0
LAYOUT
  5
20DE
102
{ACAD_REACTORS
330
20DA
102
}
330
20DA
100
AcDbPlotSettings
  1

  2
none_device
  4
ISO_A4_(210.00_x_297.00_MM)
  6

 40
7.5
 41
20.0
 42
7.5
 43
20.0
 44
210.0
 45
297.0
 46
0.0
 47
0.0
 48
0.0
 49
0.0
140
0.0
141
0.0
142
1.0
143
1.0
 70
   688
 72
     1
 73
     1
 74
     5
  7

 75
     0
 76
     0
 77
     2
 78
   300
147
1.0
148
0.0
149
0.0
100
AcDbLayout
  1
Layout1
 70
     1
 71
     0
 10
-20.0
 20
-7.5
 11
277.0
 21
202.5
 12
0.0
 22
0.0
 32
0.0
 14
0.0
 24
0.0
 34
0.0
 15
0.0
 25
0.0
 35
0.0
146
0.0
 13
0.0
 23
0.0
 33
0.0
 16
1.0
 26
0.0
 36
0.0
 17
0.0
 27
1.0
 37
0.0
 76
     0
330
20DB
331
21BA
  0
LAYOUT
  5
20E2
102
{ACAD_REACTORS
330
20DA
102
}
330
20DA
100
AcDbPlotSettings
  1

  2
none_device
  4
Letter_(8.50_x_11.00_Inches)
  6

 40
6.35
 41
6.35
 42
6.35000508
 43
6.35000508
 44
215.9
 45
279.4
 46
0.0
 47
0.0
 48
0.0
 49
0.0
140
0.0
141
0.0
142
1.0
143
1.0
 70
  1712
 72
     0
 73
     0
 74
     0
  7

 75
     0
 76
     0
 77
     2
 78
   300
147
1.0
148
0.0
149
0.0
100
AcDbLayout
  1
Model
 70
     1
 71
     0
 10
0.0
 20
0.0
 11
12.0
 21
9.0
 12
0.0
 22
0.0
 32
0.0
 14
1.000000000000000E+20
 24
1.000000000000000E+20
 34
1.000000000000000E+20
 15
-1.000000000000000E+20
 25
-1.000000000000000E+20
 35
-1.000000000000000E+20
146
0.0
 13
0.0
 23
0.0
 33
0.0
 16
1.0
 26
0.0
 36
0.0
 17
0.0
 27
1.0
 37
0.0
 76
     0
330
20DF
331
20E9
  0
MATERIAL
  5
2105
102
{ACAD_REACTORS
330
2103
102
}
330
2103
100
AcDbMaterial
  1
ByBlock
 72
     1
 94
      127
  0
MATERIAL
  5
2104
102
{ACAD_REACTORS
330
2103
102
}
330
2103
100
AcDbMaterial
  1
ByLayer
 72
     1
 94
      127
  0
MATERIAL
  5
2106
102
{ACAD_REACTORS
330
2103
102
}
330
2103
100
AcDbMaterial
  1
Global
 72
     1
 94
      127
  0
MLEADERSTYLE
  5
212C
102
{ACAD_REACTORS
330
212B
102
}
330
212B
100
AcDbMLeaderStyle
179
     2
170
     2
171
     1
172
     0
 90
        2
 40
0.0
 41
0.0
173
     1
 91
-1056964608
340
20D4
 92
       -2
290
     1
 42
0.09
291
     1
 43
0.36
  3
Standard
341
0
 44
0.18
300

342
20D2
174
     1
178
     6
175
     1
176
     0
 93
-1056964608
 45
0.18
292
     0
297
     0
 46
0.18
343
0
 94
-1056964608
 47
1.0
 49
1.0
140
1.0
293
     1
141
0.0
294
     1
177
     0
142
1.0
295
     0
296
     0
143
0.125
271
     0
272
     9
273
     9
298
     0
  0
MLINESTYLE
  5
20D8
102
{ACAD_REACTORS
330
20D7
102
}
330
20D7
100
AcDbMlineStyle
  2
Standard
 70
     0
  3

 62
   256
 51
90.0
 52
90.0
 71
     2
 49
0.5
 62
   256
  6
BYLAYER
 49
-0.5
 62
   256
  6
BYLAYER
  0
ACDBPLACEHOLDER
  5
20D0
102
{ACAD_REACTORS
330
20CF
102
}
330
20CF
  0
SCALE
  5
2108
102
{ACAD_REACTORS
330
2107
102
}
330
2107
100
AcDbScale
 70
     0
300
1:1
140
1.0
141
1.0
290
     1
  0
SCALE
  5
2109
102
{ACAD_REACTORS
330
2107
102
}
330
2107
100
AcDbScale
 70
     0
300
1:2
140
1.0
141
2.0
290
     0
  0
SCALE
  5
210A
102
{ACAD_REACTORS
330
2107
102
}
330
2107
100
AcDbScale
 70
     0
300
1:4
140
1.0
141
4.0
290
     0
  0
SCALE
  5
210B
102
{ACAD_REACTORS
330
2107
102
}
330
2107
100
AcDbScale
 70
     0
300
1:5
140
1.0
141
5.0
290
     0
  0
SCALE
  5
210C
102
{ACAD_REACTORS
330
2107
102
}
330
2107
100
AcDbScale
 70
     0
300
1:8
140
1.0
141
8.0
290
     0
  0
SCALE
  5
210D
102
{ACAD_REACTORS
330
2107
102
}
330
2107
100
AcDbScale
 70
     0
300
1:10
140
1.0
141
10.0
290
     0
  0
SCALE
  5
210E
102
{ACAD_REACTORS
330
2107
102
}
330
2107
100
AcDbScale
 70
     0
300
1:16
140
1.0
141
16.0
290
     0
  0
SCALE
  5
210F
102
{ACAD_REACTORS
330
2107
102
}
330
2107
100
AcDbScale
 70
     0
300
1:20
140
1.0
141
20.0
290
     0
  0
SCALE
  5
2110
102
{ACAD_REACTORS
330
2107
102
}
330
2107
100
AcDbScale
 70
     0
300
1:30
140
1.0
141
30.0
290
     0
  0
SCALE
  5
2111
102
{ACAD_REACTORS
330
2107
102
}
330
2107
100
AcDbScale
 70
     0
300
1:40
140
1.0
141
40.0
290
     0
  0
SCALE
  5
2112
102
{ACAD_REACTORS
330
2107
102
}
330
2107
100
AcDbScale
 70
     0
300
1:50
140
1.0
141
50.0
290
     0
  0
SCALE
  5
2113
102
{ACAD_REACTORS
330
2107
102
}
330
2107
100
AcDbScale
 70
     0
300
1:100
140
1.0
141
100.0
290
     0
  0
SCALE
  5
2114
102
{ACAD_REACTORS
330
2107
102
}
330
2107
100
AcDbScale
 70
     0
300
2:1
140
2.0
141
1.0
290
     0
  0
SCALE
  5
2115
102
{ACAD_REACTORS
330
2107
102
}
330
2107
100
AcDbScale
 70
     0
300
4:1
140
4.0
141
1.0
290
     0
  0
SCALE
  5
2116
102
{ACAD_REACTORS
330
2107
102
}
330
2107
100
AcDbScale
 70
     0
300
8:1
140
8.0
141
1.0
290
     0
  0
SCALE
  5
2117
102
{ACAD_REACTORS
330
2107
102
}
330
2107
100
AcDbScale
 70
     0
300
10:1
140
10.0
141
1.0
290
     0
  0
SCALE
  5
2118
102
{ACAD_REACTORS
330
2107
102
}
330
2107
100
AcDbScale
 70
     0
300
100:1
140
100.0
141
1.0
290
     0
  0
SCALE
  5
2119
102
{ACAD_REACTORS
330
2107
102
}
330
2107
100
AcDbScale
 70
     0
300
1/128" = 1'-0"
140
0.0078125
141
12.0
290
     0
  0
SCALE
  5
211A
102
{ACAD_REACTORS
330
2107
102
}
330
2107
100
AcDbScale
 70
     0
300
1/64" = 1'-0"
140
0.015625
141
12.0
290
     0
  0
SCALE
  5
211B
102
{ACAD_REACTORS
330
2107
102
}
330
2107
100
AcDbScale
 70
     0
300
1/32" = 1'-0"
140
0.03125
141
12.0
290
     0
  0
SCALE
  5
211C
102
{ACAD_REACTORS
330
2107
102
}
330
2107
100
AcDbScale
 70
     0
300
1/16" = 1'-0"
140
0.0625
141
12.0
290
     0
  0
SCALE
  5
211D
102
{ACAD_REACTORS
330
2107
102
}
330
2107
100
AcDbScale
 70
     0
300
3/32" = 1'-0"
140
0.09375
141
12.0
290
     0
  0
SCALE
  5
211E
102
{ACAD_REACTORS
330
2107
102
}
330
2107
100
AcDbScale
 70
     0
300
1/8" = 1'-0"
140
0.125
141
12.0
290
     0
  0
SCALE
  5
211F
102
{ACAD_REACTORS
330
2107
102
}
330
2107
100
AcDbScale
 70
     0
300
3/16" = 1'-0"
140
0.1875
141
12.0
290
     0
  0
SCALE
  5
2120
102
{ACAD_REACTORS
330
2107
102
}
330
2107
100
AcDbScale
 70
     0
300
1/4" = 1'-0"
140
0.25
141
12.0
290
     0
  0
SCALE
  5
2121
102
{ACAD_REACTORS
330
2107
102
}
330
2107
100
AcDbScale
 70
     0
300
3/8" = 1'-0"
140
0.375
141
12.0
290
     0
  0
SCALE
  5
2122
102
{ACAD_REACTORS
330
2107
102
}
330
2107
100
AcDbScale
 70
     0
300
1/2" = 1'-0"
140
0.5
141
12.0
290
     0
  0
SCALE
  5
2123
102
{ACAD_REACTORS
330
2107
102
}
330
2107
100
AcDbScale
 70
     0
300
3/4" = 1'-0"
140
0.75
141
12.0
290
     0
  0
SCALE
  5
2124
102
{ACAD_REACTORS
330
2107
102
}
330
2107
100
AcDbScale
 70
     0
300
1" = 1'-0"
140
1.0
141
12.0
290
     0
  0
SCALE
  5
2125
102
{ACAD_REACTORS
330
2107
102
}
330
2107
100
AcDbScale
 70
     0
300
1-1/2" = 1'-0"
140
1.5
141
12.0
290
     0
  0
SCALE
  5
2126
102
{ACAD_REACTORS
330
2107
102
}
330
2107
100
AcDbScale
 70
     0
300
3" = 1'-0"
140
3.0
141
12.0
290
     0
  0
SCALE
  5
2127
102
{ACAD_REACTORS
330
2107
102
}
330
2107
100
AcDbScale
 70
     0
300
6" = 1'-0"
140
6.0
141
12.0
290
     0
  0
SCALE
  5
2128
102
{ACAD_REACTORS
330
2107
102
}
330
2107
100
AcDbScale
 70
     0
300
1'-0" = 1'-0"
140
12.0
141
12.0
290
     0
  0
TABLESTYLE
  5
212A
102
{ACAD_REACTORS
330
2129
102
}
102
{ACAD_XDICTIONARY
360
21BE
102
}
330
2129
100
AcDbTableStyle
  3
Standard
 70
     0
 71
     0
 40
0.06
 41
0.06
280
     0
281
     0
  7
Standard
140
0.18
170
     2
 62
     0
 63
   257
283
     0
 90
        4
 91
        0
  1

274
    -2
284
     1
 64
     0
275
    -2
285
     1
 65
     0
276
    -2
286
     1
 66
     0
277
    -2
287
     1
 67
     0
278
    -2
288
     1
 68
     0
279
    -2
289
     1
 69
     0
  7
Standard
140
0.25
170
     5
 62
     0
 63
   257
283
     0
 90
        4
 91
        0
  1

274
    -2
284
     1
 64
     0
275
    -2
285
     1
 65
     0
276
    -2
286
     1
 66
     0
277
    -2
287
     1
 67
     0
278
    -2
288
     1
 68
     0
279
    -2
289
     1
 69
     0
  7
Standard
140
0.18
170
     5
 62
     0
 63
   257
283
     0
 90
        4
 91
        0
  1

274
    -2
284
     1
 64
     0
275
    -2
285
     1
 65
     0
276
    -2
286
     1
 66
     0
277
    -2
287
     1
 67
     0
278
    -2
288
     1
 68
     0
279
    -2
289
     1
 69
     0
  0
VISUALSTYLE
  5
20EF
102
{ACAD_REACTORS
330
20EA
102
}
330
20EA
100
AcDbVisualStyle
  2
2dWireframe
 70
     4
177
     3
291
     0
 70
    58
 90
        0
176
     1
 90
        2
176
     1
 90
        0
176
     1
 90
        0
176
     1
 40
0.6
176
     1
 40
30.0
176
     1
 62
     7
420
 16777215
176
     1
 90
        1
176
     1
 90
        4
176
     1
 62
     7
176
     1
 62
   257
176
     1
 90
        1
176
     1
 90
        1
176
     1
 40
1.0
176
     1
 90
        0
176
     1
 62
   257
176
     1
 40
1.0
176
     1
 90
        1
176
     1
 90
        6
176
     1
 90
        2
176
     1
 62
     7
176
     1
 90
        5
176
     1
 90
        0
176
     1
 90
        0
176
     1
290
     0
176
     1
 90
        1
176
     1
 40
0.0
176
     1
 90
        0
176
     1
290
     1
176
     1
290
     1
176
     1
290
     0
176
     1
290
     0
176
     1
290
     0
176
     1
290
     0
176
     1
290
     0
176
     1
290
     0
176
     1
290
     0
176
     1
 90
       50
176
     1
 40
0.0
176
     1
 40
1.0
176
     1
 90
        0
176
     1
 62
    18
420
        0
176
     1
 90
       50
176
     1
 90
        3
176
     1
 62
     5
420
      255
176
     1
290
     0
176
     1
 90
       50
176
     1
 90
       50
176
     1
 90
       50
176
     1
290
     0
176
     1
 90
       50
176
     1
 62
   256
176
     0
 40
1.0
176
     0
 90
        2
176
     1
  1
strokes_ogs.tif
176
     1
290
     0
176
     1
 40
1.0
176
     1
 40
1.0
176
     1
  0
VISUALSTYLE
  5
20F2
102
{ACAD_REACTORS
330
20EA
102
}
330
20EA
100
AcDbVisualStyle
  2
Basic
 70
     7
177
     3
291
     1
 70
    58
 90
        1
176
     1
 90
        0
176
     1
 90
        1
176
     1
 90
        0
176
     1
 40
0.6
176
     1
 40
30.0
176
     1
 62
     7
420
 16777215
176
     1
 90
        0
176
     1
 90
        4
176
     1
 62
     7
176
     1
 62
   257
176
     1
 90
        1
176
     1
 90
        1
176
     1
 40
1.0
176
     1
 90
        8
176
     1
 62
     7
176
     1
 40
1.0
176
     1
 90
        1
176
     1
 90
        6
176
     1
 90
        2
176
     1
 62
     7
176
     1
 90
        5
176
     1
 90
        0
176
     1
 90
        0
176
     1
290
     0
176
     1
 90
        1
176
     1
 40
0.0
176
     1
 90
        0
176
     1
290
     0
176
     1
290
     1
176
     1
290
     1
176
     1
290
     0
176
     1
290
     0
176
     1
290
     0
176
     1
290
     0
176
     1
290
     0
176
     1
290
     0
176
     1
 90
       50
176
     1
 40
0.0
176
     1
 40
1.0
176
     1
 90
        0
176
     1
 62
    18
420
        0
176
     1
 90
       50
176
     1
 90
        3
176
     1
 62
     5
420
      255
176
     1
290
     0
176
     1
 90
       50
176
     1
 90
       50
176
     1
 90
       50
176
     1
290
     0
176
     1
 90
       50
176
     1
 62
   256
176
     0
 40
1.0
176
     0
 90
        2
176
     1
  1
strokes_ogs.tif
176
     1
290
     0
176
     1
 40
1.0
176
     1
 40
1.0
176
     1
  0
VISUALSTYLE
  5
20F6
102
{ACAD_REACTORS
330
20EA
102
}
330
20EA
100
AcDbVisualStyle
  2
Brighten
 70
    12
177
     3
291
     1
 70
    58
 90
        2
176
     1
 90
        2
176
     1
 90
        0
176
     1
 90
        0
176
     1
 40
0.6
176
     1
 40
30.0
176
     1
 62
     7
420
 16777215
176
     1
 90
        1
176
     1
 90
        4
176
     1
 62
     7
176
     1
 62
   257
176
     1
 90
        1
176
     1
 90
        1
176
     1
 40
1.0
176
     1
 90
        8
176
     1
 62
     7
176
     1
 40
1.0
176
     1
 90
        1
176
     1
 90
        6
176
     1
 90
        2
176
     1
 62
     7
176
     1
 90
        5
176
     1
 90
        0
176
     1
 90
        0
176
     1
290
     0
176
     1
 90
        1
176
     1
 40
50.0
176
     1
 90
        0
176
     1
290
     0
176
     1
290
     1
176
     1
290
     1
176
     1
290
     0
176
     1
290
     0
176
     1
290
     0
176
     1
290
     0
176
     1
290
     0
176
     1
290
     0
176
     1
 90
       50
176
     1
 40
0.0
176
     1
 40
1.0
176
     1
 90
        0
176
     1
 62
    18
420
        0
176
     1
 90
       50
176
     1
 90
        3
176
     1
 62
     5
420
      255
176
     1
290
     0
176
     1
 90
       50
176
     1
 90
       50
176
     1
 90
       50
176
     1
290
     0
176
     1
 90
       50
176
     1
 62
   256
176
     0
 40
1.0
176
     0
 90
        2
176
     1
  1
strokes_ogs.tif
176
     1
290
     0
176
     1
 40
1.0
176
     1
 40
1.0
176
     1
  0
VISUALSTYLE
  5
20FA
102
{ACAD_REACTORS
330
20EA
102
}
330
20EA
100
AcDbVisualStyle
  2
ColorChange
 70
    16
177
     3
291
     1
 70
    58
 90
        2
176
     1
 90
        2
176
     1
 90
        3
176
     1
 90
        0
176
     1
 40
0.6
176
     1
 40
30.0
176
     1
 62
     8
420
  8421504
176
     1
 90
        1
176
     1
 90
        4
176
     1
 62
     7
176
     1
 62
   257
176
     1
 90
        1
176
     1
 90
        1
176
     1
 40
1.0
176
     1
 90
        8
176
     1
 62
     8
420
  8421504
176
     1
 40
1.0
176
     1
 90
        1
176
     1
 90
        6
176
     1
 90
        2
176
     1
 62
     7
176
     1
 90
        5
176
     1
 90
        0
176
     1
 90
        0
176
     1
290
     0
176
     1
 90
        1
176
     1
 40
0.0
176
     1
 90
        0
176
     1
290
     0
176
     1
290
     1
176
     1
290
     1
176
     1
290
     0
176
     1
290
     0
176
     1
290
     0
176
     1
290
     0
176
     1
290
     0
176
     1
290
     0
176
     1
 90
       50
176
     1
 40
0.0
176
     1
 40
1.0
176
     1
 90
        0
176
     1
 62
    18
420
        0
176
     1
 90
       50
176
     1
 90
        3
176
     1
 62
     5
420
      255
176
     1
290
     0
176
     1
 90
       50
176
     1
 90
       50
176
     1
 90
       50
176
     1
290
     0
176
     1
 90
       50
176
     1
 62
   256
176
     0
 40
1.0
176
     0
 90
        2
176
     1
  1
strokes_ogs.tif
176
     1
290
     0
176
     1
 40
1.0
176
     1
 40
1.0
176
     1
  0
VISUALSTYLE
  5
20F4
102
{ACAD_REACTORS
330
20EA
102
}
330
20EA
100
AcDbVisualStyle
  2
Conceptual
 70
     9
177
     3
291
     0
 70
    58
 90
        3
176
     1
 90
        2
176
     1
 90
        0
176
     1
 90
        0
176
     1
 40
0.6
176
     1
 40
30.0
176
     1
 62
     7
420
 16777215
176
     1
 90
        2
176
     1
 90
        2
176
     1
 62
     7
176
     1
 62
   257
176
     1
 90
        1
176
     1
 90
        1
176
     1
 40
179.0
176
     1
 90
        8
176
     1
 62
     7
176
     1
 40
1.0
176
     1
 90
        1
176
     1
 90
        6
176
     1
 90
        2
176
     1
 62
     7
176
     1
 90
        3
176
     1
 90
        0
176
     1
 90
        0
176
     1
290
     0
176
     1
 90
        1
176
     1
 40
0.0
176
     1
 90
        0
176
     1
290
     0
176
     1
290
     1
176
     1
290
     1
176
     1
290
     0
176
     1
290
     0
176
     1
290
     0
176
     1
290
     0
176
     1
290
     0
176
     1
290
     0
176
     1
 90
       50
176
     1
 40
0.0
176
     1
 40
1.0
176
     1
 90
        0
176
     1
 62
    18
420
        0
176
     1
 90
       50
176
     1
 90
        3
176
     1
 62
     5
420
      255
176
     1
290
     0
176
     1
 90
       50
176
     1
 90
       50
176
     1
 90
       50
176
     1
290
     0
176
     1
 90
       50
176
     1
 62
   256
176
     0
 40
1.0
176
     0
 90
        2
176
     1
  1
strokes_ogs.tif
176
     1
290
     0
176
     1
 40
1.0
176
     1
 40
1.0
176
     1
  0
VISUALSTYLE
  5
20F5
102
{ACAD_REACTORS
330
20EA
102
}
330
20EA
100
AcDbVisualStyle
  2
Dim
 70
    11
177
     3
291
     1
 70
    58
 90
        2
176
     1
 90
        2
176
     1
 90
        0
176
     1
 90
        0
176
     1
 40
0.6
176
     1
 40
30.0
176
     1
 62
     7
420
 16777215
176
     1
 90
        1
176
     1
 90
        4
176
     1
 62
     7
176
     1
 62
   257
176
     1
 90
        1
176
     1
 90
        1
176
     1
 40
1.0
176
     1
 90
        8
176
     1
 62
     7
176
     1
 40
1.0
176
     1
 90
        1
176
     1
 90
        6
176
     1
 90
        2
176
     1
 62
     7
176
     1
 90
        5
176
     1
 90
        0
176
     1
 90
        0
176
     1
290
     0
176
     1
 90
        1
176
     1
 40
-50.0
176
     1
 90
        0
176
     1
290
     0
176
     1
290
     1
176
     1
290
     1
176
     1
290
     0
176
     1
290
     0
176
     1
290
     0
176
     1
290
     0
176
     1
290
     0
176
     1
290
     0
176
     1
 90
       50
176
     1
 40
0.0
176
     1
 40
1.0
176
     1
 90
        0
176
     1
 62
    18
420
        0
176
     1
 90
       50
176
     1
 90
        3
176
     1
 62
     5
420
      255
176
     1
290
     0
176
     1
 90
       50
176
     1
 90
       50
176
     1
 90
       50
176
     1
290
     0
176
     1
 90
       50
176
     1
 62
   256
176
     0
 40
1.0
176
     0
 90
        2
176
     1
  1
strokes_ogs.tif
176
     1
290
     0
176
     1
 40
1.0
176
     1
 40
1.0
176
     1
  0
VISUALSTYLE
  5
20FD
102
{ACAD_REACTORS
330
20EA
102
}
330
20EA
100
AcDbVisualStyle
  2
EdgeColorOff
 70
    22
177
     3
291
     1
 70
    58
 90
        2
176
     0
 90
        2
176
     0
 90
        0
176
     0
 90
        0
176
     0
 40
0.6
176
     0
 40
30.0
176
     0
 62
     7
420
 16777215
176
     0
 90
        1
176
     0
 90
        4
176
     0
 62
     7
176
     0
 62
   257
176
     0
 90
        1
176
     0
 90
        1
176
     0
 40
1.0
176
     0
 90
        8
176
     2
 62
     7
176
     0
 40
1.0
176
     0
 90
        1
176
     0
 90
        6
176
     0
 90
        2
176
     0
 62
     7
176
     0
 90
        5
176
     0
 90
        0
176
     0
 90
        0
176
     0
290
     0
176
     0
 90
        1
176
     0
 40
0.0
176
     0
 90
        0
176
     0
290
     0
176
     0
290
     1
176
     0
290
     1
176
     0
290
     0
176
     0
290
     0
176
     0
290
     0
176
     0
290
     0
176
     0
290
     0
176
     0
290
     0
176
     0
 90
       50
176
     0
 40
0.0
176
     0
 40
1.0
176
     0
 90
        0
176
     0
 62
    18
420
        0
176
     0
 90
       50
176
     0
 90
        3
176
     0
 62
     5
420
      255
176
     0
290
     0
176
     0
 90
       50
176
     0
 90
       50
176
     0
 90
       50
176
     0
290
     0
176
     0
 90
       50
176
     0
 62
   256
176
     0
 40
1.0
176
     0
 90
        2
176
     0
  1
strokes_ogs.tif
176
     0
290
     0
176
     0
 40
1.0
176
     0
 40
1.0
176
     0
  0
VISUALSTYLE
  5
20F9
102
{ACAD_REACTORS
330
20EA
102
}
330
20EA
100
AcDbVisualStyle
  2
Facepattern
 70
    15
177
     3
291
     1
 70
    58
 90
        2
176
     1
 90
        2
176
     1
 90
        0
176
     1
 90
        0
176
     1
 40
0.6
176
     1
 40
30.0
176
     1
 62
     7
420
 16777215
176
     1
 90
        1
176
     1
 90
        4
176
     1
 62
     7
176
     1
 62
   257
176
     1
 90
        1
176
     1
 90
        1
176
     1
 40
1.0
176
     1
 90
        8
176
     1
 62
     7
176
     1
 40
1.0
176
     1
 90
        1
176
     1
 90
        6
176
     1
 90
        2
176
     1
 62
     7
176
     1
 90
        5
176
     1
 90
        0
176
     1
 90
        0
176
     1
290
     0
176
     1
 90
        1
176
     1
 40
0.0
176
     1
 90
        0
176
     1
290
     0
176
     1
290
     1
176
     1
290
     1
176
     1
290
     0
176
     1
290
     0
176
     1
290
     0
176
     1
290
     0
176
     1
290
     0
176
     1
290
     0
176
     1
 90
       50
176
     1
 40
0.0
176
     1
 40
1.0
176
     1
 90
        0
176
     1
 62
    18
420
        0
176
     1
 90
       50
176
     1
 90
        3
176
     1
 62
     5
420
      255
176
     1
290
     0
176
     1
 90
       50
176
     1
 90
       50
176
     1
 90
       50
176
     1
290
     0
176
     1
 90
       50
176
     1
 62
   256
176
     0
 40
1.0
176
     0
 90
        2
176
     1
  1
strokes_ogs.tif
176
     1
290
     0
176
     1
 40
1.0
176
     1
 40
1.0
176
     1
  0
VISUALSTYLE
  5
20EB
102
{ACAD_REACTORS
330
20EA
102
}
330
20EA
100
AcDbVisualStyle
  2
Flat
 70
     0
177
     3
291
     1
 70
    58
 90
        2
176
     1
 90
        1
176
     1
 90
        1
176
     1
 90
        2
176
     1
 40
0.6
176
     1
 40
30.0
176
     1
 62
     7
420
 16777215
176
     1
 90
        0
176
     1
 90
        0
176
     1
 62
     7
176
     1
 62
   257
176
     1
 90
        1
176
     1
 90
        1
176
     1
 40
1.0
176
     1
 90
        8
176
     1
 62
     7
176
     1
 40
1.0
176
     1
 90
        1
176
     1
 90
        6
176
     1
 90
        2
176
     1
 62
     7
176
     1
 90
        5
176
     1
 90
        0
176
     1
 90
        0
176
     1
290
     0
176
     1
 90
       13
176
     1
 40
0.0
176
     1
 90
        0
176
     1
290
     0
176
     1
290
     1
176
     1
290
     1
176
     1
290
     0
176
     1
290
     0
176
     1
290
     0
176
     1
290
     0
176
     1
290
     0
176
     1
290
     0
176
     1
 90
       50
176
     1
 40
0.0
176
     1
 40
1.0
176
     1
 90
        0
176
     1
 62
    18
420
        0
176
     1
 90
       50
176
     1
 90
        3
176
     1
 62
     5
420
      255
176
     1
290
     0
176
     1
 90
       50
176
     1
 90
       50
176
     1
 90
       50
176
     1
290
     0
176
     1
 90
       50
176
     1
 62
   256
176
     0
 40
1.0
176
     0
 90
        2
176
     1
  1
strokes_ogs.tif
176
     1
290
     0
176
     1
 40
1.0
176
     1
 40
1.0
176
     1
  0
VISUALSTYLE
  5
20EC
102
{ACAD_REACTORS
330
20EA
102
}
330
20EA
100
AcDbVisualStyle
  2
FlatWithEdges
 70
     1
177
     3
291
     1
 70
    58
 90
        2
176
     1
 90
        1
176
     1
 90
        1
176
     1
 90
        2
176
     1
 40
0.6
176
     1
 40
30.0
176
     1
 62
     7
420
 16777215
176
     1
 90
        1
176
     1
 90
        0
176
     1
 62
     7
176
     1
 62
   257
176
     1
 90
        1
176
     1
 90
        1
176
     1
 40
1.0
176
     1
 90
        0
176
     1
 62
   257
176
     1
 40
1.0
176
     1
 90
        1
176
     1
 90
        6
176
     1
 90
        2
176
     1
 62
     7
176
     1
 90
        5
176
     1
 90
        0
176
     1
 90
        0
176
     1
290
     0
176
     1
 90
       13
176
     1
 40
0.0
176
     1
 90
        0
176
     1
290
     0
176
     1
290
     1
176
     1
290
     1
176
     1
290
     0
176
     1
290
     0
176
     1
290
     0
176
     1
290
     0
176
     1
290
     0
176
     1
290
     0
176
     1
 90
       50
176
     1
 40
0.0
176
     1
 40
1.0
176
     1
 90
        0
176
     1
 62
    18
420
        0
176
     1
 90
       50
176
     1
 90
        3
176
     1
 62
     5
420
      255
176
     1
290
     0
176
     1
 90
       50
176
     1
 90
       50
176
     1
 90
       50
176
     1
290
     0
176
     1
 90
       50
176
     1
 62
   256
176
     0
 40
1.0
176
     0
 90
        2
176
     1
  1
strokes_ogs.tif
176
     1
290
     0
176
     1
 40
1.0
176
     1
 40
1.0
176
     1
  0
VISUALSTYLE
  5
20ED
102
{ACAD_REACTORS
330
20EA
102
}
330
20EA
100
AcDbVisualStyle
  2
Gouraud
 70
     2
177
     3
291
     1
 70
    58
 90
        2
176
     1
 90
        2
176
     1
 90
        1
176
     1
 90
        2
176
     1
 40
0.6
176
     1
 40
30.0
176
     1
 62
     7
420
 16777215
176
     1
 90
        0
176
     1
 90
        0
176
     1
 62
     7
176
     1
 62
   257
176
     1
 90
        1
176
     1
 90
        1
176
     1
 40
1.0
176
     1
 90
        0
176
     1
 62
     7
176
     1
 40
1.0
176
     1
 90
        1
176
     1
 90
        6
176
     1
 90
        2
176
     1
 62
     7
176
     1
 90
        5
176
     1
 90
        0
176
     1
 90
        0
176
     1
290
     0
176
     1
 90
       13
176
     1
 40
0.0
176
     1
 90
        0
176
     1
290
     0
176
     1
290
     1
176
     1
290
     1
176
     1
290
     0
176
     1
290
     0
176
     1
290
     0
176
     1
290
     0
176
     1
290
     0
176
     1
290
     0
176
     1
 90
       50
176
     1
 40
0.0
176
     1
 40
1.0
176
     1
 90
        0
176
     1
 62
    18
420
        0
176
     1
 90
       50
176
     1
 90
        3
176
     1
 62
     5
420
      255
176
     1
290
     0
176
     1
 90
       50
176
     1
 90
       50
176
     1
 90
       50
176
     1
290
     0
176
     1
 90
       50
176
     1
 62
   256
176
     0
 40
1.0
176
     0
 90
        2
176
     1
  1
strokes_ogs.tif
176
     1
290
     0
176
     1
 40
1.0
176
     1
 40
1.0
176
     1
  0
VISUALSTYLE
  5
20EE
102
{ACAD_REACTORS
330
20EA
102
}
330
20EA
100
AcDbVisualStyle
  2
GouraudWithEdges
 70
     3
177
     3
291
     1
 70
    58
 90
        2
176
     1
 90
        2
176
     1
 90
        1
176
     1
 90
        2
176
     1
 40
0.6
176
     1
 40
30.0
176
     1
 62
     7
420
 16777215
176
     1
 90
        1
176
     1
 90
        0
176
     1
 62
     7
176
     1
 62
   257
176
     1
 90
        1
176
     1
 90
        1
176
     1
 40
1.0
176
     1
 90
        0
176
     1
 62
   257
176
     1
 40
1.0
176
     1
 90
        1
176
     1
 90
        6
176
     1
 90
        2
176
     1
 62
     7
176
     1
 90
        5
176
     1
 90
        0
176
     1
 90
        0
176
     1
290
     0
176
     1
 90
       13
176
     1
 40
0.0
176
     1
 90
        0
176
     1
290
     0
176
     1
290
     1
176
     1
290
     1
176
     1
290
     0
176
     1
290
     0
176
     1
290
     0
176
     1
290
     0
176
     1
290
     0
176
     1
290
     0
176
     1
 90
       50
176
     1
 40
0.0
176
     1
 40
1.0
176
     1
 90
        0
176
     1
 62
    18
420
        0
176
     1
 90
       50
176
     1
 90
        3
176
     1
 62
     5
420
      255
176
     1
290
     0
176
     1
 90
       50
176
     1
 90
       50
176
     1
 90
       50
176
     1
290
     0
176
     1
 90
       50
176
     1
 62
   256
176
     0
 40
1.0
176
     0
 90
        2
176
     1
  1
strokes_ogs.tif
176
     1
290
     0
176
     1
 40
1.0
176
     1
 40
1.0
176
     1
  0
VISUALSTYLE
  5
20F1
102
{ACAD_REACTORS
330
20EA
102
}
330
20EA
100
AcDbVisualStyle
  2
Hidden
 70
     6
177
     3
291
     0
 70
    58
 90
        1
176
     1
 90
        2
176
     1
 90
        2
176
     1
 90
        0
176
     1
 40
0.6
176
     1
 40
30.0
176
     1
 62
     7
420
 16777215
176
     1
 90
        2
176
     1
 90
        2
176
     1
 62
     7
176
     1
 62
   257
176
     1
 90
        2
176
     1
 90
        1
176
     1
 40
40.0
176
     1
 90
        0
176
     1
 62
   257
176
     1
 40
1.0
176
     1
 90
        1
176
     1
 90
        6
176
     1
 90
        2
176
     1
 62
     7
176
     1
 90
        3
176
     1
 90
        0
176
     1
 90
        0
176
     1
290
     0
176
     1
 90
        1
176
     1
 40
0.0
176
     1
 90
        0
176
     1
290
     0
176
     1
290
     1
176
     1
290
     1
176
     1
290
     0
176
     1
290
     0
176
     1
290
     0
176
     1
290
     0
176
     1
290
     0
176
     1
290
     0
176
     1
 90
       50
176
     1
 40
0.0
176
     1
 40
1.0
176
     1
 90
        0
176
     1
 62
    18
420
        0
176
     1
 90
       50
176
     1
 90
        3
176
     1
 62
     5
420
      255
176
     1
290
     0
176
     1
 90
       50
176
     1
 90
       50
176
     1
 90
       50
176
     1
290
     0
176
     1
 90
       50
176
     1
 62
   256
176
     0
 40
1.0
176
     0
 90
        2
176
     1
  1
strokes_ogs.tif
176
     1
290
     0
176
     1
 40
1.0
176
     1
 40
1.0
176
     1
  0
VISUALSTYLE
  5
20FB
102
{ACAD_REACTORS
330
20EA
102
}
330
20EA
100
AcDbVisualStyle
  2
JitterOff
 70
    20
177
     3
291
     1
 70
    58
 90
        2
176
     0
 90
        2
176
     0
 90
        0
176
     0
 90
        0
176
     0
 40
0.6
176
     0
 40
30.0
176
     0
 62
     7
420
 16777215
176
     0
 90
        1
176
     0
 90
        4
176
     0
 62
     7
176
     0
 62
   257
176
     0
 90
        1
176
     0
 90
        1
176
     0
 40
1.0
176
     0
 90
       10
176
     2
 62
     7
176
     0
 40
1.0
176
     0
 90
        1
176
     0
 90
        6
176
     0
 90
        2
176
     0
 62
     7
176
     0
 90
        5
176
     0
 90
        0
176
     0
 90
        0
176
     0
290
     0
176
     0
 90
        1
176
     0
 40
0.0
176
     0
 90
        0
176
     0
290
     0
176
     0
290
     1
176
     0
290
     1
176
     0
290
     0
176
     0
290
     0
176
     0
290
     0
176
     0
290
     0
176
     0
290
     0
176
     0
290
     0
176
     0
 90
       50
176
     0
 40
0.0
176
     0
 40
1.0
176
     0
 90
        0
176
     0
 62
    18
420
        0
176
     0
 90
       50
176
     0
 90
        3
176
     0
 62
     5
420
      255
176
     0
290
     0
176
     0
 90
       50
176
     0
 90
       50
176
     0
 90
       50
176
     0
290
     0
176
     0
 90
       50
176
     0
 62
   256
176
     0
 40
1.0
176
     0
 90
        2
176
     0
  1
strokes_ogs.tif
176
     0
290
     0
176
     0
 40
1.0
176
     0
 40
1.0
176
     0
  0
VISUALSTYLE
  5
20F8
102
{ACAD_REACTORS
330
20EA
102
}
330
20EA
100
AcDbVisualStyle
  2
Linepattern
 70
    14
177
     3
291
     1
 70
    58
 90
        2
176
     1
 90
        2
176
     1
 90
        0
176
     1
 90
        0
176
     1
 40
0.6
176
     1
 40
30.0
176
     1
 62
     7
420
 16777215
176
     1
 90
        1
176
     1
 90
        4
176
     1
 62
     7
176
     1
 62
   257
176
     1
 90
        7
176
     1
 90
        7
176
     1
 40
1.0
176
     1
 90
        8
176
     1
 62
     7
176
     1
 40
1.0
176
     1
 90
        1
176
     1
 90
        6
176
     1
 90
        2
176
     1
 62
     7
176
     1
 90
        5
176
     1
 90
        0
176
     1
 90
        0
176
     1
290
     0
176
     1
 90
        1
176
     1
 40
0.0
176
     1
 90
        0
176
     1
290
     0
176
     1
290
     1
176
     1
290
     1
176
     1
290
     0
176
     1
290
     0
176
     1
290
     0
176
     1
290
     0
176
     1
290
     0
176
     1
290
     0
176
     1
 90
       50
176
     1
 40
0.0
176
     1
 40
1.0
176
     1
 90
        0
176
     1
 62
    18
420
        0
176
     1
 90
       50
176
     1
 90
        3
176
     1
 62
     5
420
      255
176
     1
290
     0
176
     1
 90
       50
176
     1
 90
       50
176
     1
 90
       50
176
     1
290
     0
176
     1
 90
       50
176
     1
 62
   256
176
     0
 40
1.0
176
     0
 90
        2
176
     1
  1
strokes_ogs.tif
176
     1
290
     0
176
     1
 40
1.0
176
     1
 40
1.0
176
     1
  0
VISUALSTYLE
  5
20FC
102
{ACAD_REACTORS
330
20EA
102
}
330
20EA
100
AcDbVisualStyle
  2
OverhangOff
 70
    21
177
     3
291
     1
 70
    58
 90
        2
176
     0
 90
        2
176
     0
 90
        0
176
     0
 90
        0
176
     0
 40
0.6
176
     0
 40
30.0
176
     0
 62
     7
420
 16777215
176
     0
 90
        1
176
     0
 90
        4
176
     0
 62
     7
176
     0
 62
   257
176
     0
 90
        1
176
     0
 90
        1
176
     0
 40
1.0
176
     0
 90
        9
176
     2
 62
     7
176
     0
 40
1.0
176
     0
 90
        1
176
     0
 90
        6
176
     0
 90
        2
176
     0
 62
     7
176
     0
 90
        5
176
     0
 90
        0
176
     0
 90
        0
176
     0
290
     0
176
     0
 90
        1
176
     0
 40
0.0
176
     0
 90
        0
176
     0
290
     0
176
     0
290
     1
176
     0
290
     1
176
     0
290
     0
176
     0
290
     0
176
     0
290
     0
176
     0
290
     0
176
     0
290
     0
176
     0
290
     0
176
     0
 90
       50
176
     0
 40
0.0
176
     0
 40
1.0
176
     0
 90
        0
176
     0
 62
    18
420
        0
176
     0
 90
       50
176
     0
 90
        3
176
     0
 62
     5
420
      255
176
     0
290
     0
176
     0
 90
       50
176
     0
 90
       50
176
     0
 90
       50
176
     0
290
     0
176
     0
 90
       50
176
     0
 62
   256
176
     0
 40
1.0
176
     0
 90
        2
176
     0
  1
strokes_ogs.tif
176
     0
290
     0
176
     0
 40
1.0
176
     0
 40
1.0
176
     0
  0
VISUALSTYLE
  5
20F3
102
{ACAD_REACTORS
330
20EA
102
}
330
20EA
100
AcDbVisualStyle
  2
Realistic
 70
     8
177
     3
291
     0
 70
    58
 90
        2
176
     1
 90
        3
176
     1
 90
        0
176
     1
 90
        2
176
     1
 40
0.6
176
     1
 40
30.0
176
     1
 62
     7
420
 16777215
176
     1
 90
        0
176
     1
 90
        0
176
     1
 62
     7
176
     1
 62
   257
176
     1
 90
        1
176
     1
 90
        1
176
     1
 40
1.0
176
     1
 90
        8
176
     1
 62
   257
176
     1
 40
1.0
176
     1
 90
        1
176
     1
 90
        6
176
     1
 90
        2
176
     1
 62
     7
176
     1
 90
        3
176
     1
 90
        0
176
     1
 90
        0
176
     1
290
     0
176
     1
 90
       13
176
     1
 40
0.0
176
     1
 90
        0
176
     1
290
     0
176
     1
290
     1
176
     1
290
     1
176
     1
290
     0
176
     1
290
     0
176
     1
290
     0
176
     1
290
     0
176
     1
290
     0
176
     1
290
     0
176
     1
 90
       50
176
     1
 40
0.0
176
     1
 40
1.0
176
     1
 90
        0
176
     1
 62
    18
420
        0
176
     1
 90
       50
176
     1
 90
        3
176
     1
 62
     5
420
      255
176
     1
290
     0
176
     1
 90
       50
176
     1
 90
       50
176
     1
 90
       50
176
     1
290
     0
176
     1
 90
       50
176
     1
 62
   256
176
     0
 40
1.0
176
     0
 90
        2
176
     1
  1
strokes_ogs.tif
176
     1
290
     0
176
     1
 40
1.0
176
     1
 40
1.0
176
     1
  0
VISUALSTYLE
  5
2102
102
{ACAD_REACTORS
330
20EA
102
}
330
20EA
100
AcDbVisualStyle
  2
Shaded
 70
    27
177
     3
291
     0
 70
    58
 90
        2
176
     1
 90
        2
176
     1
 90
        1
176
     1
 90
        2
176
     1
 40
0.6
176
     1
 40
30.0
176
     1
 62
     7
420
 16777215
176
     1
 90
        0
176
     1
 90
        4
176
     1
 62
     7
176
     1
 62
   257
176
     1
 90
        1
176
     1
 90
        1
176
     1
 40
1.0
176
     1
 90
        8
176
     1
 62
   257
176
     1
 40
1.0
176
     1
 90
        1
176
     1
 90
        6
176
     1
 90
        2
176
     1
 62
     8
420
  7895160
176
     1
 90
        3
176
     1
 90
        0
176
     1
 90
        0
176
     1
290
     0
176
     1
 90
        5
176
     1
 40
0.0
176
     1
 90
        0
176
     1
290
     0
176
     1
290
     1
176
     1
290
     1
176
     1
290
     0
176
     1
290
     0
176
     1
290
     0
176
     1
290
     0
176
     1
290
     0
176
     1
290
     0
176
     1
 90
       50
176
     1
 40
0.0
176
     1
 40
1.0
176
     1
 90
        0
176
     1
 62
    18
420
        0
176
     1
 90
       50
176
     1
 90
        3
176
     1
 62
     5
420
      255
176
     1
290
     0
176
     1
 90
       50
176
     1
 90
       50
176
     1
 90
       50
176
     1
290
     0
176
     1
 90
       50
176
     1
 62
   256
176
     0
 40
1.0
176
     0
 90
        2
176
     1
  1
strokes_ogs.tif
176
     1
290
     0
176
     1
 40
1.0
176
     1
 40
1.0
176
     1
  0
VISUALSTYLE
  5
2101
102
{ACAD_REACTORS
330
20EA
102
}
330
20EA
100
AcDbVisualStyle
  2
Shaded with edges
 70
    26
177
     3
291
     0
 70
    58
 90
        2
176
     1
 90
        2
176
     1
 90
        1
176
     1
 90
        2
176
     1
 40
0.6
176
     1
 40
30.0
176
     1
 62
     7
420
 16777215
176
     1
 90
        1
176
     1
 90
       10
176
     1
 62
     7
176
     1
 62
   257
176
     1
 90
        2
176
     1
 90
        1
176
     1
 40
1.0
176
     1
 90
        8
176
     1
 62
   257
176
     1
 40
1.0
176
     1
 90
        1
176
     1
 90
        6
176
     1
 90
        2
176
     1
 62
     7
176
     1
 90
        3
176
     1
 90
        0
176
     1
 90
        0
176
     1
290
     0
176
     1
 90
        5
176
     1
 40
0.0
176
     1
 90
        0
176
     1
290
     0
176
     1
290
     1
176
     1
290
     1
176
     1
290
     0
176
     1
290
     0
176
     1
290
     0
176
     1
290
     0
176
     1
290
     0
176
     1
290
     0
176
     1
 90
       50
176
     1
 40
0.0
176
     1
 40
1.0
176
     1
 90
        0
176
     1
 62
    18
420
        0
176
     1
 90
       50
176
     1
 90
        3
176
     1
 62
     5
420
      255
176
     1
290
     0
176
     1
 90
       50
176
     1
 90
       50
176
     1
 90
       50
176
     1
290
     0
176
     1
 90
       50
176
     1
 62
   256
176
     0
 40
1.0
176
     0
 90
        2
176
     1
  1
strokes_ogs.tif
176
     1
290
     0
176
     1
 40
1.0
176
     1
 40
1.0
176
     1
  0
VISUALSTYLE
  5
20FE
102
{ACAD_REACTORS
330
20EA
102
}
330
20EA
100
AcDbVisualStyle
  2
Shades of Gray
 70
    23
177
     3
291
     0
 70
    58
 90
        2
176
     1
 90
        2
176
     1
 90
        3
176
     1
 90
        0
176
     1
 40
0.6
176
     1
 40
30.0
176
     1
 62
     7
420
 16777215
176
     1
 90
        2
176
     1
 90
        2
176
     1
 62
     7
176
     1
 62
     7
176
     1
 90
        1
176
     1
 90
        1
176
     1
 40
40.0
176
     1
 90
        8
176
     1
 62
     7
176
     1
 40
1.0
176
     1
 90
        1
176
     1
 90
        6
176
     1
 90
        2
176
     1
 62
     7
176
     1
 90
        3
176
     1
 90
        0
176
     1
 90
        0
176
     1
290
     0
176
     1
 90
        1
176
     1
 40
0.0
176
     1
 90
        0
176
     1
290
     0
176
     1
290
     1
176
     1
290
     1
176
     1
290
     0
176
     1
290
     0
176
     1
290
     0
176
     1
290
     0
176
     1
290
     0
176
     1
290
     0
176
     1
 90
       50
176
     1
 40
0.0
176
     1
 40
1.0
176
     1
 90
        0
176
     1
 62
    18
420
        0
176
     1
 90
       50
176
     1
 90
        3
176
     1
 62
     5
420
      255
176
     1
290
     0
176
     1
 90
       50
176
     1
 90
       50
176
     1
 90
       50
176
     1
290
     0
176
     1
 90
       50
176
     1
 62
   256
176
     0
 40
1.0
176
     0
 90
        2
176
     1
  1
strokes_ogs.tif
176
     1
290
     0
176
     1
 40
1.0
176
     1
 40
1.0
176
     1
  0
VISUALSTYLE
  5
20FF
102
{ACAD_REACTORS
330
20EA
102
}
330
20EA
100
AcDbVisualStyle
  2
Sketchy
 70
    24
177
     3
291
     0
 70
    58
 90
        1
176
     1
 90
        2
176
     1
 90
        2
176
     1
 90
        0
176
     1
 40
0.6
176
     1
 40
30.0
176
     1
 62
     7
420
 16777215
176
     1
 90
        2
176
     1
 90
        2
176
     1
 62
     7
176
     1
 62
     7
176
     1
 90
        1
176
     1
 90
        1
176
     1
 40
40.0
176
     1
 90
       11
176
     1
 62
     7
176
     1
 40
1.0
176
     1
 90
        1
176
     1
 90
        6
176
     1
 90
        2
176
     1
 62
     7
176
     1
 90
        6
176
     1
 90
        0
176
     1
 90
        0
176
     1
290
     0
176
     1
 90
        1
176
     1
 40
0.0
176
     1
 90
        0
176
     1
290
     0
176
     1
290
     1
176
     1
290
     1
176
     1
290
     0
176
     1
290
     0
176
     1
290
     0
176
     1
290
     0
176
     1
290
     0
176
     1
290
     0
176
     1
 90
       50
176
     1
 40
0.0
176
     1
 40
1.0
176
     1
 90
        0
176
     1
 62
    18
420
        0
176
     1
 90
       50
176
     1
 90
        3
176
     1
 62
     5
420
      255
176
     1
290
     0
176
     1
 90
       50
176
     1
 90
       50
176
     1
 90
       50
176
     1
290
     0
176
     1
 90
       50
176
     1
 62
   256
176
     0
 40
1.0
176
     0
 90
        2
176
     1
  1
strokes_ogs.tif
176
     1
290
     0
176
     1
 40
1.0
176
     1
 40
1.0
176
     1
  0
VISUALSTYLE
  5
20F7
102
{ACAD_REACTORS
330
20EA
102
}
330
20EA
100
AcDbVisualStyle
  2
Thicken
 70
    13
177
     3
291
     1
 70
    58
 90
        2
176
     1
 90
        2
176
     1
 90
        0
176
     1
 90
        0
176
     1
 40
0.6
176
     1
 40
30.0
176
     1
 62
     7
420
 16777215
176
     1
 90
        1
176
     1
 90
        4
176
     1
 62
     7
176
     1
 62
   257
176
     1
 90
        1
176
     1
 90
        1
176
     1
 40
1.0
176
     1
 90
       12
176
     1
 62
     7
176
     1
 40
1.0
176
     1
 90
        1
176
     1
 90
        6
176
     1
 90
        2
176
     1
 62
     7
176
     1
 90
        5
176
     1
 90
        0
176
     1
 90
        0
176
     1
290
     0
176
     1
 90
        1
176
     1
 40
0.0
176
     1
 90
        0
176
     1
290
     0
176
     1
290
     1
176
     1
290
     1
176
     1
290
     0
176
     1
290
     0
176
     1
290
     0
176
     1
290
     0
176
     1
290
     0
176
     1
290
     0
176
     1
 90
       50
176
     1
 40
0.0
176
     1
 40
1.0
176
     1
 90
        0
176
     1
 62
    18
420
        0
176
     1
 90
       50
176
     1
 90
        3
176
     1
 62
     5
420
      255
176
     1
290
     0
176
     1
 90
       50
176
     1
 90
       50
176
     1
 90
       50
176
     1
290
     0
176
     1
 90
       50
176
     1
 62
   256
176
     0
 40
1.0
176
     0
 90
        2
176
     1
  1
strokes_ogs.tif
176
     1
290
     0
176
     1
 40
1.0
176
     1
 40
1.0
176
     1
  0
VISUALSTYLE
  5
20F0
102
{ACAD_REACTORS
330
20EA
102
}
330
20EA
100
AcDbVisualStyle
  2
Wireframe
 70
     5
177
     3
291
     0
 70
    58
 90
        0
176
     1
 90
        2
176
     1
 90
        0
176
     1
 90
        0
176
     1
 40
0.6
176
     1
 40
30.0
176
     1
 62
     7
420
 16777215
176
     1
 90
        1
176
     1
 90
        4
176
     1
 62
     7
176
     1
 62
   257
176
     1
 90
        1
176
     1
 90
        1
176
     1
 40
1.0
176
     1
 90
        0
176
     1
 62
   257
176
     1
 40
1.0
176
     1
 90
        1
176
     1
 90
        6
176
     1
 90
        2
176
     1
 62
     7
176
     1
 90
        3
176
     1
 90
        0
176
     1
 90
        0
176
     1
290
     0
176
     1
 90
        1
176
     1
 40
0.0
176
     1
 90
        0
176
     1
290
     0
176
     1
290
     1
176
     1
290
     1
176
     1
290
     0
176
     1
290
     0
176
     1
290
     0
176
     1
290
     0
176
     1
290
     0
176
     1
290
     0
176
     1
 90
       50
176
     1
 40
0.0
176
     1
 40
1.0
176
     1
 90
        0
176
     1
 62
    18
420
        0
176
     1
 90
       50
176
     1
 90
        3
176
     1
 62
     5
420
      255
176
     1
290
     0
176
     1
 90
       50
176
     1
 90
       50
176
     1
 90
       50
176
     1
290
     0
176
     1
 90
       50
176
     1
 62
   256
176
     0
 40
1.0
176
     0
 90
        2
176
     1
  1
strokes_ogs.tif
176
     1
290
     0
176
     1
 40
1.0
176
     1
 40
1.0
176
     1
  0
VISUALSTYLE
  5
2100
102
{ACAD_REACTORS
330
20EA
102
}
330
20EA
100
AcDbVisualStyle
  2
X-Ray
 70
    25
177
     3
291
     0
 70
    58
 90
        2
176
     1
 90
        2
176
     1
 90
        1
176
     1
 90
        1
176
     1
 40
0.5
176
     1
 40
30.0
176
     1
 62
     7
420
 16777215
176
     1
 90
        1
176
     1
 90
        0
176
     1
 62
     7
176
     1
 62
   257
176
     1
 90
        1
176
     1
 90
        1
176
     1
 40
1.0
176
     1
 90
        8
176
     1
 62
     7
176
     1
 40
1.0
176
     1
 90
        1
176
     1
 90
        6
176
     1
 90
        2
176
     1
 62
     7
176
     1
 90
        3
176
     1
 90
        0
176
     1
 90
        0
176
     1
290
     0
176
     1
 90
       13
176
     1
 40
0.0
176
     1
 90
        0
176
     1
290
     0
176
     1
290
     1
176
     1
290
     1
176
     1
290
     0
176
     1
290
     0
176
     1
290
     0
176
     1
290
     0
176
     1
290
     0
176
     1
290
     0
176
     1
 90
       50
176
     1
 40
0.0
176
     1
 40
1.0
176
     1
 90
        0
176
     1
 62
    18
420
        0
176
     1
 90
       50
176
     1
 90
        3
176
     1
 62
     5
420
      255
176
     1
290
     0
176
     1
 90
       50
176
     1
 90
       50
176
     1
 90
       50
176
     1
290
     0
176
     1
 90
       50
176
     1
 62
   256
176
     0
 40
1.0
176
     0
 90
        2
176
     1
  1
strokes_ogs.tif
176
     1
290
     0
176
     1
 40
1.0
176
     1
 40
1.0
176
     1
  0
DICTIONARYVAR
  5
21BD
102
{ACAD_REACTORS
330
21BC
102
}
330
21BC
100
DictionaryVariables
280
     0
  1
1:1
  0
DICTIONARYVAR
  5
21C2
102
{ACAD_REACTORS
330
21BC
102
}
330
21BC
100
DictionaryVariables
280
     0
  1
Standard
  0
DICTIONARYVAR
  5
21C1
102
{ACAD_REACTORS
330
21BC
102
}
330
21BC
100
DictionaryVariables
280
     0
  1
Standard
  0
XRECORD
  5
2131
102
{ACAD_REACTORS
330
212F
102
}
330
212F
100
AcDbXrecord
280
     1
1000
GCodeMM
  0
XRECORD
  5
2132
102
{ACAD_REACTORS
330
212F
102
}
330
212F
100
AcDbXrecord
280
     1
1000
#ffffff
  0
XRECORD
  5
2133
102
{ACAD_REACTORS
330
212F
102
}
330
212F
100
AcDbXrecord
280
     1
1000
BlackWhite
  0
XRECORD
  5
2134
102
{ACAD_REACTORS
330
212F
102
}
330
212F
100
AcDbXrecord
280
     1
 90
        0
  0
XRECORD
  5
2135
102
{ACAD_REACTORS
330
212F
102
}
330
212F
100
AcDbXrecord
280
     1
 90
        0
  0
XRECORD
  5
2136
102
{ACAD_REACTORS
330
212F
102
}
330
212F
100
AcDbXrecord
280
     1
 90
       46
  0
XRECORD
  5
2137
102
{ACAD_REACTORS
330
212F
102
}
330
212F
100
AcDbXrecord
280
     1
1000
Standard
  0
XRECORD
  5
2138
102
{ACAD_REACTORS
330
212F
102
}
330
212F
100
AcDbXrecord
280
     1
290
     1
  0
XRECORD
  5
2139
102
{ACAD_REACTORS
330
212F
102
}
330
212F
100
AcDbXrecord
280
     1
 90
        2
  0
XRECORD
  5
213A
102
{ACAD_REACTORS
330
212F
102
}
330
212F
100
AcDbXrecord
280
     1
 90
        4
  0
XRECORD
  5
213B
102
{ACAD_REACTORS
330
212F
102
}
330
212F
100
AcDbXrecord
280
     1
290
     0
  0
XRECORD
  5
213C
102
{ACAD_REACTORS
330
212F
102
}
330
212F
100
AcDbXrecord
280
     1
290
     1
  0
XRECORD
  5
213D
102
{ACAD_REACTORS
330
212F
102
}
330
212F
100
AcDbXrecord
280
     1
290
     1
  0
XRECORD
  5
213E
102
{ACAD_REACTORS
330
212F
102
}
330
212F
100
AcDbXrecord
280
     1
290
     1
  0
XRECORD
  5
213F
102
{ACAD_REACTORS
330
212F
102
}
330
212F
100
AcDbXrecord
280
     1
1000
auto
  0
XRECORD
  5
2140
102
{ACAD_REACTORS
330
212F
102
}
330
212F
100
AcDbXrecord
280
     1
1000
auto
  0
XRECORD
  5
2141
102
{ACAD_REACTORS
330
212F
102
}
330
212F
100
AcDbXrecord
280
     1
1000
auto
  0
XRECORD
  5
2142
102
{ACAD_REACTORS
330
212F
102
}
330
212F
100
AcDbXrecord
280
     1
1000
auto
  0
XRECORD
  5
2143
102
{ACAD_REACTORS
330
212F
102
}
330
212F
100
AcDbXrecord
280
     1
1000
auto
  0
XRECORD
  5
2144
102
{ACAD_REACTORS
330
212F
102
}
330
212F
100
AcDbXrecord
280
     1
1000
auto
  0
XRECORD
  5
2145
102
{ACAD_REACTORS
330
212F
102
}
330
212F
100
AcDbXrecord
280
     1
1000
auto
  0
XRECORD
  5
2146
102
{ACAD_REACTORS
330
212F
102
}
330
212F
100
AcDbXrecord
280
     1
1000
auto
  0
XRECORD
  5
2147
102
{ACAD_REACTORS
330
212F
102
}
330
212F
100
AcDbXrecord
280
     1
290
     0
  0
XRECORD
  5
2148
102
{ACAD_REACTORS
330
212F
102
}
330
212F
100
AcDbXrecord
280
     1
290
     0
  0
XRECORD
  5
2149
102
{ACAD_REACTORS
330
212F
102
}
330
212F
100
AcDbXrecord
280
     1
290
     0
  0
XRECORD
  5
214A
102
{ACAD_REACTORS
330
212F
102
}
330
212F
100
AcDbXrecord
280
     1
290
     0
  0
XRECORD
  5
214B
102
{ACAD_REACTORS
330
212F
102
}
330
212F
100
AcDbXrecord
280
     1
 90
    65537
  0
XRECORD
  5
214C
102
{ACAD_REACTORS
330
212F
102
}
330
212F
100
AcDbXrecord
280
     1
 90
    65537
  0
XRECORD
  5
214D
102
{ACAD_REACTORS
330
212F
102
}
330
212F
100
AcDbXrecord
280
     1
 90
    65537
  0
XRECORD
  5
214E
102
{ACAD_REACTORS
330
212F
102
}
330
212F
100
AcDbXrecord
280
     1
 90
    65537
  0
XRECORD
  5
214F
102
{ACAD_REACTORS
330
212F
102
}
330
212F
100
AcDbXrecord
280
     1
1000
auto
  0
XRECORD
  5
2150
102
{ACAD_REACTORS
330
212F
102
}
330
212F
100
AcDbXrecord
280
     1
1000
auto
  0
XRECORD
  5
2151
102
{ACAD_REACTORS
330
212F
102
}
330
212F
100
AcDbXrecord
280
     1
1000
auto
  0
XRECORD
  5
2152
102
{ACAD_REACTORS
330
212F
102
}
330
212F
100
AcDbXrecord
280
     1
1000
auto
  0
XRECORD
  5
2153
102
{ACAD_REACTORS
330
212F
102
}
330
212F
100
AcDbXrecord
280
     1
1000
auto
  0
XRECORD
  5
2154
102
{ACAD_REACTORS
330
212F
102
}
330
212F
100
AcDbXrecord
280
     1
1000
auto
  0
XRECORD
  5
2155
102
{ACAD_REACTORS
330
212F
102
}
330
212F
100
AcDbXrecord
280
     1
1000
auto
  0
XRECORD
  5
2156
102
{ACAD_REACTORS
330
212F
102
}
330
212F
100
AcDbXrecord
280
     1
1000
auto
  0
XRECORD
  5
2157
102
{ACAD_REACTORS
330
212F
102
}
330
212F
100
AcDbXrecord
280
     1
 90
        1
  0
XRECORD
  5
2158
102
{ACAD_REACTORS
330
212F
102
}
330
212F
100
AcDbXrecord
280
     1
 40
10.0
  0
XRECORD
  5
2159
102
{ACAD_REACTORS
330
212F
102
}
330
212F
100
AcDbXrecord
280
     1
 40
10.0
  0
XRECORD
  5
215A
102
{ACAD_REACTORS
330
212F
102
}
330
212F
100
AcDbXrecord
280
     1
 40
10.0
  0
XRECORD
  5
215B
102
{ACAD_REACTORS
330
212F
102
}
330
212F
100
AcDbXrecord
280
     1
 40
10.0
  0
XRECORD
  5
215C
102
{ACAD_REACTORS
330
212F
102
}
330
212F
100
AcDbXrecord
280
     1
290
     0
  0
XRECORD
  5
215D
102
{ACAD_REACTORS
330
212F
102
}
330
212F
100
AcDbXrecord
280
     1
 90
        1
  0
XRECORD
  5
215E
102
{ACAD_REACTORS
330
212F
102
}
330
212F
100
AcDbXrecord
280
     1
 40
8948.9688
  0
XRECORD
  5
215F
102
{ACAD_REACTORS
330
212F
102
}
330
212F
100
AcDbXrecord
280
     1
 40
-1086.14622857143
  0
XRECORD
  5
2160
102
{ACAD_REACTORS
330
212F
102
}
330
212F
100
AcDbXrecord
280
     1
1000
Portrait
  0
XRECORD
  5
2161
102
{ACAD_REACTORS
330
212F
102
}
330
212F
100
AcDbXrecord
280
     1
 40
297.0
  0
XRECORD
  5
2162
102
{ACAD_REACTORS
330
212F
102
}
330
212F
100
AcDbXrecord
280
     1
1000
ISO A4
  0
XRECORD
  5
2163
102
{ACAD_REACTORS
330
212F
102
}
330
212F
100
AcDbXrecord
280
     1
 40
210.0
  0
XRECORD
  5
2164
102
{ACAD_REACTORS
330
212F
102
}
330
212F
100
AcDbXrecord
280
     1
1000
0.5
  0
XRECORD
  5
2165
102
{ACAD_REACTORS
330
212F
102
}
330
212F
100
AcDbXrecord
280
     1
1000
0.175
  0
XRECORD
  5
2166
102
{ACAD_REACTORS
330
212F
102
}
330
212F
100
AcDbXrecord
280
     1
290
     1
  0
XRECORD
  5
2167
102
{ACAD_REACTORS
330
212F
102
}
330
212F
100
AcDbXrecord
280
     1
290
     0
  0
XRECORD
  5
2168
102
{ACAD_REACTORS
330
212F
102
}
330
212F
100
AcDbXrecord
280
     1
1000
3.21.3
  0
XRECORD
  5
2169
102
{ACAD_REACTORS
330
212F
102
}
330
212F
100
AcDbXrecord
280
     1
 90
        4
  0
XRECORD
  5
216A
102
{ACAD_REACTORS
330
212F
102
}
330
212F
100
AcDbXrecord
280
     1
  0
XRECORD
  5
216B
102
{ACAD_REACTORS
330
212F
102
}
330
212F
100
AcDbXrecord
280
     1
 40
893.2253654188995
  0
XRECORD
  5
216C
102
{ACAD_REACTORS
330
212F
102
}
330
212F
100
AcDbXrecord
280
     1
 40
1429.745347593591
  0
DICTIONARY
  5
21BE
330
212A
100
AcDbDictionary
280
     1
281
     1
  3
ACAD_ROUNDTRIP_2008_TABLESTYLE_CELLSTYLEMAP
360
21BF
  0
CELLSTYLEMAP
  5
21BF
102
{ACAD_REACTORS
330
21BE
102
}
330
21BE
100
AcDbCellStyleMap
 90
        3
300
CELLSTYLE
  1
TABLEFORMAT_BEGIN
 90
        5
170
     1
 91
        0
 92
    32768
 62
   257
 93
        1
300
CONTENTFORMAT
  1
CONTENTFORMAT_BEGIN
 90
        0
 91
        0
 92
        4
 93
        0
300

 40
0.0
140
1.0
 94
        5
 62
     0
340
20D2
144
0.25
309
CONTENTFORMAT_END
171
     1
301
MARGIN
  1
CELLMARGIN_BEGIN
 40
0.06
 40
0.06
 40
0.06
 40
0.06
 40
0.06
 40
0.06
309
CELLMARGIN_END
 94
        6
 95
        1
302
GRIDFORMAT
  1
GRIDFORMAT_BEGIN
 90
        0
 91
        1
 62
     0
 92
       -2
340
20D4
 93
        0
 40
0.045
309
GRIDFORMAT_END
 95
        2
302
GRIDFORMAT
  1
GRIDFORMAT_BEGIN
 90
        0
 91
        1
 62
     0
 92
       -2
340
20D4
 93
        0
 40
0.045
309
GRIDFORMAT_END
 95
        4
302
GRIDFORMAT
  1
GRIDFORMAT_BEGIN
 90
        0
 91
        1
 62
     0
 92
       -2
340
20D4
 93
        0
 40
0.045
309
GRIDFORMAT_END
 95
        8
302
GRIDFORMAT
  1
GRIDFORMAT_BEGIN
 90
        0
 91
        1
 62
     0
 92
       -2
340
20D4
 93
        0
 40
0.045
309
GRIDFORMAT_END
 95
       16
302
GRIDFORMAT
  1
GRIDFORMAT_BEGIN
 90
        0
 91
        1
 62
     0
 92
       -2
340
20D4
 93
        0
 40
0.045
309
GRIDFORMAT_END
 95
       32
302
GRIDFORMAT
  1
GRIDFORMAT_BEGIN
 90
        0
 91
        1
 62
     0
 92
       -2
340
20D4
 93
        0
 40
0.045
309
GRIDFORMAT_END
309
TABLEFORMAT_END
  1
CELLSTYLE_BEGIN
 90
        1
 91
        1
300
_TITLE
309
CELLSTYLE_END
300
CELLSTYLE
  1
TABLEFORMAT_BEGIN
 90
        5
170
     1
 91
        0
 92
        0
 62
   257
 93
        1
300
CONTENTFORMAT
  1
CONTENTFORMAT_BEGIN
 90
        0
 91
        0
 92
        4
 93
        0
300

 40
0.0
140
1.0
 94
        5
 62
     0
340
20D2
144
0.18
309
CONTENTFORMAT_END
171
     1
301
MARGIN
  1
CELLMARGIN_BEGIN
 40
0.06
 40
0.06
 40
0.06
 40
0.06
 40
0.06
 40
0.06
309
CELLMARGIN_END
 94
        6
 95
        1
302
GRIDFORMAT
  1
GRIDFORMAT_BEGIN
 90
        0
 91
        1
 62
     0
 92
       -2
340
20D4
 93
        0
 40
0.045
309
GRIDFORMAT_END
 95
        2
302
GRIDFORMAT
  1
GRIDFORMAT_BEGIN
 90
        0
 91
        1
 62
     0
 92
       -2
340
20D4
 93
        0
 40
0.045
309
GRIDFORMAT_END
 95
        4
302
GRIDFORMAT
  1
GRIDFORMAT_BEGIN
 90
        0
 91
        1
 62
     0
 92
       -2
340
20D4
 93
        0
 40
0.045
309
GRIDFORMAT_END
 95
        8
302
GRIDFORMAT
  1
GRIDFORMAT_BEGIN
 90
        0
 91
        1
 62
     0
 92
       -2
340
20D4
 93
        0
 40
0.045
309
GRIDFORMAT_END
 95
       16
302
GRIDFORMAT
  1
GRIDFORMAT_BEGIN
 90
        0
 91
        1
 62
     0
 92
       -2
340
20D4
 93
        0
 40
0.045
309
GRIDFORMAT_END
 95
       32
302
GRIDFORMAT
  1
GRIDFORMAT_BEGIN
 90
        0
 91
        1
 62
     0
 92
       -2
340
20D4
 93
        0
 40
0.045
309
GRIDFORMAT_END
309
TABLEFORMAT_END
  1
CELLSTYLE_BEGIN
 90
        2
 91
        1
300
_HEADER
309
CELLSTYLE_END
300
CELLSTYLE
  1
TABLEFORMAT_BEGIN
 90
        5
170
     1
 91
        0
 92
        0
 62
   257
 93
        1
300
CONTENTFORMAT
  1
CONTENTFORMAT_BEGIN
 90
        0
 91
        0
 92
        4
 93
        0
300

 40
0.0
140
1.0
 94
        2
 62
     0
340
20D2
144
0.18
309
CONTENTFORMAT_END
171
     1
301
MARGIN
  1
CELLMARGIN_BEGIN
 40
0.06
 40
0.06
 40
0.06
 40
0.06
 40
0.06
 40
0.06
309
CELLMARGIN_END
 94
        6
 95
        1
302
GRIDFORMAT
  1
GRIDFORMAT_BEGIN
 90
        0
 91
        1
 62
     0
 92
       -2
340
20D4
 93
        0
 40
0.045
309
GRIDFORMAT_END
 95
        2
302
GRIDFORMAT
  1
GRIDFORMAT_BEGIN
 90
        0
 91
        1
 62
     0
 92
       -2
340
20D4
 93
        0
 40
0.045
309
GRIDFORMAT_END
 95
        4
302
GRIDFORMAT
  1
GRIDFORMAT_BEGIN
 90
        0
 91
        1
 62
     0
 92
       -2
340
20D4
 93
        0
 40
0.045
309
GRIDFORMAT_END
 95
        8
302
GRIDFORMAT
  1
GRIDFORMAT_BEGIN
 90
        0
 91
        1
 62
     0
 92
       -2
340
20D4
 93
        0
 40
0.045
309
GRIDFORMAT_END
 95
       16
302
GRIDFORMAT
  1
GRIDFORMAT_BEGIN
 90
        0
 91
        1
 62
     0
 92
       -2
340
20D4
 93
        0
 40
0.045
309
GRIDFORMAT_END
 95
       32
302
GRIDFORMAT
  1
GRIDFORMAT_BEGIN
 90
        0
 91
        1
 62
     0
 92
       -2
340
20D4
 93
        0
 40
0.045
309
GRIDFORMAT_END
309
TABLEFORMAT_END
  1
CELLSTYLE_BEGIN
 90
        3
 91
        2
300
_DATA
309
CELLSTYLE_END
  0
ENDSEC
  0
EOF
