  0
SECTION
  2
HEADER
  9
$ACADVER
  1
AC1027
  9
$ACADMAINTVER
 70
   105
  9
$DWGCODEPAGE
  3
ANSI_1252
  9
$REQUIREDVERSIONS
160
                 0
  9
$INSBASE
 10
0.0
 20
0.0
 30
0.0
  9
$EXTMIN
 10
1.000000000000000E+20
 20
1.000000000000000E+20
 30
1.000000000000000E+20
  9
$EXTMAX
 10
-1.000000000000000E+20
 20
-1.000000000000000E+20
 30
-1.000000000000000E+20
  9
$LIMMIN
 10
0.0
 20
0.0
  9
$LIMMAX
 10
12.0
 20
9.0
  9
$ORTHOMODE
 70
     0
  9
$REGENMODE
 70
     1
  9
$FILLMODE
 70
     1
  9
$QTEXTMODE
 70
     0
  9
$MIRRTEXT
 70
     1
  9
$LTSCALE
 40
1.0
  9
$ATTMODE
 70
     1
  9
$TEXTSIZE
 40
0.2
  9
$TRACEWID
 40
0.05
  9
$TEXTSTYLE
  7
Standard
  9
$CLAYER
  8
5
  9
$CELTYPE
  6
ByLayer
  9
$CECOLOR
 62
    18
  9
$CELTSCALE
 40
1.0
  9
$DISPSILH
 70
     0
  9
$DIMSCALE
 40
1.0
  9
$DIMASZ
 40
25.0
  9
$DIMEXO
 40
6.25
  9
$DIMDLI
 40
0.38
  9
$DIMRND
 40
0.0
  9
$DIMDLE
 40
0.0
  9
$DIMEXE
 40
12.5
  9
$DIMTP
 40
0.0
  9
$DIMTM
 40
0.0
  9
$DIMTXT
 40
25.0
  9
$DIMCEN
 40
0.09
  9
$DIMTSZ
 40
0.0
  9
$DIMTOL
 70
     0
  9
$DIMLIM
 70
     0
  9
$DIMTIH
 70
     1
  9
$DIMTOH
 70
     1
  9
$DIMSE1
 70
     0
  9
$DIMSE2
 70
     0
  9
$DIMTAD
 70
     0
  9
$DIMZIN
 70
     8
  9
$DIMBLK
  1

  9
$DIMASO
 70
     1
  9
$DIMSHO
 70
     1
  9
$DIMPOST
  1

  9
$DIMAPOST
  1

  9
$DIMALT
 70
     0
  9
$DIMALTD
 70
     2
  9
$DIMALTF
 40
25.4
  9
$DIMLFAC
 40
1.0
  9
$DIMTOFL
 70
     0
  9
$DIMTVP
 40
0.0
  9
$DIMTIX
 70
     0
  9
$DIMSOXD
 70
     0
  9
$DIMSAH
 70
     0
  9
$DIMBLK1
  1

  9
$DIMBLK2
  1

  9
$DIMSTYLE
  2
Standard
  9
$DIMCLRD
 70
    18
  9
$DIMCLRE
 70
    18
  9
$DIMCLRT
 70
    18
  9
$DIMTFAC
 40
1.0
  9
$DIMGAP
 40
6.25
  9
$DIMJUST
 70
     0
  9
$DIMSD1
 70
     0
  9
$DIMSD2
 70
     0
  9
$DIMTOLJ
 70
     1
  9
$DIMTZIN
 70
     0
  9
$DIMALTZ
 70
     0
  9
$DIMALTTZ
 70
     0
  9
$DIMUPT
 70
     0
  9
$DIMDEC
 70
     4
  9
$DIMTDEC
 70
     4
  9
$DIMALTU
 70
     2
  9
$DIMALTTD
 70
     2
  9
$DIMTXSTY
  7
Standard
  9
$DIMAUNIT
 70
     0
  9
$DIMADEC
 70
     0
  9
$DIMALTRND
 40
0.0
  9
$DIMAZIN
 70
     2
  9
$DIMDSEP
 70
    46
  9
$DIMATFIT
 70
     3
  9
$DIMFRAC
 70
     0
  9
$DIMLDRBLK
  1

  9
$DIMLUNIT
 70
     2
  9
$DIMLWD
 70
    -2
  9
$DIMLWE
 70
    -2
  9
$DIMTMOVE
 70
     0
  9
$DIMFXL
 40
1.0
  9
$DIMFXLON
 70
     0
  9
$DIMJOGANG
 40
0.7853981633974483
  9
$DIMTFILL
 70
     0
  9
$DIMTFILLCLR
 70
     0
  9
$DIMARCSYM
 70
     0
  9
$DIMLTYPE
  6

  9
$DIMLTEX1
  6

  9
$DIMLTEX2
  6

  9
$DIMTXTDIRECTION
 70
     0
  9
$LUNITS
 70
     2
  9
$LUPREC
 70
     4
  9
$SKETCHINC
 40
0.1
  9
$FILLETRAD
 40
0.5
  9
$AUNITS
 70
     0
  9
$AUPREC
 70
     0
  9
$MENU
  1
.
  9
$ELEVATION
 40
0.0
  9
$PELEVATION
 40
0.0
  9
$THICKNESS
 40
0.0
  9
$LIMCHECK
 70
     0
  9
$CHAMFERA
 40
0.0
  9
$CHAMFERB
 40
0.0
  9
$CHAMFERC
 40
0.0
  9
$CHAMFERD
 40
0.0
  9
$SKPOLY
 70
     0
  9
$TDCREATE
 40
2459343.943121296
  9
$TDUCREATE
 40
2459343.859787963
  9
$TDUPDATE
 40
2459343.94312147
  9
$TDUUPDATE
 40
2459343.859788137
  9
$TDINDWG
 40
0.0000000116
  9
$TDUSRTIMER
 40
0.0000000116
  9
$USRTIMER
 70
     1
  9
$ANGBASE
 50
0.0
  9
$ANGDIR
 70
     0
  9
$PDMODE
 70
     0
  9
$PDSIZE
 40
0.0
  9
$PLINEWID
 40
0.0
  9
$SPLFRAME
 70
     0
  9
$SPLINETYPE
 70
     6
  9
$SPLINESEGS
 70
     8
  9
$HANDSEED
  5
2077
  9
$SURFTAB1
 70
     6
  9
$SURFTAB2
 70
     6
  9
$SURFTYPE
 70
     6
  9
$SURFU
 70
     6
  9
$SURFV
 70
     6
  9
$UCSBASE
  2

  9
$UCSNAME
  2

  9
$UCSORG
 10
0.0
 20
0.0
 30
0.0
  9
$UCSXDIR
 10
1.0
 20
0.0
 30
0.0
  9
$UCSYDIR
 10
0.0
 20
1.0
 30
0.0
  9
$UCSORTHOREF
  2

  9
$UCSORTHOVIEW
 70
     0
  9
$UCSORGTOP
 10
0.0
 20
0.0
 30
0.0
  9
$UCSORGBOTTOM
 10
0.0
 20
0.0
 30
0.0
  9
$UCSORGLEFT
 10
0.0
 20
0.0
 30
0.0
  9
$UCSORGRIGHT
 10
0.0
 20
0.0
 30
0.0
  9
$UCSORGFRONT
 10
0.0
 20
0.0
 30
0.0
  9
$UCSORGBACK
 10
0.0
 20
0.0
 30
0.0
  9
$PUCSBASE
  2

  9
$PUCSNAME
  2

  9
$PUCSORG
 10
0.0
 20
0.0
 30
0.0
  9
$PUCSXDIR
 10
1.0
 20
0.0
 30
0.0
  9
$PUCSYDIR
 10
0.0
 20
1.0
 30
0.0
  9
$PUCSORTHOREF
  2

  9
$PUCSORTHOVIEW
 70
     0
  9
$PUCSORGTOP
 10
0.0
 20
0.0
 30
0.0
  9
$PUCSORGBOTTOM
 10
0.0
 20
0.0
 30
0.0
  9
$PUCSORGLEFT
 10
0.0
 20
0.0
 30
0.0
  9
$PUCSORGRIGHT
 10
0.0
 20
0.0
 30
0.0
  9
$PUCSORGFRONT
 10
0.0
 20
0.0
 30
0.0
  9
$PUCSORGBACK
 10
0.0
 20
0.0
 30
0.0
  9
$USERI1
 70
     0
  9
$USERI2
 70
     0
  9
$USERI3
 70
     0
  9
$USERI4
 70
     0
  9
$USERI5
 70
     0
  9
$USERR1
 40
0.0
  9
$USERR2
 40
0.0
  9
$USERR3
 40
0.0
  9
$USERR4
 40
0.0
  9
$USERR5
 40
0.0
  9
$WORLDVIEW
 70
     1
  9
$SHADEDGE
 70
     3
  9
$SHADEDIF
 70
    70
  9
$TILEMODE
 70
     1
  9
$MAXACTVP
 70
    64
  9
$PINSBASE
 10
0.0
 20
0.0
 30
0.0
  9
$PLIMCHECK
 70
     0
  9
$PEXTMIN
 10
0.0
 20
0.0
 30
0.0
  9
$PEXTMAX
 10
0.0
 20
0.0
 30
0.0
  9
$PLIMMIN
 10
-20.0
 20
-7.5
  9
$PLIMMAX
 10
277.0
 20
202.5
  9
$UNITMODE
 70
     0
  9
$VISRETAIN
 70
     1
  9
$PLINEGEN
 70
     0
  9
$PSLTSCALE
 70
     1
  9
$TREEDEPTH
 70
  3020
  9
$CMLSTYLE
  2
Standard
  9
$CMLJUST
 70
     0
  9
$CMLSCALE
 40
1.0
  9
$PROXYGRAPHICS
 70
     1
  9
$MEASUREMENT
 70
     1
  9
$CELWEIGHT
370
    -1
  9
$ENDCAPS
280
     0
  9
$JOINSTYLE
280
     0
  9
$LWDISPLAY
290
     0
  9
$INSUNITS
 70
     4
  9
$HYPERLINKBASE
  1

  9
$STYLESHEET
  1

  9
$XEDIT
290
     1
  9
$CEPSNTYPE
380
     0
  9
$PSTYLEMODE
290
     1
  9
$FINGERPRINTGUID
  2
{8ca7b440-6b34-49e0-a211-3d3f4beab3f9}
  9
$VERSIONGUID
  2
{FAEB1C32-E019-11D5-929B-00C0DF256EC4}
  9
$EXTNAMES
290
     1
  9
$PSVPSCALE
 40
0.0
  9
$OLESTARTUP
290
     0
  9
$SORTENTS
280
   127
  9
$INDEXCTL
280
     0
  9
$HIDETEXT
280
     1
  9
$XCLIPFRAME
280
     2
  9
$HALOGAP
280
     0
  9
$OBSCOLOR
 70
   257
  9
$OBSLTYPE
280
     0
  9
$INTERSECTIONDISPLAY
280
     0
  9
$INTERSECTIONCOLOR
 70
   257
  9
$DIMASSOC
280
     2
  9
$PROJECTNAME
  1

  9
$CAMERADISPLAY
290
     0
  9
$LENSLENGTH
 40
50.0
  9
$CAMERAHEIGHT
 40
0.0
  9
$STEPSPERSEC
 40
2.0
  9
$STEPSIZE
 40
6.0
  9
$3DDWFPREC
 40
2.0
  9
$PSOLWIDTH
 40
0.25
  9
$PSOLHEIGHT
 40
4.0
  9
$LOFTANG1
 40
1.570796326794897
  9
$LOFTANG2
 40
1.570796326794897
  9
$LOFTMAG1
 40
0.0
  9
$LOFTMAG2
 40
0.0
  9
$LOFTPARAM
 70
     7
  9
$LOFTNORMALS
280
     1
  9
$LATITUDE
 40
37.795
  9
$LONGITUDE
 40
-122.394
  9
$NORTHDIRECTION
 40
0.0
  9
$TIMEZONE
 70
 -8000
  9
$LIGHTGLYPHDISPLAY
280
     1
  9
$TILEMODELIGHTSYNCH
280
     1
  9
$CMATERIAL
347
1FB6
  9
$SOLIDHIST
280
     0
  9
$SHOWHIST
280
     1
  9
$DWFFRAME
280
     2
  9
$DGNFRAME
280
     2
  9
$REALWORLDSCALE
290
     1
  9
$INTERFERECOLOR
 62
   256
  9
$CSHADOW
280
     0
  9
$SHADOWPLANELOCATION
 40
0.0
  0
ENDSEC
  0
SECTION
  2
CLASSES
  0
CLASS
  1
ACDBDICTIONARYWDFLT
  2
AcDbDictionaryWithDefault
  3
ObjectDBX Classes
 90
        0
 91
        3
280
     0
281
     0
  0
CLASS
  1
VISUALSTYLE
  2
AcDbVisualStyle
  3
ObjectDBX Classes
 90
     4095
 91
        3
280
     0
281
     0
  0
CLASS
  1
MATERIAL
  2
AcDbMaterial
  3
ObjectDBX Classes
 90
     1153
 91
        3
280
     0
281
     0
  0
CLASS
  1
SCALE
  2
AcDbScale
  3
ObjectDBX Classes
 90
     1153
 91
        3
280
     0
281
     0
  0
CLASS
  1
TABLESTYLE
  2
AcDbTableStyle
  3
ObjectDBX Classes
 90
     4095
 91
        3
280
     0
281
     0
  0
CLASS
  1
MLEADERSTYLE
  2
AcDbMLeaderStyle
  3
ACDB_MLEADERSTYLE_CLASS
 90
     4095
 91
        3
280
     0
281
     0
  0
CLASS
  1
SUN
  2
AcDbSun
  3
SCENEOE
 90
     1153
 91
        3
280
     0
281
     0
  0
CLASS
  1
DICTIONARYVAR
  2
AcDbDictionaryVar
  3
ObjectDBX Classes
 90
        0
 91
        3
280
     0
281
     0
  0
CLASS
  1
CELLSTYLEMAP
  2
AcDbCellStyleMap
  3
ObjectDBX Classes
 90
     1152
 91
        3
280
     0
281
     0
  0
ENDSEC
  0
SECTION
  2
TABLES
  0
TABLE
  2
VPORT
  5
1F7B
330
0
100
AcDbSymbolTable
 70
     1
  0
VPORT
  5
1F9B
330
1F7B
100
AcDbSymbolTableRecord
100
AcDbViewportTableRecord
  2
*Active
 70
     0
 10
0.0
 20
0.0
 11
1.0
 21
1.0
 12
9615.891663562094
 22
267.7406552469135
 13
0.0
 23
0.0
 14
0.5
 24
0.5
 15
0.5
 25
0.5
 16
0.0
 26
0.0
 36
1.0
 17
0.0
 27
0.0
 37
0.0
 40
920.4535294117662
 41
1.600654664484452
 42
50.0
 43
0.0
 44
0.0
 50
0.0
 51
0.0
 71
     0
 72
   100
 73
     1
 74
     3
 75
     0
 76
     0
 77
     0
 78
     0
281
     0
 65
     1
110
0.0
120
0.0
130
0.0
111
1.0
121
0.0
131
0.0
112
0.0
122
1.0
132
0.0
 79
     0
146
0.0
348
1FA1
 60
     3
 61
     5
292
     1
282
     1
141
0.0
142
0.0
 63
   250
361
1FDF
  0
ENDTAB
  0
TABLE
  2
LTYPE
  5
1F78
330
0
100
AcDbSymbolTable
 70
    52
  0
LTYPE
  5
1F86
330
1F78
100
AcDbSymbolTableRecord
100
AcDbLinetypeTableRecord
  2
ByBlock
 70
     0
  3

 72
    65
 73
     0
 40
0.0
  0
LTYPE
  5
1F87
330
1F78
100
AcDbSymbolTableRecord
100
AcDbLinetypeTableRecord
  2
ByLayer
 70
     0
  3

 72
    65
 73
     0
 40
0.0
  0
LTYPE
  5
1F88
330
1F78
100
AcDbSymbolTableRecord
100
AcDbLinetypeTableRecord
  2
Continuous
 70
     0
  3
Solid line
 72
    65
 73
     0
 40
0.0
  0
LTYPE
  5
2021
330
1F78
100
AcDbSymbolTableRecord
100
AcDbLinetypeTableRecord
  2
BORDER2
 70
     0
  3
Border (.5x) __.__.__.__.__.__.__.__.__.__.__.
 72
    65
 73
     6
 40
22.225
 49
6.35
 74
     0
 49
-3.175
 74
     0
 49
6.35
 74
     0
 49
-3.175
 74
     0
 49
0.0
 74
     0
 49
-3.175
 74
     0
  0
LTYPE
  5
2022
330
1F78
100
AcDbSymbolTableRecord
100
AcDbLinetypeTableRecord
  2
BORDERX2
 70
     0
  3
Border (2x) ____  ____  .  ____  ____  .  ___
 72
    65
 73
     6
 40
88.89999999999999
 49
25.4
 74
     0
 49
-12.7
 74
     0
 49
25.4
 74
     0
 49
-12.7
 74
     0
 49
0.0
 74
     0
 49
-12.7
 74
     0
  0
LTYPE
  5
2023
330
1F78
100
AcDbSymbolTableRecord
100
AcDbLinetypeTableRecord
  2
CENTER
 70
     0
  3
Center ____ _ ____ _ ____ _ ____ _ ____ _ ____
 72
    65
 73
     4
 40
50.8
 49
31.75
 74
     0
 49
-6.35
 74
     0
 49
6.35
 74
     0
 49
-6.35
 74
     0
  0
LTYPE
  5
2024
330
1F78
100
AcDbSymbolTableRecord
100
AcDbLinetypeTableRecord
  2
CENTER2
 70
     0
  3
Center (.5x) ___ _ ___ _ ___ _ ___ _ ___ _ ___
 72
    65
 73
     4
 40
28.575
 49
19.05
 74
     0
 49
-3.175
 74
     0
 49
3.175
 74
     0
 49
-3.175
 74
     0
  0
LTYPE
  5
2025
330
1F78
100
AcDbSymbolTableRecord
100
AcDbLinetypeTableRecord
  2
CENTERX2
 70
     0
  3
Center (2x) ________  __  ________  __  _____
 72
    65
 73
     4
 40
101.6
 49
63.5
 74
     0
 49
-12.7
 74
     0
 49
12.7
 74
     0
 49
-12.7
 74
     0
  0
LTYPE
  5
2027
330
1F78
100
AcDbSymbolTableRecord
100
AcDbLinetypeTableRecord
  2
CUTLEFT
 70
     0
  3
G41 ----\----\----\----
 72
    65
 73
     2
 40
10.16
 49
5.08
 74
     2
 75
     0
340
2026
 46
2.54
 50
180.0
 44
0.0
 45
0.0
  9
LRIGHT_ARROW
 49
5.08
 74
     0
  0
LTYPE
  5
2029
330
1F78
100
AcDbSymbolTableRecord
100
AcDbLinetypeTableRecord
  2
CUTLEFT2
 70
     0
  3
G41 reversed----/----/----/----
 72
    65
 73
     2
 40
10.16
 49
5.08
 74
     2
 75
     0
340
2028
 46
2.54
 50
0.0
 44
0.0
 45
0.0
  9
LRIGHT_ARROW
 49
5.08
 74
     0
  0
LTYPE
  5
202B
330
1F78
100
AcDbSymbolTableRecord
100
AcDbLinetypeTableRecord
  2
CUTRIGHT
 70
     0
  3
G42 ----/----/-----/---
 72
    65
 73
     2
 40
10.16
 49
5.08
 74
     2
 75
     0
340
202A
 46
2.54
 50
180.0
 44
0.0
 45
0.0
  9
HRIGHT_ARROW
 49
5.08
 74
     0
  0
LTYPE
  5
202C
330
1F78
100
AcDbSymbolTableRecord
100
AcDbLinetypeTableRecord
  2
ACAD_ISO10W100
 70
     0
  3
ISO dash dot __ . __ . __ . __ . __ . __ . __ . 
 72
    65
 73
     4
 40
18.0
 49
12.0
 74
     0
 49
-3.0
 74
     0
 49
0.0
 74
     0
 49
-3.0
 74
     0
  0
LTYPE
  5
202D
330
1F78
100
AcDbSymbolTableRecord
100
AcDbLinetypeTableRecord
  2
ACAD_ISO11W100
 70
     0
  3
ISO double-dash dot __ __ . __ __ . __ __ . __ _
 72
    65
 73
     6
 40
33.0
 49
12.0
 74
     0
 49
-3.0
 74
     0
 49
12.0
 74
     0
 49
-3.0
 74
     0
 49
0.0
 74
     0
 49
-3.0
 74
     0
  0
LTYPE
  5
202E
330
1F78
100
AcDbSymbolTableRecord
100
AcDbLinetypeTableRecord
  2
ACAD_ISO12W100
 70
     0
  3
ISO dash double-dot __ . . __ . . __ . . __ . . 
 72
    65
 73
     6
 40
21.0
 49
12.0
 74
     0
 49
-3.0
 74
     0
 49
0.0
 74
     0
 49
-3.0
 74
     0
 49
0.0
 74
     0
 49
-3.0
 74
     0
  0
LTYPE
  5
202F
330
1F78
100
AcDbSymbolTableRecord
100
AcDbLinetypeTableRecord
  2
ACAD_ISO13W100
 70
     0
  3
ISO double-dash double-dot __ __ . . __ __ . . _
 72
    65
 73
     8
 40
36.0
 49
12.0
 74
     0
 49
-3.0
 74
     0
 49
12.0
 74
     0
 49
-3.0
 74
     0
 49
0.0
 74
     0
 49
-3.0
 74
     0
 49
0.0
 74
     0
 49
-3.0
 74
     0
  0
LTYPE
  5
2030
330
1F78
100
AcDbSymbolTableRecord
100
AcDbLinetypeTableRecord
  2
ACAD_ISO14W100
 70
     0
  3
ISO dash triple-dot __ . . . __ . . . __ . . . _
 72
    65
 73
     8
 40
24.0
 49
12.0
 74
     0
 49
-3.0
 74
     0
 49
0.0
 74
     0
 49
-3.0
 74
     0
 49
0.0
 74
     0
 49
-3.0
 74
     0
 49
0.0
 74
     0
 49
-3.0
 74
     0
  0
LTYPE
  5
2031
330
1F78
100
AcDbSymbolTableRecord
100
AcDbLinetypeTableRecord
  2
ACAD_ISO15W100
 70
     0
  3
ISO double-dash triple-dot __ __ . . . __ __ . .
 72
    65
 73
    10
 40
39.0
 49
12.0
 74
     0
 49
-3.0
 74
     0
 49
12.0
 74
     0
 49
-3.0
 74
     0
 49
0.0
 74
     0
 49
-3.0
 74
     0
 49
0.0
 74
     0
 49
-3.0
 74
     0
 49
0.0
 74
     0
 49
-3.0
 74
     0
  0
LTYPE
  5
2034
330
1F78
100
AcDbSymbolTableRecord
100
AcDbLinetypeTableRecord
  2
BATTING
 70
     0
  3
Batting SSSSSSSSSSSSSSSSSSSSSSSSSSSSSSSSSSSSSSSSSSSSSSS
 72
    65
 73
     4
 40
10.16254
 49
0.00254
 74
     0
 49
-2.54
 74
     2
 75
     0
340
2032
 46
2.54
 50
0.0
 44
-2.54
 45
0.0
  9
BAT
 49
-5.08
 74
     2
 75
     0
340
2033
 46
2.54
 50
180.0
 44
2.54
 45
0.0
  9
BAT
 49
-2.54
 74
     0
  0
LTYPE
  5
2035
330
1F78
100
AcDbSymbolTableRecord
100
AcDbLinetypeTableRecord
  2
BORDER
 70
     0
  3
Border __ __ . __ __ . __ __ . __ __ . __ __ .
 72
    65
 73
     6
 40
44.45
 49
12.7
 74
     0
 49
-6.35
 74
     0
 49
12.7
 74
     0
 49
-6.35
 74
     0
 49
0.0
 74
     0
 49
-6.35
 74
     0
  0
LTYPE
  5
2036
330
1F78
100
AcDbSymbolTableRecord
100
AcDbLinetypeTableRecord
  2
ACAD_ISO02W100
 70
     0
  3
ISO dash __ __ __ __ __ __ __ __ __ __ __ __ __
 72
    65
 73
     2
 40
15.0
 49
12.0
 74
     0
 49
-3.0
 74
     0
  0
LTYPE
  5
2037
330
1F78
100
AcDbSymbolTableRecord
100
AcDbLinetypeTableRecord
  2
ACAD_ISO03W100
 70
     0
  3
ISO dash space __    __    __    __    __    __
 72
    65
 73
     2
 40
30.0
 49
12.0
 74
     0
 49
-18.0
 74
     0
  0
LTYPE
  5
2038
330
1F78
100
AcDbSymbolTableRecord
100
AcDbLinetypeTableRecord
  2
ACAD_ISO04W100
 70
     0
  3
ISO long-dash dot ____ . ____ . ____ . ____ . _
 72
    65
 73
     4
 40
30.0
 49
24.0
 74
     0
 49
-3.0
 74
     0
 49
0.0
 74
     0
 49
-3.0
 74
     0
  0
LTYPE
  5
2039
330
1F78
100
AcDbSymbolTableRecord
100
AcDbLinetypeTableRecord
  2
ACAD_ISO05W100
 70
     0
  3
ISO long-dash double-dot ____ .. ____ .. ____ . 
 72
    65
 73
     6
 40
33.0
 49
24.0
 74
     0
 49
-3.0
 74
     0
 49
0.0
 74
     0
 49
-3.0
 74
     0
 49
0.0
 74
     0
 49
-3.0
 74
     0
  0
LTYPE
  5
203A
330
1F78
100
AcDbSymbolTableRecord
100
AcDbLinetypeTableRecord
  2
ACAD_ISO06W100
 70
     0
  3
ISO long-dash triple-dot ____ ... ____ ... ____
 72
    65
 73
     8
 40
36.0
 49
24.0
 74
     0
 49
-3.0
 74
     0
 49
0.0
 74
     0
 49
-3.0
 74
     0
 49
0.0
 74
     0
 49
-3.0
 74
     0
 49
0.0
 74
     0
 49
-3.0
 74
     0
  0
LTYPE
  5
203B
330
1F78
100
AcDbSymbolTableRecord
100
AcDbLinetypeTableRecord
  2
ACAD_ISO07W100
 70
     0
  3
ISO dot . . . . . . . . . . . . . . . . . . . . 
 72
    65
 73
     2
 40
3.0
 49
0.0
 74
     0
 49
-3.0
 74
     0
  0
LTYPE
  5
203C
330
1F78
100
AcDbSymbolTableRecord
100
AcDbLinetypeTableRecord
  2
ACAD_ISO08W100
 70
     0
  3
ISO long-dash short-dash ____ __ ____ __ ____ _
 72
    65
 73
     4
 40
36.0
 49
24.0
 74
     0
 49
-3.0
 74
     0
 49
6.0
 74
     0
 49
-3.0
 74
     0
  0
LTYPE
  5
203D
330
1F78
100
AcDbSymbolTableRecord
100
AcDbLinetypeTableRecord
  2
ACAD_ISO09W100
 70
     0
  3
ISO long-dash double-short-dash ____ __ __ ____
 72
    65
 73
     6
 40
45.0
 49
24.0
 74
     0
 49
-3.0
 74
     0
 49
6.0
 74
     0
 49
-3.0
 74
     0
 49
6.0
 74
     0
 49
-3.0
 74
     0
  0
LTYPE
  5
203E
330
1F78
100
AcDbSymbolTableRecord
100
AcDbLinetypeTableRecord
  2
PHANTOMX2
 70
     0
  3
Phantom (2x) ____________    ____    ____   _
 72
    65
 73
     6
 40
127.0
 49
63.5
 74
     0
 49
-12.7
 74
     0
 49
12.7
 74
     0
 49
-12.7
 74
     0
 49
12.7
 74
     0
 49
-12.7
 74
     0
  0
LTYPE
  5
2040
330
1F78
100
AcDbSymbolTableRecord
100
AcDbLinetypeTableRecord
  2
TRACKS
 70
     0
  3
Tracks -|-|-|-|-|-|-|-|-|-|-|-|-|-|-|-|-|-|-|-|-|-|-|-|-
 72
    65
 73
     2
 40
7.62
 49
3.81
 74
     2
 75
     0
340
203F
 46
6.35
 50
0.0
 44
0.0
 45
0.0
  9
TRACK1
 49
3.81
 74
     0
  0
LTYPE
  5
2043
330
1F78
100
AcDbSymbolTableRecord
100
AcDbLinetypeTableRecord
  2
ZIGZAG
 70
     0
  3
Zig zag /\/\/\/\/\/\/\/\/\/\/\/\/\/\/\/\/\/\/\/\/\/\/\/
 72
    65
 73
     4
 40
20.32254
 49
0.00254
 74
     0
 49
-5.08
 74
     2
 75
     0
340
2041
 46
5.08
 50
0.0
 44
-5.08
 45
0.0
  9
ZIG
 49
-10.16
 74
     2
 75
     0
340
2042
 46
5.08
 50
180.0
 44
5.08
 45
0.0
  9
ZIG
 49
-5.08
 74
     0
  0
LTYPE
  5
2045
330
1F78
100
AcDbSymbolTableRecord
100
AcDbLinetypeTableRecord
  2
FENCELINE2
 70
     0
  3
Fenceline square ----[]-----[]----[]-----[]----[]---
 72
    65
 73
     4
 40
36.83
 49
6.35
 74
     0
 49
-2.54
 74
     2
 75
     0
340
2044
 46
2.54
 50
0.0
 44
-2.54
 45
0.0
  9
BOX
 49
-2.54
 74
     0
 49
25.4
 74
     0
  0
LTYPE
  5
2047
330
1F78
100
AcDbSymbolTableRecord
100
AcDbLinetypeTableRecord
  2
GAS_LINE
 70
     0
  3
Gas line ----GAS----GAS----GAS----GAS----GAS----GAS--
 72
    65
 73
     3
 40
24.13
 49
12.7
 74
     0
 49
-5.08
 74
     2
 75
     0
340
2046
 46
2.54
 50
0.0
 44
-2.54
 45
-1.27
  9
GAS
 49
-6.35
 74
     0
  0
LTYPE
  5
2048
330
1F78
100
AcDbSymbolTableRecord
100
AcDbLinetypeTableRecord
  2
HIDDEN
 70
     0
  3
Hidden __ __ __ __ __ __ __ __ __ __ __ __ __ __
 72
    65
 73
     2
 40
9.524999999999999
 49
6.35
 74
     0
 49
-3.175
 74
     0
  0
LTYPE
  5
2049
330
1F78
100
AcDbSymbolTableRecord
100
AcDbLinetypeTableRecord
  2
HIDDEN2
 70
     0
  3
Hidden (.5x) _ _ _ _ _ _ _ _ _ _ _ _ _ _ _ _ _ 
 72
    65
 73
     2
 40
4.762499999999999
 49
3.175
 74
     0
 49
-1.5875
 74
     0
  0
LTYPE
  5
204A
330
1F78
100
AcDbSymbolTableRecord
100
AcDbLinetypeTableRecord
  2
HIDDENX2
 70
     0
  3
Hidden (2x) ____ ____ ____ ____ ____ ____ ____ 
 72
    65
 73
     2
 40
19.05
 49
12.7
 74
     0
 49
-6.35
 74
     0
  0
LTYPE
  5
204C
330
1F78
100
AcDbSymbolTableRecord
100
AcDbLinetypeTableRecord
  2
HOT_WATER_SUPPLY
 70
     0
  3
Hot water supply ---- HW ---- HW ---- HW ----
 72
    65
 73
     3
 40
22.86
 49
12.7
 74
     0
 49
-5.08
 74
     2
 75
     0
340
204B
 46
2.54
 50
0.0
 44
-2.54
 45
-1.27
  9
HW
 49
-5.08
 74
     0
  0
LTYPE
  5
204D
330
1F78
100
AcDbSymbolTableRecord
100
AcDbLinetypeTableRecord
  2
PHANTOM
 70
     0
  3
Phantom ______  __  __  ______  __  __  ______ 
 72
    65
 73
     6
 40
63.50000000000001
 49
31.75
 74
     0
 49
-6.35
 74
     0
 49
6.35
 74
     0
 49
-6.35
 74
     0
 49
6.35
 74
     0
 49
-6.35
 74
     0
  0
LTYPE
  5
204E
330
1F78
100
AcDbSymbolTableRecord
100
AcDbLinetypeTableRecord
  2
PHANTOM2
 70
     0
  3
Phantom (.5x) ___ _ _ ___ _ _ ___ _ _ ___ _ _
 72
    65
 73
     6
 40
31.75
 49
15.875
 74
     0
 49
-3.175
 74
     0
 49
3.175
 74
     0
 49
-3.175
 74
     0
 49
3.175
 74
     0
 49
-3.175
 74
     0
  0
LTYPE
  5
204F
330
1F78
100
AcDbSymbolTableRecord
100
AcDbLinetypeTableRecord
  2
DIVIDE2
 70
     0
  3
Divide (.5x) __..__..__..__..__..__..__..__.._
 72
    65
 73
     6
 40
15.875
 49
6.35
 74
     0
 49
-3.175
 74
     0
 49
0.0
 74
     0
 49
-3.175
 74
     0
 49
0.0
 74
     0
 49
-3.175
 74
     0
  0
LTYPE
  5
2050
330
1F78
100
AcDbSymbolTableRecord
100
AcDbLinetypeTableRecord
  2
DIVIDEX2
 70
     0
  3
Divide (2x) ________  .  .  ________  .  .  _
 72
    65
 73
     6
 40
63.5
 49
25.4
 74
     0
 49
-12.7
 74
     0
 49
0.0
 74
     0
 49
-12.7
 74
     0
 49
0.0
 74
     0
 49
-12.7
 74
     0
  0
LTYPE
  5
2051
330
1F78
100
AcDbSymbolTableRecord
100
AcDbLinetypeTableRecord
  2
DOT
 70
     0
  3
Dot . . . . . . . . . . . . . . . . . . . . . . . .
 72
    65
 73
     2
 40
6.35
 49
0.0
 74
     0
 49
-6.35
 74
     0
  0
LTYPE
  5
2052
330
1F78
100
AcDbSymbolTableRecord
100
AcDbLinetypeTableRecord
  2
DOT2
 70
     0
  3
Dot (.5x) ........................................
 72
    65
 73
     2
 40
3.175
 49
0.0
 74
     0
 49
-3.175
 74
     0
  0
LTYPE
  5
2053
330
1F78
100
AcDbSymbolTableRecord
100
AcDbLinetypeTableRecord
  2
DOTX2
 70
     0
  3
Dot (2x) .  .  .  .  .  .  .  .  .  .  .  .  .  .
 72
    65
 73
     2
 40
12.7
 49
0.0
 74
     0
 49
-12.7
 74
     0
  0
LTYPE
  5
2055
330
1F78
100
AcDbSymbolTableRecord
100
AcDbLinetypeTableRecord
  2
DRAINAGE
 70
     0
  3
Drainage ---->---->---->----
 72
    65
 73
     2
 40
10.16
 49
5.08
 74
     2
 75
     0
340
2054
 46
2.54
 50
180.0
 44
0.0
 45
0.0
  9
RIGHT_ARROW
 49
5.08
 74
     0
  0
LTYPE
  5
2057
330
1F78
100
AcDbSymbolTableRecord
100
AcDbLinetypeTableRecord
  2
DRAINAGE2
 70
     0
  3
Drainage reversed----<----<----<----
 72
    65
 73
     2
 40
10.16
 49
5.08
 74
     2
 75
     0
340
2056
 46
2.54
 50
0.0
 44
0.0
 45
0.0
  9
RIGHT_ARROW
 49
5.08
 74
     0
  0
LTYPE
  5
2059
330
1F78
100
AcDbSymbolTableRecord
100
AcDbLinetypeTableRecord
  2
FENCELINE1
 70
     0
  3
Fenceline circle ----0-----0----0-----0----0-----0--
 72
    65
 73
     4
 40
36.83
 49
6.35
 74
     0
 49
-2.54
 74
     2
 75
     0
340
2058
 46
2.54
 50
0.0
 44
-2.54
 45
0.0
  9
CIRC1
 49
-2.54
 74
     0
 49
25.4
 74
     0
  0
LTYPE
  5
205B
330
1F78
100
AcDbSymbolTableRecord
100
AcDbLinetypeTableRecord
  2
CUTRIGHT2
 70
     0
  3
G42 reversed----\----\----\----
 72
    65
 73
     2
 40
10.16
 49
5.08
 74
     2
 75
     0
340
205A
 46
2.54
 50
0.0
 44
0.0
 45
0.0
  9
HRIGHT_ARROW
 49
5.08
 74
     0
  0
LTYPE
  5
205C
330
1F78
100
AcDbSymbolTableRecord
100
AcDbLinetypeTableRecord
  2
DASHDOT
 70
     0
  3
Dash dot __ . __ . __ . __ . __ . __ . __ . __
 72
    65
 73
     4
 40
25.4
 49
12.7
 74
     0
 49
-6.35
 74
     0
 49
0.0
 74
     0
 49
-6.35
 74
     0
  0
LTYPE
  5
205D
330
1F78
100
AcDbSymbolTableRecord
100
AcDbLinetypeTableRecord
  2
DASHDOT2
 70
     0
  3
Dash dot (.5x) _._._._._._._._._._._._._._._.
 72
    65
 73
     4
 40
12.7
 49
6.35
 74
     0
 49
-3.175
 74
     0
 49
0.0
 74
     0
 49
-3.175
 74
     0
  0
LTYPE
  5
205E
330
1F78
100
AcDbSymbolTableRecord
100
AcDbLinetypeTableRecord
  2
DASHDOTX2
 70
     0
  3
Dash dot (2x) ____  .  ____  .  ____  .  ___
 72
    65
 73
     4
 40
50.8
 49
25.4
 74
     0
 49
-12.7
 74
     0
 49
0.0
 74
     0
 49
-12.7
 74
     0
  0
LTYPE
  5
205F
330
1F78
100
AcDbSymbolTableRecord
100
AcDbLinetypeTableRecord
  2
DASHED
 70
     0
  3
Dashed __ __ __ __ __ __ __ __ __ __ __ __ __ _
 72
    65
 73
     2
 40
19.05
 49
12.7
 74
     0
 49
-6.35
 74
     0
  0
LTYPE
  5
2060
330
1F78
100
AcDbSymbolTableRecord
100
AcDbLinetypeTableRecord
  2
DASHED2
 70
     0
  3
Dashed (.5x) _ _ _ _ _ _ _ _ _ _ _ _ _ _ _ _ _ 
 72
    65
 73
     2
 40
9.524999999999999
 49
6.35
 74
     0
 49
-3.175
 74
     0
  0
LTYPE
  5
2061
330
1F78
100
AcDbSymbolTableRecord
100
AcDbLinetypeTableRecord
  2
DASHEDX2
 70
     0
  3
Dashed (2x) ____  ____  ____  ____  ____  ___
 72
    65
 73
     2
 40
38.09999999999999
 49
25.4
 74
     0
 49
-12.7
 74
     0
  0
LTYPE
  5
2062
330
1F78
100
AcDbSymbolTableRecord
100
AcDbLinetypeTableRecord
  2
DIVIDE
 70
     0
  3
Divide ____ . . ____ . . ____ . . ____ . . ____
 72
    65
 73
     6
 40
31.75
 49
12.7
 74
     0
 49
-6.35
 74
     0
 49
0.0
 74
     0
 49
-6.35
 74
     0
 49
0.0
 74
     0
 49
-6.35
 74
     0
  0
ENDTAB
  0
TABLE
  2
LAYER
  5
1F76
330
0
100
AcDbSymbolTable
 70
    10
  0
LAYER
  5
1F83
330
1F76
100
AcDbSymbolTableRecord
100
AcDbLayerTableRecord
  2
0
 70
     0
 62
   216
420
  8388736
  6
ACAD_ISO03W100
370
     0
390
1F82
347
1FB8
348
0
  0
LAYER
  5
2063
330
1F76
100
AcDbSymbolTableRecord
100
AcDbLayerTableRecord
  2
3 ... 2
 70
     0
 62
     1
420
 16711680
  6
Continuous
370
    -3
390
1F82
347
1FB8
348
0
  0
LAYER
  5
2064
330
1F76
100
AcDbSymbolTableRecord
100
AcDbLayerTableRecord
  2
3 ... 1
 70
     0
 62
     1
420
 16711680
  6
Continuous
370
     0
390
1F82
347
1FB8
348
0
  0
LAYER
  5
2065
330
1F76
100
AcDbSymbolTableRecord
100
AcDbLayerTableRecord
  2
5
 70
     0
 62
     9
420
 12632256
  6
Continuous
370
     0
390
1F82
347
1FB8
348
0
  0
LAYER
  5
2066
330
1F76
100
AcDbSymbolTableRecord
100
AcDbLayerTableRecord
  2
4
 70
     0
 62
     6
420
 16711935
  6
Continuous
370
     0
390
1F82
347
1FB8
348
0
  0
LAYER
  5
2067
330
1F76
100
AcDbSymbolTableRecord
100
AcDbLayerTableRecord
  2
7
 70
     0
 62
     4
420
    65535
  6
Continuous
370
     0
390
1F82
347
1FB8
348
0
  0
LAYER
  5
2068
330
1F76
100
AcDbSymbolTableRecord
100
AcDbLayerTableRecord
  2
1
 70
     0
 62
     7
420
 16777215
  6
Continuous
370
     0
390
1F82
347
1FB8
348
0
  0
LAYER
  5
2069
330
1F76
100
AcDbSymbolTableRecord
100
AcDbLayerTableRecord
  2
3
 70
     0
 62
     1
420
 16711680
  6
Continuous
370
     0
390
1F82
347
1FB8
348
0
1001
QCAD
1000
collapsed:1
  0
LAYER
  5
206A
330
1F76
100
AcDbSymbolTableRecord
100
AcDbLayerTableRecord
  2
6
 70
     0
 62
    18
420
        0
  6
Continuous
370
     0
390
1F82
347
1FB8
348
0
  0
LAYER
  5
206B
330
1F76
100
AcDbSymbolTableRecord
100
AcDbLayerTableRecord
  2
2
 70
     0
 62
     2
420
 16776960
  6
Continuous
370
     0
390
1F82
347
1FB8
348
0
  0
ENDTAB
  0
TABLE
  2
STYLE
  5
1F77
330
0
100
AcDbSymbolTable
 70
    17
  0
STYLE
  5
1F84
330
1F77
100
AcDbSymbolTableRecord
100
AcDbTextStyleTableRecord
  2
Standard
 70
     0
 40
0.0
 41
1.0
 50
0.0
 71
     0
 42
0.2
  3
txt
  4

  0
STYLE
  5
201F
330
1F77
100
AcDbSymbolTableRecord
100
AcDbTextStyleTableRecord
  2
QCADDimTextStyle
 70
     0
 40
0.0
 41
1.0
 50
0.0
 71
     0
 42
0.2
  3
txt
  4

  0
STYLE
  5
2026
330
1F77
100
AcDbSymbolTableRecord
100
AcDbTextStyleTableRecord
  2
textstyle0
 70
     0
 40
0.0
 41
1.0
 50
0.0
 71
     0
 42
0.2
  3
qcadshp.shx
  4

  0
STYLE
  5
2028
330
1F77
100
AcDbSymbolTableRecord
100
AcDbTextStyleTableRecord
  2
textstyle1
 70
     0
 40
0.0
 41
1.0
 50
0.0
 71
     0
 42
0.2
  3
qcadshp.shx
  4

  0
STYLE
  5
202A
330
1F77
100
AcDbSymbolTableRecord
100
AcDbTextStyleTableRecord
  2
textstyle2
 70
     0
 40
0.0
 41
1.0
 50
0.0
 71
     0
 42
0.2
  3
qcadshp.shx
  4

  0
STYLE
  5
2032
330
1F77
100
AcDbSymbolTableRecord
100
AcDbTextStyleTableRecord
  2
textstyle3
 70
     0
 40
0.0
 41
1.0
 50
0.0
 71
     0
 42
0.2
  3
ltypeshp.shx
  4

  0
STYLE
  5
2033
330
1F77
100
AcDbSymbolTableRecord
100
AcDbTextStyleTableRecord
  2
textstyle4
 70
     0
 40
0.0
 41
1.0
 50
0.0
 71
     0
 42
0.2
  3
ltypeshp.shx
  4

  0
STYLE
  5
203F
330
1F77
100
AcDbSymbolTableRecord
100
AcDbTextStyleTableRecord
  2
textstyle5
 70
     0
 40
0.0
 41
1.0
 50
0.0
 71
     0
 42
0.2
  3
ltypeshp.shx
  4

  0
STYLE
  5
2041
330
1F77
100
AcDbSymbolTableRecord
100
AcDbTextStyleTableRecord
  2
textstyle6
 70
     0
 40
0.0
 41
1.0
 50
0.0
 71
     0
 42
0.2
  3
ltypeshp.shx
  4

  0
STYLE
  5
2042
330
1F77
100
AcDbSymbolTableRecord
100
AcDbTextStyleTableRecord
  2
textstyle7
 70
     0
 40
0.0
 41
1.0
 50
0.0
 71
     0
 42
0.2
  3
ltypeshp.shx
  4

  0
STYLE
  5
2044
330
1F77
100
AcDbSymbolTableRecord
100
AcDbTextStyleTableRecord
  2
textstyle8
 70
     0
 40
0.0
 41
1.0
 50
0.0
 71
     0
 42
0.2
  3
ltypeshp.shx
  4

  0
STYLE
  5
2046
330
1F77
100
AcDbSymbolTableRecord
100
AcDbTextStyleTableRecord
  2
textstyle9
 70
     0
 40
0.0
 41
1.0
 50
0.0
 71
     0
 42
0.2
  3
STANDARD
  4

  0
STYLE
  5
204B
330
1F77
100
AcDbSymbolTableRecord
100
AcDbTextStyleTableRecord
  2
textstyle10
 70
     0
 40
0.0
 41
1.0
 50
0.0
 71
     0
 42
0.2
  3
STANDARD
  4

  0
STYLE
  5
2054
330
1F77
100
AcDbSymbolTableRecord
100
AcDbTextStyleTableRecord
  2
textstyle11
 70
     0
 40
0.0
 41
1.0
 50
0.0
 71
     0
 42
0.2
  3
qcadshp.shx
  4

  0
STYLE
  5
2056
330
1F77
100
AcDbSymbolTableRecord
100
AcDbTextStyleTableRecord
  2
textstyle12
 70
     0
 40
0.0
 41
1.0
 50
0.0
 71
     0
 42
0.2
  3
qcadshp.shx
  4

  0
STYLE
  5
2058
330
1F77
100
AcDbSymbolTableRecord
100
AcDbTextStyleTableRecord
  2
textstyle13
 70
     0
 40
0.0
 41
1.0
 50
0.0
 71
     0
 42
0.2
  3
ltypeshp.shx
  4

  0
STYLE
  5
205A
330
1F77
100
AcDbSymbolTableRecord
100
AcDbTextStyleTableRecord
  2
textstyle14
 70
     0
 40
0.0
 41
1.0
 50
0.0
 71
     0
 42
0.2
  3
qcadshp.shx
  4

  0
ENDTAB
  0
TABLE
  2
VIEW
  5
1F79
330
0
100
AcDbSymbolTable
 70
     0
  0
ENDTAB
  0
TABLE
  2
UCS
  5
1F7A
330
0
100
AcDbSymbolTable
 70
     0
  0
ENDTAB
  0
TABLE
  2
APPID
  5
1F7C
330
0
100
AcDbSymbolTable
 70
     2
  0
APPID
  5
1F85
330
1F7C
100
AcDbSymbolTableRecord
100
AcDbRegAppTableRecord
  2
ACAD
 70
     0
  0
APPID
  5
1FE0
330
1F7C
100
AcDbSymbolTableRecord
100
AcDbRegAppTableRecord
  2
QCAD
 70
     0
  0
ENDTAB
  0
TABLE
  2
DIMSTYLE
  5
1F7D
330
0
100
AcDbSymbolTable
 70
     2
100
AcDbDimStyleTable
  0
DIMSTYLE
105
1F99
330
1F7D
100
AcDbSymbolTableRecord
100
AcDbDimStyleTableRecord
  2
Standard
 70
     0
178
     0
340
1F84
  0
DIMSTYLE
105
2020
330
1F7D
100
AcDbSymbolTableRecord
100
AcDbDimStyleTableRecord
  2
QCADDimStyle
 70
     0
 41
25.0
 42
6.25
 44
12.5
 73
     0
 77
     1
140
25.0
147
6.25
178
     0
340
201F
  0
ENDTAB
  0
TABLE
  2
BLOCK_RECORD
  5
1F75
330
0
100
AcDbSymbolTable
 70
     0
  0
BLOCK_RECORD
  5
1F91
330
1F75
100
AcDbSymbolTableRecord
100
AcDbBlockTableRecord
  2
*Model_Space
340
1F94
 70
     0
280
     1
281
     0
  0
BLOCK_RECORD
  5
1F8D
330
1F75
100
AcDbSymbolTableRecord
100
AcDbBlockTableRecord
  2
*Paper_Space
340
1F90
 70
     0
280
     1
281
     0
  0
ENDTAB
  0
ENDSEC
  0
SECTION
  2
BLOCKS
  0
BLOCK
  5
1F92
330
1F91
100
AcDbEntity
  8
0
100
AcDbBlockBegin
  2
*Model_Space
 70
     0
 10
0.0
 20
0.0
 30
0.0
  3
*Model_Space
  1

  0
ENDBLK
  5
1F93
330
1F91
100
AcDbEntity
  8
0
100
AcDbBlockEnd
  0
BLOCK
  5
1F8E
330
1F8D
100
AcDbEntity
 67
     1
  8
0
100
AcDbBlockBegin
  2
*Paper_Space
 70
     0
 10
0.0
 20
0.0
 30
0.0
  3
*Paper_Space
  1

  0
ENDBLK
  5
1F8F
330
1F8D
100
AcDbEntity
 67
     1
  8
0
100
AcDbBlockEnd
  0
ENDSEC
  0
SECTION
  2
ENTITIES
  0
LINE
  5
2D2
330
1F91
100
AcDbEntity
  8
5
100
AcDbLine
 10
8998.9688
 20
512.4251999999999
 30
0.0
 11
10098.9688
 21
512.4251999999999
 31
0.0
  0
LINE
  5
2D4
330
1F91
100
AcDbEntity
  8
5
100
AcDbLine
 10
9548.9688
 20
-257.5748000000003
 30
0.0
 11
9548.9688
 21
562.4251999999994
 31
0.0
  0
LINE
  5
2D7
330
1F91
100
AcDbEntity
  8
5
100
AcDbLine
 10
8998.9688
 20
137.4251999999999
 30
0.0
 11
10098.9688
 21
137.4251999999999
 31
0.0
  0
LINE
  5
2D8
330
1F91
100
AcDbEntity
  8
5
100
AcDbLine
 10
8998.9688
 20
-237.5748000000002
 30
0.0
 11
10098.9688
 21
-237.5748000000002
 31
0.0
  0
LINE
  5
15D7
330
1F91
100
AcDbEntity
  8
6
370
    13
100
AcDbLine
 10
9408.5016
 20
198.722909999999
 30
0.0
 11
9443.603168757507
 21
79.40953831083657
 31
0.0
  0
LINE
  5
15D8
330
1F91
100
AcDbEntity
  8
6
370
    13
100
AcDbLine
 10
9452.636037469681
 20
48.70600965886761
 30
0.0
 11
9461.668426979655
 21
18.00410985804356
 31
0.0
  0
LINE
  5
15D4
330
1F91
100
AcDbEntity
  8
6
370
    13
100
AcDbLine
 10
9487.079593580896
 20
104.9975557912097
 30
0.0
 11
9408.501600000001
 21
198.7229099999986
 31
0.0
  0
LINE
  5
15D5
330
1F91
100
AcDbEntity
  8
6
370
    13
100
AcDbLine
 10
9528.245734952521
 20
55.89587979215736
 30
0.0
 11
9507.66802588188
 21
80.44032262608921
 31
0.0
  0
LINE
  5
6D0
330
1F91
100
AcDbEntity
  8
6
370
    13
100
AcDbLine
 10
9569.466477896809
 20
6.729076758103117
 30
0.0
 11
9548.857844710727
 21
31.31040490230159
 31
0.0
  0
LINE
  5
6D1
330
1F91
100
AcDbEntity
  8
6
370
    13
100
AcDbLine
 10
9470.718198831853
 20
-12.75687407868623
 30
0.0
 11
9479.767815049916
 21
-43.51732900106016
 31
0.0
  0
ARC
  5
6F8
330
1F91
100
AcDbEntity
  8
6
370
    13
100
AcDbCircle
 10
8894.94368399709
 20
-93.70677071241403
 30
0.0
 40
240.4687500000004
100
AcDbArc
 50
334.1355114078667
 51
42.29280689650037
  0
ARC
  5
6FA
330
1F91
100
AcDbEntity
  8
6
370
    13
100
AcDbCircle
 10
8894.94368399709
 20
-93.70677071241403
 30
0.0
 40
240.4687500000004
100
AcDbArc
 50
42.29280689650037
 51
50.13057768721226
  0
ARC
  5
13CD
330
1F91
100
AcDbEntity
  8
6
370
    13
100
AcDbCircle
 10
9203.243916002912
 20
-93.70677071241397
 30
0.0
 40
240.4687500000004
100
AcDbArc
 50
129.8694223127877
 51
133.704774387032
1001
QCAD
1000
reversed:1
  0
ARC
  5
13CF
330
1F91
100
AcDbEntity
  8
6
370
    13
100
AcDbCircle
 10
8870.94368399709
 20
-93.706770712414
 30
0.0
 40
240.4687500000004
100
AcDbArc
 50
46.29522561296803
 51
50.13057768721231
  0
ARC
  5
6FB
330
1F91
100
AcDbEntity
  8
6
370
    13
100
AcDbCircle
 10
8894.916728175758
 20
-93.69970669248528
 30
0.0
 40
208.4062500000014
100
AcDbArc
 50
334.1615748476541
 51
42.28638345486738
  0
ARC
  5
13CC
330
1F91
100
AcDbEntity
  8
6
370
    13
100
AcDbCircle
 10
9203.270871824243
 20
-93.69970669248531
 30
0.0
 40
208.4062500000014
100
AcDbArc
 50
137.7136165451326
 51
142.8797668271603
1001
QCAD
1000
reversed:1
  0
ARC
  5
13D0
330
1F91
100
AcDbEntity
  8
6
370
    13
100
AcDbCircle
 10
8870.916728175758
 20
-93.69970669248534
 30
0.0
 40
208.4062500000014
100
AcDbArc
 50
37.12023317283969
 51
42.28638345486738
  0
ARC
  5
6FC
330
1F91
100
AcDbEntity
  8
6
370
    13
100
AcDbCircle
 10
8894.916728175758
 20
-93.69970669248528
 30
0.0
 40
176.34375
100
AcDbArc
 50
334.195335754892
 51
29.03794111976612
  0
ARC
  5
13D4
330
1F91
100
AcDbEntity
  8
6
370
    13
100
AcDbCircle
 10
9203.270871824247
 20
-93.69970669248526
 30
0.0
 40
176.34375
100
AcDbArc
 50
150.9620588802339
 51
160.4495813835943
1001
QCAD
1000
reversed:1
  0
ARC
  5
13D5
330
1F91
100
AcDbEntity
  8
6
370
    13
100
AcDbCircle
 10
9203.270871824247
 20
-93.69970669248526
 30
0.0
 40
176.34375
100
AcDbArc
 50
199.5504186164058
 51
205.804664245108
1001
QCAD
1000
reversed:1
  0
ARC
  5
13D9
330
1F91
100
AcDbEntity
  8
6
370
    13
100
AcDbCircle
 10
8870.916728175755
 20
-93.69970669248528
 30
0.0
 40
176.34375
100
AcDbArc
 50
334.1953357548921
 51
340.4495813835943
  0
ARC
  5
13DA
330
1F91
100
AcDbEntity
  8
6
370
    13
100
AcDbCircle
 10
8870.916728175755
 20
-93.69970669248528
 30
0.0
 40
176.34375
100
AcDbArc
 50
19.5504186164057
 51
29.03794111976605
  0
LINE
  5
6FE
330
1F91
100
AcDbEntity
  8
6
370
    13
100
AcDbLine
 10
9053.676068027187
 20
-170.4629151585273
 30
0.0
 11
9049.093800000002
 21
-168.2256063883583
 31
0.0
  0
LINE
  5
13D7
330
1F91
100
AcDbEntity
  8
6
370
    13
100
AcDbLine
 10
9044.511531972817
 20
-170.4629151585273
 30
0.0
 11
9049.093800000002
 21
-168.2256063883583
 31
0.0
  0
LINE
  5
13D8
330
1F91
100
AcDbEntity
  8
6
370
    13
100
AcDbLine
 10
9029.676068027184
 20
-170.4629151585273
 30
0.0
 11
9025.093799999999
 21
-168.2256063883583
 31
0.0
  0
LINE
  5
6FF
330
1F91
100
AcDbEntity
  8
6
370
    13
100
AcDbLine
 10
9111.324278200966
 20
-198.6098601737823
 30
0.0
 11
9082.487914124085
 21
-184.5304021704005
 31
0.0
  0
LINE
  5
73C
330
1F91
100
AcDbEntity
  8
6
370
    13
100
AcDbLine
 10
9049.0938
 20
444.8420450476629
 30
0.0
 11
9049.0938
 21
512.4251999999999
 31
0.0
  0
LINE
  5
73D
330
1F91
100
AcDbEntity
  8
6
370
    13
100
AcDbLine
 10
9049.0938
 20
512.4251999999999
 30
0.0
 11
9116.070090966412
 21
512.4251999999999
 31
0.0
  0
LINE
  5
742
330
1F91
100
AcDbEntity
  8
6
370
    13
100
AcDbLine
 10
9049.0938
 20
242.0018976293997
 30
0.0
 11
9049.0938
 21
345.2968045665301
 31
0.0
  0
LINE
  5
743
330
1F91
100
AcDbEntity
  8
6
370
    13
100
AcDbLine
 10
9214.625243454204
 20
512.4251999999999
 30
0.0
 11
9316.748986763418
 21
512.4251999999999
 31
0.0
  0
LINE
  5
1B6F
330
1F91
100
AcDbEntity
  8
6
370
    13
100
AcDbLine
 10
9214.625243454204
 20
562.4251999999999
 30
0.0
 11
9316.748986763418
 21
562.4251999999999
 31
0.0
  0
ARC
  5
745
330
1F91
100
AcDbEntity
  8
6
370
    13
100
AcDbCircle
 10
10760.299125
 20
-1184.017579485829
 30
0.0
 40
2159.999925
100
AcDbArc
 50
138.4147405040984
 51
142.3939033143068
  0
ARC
  5
13DE
330
1F91
100
AcDbEntity
  8
6
370
    13
100
AcDbCircle
 10
7337.888475000002
 20
-1184.017579485829
 30
0.0
 40
2159.999925
100
AcDbArc
 50
37.60609668569316
 51
38.12468029631193
1001
QCAD
1000
reversed:1
  0
ARC
  5
13DF
330
1F91
100
AcDbEntity
  8
6
370
    13
100
AcDbCircle
 10
10736.299125
 20
-1184.017579485829
 30
0.0
 40
2159.999925
100
AcDbArc
 50
141.875319703688
 51
142.3939033143068
  0
ARC
  5
746
330
1F91
100
AcDbEntity
  8
6
370
    13
100
AcDbCircle
 10
10760.29905
 20
-1184.017649999995
 30
0.0
 40
2092.499850000001
100
AcDbArc
 50
140.6992463962848
 51
142.5787987710345
1001
QCAD
1000
reversed:1
  0
ARC
  5
748
330
1F91
100
AcDbEntity
  8
6
370
    13
100
AcDbCircle
 10
8894.916728175758
 20
-93.69970669248528
 30
0.0
 40
272.5312500000014
100
AcDbArc
 50
41.68166373264269
 51
55.54751895342498
  0
ARC
  5
13DD
330
1F91
100
AcDbEntity
  8
6
370
    13
100
AcDbCircle
 10
9203.270871824243
 20
-93.69970669248531
 30
0.0
 40
272.5312500000014
100
AcDbArc
 50
124.4524810465751
 51
127.5717314846366
1001
QCAD
1000
reversed:1
  0
ARC
  5
13E0
330
1F91
100
AcDbEntity
  8
6
370
    13
100
AcDbCircle
 10
8870.916728175758
 20
-93.69970669248531
 30
0.0
 40
272.5312500000014
100
AcDbArc
 50
52.42826851536344
 51
55.54751895342471
  0
LINE
  5
749
330
1F91
100
AcDbEntity
  8
6
370
    13
100
AcDbLine
 10
9049.0938
 20
131.0283795590242
 30
0.0
 11
9049.0938
 21
134.0780208754086
 31
0.0
  0
ARC
  5
74A
330
1F91
100
AcDbEntity
  8
6
370
    13
100
AcDbCircle
 10
10760.29919999998
 20
-1184.017718579861
 30
0.0
 40
2025.0
100
AcDbArc
 50
141.930977793001
 51
143.215714075203
  0
ARC
  5
74B
330
1F91
100
AcDbEntity
  8
6
370
    13
100
AcDbCircle
 10
10760.2992
 20
-1184.017950000001
 30
0.0
 40
1957.5
100
AcDbArc
 50
142.5688916701227
 51
144.6310360670626
1001
QCAD
1000
reversed:1
  0
ARC
  5
74D
330
1F91
100
AcDbEntity
  8
6
370
    13
100
AcDbCircle
 10
8894.916728175758
 20
-93.69970669248528
 30
0.0
 40
272.5312500000014
100
AcDbArc
 50
9.027010547939327
 51
26.65448480304053
  0
ARC
  5
74E
330
1F91
100
AcDbEntity
  8
6
370
    13
100
AcDbCircle
 10
10760.299125
 20
-1184.017579485829
 30
0.0
 40
2159.999925
100
AcDbArc
 50
128.2432183217026
 51
130.7395286527868
  0
ARC
  5
E0F
330
1F91
100
AcDbEntity
  8
6
370
    13
100
AcDbCircle
 10
10760.299125
 20
2208.867979485828
 30
0.0
 40
2159.999925
100
AcDbArc
 50
230.69782165571
 51
231.7567816782974
1001
QCAD
1000
reversed:1
  0
ARC
  5
1B71
330
1F91
100
AcDbEntity
  8
6
370
    13
100
AcDbCircle
 10
10760.299125
 20
-1134.017579485829
 30
0.0
 40
2159.999925
100
AcDbArc
 50
128.2432183217026
 51
129.30217834429
  0
ARC
  5
74F
330
1F91
100
AcDbEntity
  8
6
370
    13
100
AcDbCircle
 10
10760.29905
 20
-1184.017649999995
 30
0.0
 40
2092.499850000001
100
AcDbArc
 50
125.8331310078315
 51
128.4550166315139
1001
QCAD
1000
reversed:1
  0
ARC
  5
E10
330
1F91
100
AcDbEntity
  8
6
370
    13
100
AcDbCircle
 10
10760.29905
 20
2208.868049999995
 30
0.0
 40
2092.499850000001
100
AcDbArc
 50
233.0135681024666
 51
234.1668689921685
  0
ARC
  5
1B6E
330
1F91
100
AcDbEntity
  8
6
370
    13
100
AcDbCircle
 10
10760.29905
 20
-1134.017649999995
 30
0.0
 40
2092.499850000001
100
AcDbArc
 50
125.8331310078315
 51
126.9864318975334
1001
QCAD
1000
reversed:1
  0
ARC
  5
751
330
1F91
100
AcDbEntity
  8
6
370
    13
100
AcDbCircle
 10
10760.29919999998
 20
-1184.017718579861
 30
0.0
 40
2025.0
100
AcDbArc
 50
123.0967607551814
 51
127.223288731384
  0
ARC
  5
E15
330
1F91
100
AcDbEntity
  8
6
370
    13
100
AcDbCircle
 10
10760.29919999998
 20
2208.868118579862
 30
0.0
 40
2025.0
100
AcDbArc
 50
235.629463031654
 51
236.9032392448186
1001
QCAD
1000
reversed:1
  0
ARC
  5
1B6C
330
1F91
100
AcDbEntity
  8
6
370
    13
100
AcDbCircle
 10
10760.29919999998
 20
-1134.017718579862
 30
0.0
 40
2025.0
100
AcDbArc
 50
123.0967607551814
 51
124.370536968346
  0
ARC
  5
752
330
1F91
100
AcDbEntity
  8
6
370
    13
100
AcDbCircle
 10
10760.2992
 20
-1184.017950000001
 30
0.0
 40
1957.5
100
AcDbArc
 50
119.9297701029863
 51
126.5853651809436
1001
QCAD
1000
reversed:1
  0
ARC
  5
E16
330
1F91
100
AcDbEntity
  8
6
370
    13
100
AcDbCircle
 10
10760.2992
 20
2208.868350000001
 30
0.0
 40
1957.5
100
AcDbArc
 50
238.6347058393068
 51
240.0702298970137
  0
ARC
  5
1B6B
330
1F91
100
AcDbEntity
  8
6
370
    13
100
AcDbCircle
 10
10760.2992
 20
-1134.017950000002
 30
0.0
 40
1957.5
100
AcDbArc
 50
119.9297701029863
 51
121.3652941606932
1001
QCAD
1000
reversed:1
  0
LINE
  5
754
330
1F91
100
AcDbEntity
  8
6
370
    13
100
AcDbLine
 10
9423.2570269603
 20
512.4251999999999
 30
0.0
 11
9535.294038200489
 21
512.4251999999999
 31
0.0
  0
LINE
  5
1B73
330
1F91
100
AcDbEntity
  8
6
370
    13
100
AcDbLine
 10
9423.2570269603
 20
562.4252
 30
0.0
 11
9535.294038200489
 21
562.4252000000004
 31
0.0
  0
LINE
  5
755
330
1F91
100
AcDbEntity
  8
6
370
    13
100
AcDbLine
 10
9654.538636405749
 20
512.4251999999999
 30
0.0
 11
9783.62786898937
 21
512.4251999999999
 31
0.0
  0
LINE
  5
1B72
330
1F91
100
AcDbEntity
  8
6
370
    13
100
AcDbLine
 10
9654.538636405749
 20
562.4252000000004
 30
0.0
 11
9783.62786898937
 21
562.4251999999985
 31
0.0
  0
ARC
  5
757
330
1F91
100
AcDbEntity
  8
6
370
    13
100
AcDbCircle
 10
10760.299125
 20
-1184.01787499988
 30
0.0
 40
1889.999925
100
AcDbArc
 50
142.7077363070978
 51
149.0584726422299
  0
ARC
  5
758
330
1F91
100
AcDbEntity
  8
6
370
    13
100
AcDbCircle
 10
10760.299125
 20
-1184.017874551664
 30
0.0
 40
1822.499925
100
AcDbArc
 50
142.3200524226773
 51
148.8758722093614
1001
QCAD
1000
reversed:1
  0
LINE
  5
75A
330
1F91
100
AcDbEntity
  8
6
370
    13
100
AcDbLine
 10
9200.148990670556
 20
-241.9788440562079
 30
0.0
 11
9139.260418638625
 21
-212.2497807622427
 31
0.0
  0
ARC
  5
75B
330
1F91
100
AcDbEntity
  8
6
370
    13
100
AcDbCircle
 10
10760.29919999999
 20
-1184.01779999984
 30
0.0
 40
1755.0
100
AcDbArc
 50
141.2439898888233
 51
148.1371506608351
  0
ARC
  5
75C
330
1F91
100
AcDbEntity
  8
6
370
    13
100
AcDbCircle
 10
10760.29852499999
 20
-1184.017424999998
 30
0.0
 40
1687.5
100
AcDbArc
 50
138.8772208249713
 51
146.7013560023857
1001
QCAD
1000
reversed:1
  0
ARC
  5
75F
330
1F91
100
AcDbEntity
  8
6
370
    13
100
AcDbCircle
 10
10760.299125
 20
-1184.01787499988
 30
0.0
 40
1889.999925
100
AcDbArc
 50
119.3822796172915
 51
126.4465204973531
  0
ARC
  5
18FF
330
1F91
100
AcDbEntity
  8
6
370
    13
100
AcDbCircle
 10
11479.88127933614
 20
1390.161791643643
 30
0.0
 40
1889.999925
100
AcDbArc
 50
209.3822796172915
 51
209.5664607307982
  0
ARC
  5
760
330
1F91
100
AcDbEntity
  8
6
370
    13
100
AcDbCircle
 10
10760.299125
 20
-1184.017874551664
 30
0.0
 40
1822.499925
100
AcDbArc
 50
123.7530514593997
 51
126.834204400509
1001
QCAD
1000
reversed:1
  0
ARC
  5
767
330
1F91
100
AcDbEntity
  8
6
370
    13
100
AcDbCircle
 10
10760.29919999999
 20
-1184.01779999984
 30
0.0
 40
1755.0
100
AcDbArc
 50
125.803807624647
 51
127.9102732322217
  0
ARC
  5
768
330
1F91
100
AcDbEntity
  8
6
370
    13
100
AcDbCircle
 10
10760.29852499999
 20
-1184.017424999998
 30
0.0
 40
1687.5
100
AcDbArc
 50
126.9614305965476
 51
130.2770293365354
1001
QCAD
1000
reversed:1
  0
ARC
  5
76B
330
1F91
100
AcDbEntity
  8
6
370
    13
100
AcDbCircle
 10
10760.29919999999
 20
-1184.017717915973
 30
0.0
 40
1620.0
100
AcDbArc
 50
127.4927753358739
 51
135.2012667104341
  0
ARC
  5
76C
330
1F91
100
AcDbEntity
  8
6
370
    13
100
AcDbCircle
 10
10760.29919999999
 20
-1184.017725
 30
0.0
 40
1552.5
100
AcDbArc
 50
127.4342522175459
 51
135.4291266333947
1001
QCAD
1000
reversed:1
  0
LINE
  5
76E
330
1F91
100
AcDbEntity
  8
6
370
    13
100
AcDbLine
 10
9654.324751714481
 20
-94.48719778217196
 30
0.0
 11
9610.76937034008
 21
-42.5357116092373
 31
0.0
  0
ARC
  5
76F
330
1F91
100
AcDbEntity
  8
6
370
    13
100
AcDbCircle
 10
10760.29919999999
 20
-1184.017641245263
 30
0.0
 40
1485.0
100
AcDbArc
 50
126.6893411650187
 51
135.6778021849272
  0
ARC
  5
770
330
1F91
100
AcDbEntity
  8
6
370
    13
100
AcDbCircle
 10
10760.2992
 20
-1184.017894428373
 30
0.0
 40
1417.5
100
AcDbArc
 50
124.9245958013479
 51
135.9502762021633
1001
QCAD
1000
reversed:1
  0
LINE
  5
772
330
1F91
100
AcDbEntity
  8
6
370
    13
100
AcDbLine
 10
9741.489963985972
 20
-198.4551158026209
 30
0.0
 11
9697.897386720382
 21
-146.4592635429774
 31
0.0
  0
ARC
  5
774
330
1F91
100
AcDbEntity
  8
6
370
    13
100
AcDbCircle
 10
10760.29919999998
 20
-1184.017914328125
 30
0.0
 40
1350.0
100
AcDbArc
 50
126.3285542574316
 51
136.2501609668411
  0
ARC
  5
775
330
1F91
100
AcDbEntity
  8
6
370
    13
100
AcDbCircle
 10
10760.298525
 20
-1184.017567499998
 30
0.0
 40
1282.5
100
AcDbArc
 50
129.3100611699225
 51
133.7492902366997
1001
QCAD
1000
reversed:1
  0
LINE
  5
776
330
1F91
100
AcDbEntity
  8
6
370
    13
100
AcDbLine
 10
9960.539284309694
 20
-96.41317120906916
 30
0.0
 11
9947.813293610317
 21
-191.710156072645
 31
0.0
  0
LINE
  5
777
330
1F91
100
AcDbEntity
  8
6
370
    13
100
AcDbLine
 10
9791.055059840584
 20
-257.5748000000005
 30
0.0
 11
9785.10522852723
 21
-250.4780287296512
 31
0.0
  0
ARC
  5
782
330
1F91
100
AcDbEntity
  8
6
370
    13
100
AcDbCircle
 10
10760.29919999999
 20
-1184.017717915973
 30
0.0
 40
1620.0
100
AcDbArc
 50
140.4230845156418
 51
145.1186874440268
  0
ARC
  5
783
330
1F91
100
AcDbEntity
  8
6
370
    13
100
AcDbCircle
 10
10760.29919999999
 20
-1184.017725
 30
0.0
 40
1552.5
100
AcDbArc
 50
142.1224924387623
 51
143.3630401794188
1001
QCAD
1000
reversed:1
  0
LINE
  5
784
330
1F91
100
AcDbEntity
  8
6
370
    13
100
AcDbLine
 10
9511.651801832912
 20
-151.8938517784936
 30
0.0
 11
9534.871870169227
 21
-230.8209408552789
 31
0.0
  0
LINE
  5
8D2
330
1F91
100
AcDbEntity
  8
6
370
    13
100
AcDbLine
 10
9049.093800000002
 20
-168.2256063883585
 30
0.0
 11
9049.093800000002
 21
-8.104445797008339
 31
0.0
  0
LINE
  5
8D3
330
1F91
100
AcDbEntity
  8
6
370
    13
100
AcDbLine
 10
9049.0938
 20
46.52367068363469
 30
0.0
 11
9049.0938
 21
90.8547677045915
 31
0.0
  0
LINE
  5
13CE
330
1F91
100
AcDbEntity
  8
6
370
    13
100
AcDbLine
 10
9025.0938
 20
46.5236706836347
 30
0.0
 11
9025.0938
 21
90.8547677045915
 31
0.0
  0
LINE
  5
8D6
330
1F91
100
AcDbEntity
  8
3 ... 2
370
    13
100
AcDbLine
 10
9049.0938
 20
-257.5748000000002
 30
0.0
 11
9049.0938
 21
-220.4561792566983
 31
0.0
  0
LINE
  5
8D9
330
1F91
100
AcDbEntity
  8
3 ... 2
370
    13
100
AcDbLine
 10
9049.0938
 20
-214.9310857271649
 30
0.0
 11
9049.0938
 21
-161.5486238279238
 31
0.0
  0
LINE
  5
8DD
330
1F91
100
AcDbEntity
  8
3 ... 2
370
    13
100
AcDbLine
 10
10048.8438
 20
-96.29413027289178
 30
0.0
 11
10048.8438
 21
117.0789721448583
 31
0.0
  0
LINE
  5
8E0
330
1F91
100
AcDbEntity
  8
3 ... 1
370
    13
100
AcDbLine
 10
9049.0938
 20
-21.26750606482995
 30
0.0
 11
9049.0938
 21
55.29516087940631
 31
0.0
  0
LINE
  5
8E1
330
1F91
100
AcDbEntity
  8
3 ... 1
370
    13
100
AcDbLine
 10
9049.0938
 20
82.96619400729554
 30
0.0
 11
9049.0938
 21
138.2681526119142
 31
0.0
  0
LINE
  5
8E8
330
1F91
100
AcDbEntity
  8
1
370
    13
100
AcDbLine
 10
9107.460619068343
 20
512.4251999999999
 30
0.0
 11
9223.548092013385
 21
512.4251999999999
 31
0.0
  0
LINE
  5
1B5C
330
1F91
100
AcDbEntity
  8
1
370
    13
100
AcDbLine
 10
9107.460619068343
 20
562.4251999999999
 30
0.0
 11
9223.548092013385
 21
562.4251999999999
 31
0.0
  0
LINE
  5
8E9
330
1F91
100
AcDbEntity
  8
1
370
    13
100
AcDbLine
 10
9049.0938
 20
336.2779479034513
 30
0.0
 11
9049.0938
 21
453.5323193872373
 31
0.0
  0
LINE
  5
8ED
330
1F91
100
AcDbEntity
  8
1
370
    13
100
AcDbLine
 10
9307.507673959397
 20
512.4251999999999
 30
0.0
 11
9432.97189600543
 21
512.4251999999999
 31
0.0
  0
LINE
  5
1B5B
330
1F91
100
AcDbEntity
  8
1
370
    13
100
AcDbLine
 10
9307.507673959397
 20
562.4251999999999
 30
0.0
 11
9432.97189600543
 21
562.4252000000002
 31
0.0
  0
LINE
  5
8F3
330
1F91
100
AcDbEntity
  8
1
370
    13
100
AcDbLine
 10
9049.0938
 20
131.0283795590237
 30
0.0
 11
9049.0938
 21
251.3560805748986
 31
0.0
  0
LINE
  5
8FB
330
1F91
100
AcDbEntity
  8
1
370
    13
100
AcDbLine
 10
9525.073047547849
 20
512.4251999999999
 30
0.0
 11
9665.565248758745
 21
512.4251999999999
 31
0.0
  0
LINE
  5
1B58
330
1F91
100
AcDbEntity
  8
1
370
    13
100
AcDbLine
 10
9525.073047547849
 20
562.4251999999999
 30
0.0
 11
9665.565248758745
 21
562.4251999999984
 31
0.0
  0
LINE
  5
955
330
1F91
100
AcDbEntity
  8
1
370
    13
100
AcDbLine
 10
9771.65725833554
 20
512.4251999999999
 30
0.0
 11
9955.451255824713
 21
512.4251999999999
 31
0.0
  0
LINE
  5
1B62
330
1F91
100
AcDbEntity
  8
1
370
    13
100
AcDbLine
 10
9771.65725833554
 20
562.4251999999998
 30
0.0
 11
9955.451255824713
 21
562.4251999999962
 31
0.0
  0
LINE
  5
991
330
1F91
100
AcDbEntity
  8
2
370
    13
100
AcDbLine
 10
10048.8438
 20
-257.5748000000002
 30
0.0
 11
10048.8438
 21
-76.07153687798649
 31
0.0
  0
LINE
  5
997
330
1F91
100
AcDbEntity
  8
2
370
    13
100
AcDbLine
 10
9049.0938
 20
-229.817376335054
 30
0.0
 11
9049.0938
 21
-208.2280364820179
 31
0.0
  0
LINE
  5
D7D
330
1F91
100
AcDbEntity
  8
1
370
    13
100
AcDbLine
 10
9037.0938
 20
465.9807772835952
 30
0.0
 11
9037.0938
 21
349.6784125803273
 31
0.0
  0
LINE
  5
D7E
330
1F91
100
AcDbEntity
  8
1
370
    13
100
AcDbLine
 10
9025.0938
 20
453.5323193872374
 30
0.0
 11
9025.0938
 21
336.2779479034502
 31
0.0
  0
LINE
  5
D83
330
1F91
100
AcDbEntity
  8
1
370
    13
100
AcDbLine
 10
9037.0938
 20
265.5418245531567
 30
0.0
 11
9037.0938
 21
139.771278448719
 31
0.0
  0
LINE
  5
D84
330
1F91
100
AcDbEntity
  8
1
370
    13
100
AcDbLine
 10
9025.0938
 20
251.3560805748993
 30
0.0
 11
9025.0938
 21
131.0283795590238
 31
0.0
  0
LINE
  5
D95
330
1F91
100
AcDbEntity
  8
2
370
    13
100
AcDbLine
 10
9025.0938
 20
-208.2280364820178
 30
0.0
 11
9025.0938
 21
-229.8173763350522
 31
0.0
  0
LINE
  5
D96
330
1F91
100
AcDbEntity
  8
2
370
    13
100
AcDbLine
 10
9037.093800000002
 20
-214.2049484548927
 30
0.0
 11
9037.0938
 21
-244.1884599044704
 31
0.0
  0
LINE
  5
DB7
330
1F91
100
AcDbEntity
  8
2
370
    13
100
AcDbLine
 10
10060.8438
 20
-37.44754000474583
 30
0.0
 11
10060.8438
 21
-257.5748000000002
 31
0.0
  0
LINE
  5
DB8
330
1F91
100
AcDbEntity
  8
2
370
    13
100
AcDbLine
 10
10072.8438
 20
-76.07153687798704
 30
0.0
 11
10072.8438
 21
-257.5748000000001
 31
0.0
  0
LINE
  5
DBF
330
1F91
100
AcDbEntity
  8
3 ... 2
370
    13
100
AcDbLine
 10
9025.093800000002
 20
-161.5486238279252
 30
0.0
 11
9025.0938
 21
-214.9310857271651
 31
0.0
  0
LINE
  5
DC0
330
1F91
100
AcDbEntity
  8
3 ... 2
370
    13
100
AcDbLine
 10
9037.093800000002
 20
-167.4076667915271
 30
0.0
 11
9037.0938
 21
-220.90799770004
 31
0.0
  0
LINE
  5
DC5
330
1F91
100
AcDbEntity
  8
3 ... 2
370
    13
100
AcDbLine
 10
9025.0938
 20
-220.4561792566985
 30
0.0
 11
9025.0938
 21
-257.5748000000002
 31
0.0
  0
LINE
  5
DC6
330
1F91
100
AcDbEntity
  8
3 ... 2
370
    13
100
AcDbLine
 10
9037.0938
 20
-234.8272628261161
 30
0.0
 11
9037.0938
 21
-257.5748000000002
 31
0.0
  0
LINE
  5
DCB
330
1F91
100
AcDbEntity
  8
3 ... 2
370
    13
100
AcDbLine
 10
10072.8438
 20
117.0789721448653
 30
0.0
 11
10072.8438
 21
-96.29413027289324
 31
0.0
  0
LINE
  5
DCC
330
1F91
100
AcDbEntity
  8
3 ... 2
370
    13
100
AcDbLine
 10
10060.8438
 20
158.9942176117663
 30
0.0
 11
10060.8438
 21
-57.67013339964868
 31
0.0
  0
LINE
  5
DD1
330
1F91
100
AcDbEntity
  8
3 ... 1
370
    13
100
AcDbLine
 10
9025.0938
 20
138.2681526119143
 30
0.0
 11
9025.0938
 21
82.96619400729554
 31
0.0
  0
LINE
  5
DD2
330
1F91
100
AcDbEntity
  8
3 ... 1
370
    13
100
AcDbLine
 10
9037.0938
 20
129.828452666652
 30
0.0
 11
9037.0938
 21
71.73123483281086
 31
0.0
  0
LINE
  5
DD7
330
1F91
100
AcDbEntity
  8
3 ... 1
370
    13
100
AcDbLine
 10
9025.0938
 20
55.29516087940638
 30
0.0
 11
9025.0938
 21
-21.26750606482999
 31
0.0
  0
LINE
  5
DD8
330
1F91
100
AcDbEntity
  8
3 ... 1
370
    13
100
AcDbLine
 10
9037.0938
 20
41.78173424679505
 30
0.0
 11
9037.0938
 21
-56.25409327805319
 31
0.0
  0
LINE
  5
E05
330
1F91
100
AcDbEntity
  8
6
370
    13
100
AcDbLine
 10
9025.0938
 20
444.8420450476638
 30
0.0
 11
9025.0938
 21
562.4251999999999
 31
0.0
  0
LINE
  5
E08
330
1F91
100
AcDbEntity
  8
6
370
    13
100
AcDbLine
 10
9037.0938
 20
457.3564127654931
 30
0.0
 11
9037.0938
 21
537.4251999999998
 31
0.0
  0
LINE
  5
FB0
330
1F91
100
AcDbEntity
  8
2
370
    13
100
AcDbLine
 10
9025.0938
 20
-208.2280364820181
 30
0.0
 11
9037.0938
 21
-214.2049484548933
 31
0.0
  0
LINE
  5
FB1
330
1F91
100
AcDbEntity
  8
2
370
    13
100
AcDbLine
 10
9049.0938
 20
-208.2280364820179
 30
0.0
 11
9037.0938
 21
-214.2049484548932
 31
0.0
  0
LINE
  5
FB2
330
1F91
100
AcDbEntity
  8
2
370
    13
100
AcDbLine
 10
9049.0938
 20
-208.2280364820182
 30
0.0
 11
9148.168567188002
 21
-257.5748000000002
 31
0.0
  0
LINE
  5
FB3
330
1F91
100
AcDbEntity
  8
2
370
    13
100
AcDbLine
 10
9037.093799999999
 20
-244.1884599044704
 30
0.0
 11
9049.0938
 21
-229.817376335054
 31
0.0
  0
LINE
  5
FB4
330
1F91
100
AcDbEntity
  8
2
370
    13
100
AcDbLine
 10
9037.0938
 20
-244.1884599044704
 30
0.0
 11
9025.0938
 21
-229.817376335053
 31
0.0
  0
LINE
  5
FB5
330
1F91
100
AcDbEntity
  8
2
370
    13
100
AcDbLine
 10
9072.27152924849
 20
-257.5747999999998
 30
0.0
 11
9049.0938
 21
-229.817376335054
 31
0.0
  0
LINE
  5
FBB
330
1F91
100
AcDbEntity
  8
2
370
    13
100
AcDbLine
 10
9505.714999244834
 20
24.93964231475022
 30
0.0
 11
9741.217815404072
 21
-257.5748000000004
 31
0.0
  0
ARC
  5
FBC
330
1F91
100
AcDbEntity
  8
2
370
    13
100
AcDbCircle
 10
9503.986724366077
 20
23.49895985721082
 30
0.0
 40
2.25
100
AcDbArc
 50
39.81444061424938
 51
195.5416824500219
  0
LINE
  5
FBD
330
1F91
100
AcDbEntity
  8
2
370
    13
100
AcDbLine
 10
9579.820235739227
 20
-257.5747999999998
 30
0.0
 11
9501.81899385348
 21
22.89609633637895
 31
0.0
  0
LINE
  5
FC3
330
1F91
100
AcDbEntity
  8
2
370
    13
100
AcDbLine
 10
9976.47118947449
 20
-257.5748000000001
 30
0.0
 11
10017.10336916027
 21
11.68166151579248
 31
0.0
  0
ARC
  5
FC4
330
1F91
100
AcDbEntity
  8
2
370
    13
100
AcDbCircle
 10
10019.32817967008
 20
11.34592621015713
 30
0.0
 40
2.25
100
AcDbArc
 50
17.25937590758314
 51
171.4185225262329
1001
QCAD
1000
reversed:1
  0
LINE
  5
FC5
330
1F91
100
AcDbEntity
  8
2
370
    13
100
AcDbLine
 10
10021.47686533238
 20
12.0134963746916
 30
0.0
 11
10048.8438
 21
-76.07153687799068
 31
0.0
  0
LINE
  5
FC6
330
1F91
100
AcDbEntity
  8
2
370
    13
100
AcDbLine
 10
10060.8438
 20
-37.44754000474583
 30
0.0
 11
10048.8438
 21
-76.07153687798683
 31
0.0
  0
LINE
  5
FC7
330
1F91
100
AcDbEntity
  8
2
370
    13
100
AcDbLine
 10
10060.8438
 20
-37.4475400047484
 30
0.0
 11
10072.8438
 21
-76.0715368779866
 31
0.0
  0
LINE
  5
1025
330
1F91
100
AcDbEntity
  8
3 ... 2
370
    13
100
AcDbLine
 10
9049.0938
 20
-214.9310857271649
 30
0.0
 11
9134.710682697347
 21
-257.5747999999998
 31
0.0
  0
LINE
  5
11E7
330
1F91
100
AcDbEntity
  8
3 ... 2
370
    13
100
AcDbLine
 10
9049.0938
 20
-214.9310857271649
 30
0.0
 11
9037.093799999999
 21
-220.9079977000407
 31
0.0
  0
LINE
  5
11EB
330
1F91
100
AcDbEntity
  8
3 ... 2
370
    13
100
AcDbLine
 10
9025.093799999999
 20
-214.9310857271651
 30
0.0
 11
9037.0938
 21
-220.90799770004
 31
0.0
  0
LINE
  5
1029
330
1F91
100
AcDbEntity
  8
3 ... 2
370
    13
100
AcDbLine
 10
9080.088223403642
 20
-257.5747999999995
 30
0.0
 11
9049.0938
 21
-220.4561792566988
 31
0.0
  0
LINE
  5
11E6
330
1F91
100
AcDbEntity
  8
3 ... 2
370
    13
100
AcDbLine
 10
9037.0938
 20
-234.8272628261161
 30
0.0
 11
9049.0938
 21
-220.4561792566988
 31
0.0
  0
LINE
  5
11EA
330
1F91
100
AcDbEntity
  8
3 ... 2
370
    13
100
AcDbLine
 10
9037.0938
 20
-234.8272628261161
 30
0.0
 11
9025.0938
 21
-220.4561792566986
 31
0.0
  0
LINE
  5
1030
330
1F91
100
AcDbEntity
  8
3 ... 2
370
    13
100
AcDbLine
 10
9586.047947127494
 20
-257.5748000000003
 30
0.0
 11
9512.271977535687
 21
7.703185571152744
 31
0.0
  0
LINE
  5
1031
330
1F91
100
AcDbEntity
  8
3 ... 2
370
    13
100
AcDbLine
 10
9512.271977535689
 20
7.703185571153167
 30
0.0
 11
9733.406557966993
 21
-257.5747999999992
 31
0.0
  0
LINE
  5
1035
330
1F91
100
AcDbEntity
  8
3 ... 2
370
    13
100
AcDbLine
 10
9982.539121975027
 20
-257.5748000000002
 30
0.0
 11
10020.59703131971
 21
-5.377204840643117
 31
0.0
  0
LINE
  5
1037
330
1F91
100
AcDbEntity
  8
3 ... 2
370
    13
100
AcDbLine
 10
10020.59703131971
 20
-5.377204840643264
 30
0.0
 11
10048.8438
 21
-96.29413027289219
 31
0.0
  0
LINE
  5
11E1
330
1F91
100
AcDbEntity
  8
3 ... 2
370
    13
100
AcDbLine
 10
10060.8438
 20
-57.67013339964175
 30
0.0
 11
10048.8438
 21
-96.29413027289219
 31
0.0
  0
LINE
  5
11E2
330
1F91
100
AcDbEntity
  8
3 ... 2
370
    13
100
AcDbLine
 10
10060.8438
 20
-57.67013339964175
 30
0.0
 11
10072.8438
 21
-96.2941302728922
 31
0.0
  0
ARC
  5
1059
330
1F91
100
AcDbEntity
  8
4
370
    13
100
AcDbCircle
 10
9784.410377274757
 20
-1098.550684448471
 30
0.0
 40
846.7477596879444
100
AcDbArc
 50
89.34484512808935
 51
93.6807855182583
  0
LINE
  5
105A
330
1F91
100
AcDbEntity
  8
4
370
    13
100
AcDbLine
 10
9730.051162933065
 20
-253.5495931162129
 30
0.0
 11
9733.406557966991
 21
-257.5748000000001
 31
0.0
  0
ARC
  5
10AF
330
1F91
100
AcDbEntity
  8
7
370
    13
100
AcDbCircle
 10
9784.410377274757
 20
-1098.550684448471
 30
0.0
 40
846.7477596879444
100
AcDbArc
 50
83.3063025801087
 51
84.42807204846045
  0
ARC
  5
115C
330
1F91
100
AcDbEntity
  8
1
370
    13
100
AcDbCircle
 10
10760.298525
 20
-1184.017874999999
 30
0.0
 40
2289.0
100
AcDbArc
 50
132.1723669130513
 51
138.3809604489603
  0
ARC
  5
115E
330
1F91
100
AcDbEntity
  8
1
370
    13
100
AcDbCircle
 10
10760.298525
 20
-1184.017874999999
 30
0.0
 40
2368.5
100
AcDbArc
 50
134.2540933349605
 51
136.2599946957747
  0
ARC
  5
115F
330
1F91
100
AcDbEntity
  8
1
370
    13
100
AcDbCircle
 10
7337.889075
 20
-1184.017874999998
 30
0.0
 40
2368.5
100
AcDbArc
 50
43.74000530422525
 51
44.15827820767319
1001
QCAD
1000
reversed:1
  0
ARC
  5
1160
330
1F91
100
AcDbEntity
  8
1
370
    13
100
AcDbCircle
 10
10760.298525
 20
2208.868274999999
 30
0.0
 40
2368.5
100
AcDbArc
 50
224.8858719606525
 51
225.7459066650395
1001
QCAD
1000
reversed:1
  0
ARC
  5
1B5A
330
1F91
100
AcDbEntity
  8
1
370
    13
100
AcDbCircle
 10
10760.298525
 20
-1134.017874999999
 30
0.0
 40
2368.5
100
AcDbArc
 50
134.2540933349605
 51
135.1141280393476
  0
ARC
  5
1161
330
1F91
100
AcDbEntity
  8
1
370
    13
100
AcDbCircle
 10
10736.298525
 20
-1184.017874999999
 30
0.0
 40
2368.5
100
AcDbArc
 50
135.8417217923268
 51
136.2599946957747
  0
ARC
  5
1163
330
1F91
100
AcDbEntity
  8
1
370
    13
100
AcDbCircle
 10
10760.298525
 20
2208.868274999999
 30
0.0
 40
2289.0
100
AcDbArc
 50
226.903722996792
 51
227.8276330869487
1001
QCAD
1000
reversed:1
  0
ARC
  5
1B57
330
1F91
100
AcDbEntity
  8
1
370
    13
100
AcDbCircle
 10
10760.298525
 20
-1134.017874999999
 30
0.0
 40
2289.0
100
AcDbArc
 50
132.1723669130513
 51
133.0962770032081
  0
ARC
  5
1165
330
1F91
100
AcDbEntity
  8
1
370
    13
100
AcDbCircle
 10
7337.889075000001
 20
-1184.017874999998
 30
0.0
 40
2289.0
100
AcDbArc
 50
41.61903955103974
 51
42.0692999255903
1001
QCAD
1000
reversed:1
  0
ARC
  5
1167
330
1F91
100
AcDbEntity
  8
1
370
    13
100
AcDbCircle
 10
10736.298525
 20
-1184.017874999999
 30
0.0
 40
2289.0
100
AcDbArc
 50
137.9307000744097
 51
138.3809604489603
  0
ARC
  5
116F
330
1F91
100
AcDbEntity
  8
1
370
    13
100
AcDbCircle
 10
10760.299125
 20
-1184.017579485829
 30
0.0
 40
2153.999925
100
AcDbArc
 50
138.6982333905478
 51
142.4529402857725
  0
ARC
  5
13F4
330
1F91
100
AcDbEntity
  8
1
370
    13
100
AcDbCircle
 10
7337.888475000002
 20
-1184.017579485829
 30
0.0
 40
2153.999925
100
AcDbArc
 50
37.54705971422744
 51
37.92085514359712
1001
QCAD
1000
reversed:1
  0
ARC
  5
13F5
330
1F91
100
AcDbEntity
  8
1
370
    13
100
AcDbCircle
 10
10736.299125
 20
-1184.017579485829
 30
0.0
 40
2153.999925
100
AcDbArc
 50
142.0791448564029
 51
142.4529402857725
  0
ARC
  5
1173
330
1F91
100
AcDbEntity
  8
1
370
    13
100
AcDbCircle
 10
10760.29905
 20
-1184.017649999995
 30
0.0
 40
2098.499850000001
100
AcDbArc
 50
140.5519101003297
 51
142.549158493565
1001
QCAD
1000
reversed:1
  0
ARC
  5
1176
330
1F91
100
AcDbEntity
  8
1
370
    13
100
AcDbCircle
 10
10760.29919999998
 20
-1184.017718579861
 30
0.0
 40
2019.0
100
AcDbArc
 50
142.0091705998735
 51
143.3035228649675
  0
ARC
  5
1177
330
1F91
100
AcDbEntity
  8
1
370
    13
100
AcDbCircle
 10
10760.2992
 20
-1184.017950000001
 30
0.0
 40
1963.5
100
AcDbArc
 50
142.5327761387107
 51
144.4579288451069
1001
QCAD
1000
reversed:1
  0
LINE
  5
117C
330
1F91
100
AcDbEntity
  8
1
370
    13
100
AcDbLine
 10
9144.672057939433
 20
-214.8920330261562
 30
0.0
 11
9140.111480097075
 21
-212.6653145663863
 31
0.0
  0
ARC
  5
117D
330
1F91
100
AcDbEntity
  8
1
370
    13
100
AcDbCircle
 10
10760.299125
 20
-1184.017874551664
 30
0.0
 40
1828.499925
100
AcDbArc
 50
142.3786393088606
 51
148.892651419159
1001
QCAD
1000
reversed:1
  0
ARC
  5
117F
330
1F91
100
AcDbEntity
  8
1
370
    13
100
AcDbCircle
 10
10760.29919999999
 20
-1184.01779999984
 30
0.0
 40
1749.0
100
AcDbArc
 50
141.1024874781744
 51
148.0149015540086
  0
LINE
  5
1180
330
1F91
100
AcDbEntity
  8
1
370
    13
100
AcDbLine
 10
9232.09131853674
 20
-257.5748000000006
 30
0.0
 11
9194.735974159732
 21
-239.3359193645737
 31
0.0
  0
ARC
  5
1182
330
1F91
100
AcDbEntity
  8
1
370
    13
100
AcDbCircle
 10
10760.29852499999
 20
-1184.017424999998
 30
0.0
 40
1693.5
100
AcDbArc
 50
139.1871759454776
 51
146.8345913097783
1001
QCAD
1000
reversed:1
  0
ARC
  5
1184
330
1F91
100
AcDbEntity
  8
1
370
    13
100
AcDbCircle
 10
10760.29919999999
 20
-1184.017717915973
 30
0.0
 40
1614.0
100
AcDbArc
 50
140.5670330405057
 51
144.9700684679581
  0
LINE
  5
1185
330
1F91
100
AcDbEntity
  8
1
370
    13
100
AcDbLine
 10
9488.817330567907
 20
-74.27744163488124
 30
0.0
 11
9513.696871775037
 21
-158.8452274227265
 31
0.0
  0
ARC
  5
1187
330
1F91
100
AcDbEntity
  8
1
370
    13
100
AcDbCircle
 10
10760.29919999999
 20
-1184.017725
 30
0.0
 40
1558.5
100
AcDbArc
 50
141.9639786408301
 51
143.5269045413849
1001
QCAD
1000
reversed:1
  0
LINE
  5
1188
330
1F91
100
AcDbEntity
  8
1
370
    13
100
AcDbLine
 10
9532.787917779058
 20
-223.7374002925091
 30
0.0
 11
9542.742760187686
 21
-257.5748
 31
0.0
  0
ARC
  5
11A8
330
1F91
100
AcDbEntity
  8
3 ... 1
370
    13
100
AcDbCircle
 10
8894.916728175758
 20
-93.69970669248528
 30
0.0
 40
278.5312500000014
100
AcDbArc
 50
0.0
 51
56.39006334861144
  0
ARC
  5
11BA
330
1F91
100
AcDbEntity
  8
3 ... 1
370
    13
100
AcDbCircle
 10
9203.270871824243
 20
-93.69970669248525
 30
0.0
 40
278.5312500000014
100
AcDbArc
 50
123.6099366513886
 51
126.6281424170472
1001
QCAD
1000
reversed:1
  0
ARC
  5
11BC
330
1F91
100
AcDbEntity
  8
3 ... 1
370
    13
100
AcDbCircle
 10
8870.916728175758
 20
-93.69970669248522
 30
0.0
 40
278.5312500000014
100
AcDbArc
 50
53.37185758295283
 51
56.39006334861143
  0
ARC
  5
11A9
330
1F91
100
AcDbEntity
  8
3 ... 1
370
    13
100
AcDbCircle
 10
8894.94368399709
 20
-93.70677071241403
 30
0.0
 40
234.4687500000004
100
AcDbArc
 50
334.1395960752058
 51
48.89475820825344
  0
ARC
  5
11B9
330
1F91
100
AcDbEntity
  8
3 ... 1
370
    13
100
AcDbCircle
 10
9203.243916002912
 20
-93.70677071241406
 30
0.0
 40
234.4687500000004
100
AcDbArc
 50
131.1052417917466
 51
135.123046811377
1001
QCAD
1000
reversed:1
  0
ARC
  5
11BB
330
1F91
100
AcDbEntity
  8
3 ... 1
370
    13
100
AcDbCircle
 10
8870.94368399709
 20
-93.706770712414
 30
0.0
 40
234.4687500000004
100
AcDbArc
 50
44.87695318862291
 51
48.89475820825341
  0
ARC
  5
11AA
330
1F91
100
AcDbEntity
  8
3 ... 1
370
    13
100
AcDbCircle
 10
8894.916728175758
 20
-93.69970669248528
 30
0.0
 40
278.5312500000014
100
AcDbArc
 50
334.1148255836014
 51
0.0
  0
LINE
  5
11AB
330
1F91
100
AcDbEntity
  8
3 ... 1
370
    13
100
AcDbLine
 10
9087.879598681382
 20
-187.1629114593507
 30
0.0
 11
9049.0938
 21
-168.2256063883578
 31
0.0
  0
LINE
  5
11AF
330
1F91
100
AcDbEntity
  8
3 ... 1
370
    13
100
AcDbLine
 10
9037.0938
 20
-174.0846493519618
 30
0.0
 11
9049.0938
 21
-168.2256063883578
 31
0.0
  0
LINE
  5
11B0
330
1F91
100
AcDbEntity
  8
3 ... 1
370
    13
100
AcDbLine
 10
9037.0938
 20
-174.0846493519618
 30
0.0
 11
9025.0938
 21
-168.2256063883577
 31
0.0
  0
ARC
  5
11AC
330
1F91
100
AcDbEntity
  8
3 ... 1
370
    13
100
AcDbCircle
 10
8894.916728175758
 20
-93.69970669248528
 30
0.0
 40
214.4062500000014
100
AcDbArc
 50
334.1563785968527
 51
0.0
  0
ARC
  5
11AD
330
1F91
100
AcDbEntity
  8
3 ... 1
370
    13
100
AcDbCircle
 10
8894.916728175758
 20
-93.69970669248528
 30
0.0
 40
170.34375
100
AcDbArc
 50
334.8359191713501
 51
25.16408082864998
  0
ARC
  5
11B1
330
1F91
100
AcDbEntity
  8
3 ... 1
370
    13
100
AcDbCircle
 10
9203.270871824243
 20
-93.69970669248531
 30
0.0
 40
170.34375
100
AcDbArc
 50
192.698685163794
 51
205.1640808286499
1001
QCAD
1000
reversed:1
  0
ARC
  5
11B2
330
1F91
100
AcDbEntity
  8
3 ... 1
370
    13
100
AcDbCircle
 10
8870.916728175762
 20
-93.69970669247104
 30
0.0
 40
170.34375
100
AcDbArc
 50
334.8359191713453
 51
347.3013148362011
  0
ARC
  5
11B6
330
1F91
100
AcDbEntity
  8
3 ... 1
370
    13
100
AcDbCircle
 10
9203.270871824243
 20
-93.69970669248524
 30
0.0
 40
170.34375
100
AcDbArc
 50
154.8359191713507
 51
167.3013148362063
1001
QCAD
1000
reversed:1
  0
ARC
  5
11B7
330
1F91
100
AcDbEntity
  8
3 ... 1
370
    13
100
AcDbCircle
 10
8870.916728175758
 20
-93.69970669248531
 30
0.0
 40
170.34375
100
AcDbArc
 50
12.69868516379363
 51
25.16408082864935
  0
ARC
  5
11AE
330
1F91
100
AcDbEntity
  8
3 ... 1
370
    13
100
AcDbCircle
 10
8894.916728175758
 20
-93.69970669248528
 30
0.0
 40
214.4062500000014
100
AcDbArc
 50
0.0
 51
44.02072230041841
  0
ARC
  5
11B4
330
1F91
100
AcDbEntity
  8
3 ... 1
370
    13
100
AcDbCircle
 10
9203.270871824243
 20
-93.69970669248522
 30
0.0
 40
214.4062500000014
100
AcDbArc
 50
135.9792776995815
 51
140.8102036016122
1001
QCAD
1000
reversed:1
  0
ARC
  5
11B5
330
1F91
100
AcDbEntity
  8
3 ... 1
370
    13
100
AcDbCircle
 10
8870.916728175758
 20
-93.6997066924852
 30
0.0
 40
214.4062500000014
100
AcDbArc
 50
39.18979639838778
 51
44.02072230041841
  0
LINE
  5
11B3
330
1F91
100
AcDbEntity
  8
3 ... 1
370
    13
100
AcDbLine
 10
9025.0938
 20
-168.2256063883573
 30
0.0
 11
9025.0938
 21
-166.1319073201344
 31
0.0
  0
LINE
  5
11B8
330
1F91
100
AcDbEntity
  8
3 ... 1
370
    13
100
AcDbLine
 10
9145.503153333391
 20
-215.2978183278271
 30
0.0
 11
9105.932599706586
 21
-195.9773538450725
 31
0.0
  0
LINE
  5
11D9
330
1F91
100
AcDbEntity
  8
3 ... 2
370
    13
100
AcDbLine
 10
9394.633345126922
 20
224.6035358170696
 30
0.0
 11
9536.48849319999
 21
-257.5748000000001
 31
0.0
  0
LINE
  5
11DA
330
1F91
100
AcDbEntity
  8
3 ... 2
370
    13
100
AcDbLine
 10
9798.884750699384
 20
-257.5748000000007
 30
0.0
 11
9394.633345126924
 21
224.6035358170703
 31
0.0
  0
LINE
  5
11DB
330
1F91
100
AcDbEntity
  8
3 ... 2
370
    13
100
AcDbLine
 10
10003.94076316579
 20
273.9224564044268
 30
0.0
 11
9932.964444749929
 21
-257.5747999999999
 31
0.0
  0
LINE
  5
11DC
330
1F91
100
AcDbEntity
  8
3 ... 2
370
    13
100
AcDbLine
 10
10048.8438
 20
117.0789721448588
 30
0.0
 11
10003.94076316579
 21
273.9224564044266
 31
0.0
  0
LINE
  5
11DD
330
1F91
100
AcDbEntity
  8
3 ... 2
370
    13
100
AcDbLine
 10
10048.8438
 20
117.0789721448588
 30
0.0
 11
10060.8438
 21
158.9942176117592
 31
0.0
  0
LINE
  5
11DE
330
1F91
100
AcDbEntity
  8
3 ... 2
370
    13
100
AcDbLine
 10
10072.8438
 20
117.0789721448653
 30
0.0
 11
10060.8438
 21
158.9942176117582
 31
0.0
  0
LINE
  5
11E4
330
1F91
100
AcDbEntity
  8
3 ... 2
370
    13
100
AcDbLine
 10
9245.766553762513
 20
-257.5747999999999
 30
0.0
 11
9049.0938
 21
-161.5486238279241
 31
0.0
  0
LINE
  5
11E5
330
1F91
100
AcDbEntity
  8
3 ... 2
370
    13
100
AcDbLine
 10
9037.093800000004
 20
-167.4076667915271
 30
0.0
 11
9049.0938
 21
-161.5486238279241
 31
0.0
  0
LINE
  5
11E9
330
1F91
100
AcDbEntity
  8
3 ... 2
370
    13
100
AcDbLine
 10
9037.0938
 20
-167.4076667915282
 30
0.0
 11
9025.0938
 21
-161.5486238279243
 31
0.0
  0
LINE
  5
11FA
330
1F91
100
AcDbEntity
  8
4
370
    13
100
AcDbLine
 10
9798.885036914888
 20
-257.5748000000001
 30
0.0
 11
9794.092396366874
 21
-251.8582804180268
 31
0.0
  0
ARC
  5
1374
330
1F91
100
AcDbEntity
  8
7
370
    13
100
AcDbCircle
 10
10760.298525
 20
-1184.017567499998
 30
0.0
 40
1288.5
100
AcDbArc
 50
133.9138674320203
 51
134.0272989088144
1001
QCAD
1000
reversed:1
  0
ARC
  5
137F
330
1F91
100
AcDbEntity
  8
6
370
    13
100
AcDbCircle
 10
10760.298525
 20
-1184.017874999999
 30
0.0
 40
2362.5
100
AcDbArc
 50
134.1045408191064
 51
136.4122643616825
  0
ARC
  5
1380
330
1F91
100
AcDbEntity
  8
6
370
    13
100
AcDbCircle
 10
7337.889075000001
 20
-1184.017875
 30
0.0
 40
2362.5
100
AcDbArc
 50
43.58773563831753
 51
44.00822311692063
1001
QCAD
1000
reversed:1
  0
ARC
  5
1381
330
1F91
100
AcDbEntity
  8
6
370
    13
100
AcDbCircle
 10
10736.298525
 20
-1184.017875
 30
0.0
 40
2362.5
100
AcDbArc
 50
135.9917768830794
 51
136.4122643616824
  0
ARC
  5
1382
330
1F91
100
AcDbEntity
  8
6
370
    13
100
AcDbCircle
 10
10760.298525
 20
2208.868275
 30
0.0
 40
2362.5
100
AcDbArc
 50
225.0309897053686
 51
225.8954591808937
1001
QCAD
1000
reversed:1
  0
ARC
  5
1B74
330
1F91
100
AcDbEntity
  8
6
370
    13
100
AcDbCircle
 10
10760.298525
 20
-1134.017875
 30
0.0
 40
2362.5
100
AcDbArc
 50
134.1045408191063
 51
134.9690102946314
  0
ARC
  5
1384
330
1F91
100
AcDbEntity
  8
6
370
    13
100
AcDbCircle
 10
10760.298525
 20
-1184.017874999999
 30
0.0
 40
2295.0
100
AcDbArc
 50
132.3374632981543
 51
138.2126356013144
  0
ARC
  5
1387
330
1F91
100
AcDbEntity
  8
6
370
    13
100
AcDbCircle
 10
10760.298525
 20
2208.868274999998
 30
0.0
 40
2295.0
100
AcDbArc
 50
226.7438681001402
 51
227.6625367018457
1001
QCAD
1000
reversed:1
  0
ARC
  5
1B70
330
1F91
100
AcDbEntity
  8
6
370
    13
100
AcDbCircle
 10
10760.298525
 20
-1134.017874999998
 30
0.0
 40
2295.0
100
AcDbArc
 50
132.3374632981543
 51
133.2561318998598
  0
ARC
  5
143D
330
1F91
100
AcDbEntity
  8
6
370
    13
100
AcDbCircle
 10
7337.889075
 20
-1184.017874999998
 30
0.0
 40
2295.0
100
AcDbArc
 50
41.78736439868557
 51
42.23499246909785
1001
QCAD
1000
reversed:1
  0
ARC
  5
143E
330
1F91
100
AcDbEntity
  8
6
370
    13
100
AcDbCircle
 10
10736.298525
 20
-1184.017874999998
 30
0.0
 40
2295.0
100
AcDbArc
 50
137.7650075309022
 51
138.2126356013144
  0
ARC
  5
1385
330
1F91
100
AcDbEntity
  8
6
370
    13
100
AcDbCircle
 10
10760.2992
 20
-1184.017852938889
 30
0.0
 40
2227.5
100
AcDbArc
 50
130.3953773071186
 51
140.1941275535131
1001
QCAD
1000
reversed:1
  0
ARC
  5
1386
330
1F91
100
AcDbEntity
  8
6
370
    13
100
AcDbCircle
 10
10760.2992
 20
2208.868252938889
 30
0.0
 40
2227.5
100
AcDbArc
 50
228.6222003762424
 51
229.6046226928814
  0
ARC
  5
1B6D
330
1F91
100
AcDbEntity
  8
6
370
    13
100
AcDbCircle
 10
10760.2992
 20
-1134.017852938889
 30
0.0
 40
2227.5
100
AcDbArc
 50
130.3953773071186
 51
131.3777996237576
1001
QCAD
1000
reversed:1
  0
ARC
  5
143C
330
1F91
100
AcDbEntity
  8
6
370
    13
100
AcDbCircle
 10
7337.888400000001
 20
-1184.017852938889
 30
0.0
 40
2227.5
100
AcDbArc
 50
39.80587244648684
 51
40.28561369375638
  0
ARC
  5
143F
330
1F91
100
AcDbEntity
  8
6
370
    13
100
AcDbCircle
 10
10736.2992
 20
-1184.01785293889
 30
0.0
 40
2227.5
100
AcDbArc
 50
139.7143863062436
 51
140.1941275535131
1001
QCAD
1000
reversed:1
  0
LINE
  5
13D1
330
1F91
100
AcDbEntity
  8
6
370
    13
100
AcDbLine
 10
9037.0938
 20
80.13039067370015
 30
0.0
 11
9037.0938
 21
32.07129886516998
 31
0.0
  0
LINE
  5
13DB
330
1F91
100
AcDbEntity
  8
6
370
    13
100
AcDbLine
 10
9025.0938
 20
-8.104445797015273
 30
0.0
 11
9025.0938
 21
-168.2256063883594
 31
0.0
  0
LINE
  5
13DC
330
1F91
100
AcDbEntity
  8
6
370
    13
100
AcDbLine
 10
9037.0938
 20
-152.7107138350674
 30
0.0
 11
9037.0938
 21
-34.68869954990316
 31
0.0
  0
LINE
  5
13E1
330
1F91
100
AcDbEntity
  8
6
370
    13
100
AcDbLine
 10
9025.0938
 20
131.0283795590237
 30
0.0
 11
9025.0938
 21
134.078020875409
 31
0.0
  0
LINE
  5
13E2
330
1F91
100
AcDbEntity
  8
6
370
    13
100
AcDbLine
 10
9037.0938
 20
122.3059946824644
 30
0.0
 11
9037.0938
 21
149.5119250590283
 31
0.0
  0
ARC
  5
13EC
330
1F91
100
AcDbEntity
  8
1
370
    13
100
AcDbCircle
 10
10760.299125
 20
-1184.017579485829
 30
0.0
 40
2153.999925
100
AcDbArc
 50
128.0402630730847
 51
130.4560357663373
  0
ARC
  5
13F7
330
1F91
100
AcDbEntity
  8
1
370
    13
100
AcDbCircle
 10
10760.299125
 20
2208.867979485829
 30
0.0
 40
2153.999925
100
AcDbArc
 50
230.8932048822764
 51
231.9597369269154
1001
QCAD
1000
reversed:1
  0
ARC
  5
1B60
330
1F91
100
AcDbEntity
  8
1
370
    13
100
AcDbCircle
 10
10760.299125
 20
-1134.017579485829
 30
0.0
 40
2153.999925
100
AcDbArc
 50
128.0402630730846
 51
129.1067951177235
  0
ARC
  5
13EE
330
1F91
100
AcDbEntity
  8
1
370
    13
100
AcDbCircle
 10
10760.2992
 20
-1184.017852938889
 30
0.0
 40
2233.5
100
AcDbArc
 50
130.5759252888204
 51
140.009784102424
1001
QCAD
1000
reversed:1
  0
ARC
  5
13EF
330
1F91
100
AcDbEntity
  8
1
370
    13
100
AcDbCircle
 10
7337.888400000001
 20
-1184.017852938888
 30
0.0
 40
2233.5
100
AcDbArc
 50
39.99021589757604
 51
40.46686145108118
  0
ARC
  5
13F0
330
1F91
100
AcDbEntity
  8
1
370
    13
100
AcDbCircle
 10
10736.2992
 20
-1184.017852938889
 30
0.0
 40
2233.5
100
AcDbArc
 50
139.5331385489188
 51
140.009784102424
1001
QCAD
1000
reversed:1
  0
ARC
  5
13F8
330
1F91
100
AcDbEntity
  8
1
370
    13
100
AcDbCircle
 10
10760.2992
 20
2208.868252938889
 30
0.0
 40
2233.5
100
AcDbArc
 50
228.4477799450194
 51
229.4240747111796
  0
ARC
  5
1B5D
330
1F91
100
AcDbEntity
  8
1
370
    13
100
AcDbCircle
 10
10760.2992
 20
-1134.017852938889
 30
0.0
 40
2233.5
100
AcDbArc
 50
130.5759252888204
 51
131.5522200549806
1001
QCAD
1000
reversed:1
  0
ARC
  5
13F2
330
1F91
100
AcDbEntity
  8
1
370
    13
100
AcDbCircle
 10
8894.916728175758
 20
-93.69970669248528
 30
0.0
 40
272.5312500000014
100
AcDbArc
 50
54.67612065424923
 51
55.54751895342471
  0
ARC
  5
13F3
330
1F91
100
AcDbEntity
  8
1
370
    13
100
AcDbCircle
 10
9203.270871824243
 20
-93.6997066924852
 30
0.0
 40
272.5312500000014
100
AcDbArc
 50
124.4524810465752
 51
125.3238793457508
1001
QCAD
1000
reversed:1
  0
ARC
  5
13F6
330
1F91
100
AcDbEntity
  8
1
370
    13
100
AcDbCircle
 10
8870.916728175758
 20
-93.69970669248514
 30
0.0
 40
272.5312500000014
100
AcDbArc
 50
54.67612065424923
 51
55.54751895342471
  0
ARC
  5
13FB
330
1F91
100
AcDbEntity
  8
1
370
    13
100
AcDbCircle
 10
10760.29905
 20
-1184.017649999995
 30
0.0
 40
2098.499850000001
100
AcDbArc
 50
126.0593773715051
 51
128.6023529274689
1001
QCAD
1000
reversed:1
  0
ARC
  5
13FE
330
1F91
100
AcDbEntity
  8
1
370
    13
100
AcDbCircle
 10
10760.29905
 20
2208.868049999995
 30
0.0
 40
2098.499850000001
100
AcDbArc
 50
232.7966103251889
 51
233.9406226284949
  0
ARC
  5
1B59
330
1F91
100
AcDbEntity
  8
1
370
    13
100
AcDbCircle
 10
10760.29905
 20
-1134.017649999995
 30
0.0
 40
2098.499850000001
100
AcDbArc
 50
126.0593773715051
 51
127.2033896748111
1001
QCAD
1000
reversed:1
  0
ARC
  5
13FD
330
1F91
100
AcDbEntity
  8
1
370
    13
100
AcDbCircle
 10
10760.29919999998
 20
-1184.017718579861
 30
0.0
 40
2019.0
100
AcDbArc
 50
122.8346141974584
 51
127.1450959245116
  0
ARC
  5
13FF
330
1F91
100
AcDbEntity
  8
1
370
    13
100
AcDbCircle
 10
10760.29919999998
 20
2208.868118579861
 30
0.0
 40
2019.0
100
AcDbArc
 50
235.8792068810431
 51
237.1653858025416
1001
QCAD
1000
reversed:1
  0
ARC
  5
1B5F
330
1F91
100
AcDbEntity
  8
1
370
    13
100
AcDbCircle
 10
10760.29919999998
 20
-1134.017718579861
 30
0.0
 40
2019.0
100
AcDbArc
 50
122.8346141974584
 51
124.1207931189569
  0
ARC
  5
1403
330
1F91
100
AcDbEntity
  8
1
370
    13
100
AcDbCircle
 10
10760.2992
 20
-1184.017950000001
 30
0.0
 40
1963.5
100
AcDbArc
 50
120.2324946184016
 51
126.6214807123556
1001
QCAD
1000
reversed:1
  0
ARC
  5
1406
330
1F91
100
AcDbEntity
  8
1
370
    13
100
AcDbCircle
 10
10760.2992
 20
2208.868350000001
 30
0.0
 40
1963.5
100
AcDbArc
 50
238.3486536558206
 51
239.7675053815983
  0
ARC
  5
1B5E
330
1F91
100
AcDbEntity
  8
1
370
    13
100
AcDbCircle
 10
10760.2992
 20
-1134.017950000001
 30
0.0
 40
1963.5
100
AcDbArc
 50
120.2324946184017
 51
121.6513463441795
1001
QCAD
1000
reversed:1
  0
ARC
  5
1404
330
1F91
100
AcDbEntity
  8
1
370
    13
100
AcDbCircle
 10
10760.299125
 20
-1184.01787499988
 30
0.0
 40
1883.999925
100
AcDbArc
 50
119.3677917286813
 51
126.4584566659467
  0
ARC
  5
1409
330
1F91
100
AcDbEntity
  8
1
370
    13
100
AcDbCircle
 10
10760.299125
 20
-1184.017874551664
 30
0.0
 40
1828.499925
100
AcDbArc
 50
123.5011604236694
 51
126.7756175143256
1001
QCAD
1000
reversed:1
  0
ARC
  5
140C
330
1F91
100
AcDbEntity
  8
1
370
    13
100
AcDbCircle
 10
10760.29919999999
 20
-1184.01779999984
 30
0.0
 40
1749.0
100
AcDbArc
 50
125.9361252424669
 51
128.0517756428706
  0
ARC
  5
140E
330
1F91
100
AcDbEntity
  8
1
370
    13
100
AcDbCircle
 10
10760.29852499999
 20
-1184.017424999998
 30
0.0
 40
1693.5
100
AcDbArc
 50
126.885536608183
 51
129.9670742160292
1001
QCAD
1000
reversed:1
  0
ARC
  5
1410
330
1F91
100
AcDbEntity
  8
1
370
    13
100
AcDbCircle
 10
10760.29919999999
 20
-1184.017717915973
 30
0.0
 40
1614.0
100
AcDbArc
 50
127.5119226296128
 51
135.2207458807977
  0
LINE
  5
1411
330
1F91
100
AcDbEntity
  8
1
370
    13
100
AcDbLine
 10
9614.640315644643
 20
-47.15285316833729
 30
0.0
 11
9590.07286249346
 21
-17.8495693394878
 31
0.0
  0
LINE
  5
1412
330
1F91
100
AcDbEntity
  8
1
370
    13
100
AcDbLine
 10
9701.771430746332
 20
-151.0801011592841
 30
0.0
 11
9650.452495546968
 21
-89.86849266705804
 31
0.0
  0
ARC
  5
1413
330
1F91
100
AcDbEntity
  8
1
370
    13
100
AcDbCircle
 10
10760.29919999999
 20
-1184.017725
 30
0.0
 40
1558.5
100
AcDbArc
 50
127.4647938211097
 51
135.4080695790163
1001
QCAD
1000
reversed:1
  0
ARC
  5
1414
330
1F91
100
AcDbEntity
  8
1
370
    13
100
AcDbCircle
 10
10760.29919999999
 20
-1184.017641245263
 30
0.0
 40
1479.0
100
AcDbArc
 50
126.5819593356473
 51
135.7010104159372
  0
ARC
  5
1416
330
1F91
100
AcDbEntity
  8
1
370
    13
100
AcDbCircle
 10
10760.2992
 20
-1184.017894428373
 30
0.0
 40
1423.5
100
AcDbArc
 50
125.1423565321183
 51
135.9250037130219
1001
QCAD
1000
reversed:1
  0
LINE
  5
1417
330
1F91
100
AcDbEntity
  8
1
370
    13
100
AcDbLine
 10
9788.983360264567
 20
-255.1037420392682
 30
0.0
 11
9737.614203597219
 21
-193.8322309628559
 31
0.0
  0
ARC
  5
1418
330
1F91
100
AcDbEntity
  8
1
370
    13
100
AcDbCircle
 10
10760.29919999998
 20
-1184.017914328125
 30
0.0
 40
1344.0
100
AcDbArc
 50
126.5755148050396
 51
136.278283932985
  0
LINE
  5
1419
330
1F91
100
AcDbEntity
  8
1
370
    13
100
AcDbLine
 10
9970.009767231422
 20
-25.49464793159578
 30
0.0
 11
9959.434143218497
 21
-104.6888816293869
 31
0.0
  0
ARC
  5
141B
330
1F91
100
AcDbEntity
  8
1
370
    13
100
AcDbCircle
 10
10760.298525
 20
-1184.017567499998
 30
0.0
 40
1288.5
100
AcDbArc
 50
129.025541064853
 51
134.0272989088144
1001
QCAD
1000
reversed:1
  0
LINE
  5
141C
330
1F91
100
AcDbEntity
  8
1
370
    13
100
AcDbLine
 10
9948.972903094844
 20
-183.0265659219567
 30
0.0
 11
9939.017707399089
 21
-257.5748000000001
 31
0.0
  0
ARC
  5
141E
330
1F91
100
AcDbEntity
  8
1
370
    13
100
AcDbCircle
 10
8894.916728175758
 20
-93.69970669248528
 30
0.0
 40
272.5312500000014
100
AcDbArc
 50
25.23473254465156
 51
42.96352714488636
  0
ARC
  5
1420
330
1F91
100
AcDbEntity
  8
1
370
    13
100
AcDbCircle
 10
10760.299125
 20
-1184.01787499988
 30
0.0
 40
1883.999925
100
AcDbArc
 50
142.6958001385042
 51
149.0427733240035
  0
ARC
  5
1421
330
1F91
100
AcDbEntity
  8
1
370
    13
100
AcDbCircle
 10
8894.916728175758
 20
-93.69970669248528
 30
0.0
 40
272.5312500000014
100
AcDbArc
 50
334.1178843558125
 51
10.79961417994952
  0
LINE
  5
1440
330
1F91
100
AcDbEntity
  8
6
370
    13
100
AcDbLine
 10
9025.093800000002
 20
345.2968045665302
 30
0.0
 11
9025.0938
 21
242.0018976293986
 31
0.0
  0
LINE
  5
1441
330
1F91
100
AcDbEntity
  8
6
370
    13
100
AcDbLine
 10
9037.0938
 20
256.2797755431004
 30
0.0
 11
9037.0938
 21
358.6189268874944
 31
0.0
  0
ARC
  5
1567
330
1F91
100
AcDbEntity
  8
3 ... 1
100
AcDbCircle
 10
9409.813102081003
 20
186.5512648139133
 30
0.0
 40
278.53125
100
AcDbArc
 50
0.0
 51
180.0
  0
ARC
  5
17D8
330
1F91
100
AcDbEntity
  8
3 ... 1
100
AcDbCircle
 10
10006.08345
 20
244.6386000000026
 30
0.0
 40
278.53125
100
AcDbArc
 50
105.9662490184531
 51
262.3937041377603
  0
ARC
  5
190B
330
1F91
100
AcDbEntity
  8
3 ... 1
100
AcDbCircle
 10
10006.08345
 20
780.2117999999972
 30
0.0
 40
278.53125
100
AcDbArc
 50
240.6529796534511
 51
254.0337509815469
1001
QCAD
1000
reversed:1
  0
ARC
  5
1B65
330
1F91
100
AcDbEntity
  8
3 ... 1
100
AcDbCircle
 10
10006.08345
 20
294.6386000000026
 30
0.0
 40
278.53125
100
AcDbArc
 50
105.9662490184531
 51
119.3470203465489
  0
ARC
  5
1568
330
1F91
100
AcDbEntity
  8
3 ... 1
100
AcDbCircle
 10
9409.813102081003
 20
186.5512648139133
 30
0.0
 40
278.53125
100
AcDbArc
 50
180.0
 51
286.8415423900839
  0
ARC
  5
1569
330
1F91
100
AcDbEntity
  8
3 ... 1
100
AcDbCircle
 10
9409.813102081003
 20
186.5512648139133
 30
0.0
 40
278.53125
100
AcDbArc
 50
311.3779877509632
 51
0.0
  0
ARC
  5
156A
330
1F91
100
AcDbEntity
  8
3 ... 1
100
AcDbCircle
 10
9409.813102081003
 20
186.5512648139136
 30
0.0
 40
234.46875
100
AcDbArc
 50
311.6415270037171
 51
0.0
  0
ARC
  5
156B
330
1F91
100
AcDbEntity
  8
3 ... 1
100
AcDbCircle
 10
9409.813102081003
 20
186.5512648139136
 30
0.0
 40
234.46875
100
AcDbArc
 50
0.0
 51
180.0
  0
ARC
  5
17D9
330
1F91
100
AcDbEntity
  8
3 ... 1
100
AcDbCircle
 10
10006.08345
 20
244.638600000003
 30
0.0
 40
234.46875
100
AcDbArc
 50
79.49209326507689
 51
262.3937041377604
  0
ARC
  5
1910
330
1F91
100
AcDbEntity
  8
3 ... 1
100
AcDbCircle
 10
10091.60415
 20
244.638600000003
 30
0.0
 40
234.46875
100
AcDbArc
 50
97.53846055486265
 51
100.5079067349231
1001
QCAD
1000
reversed:1
  0
ARC
  5
1911
330
1F91
100
AcDbEntity
  8
3 ... 1
100
AcDbCircle
 10
10030.08345
 20
244.638600000003
 30
0.0
 40
234.46875
100
AcDbArc
 50
79.49209326507687
 51
82.46153944513738
  0
ARC
  5
156C
330
1F91
100
AcDbEntity
  8
3 ... 1
100
AcDbCircle
 10
9409.813102081003
 20
186.5512648139136
 30
0.0
 40
234.46875
100
AcDbArc
 50
180.0
 51
286.9257062397069
  0
ARC
  5
156D
330
1F91
100
AcDbEntity
  8
3 ... 1
100
AcDbCircle
 10
9409.813102081003
 20
186.5512648139136
 30
0.0
 40
214.40625
100
AcDbArc
 50
180.0
 51
286.9754894165032
  0
ARC
  5
156E
330
1F91
100
AcDbEntity
  8
3 ... 1
100
AcDbCircle
 10
9409.813102081003
 20
186.5512648139136
 30
0.0
 40
214.40625
100
AcDbArc
 50
0.0
 51
180.0
  0
ARC
  5
17DA
330
1F91
100
AcDbEntity
  8
3 ... 1
100
AcDbCircle
 10
10006.08345
 20
244.638600000003
 30
0.0
 40
214.40625
100
AcDbArc
 50
78.49601335448125
 51
262.3937041377604
  0
ARC
  5
1917
330
1F91
100
AcDbEntity
  8
3 ... 1
100
AcDbCircle
 10
10091.60415
 20
244.638600000003
 30
0.0
 40
214.40625
100
AcDbArc
 50
98.24855132631036
 51
101.5039866455187
1001
QCAD
1000
reversed:1
  0
ARC
  5
1918
330
1F91
100
AcDbEntity
  8
3 ... 1
100
AcDbCircle
 10
10030.08345000002
 20
244.638600000001
 30
0.0
 40
214.40625
100
AcDbArc
 50
78.49601335448509
 51
81.7514486736934
  0
ARC
  5
156F
330
1F91
100
AcDbEntity
  8
3 ... 1
100
AcDbCircle
 10
9409.813102081003
 20
186.5512648139136
 30
0.0
 40
214.40625
100
AcDbArc
 50
311.7974258636905
 51
0.0
  0
ARC
  5
1570
330
1F91
100
AcDbEntity
  8
3 ... 1
100
AcDbCircle
 10
9409.813102081005
 20
186.5512648139133
 30
0.0
 40
170.34375
100
AcDbArc
 50
180.0
 51
287.1259884144583
  0
ARC
  5
1571
330
1F91
100
AcDbEntity
  8
3 ... 1
100
AcDbCircle
 10
9409.813102081005
 20
186.5512648139133
 30
0.0
 40
170.34375
100
AcDbArc
 50
0.0
 51
180.0
  0
ARC
  5
17DB
330
1F91
100
AcDbEntity
  8
3 ... 1
100
AcDbCircle
 10
10006.08345
 20
244.6386000000026
 30
0.0
 40
170.34375
100
AcDbArc
 50
75.46189128065599
 51
262.3937041377606
  0
ARC
  5
1916
330
1F91
100
AcDbEntity
  8
3 ... 1
100
AcDbCircle
 10
10091.60415
 20
244.6386000000026
 30
0.0
 40
170.34375
100
AcDbArc
 50
100.4034340504969
 51
104.538108719344
1001
QCAD
1000
reversed:1
  0
ARC
  5
191A
330
1F91
100
AcDbEntity
  8
3 ... 1
100
AcDbCircle
 10
10030.08345000002
 20
244.6386000000006
 30
0.0
 40
170.34375
100
AcDbArc
 50
75.46189128066105
 51
79.59656594950694
  0
ARC
  5
1572
330
1F91
100
AcDbEntity
  8
3 ... 1
100
AcDbCircle
 10
9409.813102081005
 20
186.5512648139133
 30
0.0
 40
170.34375
100
AcDbArc
 50
312.2688000070374
 51
0.0
  0
ARC
  5
1585
330
1F91
100
AcDbEntity
  8
1
100
AcDbCircle
 10
9409.813102081003
 20
186.5512648139133
 30
0.0
 40
272.53125
100
AcDbArc
 50
187.8508726377611
 51
207.966065325852
  0
ARC
  5
1586
330
1F91
100
AcDbEntity
  8
1
100
AcDbCircle
 10
9409.813102081003
 20
186.5512648139133
 30
0.0
 40
272.53125
100
AcDbArc
 50
99.96653941166622
 51
169.187729745219
  0
ARC
  5
1587
330
1F91
100
AcDbEntity
  8
1
100
AcDbCircle
 10
9409.813102081003
 20
186.5512648139133
 30
0.0
 40
272.53125
100
AcDbArc
 50
61.1882011985332
 51
81.30339039003735
  0
ARC
  5
1588
330
1F91
100
AcDbEntity
  8
1
100
AcDbCircle
 10
9409.813102081003
 20
186.5512648139133
 30
0.0
 40
272.53125
100
AcDbArc
 50
311.4088603358754
 51
344.5400794792832
  0
ARC
  5
1589
330
1F91
100
AcDbEntity
  8
1
100
AcDbCircle
 10
9409.813102081003
 20
186.5512648139133
 30
0.0
 40
272.53125
100
AcDbArc
 50
1.406224782427045
 51
20.18421815839615
  0
ARC
  5
158A
330
1F91
100
AcDbEntity
  8
1
100
AcDbCircle
 10
9409.813102081003
 20
186.5512648139133
 30
0.0
 40
272.53125
100
AcDbArc
 50
32.07184937009774
 51
48.88539069285462
  0
ARC
  5
158B
330
1F91
100
AcDbEntity
  8
1
100
AcDbCircle
 10
9409.813102081003
 20
186.5512648139133
 30
0.0
 40
272.53125
100
AcDbArc
 50
220.2688661582117
 51
237.0824074343531
  0
ARC
  5
158C
330
1F91
100
AcDbEntity
  8
1
100
AcDbCircle
 10
9409.813102081003
 20
186.5512648139133
 30
0.0
 40
272.53125
100
AcDbArc
 50
248.9700386647903
 51
267.7480383386178
  0
ARC
  5
158D
330
1F91
100
AcDbEntity
  8
1
100
AcDbCircle
 10
9409.813102081003
 20
186.5512648139133
 30
0.0
 40
272.53125
100
AcDbArc
 50
284.6141706822239
 51
286.8514023241884
  0
ARC
  5
158E
330
1F91
100
AcDbEntity
  8
6
100
AcDbCircle
 10
9409.813102081003
 20
186.5512648139133
 30
0.0
 40
272.53125
100
AcDbArc
 50
166.6134902967322
 51
189.5463877586247
  0
ARC
  5
158F
330
1F91
100
AcDbEntity
  8
6
100
AcDbCircle
 10
9409.813102081003
 20
186.5512648139133
 30
0.0
 40
272.53125
100
AcDbArc
 50
206.577606139219
 51
221.5567839163321
  0
ARC
  5
1590
330
1F91
100
AcDbEntity
  8
6
100
AcDbCircle
 10
9409.813102081003
 20
186.5512648139133
 30
0.0
 40
272.53125
100
AcDbArc
 50
235.8182635027751
 51
250.2911160990998
  0
ARC
  5
1591
330
1F91
100
AcDbEntity
  8
6
100
AcDbCircle
 10
9409.813102081003
 20
186.5512648139133
 30
0.0
 40
272.53125
100
AcDbArc
 50
266.1927887159055
 51
286.913821440128
  0
ARC
  5
1592
330
1F91
100
AcDbEntity
  8
6
100
AcDbCircle
 10
9409.813102081003
 20
186.5512648139133
 30
0.0
 40
272.53125
100
AcDbArc
 50
79.60787526917409
 51
102.5407788601529
  0
ARC
  5
1593
330
1F91
100
AcDbEntity
  8
6
100
AcDbCircle
 10
9409.813102081003
 20
186.5512648139133
 30
0.0
 40
272.53125
100
AcDbArc
 50
47.59747293473415
 51
62.576660385166
  0
ARC
  5
1594
330
1F91
100
AcDbEntity
  8
6
100
AcDbCircle
 10
9409.813102081003
 20
186.5512648139133
 30
0.0
 40
272.53125
100
AcDbArc
 50
18.8631407240863
 51
33.33599330167549
  0
ARC
  5
1595
330
1F91
100
AcDbEntity
  8
6
100
AcDbCircle
 10
9409.813102081003
 20
186.5512648139133
 30
0.0
 40
272.53125
100
AcDbArc
 50
342.2404287213791
 51
2.961474405139461
  0
ARC
  5
159D
330
1F91
100
AcDbEntity
  8
3 ... 1
100
AcDbCircle
 10
9409.813102081005
 20
186.5512648139133
 30
0.0
 40
150.34375
100
AcDbArc
 50
0.0
 51
180.0
  0
ARC
  5
17DC
330
1F91
100
AcDbEntity
  8
3 ... 1
100
AcDbCircle
 10
10006.08345000001
 20
244.6386000000026
 30
0.0
 40
150.34375
100
AcDbArc
 50
73.47598438294038
 51
262.3937041377571
  0
ARC
  5
1914
330
1F91
100
AcDbEntity
  8
3 ... 1
100
AcDbCircle
 10
10091.60414999999
 20
244.6386000000026
 30
0.0
 40
150.34375
100
AcDbArc
 50
101.8060917368885
 51
106.5240156170597
1001
QCAD
1000
reversed:1
  0
ARC
  5
1919
330
1F91
100
AcDbEntity
  8
3 ... 1
100
AcDbCircle
 10
10030.08345000003
 20
244.6386000000006
 30
0.0
 40
150.34375
100
AcDbArc
 50
73.47598438294409
 51
78.19390826311522
  0
ARC
  5
159E
330
1F91
100
AcDbEntity
  8
3 ... 1
100
AcDbCircle
 10
9409.813102081005
 20
186.5512648139133
 30
0.0
 40
150.34375
100
AcDbArc
 50
180.0
 51
287.2234106860115
  0
ARC
  5
159F
330
1F91
100
AcDbEntity
  8
3 ... 1
100
AcDbCircle
 10
9409.813102081005
 20
186.5512648139133
 30
0.0
 40
150.34375
100
AcDbArc
 50
312.5740064326228
 51
0.0
  0
ARC
  5
15B4
330
1F91
100
AcDbEntity
  8
3 ... 1
100
AcDbCircle
 10
9409.813102081005
 20
186.5512648139133
 30
0.0
 40
106.34375
100
AcDbArc
 50
0.0
 51
180.0
  0
ARC
  5
17DD
330
1F91
100
AcDbEntity
  8
3 ... 1
100
AcDbCircle
 10
10006.08345
 20
244.6386000000026
 30
0.0
 40
106.34375
100
AcDbArc
 50
66.29075224990777
 51
262.3937041377611
  0
ARC
  5
1915
330
1F91
100
AcDbEntity
  8
3 ... 1
100
AcDbCircle
 10
10091.60415
 20
244.6386000000026
 30
0.0
 40
106.34375
100
AcDbArc
 50
106.8132965178131
 51
113.7092477500922
1001
QCAD
1000
reversed:1
  0
ARC
  5
191B
330
1F91
100
AcDbEntity
  8
3 ... 1
100
AcDbCircle
 10
10030.08345000002
 20
244.6386000000006
 30
0.0
 40
106.34375
100
AcDbArc
 50
66.29075224991954
 51
73.18670348218964
  0
ARC
  5
15B5
330
1F91
100
AcDbEntity
  8
3 ... 1
100
AcDbCircle
 10
9409.813102081005
 20
186.5512648139133
 30
0.0
 40
106.34375
100
AcDbArc
 50
180.0
 51
287.5667485869222
  0
ARC
  5
15B6
330
1F91
100
AcDbEntity
  8
3 ... 1
100
AcDbCircle
 10
9409.813102081005
 20
186.5512648139133
 30
0.0
 40
106.34375
100
AcDbArc
 50
313.6502031669241
 51
0.0
  0
ARC
  5
15B9
330
1F91
100
AcDbEntity
  8
6
100
AcDbCircle
 10
9409.813102081005
 20
186.5512648139133
 30
0.0
 40
112.34375
100
AcDbArc
 50
0.0
 51
180.0
  0
ARC
  5
15BA
330
1F91
100
AcDbEntity
  8
6
100
AcDbCircle
 10
9409.813102081005
 20
186.5512648139133
 30
0.0
 40
112.34375
100
AcDbArc
 50
180.0
 51
287.5040906555835
  0
ARC
  5
15BB
330
1F91
100
AcDbEntity
  8
6
100
AcDbCircle
 10
9409.813102081005
 20
186.5512648139133
 30
0.0
 40
112.34375
100
AcDbArc
 50
313.4537242075361
 51
0.0
  0
ARC
  5
15BC
330
1F91
100
AcDbEntity
  8
6
100
AcDbCircle
 10
9409.813102081005
 20
186.5512648139133
 30
0.0
 40
144.34375
100
AcDbArc
 50
180.0
 51
287.257902400571
  0
ARC
  5
15BD
330
1F91
100
AcDbEntity
  8
6
100
AcDbCircle
 10
9409.813102081005
 20
186.5512648139133
 30
0.0
 40
144.34375
100
AcDbArc
 50
0.0
 51
180.0
  0
ARC
  5
15BE
330
1F91
100
AcDbEntity
  8
6
100
AcDbCircle
 10
9409.813102081005
 20
186.5512648139133
 30
0.0
 40
144.34375
100
AcDbArc
 50
312.6820782411172
 51
0.0
  0
ARC
  5
15BF
330
1F91
100
AcDbEntity
  8
6
100
AcDbCircle
 10
9409.813102081005
 20
186.5512648139133
 30
0.0
 40
176.34375
100
AcDbArc
 50
312.1907487044681
 51
0.0
  0
ARC
  5
15C0
330
1F91
100
AcDbEntity
  8
6
100
AcDbCircle
 10
9409.813102081005
 20
186.5512648139133
 30
0.0
 40
176.34375
100
AcDbArc
 50
0.0
 51
180.0
  0
ARC
  5
15C1
330
1F91
100
AcDbEntity
  8
6
100
AcDbCircle
 10
9409.813102081005
 20
186.5512648139133
 30
0.0
 40
176.34375
100
AcDbArc
 50
180.0
 51
287.1010712458457
  0
ARC
  5
15C2
330
1F91
100
AcDbEntity
  8
6
100
AcDbCircle
 10
9409.813102081003
 20
186.5512648139136
 30
0.0
 40
208.40625
100
AcDbArc
 50
180.0
 51
286.992239830617
  0
ARC
  5
15C3
330
1F91
100
AcDbEntity
  8
6
100
AcDbCircle
 10
9409.813102081003
 20
186.5512648139136
 30
0.0
 40
208.40625
100
AcDbArc
 50
0.0
 51
180.0
  0
ARC
  5
15C4
330
1F91
100
AcDbEntity
  8
6
100
AcDbCircle
 10
9409.813102081003
 20
186.5512648139136
 30
0.0
 40
208.40625
100
AcDbArc
 50
311.8498834139297
 51
0.0
  0
ARC
  5
15C5
330
1F91
100
AcDbEntity
  8
6
100
AcDbCircle
 10
9409.813102081003
 20
186.5512648139136
 30
0.0
 40
240.46875
100
AcDbArc
 50
311.5999583771221
 51
0.0
  0
ARC
  5
15C6
330
1F91
100
AcDbEntity
  8
6
100
AcDbCircle
 10
9409.813102081003
 20
186.5512648139136
 30
0.0
 40
240.46875
100
AcDbArc
 50
0.0
 51
180.0
  0
ARC
  5
15C7
330
1F91
100
AcDbEntity
  8
6
100
AcDbCircle
 10
9409.813102081003
 20
186.5512648139136
 30
0.0
 40
240.46875
100
AcDbArc
 50
180.0
 51
286.912431520833
  0
ARC
  5
15CD
330
1F91
100
AcDbEntity
  8
6
100
AcDbCircle
 10
9409.813102081003
 20
186.5512648139133
 30
0.0
 40
272.53125
100
AcDbArc
 50
180.0
 51
189.5463877586247
  0
ARC
  5
15D1
330
1F91
100
AcDbEntity
  8
6
100
AcDbCircle
 10
9409.813102081003
 20
186.5512648139133
 30
0.0
 40
272.53125
100
AcDbArc
 50
206.577606139219
 51
221.5567839163321
  0
ARC
  5
15CC
330
1F91
100
AcDbEntity
  8
6
100
AcDbCircle
 10
9409.813102081003
 20
186.5512648139133
 30
0.0
 40
272.53125
100
AcDbArc
 50
166.6134902967322
 51
180.0
  0
LINE
  5
15D9
330
1F91
100
AcDbEntity
  8
3 ... 1
100
AcDbLine
 10
9441.909417396813
 20
85.16675067486558
 30
0.0
 11
9454.329637776524
 21
42.94931074039731
 31
0.0
  0
LINE
  5
15DA
330
1F91
100
AcDbEntity
  8
3 ... 1
100
AcDbLine
 10
9459.974878017498
 20
23.76063425134231
 30
0.0
 11
9472.411704000015
 21
-18.51324961227253
 31
0.0
  0
LINE
  5
15DB
330
1F91
100
AcDbEntity
  8
3 ... 1
100
AcDbLine
 10
9478.074328519733
 20
-37.76101681962237
 30
0.0
 11
9490.510798786938
 21
-80.0336915750759
 31
0.0
  0
LINE
  5
15DC
330
1F91
100
AcDbEntity
  8
3 ... 1
100
AcDbLine
 10
9511.526956239628
 20
75.8375121168759
 30
0.0
 11
9483.217280258474
 21
109.6044013940653
 31
0.0
  0
LINE
  5
15DD
330
1F91
100
AcDbEntity
  8
3 ... 1
100
AcDbLine
 10
9552.71464846741
 20
26.71013093581556
 30
0.0
 11
9524.38795267699
 21
60.49732090508516
 31
0.0
  0
LINE
  5
15DE
330
1F91
100
AcDbEntity
  8
3 ... 1
100
AcDbLine
 10
9593.928841191131
 20
-22.44885920158666
 30
0.0
 11
9565.61009037804
 21
11.32885424912521
 31
0.0
  0
LINE
  5
17D6
330
1F91
100
AcDbEntity
  8
6
100
AcDbLine
 10
9986.977345114314
 20
101.5649304442127
 30
0.0
 11
9982.741655267391
 21
69.84649839720369
 31
0.0
  0
LINE
  5
17D7
330
1F91
100
AcDbEntity
  8
6
100
AcDbLine
 10
10048.8438
 20
95.27938612499065
 30
0.0
 11
10006.08345
 21
244.6385999999902
 31
0.0
  0
LINE
  5
1930
330
1F91
100
AcDbEntity
  8
6
100
AcDbLine
 10
10048.8438
 20
95.27938612499065
 30
0.0
 11
10060.8438
 21
137.1946315918882
 31
0.0
  0
LINE
  5
1931
330
1F91
100
AcDbEntity
  8
6
100
AcDbLine
 10
10072.8438
 20
95.27938612501663
 30
0.0
 11
10060.8438
 21
137.1946315918891
 31
0.0
  0
ARC
  5
18E3
330
1F91
100
AcDbEntity
  8
1
100
AcDbCircle
 10
10006.08345
 20
244.6386000000026
 30
0.0
 40
272.53125
100
AcDbArc
 50
100.7068978828349
 51
128.5186572936616
  0
ARC
  5
18EF
330
1F91
100
AcDbEntity
  8
1
100
AcDbCircle
 10
10006.08345
 20
780.2117999999973
 30
0.0
 40
272.53125
100
AcDbArc
 50
242.9812410409768
 51
259.2931021171655
1001
QCAD
1000
reversed:1
  0
ARC
  5
1B61
330
1F91
100
AcDbEntity
  8
1
100
AcDbCircle
 10
10006.08345
 20
294.6386000000023
 30
0.0
 40
272.53125
100
AcDbArc
 50
100.7068978828345
 51
117.0187589590232
  0
ARC
  5
18E5
330
1F91
100
AcDbEntity
  8
1
100
AcDbCircle
 10
10006.08345
 20
244.6386000000026
 30
0.0
 40
272.53125
100
AcDbArc
 50
159.356106608003
 51
182.6373861397426
  0
ARC
  5
18EC
330
1F91
100
AcDbEntity
  8
1
100
AcDbCircle
 10
10006.08345
 20
244.6386000000026
 30
0.0
 40
272.53125
100
AcDbArc
 50
195.7843884158357
 51
212.9893101398638
  0
ARC
  5
18ED
330
1F91
100
AcDbEntity
  8
1
100
AcDbCircle
 10
10006.08345
 20
244.6386000000026
 30
0.0
 40
272.53125
100
AcDbArc
 50
224.680885735283
 51
242.1710014249599
  0
ARC
  5
18EE
330
1F91
100
AcDbEntity
  8
1
100
AcDbCircle
 10
10006.08345
 20
244.6386000000026
 30
0.0
 40
272.53125
100
AcDbArc
 50
256.1659767034408
 51
262.3937041377604
  0
LINE
  5
18F3
330
1F91
100
AcDbEntity
  8
6
100
AcDbLine
 10
10006.08345
 20
244.63859999999
 30
0.0
 11
9991.213034961243
 21
133.2833624912192
 31
0.0
  0
LINE
  5
18F4
330
1F91
100
AcDbEntity
  8
6
100
AcDbLine
 10
10048.8438
 20
448.6109449562256
 30
0.0
 11
10048.8438
 21
481.2749712417043
 31
0.0
  0
LINE
  5
18F5
330
1F91
100
AcDbEntity
  8
6
100
AcDbLine
 10
10048.8438
 20
382.5032823227101
 30
0.0
 11
10048.8438
 21
415.7194891487918
 31
0.0
  0
LINE
  5
18F6
330
1F91
100
AcDbEntity
  8
6
100
AcDbLine
 10
10048.8438
 20
95.27938612499082
 30
0.0
 11
10048.8438
 21
348.5263790307446
 31
0.0
  0
LINE
  5
18F7
330
1F91
100
AcDbEntity
  8
3 ... 1
100
AcDbLine
 10
9992.007226807538
 20
139.2305685000333
 30
0.0
 11
9986.183153268017
 21
95.61772443539854
 31
0.0
  0
LINE
  5
18F8
330
1F91
100
AcDbEntity
  8
3 ... 1
100
AcDbLine
 10
9983.53584711369
 20
75.79370440601724
 30
0.0
 11
9977.703500742437
 21
32.11891027878999
 31
0.0
  0
LINE
  5
18F9
330
1F91
100
AcDbEntity
  8
3 ... 1
100
AcDbLine
 10
9975.047921756377
 20
12.23294018681821
 30
0.0
 11
9969.215575385124
 21
-31.44185394041011
 31
0.0
  0
LINE
  5
18FA
330
1F91
100
AcDbEntity
  8
6
100
AcDbLine
 10
9978.497692588739
 20
38.06611628760379
 30
0.0
 11
9974.253729910079
 21
6.285734178004017
 31
0.0
  0
ARC
  5
18FC
330
1F91
100
AcDbEntity
  8
6
100
AcDbCircle
 10
10006.08345
 20
244.6386000000026
 30
0.0
 40
272.53125
100
AcDbArc
 50
181.1159222704108
 51
197.1308167467456
  0
ARC
  5
18FD
330
1F91
100
AcDbEntity
  8
6
100
AcDbCircle
 10
10006.08345
 20
244.6386000000026
 30
0.0
 40
272.53125
100
AcDbArc
 50
211.7227650990142
 51
225.954313635482
  0
ARC
  5
18FE
330
1F91
100
AcDbEntity
  8
6
100
AcDbCircle
 10
10006.08345
 20
244.6386000000026
 30
0.0
 40
272.53125
100
AcDbArc
 50
128.6180331343602
 51
161.4628693344545
  0
ARC
  5
1900
330
1F91
100
AcDbEntity
  8
6
100
AcDbCircle
 10
10006.08345
 20
244.6386000000026
 30
0.0
 40
272.53125
100
AcDbArc
 50
240.7809527696541
 51
257.8629281368661
  0
ARC
  5
1901
330
1F91
100
AcDbEntity
  8
6
100
AcDbCircle
 10
10006.08345
 20
244.638600000003
 30
0.0
 40
240.46875
100
AcDbArc
 50
79.7571456863011
 51
262.3937041377604
  0
ARC
  5
1926
330
1F91
100
AcDbEntity
  8
6
100
AcDbCircle
 10
10091.60414999999
 20
244.638600000003
 30
0.0
 40
240.46875
100
AcDbArc
 50
97.34931445562982
 51
100.2428543136989
1001
QCAD
1000
reversed:1
  0
ARC
  5
1927
330
1F91
100
AcDbEntity
  8
6
100
AcDbCircle
 10
10030.08345000001
 20
244.638600000003
 30
0.0
 40
240.46875
100
AcDbArc
 50
79.7571456863011
 51
82.65068554437018
  0
ARC
  5
1902
330
1F91
100
AcDbEntity
  8
6
100
AcDbCircle
 10
10006.08345
 20
244.638600000003
 30
0.0
 40
208.40625
100
AcDbArc
 50
78.16008854721716
 51
262.3937041377615
  0
ARC
  5
1925
330
1F91
100
AcDbEntity
  8
6
100
AcDbCircle
 10
10091.60414999999
 20
244.638600000003
 30
0.0
 40
208.40625
100
AcDbArc
 50
98.48775390065576
 51
101.8399114527828
1001
QCAD
1000
reversed:1
  0
ARC
  5
1929
330
1F91
100
AcDbEntity
  8
6
100
AcDbCircle
 10
10030.08345000001
 20
244.638600000003
 30
0.0
 40
208.40625
100
AcDbArc
 50
78.16008854721716
 51
81.51224609934422
  0
ARC
  5
1903
330
1F91
100
AcDbEntity
  8
6
100
AcDbCircle
 10
10006.08345
 20
244.6386000000026
 30
0.0
 40
176.34375
100
AcDbArc
 50
75.96686836213904
 51
262.3937041377605
  0
ARC
  5
1924
330
1F91
100
AcDbEntity
  8
6
100
AcDbCircle
 10
10091.60414999999
 20
244.6386000000026
 30
0.0
 40
176.34375
100
AcDbArc
 50
100.0457235201792
 51
104.033131637861
1001
QCAD
1000
reversed:1
  0
ARC
  5
192A
330
1F91
100
AcDbEntity
  8
6
100
AcDbCircle
 10
10030.08345000001
 20
244.6386000000026
 30
0.0
 40
176.34375
100
AcDbArc
 50
75.966868362139
 51
79.95427647982083
  0
ARC
  5
1904
330
1F91
100
AcDbEntity
  8
6
100
AcDbCircle
 10
10006.08345000001
 20
244.6386000000026
 30
0.0
 40
144.34375
100
AcDbArc
 50
72.7681095640484
 51
262.3937041377563
  0
ARC
  5
1923
330
1F91
100
AcDbEntity
  8
6
100
AcDbCircle
 10
10091.60414999998
 20
244.6386000000026
 30
0.0
 40
144.34375
100
AcDbArc
 50
102.3043654314615
 51
107.2318904359516
1001
QCAD
1000
reversed:1
  0
ARC
  5
1928
330
1F91
100
AcDbEntity
  8
6
100
AcDbCircle
 10
10030.08345000002
 20
244.6386000000026
 30
0.0
 40
144.34375
100
AcDbArc
 50
72.7681095640484
 51
77.69563456853848
  0
ARC
  5
1905
330
1F91
100
AcDbEntity
  8
6
100
AcDbCircle
 10
10006.08345
 20
244.6386000000026
 30
0.0
 40
112.34375
100
AcDbArc
 50
67.6278681914346
 51
262.3937041377628
  0
ARC
  5
192F
330
1F91
100
AcDbEntity
  8
6
100
AcDbCircle
 10
10091.60415
 20
244.6386000000026
 30
0.0
 40
112.34375
100
AcDbArc
 50
105.8908494948274
 51
112.3721318085654
1001
QCAD
1000
reversed:1
  0
ARC
  5
1932
330
1F91
100
AcDbEntity
  8
6
100
AcDbCircle
 10
10030.08345
 20
244.6386000000026
 30
0.0
 40
112.34375
100
AcDbArc
 50
67.62786819143463
 51
74.10915050517262
  0
LINE
  5
1906
330
1F91
100
AcDbEntity
  8
3 ... 1
100
AcDbLine
 10
9929.467563351056
 20
512.4251999999999
 30
0.0
 11
10048.8438
 21
512.4251999999999
 31
0.0
  0
LINE
  5
1B64
330
1F91
100
AcDbEntity
  8
3 ... 1
100
AcDbLine
 10
9929.467563351056
 20
562.4251999999999
 30
0.0
 11
10072.8438
 21
562.4252
 31
0.0
  0
LINE
  5
1907
330
1F91
100
AcDbEntity
  8
3 ... 1
100
AcDbLine
 10
10048.8438
 20
475.175250436414
 30
0.0
 11
10048.8438
 21
512.4251999999999
 31
0.0
  0
LINE
  5
1908
330
1F91
100
AcDbEntity
  8
3 ... 1
100
AcDbLine
 10
10048.8438
 20
409.5280952140401
 30
0.0
 11
10048.8438
 21
454.7376064396816
 31
0.0
  0
LINE
  5
1909
330
1F91
100
AcDbEntity
  8
3 ... 1
100
AcDbLine
 10
10048.8438
 20
342.0066935005927
 30
0.0
 11
10048.8438
 21
388.7732441073109
 31
0.0
  0
LINE
  5
1912
330
1F91
100
AcDbEntity
  8
3 ... 1
100
AcDbLine
 10
10072.8438
 20
475.1752504364139
 30
0.0
 11
10072.8438
 21
562.4251999999999
 31
0.0
  0
LINE
  5
1913
330
1F91
100
AcDbEntity
  8
3 ... 1
100
AcDbLine
 10
10060.8438
 20
477.0808414158867
 30
0.0
 11
10060.8438
 21
537.4251999999992
 31
0.0
  0
LINE
  5
191C
330
1F91
100
AcDbEntity
  8
3 ... 1
100
AcDbLine
 10
10072.8438
 20
409.5280952140419
 30
0.0
 11
10072.8438
 21
454.7376064396825
 31
0.0
  0
LINE
  5
191D
330
1F91
100
AcDbEntity
  8
3 ... 1
100
AcDbLine
 10
10060.8438
 20
412.1820093957177
 30
0.0
 11
10060.8438
 21
456.8268204716876
 31
0.0
  0
LINE
  5
191E
330
1F91
100
AcDbEntity
  8
3 ... 1
100
AcDbLine
 10
10072.8438
 20
342.0066935005994
 30
0.0
 11
10072.8438
 21
388.7732441073148
 31
0.0
  0
LINE
  5
191F
330
1F91
100
AcDbEntity
  8
3 ... 1
100
AcDbLine
 10
10060.8438
 20
346.4364095635698
 30
0.0
 11
10060.8438
 21
391.8019243438788
 31
0.0
  0
LINE
  5
192B
330
1F91
100
AcDbEntity
  8
6
100
AcDbLine
 10
10072.8438
 20
448.6109449562256
 30
0.0
 11
10072.8438
 21
481.2749712417042
 31
0.0
  0
LINE
  5
192C
330
1F91
100
AcDbEntity
  8
6
100
AcDbLine
 10
10072.8438
 20
382.50328232271
 30
0.0
 11
10072.8438
 21
415.7194891487917
 31
0.0
  0
LINE
  5
192D
330
1F91
100
AcDbEntity
  8
6
100
AcDbLine
 10
10060.8438
 20
450.762266537692
 30
0.0
 11
10060.8438
 21
483.1318296616444
 31
0.0
  0
LINE
  5
192E
330
1F91
100
AcDbEntity
  8
6
100
AcDbLine
 10
10060.8438
 20
385.6666788777246
 30
0.0
 11
10060.8438
 21
418.2787999306074
 31
0.0
  0
LINE
  5
1933
330
1F91
100
AcDbEntity
  8
6
100
AcDbLine
 10
10060.8438
 20
137.1946315918881
 30
0.0
 11
10060.8438
 21
352.6891392487262
 31
0.0
  0
LINE
  5
1934
330
1F91
100
AcDbEntity
  8
6
100
AcDbLine
 10
10072.8438
 20
95.27938612501663
 30
0.0
 11
10072.8438
 21
348.5263790307446
 31
0.0
  0
LINE
  5
1B53
330
1F91
100
AcDbEntity
  8
1
100
AcDbLine
 10
9082.183422560794
 20
537.4251999999999
 30
0.0
 11
9196.393461693871
 21
537.4251999999999
 31
0.0
  0
LINE
  5
1B54
330
1F91
100
AcDbEntity
  8
1
100
AcDbLine
 10
9278.813334126711
 20
537.4252000000001
 30
0.0
 11
9401.625245143361
 21
537.4252000000001
 31
0.0
  0
LINE
  5
1B55
330
1F91
100
AcDbEntity
  8
1
100
AcDbLine
 10
9729.95457497492
 20
537.4251999999999
 30
0.0
 11
9882.277355291364
 21
537.4251999999999
 31
0.0
  0
LINE
  5
1B56
330
1F91
100
AcDbEntity
  8
1
100
AcDbLine
 10
9491.449011723638
 20
537.4252000000015
 30
0.0
 11
9627.762414756675
 21
537.4252000000015
 31
0.0
  0
LINE
  5
1B63
330
1F91
100
AcDbEntity
  8
3 ... 1
100
AcDbLine
 10
9869.575852823127
 20
537.4251999999992
 30
0.0
 11
10060.8438
 21
537.4251999999992
 31
0.0
  0
LINE
  5
1B66
330
1F91
100
AcDbEntity
  8
6
100
AcDbLine
 10
9037.0938
 20
537.4251999999998
 30
0.0
 11
9090.662547598176
 21
537.4251999999998
 31
0.0
  0
LINE
  5
1B67
330
1F91
100
AcDbEntity
  8
6
100
AcDbLine
 10
9025.0938
 20
562.4251999999999
 30
0.0
 11
9116.070090966412
 21
562.4251999999999
 31
0.0
  0
LINE
  5
1B68
330
1F91
100
AcDbEntity
  8
6
100
AcDbLine
 10
9187.624672278289
 20
537.4251999999999
 30
0.0
 11
9287.874542918244
 21
537.4251999999999
 31
0.0
  0
LINE
  5
1B69
330
1F91
100
AcDbEntity
  8
6
100
AcDbLine
 10
9392.132939588046
 20
537.4252000000006
 30
0.0
 11
9501.396980165366
 21
537.4252000000006
 31
0.0
  0
LINE
  5
1B6A
330
1F91
100
AcDbEntity
  8
6
100
AcDbLine
 10
9617.100367806195
 20
537.4251999999999
 30
0.0
 11
9741.435103901764
 21
537.4251999999999
 31
0.0
  0
CIRCLE
  5
1B83
330
1F91
100
AcDbEntity
  8
5
100
AcDbCircle
 10
9548.9688
 20
-237.5748000000002
 30
0.0
 40
10.0
  0
CIRCLE
  5
1B84
330
1F91
100
AcDbEntity
  8
5
100
AcDbCircle
 10
9548.9688
 20
137.4251999999999
 30
0.0
 40
10.0
  0
CIRCLE
  5
1B85
330
1F91
100
AcDbEntity
  8
5
100
AcDbCircle
 10
9548.9688
 20
512.4251999999999
 30
0.0
 40
10.0
  0
LINE
  5
1E78
330
1F91
100
AcDbEntity
  8
5
100
AcDbLine
 10
8998.9688
 20
-247.5748000000002
 30
0.0
 11
10098.9688
 21
-247.5748000000002
 31
0.0
  0
LINE
  5
1E79
330
1F91
100
AcDbEntity
  8
5
100
AcDbLine
 10
8998.9688
 20
-257.5748000000002
 30
0.0
 11
10098.9688
 21
-257.5748000000002
 31
0.0
  0
VIEWPORT
  5
206C
330
1F8D
100
AcDbEntity
 67
     1
  8
0
 62
    18
420
        0
100
AcDbViewport
 10
128.5
 20
97.5
 30
0.0
 40
314.226
 41
222.18
 68
     1
 69
     1
 12
128.5
 22
97.5
 13
0.0
 23
0.0
 14
10.0
 24
10.0
 15
10.0
 25
10.0
 16
0.0
 26
0.0
 36
1.0
 17
0.0
 27
0.0
 37
0.0
 42
50.0
 43
0.0
 44
0.0
 45
222.18
 50
0.0
 51
0.0
 72
   100
 90
   557152
  1

281
     0
 71
     1
 74
     0
110
0.0
120
0.0
130
0.0
111
1.0
121
0.0
131
0.0
112
0.0
122
1.0
132
0.0
 79
     0
146
0.0
170
     0
 61
     5
348
1FA1
292
     1
282
     1
141
0.0
142
0.0
 63
   256
361
206D
  0
ENDSEC
  0
SECTION
  2
OBJECTS
  0
DICTIONARY
  5
1F7F
330
0
100
AcDbDictionary
281
     1
  3
ACAD_DETAILVIEWSTYLE
350
2075
  3
ACAD_GROUP
350
1F80
  3
ACAD_LAYOUT
350
1F8C
  3
ACAD_MATERIAL
350
1FB5
  3
ACAD_MLEADERSTYLE
350
1FDD
  3
ACAD_MLINESTYLE
350
1F89
  3
ACAD_PLOTSETTINGS
350
1F8B
  3
ACAD_PLOTSTYLENAME
350
1F81
  3
ACAD_SCALELIST
350
1FB9
  3
ACAD_SECTIONVIEWSTYLE
350
2076
  3
ACAD_TABLESTYLE
350
1FDB
  3
ACAD_VISUALSTYLE
350
1F9C
  3
ACDB_RECOMPOSE_DATA
350
2072
  3
AcDbVariableDictionary
350
206E
  3
QCAD_OBJECTS
350
1FE1
  0
SUN
  5
1FDF
330
1F9B
100
AcDbSun
 90
        1
290
     0
 63
     7
421
 16777215
 40
1.0
291
     1
 91
  2455826
 92
 54000000
292
     0
 70
     2
 71
   256
280
     1
  0
SUN
  5
206D
330
206C
100
AcDbSun
 90
        1
290
     0
 63
     7
421
 16777215
 40
1.0
291
     1
 91
  2455826
 92
 54000000
292
     0
 70
     2
 71
   256
280
     1
  0
DICTIONARY
  5
2075
102
{ACAD_REACTORS
330
1F7F
102
}
330
1F7F
100
AcDbDictionary
281
     1
  0
DICTIONARY
  5
1F80
102
{ACAD_REACTORS
330
1F7F
102
}
330
1F7F
100
AcDbDictionary
281
     1
  0
DICTIONARY
  5
1F8C
102
{ACAD_REACTORS
330
1F7F
102
}
330
1F7F
100
AcDbDictionary
281
     1
  3
Layout1
350
1F90
  3
Model
350
1F94
  0
DICTIONARY
  5
1FB5
102
{ACAD_REACTORS
330
1F7F
102
}
330
1F7F
100
AcDbDictionary
281
     1
  3
ByBlock
350
1FB7
  3
ByLayer
350
1FB6
  3
Global
350
1FB8
  0
DICTIONARY
  5
1FDD
102
{ACAD_REACTORS
330
1F7F
102
}
330
1F7F
100
AcDbDictionary
281
     1
  3
Standard
350
1FDE
  0
DICTIONARY
  5
1F89
102
{ACAD_REACTORS
330
1F7F
102
}
330
1F7F
100
AcDbDictionary
281
     1
  3
Standard
350
1F8A
  0
DICTIONARY
  5
1F8B
102
{ACAD_REACTORS
330
1F7F
102
}
330
1F7F
100
AcDbDictionary
281
     1
  0
ACDBDICTIONARYWDFLT
  5
1F81
102
{ACAD_REACTORS
330
1F7F
102
}
330
1F7F
100
AcDbDictionary
281
     1
  3
Normal
350
1F82
100
AcDbDictionaryWithDefault
340
1F82
  0
DICTIONARY
  5
1FB9
102
{ACAD_REACTORS
330
1F7F
102
}
330
1F7F
100
AcDbDictionary
281
     1
  3
A0
350
1FBA
  3
A1
350
1FBB
  3
A2
350
1FBC
  3
A3
350
1FBD
  3
A4
350
1FBE
  3
A5
350
1FBF
  3
A6
350
1FC0
  3
A7
350
1FC1
  3
A8
350
1FC2
  3
A9
350
1FC3
  3
B0
350
1FC4
  3
B1
350
1FC5
  3
B2
350
1FC6
  3
B3
350
1FC7
  3
B4
350
1FC8
  3
B5
350
1FC9
  3
B6
350
1FCA
  3
B7
350
1FCB
  3
B8
350
1FCC
  3
B9
350
1FCD
  3
C0
350
1FCE
  3
C1
350
1FCF
  3
C2
350
1FD0
  3
C3
350
1FD1
  3
C4
350
1FD2
  3
C5
350
1FD3
  3
C6
350
1FD4
  3
C7
350
1FD5
  3
C8
350
1FD6
  3
C9
350
1FD7
  3
D0
350
1FD8
  3
D1
350
1FD9
  3
D2
350
1FDA
  0
DICTIONARY
  5
2076
102
{ACAD_REACTORS
330
1F7F
102
}
330
1F7F
100
AcDbDictionary
281
     1
  0
DICTIONARY
  5
1FDB
102
{ACAD_REACTORS
330
1F7F
102
}
330
1F7F
100
AcDbDictionary
281
     1
  3
Standard
350
1FDC
  0
DICTIONARY
  5
1F9C
102
{ACAD_REACTORS
330
1F7F
102
}
330
1F7F
100
AcDbDictionary
281
     1
  3
2dWireframe
350
1FA1
  3
Basic
350
1FA4
  3
Brighten
350
1FA8
  3
ColorChange
350
1FAC
  3
Conceptual
350
1FA6
  3
Dim
350
1FA7
  3
EdgeColorOff
350
1FAF
  3
Facepattern
350
1FAB
  3
Flat
350
1F9D
  3
FlatWithEdges
350
1F9E
  3
Gouraud
350
1F9F
  3
GouraudWithEdges
350
1FA0
  3
Hidden
350
1FA3
  3
JitterOff
350
1FAD
  3
Linepattern
350
1FAA
  3
OverhangOff
350
1FAE
  3
Realistic
350
1FA5
  3
Shaded
350
1FB4
  3
Shaded with edges
350
1FB3
  3
Shades of Gray
350
1FB0
  3
Sketchy
350
1FB1
  3
Thicken
350
1FA9
  3
Wireframe
350
1FA2
  3
X-Ray
350
1FB2
  0
XRECORD
  5
2072
102
{ACAD_REACTORS
330
1F7F
102
}
330
1F7F
100
AcDbXrecord
280
     1
 90
        1
330
1FDC
  0
DICTIONARY
  5
206E
102
{ACAD_REACTORS
330
1F7F
102
}
330
1F7F
100
AcDbDictionary
281
     1
  3
CANNOSCALE
350
206F
  3
CMLEADERSTYLE
350
2074
  3
CTABLESTYLE
350
2073
  0
DICTIONARY
  5
1FE1
102
{ACAD_REACTORS
330
1F7F
102
}
330
1F7F
100
AcDbDictionary
281
     1
  3
CamExport/ConfigV2
350
1FE3
  3
ColorSettings/BackgroundColor
350
1FE4
  3
ColorSettings/ColorMode
350
1FE5
  3
DimensionSettings/AngularFormat
350
1FE6
  3
DimensionSettings/AngularPrecision
350
1FE7
  3
DimensionSettings/DecimalPoint
350
1FE8
  3
DimensionSettings/DimensionFont
350
1FE9
  3
DimensionSettings/KeepProportions
350
1FEA
  3
DimensionSettings/LinearFormat
350
1FEB
  3
DimensionSettings/LinearPrecision
350
1FEC
  3
Grid/DisplayGrid00
350
1FED
  3
Grid/DisplayGrid01
350
1FEE
  3
Grid/DisplayGrid02
350
1FEF
  3
Grid/DisplayGrid03
350
1FF0
  3
Grid/GridSpacingX00
350
1FF1
  3
Grid/GridSpacingX01
350
1FF2
  3
Grid/GridSpacingX02
350
1FF3
  3
Grid/GridSpacingX03
350
1FF4
  3
Grid/GridSpacingY00
350
1FF5
  3
Grid/GridSpacingY01
350
1FF6
  3
Grid/GridSpacingY02
350
1FF7
  3
Grid/GridSpacingY03
350
1FF8
  3
Grid/IsometricGrid00
350
1FF9
  3
Grid/IsometricGrid01
350
1FFA
  3
Grid/IsometricGrid02
350
1FFB
  3
Grid/IsometricGrid03
350
1FFC
  3
Grid/IsometricProjection00
350
1FFD
  3
Grid/IsometricProjection01
350
1FFE
  3
Grid/IsometricProjection02
350
1FFF
  3
Grid/IsometricProjection03
350
2000
  3
Grid/MetaGridSpacingX00
350
2001
  3
Grid/MetaGridSpacingX01
350
2002
  3
Grid/MetaGridSpacingX02
350
2003
  3
Grid/MetaGridSpacingX03
350
2004
  3
Grid/MetaGridSpacingY00
350
2005
  3
Grid/MetaGridSpacingY01
350
2006
  3
Grid/MetaGridSpacingY02
350
2007
  3
Grid/MetaGridSpacingY03
350
2008
  3
MultiPageSettings/Columns
350
2009
  3
MultiPageSettings/GlueMarginsBottom
350
200A
  3
MultiPageSettings/GlueMarginsLeft
350
200B
  3
MultiPageSettings/GlueMarginsRight
350
200C
  3
MultiPageSettings/GlueMarginsTop
350
200D
  3
MultiPageSettings/PrintCropMarks
350
200E
  3
MultiPageSettings/Rows
350
200F
  3
PageSettings/OffsetX
350
2010
  3
PageSettings/OffsetY
350
2011
  3
PageSettings/PageOrientation
350
2012
  3
PageSettings/PaperHeight
350
2013
  3
PageSettings/PaperSizeName
350
2014
  3
PageSettings/PaperWidth
350
2015
  3
PageSettings/PointSize
350
2016
  3
PageSettings/Scale
350
2017
  3
PageSettings/ShowPaperBorders
350
2018
  3
Print/HairlineMode
350
2019
  3
QCADVersion
350
201A
  3
UnitSettings/PaperUnit
350
201B
  3
ViewportCenter
350
201C
  3
ViewportHeight
350
201D
  3
ViewportWidth
350
201E
  0
LAYOUT
  5
1F90
102
{ACAD_REACTORS
330
1F8C
102
}
330
1F8C
100
AcDbPlotSettings
  1

  2
none_device
  4
ISO_A4_(210.00_x_297.00_MM)
  6

 40
7.5
 41
20.0
 42
7.5
 43
20.0
 44
210.0
 45
297.0
 46
0.0
 47
0.0
 48
0.0
 49
0.0
140
0.0
141
0.0
142
1.0
143
1.0
 70
   688
 72
     1
 73
     1
 74
     5
  7

 75
     0
 76
     0
 77
     2
 78
   300
147
1.0
148
0.0
149
0.0
100
AcDbLayout
  1
Layout1
 70
     1
 71
     0
 10
-20.0
 20
-7.5
 11
277.0
 21
202.5
 12
0.0
 22
0.0
 32
0.0
 14
0.0
 24
0.0
 34
0.0
 15
0.0
 25
0.0
 35
0.0
146
0.0
 13
0.0
 23
0.0
 33
0.0
 16
1.0
 26
0.0
 36
0.0
 17
0.0
 27
1.0
 37
0.0
 76
     0
330
1F8D
331
206C
  0
LAYOUT
  5
1F94
102
{ACAD_REACTORS
330
1F8C
102
}
330
1F8C
100
AcDbPlotSettings
  1

  2
none_device
  4
Letter_(8.50_x_11.00_Inches)
  6

 40
6.35
 41
6.35
 42
6.35000508
 43
6.35000508
 44
215.9
 45
279.4
 46
0.0
 47
0.0
 48
0.0
 49
0.0
140
0.0
141
0.0
142
1.0
143
1.0
 70
  1712
 72
     0
 73
     0
 74
     0
  7

 75
     0
 76
     0
 77
     2
 78
   300
147
1.0
148
0.0
149
0.0
100
AcDbLayout
  1
Model
 70
     1
 71
     0
 10
0.0
 20
0.0
 11
12.0
 21
9.0
 12
0.0
 22
0.0
 32
0.0
 14
1.000000000000000E+20
 24
1.000000000000000E+20
 34
1.000000000000000E+20
 15
-1.000000000000000E+20
 25
-1.000000000000000E+20
 35
-1.000000000000000E+20
146
0.0
 13
0.0
 23
0.0
 33
0.0
 16
1.0
 26
0.0
 36
0.0
 17
0.0
 27
1.0
 37
0.0
 76
     0
330
1F91
331
1F9B
  0
MATERIAL
  5
1FB7
102
{ACAD_REACTORS
330
1FB5
102
}
330
1FB5
100
AcDbMaterial
  1
ByBlock
 72
     1
 94
      127
  0
MATERIAL
  5
1FB6
102
{ACAD_REACTORS
330
1FB5
102
}
330
1FB5
100
AcDbMaterial
  1
ByLayer
 72
     1
 94
      127
  0
MATERIAL
  5
1FB8
102
{ACAD_REACTORS
330
1FB5
102
}
330
1FB5
100
AcDbMaterial
  1
Global
 72
     1
 94
      127
  0
MLEADERSTYLE
  5
1FDE
102
{ACAD_REACTORS
330
1FDD
102
}
330
1FDD
100
AcDbMLeaderStyle
179
     2
170
     2
171
     1
172
     0
 90
        2
 40
0.0
 41
0.0
173
     1
 91
-1056964608
340
1F86
 92
       -2
290
     1
 42
0.09
291
     1
 43
0.36
  3
Standard
341
0
 44
0.18
300

342
1F84
174
     1
178
     6
175
     1
176
     0
 93
-1056964608
 45
0.18
292
     0
297
     0
 46
0.18
343
0
 94
-1056964608
 47
1.0
 49
1.0
140
1.0
293
     1
141
0.0
294
     1
177
     0
142
1.0
295
     0
296
     0
143
0.125
271
     0
272
     9
273
     9
298
     0
  0
MLINESTYLE
  5
1F8A
102
{ACAD_REACTORS
330
1F89
102
}
330
1F89
100
AcDbMlineStyle
  2
Standard
 70
     0
  3

 62
   256
 51
90.0
 52
90.0
 71
     2
 49
0.5
 62
   256
  6
BYLAYER
 49
-0.5
 62
   256
  6
BYLAYER
  0
ACDBPLACEHOLDER
  5
1F82
102
{ACAD_REACTORS
330
1F81
102
}
330
1F81
  0
SCALE
  5
1FBA
102
{ACAD_REACTORS
330
1FB9
102
}
330
1FB9
100
AcDbScale
 70
     0
300
1:1
140
1.0
141
1.0
290
     1
  0
SCALE
  5
1FBB
102
{ACAD_REACTORS
330
1FB9
102
}
330
1FB9
100
AcDbScale
 70
     0
300
1:2
140
1.0
141
2.0
290
     0
  0
SCALE
  5
1FBC
102
{ACAD_REACTORS
330
1FB9
102
}
330
1FB9
100
AcDbScale
 70
     0
300
1:4
140
1.0
141
4.0
290
     0
  0
SCALE
  5
1FBD
102
{ACAD_REACTORS
330
1FB9
102
}
330
1FB9
100
AcDbScale
 70
     0
300
1:5
140
1.0
141
5.0
290
     0
  0
SCALE
  5
1FBE
102
{ACAD_REACTORS
330
1FB9
102
}
330
1FB9
100
AcDbScale
 70
     0
300
1:8
140
1.0
141
8.0
290
     0
  0
SCALE
  5
1FBF
102
{ACAD_REACTORS
330
1FB9
102
}
330
1FB9
100
AcDbScale
 70
     0
300
1:10
140
1.0
141
10.0
290
     0
  0
SCALE
  5
1FC0
102
{ACAD_REACTORS
330
1FB9
102
}
330
1FB9
100
AcDbScale
 70
     0
300
1:16
140
1.0
141
16.0
290
     0
  0
SCALE
  5
1FC1
102
{ACAD_REACTORS
330
1FB9
102
}
330
1FB9
100
AcDbScale
 70
     0
300
1:20
140
1.0
141
20.0
290
     0
  0
SCALE
  5
1FC2
102
{ACAD_REACTORS
330
1FB9
102
}
330
1FB9
100
AcDbScale
 70
     0
300
1:30
140
1.0
141
30.0
290
     0
  0
SCALE
  5
1FC3
102
{ACAD_REACTORS
330
1FB9
102
}
330
1FB9
100
AcDbScale
 70
     0
300
1:40
140
1.0
141
40.0
290
     0
  0
SCALE
  5
1FC4
102
{ACAD_REACTORS
330
1FB9
102
}
330
1FB9
100
AcDbScale
 70
     0
300
1:50
140
1.0
141
50.0
290
     0
  0
SCALE
  5
1FC5
102
{ACAD_REACTORS
330
1FB9
102
}
330
1FB9
100
AcDbScale
 70
     0
300
1:100
140
1.0
141
100.0
290
     0
  0
SCALE
  5
1FC6
102
{ACAD_REACTORS
330
1FB9
102
}
330
1FB9
100
AcDbScale
 70
     0
300
2:1
140
2.0
141
1.0
290
     0
  0
SCALE
  5
1FC7
102
{ACAD_REACTORS
330
1FB9
102
}
330
1FB9
100
AcDbScale
 70
     0
300
4:1
140
4.0
141
1.0
290
     0
  0
SCALE
  5
1FC8
102
{ACAD_REACTORS
330
1FB9
102
}
330
1FB9
100
AcDbScale
 70
     0
300
8:1
140
8.0
141
1.0
290
     0
  0
SCALE
  5
1FC9
102
{ACAD_REACTORS
330
1FB9
102
}
330
1FB9
100
AcDbScale
 70
     0
300
10:1
140
10.0
141
1.0
290
     0
  0
SCALE
  5
1FCA
102
{ACAD_REACTORS
330
1FB9
102
}
330
1FB9
100
AcDbScale
 70
     0
300
100:1
140
100.0
141
1.0
290
     0
  0
SCALE
  5
1FCB
102
{ACAD_REACTORS
330
1FB9
102
}
330
1FB9
100
AcDbScale
 70
     0
300
1/128" = 1'-0"
140
0.0078125
141
12.0
290
     0
  0
SCALE
  5
1FCC
102
{ACAD_REACTORS
330
1FB9
102
}
330
1FB9
100
AcDbScale
 70
     0
300
1/64" = 1'-0"
140
0.015625
141
12.0
290
     0
  0
SCALE
  5
1FCD
102
{ACAD_REACTORS
330
1FB9
102
}
330
1FB9
100
AcDbScale
 70
     0
300
1/32" = 1'-0"
140
0.03125
141
12.0
290
     0
  0
SCALE
  5
1FCE
102
{ACAD_REACTORS
330
1FB9
102
}
330
1FB9
100
AcDbScale
 70
     0
300
1/16" = 1'-0"
140
0.0625
141
12.0
290
     0
  0
SCALE
  5
1FCF
102
{ACAD_REACTORS
330
1FB9
102
}
330
1FB9
100
AcDbScale
 70
     0
300
3/32" = 1'-0"
140
0.09375
141
12.0
290
     0
  0
SCALE
  5
1FD0
102
{ACAD_REACTORS
330
1FB9
102
}
330
1FB9
100
AcDbScale
 70
     0
300
1/8" = 1'-0"
140
0.125
141
12.0
290
     0
  0
SCALE
  5
1FD1
102
{ACAD_REACTORS
330
1FB9
102
}
330
1FB9
100
AcDbScale
 70
     0
300
3/16" = 1'-0"
140
0.1875
141
12.0
290
     0
  0
SCALE
  5
1FD2
102
{ACAD_REACTORS
330
1FB9
102
}
330
1FB9
100
AcDbScale
 70
     0
300
1/4" = 1'-0"
140
0.25
141
12.0
290
     0
  0
SCALE
  5
1FD3
102
{ACAD_REACTORS
330
1FB9
102
}
330
1FB9
100
AcDbScale
 70
     0
300
3/8" = 1'-0"
140
0.375
141
12.0
290
     0
  0
SCALE
  5
1FD4
102
{ACAD_REACTORS
330
1FB9
102
}
330
1FB9
100
AcDbScale
 70
     0
300
1/2" = 1'-0"
140
0.5
141
12.0
290
     0
  0
SCALE
  5
1FD5
102
{ACAD_REACTORS
330
1FB9
102
}
330
1FB9
100
AcDbScale
 70
     0
300
3/4" = 1'-0"
140
0.75
141
12.0
290
     0
  0
SCALE
  5
1FD6
102
{ACAD_REACTORS
330
1FB9
102
}
330
1FB9
100
AcDbScale
 70
     0
300
1" = 1'-0"
140
1.0
141
12.0
290
     0
  0
SCALE
  5
1FD7
102
{ACAD_REACTORS
330
1FB9
102
}
330
1FB9
100
AcDbScale
 70
     0
300
1-1/2" = 1'-0"
140
1.5
141
12.0
290
     0
  0
SCALE
  5
1FD8
102
{ACAD_REACTORS
330
1FB9
102
}
330
1FB9
100
AcDbScale
 70
     0
300
3" = 1'-0"
140
3.0
141
12.0
290
     0
  0
SCALE
  5
1FD9
102
{ACAD_REACTORS
330
1FB9
102
}
330
1FB9
100
AcDbScale
 70
     0
300
6" = 1'-0"
140
6.0
141
12.0
290
     0
  0
SCALE
  5
1FDA
102
{ACAD_REACTORS
330
1FB9
102
}
330
1FB9
100
AcDbScale
 70
     0
300
1'-0" = 1'-0"
140
12.0
141
12.0
290
     0
  0
TABLESTYLE
  5
1FDC
102
{ACAD_REACTORS
330
1FDB
102
}
102
{ACAD_XDICTIONARY
360
2070
102
}
330
1FDB
100
AcDbTableStyle
  3
Standard
 70
     0
 71
     0
 40
0.06
 41
0.06
280
     0
281
     0
  7
Standard
140
0.18
170
     2
 62
     0
 63
   257
283
     0
 90
        4
 91
        0
  1

274
    -2
284
     1
 64
     0
275
    -2
285
     1
 65
     0
276
    -2
286
     1
 66
     0
277
    -2
287
     1
 67
     0
278
    -2
288
     1
 68
     0
279
    -2
289
     1
 69
     0
  7
Standard
140
0.25
170
     5
 62
     0
 63
   257
283
     0
 90
        4
 91
        0
  1

274
    -2
284
     1
 64
     0
275
    -2
285
     1
 65
     0
276
    -2
286
     1
 66
     0
277
    -2
287
     1
 67
     0
278
    -2
288
     1
 68
     0
279
    -2
289
     1
 69
     0
  7
Standard
140
0.18
170
     5
 62
     0
 63
   257
283
     0
 90
        4
 91
        0
  1

274
    -2
284
     1
 64
     0
275
    -2
285
     1
 65
     0
276
    -2
286
     1
 66
     0
277
    -2
287
     1
 67
     0
278
    -2
288
     1
 68
     0
279
    -2
289
     1
 69
     0
  0
VISUALSTYLE
  5
1FA1
102
{ACAD_REACTORS
330
1F9C
102
}
330
1F9C
100
AcDbVisualStyle
  2
2dWireframe
 70
     4
177
     3
291
     0
 70
    58
 90
        0
176
     1
 90
        2
176
     1
 90
        0
176
     1
 90
        0
176
     1
 40
0.6
176
     1
 40
30.0
176
     1
 62
     7
420
 16777215
176
     1
 90
        1
176
     1
 90
        4
176
     1
 62
     7
176
     1
 62
   257
176
     1
 90
        1
176
     1
 90
        1
176
     1
 40
1.0
176
     1
 90
        0
176
     1
 62
   257
176
     1
 40
1.0
176
     1
 90
        1
176
     1
 90
        6
176
     1
 90
        2
176
     1
 62
     7
176
     1
 90
        5
176
     1
 90
        0
176
     1
 90
        0
176
     1
290
     0
176
     1
 90
        1
176
     1
 40
0.0
176
     1
 90
        0
176
     1
290
     1
176
     1
290
     1
176
     1
290
     0
176
     1
290
     0
176
     1
290
     0
176
     1
290
     0
176
     1
290
     0
176
     1
290
     0
176
     1
290
     0
176
     1
 90
       50
176
     1
 40
0.0
176
     1
 40
1.0
176
     1
 90
        0
176
     1
 62
    18
420
        0
176
     1
 90
       50
176
     1
 90
        3
176
     1
 62
     5
420
      255
176
     1
290
     0
176
     1
 90
       50
176
     1
 90
       50
176
     1
 90
       50
176
     1
290
     0
176
     1
 90
       50
176
     1
 62
   256
176
     0
 40
1.0
176
     0
 90
        2
176
     1
  1
strokes_ogs.tif
176
     1
290
     0
176
     1
 40
1.0
176
     1
 40
1.0
176
     1
  0
VISUALSTYLE
  5
1FA4
102
{ACAD_REACTORS
330
1F9C
102
}
330
1F9C
100
AcDbVisualStyle
  2
Basic
 70
     7
177
     3
291
     1
 70
    58
 90
        1
176
     1
 90
        0
176
     1
 90
        1
176
     1
 90
        0
176
     1
 40
0.6
176
     1
 40
30.0
176
     1
 62
     7
420
 16777215
176
     1
 90
        0
176
     1
 90
        4
176
     1
 62
     7
176
     1
 62
   257
176
     1
 90
        1
176
     1
 90
        1
176
     1
 40
1.0
176
     1
 90
        8
176
     1
 62
     7
176
     1
 40
1.0
176
     1
 90
        1
176
     1
 90
        6
176
     1
 90
        2
176
     1
 62
     7
176
     1
 90
        5
176
     1
 90
        0
176
     1
 90
        0
176
     1
290
     0
176
     1
 90
        1
176
     1
 40
0.0
176
     1
 90
        0
176
     1
290
     0
176
     1
290
     1
176
     1
290
     1
176
     1
290
     0
176
     1
290
     0
176
     1
290
     0
176
     1
290
     0
176
     1
290
     0
176
     1
290
     0
176
     1
 90
       50
176
     1
 40
0.0
176
     1
 40
1.0
176
     1
 90
        0
176
     1
 62
    18
420
        0
176
     1
 90
       50
176
     1
 90
        3
176
     1
 62
     5
420
      255
176
     1
290
     0
176
     1
 90
       50
176
     1
 90
       50
176
     1
 90
       50
176
     1
290
     0
176
     1
 90
       50
176
     1
 62
   256
176
     0
 40
1.0
176
     0
 90
        2
176
     1
  1
strokes_ogs.tif
176
     1
290
     0
176
     1
 40
1.0
176
     1
 40
1.0
176
     1
  0
VISUALSTYLE
  5
1FA8
102
{ACAD_REACTORS
330
1F9C
102
}
330
1F9C
100
AcDbVisualStyle
  2
Brighten
 70
    12
177
     3
291
     1
 70
    58
 90
        2
176
     1
 90
        2
176
     1
 90
        0
176
     1
 90
        0
176
     1
 40
0.6
176
     1
 40
30.0
176
     1
 62
     7
420
 16777215
176
     1
 90
        1
176
     1
 90
        4
176
     1
 62
     7
176
     1
 62
   257
176
     1
 90
        1
176
     1
 90
        1
176
     1
 40
1.0
176
     1
 90
        8
176
     1
 62
     7
176
     1
 40
1.0
176
     1
 90
        1
176
     1
 90
        6
176
     1
 90
        2
176
     1
 62
     7
176
     1
 90
        5
176
     1
 90
        0
176
     1
 90
        0
176
     1
290
     0
176
     1
 90
        1
176
     1
 40
50.0
176
     1
 90
        0
176
     1
290
     0
176
     1
290
     1
176
     1
290
     1
176
     1
290
     0
176
     1
290
     0
176
     1
290
     0
176
     1
290
     0
176
     1
290
     0
176
     1
290
     0
176
     1
 90
       50
176
     1
 40
0.0
176
     1
 40
1.0
176
     1
 90
        0
176
     1
 62
    18
420
        0
176
     1
 90
       50
176
     1
 90
        3
176
     1
 62
     5
420
      255
176
     1
290
     0
176
     1
 90
       50
176
     1
 90
       50
176
     1
 90
       50
176
     1
290
     0
176
     1
 90
       50
176
     1
 62
   256
176
     0
 40
1.0
176
     0
 90
        2
176
     1
  1
strokes_ogs.tif
176
     1
290
     0
176
     1
 40
1.0
176
     1
 40
1.0
176
     1
  0
VISUALSTYLE
  5
1FAC
102
{ACAD_REACTORS
330
1F9C
102
}
330
1F9C
100
AcDbVisualStyle
  2
ColorChange
 70
    16
177
     3
291
     1
 70
    58
 90
        2
176
     1
 90
        2
176
     1
 90
        3
176
     1
 90
        0
176
     1
 40
0.6
176
     1
 40
30.0
176
     1
 62
     8
420
  8421504
176
     1
 90
        1
176
     1
 90
        4
176
     1
 62
     7
176
     1
 62
   257
176
     1
 90
        1
176
     1
 90
        1
176
     1
 40
1.0
176
     1
 90
        8
176
     1
 62
     8
420
  8421504
176
     1
 40
1.0
176
     1
 90
        1
176
     1
 90
        6
176
     1
 90
        2
176
     1
 62
     7
176
     1
 90
        5
176
     1
 90
        0
176
     1
 90
        0
176
     1
290
     0
176
     1
 90
        1
176
     1
 40
0.0
176
     1
 90
        0
176
     1
290
     0
176
     1
290
     1
176
     1
290
     1
176
     1
290
     0
176
     1
290
     0
176
     1
290
     0
176
     1
290
     0
176
     1
290
     0
176
     1
290
     0
176
     1
 90
       50
176
     1
 40
0.0
176
     1
 40
1.0
176
     1
 90
        0
176
     1
 62
    18
420
        0
176
     1
 90
       50
176
     1
 90
        3
176
     1
 62
     5
420
      255
176
     1
290
     0
176
     1
 90
       50
176
     1
 90
       50
176
     1
 90
       50
176
     1
290
     0
176
     1
 90
       50
176
     1
 62
   256
176
     0
 40
1.0
176
     0
 90
        2
176
     1
  1
strokes_ogs.tif
176
     1
290
     0
176
     1
 40
1.0
176
     1
 40
1.0
176
     1
  0
VISUALSTYLE
  5
1FA6
102
{ACAD_REACTORS
330
1F9C
102
}
330
1F9C
100
AcDbVisualStyle
  2
Conceptual
 70
     9
177
     3
291
     0
 70
    58
 90
        3
176
     1
 90
        2
176
     1
 90
        0
176
     1
 90
        0
176
     1
 40
0.6
176
     1
 40
30.0
176
     1
 62
     7
420
 16777215
176
     1
 90
        2
176
     1
 90
        2
176
     1
 62
     7
176
     1
 62
   257
176
     1
 90
        1
176
     1
 90
        1
176
     1
 40
179.0
176
     1
 90
        8
176
     1
 62
     7
176
     1
 40
1.0
176
     1
 90
        1
176
     1
 90
        6
176
     1
 90
        2
176
     1
 62
     7
176
     1
 90
        3
176
     1
 90
        0
176
     1
 90
        0
176
     1
290
     0
176
     1
 90
        1
176
     1
 40
0.0
176
     1
 90
        0
176
     1
290
     0
176
     1
290
     1
176
     1
290
     1
176
     1
290
     0
176
     1
290
     0
176
     1
290
     0
176
     1
290
     0
176
     1
290
     0
176
     1
290
     0
176
     1
 90
       50
176
     1
 40
0.0
176
     1
 40
1.0
176
     1
 90
        0
176
     1
 62
    18
420
        0
176
     1
 90
       50
176
     1
 90
        3
176
     1
 62
     5
420
      255
176
     1
290
     0
176
     1
 90
       50
176
     1
 90
       50
176
     1
 90
       50
176
     1
290
     0
176
     1
 90
       50
176
     1
 62
   256
176
     0
 40
1.0
176
     0
 90
        2
176
     1
  1
strokes_ogs.tif
176
     1
290
     0
176
     1
 40
1.0
176
     1
 40
1.0
176
     1
  0
VISUALSTYLE
  5
1FA7
102
{ACAD_REACTORS
330
1F9C
102
}
330
1F9C
100
AcDbVisualStyle
  2
Dim
 70
    11
177
     3
291
     1
 70
    58
 90
        2
176
     1
 90
        2
176
     1
 90
        0
176
     1
 90
        0
176
     1
 40
0.6
176
     1
 40
30.0
176
     1
 62
     7
420
 16777215
176
     1
 90
        1
176
     1
 90
        4
176
     1
 62
     7
176
     1
 62
   257
176
     1
 90
        1
176
     1
 90
        1
176
     1
 40
1.0
176
     1
 90
        8
176
     1
 62
     7
176
     1
 40
1.0
176
     1
 90
        1
176
     1
 90
        6
176
     1
 90
        2
176
     1
 62
     7
176
     1
 90
        5
176
     1
 90
        0
176
     1
 90
        0
176
     1
290
     0
176
     1
 90
        1
176
     1
 40
-50.0
176
     1
 90
        0
176
     1
290
     0
176
     1
290
     1
176
     1
290
     1
176
     1
290
     0
176
     1
290
     0
176
     1
290
     0
176
     1
290
     0
176
     1
290
     0
176
     1
290
     0
176
     1
 90
       50
176
     1
 40
0.0
176
     1
 40
1.0
176
     1
 90
        0
176
     1
 62
    18
420
        0
176
     1
 90
       50
176
     1
 90
        3
176
     1
 62
     5
420
      255
176
     1
290
     0
176
     1
 90
       50
176
     1
 90
       50
176
     1
 90
       50
176
     1
290
     0
176
     1
 90
       50
176
     1
 62
   256
176
     0
 40
1.0
176
     0
 90
        2
176
     1
  1
strokes_ogs.tif
176
     1
290
     0
176
     1
 40
1.0
176
     1
 40
1.0
176
     1
  0
VISUALSTYLE
  5
1FAF
102
{ACAD_REACTORS
330
1F9C
102
}
330
1F9C
100
AcDbVisualStyle
  2
EdgeColorOff
 70
    22
177
     3
291
     1
 70
    58
 90
        2
176
     0
 90
        2
176
     0
 90
        0
176
     0
 90
        0
176
     0
 40
0.6
176
     0
 40
30.0
176
     0
 62
     7
420
 16777215
176
     0
 90
        1
176
     0
 90
        4
176
     0
 62
     7
176
     0
 62
   257
176
     0
 90
        1
176
     0
 90
        1
176
     0
 40
1.0
176
     0
 90
        8
176
     2
 62
     7
176
     0
 40
1.0
176
     0
 90
        1
176
     0
 90
        6
176
     0
 90
        2
176
     0
 62
     7
176
     0
 90
        5
176
     0
 90
        0
176
     0
 90
        0
176
     0
290
     0
176
     0
 90
        1
176
     0
 40
0.0
176
     0
 90
        0
176
     0
290
     0
176
     0
290
     1
176
     0
290
     1
176
     0
290
     0
176
     0
290
     0
176
     0
290
     0
176
     0
290
     0
176
     0
290
     0
176
     0
290
     0
176
     0
 90
       50
176
     0
 40
0.0
176
     0
 40
1.0
176
     0
 90
        0
176
     0
 62
    18
420
        0
176
     0
 90
       50
176
     0
 90
        3
176
     0
 62
     5
420
      255
176
     0
290
     0
176
     0
 90
       50
176
     0
 90
       50
176
     0
 90
       50
176
     0
290
     0
176
     0
 90
       50
176
     0
 62
   256
176
     0
 40
1.0
176
     0
 90
        2
176
     0
  1
strokes_ogs.tif
176
     0
290
     0
176
     0
 40
1.0
176
     0
 40
1.0
176
     0
  0
VISUALSTYLE
  5
1FAB
102
{ACAD_REACTORS
330
1F9C
102
}
330
1F9C
100
AcDbVisualStyle
  2
Facepattern
 70
    15
177
     3
291
     1
 70
    58
 90
        2
176
     1
 90
        2
176
     1
 90
        0
176
     1
 90
        0
176
     1
 40
0.6
176
     1
 40
30.0
176
     1
 62
     7
420
 16777215
176
     1
 90
        1
176
     1
 90
        4
176
     1
 62
     7
176
     1
 62
   257
176
     1
 90
        1
176
     1
 90
        1
176
     1
 40
1.0
176
     1
 90
        8
176
     1
 62
     7
176
     1
 40
1.0
176
     1
 90
        1
176
     1
 90
        6
176
     1
 90
        2
176
     1
 62
     7
176
     1
 90
        5
176
     1
 90
        0
176
     1
 90
        0
176
     1
290
     0
176
     1
 90
        1
176
     1
 40
0.0
176
     1
 90
        0
176
     1
290
     0
176
     1
290
     1
176
     1
290
     1
176
     1
290
     0
176
     1
290
     0
176
     1
290
     0
176
     1
290
     0
176
     1
290
     0
176
     1
290
     0
176
     1
 90
       50
176
     1
 40
0.0
176
     1
 40
1.0
176
     1
 90
        0
176
     1
 62
    18
420
        0
176
     1
 90
       50
176
     1
 90
        3
176
     1
 62
     5
420
      255
176
     1
290
     0
176
     1
 90
       50
176
     1
 90
       50
176
     1
 90
       50
176
     1
290
     0
176
     1
 90
       50
176
     1
 62
   256
176
     0
 40
1.0
176
     0
 90
        2
176
     1
  1
strokes_ogs.tif
176
     1
290
     0
176
     1
 40
1.0
176
     1
 40
1.0
176
     1
  0
VISUALSTYLE
  5
1F9D
102
{ACAD_REACTORS
330
1F9C
102
}
330
1F9C
100
AcDbVisualStyle
  2
Flat
 70
     0
177
     3
291
     1
 70
    58
 90
        2
176
     1
 90
        1
176
     1
 90
        1
176
     1
 90
        2
176
     1
 40
0.6
176
     1
 40
30.0
176
     1
 62
     7
420
 16777215
176
     1
 90
        0
176
     1
 90
        0
176
     1
 62
     7
176
     1
 62
   257
176
     1
 90
        1
176
     1
 90
        1
176
     1
 40
1.0
176
     1
 90
        8
176
     1
 62
     7
176
     1
 40
1.0
176
     1
 90
        1
176
     1
 90
        6
176
     1
 90
        2
176
     1
 62
     7
176
     1
 90
        5
176
     1
 90
        0
176
     1
 90
        0
176
     1
290
     0
176
     1
 90
       13
176
     1
 40
0.0
176
     1
 90
        0
176
     1
290
     0
176
     1
290
     1
176
     1
290
     1
176
     1
290
     0
176
     1
290
     0
176
     1
290
     0
176
     1
290
     0
176
     1
290
     0
176
     1
290
     0
176
     1
 90
       50
176
     1
 40
0.0
176
     1
 40
1.0
176
     1
 90
        0
176
     1
 62
    18
420
        0
176
     1
 90
       50
176
     1
 90
        3
176
     1
 62
     5
420
      255
176
     1
290
     0
176
     1
 90
       50
176
     1
 90
       50
176
     1
 90
       50
176
     1
290
     0
176
     1
 90
       50
176
     1
 62
   256
176
     0
 40
1.0
176
     0
 90
        2
176
     1
  1
strokes_ogs.tif
176
     1
290
     0
176
     1
 40
1.0
176
     1
 40
1.0
176
     1
  0
VISUALSTYLE
  5
1F9E
102
{ACAD_REACTORS
330
1F9C
102
}
330
1F9C
100
AcDbVisualStyle
  2
FlatWithEdges
 70
     1
177
     3
291
     1
 70
    58
 90
        2
176
     1
 90
        1
176
     1
 90
        1
176
     1
 90
        2
176
     1
 40
0.6
176
     1
 40
30.0
176
     1
 62
     7
420
 16777215
176
     1
 90
        1
176
     1
 90
        0
176
     1
 62
     7
176
     1
 62
   257
176
     1
 90
        1
176
     1
 90
        1
176
     1
 40
1.0
176
     1
 90
        0
176
     1
 62
   257
176
     1
 40
1.0
176
     1
 90
        1
176
     1
 90
        6
176
     1
 90
        2
176
     1
 62
     7
176
     1
 90
        5
176
     1
 90
        0
176
     1
 90
        0
176
     1
290
     0
176
     1
 90
       13
176
     1
 40
0.0
176
     1
 90
        0
176
     1
290
     0
176
     1
290
     1
176
     1
290
     1
176
     1
290
     0
176
     1
290
     0
176
     1
290
     0
176
     1
290
     0
176
     1
290
     0
176
     1
290
     0
176
     1
 90
       50
176
     1
 40
0.0
176
     1
 40
1.0
176
     1
 90
        0
176
     1
 62
    18
420
        0
176
     1
 90
       50
176
     1
 90
        3
176
     1
 62
     5
420
      255
176
     1
290
     0
176
     1
 90
       50
176
     1
 90
       50
176
     1
 90
       50
176
     1
290
     0
176
     1
 90
       50
176
     1
 62
   256
176
     0
 40
1.0
176
     0
 90
        2
176
     1
  1
strokes_ogs.tif
176
     1
290
     0
176
     1
 40
1.0
176
     1
 40
1.0
176
     1
  0
VISUALSTYLE
  5
1F9F
102
{ACAD_REACTORS
330
1F9C
102
}
330
1F9C
100
AcDbVisualStyle
  2
Gouraud
 70
     2
177
     3
291
     1
 70
    58
 90
        2
176
     1
 90
        2
176
     1
 90
        1
176
     1
 90
        2
176
     1
 40
0.6
176
     1
 40
30.0
176
     1
 62
     7
420
 16777215
176
     1
 90
        0
176
     1
 90
        0
176
     1
 62
     7
176
     1
 62
   257
176
     1
 90
        1
176
     1
 90
        1
176
     1
 40
1.0
176
     1
 90
        0
176
     1
 62
     7
176
     1
 40
1.0
176
     1
 90
        1
176
     1
 90
        6
176
     1
 90
        2
176
     1
 62
     7
176
     1
 90
        5
176
     1
 90
        0
176
     1
 90
        0
176
     1
290
     0
176
     1
 90
       13
176
     1
 40
0.0
176
     1
 90
        0
176
     1
290
     0
176
     1
290
     1
176
     1
290
     1
176
     1
290
     0
176
     1
290
     0
176
     1
290
     0
176
     1
290
     0
176
     1
290
     0
176
     1
290
     0
176
     1
 90
       50
176
     1
 40
0.0
176
     1
 40
1.0
176
     1
 90
        0
176
     1
 62
    18
420
        0
176
     1
 90
       50
176
     1
 90
        3
176
     1
 62
     5
420
      255
176
     1
290
     0
176
     1
 90
       50
176
     1
 90
       50
176
     1
 90
       50
176
     1
290
     0
176
     1
 90
       50
176
     1
 62
   256
176
     0
 40
1.0
176
     0
 90
        2
176
     1
  1
strokes_ogs.tif
176
     1
290
     0
176
     1
 40
1.0
176
     1
 40
1.0
176
     1
  0
VISUALSTYLE
  5
1FA0
102
{ACAD_REACTORS
330
1F9C
102
}
330
1F9C
100
AcDbVisualStyle
  2
GouraudWithEdges
 70
     3
177
     3
291
     1
 70
    58
 90
        2
176
     1
 90
        2
176
     1
 90
        1
176
     1
 90
        2
176
     1
 40
0.6
176
     1
 40
30.0
176
     1
 62
     7
420
 16777215
176
     1
 90
        1
176
     1
 90
        0
176
     1
 62
     7
176
     1
 62
   257
176
     1
 90
        1
176
     1
 90
        1
176
     1
 40
1.0
176
     1
 90
        0
176
     1
 62
   257
176
     1
 40
1.0
176
     1
 90
        1
176
     1
 90
        6
176
     1
 90
        2
176
     1
 62
     7
176
     1
 90
        5
176
     1
 90
        0
176
     1
 90
        0
176
     1
290
     0
176
     1
 90
       13
176
     1
 40
0.0
176
     1
 90
        0
176
     1
290
     0
176
     1
290
     1
176
     1
290
     1
176
     1
290
     0
176
     1
290
     0
176
     1
290
     0
176
     1
290
     0
176
     1
290
     0
176
     1
290
     0
176
     1
 90
       50
176
     1
 40
0.0
176
     1
 40
1.0
176
     1
 90
        0
176
     1
 62
    18
420
        0
176
     1
 90
       50
176
     1
 90
        3
176
     1
 62
     5
420
      255
176
     1
290
     0
176
     1
 90
       50
176
     1
 90
       50
176
     1
 90
       50
176
     1
290
     0
176
     1
 90
       50
176
     1
 62
   256
176
     0
 40
1.0
176
     0
 90
        2
176
     1
  1
strokes_ogs.tif
176
     1
290
     0
176
     1
 40
1.0
176
     1
 40
1.0
176
     1
  0
VISUALSTYLE
  5
1FA3
102
{ACAD_REACTORS
330
1F9C
102
}
330
1F9C
100
AcDbVisualStyle
  2
Hidden
 70
     6
177
     3
291
     0
 70
    58
 90
        1
176
     1
 90
        2
176
     1
 90
        2
176
     1
 90
        0
176
     1
 40
0.6
176
     1
 40
30.0
176
     1
 62
     7
420
 16777215
176
     1
 90
        2
176
     1
 90
        2
176
     1
 62
     7
176
     1
 62
   257
176
     1
 90
        2
176
     1
 90
        1
176
     1
 40
40.0
176
     1
 90
        0
176
     1
 62
   257
176
     1
 40
1.0
176
     1
 90
        1
176
     1
 90
        6
176
     1
 90
        2
176
     1
 62
     7
176
     1
 90
        3
176
     1
 90
        0
176
     1
 90
        0
176
     1
290
     0
176
     1
 90
        1
176
     1
 40
0.0
176
     1
 90
        0
176
     1
290
     0
176
     1
290
     1
176
     1
290
     1
176
     1
290
     0
176
     1
290
     0
176
     1
290
     0
176
     1
290
     0
176
     1
290
     0
176
     1
290
     0
176
     1
 90
       50
176
     1
 40
0.0
176
     1
 40
1.0
176
     1
 90
        0
176
     1
 62
    18
420
        0
176
     1
 90
       50
176
     1
 90
        3
176
     1
 62
     5
420
      255
176
     1
290
     0
176
     1
 90
       50
176
     1
 90
       50
176
     1
 90
       50
176
     1
290
     0
176
     1
 90
       50
176
     1
 62
   256
176
     0
 40
1.0
176
     0
 90
        2
176
     1
  1
strokes_ogs.tif
176
     1
290
     0
176
     1
 40
1.0
176
     1
 40
1.0
176
     1
  0
VISUALSTYLE
  5
1FAD
102
{ACAD_REACTORS
330
1F9C
102
}
330
1F9C
100
AcDbVisualStyle
  2
JitterOff
 70
    20
177
     3
291
     1
 70
    58
 90
        2
176
     0
 90
        2
176
     0
 90
        0
176
     0
 90
        0
176
     0
 40
0.6
176
     0
 40
30.0
176
     0
 62
     7
420
 16777215
176
     0
 90
        1
176
     0
 90
        4
176
     0
 62
     7
176
     0
 62
   257
176
     0
 90
        1
176
     0
 90
        1
176
     0
 40
1.0
176
     0
 90
       10
176
     2
 62
     7
176
     0
 40
1.0
176
     0
 90
        1
176
     0
 90
        6
176
     0
 90
        2
176
     0
 62
     7
176
     0
 90
        5
176
     0
 90
        0
176
     0
 90
        0
176
     0
290
     0
176
     0
 90
        1
176
     0
 40
0.0
176
     0
 90
        0
176
     0
290
     0
176
     0
290
     1
176
     0
290
     1
176
     0
290
     0
176
     0
290
     0
176
     0
290
     0
176
     0
290
     0
176
     0
290
     0
176
     0
290
     0
176
     0
 90
       50
176
     0
 40
0.0
176
     0
 40
1.0
176
     0
 90
        0
176
     0
 62
    18
420
        0
176
     0
 90
       50
176
     0
 90
        3
176
     0
 62
     5
420
      255
176
     0
290
     0
176
     0
 90
       50
176
     0
 90
       50
176
     0
 90
       50
176
     0
290
     0
176
     0
 90
       50
176
     0
 62
   256
176
     0
 40
1.0
176
     0
 90
        2
176
     0
  1
strokes_ogs.tif
176
     0
290
     0
176
     0
 40
1.0
176
     0
 40
1.0
176
     0
  0
VISUALSTYLE
  5
1FAA
102
{ACAD_REACTORS
330
1F9C
102
}
330
1F9C
100
AcDbVisualStyle
  2
Linepattern
 70
    14
177
     3
291
     1
 70
    58
 90
        2
176
     1
 90
        2
176
     1
 90
        0
176
     1
 90
        0
176
     1
 40
0.6
176
     1
 40
30.0
176
     1
 62
     7
420
 16777215
176
     1
 90
        1
176
     1
 90
        4
176
     1
 62
     7
176
     1
 62
   257
176
     1
 90
        7
176
     1
 90
        7
176
     1
 40
1.0
176
     1
 90
        8
176
     1
 62
     7
176
     1
 40
1.0
176
     1
 90
        1
176
     1
 90
        6
176
     1
 90
        2
176
     1
 62
     7
176
     1
 90
        5
176
     1
 90
        0
176
     1
 90
        0
176
     1
290
     0
176
     1
 90
        1
176
     1
 40
0.0
176
     1
 90
        0
176
     1
290
     0
176
     1
290
     1
176
     1
290
     1
176
     1
290
     0
176
     1
290
     0
176
     1
290
     0
176
     1
290
     0
176
     1
290
     0
176
     1
290
     0
176
     1
 90
       50
176
     1
 40
0.0
176
     1
 40
1.0
176
     1
 90
        0
176
     1
 62
    18
420
        0
176
     1
 90
       50
176
     1
 90
        3
176
     1
 62
     5
420
      255
176
     1
290
     0
176
     1
 90
       50
176
     1
 90
       50
176
     1
 90
       50
176
     1
290
     0
176
     1
 90
       50
176
     1
 62
   256
176
     0
 40
1.0
176
     0
 90
        2
176
     1
  1
strokes_ogs.tif
176
     1
290
     0
176
     1
 40
1.0
176
     1
 40
1.0
176
     1
  0
VISUALSTYLE
  5
1FAE
102
{ACAD_REACTORS
330
1F9C
102
}
330
1F9C
100
AcDbVisualStyle
  2
OverhangOff
 70
    21
177
     3
291
     1
 70
    58
 90
        2
176
     0
 90
        2
176
     0
 90
        0
176
     0
 90
        0
176
     0
 40
0.6
176
     0
 40
30.0
176
     0
 62
     7
420
 16777215
176
     0
 90
        1
176
     0
 90
        4
176
     0
 62
     7
176
     0
 62
   257
176
     0
 90
        1
176
     0
 90
        1
176
     0
 40
1.0
176
     0
 90
        9
176
     2
 62
     7
176
     0
 40
1.0
176
     0
 90
        1
176
     0
 90
        6
176
     0
 90
        2
176
     0
 62
     7
176
     0
 90
        5
176
     0
 90
        0
176
     0
 90
        0
176
     0
290
     0
176
     0
 90
        1
176
     0
 40
0.0
176
     0
 90
        0
176
     0
290
     0
176
     0
290
     1
176
     0
290
     1
176
     0
290
     0
176
     0
290
     0
176
     0
290
     0
176
     0
290
     0
176
     0
290
     0
176
     0
290
     0
176
     0
 90
       50
176
     0
 40
0.0
176
     0
 40
1.0
176
     0
 90
        0
176
     0
 62
    18
420
        0
176
     0
 90
       50
176
     0
 90
        3
176
     0
 62
     5
420
      255
176
     0
290
     0
176
     0
 90
       50
176
     0
 90
       50
176
     0
 90
       50
176
     0
290
     0
176
     0
 90
       50
176
     0
 62
   256
176
     0
 40
1.0
176
     0
 90
        2
176
     0
  1
strokes_ogs.tif
176
     0
290
     0
176
     0
 40
1.0
176
     0
 40
1.0
176
     0
  0
VISUALSTYLE
  5
1FA5
102
{ACAD_REACTORS
330
1F9C
102
}
330
1F9C
100
AcDbVisualStyle
  2
Realistic
 70
     8
177
     3
291
     0
 70
    58
 90
        2
176
     1
 90
        3
176
     1
 90
        0
176
     1
 90
        2
176
     1
 40
0.6
176
     1
 40
30.0
176
     1
 62
     7
420
 16777215
176
     1
 90
        0
176
     1
 90
        0
176
     1
 62
     7
176
     1
 62
   257
176
     1
 90
        1
176
     1
 90
        1
176
     1
 40
1.0
176
     1
 90
        8
176
     1
 62
   257
176
     1
 40
1.0
176
     1
 90
        1
176
     1
 90
        6
176
     1
 90
        2
176
     1
 62
     7
176
     1
 90
        3
176
     1
 90
        0
176
     1
 90
        0
176
     1
290
     0
176
     1
 90
       13
176
     1
 40
0.0
176
     1
 90
        0
176
     1
290
     0
176
     1
290
     1
176
     1
290
     1
176
     1
290
     0
176
     1
290
     0
176
     1
290
     0
176
     1
290
     0
176
     1
290
     0
176
     1
290
     0
176
     1
 90
       50
176
     1
 40
0.0
176
     1
 40
1.0
176
     1
 90
        0
176
     1
 62
    18
420
        0
176
     1
 90
       50
176
     1
 90
        3
176
     1
 62
     5
420
      255
176
     1
290
     0
176
     1
 90
       50
176
     1
 90
       50
176
     1
 90
       50
176
     1
290
     0
176
     1
 90
       50
176
     1
 62
   256
176
     0
 40
1.0
176
     0
 90
        2
176
     1
  1
strokes_ogs.tif
176
     1
290
     0
176
     1
 40
1.0
176
     1
 40
1.0
176
     1
  0
VISUALSTYLE
  5
1FB4
102
{ACAD_REACTORS
330
1F9C
102
}
330
1F9C
100
AcDbVisualStyle
  2
Shaded
 70
    27
177
     3
291
     0
 70
    58
 90
        2
176
     1
 90
        2
176
     1
 90
        1
176
     1
 90
        2
176
     1
 40
0.6
176
     1
 40
30.0
176
     1
 62
     7
420
 16777215
176
     1
 90
        0
176
     1
 90
        4
176
     1
 62
     7
176
     1
 62
   257
176
     1
 90
        1
176
     1
 90
        1
176
     1
 40
1.0
176
     1
 90
        8
176
     1
 62
   257
176
     1
 40
1.0
176
     1
 90
        1
176
     1
 90
        6
176
     1
 90
        2
176
     1
 62
     8
420
  7895160
176
     1
 90
        3
176
     1
 90
        0
176
     1
 90
        0
176
     1
290
     0
176
     1
 90
        5
176
     1
 40
0.0
176
     1
 90
        0
176
     1
290
     0
176
     1
290
     1
176
     1
290
     1
176
     1
290
     0
176
     1
290
     0
176
     1
290
     0
176
     1
290
     0
176
     1
290
     0
176
     1
290
     0
176
     1
 90
       50
176
     1
 40
0.0
176
     1
 40
1.0
176
     1
 90
        0
176
     1
 62
    18
420
        0
176
     1
 90
       50
176
     1
 90
        3
176
     1
 62
     5
420
      255
176
     1
290
     0
176
     1
 90
       50
176
     1
 90
       50
176
     1
 90
       50
176
     1
290
     0
176
     1
 90
       50
176
     1
 62
   256
176
     0
 40
1.0
176
     0
 90
        2
176
     1
  1
strokes_ogs.tif
176
     1
290
     0
176
     1
 40
1.0
176
     1
 40
1.0
176
     1
  0
VISUALSTYLE
  5
1FB3
102
{ACAD_REACTORS
330
1F9C
102
}
330
1F9C
100
AcDbVisualStyle
  2
Shaded with edges
 70
    26
177
     3
291
     0
 70
    58
 90
        2
176
     1
 90
        2
176
     1
 90
        1
176
     1
 90
        2
176
     1
 40
0.6
176
     1
 40
30.0
176
     1
 62
     7
420
 16777215
176
     1
 90
        1
176
     1
 90
       10
176
     1
 62
     7
176
     1
 62
   257
176
     1
 90
        2
176
     1
 90
        1
176
     1
 40
1.0
176
     1
 90
        8
176
     1
 62
   257
176
     1
 40
1.0
176
     1
 90
        1
176
     1
 90
        6
176
     1
 90
        2
176
     1
 62
     7
176
     1
 90
        3
176
     1
 90
        0
176
     1
 90
        0
176
     1
290
     0
176
     1
 90
        5
176
     1
 40
0.0
176
     1
 90
        0
176
     1
290
     0
176
     1
290
     1
176
     1
290
     1
176
     1
290
     0
176
     1
290
     0
176
     1
290
     0
176
     1
290
     0
176
     1
290
     0
176
     1
290
     0
176
     1
 90
       50
176
     1
 40
0.0
176
     1
 40
1.0
176
     1
 90
        0
176
     1
 62
    18
420
        0
176
     1
 90
       50
176
     1
 90
        3
176
     1
 62
     5
420
      255
176
     1
290
     0
176
     1
 90
       50
176
     1
 90
       50
176
     1
 90
       50
176
     1
290
     0
176
     1
 90
       50
176
     1
 62
   256
176
     0
 40
1.0
176
     0
 90
        2
176
     1
  1
strokes_ogs.tif
176
     1
290
     0
176
     1
 40
1.0
176
     1
 40
1.0
176
     1
  0
VISUALSTYLE
  5
1FB0
102
{ACAD_REACTORS
330
1F9C
102
}
330
1F9C
100
AcDbVisualStyle
  2
Shades of Gray
 70
    23
177
     3
291
     0
 70
    58
 90
        2
176
     1
 90
        2
176
     1
 90
        3
176
     1
 90
        0
176
     1
 40
0.6
176
     1
 40
30.0
176
     1
 62
     7
420
 16777215
176
     1
 90
        2
176
     1
 90
        2
176
     1
 62
     7
176
     1
 62
     7
176
     1
 90
        1
176
     1
 90
        1
176
     1
 40
40.0
176
     1
 90
        8
176
     1
 62
     7
176
     1
 40
1.0
176
     1
 90
        1
176
     1
 90
        6
176
     1
 90
        2
176
     1
 62
     7
176
     1
 90
        3
176
     1
 90
        0
176
     1
 90
        0
176
     1
290
     0
176
     1
 90
        1
176
     1
 40
0.0
176
     1
 90
        0
176
     1
290
     0
176
     1
290
     1
176
     1
290
     1
176
     1
290
     0
176
     1
290
     0
176
     1
290
     0
176
     1
290
     0
176
     1
290
     0
176
     1
290
     0
176
     1
 90
       50
176
     1
 40
0.0
176
     1
 40
1.0
176
     1
 90
        0
176
     1
 62
    18
420
        0
176
     1
 90
       50
176
     1
 90
        3
176
     1
 62
     5
420
      255
176
     1
290
     0
176
     1
 90
       50
176
     1
 90
       50
176
     1
 90
       50
176
     1
290
     0
176
     1
 90
       50
176
     1
 62
   256
176
     0
 40
1.0
176
     0
 90
        2
176
     1
  1
strokes_ogs.tif
176
     1
290
     0
176
     1
 40
1.0
176
     1
 40
1.0
176
     1
  0
VISUALSTYLE
  5
1FB1
102
{ACAD_REACTORS
330
1F9C
102
}
330
1F9C
100
AcDbVisualStyle
  2
Sketchy
 70
    24
177
     3
291
     0
 70
    58
 90
        1
176
     1
 90
        2
176
     1
 90
        2
176
     1
 90
        0
176
     1
 40
0.6
176
     1
 40
30.0
176
     1
 62
     7
420
 16777215
176
     1
 90
        2
176
     1
 90
        2
176
     1
 62
     7
176
     1
 62
     7
176
     1
 90
        1
176
     1
 90
        1
176
     1
 40
40.0
176
     1
 90
       11
176
     1
 62
     7
176
     1
 40
1.0
176
     1
 90
        1
176
     1
 90
        6
176
     1
 90
        2
176
     1
 62
     7
176
     1
 90
        6
176
     1
 90
        0
176
     1
 90
        0
176
     1
290
     0
176
     1
 90
        1
176
     1
 40
0.0
176
     1
 90
        0
176
     1
290
     0
176
     1
290
     1
176
     1
290
     1
176
     1
290
     0
176
     1
290
     0
176
     1
290
     0
176
     1
290
     0
176
     1
290
     0
176
     1
290
     0
176
     1
 90
       50
176
     1
 40
0.0
176
     1
 40
1.0
176
     1
 90
        0
176
     1
 62
    18
420
        0
176
     1
 90
       50
176
     1
 90
        3
176
     1
 62
     5
420
      255
176
     1
290
     0
176
     1
 90
       50
176
     1
 90
       50
176
     1
 90
       50
176
     1
290
     0
176
     1
 90
       50
176
     1
 62
   256
176
     0
 40
1.0
176
     0
 90
        2
176
     1
  1
strokes_ogs.tif
176
     1
290
     0
176
     1
 40
1.0
176
     1
 40
1.0
176
     1
  0
VISUALSTYLE
  5
1FA9
102
{ACAD_REACTORS
330
1F9C
102
}
330
1F9C
100
AcDbVisualStyle
  2
Thicken
 70
    13
177
     3
291
     1
 70
    58
 90
        2
176
     1
 90
        2
176
     1
 90
        0
176
     1
 90
        0
176
     1
 40
0.6
176
     1
 40
30.0
176
     1
 62
     7
420
 16777215
176
     1
 90
        1
176
     1
 90
        4
176
     1
 62
     7
176
     1
 62
   257
176
     1
 90
        1
176
     1
 90
        1
176
     1
 40
1.0
176
     1
 90
       12
176
     1
 62
     7
176
     1
 40
1.0
176
     1
 90
        1
176
     1
 90
        6
176
     1
 90
        2
176
     1
 62
     7
176
     1
 90
        5
176
     1
 90
        0
176
     1
 90
        0
176
     1
290
     0
176
     1
 90
        1
176
     1
 40
0.0
176
     1
 90
        0
176
     1
290
     0
176
     1
290
     1
176
     1
290
     1
176
     1
290
     0
176
     1
290
     0
176
     1
290
     0
176
     1
290
     0
176
     1
290
     0
176
     1
290
     0
176
     1
 90
       50
176
     1
 40
0.0
176
     1
 40
1.0
176
     1
 90
        0
176
     1
 62
    18
420
        0
176
     1
 90
       50
176
     1
 90
        3
176
     1
 62
     5
420
      255
176
     1
290
     0
176
     1
 90
       50
176
     1
 90
       50
176
     1
 90
       50
176
     1
290
     0
176
     1
 90
       50
176
     1
 62
   256
176
     0
 40
1.0
176
     0
 90
        2
176
     1
  1
strokes_ogs.tif
176
     1
290
     0
176
     1
 40
1.0
176
     1
 40
1.0
176
     1
  0
VISUALSTYLE
  5
1FA2
102
{ACAD_REACTORS
330
1F9C
102
}
330
1F9C
100
AcDbVisualStyle
  2
Wireframe
 70
     5
177
     3
291
     0
 70
    58
 90
        0
176
     1
 90
        2
176
     1
 90
        0
176
     1
 90
        0
176
     1
 40
0.6
176
     1
 40
30.0
176
     1
 62
     7
420
 16777215
176
     1
 90
        1
176
     1
 90
        4
176
     1
 62
     7
176
     1
 62
   257
176
     1
 90
        1
176
     1
 90
        1
176
     1
 40
1.0
176
     1
 90
        0
176
     1
 62
   257
176
     1
 40
1.0
176
     1
 90
        1
176
     1
 90
        6
176
     1
 90
        2
176
     1
 62
     7
176
     1
 90
        3
176
     1
 90
        0
176
     1
 90
        0
176
     1
290
     0
176
     1
 90
        1
176
     1
 40
0.0
176
     1
 90
        0
176
     1
290
     0
176
     1
290
     1
176
     1
290
     1
176
     1
290
     0
176
     1
290
     0
176
     1
290
     0
176
     1
290
     0
176
     1
290
     0
176
     1
290
     0
176
     1
 90
       50
176
     1
 40
0.0
176
     1
 40
1.0
176
     1
 90
        0
176
     1
 62
    18
420
        0
176
     1
 90
       50
176
     1
 90
        3
176
     1
 62
     5
420
      255
176
     1
290
     0
176
     1
 90
       50
176
     1
 90
       50
176
     1
 90
       50
176
     1
290
     0
176
     1
 90
       50
176
     1
 62
   256
176
     0
 40
1.0
176
     0
 90
        2
176
     1
  1
strokes_ogs.tif
176
     1
290
     0
176
     1
 40
1.0
176
     1
 40
1.0
176
     1
  0
VISUALSTYLE
  5
1FB2
102
{ACAD_REACTORS
330
1F9C
102
}
330
1F9C
100
AcDbVisualStyle
  2
X-Ray
 70
    25
177
     3
291
     0
 70
    58
 90
        2
176
     1
 90
        2
176
     1
 90
        1
176
     1
 90
        1
176
     1
 40
0.5
176
     1
 40
30.0
176
     1
 62
     7
420
 16777215
176
     1
 90
        1
176
     1
 90
        0
176
     1
 62
     7
176
     1
 62
   257
176
     1
 90
        1
176
     1
 90
        1
176
     1
 40
1.0
176
     1
 90
        8
176
     1
 62
     7
176
     1
 40
1.0
176
     1
 90
        1
176
     1
 90
        6
176
     1
 90
        2
176
     1
 62
     7
176
     1
 90
        3
176
     1
 90
        0
176
     1
 90
        0
176
     1
290
     0
176
     1
 90
       13
176
     1
 40
0.0
176
     1
 90
        0
176
     1
290
     0
176
     1
290
     1
176
     1
290
     1
176
     1
290
     0
176
     1
290
     0
176
     1
290
     0
176
     1
290
     0
176
     1
290
     0
176
     1
290
     0
176
     1
 90
       50
176
     1
 40
0.0
176
     1
 40
1.0
176
     1
 90
        0
176
     1
 62
    18
420
        0
176
     1
 90
       50
176
     1
 90
        3
176
     1
 62
     5
420
      255
176
     1
290
     0
176
     1
 90
       50
176
     1
 90
       50
176
     1
 90
       50
176
     1
290
     0
176
     1
 90
       50
176
     1
 62
   256
176
     0
 40
1.0
176
     0
 90
        2
176
     1
  1
strokes_ogs.tif
176
     1
290
     0
176
     1
 40
1.0
176
     1
 40
1.0
176
     1
  0
DICTIONARYVAR
  5
206F
102
{ACAD_REACTORS
330
206E
102
}
330
206E
100
DictionaryVariables
280
     0
  1
1:1
  0
DICTIONARYVAR
  5
2074
102
{ACAD_REACTORS
330
206E
102
}
330
206E
100
DictionaryVariables
280
     0
  1
Standard
  0
DICTIONARYVAR
  5
2073
102
{ACAD_REACTORS
330
206E
102
}
330
206E
100
DictionaryVariables
280
     0
  1
Standard
  0
XRECORD
  5
1FE3
102
{ACAD_REACTORS
330
1FE1
102
}
330
1FE1
100
AcDbXrecord
280
     1
1000
GCodeMM
  0
XRECORD
  5
1FE4
102
{ACAD_REACTORS
330
1FE1
102
}
330
1FE1
100
AcDbXrecord
280
     1
1000
#ffffff
  0
XRECORD
  5
1FE5
102
{ACAD_REACTORS
330
1FE1
102
}
330
1FE1
100
AcDbXrecord
280
     1
1000
BlackWhite
  0
XRECORD
  5
1FE6
102
{ACAD_REACTORS
330
1FE1
102
}
330
1FE1
100
AcDbXrecord
280
     1
 90
        0
  0
XRECORD
  5
1FE7
102
{ACAD_REACTORS
330
1FE1
102
}
330
1FE1
100
AcDbXrecord
280
     1
 90
        0
  0
XRECORD
  5
1FE8
102
{ACAD_REACTORS
330
1FE1
102
}
330
1FE1
100
AcDbXrecord
280
     1
 90
       46
  0
XRECORD
  5
1FE9
102
{ACAD_REACTORS
330
1FE1
102
}
330
1FE1
100
AcDbXrecord
280
     1
1000
Standard
  0
XRECORD
  5
1FEA
102
{ACAD_REACTORS
330
1FE1
102
}
330
1FE1
100
AcDbXrecord
280
     1
290
     1
  0
XRECORD
  5
1FEB
102
{ACAD_REACTORS
330
1FE1
102
}
330
1FE1
100
AcDbXrecord
280
     1
 90
        2
  0
XRECORD
  5
1FEC
102
{ACAD_REACTORS
330
1FE1
102
}
330
1FE1
100
AcDbXrecord
280
     1
 90
        4
  0
XRECORD
  5
1FED
102
{ACAD_REACTORS
330
1FE1
102
}
330
1FE1
100
AcDbXrecord
280
     1
290
     0
  0
XRECORD
  5
1FEE
102
{ACAD_REACTORS
330
1FE1
102
}
330
1FE1
100
AcDbXrecord
280
     1
290
     1
  0
XRECORD
  5
1FEF
102
{ACAD_REACTORS
330
1FE1
102
}
330
1FE1
100
AcDbXrecord
280
     1
290
     1
  0
XRECORD
  5
1FF0
102
{ACAD_REACTORS
330
1FE1
102
}
330
1FE1
100
AcDbXrecord
280
     1
290
     1
  0
XRECORD
  5
1FF1
102
{ACAD_REACTORS
330
1FE1
102
}
330
1FE1
100
AcDbXrecord
280
     1
1000
auto
  0
XRECORD
  5
1FF2
102
{ACAD_REACTORS
330
1FE1
102
}
330
1FE1
100
AcDbXrecord
280
     1
1000
auto
  0
XRECORD
  5
1FF3
102
{ACAD_REACTORS
330
1FE1
102
}
330
1FE1
100
AcDbXrecord
280
     1
1000
auto
  0
XRECORD
  5
1FF4
102
{ACAD_REACTORS
330
1FE1
102
}
330
1FE1
100
AcDbXrecord
280
     1
1000
auto
  0
XRECORD
  5
1FF5
102
{ACAD_REACTORS
330
1FE1
102
}
330
1FE1
100
AcDbXrecord
280
     1
1000
auto
  0
XRECORD
  5
1FF6
102
{ACAD_REACTORS
330
1FE1
102
}
330
1FE1
100
AcDbXrecord
280
     1
1000
auto
  0
XRECORD
  5
1FF7
102
{ACAD_REACTORS
330
1FE1
102
}
330
1FE1
100
AcDbXrecord
280
     1
1000
auto
  0
XRECORD
  5
1FF8
102
{ACAD_REACTORS
330
1FE1
102
}
330
1FE1
100
AcDbXrecord
280
     1
1000
auto
  0
XRECORD
  5
1FF9
102
{ACAD_REACTORS
330
1FE1
102
}
330
1FE1
100
AcDbXrecord
280
     1
290
     0
  0
XRECORD
  5
1FFA
102
{ACAD_REACTORS
330
1FE1
102
}
330
1FE1
100
AcDbXrecord
280
     1
290
     0
  0
XRECORD
  5
1FFB
102
{ACAD_REACTORS
330
1FE1
102
}
330
1FE1
100
AcDbXrecord
280
     1
290
     0
  0
XRECORD
  5
1FFC
102
{ACAD_REACTORS
330
1FE1
102
}
330
1FE1
100
AcDbXrecord
280
     1
290
     0
  0
XRECORD
  5
1FFD
102
{ACAD_REACTORS
330
1FE1
102
}
330
1FE1
100
AcDbXrecord
280
     1
 90
    65537
  0
XRECORD
  5
1FFE
102
{ACAD_REACTORS
330
1FE1
102
}
330
1FE1
100
AcDbXrecord
280
     1
 90
    65537
  0
XRECORD
  5
1FFF
102
{ACAD_REACTORS
330
1FE1
102
}
330
1FE1
100
AcDbXrecord
280
     1
 90
    65537
  0
XRECORD
  5
2000
102
{ACAD_REACTORS
330
1FE1
102
}
330
1FE1
100
AcDbXrecord
280
     1
 90
    65537
  0
XRECORD
  5
2001
102
{ACAD_REACTORS
330
1FE1
102
}
330
1FE1
100
AcDbXrecord
280
     1
1000
auto
  0
XRECORD
  5
2002
102
{ACAD_REACTORS
330
1FE1
102
}
330
1FE1
100
AcDbXrecord
280
     1
1000
auto
  0
XRECORD
  5
2003
102
{ACAD_REACTORS
330
1FE1
102
}
330
1FE1
100
AcDbXrecord
280
     1
1000
auto
  0
XRECORD
  5
2004
102
{ACAD_REACTORS
330
1FE1
102
}
330
1FE1
100
AcDbXrecord
280
     1
1000
auto
  0
XRECORD
  5
2005
102
{ACAD_REACTORS
330
1FE1
102
}
330
1FE1
100
AcDbXrecord
280
     1
1000
auto
  0
XRECORD
  5
2006
102
{ACAD_REACTORS
330
1FE1
102
}
330
1FE1
100
AcDbXrecord
280
     1
1000
auto
  0
XRECORD
  5
2007
102
{ACAD_REACTORS
330
1FE1
102
}
330
1FE1
100
AcDbXrecord
280
     1
1000
auto
  0
XRECORD
  5
2008
102
{ACAD_REACTORS
330
1FE1
102
}
330
1FE1
100
AcDbXrecord
280
     1
1000
auto
  0
XRECORD
  5
2009
102
{ACAD_REACTORS
330
1FE1
102
}
330
1FE1
100
AcDbXrecord
280
     1
 90
        1
  0
XRECORD
  5
200A
102
{ACAD_REACTORS
330
1FE1
102
}
330
1FE1
100
AcDbXrecord
280
     1
 40
10.0
  0
XRECORD
  5
200B
102
{ACAD_REACTORS
330
1FE1
102
}
330
1FE1
100
AcDbXrecord
280
     1
 40
10.0
  0
XRECORD
  5
200C
102
{ACAD_REACTORS
330
1FE1
102
}
330
1FE1
100
AcDbXrecord
280
     1
 40
10.0
  0
XRECORD
  5
200D
102
{ACAD_REACTORS
330
1FE1
102
}
330
1FE1
100
AcDbXrecord
280
     1
 40
10.0
  0
XRECORD
  5
200E
102
{ACAD_REACTORS
330
1FE1
102
}
330
1FE1
100
AcDbXrecord
280
     1
290
     0
  0
XRECORD
  5
200F
102
{ACAD_REACTORS
330
1FE1
102
}
330
1FE1
100
AcDbXrecord
280
     1
 90
        1
  0
XRECORD
  5
2010
102
{ACAD_REACTORS
330
1FE1
102
}
330
1FE1
100
AcDbXrecord
280
     1
 40
8948.9688
  0
XRECORD
  5
2011
102
{ACAD_REACTORS
330
1FE1
102
}
330
1FE1
100
AcDbXrecord
280
     1
 40
-1086.14622857143
  0
XRECORD
  5
2012
102
{ACAD_REACTORS
330
1FE1
102
}
330
1FE1
100
AcDbXrecord
280
     1
1000
Portrait
  0
XRECORD
  5
2013
102
{ACAD_REACTORS
330
1FE1
102
}
330
1FE1
100
AcDbXrecord
280
     1
 40
297.0
  0
XRECORD
  5
2014
102
{ACAD_REACTORS
330
1FE1
102
}
330
1FE1
100
AcDbXrecord
280
     1
1000
ISO A4
  0
XRECORD
  5
2015
102
{ACAD_REACTORS
330
1FE1
102
}
330
1FE1
100
AcDbXrecord
280
     1
 40
210.0
  0
XRECORD
  5
2016
102
{ACAD_REACTORS
330
1FE1
102
}
330
1FE1
100
AcDbXrecord
280
     1
1000
0.5
  0
XRECORD
  5
2017
102
{ACAD_REACTORS
330
1FE1
102
}
330
1FE1
100
AcDbXrecord
280
     1
1000
0.175
  0
XRECORD
  5
2018
102
{ACAD_REACTORS
330
1FE1
102
}
330
1FE1
100
AcDbXrecord
280
     1
290
     1
  0
XRECORD
  5
2019
102
{ACAD_REACTORS
330
1FE1
102
}
330
1FE1
100
AcDbXrecord
280
     1
290
     0
  0
XRECORD
  5
201A
102
{ACAD_REACTORS
330
1FE1
102
}
330
1FE1
100
AcDbXrecord
280
     1
1000
3.21.3
  0
XRECORD
  5
201B
102
{ACAD_REACTORS
330
1FE1
102
}
330
1FE1
100
AcDbXrecord
280
     1
 90
        4
  0
XRECORD
  5
201C
102
{ACAD_REACTORS
330
1FE1
102
}
330
1FE1
100
AcDbXrecord
280
     1
  0
XRECORD
  5
201D
102
{ACAD_REACTORS
330
1FE1
102
}
330
1FE1
100
AcDbXrecord
280
     1
 40
920.4535294117662
  0
XRECORD
  5
201E
102
{ACAD_REACTORS
330
1FE1
102
}
330
1FE1
100
AcDbXrecord
280
     1
 40
1473.328235294121
  0
DICTIONARY
  5
2070
330
1FDC
100
AcDbDictionary
280
     1
281
     1
  3
ACAD_ROUNDTRIP_2008_TABLESTYLE_CELLSTYLEMAP
360
2071
  0
CELLSTYLEMAP
  5
2071
102
{ACAD_REACTORS
330
2070
102
}
330
2070
100
AcDbCellStyleMap
 90
        3
300
CELLSTYLE
  1
TABLEFORMAT_BEGIN
 90
        5
170
     1
 91
        0
 92
    32768
 62
   257
 93
        1
300
CONTENTFORMAT
  1
CONTENTFORMAT_BEGIN
 90
        0
 91
        0
 92
        4
 93
        0
300

 40
0.0
140
1.0
 94
        5
 62
     0
340
1F84
144
0.25
309
CONTENTFORMAT_END
171
     1
301
MARGIN
  1
CELLMARGIN_BEGIN
 40
0.06
 40
0.06
 40
0.06
 40
0.06
 40
0.06
 40
0.06
309
CELLMARGIN_END
 94
        6
 95
        1
302
GRIDFORMAT
  1
GRIDFORMAT_BEGIN
 90
        0
 91
        1
 62
     0
 92
       -2
340
1F86
 93
        0
 40
0.045
309
GRIDFORMAT_END
 95
        2
302
GRIDFORMAT
  1
GRIDFORMAT_BEGIN
 90
        0
 91
        1
 62
     0
 92
       -2
340
1F86
 93
        0
 40
0.045
309
GRIDFORMAT_END
 95
        4
302
GRIDFORMAT
  1
GRIDFORMAT_BEGIN
 90
        0
 91
        1
 62
     0
 92
       -2
340
1F86
 93
        0
 40
0.045
309
GRIDFORMAT_END
 95
        8
302
GRIDFORMAT
  1
GRIDFORMAT_BEGIN
 90
        0
 91
        1
 62
     0
 92
       -2
340
1F86
 93
        0
 40
0.045
309
GRIDFORMAT_END
 95
       16
302
GRIDFORMAT
  1
GRIDFORMAT_BEGIN
 90
        0
 91
        1
 62
     0
 92
       -2
340
1F86
 93
        0
 40
0.045
309
GRIDFORMAT_END
 95
       32
302
GRIDFORMAT
  1
GRIDFORMAT_BEGIN
 90
        0
 91
        1
 62
     0
 92
       -2
340
1F86
 93
        0
 40
0.045
309
GRIDFORMAT_END
309
TABLEFORMAT_END
  1
CELLSTYLE_BEGIN
 90
        1
 91
        1
300
_TITLE
309
CELLSTYLE_END
300
CELLSTYLE
  1
TABLEFORMAT_BEGIN
 90
        5
170
     1
 91
        0
 92
        0
 62
   257
 93
        1
300
CONTENTFORMAT
  1
CONTENTFORMAT_BEGIN
 90
        0
 91
        0
 92
        4
 93
        0
300

 40
0.0
140
1.0
 94
        5
 62
     0
340
1F84
144
0.18
309
CONTENTFORMAT_END
171
     1
301
MARGIN
  1
CELLMARGIN_BEGIN
 40
0.06
 40
0.06
 40
0.06
 40
0.06
 40
0.06
 40
0.06
309
CELLMARGIN_END
 94
        6
 95
        1
302
GRIDFORMAT
  1
GRIDFORMAT_BEGIN
 90
        0
 91
        1
 62
     0
 92
       -2
340
1F86
 93
        0
 40
0.045
309
GRIDFORMAT_END
 95
        2
302
GRIDFORMAT
  1
GRIDFORMAT_BEGIN
 90
        0
 91
        1
 62
     0
 92
       -2
340
1F86
 93
        0
 40
0.045
309
GRIDFORMAT_END
 95
        4
302
GRIDFORMAT
  1
GRIDFORMAT_BEGIN
 90
        0
 91
        1
 62
     0
 92
       -2
340
1F86
 93
        0
 40
0.045
309
GRIDFORMAT_END
 95
        8
302
GRIDFORMAT
  1
GRIDFORMAT_BEGIN
 90
        0
 91
        1
 62
     0
 92
       -2
340
1F86
 93
        0
 40
0.045
309
GRIDFORMAT_END
 95
       16
302
GRIDFORMAT
  1
GRIDFORMAT_BEGIN
 90
        0
 91
        1
 62
     0
 92
       -2
340
1F86
 93
        0
 40
0.045
309
GRIDFORMAT_END
 95
       32
302
GRIDFORMAT
  1
GRIDFORMAT_BEGIN
 90
        0
 91
        1
 62
     0
 92
       -2
340
1F86
 93
        0
 40
0.045
309
GRIDFORMAT_END
309
TABLEFORMAT_END
  1
CELLSTYLE_BEGIN
 90
        2
 91
        1
300
_HEADER
309
CELLSTYLE_END
300
CELLSTYLE
  1
TABLEFORMAT_BEGIN
 90
        5
170
     1
 91
        0
 92
        0
 62
   257
 93
        1
300
CONTENTFORMAT
  1
CONTENTFORMAT_BEGIN
 90
        0
 91
        0
 92
        4
 93
        0
300

 40
0.0
140
1.0
 94
        2
 62
     0
340
1F84
144
0.18
309
CONTENTFORMAT_END
171
     1
301
MARGIN
  1
CELLMARGIN_BEGIN
 40
0.06
 40
0.06
 40
0.06
 40
0.06
 40
0.06
 40
0.06
309
CELLMARGIN_END
 94
        6
 95
        1
302
GRIDFORMAT
  1
GRIDFORMAT_BEGIN
 90
        0
 91
        1
 62
     0
 92
       -2
340
1F86
 93
        0
 40
0.045
309
GRIDFORMAT_END
 95
        2
302
GRIDFORMAT
  1
GRIDFORMAT_BEGIN
 90
        0
 91
        1
 62
     0
 92
       -2
340
1F86
 93
        0
 40
0.045
309
GRIDFORMAT_END
 95
        4
302
GRIDFORMAT
  1
GRIDFORMAT_BEGIN
 90
        0
 91
        1
 62
     0
 92
       -2
340
1F86
 93
        0
 40
0.045
309
GRIDFORMAT_END
 95
        8
302
GRIDFORMAT
  1
GRIDFORMAT_BEGIN
 90
        0
 91
        1
 62
     0
 92
       -2
340
1F86
 93
        0
 40
0.045
309
GRIDFORMAT_END
 95
       16
302
GRIDFORMAT
  1
GRIDFORMAT_BEGIN
 90
        0
 91
        1
 62
     0
 92
       -2
340
1F86
 93
        0
 40
0.045
309
GRIDFORMAT_END
 95
       32
302
GRIDFORMAT
  1
GRIDFORMAT_BEGIN
 90
        0
 91
        1
 62
     0
 92
       -2
340
1F86
 93
        0
 40
0.045
309
GRIDFORMAT_END
309
TABLEFORMAT_END
  1
CELLSTYLE_BEGIN
 90
        3
 91
        2
300
_DATA
309
CELLSTYLE_END
  0
ENDSEC
  0
EOF
