999
dxfrw 0.6.3
  0
SECTION
  2
HEADER
  9
$ACADVER
  1
AC1021
  9
$DWGCODEPAGE
  3
ANSI_1252
  9
$INSBASE
 10
0
 20
0
 30
0
  9
$EXTMIN
 10
-604.8214115863307
 20
-1081.723219656477
 30
0
  9
$EXTMAX
 10
1820
 20
1900
 30
0
  9
$LIMMIN
 10
0
 20
0
  9
$LIMMAX
 10
420
 20
297
  9
$ORTHOMODE
 70
    0
  9
$REGENMODE
 70
    1
  9
$FILLMODE
 70
    1
  9
$QTEXTMODE
 70
    0
  9
$MIRRTEXT
 70
    0
  9
$LTSCALE
 40
1
  9
$ATTMODE
 70
    0
  9
$TEXTSIZE
 40
2.5
  9
$TRACEWID
 40
15.68
  9
$TEXTSTYLE
  7
STANDARD
  9
$CLAYER
  8
0
  9
$CELTYPE
  6
BYLAYER
  9
$CECOLOR
 62
  256
  9
$CELTSCALE
 40
1
  9
$DISPSILH
 70
    0
  9
$DIMSCALE
 40
1
  9
$DIMASZ
 40
5
  9
$DIMEXO
 40
0.625
  9
$DIMDLI
 40
3.75
  9
$DIMRND
 40
0
  9
$DIMDLE
 40
0
  9
$DIMEXE
 40
1.25
  9
$DIMTP
 40
0
  9
$DIMTM
 40
0
  9
$DIMTXT
 40
5
  9
$DIMCEN
 40
2.5
  9
$DIMTSZ
 40
0
  9
$DIMTOL
 70
    0
  9
$DIMLIM
 70
    0
  9
$DIMTIH
 70
    0
  9
$DIMTOH
 70
    0
  9
$DIMSE1
 70
    0
  9
$DIMSE2
 70
    0
  9
$DIMTAD
 70
    1
  9
$DIMZIN
 70
    8
  9
$DIMBLK
  1

  9
$DIMASO
 70
    1
  9
$DIMSHO
 70
    1
  9
$DIMPOST
  1

  9
$DIMAPOST
  1

  9
$DIMALT
 70
    0
  9
$DIMALTD
 70
    3
  9
$DIMALTF
 40
0.03937
  9
$DIMLFAC
 40
1
  9
$DIMTOFL
 70
    1
  9
$DIMTVP
 40
0
  9
$DIMTIX
 70
    0
  9
$DIMSOXD
 70
    0
  9
$DIMSAH
 70
    0
  9
$DIMBLK1
  1

  9
$DIMBLK2
  1

  9
$DIMSTYLE
  2
STANDARD
  9
$DIMCLRD
 70
    0
  9
$DIMCLRE
 70
    0
  9
$DIMCLRT
 70
    0
  9
$DIMTFAC
 40
1
  9
$DIMGAP
 40
0.625
  9
$DIMJUST
 70
    0
  9
$DIMSD1
 70
    0
  9
$DIMSD2
 70
    0
  9
$DIMTOLJ
 70
    0
  9
$DIMTZIN
 70
    8
  9
$DIMALTZ
 70
    0
  9
$DIMALTTZ
 70
    0
  9
$DIMUPT
 70
    0
  9
$DIMDEC
 70
    4
  9
$DIMTDEC
 70
    2
  9
$DIMALTU
 70
    2
  9
$DIMALTTD
 70
    3
  9
$DIMTXSTY
  7
standard
  9
$DIMAUNIT
 70
    0
  9
$DIMADEC
 70
    0
  9
$DIMALTRND
 40
0
  9
$DIMAZIN
 70
    0
  9
$DIMDSEP
 70
   44
  9
$DIMATFIT
 70
    3
  9
$DIMFRAC
 70
    0
  9
$DIMLDRBLK
  1
STANDARD
  9
$DIMLUNIT
 70
    2
  9
$DIMLWD
 70
   -2
  9
$DIMLWE
 70
   -2
  9
$DIMTMOVE
 70
    0
  9
$DIMFXL
 40
1
  9
$DIMFXLON
 70
    0
  9
$DIMJOGANG
 40
0.7854
  9
$DIMTFILL
 70
    0
  9
$DIMTFILLCLR
 70
    0
  9
$DIMARCSYM
 70
    0
  9
$DIMLTYPE
  6

  9
$DIMLTEX1
  6

  9
$DIMLTEX2
  6

  9
$LUNITS
 70
    2
  9
$LUPREC
 70
    4
  9
$SKETCHINC
 40
1
  9
$FILLETRAD
 40
0
  9
$AUNITS
 70
    0
  9
$AUPREC
 70
    2
  9
$MENU
  1
.
  9
$ELEVATION
 40
0
  9
$PELEVATION
 40
0
  9
$THICKNESS
 40
0
  9
$LIMCHECK
 70
    0
  9
$CHAMFERA
 40
0
  9
$CHAMFERB
 40
0
  9
$CHAMFERC
 40
0
  9
$CHAMFERD
 40
0
  9
$SKPOLY
 70
    0
  9
$USRTIMER
 70
    1
  9
$ANGBASE
 50
0
  9
$ANGDIR
 70
    0
  9
$PDMODE
 70
   34
  9
$PDSIZE
 40
0
  9
$PLINEWID
 40
0
  9
$SPLFRAME
 70
    0
  9
$SPLINETYPE
 70
    2
  9
$SPLINESEGS
 70
    8
  9
$HANDSEED
  5
20000
  9
$SURFTAB1
 70
    6
  9
$SURFTAB2
 70
    6
  9
$SURFTYPE
 70
    6
  9
$SURFU
 70
    6
  9
$SURFV
 70
    6
  9
$UCSBASE
  2

  9
$UCSNAME
  2

  9
$UCSORG
 10
0
 20
0
 30
0
  9
$UCSXDIR
 10
1
 20
0
 30
0
  9
$UCSYDIR
 10
0
 20
1
 30
0
  9
$UCSORTHOREF
  2

  9
$UCSORTHOVIEW
 70
    0
  9
$UCSORGTOP
 10
0
 20
0
 30
0
  9
$UCSORGBOTTOM
 10
0
 20
0
 30
0
  9
$UCSORGLEFT
 10
0
 20
0
 30
0
  9
$UCSORGRIGHT
 10
0
 20
0
 30
0
  9
$UCSORGFRONT
 10
0
 20
0
 30
0
  9
$UCSORGBACK
 10
0
 20
0
 30
0
  9
$PUCSBASE
  2

  9
$PUCSNAME
  2

  9
$PUCSORG
 10
0
 20
0
 30
0
  9
$PUCSXDIR
 10
1
 20
0
 30
0
  9
$PUCSYDIR
 10
0
 20
1
 30
0
  9
$PUCSORTHOREF
  2

  9
$PUCSORTHOVIEW
 70
    0
  9
$PUCSORGTOP
 10
0
 20
0
 30
0
  9
$PUCSORGBOTTOM
 10
0
 20
0
 30
0
  9
$PUCSORGLEFT
 10
0
 20
0
 30
0
  9
$PUCSORGRIGHT
 10
0
 20
0
 30
0
  9
$PUCSORGFRONT
 10
0
 20
0
 30
0
  9
$PUCSORGBACK
 10
0
 20
0
 30
0
  9
$USERI1
 70
    0
  9
$USERI2
 70
    0
  9
$USERI3
 70
    0
  9
$USERI4
 70
    0
  9
$USERI5
 70
    0
  9
$USERR1
 40
0
  9
$USERR2
 40
0
  9
$USERR3
 40
0
  9
$USERR4
 40
0
  9
$USERR5
 40
0
  9
$WORLDVIEW
 70
    1
  9
$SHADEDGE
 70
    3
  9
$SHADEDIF
 70
   70
  9
$TILEMODE
 70
    1
  9
$MAXACTVP
 70
   64
  9
$PINSBASE
 10
768.5150715768866
 20
-506.9423177620804
 30
0
  9
$PLIMCHECK
 70
    0
  9
$PEXTMIN
 10
0
 20
0
 30
0
  9
$PEXTMAX
 10
0
 20
0
 30
0
  9
$GRIDMODE
 70
    0
  9
$SNAPSTYLE
 70
    0
  9
$GRIDUNIT
 10
0
 20
0
  9
$PLIMMIN
 10
0
 20
0
  9
$PLIMMAX
 10
1189
 20
841
  9
$UNITMODE
 70
    0
  9
$VISRETAIN
 70
    1
  9
$PLINEGEN
 70
    0
  9
$PSLTSCALE
 70
    1
  9
$TREEDEPTH
 70
 3020
  9
$CMLSTYLE
  2
Standard
  9
$CMLJUST
 70
    0
  9
$CMLSCALE
 40
20
  9
$PROXYGRAPHICS
 70
    1
  9
$MEASUREMENT
 70
    1
  9
$CELWEIGHT
370
   -1
  9
$ENDCAPS
280
    0
  9
$JOINSTYLE
280
    0
  9
$LWDISPLAY
290
    0
  9
$INSUNITS
 70
    4
  9
$HYPERLINKBASE
  1

  9
$STYLESHEET
  1

  9
$XEDIT
290
    1
  9
$CEPSNTYPE
380
    0
  9
$PSTYLEMODE
290
    1
  9
$EXTNAMES
290
    1
  9
$PSVPSCALE
 40
1
  9
$OLESTARTUP
290
    0
  9
$SORTENTS
280
  127
  9
$INDEXCTL
280
    0
  9
$HIDETEXT
280
    1
  9
$XCLIPFRAME
290
    0
  9
$HALOGAP
280
    0
  9
$OBSCOLOR
 70
  257
  9
$OBSLTYPE
280
    0
  9
$INTERSECTIONDISPLAY
280
    0
  9
$INTERSECTIONCOLOR
 70
  257
  9
$DIMASSOC
280
    1
  9
$PROJECTNAME
  1

  9
$CAMERADISPLAY
290
    0
  9
$LENSLENGTH
 40
50
  9
$CAMERAHEIGHT
 40
0
  9
$STEPSPERSEC
 40
2
  9
$STEPSIZE
 40
50
  9
$3DDWFPREC
 40
2
  9
$PSOLWIDTH
 40
5
  9
$PSOLHEIGHT
 40
80
  9
$LOFTANG1
 40
1.570796326794897
  9
$LOFTANG2
 40
1.570796326794897
  9
$LOFTMAG1
 40
0
  9
$LOFTMAG2
 40
0
  9
$LOFTPARAM
 70
    7
  9
$LOFTNORMALS
280
    1
  9
$LATITUDE
 40
1
  9
$LONGITUDE
 40
1
  9
$NORTHDIRECTION
 40
0
  9
$TIMEZONE
 70
-8000
  9
$LIGHTGLYPHDISPLAY
280
    1
  9
$TILEMODELIGHTSYNCH
280
    1
  9
$SOLIDHIST
280
    1
  9
$SHOWHIST
280
    1
  9
$DWFFRAME
280
    2
  9
$DGNFRAME
280
    0
  9
$REALWORLDSCALE
290
    1
  9
$INTERFERECOLOR
 62
    1
  9
$CSHADOW
280
    0
  9
$SHADOWPLANELOCATION
 40
0
  0
ENDSEC
  0
SECTION
  2
CLASSES
  0
ENDSEC
  0
SECTION
  2
TABLES
  0
TABLE
  2
VPORT
  5
8
330
0
100
AcDbSymbolTable
 70
    1
  0
VPORT
  5
31
330
2
100
AcDbSymbolTableRecord
100
AcDbViewportTableRecord
  2
*ACTIVE
 70
    0
 10
0
 20
0
 11
1
 21
1
 12
648.455580093363
 22
586.8522999844935
 13
0
 23
0
 14
10
 24
10
 15
10
 25
10
 16
0
 26
0
 36
1
 17
0
 27
0
 37
0
 40
1844.856125365618
 41
1.787346221441125
 42
50
 43
0
 44
0
 50
0
 51
0
 71
    0
 72
  100
 73
    1
 74
    3
 75
    0
 76
    0
 77
    0
 78
    0
281
    0
 65
    1
110
0
120
0
130
0
111
1
121
0
131
0
112
0
122
1
132
0
 79
    0
146
0
348
10020
 60
    7
 61
    5
292
1
282
    1
141
0
142
0
 63
  250
421
3358443
  0
ENDTAB
  0
TABLE
  2
LTYPE
  5
5
330
0
100
AcDbSymbolTable
 70
    4
  0
LTYPE
  5
14
330
5
100
AcDbSymbolTableRecord
100
AcDbLinetypeTableRecord
  2
ByBlock
 70
    0
  3

 72
   65
 73
    0
 40
0
  0
LTYPE
  5
15
330
5
100
AcDbSymbolTableRecord
100
AcDbLinetypeTableRecord
  2
ByLayer
 70
    0
  3

 72
   65
 73
    0
 40
0
  0
LTYPE
  5
16
330
5
100
AcDbSymbolTableRecord
100
AcDbLinetypeTableRecord
  2
Continuous
 70
    0
  3
Solid line
 72
   65
 73
    0
 40
0
  0
LTYPE
  5
32
330
5
100
AcDbSymbolTableRecord
100
AcDbLinetypeTableRecord
  2
DOT
 70
    0
  3
Dot . . . . . . . . . . . . . . . . . . . . . .
 72
   65
 73
    2
 40
6.35
 49
0
 74
    0
 49
-6.35
 74
    0
  0
LTYPE
  5
33
330
5
100
AcDbSymbolTableRecord
100
AcDbLinetypeTableRecord
  2
DOTTINY
 70
    0
  3
Dot (.15x) .....................................
 72
   65
 73
    2
 40
0.9525
 49
0
 74
    0
 49
-0.9525
 74
    0
  0
LTYPE
  5
34
330
5
100
AcDbSymbolTableRecord
100
AcDbLinetypeTableRecord
  2
DOT2
 70
    0
  3
Dot (.5x) .....................................
 72
   65
 73
    2
 40
3.175
 49
0
 74
    0
 49
-3.175
 74
    0
  0
LTYPE
  5
35
330
5
100
AcDbSymbolTableRecord
100
AcDbLinetypeTableRecord
  2
DOTX2
 70
    0
  3
Dot (2x) .  .  .  .  .  .  .  .  .  .  .  .  .
 72
   65
 73
    2
 40
12.7
 49
0
 74
    0
 49
-12.7
 74
    0
  0
LTYPE
  5
36
330
5
100
AcDbSymbolTableRecord
100
AcDbLinetypeTableRecord
  2
DASHED
 70
    0
  3
Dashed _ _ _ _ _ _ _ _ _ _ _ _ _ _ _ _ _
 72
   65
 73
    2
 40
19.05
 49
12.7
 74
    0
 49
-6.35
 74
    0
  0
LTYPE
  5
37
330
5
100
AcDbSymbolTableRecord
100
AcDbLinetypeTableRecord
  2
DASHEDTINY
 70
    0
  3
Dashed (.15x) _ _ _ _ _ _ _ _ _ _ _ _ _ _ _ _ _
 72
   65
 73
    2
 40
2.8575
 49
1.905
 74
    0
 49
-0.9525
 74
    0
  0
LTYPE
  5
38
330
5
100
AcDbSymbolTableRecord
100
AcDbLinetypeTableRecord
  2
DASHED2
 70
    0
  3
Dashed (.5x) _ _ _ _ _ _ _ _ _ _ _ _ _ _ _ _ _
 72
   65
 73
    2
 40
9.524999999999999
 49
6.35
 74
    0
 49
-3.175
 74
    0
  0
LTYPE
  5
39
330
5
100
AcDbSymbolTableRecord
100
AcDbLinetypeTableRecord
  2
DASHEDX2
 70
    0
  3
Dashed (2x) ____  ____  ____  ____  ____  ___
 72
   65
 73
    2
 40
38.09999999999999
 49
25.4
 74
    0
 49
-12.7
 74
    0
  0
LTYPE
  5
3A
330
5
100
AcDbSymbolTableRecord
100
AcDbLinetypeTableRecord
  2
DASHDOT
 70
    0
  3
Dash dot __ . __ . __ . __ . __ . __ . __ . __
 72
   65
 73
    4
 40
25.4
 49
12.7
 74
    0
 49
-6.35
 74
    0
 49
0
 74
    0
 49
-6.35
 74
    0
  0
LTYPE
  5
3B
330
5
100
AcDbSymbolTableRecord
100
AcDbLinetypeTableRecord
  2
DASHDOTTINY
 70
    0
  3
Dash dot (.15x) _._._._._._._._._._._._._._._.
 72
   65
 73
    4
 40
3.81
 49
1.905
 74
    0
 49
-0.9525
 74
    0
 49
0
 74
    0
 49
-0.9525
 74
    0
  0
LTYPE
  5
3C
330
5
100
AcDbSymbolTableRecord
100
AcDbLinetypeTableRecord
  2
DASHDOT2
 70
    0
  3
Dash dot (.5x) _._._._._._._._._._._._._._._.
 72
   65
 73
    4
 40
12.7
 49
6.35
 74
    0
 49
-3.175
 74
    0
 49
0
 74
    0
 49
-3.175
 74
    0
  0
LTYPE
  5
3D
330
5
100
AcDbSymbolTableRecord
100
AcDbLinetypeTableRecord
  2
DASHDOTX2
 70
    0
  3
Dash dot (2x) ____  .  ____  .  ____  .  ___
 72
   65
 73
    4
 40
50.8
 49
25.4
 74
    0
 49
-12.7
 74
    0
 49
0
 74
    0
 49
-12.7
 74
    0
  0
LTYPE
  5
3E
330
5
100
AcDbSymbolTableRecord
100
AcDbLinetypeTableRecord
  2
DIVIDE
 70
    0
  3
Divide ____ . . ____ . . ____ . . ____ . . ____
 72
   65
 73
    6
 40
31.75
 49
12.7
 74
    0
 49
-6.35
 74
    0
 49
0
 74
    0
 49
-6.35
 74
    0
 49
0
 74
    0
 49
-6.35
 74
    0
  0
LTYPE
  5
3F
330
5
100
AcDbSymbolTableRecord
100
AcDbLinetypeTableRecord
  2
DIVIDETINY
 70
    0
  3
Divide (.15x) __..__..__..__..__..__..__..__.._
 72
   65
 73
    6
 40
4.7625
 49
1.905
 74
    0
 49
-0.9525
 74
    0
 49
0
 74
    0
 49
-0.9525
 74
    0
 49
0
 74
    0
 49
-0.9525
 74
    0
  0
LTYPE
  5
40
330
5
100
AcDbSymbolTableRecord
100
AcDbLinetypeTableRecord
  2
DIVIDE2
 70
    0
  3
Divide (.5x) __..__..__..__..__..__..__..__.._
 72
   65
 73
    6
 40
15.875
 49
6.35
 74
    0
 49
-3.175
 74
    0
 49
0
 74
    0
 49
-3.175
 74
    0
 49
0
 74
    0
 49
-3.175
 74
    0
  0
LTYPE
  5
41
330
5
100
AcDbSymbolTableRecord
100
AcDbLinetypeTableRecord
  2
DIVIDEX2
 70
    0
  3
Divide (2x) ________  .  .  ________  .  .  _
 72
   65
 73
    6
 40
63.5
 49
25.4
 74
    0
 49
-12.7
 74
    0
 49
0
 74
    0
 49
-12.7
 74
    0
 49
0
 74
    0
 49
-12.7
 74
    0
  0
LTYPE
  5
42
330
5
100
AcDbSymbolTableRecord
100
AcDbLinetypeTableRecord
  2
BORDER
 70
    0
  3
Border __ __ . __ __ . __ __ . __ __ . __ __ .
 72
   65
 73
    6
 40
44.45
 49
12.7
 74
    0
 49
-6.35
 74
    0
 49
12.7
 74
    0
 49
-6.35
 74
    0
 49
0
 74
    0
 49
-6.35
 74
    0
  0
LTYPE
  5
43
330
5
100
AcDbSymbolTableRecord
100
AcDbLinetypeTableRecord
  2
BORDERTINY
 70
    0
  3
Border (.15x) __.__.__.__.__.__.__.__.__.__.__.
 72
   65
 73
    6
 40
6.6675
 49
1.905
 74
    0
 49
-0.9525
 74
    0
 49
1.905
 74
    0
 49
-0.9525
 74
    0
 49
0
 74
    0
 49
-0.9525
 74
    0
  0
LTYPE
  5
44
330
5
100
AcDbSymbolTableRecord
100
AcDbLinetypeTableRecord
  2
BORDER2
 70
    0
  3
Border (.5x) __.__.__.__.__.__.__.__.__.__.__.
 72
   65
 73
    6
 40
22.225
 49
6.35
 74
    0
 49
-3.175
 74
    0
 49
6.35
 74
    0
 49
-3.175
 74
    0
 49
0
 74
    0
 49
-3.175
 74
    0
  0
LTYPE
  5
45
330
5
100
AcDbSymbolTableRecord
100
AcDbLinetypeTableRecord
  2
BORDERX2
 70
    0
  3
Border (2x) ____  ____  .  ____  ____  .  ___
 72
   65
 73
    6
 40
88.89999999999999
 49
25.4
 74
    0
 49
-12.7
 74
    0
 49
25.4
 74
    0
 49
-12.7
 74
    0
 49
0
 74
    0
 49
-12.7
 74
    0
  0
LTYPE
  5
46
330
5
100
AcDbSymbolTableRecord
100
AcDbLinetypeTableRecord
  2
CENTER
 70
    0
  3
Center ____ _ ____ _ ____ _ ____ _ ____ _ ____
 72
   65
 73
    4
 40
50.8
 49
31.75
 74
    0
 49
-6.35
 74
    0
 49
6.35
 74
    0
 49
-6.35
 74
    0
  0
LTYPE
  5
47
330
5
100
AcDbSymbolTableRecord
100
AcDbLinetypeTableRecord
  2
CENTERTINY
 70
    0
  3
Center (.15x) ___ _ ___ _ ___ _ ___ _ ___ _ ___
 72
   65
 73
    4
 40
7.619999999999999
 49
4.7625
 74
    0
 49
-0.9525
 74
    0
 49
0.9525
 74
    0
 49
-0.9525
 74
    0
  0
LTYPE
  5
48
330
5
100
AcDbSymbolTableRecord
100
AcDbLinetypeTableRecord
  2
CENTER2
 70
    0
  3
Center (.5x) ___ _ ___ _ ___ _ ___ _ ___ _ ___
 72
   65
 73
    4
 40
28.575
 49
19.05
 74
    0
 49
-3.175
 74
    0
 49
3.175
 74
    0
 49
-3.175
 74
    0
  0
LTYPE
  5
49
330
5
100
AcDbSymbolTableRecord
100
AcDbLinetypeTableRecord
  2
CENTERX2
 70
    0
  3
Center (2x) ________  __  ________  __  _____
 72
   65
 73
    4
 40
101.6
 49
63.5
 74
    0
 49
-12.7
 74
    0
 49
12.7
 74
    0
 49
-12.7
 74
    0
  0
ENDTAB
  0
TABLE
  2
LAYER
  5
2
330
0
100
AcDbSymbolTable
 70
    1
  0
LAYER
  5
10
330
2
100
AcDbSymbolTableRecord
100
AcDbLayerTableRecord
  2
0
 70
    0
 62
    7
  6
CONTINUOUS
370
    0
390
F
  0
ENDTAB
  0
TABLE
  2
STYLE
  5
3
330
0
100
AcDbSymbolTable
 70
    3
  0
STYLE
  5
4A
330
2
100
AcDbSymbolTableRecord
100
AcDbTextStyleTableRecord
  2
Standard
 70
    0
 40
0
 41
1
 50
0
 71
    0
 42
1
  3
txt
  4

  0
ENDTAB
  0
TABLE
  2
VIEW
  5
6
330
0
100
AcDbSymbolTable
 70
    0
  0
ENDTAB
  0
TABLE
  2
UCS
  5
7
330
0
100
AcDbSymbolTable
 70
    0
  0
ENDTAB
  0
TABLE
  2
APPID
  5
9
330
0
100
AcDbSymbolTable
 70
    1
  0
APPID
  5
12
330
9
100
AcDbSymbolTableRecord
100
AcDbRegAppTableRecord
  2
ACAD
 70
    0
  0
APPID
  5
4B
330
9
100
AcDbSymbolTableRecord
100
AcDbRegAppTableRecord
  2
LibreCad
 70
    0
  0
ENDTAB
  0
TABLE
  2
DIMSTYLE
  5
A
330
0
100
AcDbSymbolTable
 70
    1
100
AcDbDimStyleTable
 71
    1
  0
DIMSTYLE
105
4C
330
A
100
AcDbSymbolTableRecord
100
AcDbDimStyleTableRecord
  2
Standard
 70
    0
 40
1
 41
5
 42
0.625
 43
0.38
 44
1.25
 45
0
 46
0
 47
0
 48
0
 49
1
140
5
141
0.09
142
0
143
25.4
144
1
145
0
146
1
147
0.625
148
0
 71
    0
 72
    0
 73
    0
 74
    1
 75
    0
 76
    0
 77
    0
 78
    8
 79
    0
170
    0
171
    2
172
    0
173
    0
174
    0
175
    0
176
    0
177
    0
178
    0
179
    0
271
    4
272
    4
273
    2
274
    2
275
    0
276
    0
277
    2
278
   44
279
    0
280
    0
281
    0
282
    0
283
    1
284
    0
285
    0
286
    0
288
    0
289
    3
340
standard
341

371
   -2
372
   -2
  0
ENDTAB
  0
TABLE
  2
BLOCK_RECORD
  5
1
330
0
100
AcDbSymbolTable
 70
    2
  0
BLOCK_RECORD
  5
1F
330
1
100
AcDbSymbolTableRecord
100
AcDbBlockTableRecord
  2
*Model_Space
 70
    0
280
    1
281
    0
  0
BLOCK_RECORD
  5
1E
330
1
100
AcDbSymbolTableRecord
100
AcDbBlockTableRecord
  2
*Paper_Space
 70
    0
280
    1
281
    0
  0
BLOCK_RECORD
  5
4D
330
1
100
AcDbSymbolTableRecord
100
AcDbBlockTableRecord
  2
*D4
 70
    0
280
    1
281
    0
  0
BLOCK_RECORD
  5
50
330
1
100
AcDbSymbolTableRecord
100
AcDbBlockTableRecord
  2
*D7
 70
    0
280
    1
281
    0
  0
BLOCK_RECORD
  5
53
330
1
100
AcDbSymbolTableRecord
100
AcDbBlockTableRecord
  2
*D13
 70
    0
280
    1
281
    0
  0
BLOCK_RECORD
  5
56
330
1
100
AcDbSymbolTableRecord
100
AcDbBlockTableRecord
  2
*D15
 70
    0
280
    1
281
    0
  0
BLOCK_RECORD
  5
59
330
1
100
AcDbSymbolTableRecord
100
AcDbBlockTableRecord
  2
*D11
 70
    0
280
    1
281
    0
  0
BLOCK_RECORD
  5
5C
330
1
100
AcDbSymbolTableRecord
100
AcDbBlockTableRecord
  2
*D14
 70
    0
280
    1
281
    0
  0
BLOCK_RECORD
  5
5F
330
1
100
AcDbSymbolTableRecord
100
AcDbBlockTableRecord
  2
*D10
 70
    0
280
    1
281
    0
  0
BLOCK_RECORD
  5
62
330
1
100
AcDbSymbolTableRecord
100
AcDbBlockTableRecord
  2
*D16
 70
    0
280
    1
281
    0
  0
BLOCK_RECORD
  5
65
330
1
100
AcDbSymbolTableRecord
100
AcDbBlockTableRecord
  2
*D5
 70
    0
280
    1
281
    0
  0
BLOCK_RECORD
  5
68
330
1
100
AcDbSymbolTableRecord
100
AcDbBlockTableRecord
  2
*D2
 70
    0
280
    1
281
    0
  0
BLOCK_RECORD
  5
6B
330
1
100
AcDbSymbolTableRecord
100
AcDbBlockTableRecord
  2
*D3
 70
    0
280
    1
281
    0
  0
BLOCK_RECORD
  5
6E
330
1
100
AcDbSymbolTableRecord
100
AcDbBlockTableRecord
  2
*D1
 70
    0
280
    1
281
    0
  0
BLOCK_RECORD
  5
71
330
1
100
AcDbSymbolTableRecord
100
AcDbBlockTableRecord
  2
*D9
 70
    0
280
    1
281
    0
  0
BLOCK_RECORD
  5
74
330
1
100
AcDbSymbolTableRecord
100
AcDbBlockTableRecord
  2
*D18
 70
    0
280
    1
281
    0
  0
BLOCK_RECORD
  5
77
330
1
100
AcDbSymbolTableRecord
100
AcDbBlockTableRecord
  2
*D8
 70
    0
280
    1
281
    0
  0
BLOCK_RECORD
  5
7A
330
1
100
AcDbSymbolTableRecord
100
AcDbBlockTableRecord
  2
*D6
 70
    0
280
    1
281
    0
  0
BLOCK_RECORD
  5
7D
330
1
100
AcDbSymbolTableRecord
100
AcDbBlockTableRecord
  2
*D12
 70
    0
280
    1
281
    0
  0
BLOCK_RECORD
  5
80
330
1
100
AcDbSymbolTableRecord
100
AcDbBlockTableRecord
  2
*D17
 70
    0
280
    1
281
    0
  0
ENDTAB
  0
ENDSEC
  0
SECTION
  2
BLOCKS
  0
BLOCK
  5
20
330
1F
100
AcDbEntity
  8
0
100
AcDbBlockBegin
  2
*Model_Space
 70
    0
 10
0
 20
0
 30
0
  3
*Model_Space
  1

  0
ENDBLK
  5
21
330
1F
100
AcDbEntity
  8
0
100
AcDbBlockEnd
  0
BLOCK
  5
1C
330
1B
100
AcDbEntity
  8
0
100
AcDbBlockBegin
  2
*Paper_Space
 70
    0
 10
0
 20
0
 30
0
  3
*Paper_Space
  1

  0
ENDBLK
  5
1D
330
1F
100
AcDbEntity
  8
0
100
AcDbBlockEnd
  0
BLOCK
  5
4E
330
4D
100
AcDbEntity
  8
0
100
AcDbBlockBegin
  2
*D4
 70
    1
 10
0
 20
0
  3
*D4
  1

  0
LINE
  5
83
100
AcDbEntity
  8
0
  6
ByBlock
 62
    0
370
   -2
100
AcDbLine
 10
-146.9367305801147
 20
1222.606064232582
 11
-146.9367305801147
 21
1075.106064232582
  0
SOLID
  5
84
100
AcDbEntity
  8
0
  6
ByBlock
 62
    0
370
   -2
100
AcDbTrace
 10
-146.9367305801147
 20
1222.606064232582
 30
0
 11
-146.104161264569
 21
1217.606064232582
 31
0
 12
-147.7692998956604
 22
1217.606064232582
 32
0
 13
-147.7692998956604
 23
1217.606064232582
 33
0
  0
SOLID
  5
85
100
AcDbEntity
  8
0
  6
ByBlock
 62
    0
370
   -2
100
AcDbTrace
 10
-146.9367305801147
 20
1075.106064232582
 30
0
 11
-147.7692998956604
 21
1080.106064232582
 31
0
 12
-146.104161264569
 22
1080.106064232582
 32
0
 13
-146.104161264569
 23
1080.106064232582
 33
0
  0
MTEXT
  5
86
100
AcDbEntity
  8
0
  6
CONTINUOUS
 62
    0
370
   -2
100
AcDbMText
 10
-150.0617305801147
 20
1148.856064232582
 30
0
 40
5
 41
15.27777777777809
 71
    5
 72
    1
  1
147,5
  7
standard
210
0
220
0
230
1
 50
90
 73
    2
 44
1
  0
LINE
  5
87
100
AcDbEntity
  8
0
  6
ByBlock
 62
    0
370
   -2
100
AcDbLine
 10
-147.5617305801147
 20
1222.606064232582
 11
-148.1867305801147
 21
1222.606064232582
  0
LINE
  5
88
100
AcDbEntity
  8
0
  6
ByBlock
 62
    0
370
   -2
100
AcDbLine
 10
-147.5617305801147
 20
1075.106064232582
 11
-148.1867305801147
 21
1075.106064232582
  0
ENDBLK
  5
4F
330
4D
100
AcDbEntity
  8
0
100
AcDbBlockEnd
  0
BLOCK
  5
51
330
50
100
AcDbEntity
  8
0
100
AcDbBlockBegin
  2
*D7
 70
    1
 10
0
 20
0
  3
*D7
  1

  0
LINE
  5
89
100
AcDbEntity
  8
0
  6
ByBlock
 62
    0
370
   -2
100
AcDbLine
 10
-576.9367305801147
 20
542.606064232582
 11
83.06326941988527
 21
542.606064232582
  0
SOLID
  5
8A
100
AcDbEntity
  8
0
  6
ByBlock
 62
    0
370
   -2
100
AcDbTrace
 10
-576.9367305801147
 20
542.606064232582
 30
0
 11
-571.9367305801147
 21
543.4386335481277
 31
0
 12
-571.9367305801147
 22
541.7734949170363
 32
0
 13
-571.9367305801147
 23
541.7734949170363
 33
0
  0
SOLID
  5
8B
100
AcDbEntity
  8
0
  6
ByBlock
 62
    0
370
   -2
100
AcDbTrace
 10
83.06326941988527
 20
542.606064232582
 30
0
 11
78.06326941988527
 21
541.7734949170363
 31
0
 12
78.06326941988527
 22
543.4386335481277
 32
0
 13
78.06326941988527
 23
543.4386335481277
 33
0
  0
MTEXT
  5
8C
100
AcDbEntity
  8
0
  6
CONTINUOUS
 62
    0
370
   -2
100
AcDbMText
 10
-246.9367305801147
 20
545.731064232582
 30
0
 40
5
 41
10.00000000000062
 71
    5
 72
    1
  1
660
  7
standard
210
0
220
0
230
1
 50
0
 73
    2
 44
1
  0
LINE
  5
8D
100
AcDbEntity
  8
0
  6
ByBlock
 62
    0
370
   -2
100
AcDbLine
 10
-576.9367305801147
 20
543.231064232582
 11
-576.9367305801147
 21
543.856064232582
  0
LINE
  5
8E
100
AcDbEntity
  8
0
  6
ByBlock
 62
    0
370
   -2
100
AcDbLine
 10
83.06326941988527
 20
543.231064232582
 11
83.06326941988527
 21
543.856064232582
  0
ENDBLK
  5
52
330
50
100
AcDbEntity
  8
0
100
AcDbBlockEnd
  0
BLOCK
  5
54
330
53
100
AcDbEntity
  8
0
100
AcDbBlockBegin
  2
*D13
 70
    1
 10
0
 20
0
  3
*D13
  1

  0
LINE
  5
8F
100
AcDbEntity
  8
0
  6
ByBlock
 62
    0
370
   -2
100
AcDbLine
 10
-341.9367305801145
 20
22.10606423258196
 11
-299.9367305801146
 21
22.10606423258196
  0
SOLID
  5
90
100
AcDbEntity
  8
0
  6
ByBlock
 62
    0
370
   -2
100
AcDbTrace
 10
-341.9367305801145
 20
22.10606423258196
 30
0
 11
-336.9367305801145
 21
22.93863354812764
 31
0
 12
-336.9367305801145
 22
21.27349491703627
 32
0
 13
-336.9367305801145
 23
21.27349491703627
 33
0
  0
SOLID
  5
91
100
AcDbEntity
  8
0
  6
ByBlock
 62
    0
370
   -2
100
AcDbTrace
 10
-299.9367305801146
 20
22.10606423258196
 30
0
 11
-304.9367305801146
 21
21.27349491703628
 31
0
 12
-304.9367305801146
 22
22.93863354812764
 32
0
 13
-304.9367305801146
 23
22.93863354812764
 33
0
  0
MTEXT
  5
92
100
AcDbEntity
  8
0
  6
CONTINUOUS
 62
    0
370
   -2
100
AcDbMText
 10
-320.9367305801146
 20
25.23106423258196
 30
0
 40
5
 41
6.666666666666666
 71
    5
 72
    1
  1
42
  7
standard
210
0
220
0
230
1
 50
0
 73
    2
 44
1
  0
LINE
  5
93
100
AcDbEntity
  8
0
  6
ByBlock
 62
    0
370
   -2
100
AcDbLine
 10
-341.9367305801145
 20
22.73106423258196
 11
-341.9367305801145
 21
23.35606423258196
  0
LINE
  5
94
100
AcDbEntity
  8
0
  6
ByBlock
 62
    0
370
   -2
100
AcDbLine
 10
-299.9367305801146
 20
22.73106423258196
 11
-299.9367305801146
 21
23.35606423258196
  0
ENDBLK
  5
55
330
53
100
AcDbEntity
  8
0
100
AcDbBlockEnd
  0
BLOCK
  5
57
330
56
100
AcDbEntity
  8
0
100
AcDbBlockBegin
  2
*D15
 70
    1
 10
0
 20
0
  3
*D15
  1

  0
LINE
  5
95
100
AcDbEntity
  8
0
  6
ByBlock
 62
    0
370
   -2
100
AcDbLine
 10
-341.9367305801146
 20
-136.393935767418
 11
-341.9367305801146
 21
-57.14393576741804
  0
SOLID
  5
96
100
AcDbEntity
  8
0
  6
ByBlock
 62
    0
370
   -2
100
AcDbTrace
 10
-341.9367305801146
 20
-136.393935767418
 30
0
 11
-342.7692998956603
 21
-131.393935767418
 31
0
 12
-341.1041612645689
 22
-131.393935767418
 32
0
 13
-341.1041612645689
 23
-131.393935767418
 33
0
  0
SOLID
  5
97
100
AcDbEntity
  8
0
  6
ByBlock
 62
    0
370
   -2
100
AcDbTrace
 10
-341.9367305801146
 20
-57.14393576741804
 30
0
 11
-341.1041612645689
 21
-62.14393576741804
 31
0
 12
-342.7692998956603
 22
-62.14393576741804
 32
0
 13
-342.7692998956603
 23
-62.14393576741804
 33
0
  0
MTEXT
  5
98
100
AcDbEntity
  8
0
  6
CONTINUOUS
 62
    0
370
   -2
100
AcDbMText
 10
-345.0617305801146
 20
-96.76893576741804
 30
0
 40
5
 41
15.83333333333364
 71
    5
 72
    1
  1
79,25
  7
standard
210
0
220
0
230
1
 50
90
 73
    2
 44
1
  0
LINE
  5
99
100
AcDbEntity
  8
0
  6
ByBlock
 62
    0
370
   -2
100
AcDbLine
 10
-342.5617305801146
 20
-136.393935767418
 11
-343.1867305801146
 21
-136.393935767418
  0
LINE
  5
9A
100
AcDbEntity
  8
0
  6
ByBlock
 62
    0
370
   -2
100
AcDbLine
 10
-342.5617305801146
 20
-57.14393576741804
 11
-343.1867305801146
 21
-57.14393576741804
  0
ENDBLK
  5
58
330
56
100
AcDbEntity
  8
0
100
AcDbBlockEnd
  0
BLOCK
  5
5A
330
59
100
AcDbEntity
  8
0
100
AcDbBlockBegin
  2
*D11
 70
    1
 10
0
 20
0
  3
*D11
  1

  0
LINE
  5
9B
100
AcDbEntity
  8
0
  6
ByBlock
 62
    0
370
   -2
100
AcDbLine
 10
-246.3117305801147
 20
215.8569620790404
 11
-245.6867305801147
 21
215.8569620790404
  0
LINE
  5
9C
100
AcDbEntity
  8
0
  6
ByBlock
 62
    0
370
   -2
100
AcDbLine
 10
83.68826941988527
 20
529.106064232582
 11
84.31326941988527
 21
529.106064232582
  0
LINE
  5
9D
100
AcDbEntity
  8
0
  6
ByBlock
 62
    0
370
   -2
100
AcDbLine
 10
-246.9367305801147
 20
215.8569620790404
 11
83.06326941988527
 21
529.106064232582
  0
SOLID
  5
9E
100
AcDbEntity
  8
0
  6
ByBlock
 62
    0
370
   -2
100
AcDbTrace
 10
-246.9367305801147
 20
215.8569620790404
 30
0
 11
-243.8835472626977
 21
219.903101386508
 31
0
 12
-242.7371666447845
 22
218.6954184232989
 32
0
 13
-242.7371666447845
 23
218.6954184232989
 33
0
  0
SOLID
  5
9F
100
AcDbEntity
  8
0
  6
ByBlock
 62
    0
370
   -2
100
AcDbTrace
 10
83.06326941988527
 20
529.106064232582
 30
0
 11
80.01008610246829
 21
525.0599249251143
 31
0
 12
78.863705484555
 22
526.2676078883234
 32
0
 13
78.863705484555
 23
526.2676078883234
 33
0
  0
MTEXT
  5
A0
100
AcDbEntity
  8
0
  6
CONTINUOUS
 62
    0
370
   -2
100
AcDbMText
 10
-84.08816672127917
 20
374.7479966722947
 30
0
 40
5
 41
10.55555555555618
 71
    5
 72
    1
  1
455
  7
standard
210
0
220
0
230
1
 50
43.50829346536958
 73
    2
 44
1
  0
ENDBLK
  5
5B
330
59
100
AcDbEntity
  8
0
100
AcDbBlockEnd
  0
BLOCK
  5
5D
330
5C
100
AcDbEntity
  8
0
100
AcDbBlockBegin
  2
*D14
 70
    1
 10
0
 20
0
  3
*D14
  1

  0
LINE
  5
A1
100
AcDbEntity
  8
0
  6
ByBlock
 62
    0
370
   -2
100
AcDbLine
 10
-341.9367305801146
 20
22.10606423258196
 11
-341.9367305801146
 21
-57.14393576741804
  0
SOLID
  5
A2
100
AcDbEntity
  8
0
  6
ByBlock
 62
    0
370
   -2
100
AcDbTrace
 10
-341.9367305801146
 20
22.10606423258196
 30
0
 11
-341.1041612645689
 21
17.10606423258196
 31
0
 12
-342.7692998956603
 22
17.10606423258196
 32
0
 13
-342.7692998956603
 23
17.10606423258196
 33
0
  0
SOLID
  5
A3
100
AcDbEntity
  8
0
  6
ByBlock
 62
    0
370
   -2
100
AcDbTrace
 10
-341.9367305801146
 20
-57.14393576741804
 30
0
 11
-342.7692998956603
 21
-52.14393576741804
 31
0
 12
-341.1041612645689
 22
-52.14393576741804
 32
0
 13
-341.1041612645689
 23
-52.14393576741804
 33
0
  0
MTEXT
  5
A4
100
AcDbEntity
  8
0
  6
CONTINUOUS
 62
    0
370
   -2
100
AcDbMText
 10
-345.0617305801146
 20
-17.51893576741804
 30
0
 40
5
 41
15.83333333333364
 71
    5
 72
    1
  1
79,25
  7
standard
210
0
220
0
230
1
 50
90
 73
    2
 44
1
  0
LINE
  5
A5
100
AcDbEntity
  8
0
  6
ByBlock
 62
    0
370
   -2
100
AcDbLine
 10
-342.5617305801145
 20
22.10606423258196
 11
-343.1867305801146
 21
22.10606423258196
  0
LINE
  5
A6
100
AcDbEntity
  8
0
  6
ByBlock
 62
    0
370
   -2
100
AcDbLine
 10
-342.5617305801146
 20
-57.14393576741804
 11
-343.1867305801146
 21
-57.14393576741804
  0
ENDBLK
  5
5E
330
5C
100
AcDbEntity
  8
0
100
AcDbBlockEnd
  0
BLOCK
  5
60
330
5F
100
AcDbEntity
  8
0
100
AcDbBlockBegin
  2
*D10
 70
    1
 10
0
 20
0
  3
*D10
  1

  0
LINE
  5
A7
100
AcDbEntity
  8
0
  6
ByBlock
 62
    0
370
   -2
100
AcDbLine
 10
-246.9367305801147
 20
301.606064232582
 11
-246.9367305801147
 21
415.356064232582
  0
SOLID
  5
A8
100
AcDbEntity
  8
0
  6
ByBlock
 62
    0
370
   -2
100
AcDbTrace
 10
-246.9367305801147
 20
301.606064232582
 30
0
 11
-247.7692998956604
 21
306.606064232582
 31
0
 12
-246.1041612645691
 22
306.606064232582
 32
0
 13
-246.1041612645691
 23
306.606064232582
 33
0
  0
SOLID
  5
A9
100
AcDbEntity
  8
0
  6
ByBlock
 62
    0
370
   -2
100
AcDbTrace
 10
-246.9367305801147
 20
415.356064232582
 30
0
 11
-246.1041612645691
 21
410.356064232582
 31
0
 12
-247.7692998956604
 22
410.356064232582
 32
0
 13
-247.7692998956604
 23
410.356064232582
 33
0
  0
MTEXT
  5
AA
100
AcDbEntity
  8
0
  6
CONTINUOUS
 62
    0
370
   -2
100
AcDbMText
 10
-250.0617305801147
 20
358.481064232582
 30
0
 40
5
 41
17.50000000000063
 71
    5
 72
    1
  1
113,75
  7
standard
210
0
220
0
230
1
 50
90
 73
    2
 44
1
  0
LINE
  5
AB
100
AcDbEntity
  8
0
  6
ByBlock
 62
    0
370
   -2
100
AcDbLine
 10
-247.5617305801147
 20
301.606064232582
 11
-248.1867305801147
 21
301.606064232582
  0
LINE
  5
AC
100
AcDbEntity
  8
0
  6
ByBlock
 62
    0
370
   -2
100
AcDbLine
 10
-247.5617305801147
 20
415.356064232582
 11
-248.1867305801147
 21
415.356064232582
  0
ENDBLK
  5
61
330
5F
100
AcDbEntity
  8
0
100
AcDbBlockEnd
  0
BLOCK
  5
63
330
62
100
AcDbEntity
  8
0
100
AcDbBlockBegin
  2
*D16
 70
    1
 10
0
 20
0
  3
*D16
  1

  0
LINE
  5
AD
100
AcDbEntity
  8
0
  6
ByBlock
 62
    0
370
   -2
100
AcDbLine
 10
-341.3117305801144
 20
-196.0429673948815
 11
-340.6867305801144
 21
-196.0429673948815
  0
LINE
  5
AE
100
AcDbEntity
  8
0
  6
ByBlock
 62
    0
370
   -2
100
AcDbLine
 10
-111.3117305801144
 20
22.10606423258196
 11
-110.6867305801144
 21
22.10606423258196
  0
LINE
  5
AF
100
AcDbEntity
  8
0
  6
ByBlock
 62
    0
370
   -2
100
AcDbLine
 10
-341.9367305801144
 20
-196.0429673948815
 11
-111.9367305801144
 21
22.10606423258196
  0
SOLID
  5
B0
100
AcDbEntity
  8
0
  6
ByBlock
 62
    0
370
   -2
100
AcDbTrace
 10
-341.9367305801144
 20
-196.0429673948815
 30
0
 11
-338.8819172991965
 21
-191.9980585598253
 31
0
 12
-337.7360233563004
 22
-193.2062033079358
 32
0
 13
-337.7360233563004
 23
-193.2062033079358
 33
0
  0
SOLID
  5
B1
100
AcDbEntity
  8
0
  6
ByBlock
 62
    0
370
   -2
100
AcDbTrace
 10
-111.9367305801144
 20
22.10606423258196
 30
0
 11
-114.9915438610323
 21
18.06115539752573
 31
0
 12
-116.1374378039284
 22
19.26930014563618
 32
0
 13
-116.1374378039284
 23
19.26930014563618
 33
0
  0
MTEXT
  5
B2
100
AcDbEntity
  8
0
  6
CONTINUOUS
 62
    0
370
   -2
100
AcDbMText
 10
-229.08725336824
 20
-84.70110142342109
 30
0
 40
5
 41
8.888888888889198
 71
    5
 72
    1
  1
317
  7
standard
210
0
220
0
230
1
 50
43.48520868662311
 73
    2
 44
1
  0
ENDBLK
  5
64
330
62
100
AcDbEntity
  8
0
100
AcDbBlockEnd
  0
BLOCK
  5
66
330
65
100
AcDbEntity
  8
0
100
AcDbBlockBegin
  2
*D5
 70
    1
 10
0
 20
0
  3
*D5
  1

  0
LINE
  5
B3
100
AcDbEntity
  8
0
  6
ByBlock
 62
    0
370
   -2
100
AcDbLine
 10
-146.9367305801147
 20
1075.106064232582
 11
-146.9367305801147
 21
927.606064232582
  0
SOLID
  5
B4
100
AcDbEntity
  8
0
  6
ByBlock
 62
    0
370
   -2
100
AcDbTrace
 10
-146.9367305801147
 20
1075.106064232582
 30
0
 11
-146.104161264569
 21
1070.106064232582
 31
0
 12
-147.7692998956604
 22
1070.106064232582
 32
0
 13
-147.7692998956604
 23
1070.106064232582
 33
0
  0
SOLID
  5
B5
100
AcDbEntity
  8
0
  6
ByBlock
 62
    0
370
   -2
100
AcDbTrace
 10
-146.9367305801147
 20
927.606064232582
 30
0
 11
-147.7692998956604
 21
932.606064232582
 31
0
 12
-146.104161264569
 22
932.606064232582
 32
0
 13
-146.104161264569
 23
932.606064232582
 33
0
  0
MTEXT
  5
B6
100
AcDbEntity
  8
0
  6
CONTINUOUS
 62
    0
370
   -2
100
AcDbMText
 10
-150.0617305801147
 20
1001.356064232582
 30
0
 40
5
 41
15.27777777777809
 71
    5
 72
    1
  1
147,5
  7
standard
210
0
220
0
230
1
 50
90
 73
    2
 44
1
  0
LINE
  5
B7
100
AcDbEntity
  8
0
  6
ByBlock
 62
    0
370
   -2
100
AcDbLine
 10
-147.5617305801147
 20
1075.106064232582
 11
-148.1867305801147
 21
1075.106064232582
  0
LINE
  5
B8
100
AcDbEntity
  8
0
  6
ByBlock
 62
    0
370
   -2
100
AcDbLine
 10
-147.5617305801147
 20
927.606064232582
 11
-148.1867305801147
 21
927.606064232582
  0
ENDBLK
  5
67
330
65
100
AcDbEntity
  8
0
100
AcDbBlockEnd
  0
BLOCK
  5
69
330
68
100
AcDbEntity
  8
0
100
AcDbBlockBegin
  2
*D2
 70
    1
 10
0
 20
0
  3
*D2
  1

  0
LINE
  5
B9
100
AcDbEntity
  8
0
  6
ByBlock
 62
    0
370
   -2
100
AcDbLine
 10
283.0632694198853
 20
1222.606064232582
 11
283.0632694198853
 21
632.6060642325822
  0
SOLID
  5
BA
100
AcDbEntity
  8
0
  6
ByBlock
 62
    0
370
   -2
100
AcDbTrace
 10
283.0632694198853
 20
1222.606064232582
 30
0
 11
283.895838735431
 21
1217.606064232582
 31
0
 12
282.2307001043396
 22
1217.606064232582
 32
0
 13
282.2307001043396
 23
1217.606064232582
 33
0
  0
SOLID
  5
BB
100
AcDbEntity
  8
0
  6
ByBlock
 62
    0
370
   -2
100
AcDbTrace
 10
283.0632694198853
 20
632.6060642325822
 30
0
 11
282.2307001043396
 21
637.6060642325822
 31
0
 12
283.895838735431
 22
637.6060642325822
 32
0
 13
283.895838735431
 23
637.6060642325822
 33
0
  0
MTEXT
  5
BC
100
AcDbEntity
  8
0
  6
CONTINUOUS
 62
    0
370
   -2
100
AcDbMText
 10
279.9382694198853
 20
927.6060642325821
 30
0
 40
5
 41
10.00000000000031
 71
    5
 72
    1
  1
590
  7
standard
210
0
220
0
230
1
 50
90
 73
    2
 44
1
  0
LINE
  5
BD
100
AcDbEntity
  8
0
  6
ByBlock
 62
    0
370
   -2
100
AcDbLine
 10
282.4382694198853
 20
1222.606064232582
 11
281.8132694198853
 21
1222.606064232582
  0
LINE
  5
BE
100
AcDbEntity
  8
0
  6
ByBlock
 62
    0
370
   -2
100
AcDbLine
 10
282.4382694198853
 20
632.6060642325822
 11
281.8132694198853
 21
632.6060642325822
  0
ENDBLK
  5
6A
330
68
100
AcDbEntity
  8
0
100
AcDbBlockEnd
  0
BLOCK
  5
6C
330
6B
100
AcDbEntity
  8
0
100
AcDbBlockBegin
  2
*D3
 70
    1
 10
0
 20
0
  3
*D3
  1

  0
LINE
  5
BF
100
AcDbEntity
  8
0
  6
ByBlock
 62
    0
370
   -2
100
AcDbLine
 10
283.6882694198853
 20
1222.606064232582
 11
284.3132694198853
 21
1222.606064232582
  0
LINE
  5
C0
100
AcDbEntity
  8
0
  6
ByBlock
 62
    0
370
   -2
100
AcDbLine
 10
-146.3117305801147
 20
818.6258666980992
 11
-145.6867305801147
 21
818.6258666980992
  0
LINE
  5
C1
100
AcDbEntity
  8
0
  6
ByBlock
 62
    0
370
   -2
100
AcDbLine
 10
283.0632694198853
 20
1222.606064232582
 11
-146.9367305801147
 21
818.6258666980992
  0
SOLID
  5
C2
100
AcDbEntity
  8
0
  6
ByBlock
 62
    0
370
   -2
100
AcDbTrace
 10
283.0632694198853
 20
1222.606064232582
 30
0
 11
279.9892719903179
 21
1218.575715430282
 31
0
 12
278.8491312562322
 22
1219.789291042772
 32
0
 13
278.8491312562322
 23
1219.789291042772
 33
0
  0
SOLID
  5
C3
100
AcDbEntity
  8
0
  6
ByBlock
 62
    0
370
   -2
100
AcDbTrace
 10
-146.9367305801147
 20
818.6258666980992
 30
0
 11
-143.8627331505474
 21
822.6562155003993
 31
0
 12
-142.7225924164616
 22
821.442639887909
 32
0
 13
-142.7225924164616
 23
821.442639887909
 33
0
  0
MTEXT
  5
C4
100
AcDbEntity
  8
0
  6
CONTINUOUS
 62
    0
370
   -2
100
AcDbMText
 10
65.92354379735096
 20
1022.893507838222
 30
0
 40
5
 41
10.00000000000031
 71
    5
 72
    1
  1
590
  7
standard
210
0
220
0
230
1
 50
43.21297745074307
 73
    2
 44
1
  0
ENDBLK
  5
6D
330
6B
100
AcDbEntity
  8
0
100
AcDbBlockEnd
  0
BLOCK
  5
6F
330
6E
100
AcDbEntity
  8
0
100
AcDbBlockBegin
  2
*D1
 70
    1
 10
0
 20
0
  3
*D1
  1

  0
LINE
  5
C5
100
AcDbEntity
  8
0
  6
ByBlock
 62
    0
370
   -2
100
AcDbLine
 10
-576.9367305801147
 20
1237.606064232582
 11
283.0632694198853
 21
1237.606064232582
  0
SOLID
  5
C6
100
AcDbEntity
  8
0
  6
ByBlock
 62
    0
370
   -2
100
AcDbTrace
 10
-576.9367305801147
 20
1237.606064232582
 30
0
 11
-571.9367305801147
 21
1238.438633548128
 31
0
 12
-571.9367305801147
 22
1236.773494917036
 32
0
 13
-571.9367305801147
 23
1236.773494917036
 33
0
  0
SOLID
  5
C7
100
AcDbEntity
  8
0
  6
ByBlock
 62
    0
370
   -2
100
AcDbTrace
 10
283.0632694198853
 20
1237.606064232582
 30
0
 11
278.0632694198853
 21
1236.773494917036
 31
0
 12
278.0632694198853
 22
1238.438633548128
 32
0
 13
278.0632694198853
 23
1238.438633548128
 33
0
  0
MTEXT
  5
C8
100
AcDbEntity
  8
0
  6
CONTINUOUS
 62
    0
370
   -2
100
AcDbMText
 10
-146.9367305801147
 20
1240.731064232582
 30
0
 40
5
 41
10.00000000000031
 71
    5
 72
    1
  1
860
  7
standard
210
0
220
0
230
1
 50
0
 73
    2
 44
1
  0
LINE
  5
C9
100
AcDbEntity
  8
0
  6
ByBlock
 62
    0
370
   -2
100
AcDbLine
 10
-576.9367305801147
 20
1238.231064232582
 11
-576.9367305801147
 21
1238.856064232582
  0
LINE
  5
CA
100
AcDbEntity
  8
0
  6
ByBlock
 62
    0
370
   -2
100
AcDbLine
 10
283.0632694198853
 20
1238.231064232582
 11
283.0632694198853
 21
1238.856064232582
  0
ENDBLK
  5
70
330
6E
100
AcDbEntity
  8
0
100
AcDbBlockEnd
  0
BLOCK
  5
72
330
71
100
AcDbEntity
  8
0
100
AcDbBlockBegin
  2
*D9
 70
    1
 10
0
 20
0
  3
*D9
  1

  0
LINE
  5
CB
100
AcDbEntity
  8
0
  6
ByBlock
 62
    0
370
   -2
100
AcDbLine
 10
-246.9367305801147
 20
529.106064232582
 11
-246.9367305801147
 21
415.356064232582
  0
SOLID
  5
CC
100
AcDbEntity
  8
0
  6
ByBlock
 62
    0
370
   -2
100
AcDbTrace
 10
-246.9367305801147
 20
529.106064232582
 30
0
 11
-246.1041612645691
 21
524.106064232582
 31
0
 12
-247.7692998956604
 22
524.106064232582
 32
0
 13
-247.7692998956604
 23
524.106064232582
 33
0
  0
SOLID
  5
CD
100
AcDbEntity
  8
0
  6
ByBlock
 62
    0
370
   -2
100
AcDbTrace
 10
-246.9367305801147
 20
415.356064232582
 30
0
 11
-247.7692998956604
 21
420.356064232582
 31
0
 12
-246.1041612645691
 22
420.356064232582
 32
0
 13
-246.1041612645691
 23
420.356064232582
 33
0
  0
MTEXT
  5
CE
100
AcDbEntity
  8
0
  6
CONTINUOUS
 62
    0
370
   -2
100
AcDbMText
 10
-250.0617305801147
 20
472.231064232582
 30
0
 40
5
 41
17.50000000000063
 71
    5
 72
    1
  1
113,75
  7
standard
210
0
220
0
230
1
 50
90
 73
    2
 44
1
  0
LINE
  5
CF
100
AcDbEntity
  8
0
  6
ByBlock
 62
    0
370
   -2
100
AcDbLine
 10
-247.5617305801147
 20
529.106064232582
 11
-248.1867305801147
 21
529.106064232582
  0
LINE
  5
D0
100
AcDbEntity
  8
0
  6
ByBlock
 62
    0
370
   -2
100
AcDbLine
 10
-247.5617305801147
 20
415.356064232582
 11
-248.1867305801147
 21
415.356064232582
  0
ENDBLK
  5
73
330
71
100
AcDbEntity
  8
0
100
AcDbBlockEnd
  0
BLOCK
  5
75
330
74
100
AcDbEntity
  8
0
100
AcDbBlockBegin
  2
*D18
 70
    1
 10
0
 20
0
  3
*D18
  1

  0
LINE
  5
D1
100
AcDbEntity
  8
0
  6
ByBlock
 62
    0
370
   -2
100
AcDbLine
 10
-571.9367305801145
 20
34.10606423258196
 11
-111.9367305801144
 21
34.10606423258196
  0
SOLID
  5
D2
100
AcDbEntity
  8
0
  6
ByBlock
 62
    0
370
   -2
100
AcDbTrace
 10
-571.9367305801145
 20
34.10606423258196
 30
0
 11
-566.9367305801145
 21
34.93863354812764
 31
0
 12
-566.9367305801145
 22
33.27349491703627
 32
0
 13
-566.9367305801145
 23
33.27349491703627
 33
0
  0
SOLID
  5
D3
100
AcDbEntity
  8
0
  6
ByBlock
 62
    0
370
   -2
100
AcDbTrace
 10
-111.9367305801144
 20
34.10606423258196
 30
0
 11
-116.9367305801144
 21
33.27349491703627
 31
0
 12
-116.9367305801144
 22
34.93863354812764
 32
0
 13
-116.9367305801144
 23
34.93863354812764
 33
0
  0
MTEXT
  5
D4
100
AcDbEntity
  8
0
  6
CONTINUOUS
 62
    0
370
   -2
100
AcDbMText
 10
-341.9367305801144
 20
37.23106423258196
 30
0
 40
5
 41
10.55555555555587
 71
    5
 72
    1
  1
460
  7
standard
210
0
220
0
230
1
 50
0
 73
    2
 44
1
  0
LINE
  5
D5
100
AcDbEntity
  8
0
  6
ByBlock
 62
    0
370
   -2
100
AcDbLine
 10
-571.9367305801145
 20
34.73106423258196
 11
-571.9367305801145
 21
35.35606423258196
  0
LINE
  5
D6
100
AcDbEntity
  8
0
  6
ByBlock
 62
    0
370
   -2
100
AcDbLine
 10
-111.9367305801144
 20
34.73106423258196
 11
-111.9367305801144
 21
35.35606423258196
  0
ENDBLK
  5
76
330
74
100
AcDbEntity
  8
0
100
AcDbBlockEnd
  0
BLOCK
  5
78
330
77
100
AcDbEntity
  8
0
100
AcDbBlockBegin
  2
*D8
 70
    1
 10
0
 20
0
  3
*D8
  1

  0
LINE
  5
D7
100
AcDbEntity
  8
0
  6
ByBlock
 62
    0
370
   -2
100
AcDbLine
 10
-246.9367305801147
 20
529.106064232582
 11
-191.9367305801147
 21
529.106064232582
  0
SOLID
  5
D8
100
AcDbEntity
  8
0
  6
ByBlock
 62
    0
370
   -2
100
AcDbTrace
 10
-246.9367305801147
 20
529.106064232582
 30
0
 11
-241.9367305801147
 21
529.9386335481277
 31
0
 12
-241.9367305801147
 22
528.2734949170363
 32
0
 13
-241.9367305801147
 23
528.2734949170363
 33
0
  0
SOLID
  5
D9
100
AcDbEntity
  8
0
  6
ByBlock
 62
    0
370
   -2
100
AcDbTrace
 10
-191.9367305801147
 20
529.106064232582
 30
0
 11
-196.9367305801147
 21
528.2734949170363
 31
0
 12
-196.9367305801147
 22
529.9386335481277
 32
0
 13
-196.9367305801147
 23
529.9386335481277
 33
0
  0
MTEXT
  5
DA
100
AcDbEntity
  8
0
  6
CONTINUOUS
 62
    0
370
   -2
100
AcDbMText
 10
-219.4367305801147
 20
532.231064232582
 30
0
 40
5
 41
6.111111111111732
 71
    5
 72
    1
  1
55
  7
standard
210
0
220
0
230
1
 50
0
 73
    2
 44
1
  0
LINE
  5
DB
100
AcDbEntity
  8
0
  6
ByBlock
 62
    0
370
   -2
100
AcDbLine
 10
-246.9367305801147
 20
529.731064232582
 11
-246.9367305801147
 21
530.356064232582
  0
LINE
  5
DC
100
AcDbEntity
  8
0
  6
ByBlock
 62
    0
370
   -2
100
AcDbLine
 10
-191.9367305801147
 20
529.731064232582
 11
-191.9367305801147
 21
530.356064232582
  0
ENDBLK
  5
79
330
77
100
AcDbEntity
  8
0
100
AcDbBlockEnd
  0
BLOCK
  5
7B
330
7A
100
AcDbEntity
  8
0
100
AcDbBlockBegin
  2
*D6
 70
    1
 10
0
 20
0
  3
*D6
  1

  0
LINE
  5
DD
100
AcDbEntity
  8
0
  6
ByBlock
 62
    0
370
   -2
100
AcDbLine
 10
-146.9367305801147
 20
1222.606064232582
 11
-78.93673058011473
 21
1222.606064232582
  0
SOLID
  5
DE
100
AcDbEntity
  8
0
  6
ByBlock
 62
    0
370
   -2
100
AcDbTrace
 10
-146.9367305801147
 20
1222.606064232582
 30
0
 11
-141.9367305801147
 21
1223.438633548128
 31
0
 12
-141.9367305801147
 22
1221.773494917036
 32
0
 13
-141.9367305801147
 23
1221.773494917036
 33
0
  0
SOLID
  5
DF
100
AcDbEntity
  8
0
  6
ByBlock
 62
    0
370
   -2
100
AcDbTrace
 10
-78.93673058011473
 20
1222.606064232582
 30
0
 11
-83.93673058011473
 21
1221.773494917036
 31
0
 12
-83.93673058011473
 22
1223.438633548128
 32
0
 13
-83.93673058011473
 23
1223.438633548128
 33
0
  0
MTEXT
  5
E0
100
AcDbEntity
  8
0
  6
CONTINUOUS
 62
    0
370
   -2
100
AcDbMText
 10
-112.9367305801147
 20
1225.731064232582
 30
0
 40
5
 41
6.111111111111422
 71
    5
 72
    1
  1
68
  7
standard
210
0
220
0
230
1
 50
0
 73
    2
 44
1
  0
LINE
  5
E1
100
AcDbEntity
  8
0
  6
ByBlock
 62
    0
370
   -2
100
AcDbLine
 10
-146.9367305801147
 20
1223.231064232582
 11
-146.9367305801147
 21
1223.856064232582
  0
LINE
  5
E2
100
AcDbEntity
  8
0
  6
ByBlock
 62
    0
370
   -2
100
AcDbLine
 10
-78.93673058011473
 20
1223.231064232582
 11
-78.93673058011473
 21
1223.856064232582
  0
ENDBLK
  5
7C
330
7A
100
AcDbEntity
  8
0
100
AcDbBlockEnd
  0
BLOCK
  5
7E
330
7D
100
AcDbEntity
  8
0
100
AcDbBlockBegin
  2
*D12
 70
    1
 10
0
 20
0
  3
*D12
  1

  0
LINE
  5
E3
100
AcDbEntity
  8
0
  6
ByBlock
 62
    0
370
   -2
100
AcDbLine
 10
83.06326941988527
 20
529.106064232582
 11
83.06326941988527
 21
74.10606423258196
  0
SOLID
  5
E4
100
AcDbEntity
  8
0
  6
ByBlock
 62
    0
370
   -2
100
AcDbTrace
 10
83.06326941988527
 20
529.106064232582
 30
0
 11
83.89583873543096
 21
524.106064232582
 31
0
 12
82.23070010433959
 22
524.106064232582
 32
0
 13
82.23070010433959
 23
524.106064232582
 33
0
  0
SOLID
  5
E5
100
AcDbEntity
  8
0
  6
ByBlock
 62
    0
370
   -2
100
AcDbTrace
 10
83.06326941988527
 20
74.10606423258196
 30
0
 11
82.23070010433959
 21
79.10606423258196
 31
0
 12
83.89583873543096
 22
79.10606423258196
 32
0
 13
83.89583873543096
 23
79.10606423258196
 33
0
  0
MTEXT
  5
E6
100
AcDbEntity
  8
0
  6
CONTINUOUS
 62
    0
370
   -2
100
AcDbMText
 10
79.93826941988527
 20
301.606064232582
 30
0
 40
5
 41
10.55555555555618
 71
    5
 72
    1
  1
455
  7
standard
210
0
220
0
230
1
 50
90
 73
    2
 44
1
  0
LINE
  5
E7
100
AcDbEntity
  8
0
  6
ByBlock
 62
    0
370
   -2
100
AcDbLine
 10
82.43826941988527
 20
529.106064232582
 11
81.81326941988527
 21
529.106064232582
  0
LINE
  5
E8
100
AcDbEntity
  8
0
  6
ByBlock
 62
    0
370
   -2
100
AcDbLine
 10
82.43826941988527
 20
74.10606423258196
 11
81.81326941988527
 21
74.10606423258196
  0
ENDBLK
  5
7F
330
7D
100
AcDbEntity
  8
0
100
AcDbBlockEnd
  0
BLOCK
  5
81
330
80
100
AcDbEntity
  8
0
100
AcDbBlockBegin
  2
*D17
 70
    1
 10
0
 20
0
  3
*D17
  1

  0
LINE
  5
E9
100
AcDbEntity
  8
0
  6
ByBlock
 62
    0
370
   -2
100
AcDbLine
 10
-111.9367305801144
 20
22.10606423258196
 11
-111.9367305801144
 21
-294.893935767418
  0
SOLID
  5
EA
100
AcDbEntity
  8
0
  6
ByBlock
 62
    0
370
   -2
100
AcDbTrace
 10
-111.9367305801144
 20
22.10606423258196
 30
0
 11
-111.1041612645687
 21
17.10606423258196
 31
0
 12
-112.7692998956601
 22
17.10606423258196
 32
0
 13
-112.7692998956601
 23
17.10606423258196
 33
0
  0
SOLID
  5
EB
100
AcDbEntity
  8
0
  6
ByBlock
 62
    0
370
   -2
100
AcDbTrace
 10
-111.9367305801144
 20
-294.893935767418
 30
0
 11
-112.7692998956601
 21
-289.893935767418
 31
0
 12
-111.1041612645687
 22
-289.893935767418
 32
0
 13
-111.1041612645687
 23
-289.893935767418
 33
0
  0
MTEXT
  5
EC
100
AcDbEntity
  8
0
  6
CONTINUOUS
 62
    0
370
   -2
100
AcDbMText
 10
-115.0617305801144
 20
-136.393935767418
 30
0
 40
5
 41
8.888888888889198
 71
    5
 72
    1
  1
317
  7
standard
210
0
220
0
230
1
 50
90
 73
    2
 44
1
  0
LINE
  5
ED
100
AcDbEntity
  8
0
  6
ByBlock
 62
    0
370
   -2
100
AcDbLine
 10
-112.5617305801144
 20
22.10606423258196
 11
-113.1867305801144
 21
22.10606423258196
  0
LINE
  5
EE
100
AcDbEntity
  8
0
  6
ByBlock
 62
    0
370
   -2
100
AcDbLine
 10
-112.5617305801144
 20
-294.893935767418
 11
-113.1867305801144
 21
-294.893935767418
  0
ENDBLK
  5
82
330
80
100
AcDbEntity
  8
0
100
AcDbBlockEnd
  0
ENDSEC
  0
SECTION
  2
ENTITIES
  0
LINE
  5
EF
100
AcDbEntity
  8
0
  6
ByLayer
 62
  256
370
   -1
100
AcDbLine
 10
-156.9367305801147
 20
1075.106064232582
 11
-136.9367305801147
 21
1075.106064232582
  0
LINE
  5
F0
100
AcDbEntity
  8
0
  6
ByLayer
 62
  256
370
   -1
100
AcDbLine
 10
-146.9367305801146
 20
818.6258666980992
 11
-136.9367305801146
 21
818.6258666980992
  0
LINE
  5
F1
100
AcDbEntity
  8
0
  6
ByLayer
 62
  256
370
   -1
100
AcDbLine
 10
-146.9367305801147
 20
818.6258666980992
 11
-156.9367305801147
 21
818.6258666980992
  0
LINE
  5
F2
100
AcDbEntity
  8
0
  6
ByLayer
 62
  256
370
   -1
100
AcDbLine
 10
-146.9367305801147
 20
927.606064232582
 11
-156.9367305801147
 21
927.606064232582
  0
LINE
  5
F3
100
AcDbEntity
  8
0
  6
ByLayer
 62
  256
370
   -1
100
AcDbLine
 10
-146.9367305801147
 20
927.6060642325821
 11
-136.9367305801147
 21
927.6060642325821
  0
LINE
  5
F4
100
AcDbEntity
  8
0
  6
ByLayer
 62
  256
370
   -1
100
AcDbLine
 10
-581.9367305801147
 20
1237.606064232582
 11
288.0632694198853
 21
1237.606064232582
  0
LINE
  5
F5
100
AcDbEntity
  8
0
  6
ByLayer
 62
  256
370
   -1
100
AcDbLine
 10
-576.9367305801147
 20
632.606064232582
 11
-576.9367305801147
 21
1247.606064232582
  0
LINE
  5
F6
100
AcDbEntity
  8
0
  6
ByLayer
 62
  256
370
   -1
100
AcDbLine
 10
-214.9367305801147
 20
1212.606064232582
 11
-214.9367305801147
 21
1247.606064232582
  0
LINE
  5
F7
100
AcDbEntity
  8
0
  6
ByLayer
 62
  256
370
   -1
100
AcDbLine
 10
-78.93673058011473
 20
1212.606064232582
 11
-78.93673058011473
 21
1247.606064232582
  0
LINE
  5
F8
100
AcDbEntity
  8
0
  6
ByLayer
 62
  256
370
   -1
100
AcDbLine
 10
-576.9367305801147
 20
632.606064232582
 11
288.0632694198853
 21
632.6060642325821
  0
LINE
  5
F9
100
AcDbEntity
  8
0
  6
ByLayer
 62
  256
370
   -1
100
AcDbLine
 10
288.0632694198853
 20
632.606064232582
 11
-576.9367305801147
 21
632.606064232582
  0
LINE
  5
FA
100
AcDbEntity
  8
0
  6
ByLayer
 62
  256
370
   -1
100
AcDbLine
 10
-116.9367305801146
 20
632.606064232582
 11
-581.9367305801147
 21
632.606064232582
  0
LINE
  5
FB
100
AcDbEntity
  8
0
  6
ByLayer
 62
  256
370
   -1
100
AcDbLine
 10
-581.9367305801147
 20
1222.606064232582
 11
288.0632694198853
 21
1222.606064232582
  0
DIMENSION
  5
FC
100
AcDbEntity
  8
0
  6
ByLayer
 62
  256
370
   -1
100
AcDbDimension
  2
*D1
 10
283.0632694198853
 20
1237.606064232582
 30
0
 11
-146.9367305801147
 21
1240.731064232582
 31
0
 70
   32
 71
    5
  3
Standard
 53
0
210
0
220
0
230
1
100
AcDbAlignedDimension
 13
-576.9367305801147
 23
1237.606064232582
 33
0
 14
283.0632694198853
 24
1237.606064232582
 34
0
100
AcDbRotatedDimension
  0
DIMENSION
  5
FD
100
AcDbEntity
  8
0
  6
ByLayer
 62
  256
370
   -1
100
AcDbDimension
  2
*D2
 10
283.0632694198853
 20
632.6060642325822
 30
0
 11
279.9382694198853
 21
927.6060642325821
 31
0
 70
   32
 71
    5
  3
Standard
 53
0
210
0
220
0
230
1
100
AcDbAlignedDimension
 13
283.0632694198853
 23
1222.606064232582
 33
0
 14
283.0632694198853
 24
632.6060642325822
 34
0
 50
90
100
AcDbRotatedDimension
  0
DIMENSION
  5
FE
100
AcDbEntity
  8
0
  6
ByLayer
 62
  256
370
   -1
100
AcDbDimension
  2
*D3
 10
-146.9367305801147
 20
818.6258666980992
 30
0
 11
65.92354379735096
 21
1022.893507838222
 31
0
 70
   33
 71
    5
  3
Standard
 53
0
210
0
220
0
230
1
100
AcDbAlignedDimension
 13
283.0632694198853
 23
1222.606064232582
 33
0
 14
-146.9367305801147
 24
818.6258666980992
 34
0
  0
DIMENSION
  5
FF
100
AcDbEntity
  8
0
  6
ByLayer
 62
  256
370
   -1
100
AcDbDimension
  2
*D4
 10
-146.9367305801147
 20
1075.106064232582
 30
0
 11
-150.0617305801147
 21
1148.856064232582
 31
0
 70
   32
 71
    5
  3
Standard
 53
0
210
0
220
0
230
1
100
AcDbAlignedDimension
 13
-146.9367305801147
 23
1222.606064232582
 33
0
 14
-146.9367305801147
 24
1075.106064232582
 34
0
 50
90
100
AcDbRotatedDimension
  0
DIMENSION
  5
100
100
AcDbEntity
  8
0
  6
ByLayer
 62
  256
370
   -1
100
AcDbDimension
  2
*D5
 10
-146.9367305801147
 20
927.606064232582
 30
0
 11
-150.0617305801147
 21
1001.356064232582
 31
0
 70
   32
 71
    5
  3
Standard
 53
0
210
0
220
0
230
1
100
AcDbAlignedDimension
 13
-146.9367305801147
 23
1075.106064232582
 33
0
 14
-146.9367305801147
 24
927.606064232582
 34
0
 50
90
100
AcDbRotatedDimension
  0
DIMENSION
  5
101
100
AcDbEntity
  8
0
  6
ByLayer
 62
  256
370
   -1
100
AcDbDimension
  2
*D6
 10
-78.93673058011473
 20
1222.606064232582
 30
0
 11
-112.9367305801147
 21
1225.731064232582
 31
0
 70
   32
 71
    5
  3
Standard
 53
0
210
0
220
0
230
1
100
AcDbAlignedDimension
 13
-146.9367305801147
 23
1222.606064232582
 33
0
 14
-78.93673058011473
 24
1222.606064232582
 34
0
100
AcDbRotatedDimension
  0
LINE
  5
102
100
AcDbEntity
  8
0
  6
ByLayer
 62
  256
370
   -1
100
AcDbLine
 10
-246.9367305801147
 20
215.8569620790404
 11
-236.9367305801147
 21
215.8569620790404
  0
LINE
  5
103
100
AcDbEntity
  8
0
  6
ByLayer
 62
  256
370
   -1
100
AcDbLine
 10
-246.9367305801147
 20
215.8569620790404
 11
-256.9367305801147
 21
215.8569620790404
  0
LINE
  5
104
100
AcDbEntity
  8
0
  6
ByLayer
 62
  256
370
   -1
100
AcDbLine
 10
-116.9367305801145
 20
74.10606423258196
 11
-576.9367305801146
 21
74.10606423258196
  0
LINE
  5
105
100
AcDbEntity
  8
0
  6
ByLayer
 62
  256
370
   -1
100
AcDbLine
 10
-256.9367305801147
 20
301.606064232582
 11
-236.9367305801147
 21
301.606064232582
  0
LINE
  5
106
100
AcDbEntity
  8
0
  6
ByLayer
 62
  256
370
   -1
100
AcDbLine
 10
88.06326941988527
 20
542.606064232582
 11
-581.9367305801147
 21
542.606064232582
  0
LINE
  5
107
100
AcDbEntity
  8
0
  6
ByLayer
 62
  256
370
   -1
100
AcDbLine
 10
-256.9367305801147
 20
415.356064232582
 11
-236.9367305801147
 21
415.356064232582
  0
LINE
  5
108
100
AcDbEntity
  8
0
  6
ByLayer
 62
  256
370
   -1
100
AcDbLine
 10
-576.9367305801147
 20
552.606064232582
 11
-576.9367305801147
 21
74.10606423258196
  0
LINE
  5
109
100
AcDbEntity
  8
0
  6
ByLayer
 62
  256
370
   -1
100
AcDbLine
 10
-301.9367305801147
 20
552.606064232582
 11
-301.9367305801147
 21
519.106064232582
  0
LINE
  5
10A
100
AcDbEntity
  8
0
  6
ByLayer
 62
  256
370
   -1
100
AcDbLine
 10
-191.9367305801147
 20
552.606064232582
 11
-191.9367305801147
 21
519.106064232582
  0
LINE
  5
10B
100
AcDbEntity
  8
0
  6
ByLayer
 62
  256
370
   -1
100
AcDbLine
 10
88.06326941988527
 20
529.106064232582
 11
-581.9367305801147
 21
529.106064232582
  0
LINE
  5
10C
100
AcDbEntity
  8
0
  6
ByLayer
 62
  256
370
   -1
100
AcDbLine
 10
88.06326941988527
 20
74.10606423258196
 11
-581.9367305801147
 21
74.10606423258196
  0
LINE
  5
10D
100
AcDbEntity
  8
0
  6
ByLayer
 62
  256
370
   -1
100
AcDbLine
 10
-246.9367305801147
 20
69.10606423258196
 11
-246.9367305801147
 21
552.606064232582
  0
LINE
  5
10E
100
AcDbEntity
  8
0
  6
ByLayer
 62
  256
370
   -1
100
AcDbLine
 10
83.06326941988527
 20
552.606064232582
 11
83.06326941988527
 21
69.10606423258196
  0
LINE
  5
10F
100
AcDbEntity
  8
0
  6
ByLayer
 62
  256
370
   -1
100
AcDbLine
 10
-576.9367305801147
 20
403.106064232582
 11
-576.9367305801146
 21
69.10606423258196
  0
DIMENSION
  5
110
100
AcDbEntity
  8
0
  6
ByLayer
 62
  256
370
   -1
100
AcDbDimension
  2
*D7
 10
83.06326941988527
 20
542.606064232582
 30
0
 11
-246.9367305801147
 21
545.731064232582
 31
0
 70
   32
 71
    5
  3
Standard
 53
0
210
0
220
0
230
1
100
AcDbAlignedDimension
 13
-576.9367305801147
 23
542.606064232582
 33
0
 14
83.06326941988527
 24
542.606064232582
 34
0
100
AcDbRotatedDimension
  0
DIMENSION
  5
111
100
AcDbEntity
  8
0
  6
ByLayer
 62
  256
370
   -1
100
AcDbDimension
  2
*D8
 10
-191.9367305801147
 20
529.106064232582
 30
0
 11
-219.4367305801147
 21
532.231064232582
 31
0
 70
   32
 71
    5
  3
Standard
 53
0
210
0
220
0
230
1
100
AcDbAlignedDimension
 13
-246.9367305801147
 23
529.106064232582
 33
0
 14
-191.9367305801147
 24
529.106064232582
 34
0
100
AcDbRotatedDimension
  0
DIMENSION
  5
112
100
AcDbEntity
  8
0
  6
ByLayer
 62
  256
370
   -1
100
AcDbDimension
  2
*D9
 10
-246.9367305801147
 20
415.356064232582
 30
0
 11
-250.0617305801147
 21
472.231064232582
 31
0
 70
   32
 71
    5
  3
Standard
 53
0
210
0
220
0
230
1
100
AcDbAlignedDimension
 13
-246.9367305801147
 23
529.106064232582
 33
0
 14
-246.9367305801147
 24
415.356064232582
 34
0
 50
90
100
AcDbRotatedDimension
  0
DIMENSION
  5
113
100
AcDbEntity
  8
0
  6
ByLayer
 62
  256
370
   -1
100
AcDbDimension
  2
*D10
 10
-246.9367305801147
 20
415.356064232582
 30
0
 11
-250.0617305801147
 21
358.481064232582
 31
0
 70
   32
 71
    5
  3
Standard
 53
0
210
0
220
0
230
1
100
AcDbAlignedDimension
 13
-246.9367305801147
 23
301.606064232582
 33
0
 14
-246.9367305801147
 24
415.356064232582
 34
0
 50
90
100
AcDbRotatedDimension
  0
DIMENSION
  5
114
100
AcDbEntity
  8
0
  6
ByLayer
 62
  256
370
   -1
100
AcDbDimension
  2
*D11
 10
83.06326941988527
 20
529.106064232582
 30
0
 11
-84.08816672127917
 21
374.7479966722947
 31
0
 70
   33
 71
    5
  3
Standard
 53
0
210
0
220
0
230
1
100
AcDbAlignedDimension
 13
-246.9367305801147
 23
215.8569620790404
 33
0
 14
83.06326941988527
 24
529.106064232582
 34
0
  0
DIMENSION
  5
115
100
AcDbEntity
  8
0
  6
ByLayer
 62
  256
370
   -1
100
AcDbDimension
  2
*D12
 10
83.06326941988527
 20
74.10606423258196
 30
0
 11
79.93826941988527
 21
301.606064232582
 31
0
 70
   32
 71
    5
  3
Standard
 53
0
210
0
220
0
230
1
100
AcDbAlignedDimension
 13
83.06326941988527
 23
529.106064232582
 33
0
 14
83.06326941988527
 24
74.10606423258196
 34
0
 50
90
100
AcDbRotatedDimension
  0
LINE
  5
116
100
AcDbEntity
  8
0
  6
ByLayer
 62
  256
370
   -1
100
AcDbLine
 10
-576.9367305801147
 20
1100.606064232582
 11
-576.9367305801147
 21
627.606064232582
  0
LINE
  5
117
100
AcDbEntity
  8
0
  6
ByLayer
 62
  256
370
   -1
100
AcDbLine
 10
-146.9367305801147
 20
627.6060642325822
 11
-146.9367305801147
 21
1247.606064232582
  0
LINE
  5
118
100
AcDbEntity
  8
0
  6
ByLayer
 62
  256
370
   -1
100
AcDbLine
 10
283.0632694198853
 20
627.6060642325822
 11
283.0632694198853
 21
1247.606064232582
  0
LINE
  5
119
100
AcDbEntity
  8
0
  6
ByLayer
 62
  256
370
   -1
100
AcDbLine
 10
-341.9367305801146
 20
-136.393935767418
 11
-351.9367305801146
 21
-136.393935767418
  0
LINE
  5
11A
100
AcDbEntity
  8
0
  6
ByLayer
 62
  256
370
   -1
100
AcDbLine
 10
-341.9367305801146
 20
-136.393935767418
 11
-331.9367305801146
 21
-136.393935767418
  0
LINE
  5
11B
100
AcDbEntity
  8
0
  6
ByLayer
 62
  256
370
   -1
100
AcDbLine
 10
-341.9367305801146
 20
-57.14393576741804
 11
-331.9367305801146
 21
-57.14393576741804
  0
LINE
  5
11C
100
AcDbEntity
  8
0
  6
ByLayer
 62
  256
370
   -1
100
AcDbLine
 10
-341.9367305801146
 20
-57.14393576741804
 11
-351.9367305801146
 21
-57.14393576741804
  0
LINE
  5
11D
100
AcDbEntity
  8
0
  6
ByLayer
 62
  256
370
   -1
100
AcDbLine
 10
-341.9367305801144
 20
-196.0429673948815
 11
-351.9367305801144
 21
-196.0429673948815
  0
LINE
  5
11E
100
AcDbEntity
  8
0
  6
ByLayer
 62
  256
370
   -1
100
AcDbLine
 10
-341.9367305801144
 20
-196.0429673948815
 11
-331.9367305801144
 21
-196.0429673948815
  0
LINE
  5
11F
100
AcDbEntity
  8
0
  6
ByLayer
 62
  256
370
   -1
100
AcDbLine
 10
-106.9367305801144
 20
34.10606423258196
 11
-576.9367305801146
 21
34.10606423258196
  0
LINE
  5
120
100
AcDbEntity
  8
0
  6
ByLayer
 62
  256
370
   -1
100
AcDbLine
 10
-383.9367305801147
 20
44.10606423258196
 11
-383.9367305801146
 21
12.10606423258196
  0
LINE
  5
121
100
AcDbEntity
  8
0
  6
ByLayer
 62
  256
370
   -1
100
AcDbLine
 10
-299.9367305801146
 20
44.10606423258196
 11
-299.9367305801146
 21
12.10606423258196
  0
LINE
  5
122
100
AcDbEntity
  8
0
  6
ByLayer
 62
  256
370
   -1
100
AcDbLine
 10
-106.9367305801144
 20
-294.893935767418
 11
-576.9367305801146
 21
-294.893935767418
  0
LINE
  5
123
100
AcDbEntity
  8
0
  6
ByLayer
 62
  256
370
   -1
100
AcDbLine
 10
-106.9367305801144
 20
22.10606423258196
 11
-576.9367305801146
 21
22.10606423258196
  0
LINE
  5
124
100
AcDbEntity
  8
0
  6
ByLayer
 62
  256
370
   -1
100
AcDbLine
 10
-571.9367305801146
 20
44.10606423258196
 11
-571.9367305801145
 21
-299.893935767418
  0
LINE
  5
125
100
AcDbEntity
  8
0
  6
ByLayer
 62
  256
370
   -1
100
AcDbLine
 10
-341.9367305801146
 20
44.10606423258196
 11
-341.9367305801146
 21
-299.893935767418
  0
LINE
  5
126
100
AcDbEntity
  8
0
  6
ByLayer
 62
  256
370
   -1
100
AcDbLine
 10
-111.9367305801144
 20
44.10606423258196
 11
-111.9367305801144
 21
-299.893935767418
  0
DIMENSION
  5
127
100
AcDbEntity
  8
0
  6
ByLayer
 62
  256
370
   -1
100
AcDbDimension
  2
*D13
 10
-299.9367305801146
 20
22.10606423258196
 30
0
 11
-320.9367305801146
 21
25.23106423258196
 31
0
 70
   32
 71
    5
  3
Standard
 53
0
210
0
220
0
230
1
100
AcDbAlignedDimension
 13
-341.9367305801145
 23
22.10606423258196
 33
0
 14
-299.9367305801146
 24
22.10606423258196
 34
0
100
AcDbRotatedDimension
  0
DIMENSION
  5
128
100
AcDbEntity
  8
0
  6
ByLayer
 62
  256
370
   -1
100
AcDbDimension
  2
*D14
 10
-341.9367305801146
 20
-57.14393576741804
 30
0
 11
-345.0617305801146
 21
-17.51893576741804
 31
0
 70
   32
 71
    5
  3
Standard
 53
0
210
0
220
0
230
1
100
AcDbAlignedDimension
 13
-341.9367305801145
 23
22.10606423258196
 33
0
 14
-341.9367305801146
 24
-57.14393576741804
 34
0
 50
90
100
AcDbRotatedDimension
  0
DIMENSION
  5
129
100
AcDbEntity
  8
0
  6
ByLayer
 62
  256
370
   -1
100
AcDbDimension
  2
*D15
 10
-341.9367305801146
 20
-57.14393576741804
 30
0
 11
-345.0617305801146
 21
-96.76893576741804
 31
0
 70
   32
 71
    5
  3
Standard
 53
0
210
0
220
0
230
1
100
AcDbAlignedDimension
 13
-341.9367305801146
 23
-136.393935767418
 33
0
 14
-341.9367305801146
 24
-57.14393576741804
 34
0
 50
90
100
AcDbRotatedDimension
  0
DIMENSION
  5
12A
100
AcDbEntity
  8
0
  6
ByLayer
 62
  256
370
   -1
100
AcDbDimension
  2
*D16
 10
-111.9367305801144
 20
22.10606423258196
 30
0
 11
-229.08725336824
 21
-84.70110142342109
 31
0
 70
   33
 71
    5
  3
Standard
 53
0
210
0
220
0
230
1
100
AcDbAlignedDimension
 13
-341.9367305801144
 23
-196.0429673948815
 33
0
 14
-111.9367305801144
 24
22.10606423258196
 34
0
  0
DIMENSION
  5
12B
100
AcDbEntity
  8
0
  6
ByLayer
 62
  256
370
   -1
100
AcDbDimension
  2
*D17
 10
-111.9367305801144
 20
-294.893935767418
 30
0
 11
-115.0617305801144
 21
-136.393935767418
 31
0
 70
   32
 71
    5
  3
Standard
 53
0
210
0
220
0
230
1
100
AcDbAlignedDimension
 13
-111.9367305801144
 23
22.10606423258196
 33
0
 14
-111.9367305801144
 24
-294.893935767418
 34
0
 50
90
100
AcDbRotatedDimension
  0
DIMENSION
  5
12C
100
AcDbEntity
  8
0
  6
ByLayer
 62
  256
370
   -1
100
AcDbDimension
  2
*D18
 10
-111.9367305801144
 20
34.10606423258196
 30
0
 11
-341.9367305801144
 21
37.23106423258196
 31
0
 70
   32
 71
    5
  3
Standard
 53
0
210
0
220
0
230
1
100
AcDbAlignedDimension
 13
-571.9367305801145
 23
34.10606423258196
 33
0
 14
-111.9367305801144
 24
34.10606423258196
 34
0
100
AcDbRotatedDimension
  0
ENDSEC
  0
SECTION
  2
OBJECTS
  0
DICTIONARY
  5
C
330
0
100
AcDbDictionary
281
    1
  3
ACAD_GROUP
350
D
  0
DICTIONARY
  5
D
330
C
100
AcDbDictionary
281
    1
  0
ENDSEC
  0
EOF
