  0
SECTION
  2
HEADER
  9
$ACADVER
  1
AC1027
  9
$ACADMAINTVER
 70
   105
  9
$DWGCODEPAGE
  3
ANSI_1252
  9
$REQUIREDVERSIONS
160
                 0
  9
$INSBASE
 10
0.0
 20
0.0
 30
0.0
  9
$EXTMIN
 10
-168.3156110587014
 20
-538.4051721878191
 30
0.0
  9
$EXTMAX
 10
1483.972408033309
 20
228.3157894736842
 30
0.0
  9
$LIMMIN
 10
0.0
 20
0.0
  9
$LIMMAX
 10
12.0
 20
9.0
  9
$ORTHOMODE
 70
     0
  9
$REGENMODE
 70
     1
  9
$FILLMODE
 70
     1
  9
$QTEXTMODE
 70
     0
  9
$MIRRTEXT
 70
     1
  9
$LTSCALE
 40
1.0
  9
$ATTMODE
 70
     1
  9
$TEXTSIZE
 40
0.2
  9
$TRACEWID
 40
0.05
  9
$TEXTSTYLE
  7
Standard
  9
$CLAYER
  8
0
  9
$CELTYPE
  6
ByLayer
  9
$CECOLOR
 62
    18
  9
$CELTSCALE
 40
1.0
  9
$DISPSILH
 70
     0
  9
$DIMSCALE
 40
1.0
  9
$DIMASZ
 40
25.0
  9
$DIMEXO
 40
6.25
  9
$DIMDLI
 40
0.38
  9
$DIMRND
 40
0.0
  9
$DIMDLE
 40
0.0
  9
$DIMEXE
 40
12.5
  9
$DIMTP
 40
0.0
  9
$DIMTM
 40
0.0
  9
$DIMTXT
 40
25.0
  9
$DIMCEN
 40
0.09
  9
$DIMTSZ
 40
0.0
  9
$DIMTOL
 70
     0
  9
$DIMLIM
 70
     0
  9
$DIMTIH
 70
     1
  9
$DIMTOH
 70
     1
  9
$DIMSE1
 70
     0
  9
$DIMSE2
 70
     0
  9
$DIMTAD
 70
     0
  9
$DIMZIN
 70
     8
  9
$DIMBLK
  1

  9
$DIMASO
 70
     1
  9
$DIMSHO
 70
     1
  9
$DIMPOST
  1

  9
$DIMAPOST
  1

  9
$DIMALT
 70
     0
  9
$DIMALTD
 70
     2
  9
$DIMALTF
 40
25.4
  9
$DIMLFAC
 40
1.0
  9
$DIMTOFL
 70
     0
  9
$DIMTVP
 40
0.0
  9
$DIMTIX
 70
     0
  9
$DIMSOXD
 70
     0
  9
$DIMSAH
 70
     0
  9
$DIMBLK1
  1

  9
$DIMBLK2
  1

  9
$DIMSTYLE
  2
Standard
  9
$DIMCLRD
 70
    18
  9
$DIMCLRE
 70
    18
  9
$DIMCLRT
 70
    18
  9
$DIMTFAC
 40
1.0
  9
$DIMGAP
 40
6.25
  9
$DIMJUST
 70
     0
  9
$DIMSD1
 70
     0
  9
$DIMSD2
 70
     0
  9
$DIMTOLJ
 70
     1
  9
$DIMTZIN
 70
     0
  9
$DIMALTZ
 70
     0
  9
$DIMALTTZ
 70
     0
  9
$DIMUPT
 70
     0
  9
$DIMDEC
 70
     4
  9
$DIMTDEC
 70
     4
  9
$DIMALTU
 70
     2
  9
$DIMALTTD
 70
     2
  9
$DIMTXSTY
  7
Standard
  9
$DIMAUNIT
 70
     0
  9
$DIMADEC
 70
     0
  9
$DIMALTRND
 40
0.0
  9
$DIMAZIN
 70
     2
  9
$DIMDSEP
 70
    46
  9
$DIMATFIT
 70
     3
  9
$DIMFRAC
 70
     0
  9
$DIMLDRBLK
  1

  9
$DIMLUNIT
 70
     2
  9
$DIMLWD
 70
    -2
  9
$DIMLWE
 70
    -2
  9
$DIMTMOVE
 70
     0
  9
$DIMFXL
 40
1.0
  9
$DIMFXLON
 70
     0
  9
$DIMJOGANG
 40
0.7853981633974483
  9
$DIMTFILL
 70
     0
  9
$DIMTFILLCLR
 70
     0
  9
$DIMARCSYM
 70
     0
  9
$DIMLTYPE
  6

  9
$DIMLTEX1
  6

  9
$DIMLTEX2
  6

  9
$DIMTXTDIRECTION
 70
     0
  9
$LUNITS
 70
     2
  9
$LUPREC
 70
     4
  9
$SKETCHINC
 40
0.1
  9
$FILLETRAD
 40
0.5
  9
$AUNITS
 70
     0
  9
$AUPREC
 70
     0
  9
$MENU
  1
.
  9
$ELEVATION
 40
0.0
  9
$PELEVATION
 40
0.0
  9
$THICKNESS
 40
0.0
  9
$LIMCHECK
 70
     0
  9
$CHAMFERA
 40
0.0
  9
$CHAMFERB
 40
0.0
  9
$CHAMFERC
 40
0.0
  9
$CHAMFERD
 40
0.0
  9
$SKPOLY
 70
     0
  9
$TDCREATE
 40
2459618.926521273
  9
$TDUCREATE
 40
2459618.884854606
  9
$TDUPDATE
 40
2459618.926521968
  9
$TDUUPDATE
 40
2459618.884855301
  9
$TDINDWG
 40
0.0000000116
  9
$TDUSRTIMER
 40
0.0000000116
  9
$USRTIMER
 70
     1
  9
$ANGBASE
 50
0.0
  9
$ANGDIR
 70
     0
  9
$PDMODE
 70
     0
  9
$PDSIZE
 40
0.0
  9
$PLINEWID
 40
0.0
  9
$SPLFRAME
 70
     0
  9
$SPLINETYPE
 70
     6
  9
$SPLINESEGS
 70
     8
  9
$HANDSEED
  5
17AD
  9
$SURFTAB1
 70
     6
  9
$SURFTAB2
 70
     6
  9
$SURFTYPE
 70
     6
  9
$SURFU
 70
     6
  9
$SURFV
 70
     6
  9
$UCSBASE
  2

  9
$UCSNAME
  2

  9
$UCSORG
 10
0.0
 20
0.0
 30
0.0
  9
$UCSXDIR
 10
1.0
 20
0.0
 30
0.0
  9
$UCSYDIR
 10
0.0
 20
1.0
 30
0.0
  9
$UCSORTHOREF
  2

  9
$UCSORTHOVIEW
 70
     0
  9
$UCSORGTOP
 10
0.0
 20
0.0
 30
0.0
  9
$UCSORGBOTTOM
 10
0.0
 20
0.0
 30
0.0
  9
$UCSORGLEFT
 10
0.0
 20
0.0
 30
0.0
  9
$UCSORGRIGHT
 10
0.0
 20
0.0
 30
0.0
  9
$UCSORGFRONT
 10
0.0
 20
0.0
 30
0.0
  9
$UCSORGBACK
 10
0.0
 20
0.0
 30
0.0
  9
$PUCSBASE
  2

  9
$PUCSNAME
  2

  9
$PUCSORG
 10
0.0
 20
0.0
 30
0.0
  9
$PUCSXDIR
 10
1.0
 20
0.0
 30
0.0
  9
$PUCSYDIR
 10
0.0
 20
1.0
 30
0.0
  9
$PUCSORTHOREF
  2

  9
$PUCSORTHOVIEW
 70
     0
  9
$PUCSORGTOP
 10
0.0
 20
0.0
 30
0.0
  9
$PUCSORGBOTTOM
 10
0.0
 20
0.0
 30
0.0
  9
$PUCSORGLEFT
 10
0.0
 20
0.0
 30
0.0
  9
$PUCSORGRIGHT
 10
0.0
 20
0.0
 30
0.0
  9
$PUCSORGFRONT
 10
0.0
 20
0.0
 30
0.0
  9
$PUCSORGBACK
 10
0.0
 20
0.0
 30
0.0
  9
$USERI1
 70
     0
  9
$USERI2
 70
     0
  9
$USERI3
 70
     0
  9
$USERI4
 70
     0
  9
$USERI5
 70
     0
  9
$USERR1
 40
0.0
  9
$USERR2
 40
0.0
  9
$USERR3
 40
0.0
  9
$USERR4
 40
0.0
  9
$USERR5
 40
0.0
  9
$WORLDVIEW
 70
     1
  9
$SHADEDGE
 70
     3
  9
$SHADEDIF
 70
    70
  9
$TILEMODE
 70
     1
  9
$MAXACTVP
 70
    64
  9
$PINSBASE
 10
0.0
 20
0.0
 30
0.0
  9
$PLIMCHECK
 70
     0
  9
$PEXTMIN
 10
0.0
 20
0.0
 30
0.0
  9
$PEXTMAX
 10
0.0
 20
0.0
 30
0.0
  9
$PLIMMIN
 10
-20.0
 20
-7.5
  9
$PLIMMAX
 10
277.0
 20
202.5
  9
$UNITMODE
 70
     0
  9
$VISRETAIN
 70
     1
  9
$PLINEGEN
 70
     0
  9
$PSLTSCALE
 70
     0
  9
$TREEDEPTH
 70
  3020
  9
$CMLSTYLE
  2
Standard
  9
$CMLJUST
 70
     0
  9
$CMLSCALE
 40
1.0
  9
$PROXYGRAPHICS
 70
     1
  9
$MEASUREMENT
 70
     1
  9
$CELWEIGHT
370
    -1
  9
$ENDCAPS
280
     0
  9
$JOINSTYLE
280
     0
  9
$LWDISPLAY
290
     0
  9
$INSUNITS
 70
     4
  9
$HYPERLINKBASE
  1

  9
$STYLESHEET
  1

  9
$XEDIT
290
     1
  9
$CEPSNTYPE
380
     0
  9
$PSTYLEMODE
290
     1
  9
$FINGERPRINTGUID
  2
{be24d801-0e86-449e-b105-218d8b88e515}
  9
$VERSIONGUID
  2
{FAEB1C32-E019-11D5-929B-00C0DF256EC4}
  9
$EXTNAMES
290
     1
  9
$PSVPSCALE
 40
0.0
  9
$OLESTARTUP
290
     0
  9
$SORTENTS
280
   127
  9
$INDEXCTL
280
     0
  9
$HIDETEXT
280
     1
  9
$XCLIPFRAME
280
     2
  9
$HALOGAP
280
     0
  9
$OBSCOLOR
 70
   257
  9
$OBSLTYPE
280
     0
  9
$INTERSECTIONDISPLAY
280
     0
  9
$INTERSECTIONCOLOR
 70
   257
  9
$DIMASSOC
280
     2
  9
$PROJECTNAME
  1

  9
$CAMERADISPLAY
290
     0
  9
$LENSLENGTH
 40
50.0
  9
$CAMERAHEIGHT
 40
0.0
  9
$STEPSPERSEC
 40
2.0
  9
$STEPSIZE
 40
6.0
  9
$3DDWFPREC
 40
2.0
  9
$PSOLWIDTH
 40
0.25
  9
$PSOLHEIGHT
 40
4.0
  9
$LOFTANG1
 40
1.570796326794897
  9
$LOFTANG2
 40
1.570796326794897
  9
$LOFTMAG1
 40
0.0
  9
$LOFTMAG2
 40
0.0
  9
$LOFTPARAM
 70
     7
  9
$LOFTNORMALS
280
     1
  9
$LATITUDE
 40
37.795
  9
$LONGITUDE
 40
-122.394
  9
$NORTHDIRECTION
 40
0.0
  9
$TIMEZONE
 70
 -8000
  9
$LIGHTGLYPHDISPLAY
280
     1
  9
$TILEMODELIGHTSYNCH
280
     1
  9
$CMATERIAL
347
16E5
  9
$SOLIDHIST
280
     0
  9
$SHOWHIST
280
     1
  9
$DWFFRAME
280
     2
  9
$DGNFRAME
280
     2
  9
$REALWORLDSCALE
290
     1
  9
$INTERFERECOLOR
 62
   256
  9
$CSHADOW
280
     0
  9
$SHADOWPLANELOCATION
 40
0.0
  0
ENDSEC
  0
SECTION
  2
CLASSES
  0
CLASS
  1
ACDBDICTIONARYWDFLT
  2
AcDbDictionaryWithDefault
  3
ObjectDBX Classes
 90
        0
 91
        3
280
     0
281
     0
  0
CLASS
  1
VISUALSTYLE
  2
AcDbVisualStyle
  3
ObjectDBX Classes
 90
     4095
 91
        3
280
     0
281
     0
  0
CLASS
  1
MATERIAL
  2
AcDbMaterial
  3
ObjectDBX Classes
 90
     1153
 91
        3
280
     0
281
     0
  0
CLASS
  1
SCALE
  2
AcDbScale
  3
ObjectDBX Classes
 90
     1153
 91
        3
280
     0
281
     0
  0
CLASS
  1
TABLESTYLE
  2
AcDbTableStyle
  3
ObjectDBX Classes
 90
     4095
 91
        3
280
     0
281
     0
  0
CLASS
  1
MLEADERSTYLE
  2
AcDbMLeaderStyle
  3
ACDB_MLEADERSTYLE_CLASS
 90
     4095
 91
        3
280
     0
281
     0
  0
CLASS
  1
SUN
  2
AcDbSun
  3
SCENEOE
 90
     1153
 91
        3
280
     0
281
     0
  0
CLASS
  1
DICTIONARYVAR
  2
AcDbDictionaryVar
  3
ObjectDBX Classes
 90
        0
 91
        3
280
     0
281
     0
  0
CLASS
  1
CELLSTYLEMAP
  2
AcDbCellStyleMap
  3
ObjectDBX Classes
 90
     1152
 91
        3
280
     0
281
     0
  0
ENDSEC
  0
SECTION
  2
TABLES
  0
TABLE
  2
VPORT
  5
16AA
330
0
100
AcDbSymbolTable
 70
     1
  0
VPORT
  5
16CA
330
16AA
100
AcDbSymbolTableRecord
100
AcDbViewportTableRecord
  2
*Active
 70
     0
 10
0.0
 20
0.0
 11
1.0
 21
1.0
 12
608.7119911827383
 22
-60.39566633012748
 13
0.0
 23
0.0
 14
0.5
 24
0.5
 15
0.5
 25
0.5
 16
0.0
 26
0.0
 36
1.0
 17
0.0
 27
0.0
 37
0.0
 40
1509.546001424604
 41
1.600654664484452
 42
50.0
 43
0.0
 44
0.0
 50
0.0
 51
0.0
 71
     0
 72
   100
 73
     1
 74
     3
 75
     0
 76
     0
 77
     0
 78
     0
281
     0
 65
     1
110
0.0
120
0.0
130
0.0
111
1.0
121
0.0
131
0.0
112
0.0
122
1.0
132
0.0
 79
     0
146
0.0
348
16D0
 60
     3
 61
     5
292
     1
282
     1
141
0.0
142
0.0
 63
   250
361
170E
  0
ENDTAB
  0
TABLE
  2
LTYPE
  5
16A7
330
0
100
AcDbSymbolTable
 70
    52
  0
LTYPE
  5
16B5
330
16A7
100
AcDbSymbolTableRecord
100
AcDbLinetypeTableRecord
  2
ByBlock
 70
     0
  3

 72
    65
 73
     0
 40
0.0
  0
LTYPE
  5
16B6
330
16A7
100
AcDbSymbolTableRecord
100
AcDbLinetypeTableRecord
  2
ByLayer
 70
     0
  3

 72
    65
 73
     0
 40
0.0
  0
LTYPE
  5
16B7
330
16A7
100
AcDbSymbolTableRecord
100
AcDbLinetypeTableRecord
  2
Continuous
 70
     0
  3
Solid line
 72
    65
 73
     0
 40
0.0
  0
LTYPE
  5
174F
330
16A7
100
AcDbSymbolTableRecord
100
AcDbLinetypeTableRecord
  2
DASHDOT2
 70
     0
  3
Dash dot (.5x) _._._._._._._._._._._._._._._.
 72
    65
 73
     4
 40
12.7
 49
6.35
 74
     0
 49
-3.175
 74
     0
 49
0.0
 74
     0
 49
-3.175
 74
     0
  0
LTYPE
  5
1750
330
16A7
100
AcDbSymbolTableRecord
100
AcDbLinetypeTableRecord
  2
DASHDOT
 70
     0
  3
Dash dot __ . __ . __ . __ . __ . __ . __ . __
 72
    65
 73
     4
 40
25.4
 49
12.7
 74
     0
 49
-6.35
 74
     0
 49
0.0
 74
     0
 49
-6.35
 74
     0
  0
LTYPE
  5
1752
330
16A7
100
AcDbSymbolTableRecord
100
AcDbLinetypeTableRecord
  2
CUTRIGHT2
 70
     0
  3
G42 reversed----\----\----\----
 72
    65
 73
     2
 40
10.16
 49
5.08
 74
     2
 75
     0
340
1751
 46
2.54
 50
0.0
 44
0.0
 45
0.0
  9
HRIGHT_ARROW
 49
5.08
 74
     0
  0
LTYPE
  5
1755
330
16A7
100
AcDbSymbolTableRecord
100
AcDbLinetypeTableRecord
  2
ZIGZAG
 70
     0
  3
Zig zag /\/\/\/\/\/\/\/\/\/\/\/\/\/\/\/\/\/\/\/\/\/\/\/
 72
    65
 73
     4
 40
20.32254
 49
0.00254
 74
     0
 49
-5.08
 74
     2
 75
     0
340
1753
 46
5.08
 50
0.0
 44
-5.08
 45
0.0
  9
ZIG
 49
-10.16
 74
     2
 75
     0
340
1754
 46
5.08
 50
180.0
 44
5.08
 45
0.0
  9
ZIG
 49
-5.08
 74
     0
  0
LTYPE
  5
1757
330
16A7
100
AcDbSymbolTableRecord
100
AcDbLinetypeTableRecord
  2
TRACKS
 70
     0
  3
Tracks -|-|-|-|-|-|-|-|-|-|-|-|-|-|-|-|-|-|-|-|-|-|-|-|-
 72
    65
 73
     2
 40
7.62
 49
3.81
 74
     2
 75
     0
340
1756
 46
6.35
 50
0.0
 44
0.0
 45
0.0
  9
TRACK1
 49
3.81
 74
     0
  0
LTYPE
  5
1758
330
16A7
100
AcDbSymbolTableRecord
100
AcDbLinetypeTableRecord
  2
PHANTOMX2
 70
     0
  3
Phantom (2x) ____________    ____    ____   _
 72
    65
 73
     6
 40
127.0
 49
63.5
 74
     0
 49
-12.7
 74
     0
 49
12.7
 74
     0
 49
-12.7
 74
     0
 49
12.7
 74
     0
 49
-12.7
 74
     0
  0
LTYPE
  5
1759
330
16A7
100
AcDbSymbolTableRecord
100
AcDbLinetypeTableRecord
  2
PHANTOM2
 70
     0
  3
Phantom (.5x) ___ _ _ ___ _ _ ___ _ _ ___ _ _
 72
    65
 73
     6
 40
31.75
 49
15.875
 74
     0
 49
-3.175
 74
     0
 49
3.175
 74
     0
 49
-3.175
 74
     0
 49
3.175
 74
     0
 49
-3.175
 74
     0
  0
LTYPE
  5
175A
330
16A7
100
AcDbSymbolTableRecord
100
AcDbLinetypeTableRecord
  2
PHANTOM
 70
     0
  3
Phantom ______  __  __  ______  __  __  ______ 
 72
    65
 73
     6
 40
63.50000000000001
 49
31.75
 74
     0
 49
-6.35
 74
     0
 49
6.35
 74
     0
 49
-6.35
 74
     0
 49
6.35
 74
     0
 49
-6.35
 74
     0
  0
LTYPE
  5
175C
330
16A7
100
AcDbSymbolTableRecord
100
AcDbLinetypeTableRecord
  2
HOT_WATER_SUPPLY
 70
     0
  3
Hot water supply ---- HW ---- HW ---- HW ----
 72
    65
 73
     3
 40
22.86
 49
12.7
 74
     0
 49
-5.08
 74
     2
 75
     0
340
175B
 46
2.54
 50
0.0
 44
-2.54
 45
-1.27
  9
HW
 49
-5.08
 74
     0
  0
LTYPE
  5
175D
330
16A7
100
AcDbSymbolTableRecord
100
AcDbLinetypeTableRecord
  2
HIDDENX2
 70
     0
  3
Hidden (2x) ____ ____ ____ ____ ____ ____ ____ 
 72
    65
 73
     2
 40
19.05
 49
12.7
 74
     0
 49
-6.35
 74
     0
  0
LTYPE
  5
175E
330
16A7
100
AcDbSymbolTableRecord
100
AcDbLinetypeTableRecord
  2
HIDDEN2
 70
     0
  3
Hidden (.5x) _ _ _ _ _ _ _ _ _ _ _ _ _ _ _ _ _ 
 72
    65
 73
     2
 40
4.762499999999999
 49
3.175
 74
     0
 49
-1.5875
 74
     0
  0
LTYPE
  5
175F
330
16A7
100
AcDbSymbolTableRecord
100
AcDbLinetypeTableRecord
  2
HIDDEN
 70
     0
  3
Hidden __ __ __ __ __ __ __ __ __ __ __ __ __ __
 72
    65
 73
     2
 40
9.524999999999999
 49
6.35
 74
     0
 49
-3.175
 74
     0
  0
LTYPE
  5
1761
330
16A7
100
AcDbSymbolTableRecord
100
AcDbLinetypeTableRecord
  2
GAS_LINE
 70
     0
  3
Gas line ----GAS----GAS----GAS----GAS----GAS----GAS--
 72
    65
 73
     3
 40
24.13
 49
12.7
 74
     0
 49
-5.08
 74
     2
 75
     0
340
1760
 46
2.54
 50
0.0
 44
-2.54
 45
-1.27
  9
GAS
 49
-6.35
 74
     0
  0
LTYPE
  5
1763
330
16A7
100
AcDbSymbolTableRecord
100
AcDbLinetypeTableRecord
  2
FENCELINE2
 70
     0
  3
Fenceline square ----[]-----[]----[]-----[]----[]---
 72
    65
 73
     4
 40
36.83
 49
6.35
 74
     0
 49
-2.54
 74
     2
 75
     0
340
1762
 46
2.54
 50
0.0
 44
-2.54
 45
0.0
  9
BOX
 49
-2.54
 74
     0
 49
25.4
 74
     0
  0
LTYPE
  5
1764
330
16A7
100
AcDbSymbolTableRecord
100
AcDbLinetypeTableRecord
  2
ACAD_ISO09W100
 70
     0
  3
ISO long-dash double-short-dash ____ __ __ ____
 72
    65
 73
     6
 40
45.0
 49
24.0
 74
     0
 49
-3.0
 74
     0
 49
6.0
 74
     0
 49
-3.0
 74
     0
 49
6.0
 74
     0
 49
-3.0
 74
     0
  0
LTYPE
  5
1765
330
16A7
100
AcDbSymbolTableRecord
100
AcDbLinetypeTableRecord
  2
ACAD_ISO08W100
 70
     0
  3
ISO long-dash short-dash ____ __ ____ __ ____ _
 72
    65
 73
     4
 40
36.0
 49
24.0
 74
     0
 49
-3.0
 74
     0
 49
6.0
 74
     0
 49
-3.0
 74
     0
  0
LTYPE
  5
1766
330
16A7
100
AcDbSymbolTableRecord
100
AcDbLinetypeTableRecord
  2
ACAD_ISO07W100
 70
     0
  3
ISO dot . . . . . . . . . . . . . . . . . . . . 
 72
    65
 73
     2
 40
3.0
 49
0.0
 74
     0
 49
-3.0
 74
     0
  0
LTYPE
  5
1767
330
16A7
100
AcDbSymbolTableRecord
100
AcDbLinetypeTableRecord
  2
ACAD_ISO06W100
 70
     0
  3
ISO long-dash triple-dot ____ ... ____ ... ____
 72
    65
 73
     8
 40
36.0
 49
24.0
 74
     0
 49
-3.0
 74
     0
 49
0.0
 74
     0
 49
-3.0
 74
     0
 49
0.0
 74
     0
 49
-3.0
 74
     0
 49
0.0
 74
     0
 49
-3.0
 74
     0
  0
LTYPE
  5
1768
330
16A7
100
AcDbSymbolTableRecord
100
AcDbLinetypeTableRecord
  2
ACAD_ISO05W100
 70
     0
  3
ISO long-dash double-dot ____ .. ____ .. ____ . 
 72
    65
 73
     6
 40
33.0
 49
24.0
 74
     0
 49
-3.0
 74
     0
 49
0.0
 74
     0
 49
-3.0
 74
     0
 49
0.0
 74
     0
 49
-3.0
 74
     0
  0
LTYPE
  5
1769
330
16A7
100
AcDbSymbolTableRecord
100
AcDbLinetypeTableRecord
  2
ACAD_ISO04W100
 70
     0
  3
ISO long-dash dot ____ . ____ . ____ . ____ . _
 72
    65
 73
     4
 40
30.0
 49
24.0
 74
     0
 49
-3.0
 74
     0
 49
0.0
 74
     0
 49
-3.0
 74
     0
  0
LTYPE
  5
176A
330
16A7
100
AcDbSymbolTableRecord
100
AcDbLinetypeTableRecord
  2
ACAD_ISO03W100
 70
     0
  3
ISO dash space __    __    __    __    __    __
 72
    65
 73
     2
 40
30.0
 49
12.0
 74
     0
 49
-18.0
 74
     0
  0
LTYPE
  5
176B
330
16A7
100
AcDbSymbolTableRecord
100
AcDbLinetypeTableRecord
  2
ACAD_ISO02W100
 70
     0
  3
ISO dash __ __ __ __ __ __ __ __ __ __ __ __ __
 72
    65
 73
     2
 40
15.0
 49
12.0
 74
     0
 49
-3.0
 74
     0
  0
LTYPE
  5
176D
330
16A7
100
AcDbSymbolTableRecord
100
AcDbLinetypeTableRecord
  2
CUTRIGHT
 70
     0
  3
G42 ----/----/-----/---
 72
    65
 73
     2
 40
10.16
 49
5.08
 74
     2
 75
     0
340
176C
 46
2.54
 50
180.0
 44
0.0
 45
0.0
  9
HRIGHT_ARROW
 49
5.08
 74
     0
  0
LTYPE
  5
176F
330
16A7
100
AcDbSymbolTableRecord
100
AcDbLinetypeTableRecord
  2
CUTLEFT2
 70
     0
  3
G41 reversed----/----/----/----
 72
    65
 73
     2
 40
10.16
 49
5.08
 74
     2
 75
     0
340
176E
 46
2.54
 50
0.0
 44
0.0
 45
0.0
  9
LRIGHT_ARROW
 49
5.08
 74
     0
  0
LTYPE
  5
1771
330
16A7
100
AcDbSymbolTableRecord
100
AcDbLinetypeTableRecord
  2
CUTLEFT
 70
     0
  3
G41 ----\----\----\----
 72
    65
 73
     2
 40
10.16
 49
5.08
 74
     2
 75
     0
340
1770
 46
2.54
 50
180.0
 44
0.0
 45
0.0
  9
LRIGHT_ARROW
 49
5.08
 74
     0
  0
LTYPE
  5
1772
330
16A7
100
AcDbSymbolTableRecord
100
AcDbLinetypeTableRecord
  2
CENTERX2
 70
     0
  3
Center (2x) ________  __  ________  __  _____
 72
    65
 73
     4
 40
101.6
 49
63.5
 74
     0
 49
-12.7
 74
     0
 49
12.7
 74
     0
 49
-12.7
 74
     0
  0
LTYPE
  5
1773
330
16A7
100
AcDbSymbolTableRecord
100
AcDbLinetypeTableRecord
  2
CENTER2
 70
     0
  3
Center (.5x) ___ _ ___ _ ___ _ ___ _ ___ _ ___
 72
    65
 73
     4
 40
28.575
 49
19.05
 74
     0
 49
-3.175
 74
     0
 49
3.175
 74
     0
 49
-3.175
 74
     0
  0
LTYPE
  5
1774
330
16A7
100
AcDbSymbolTableRecord
100
AcDbLinetypeTableRecord
  2
CENTER
 70
     0
  3
Center ____ _ ____ _ ____ _ ____ _ ____ _ ____
 72
    65
 73
     4
 40
50.8
 49
31.75
 74
     0
 49
-6.35
 74
     0
 49
6.35
 74
     0
 49
-6.35
 74
     0
  0
LTYPE
  5
1775
330
16A7
100
AcDbSymbolTableRecord
100
AcDbLinetypeTableRecord
  2
BORDERX2
 70
     0
  3
Border (2x) ____  ____  .  ____  ____  .  ___
 72
    65
 73
     6
 40
88.89999999999999
 49
25.4
 74
     0
 49
-12.7
 74
     0
 49
25.4
 74
     0
 49
-12.7
 74
     0
 49
0.0
 74
     0
 49
-12.7
 74
     0
  0
LTYPE
  5
1776
330
16A7
100
AcDbSymbolTableRecord
100
AcDbLinetypeTableRecord
  2
BORDER2
 70
     0
  3
Border (.5x) __.__.__.__.__.__.__.__.__.__.__.
 72
    65
 73
     6
 40
22.225
 49
6.35
 74
     0
 49
-3.175
 74
     0
 49
6.35
 74
     0
 49
-3.175
 74
     0
 49
0.0
 74
     0
 49
-3.175
 74
     0
  0
LTYPE
  5
1777
330
16A7
100
AcDbSymbolTableRecord
100
AcDbLinetypeTableRecord
  2
BORDER
 70
     0
  3
Border __ __ . __ __ . __ __ . __ __ . __ __ .
 72
    65
 73
     6
 40
44.45
 49
12.7
 74
     0
 49
-6.35
 74
     0
 49
12.7
 74
     0
 49
-6.35
 74
     0
 49
0.0
 74
     0
 49
-6.35
 74
     0
  0
LTYPE
  5
177A
330
16A7
100
AcDbSymbolTableRecord
100
AcDbLinetypeTableRecord
  2
BATTING
 70
     0
  3
Batting SSSSSSSSSSSSSSSSSSSSSSSSSSSSSSSSSSSSSSSSSSSSSSS
 72
    65
 73
     4
 40
10.16254
 49
0.00254
 74
     0
 49
-2.54
 74
     2
 75
     0
340
1778
 46
2.54
 50
0.0
 44
-2.54
 45
0.0
  9
BAT
 49
-5.08
 74
     2
 75
     0
340
1779
 46
2.54
 50
180.0
 44
2.54
 45
0.0
  9
BAT
 49
-2.54
 74
     0
  0
LTYPE
  5
177B
330
16A7
100
AcDbSymbolTableRecord
100
AcDbLinetypeTableRecord
  2
ACAD_ISO15W100
 70
     0
  3
ISO double-dash triple-dot __ __ . . . __ __ . .
 72
    65
 73
    10
 40
39.0
 49
12.0
 74
     0
 49
-3.0
 74
     0
 49
12.0
 74
     0
 49
-3.0
 74
     0
 49
0.0
 74
     0
 49
-3.0
 74
     0
 49
0.0
 74
     0
 49
-3.0
 74
     0
 49
0.0
 74
     0
 49
-3.0
 74
     0
  0
LTYPE
  5
177C
330
16A7
100
AcDbSymbolTableRecord
100
AcDbLinetypeTableRecord
  2
ACAD_ISO14W100
 70
     0
  3
ISO dash triple-dot __ . . . __ . . . __ . . . _
 72
    65
 73
     8
 40
24.0
 49
12.0
 74
     0
 49
-3.0
 74
     0
 49
0.0
 74
     0
 49
-3.0
 74
     0
 49
0.0
 74
     0
 49
-3.0
 74
     0
 49
0.0
 74
     0
 49
-3.0
 74
     0
  0
LTYPE
  5
177D
330
16A7
100
AcDbSymbolTableRecord
100
AcDbLinetypeTableRecord
  2
ACAD_ISO13W100
 70
     0
  3
ISO double-dash double-dot __ __ . . __ __ . . _
 72
    65
 73
     8
 40
36.0
 49
12.0
 74
     0
 49
-3.0
 74
     0
 49
12.0
 74
     0
 49
-3.0
 74
     0
 49
0.0
 74
     0
 49
-3.0
 74
     0
 49
0.0
 74
     0
 49
-3.0
 74
     0
  0
LTYPE
  5
177E
330
16A7
100
AcDbSymbolTableRecord
100
AcDbLinetypeTableRecord
  2
ACAD_ISO12W100
 70
     0
  3
ISO dash double-dot __ . . __ . . __ . . __ . . 
 72
    65
 73
     6
 40
21.0
 49
12.0
 74
     0
 49
-3.0
 74
     0
 49
0.0
 74
     0
 49
-3.0
 74
     0
 49
0.0
 74
     0
 49
-3.0
 74
     0
  0
LTYPE
  5
177F
330
16A7
100
AcDbSymbolTableRecord
100
AcDbLinetypeTableRecord
  2
ACAD_ISO11W100
 70
     0
  3
ISO double-dash dot __ __ . __ __ . __ __ . __ _
 72
    65
 73
     6
 40
33.0
 49
12.0
 74
     0
 49
-3.0
 74
     0
 49
12.0
 74
     0
 49
-3.0
 74
     0
 49
0.0
 74
     0
 49
-3.0
 74
     0
  0
LTYPE
  5
1780
330
16A7
100
AcDbSymbolTableRecord
100
AcDbLinetypeTableRecord
  2
ACAD_ISO10W100
 70
     0
  3
ISO dash dot __ . __ . __ . __ . __ . __ . __ . 
 72
    65
 73
     4
 40
18.0
 49
12.0
 74
     0
 49
-3.0
 74
     0
 49
0.0
 74
     0
 49
-3.0
 74
     0
  0
LTYPE
  5
1782
330
16A7
100
AcDbSymbolTableRecord
100
AcDbLinetypeTableRecord
  2
FENCELINE1
 70
     0
  3
Fenceline circle ----0-----0----0-----0----0-----0--
 72
    65
 73
     4
 40
36.83
 49
6.35
 74
     0
 49
-2.54
 74
     2
 75
     0
340
1781
 46
2.54
 50
0.0
 44
-2.54
 45
0.0
  9
CIRC1
 49
-2.54
 74
     0
 49
25.4
 74
     0
  0
LTYPE
  5
1784
330
16A7
100
AcDbSymbolTableRecord
100
AcDbLinetypeTableRecord
  2
DRAINAGE2
 70
     0
  3
Drainage reversed----<----<----<----
 72
    65
 73
     2
 40
10.16
 49
5.08
 74
     2
 75
     0
340
1783
 46
2.54
 50
0.0
 44
0.0
 45
0.0
  9
RIGHT_ARROW
 49
5.08
 74
     0
  0
LTYPE
  5
1786
330
16A7
100
AcDbSymbolTableRecord
100
AcDbLinetypeTableRecord
  2
DRAINAGE
 70
     0
  3
Drainage ---->---->---->----
 72
    65
 73
     2
 40
10.16
 49
5.08
 74
     2
 75
     0
340
1785
 46
2.54
 50
180.0
 44
0.0
 45
0.0
  9
RIGHT_ARROW
 49
5.08
 74
     0
  0
LTYPE
  5
1787
330
16A7
100
AcDbSymbolTableRecord
100
AcDbLinetypeTableRecord
  2
DOTX2
 70
     0
  3
Dot (2x) .  .  .  .  .  .  .  .  .  .  .  .  .  .
 72
    65
 73
     2
 40
12.7
 49
0.0
 74
     0
 49
-12.7
 74
     0
  0
LTYPE
  5
1788
330
16A7
100
AcDbSymbolTableRecord
100
AcDbLinetypeTableRecord
  2
DOT2
 70
     0
  3
Dot (.5x) ........................................
 72
    65
 73
     2
 40
3.175
 49
0.0
 74
     0
 49
-3.175
 74
     0
  0
LTYPE
  5
1789
330
16A7
100
AcDbSymbolTableRecord
100
AcDbLinetypeTableRecord
  2
DOT
 70
     0
  3
Dot . . . . . . . . . . . . . . . . . . . . . . . .
 72
    65
 73
     2
 40
6.35
 49
0.0
 74
     0
 49
-6.35
 74
     0
  0
LTYPE
  5
178A
330
16A7
100
AcDbSymbolTableRecord
100
AcDbLinetypeTableRecord
  2
DIVIDEX2
 70
     0
  3
Divide (2x) ________  .  .  ________  .  .  _
 72
    65
 73
     6
 40
63.5
 49
25.4
 74
     0
 49
-12.7
 74
     0
 49
0.0
 74
     0
 49
-12.7
 74
     0
 49
0.0
 74
     0
 49
-12.7
 74
     0
  0
LTYPE
  5
178B
330
16A7
100
AcDbSymbolTableRecord
100
AcDbLinetypeTableRecord
  2
DIVIDE2
 70
     0
  3
Divide (.5x) __..__..__..__..__..__..__..__.._
 72
    65
 73
     6
 40
15.875
 49
6.35
 74
     0
 49
-3.175
 74
     0
 49
0.0
 74
     0
 49
-3.175
 74
     0
 49
0.0
 74
     0
 49
-3.175
 74
     0
  0
LTYPE
  5
178C
330
16A7
100
AcDbSymbolTableRecord
100
AcDbLinetypeTableRecord
  2
DIVIDE
 70
     0
  3
Divide ____ . . ____ . . ____ . . ____ . . ____
 72
    65
 73
     6
 40
31.75
 49
12.7
 74
     0
 49
-6.35
 74
     0
 49
0.0
 74
     0
 49
-6.35
 74
     0
 49
0.0
 74
     0
 49
-6.35
 74
     0
  0
LTYPE
  5
178D
330
16A7
100
AcDbSymbolTableRecord
100
AcDbLinetypeTableRecord
  2
DASHEDX2
 70
     0
  3
Dashed (2x) ____  ____  ____  ____  ____  ___
 72
    65
 73
     2
 40
38.09999999999999
 49
25.4
 74
     0
 49
-12.7
 74
     0
  0
LTYPE
  5
178E
330
16A7
100
AcDbSymbolTableRecord
100
AcDbLinetypeTableRecord
  2
DASHED2
 70
     0
  3
Dashed (.5x) _ _ _ _ _ _ _ _ _ _ _ _ _ _ _ _ _ 
 72
    65
 73
     2
 40
9.524999999999999
 49
6.35
 74
     0
 49
-3.175
 74
     0
  0
LTYPE
  5
178F
330
16A7
100
AcDbSymbolTableRecord
100
AcDbLinetypeTableRecord
  2
DASHED
 70
     0
  3
Dashed __ __ __ __ __ __ __ __ __ __ __ __ __ _
 72
    65
 73
     2
 40
19.05
 49
12.7
 74
     0
 49
-6.35
 74
     0
  0
LTYPE
  5
1790
330
16A7
100
AcDbSymbolTableRecord
100
AcDbLinetypeTableRecord
  2
DASHDOTX2
 70
     0
  3
Dash dot (2x) ____  .  ____  .  ____  .  ___
 72
    65
 73
     4
 40
50.8
 49
25.4
 74
     0
 49
-12.7
 74
     0
 49
0.0
 74
     0
 49
-12.7
 74
     0
  0
ENDTAB
  0
TABLE
  2
LAYER
  5
16A5
330
0
100
AcDbSymbolTable
 70
     4
  0
LAYER
  5
16B2
330
16A5
100
AcDbSymbolTableRecord
100
AcDbLayerTableRecord
  2
0
 70
     0
 62
     7
420
 16777215
  6
Continuous
370
     0
390
16B1
347
16E7
348
0
  0
LAYER
  5
1791
330
16A5
100
AcDbSymbolTableRecord
100
AcDbLayerTableRecord
  2
2
 70
     0
 62
     3
420
    65280
  6
Continuous
370
    18
390
16B1
347
16E7
348
0
  0
LAYER
  5
1792
330
16A5
100
AcDbSymbolTableRecord
100
AcDbLayerTableRecord
  2
1
 70
     0
 62
     2
420
 16776960
  6
Continuous
370
    18
390
16B1
347
16E7
348
0
  0
LAYER
  5
1793
330
16A5
100
AcDbSymbolTableRecord
100
AcDbLayerTableRecord
  2
Defpoints
 70
     0
 62
     7
420
 16777215
  6
Continuous
290
     0
370
    -3
390
16B1
347
16E7
348
0
  0
ENDTAB
  0
TABLE
  2
STYLE
  5
16A6
330
0
100
AcDbSymbolTable
 70
    31
  0
STYLE
  5
16B3
330
16A6
100
AcDbSymbolTableRecord
100
AcDbTextStyleTableRecord
  2
Standard
 70
     0
 40
0.0
 41
1.0
 50
0.0
 71
     0
 42
0.2
  3
txt
  4

  0
STYLE
  5
174D
330
16A6
100
AcDbSymbolTableRecord
100
AcDbTextStyleTableRecord
  2
QCADDimTextStyle
 70
     0
 40
0.0
 41
1.0
 50
0.0
 71
     0
 42
0.2
  3
txt
  4

  0
STYLE
  5
1751
330
16A6
100
AcDbSymbolTableRecord
100
AcDbTextStyleTableRecord
  2
textstyle0
 70
     0
 40
0.0
 41
1.0
 50
0.0
 71
     0
 42
0.2
  3
qcadshp.shx
  4

  0
STYLE
  5
1753
330
16A6
100
AcDbSymbolTableRecord
100
AcDbTextStyleTableRecord
  2
textstyle1
 70
     0
 40
0.0
 41
1.0
 50
0.0
 71
     0
 42
0.2
  3
ltypeshp.shx
  4

  0
STYLE
  5
1754
330
16A6
100
AcDbSymbolTableRecord
100
AcDbTextStyleTableRecord
  2
textstyle2
 70
     0
 40
0.0
 41
1.0
 50
0.0
 71
     0
 42
0.2
  3
ltypeshp.shx
  4

  0
STYLE
  5
1756
330
16A6
100
AcDbSymbolTableRecord
100
AcDbTextStyleTableRecord
  2
textstyle3
 70
     0
 40
0.0
 41
1.0
 50
0.0
 71
     0
 42
0.2
  3
ltypeshp.shx
  4

  0
STYLE
  5
175B
330
16A6
100
AcDbSymbolTableRecord
100
AcDbTextStyleTableRecord
  2
textstyle4
 70
     0
 40
0.0
 41
1.0
 50
0.0
 71
     0
 42
0.2
  3
STANDARD
  4

  0
STYLE
  5
1760
330
16A6
100
AcDbSymbolTableRecord
100
AcDbTextStyleTableRecord
  2
textstyle5
 70
     0
 40
0.0
 41
1.0
 50
0.0
 71
     0
 42
0.2
  3
STANDARD
  4

  0
STYLE
  5
1762
330
16A6
100
AcDbSymbolTableRecord
100
AcDbTextStyleTableRecord
  2
textstyle6
 70
     0
 40
0.0
 41
1.0
 50
0.0
 71
     0
 42
0.2
  3
ltypeshp.shx
  4

  0
STYLE
  5
176C
330
16A6
100
AcDbSymbolTableRecord
100
AcDbTextStyleTableRecord
  2
textstyle7
 70
     0
 40
0.0
 41
1.0
 50
0.0
 71
     0
 42
0.2
  3
qcadshp.shx
  4

  0
STYLE
  5
176E
330
16A6
100
AcDbSymbolTableRecord
100
AcDbTextStyleTableRecord
  2
textstyle8
 70
     0
 40
0.0
 41
1.0
 50
0.0
 71
     0
 42
0.2
  3
qcadshp.shx
  4

  0
STYLE
  5
1770
330
16A6
100
AcDbSymbolTableRecord
100
AcDbTextStyleTableRecord
  2
textstyle9
 70
     0
 40
0.0
 41
1.0
 50
0.0
 71
     0
 42
0.2
  3
qcadshp.shx
  4

  0
STYLE
  5
1778
330
16A6
100
AcDbSymbolTableRecord
100
AcDbTextStyleTableRecord
  2
textstyle10
 70
     0
 40
0.0
 41
1.0
 50
0.0
 71
     0
 42
0.2
  3
ltypeshp.shx
  4

  0
STYLE
  5
1779
330
16A6
100
AcDbSymbolTableRecord
100
AcDbTextStyleTableRecord
  2
textstyle11
 70
     0
 40
0.0
 41
1.0
 50
0.0
 71
     0
 42
0.2
  3
ltypeshp.shx
  4

  0
STYLE
  5
1781
330
16A6
100
AcDbSymbolTableRecord
100
AcDbTextStyleTableRecord
  2
textstyle12
 70
     0
 40
0.0
 41
1.0
 50
0.0
 71
     0
 42
0.2
  3
ltypeshp.shx
  4

  0
STYLE
  5
1783
330
16A6
100
AcDbSymbolTableRecord
100
AcDbTextStyleTableRecord
  2
textstyle13
 70
     0
 40
0.0
 41
1.0
 50
0.0
 71
     0
 42
0.2
  3
qcadshp.shx
  4

  0
STYLE
  5
1785
330
16A6
100
AcDbSymbolTableRecord
100
AcDbTextStyleTableRecord
  2
textstyle14
 70
     0
 40
0.0
 41
1.0
 50
0.0
 71
     0
 42
0.2
  3
qcadshp.shx
  4

  0
STYLE
  5
1796
330
16A6
100
AcDbSymbolTableRecord
100
AcDbTextStyleTableRecord
  2
textstyle15
 70
     0
 40
0.0
 41
1.0
 50
0.0
 71
     0
 42
0.2
  3
NormalLatin2
  4

1001
ACAD
1000
NormalLatin2
1071
        0
  0
STYLE
  5
1797
330
16A6
100
AcDbSymbolTableRecord
100
AcDbTextStyleTableRecord
  2
textstyle16
 70
     0
 40
0.0
 41
1.0
 50
0.0
 71
     0
 42
0.2
  3
NormalLatin2
  4

1001
ACAD
1000
NormalLatin2
1071
        0
  0
STYLE
  5
1798
330
16A6
100
AcDbSymbolTableRecord
100
AcDbTextStyleTableRecord
  2
textstyle17
 70
     0
 40
0.0
 41
1.0
 50
0.0
 71
     0
 42
0.2
  3
NormalLatin2
  4

1001
ACAD
1000
NormalLatin2
1071
        0
  0
STYLE
  5
1799
330
16A6
100
AcDbSymbolTableRecord
100
AcDbTextStyleTableRecord
  2
textstyle18
 70
     0
 40
0.0
 41
1.0
 50
0.0
 71
     0
 42
0.2
  3
NormalLatin2
  4

1001
ACAD
1000
NormalLatin2
1071
        0
  0
STYLE
  5
179A
330
16A6
100
AcDbSymbolTableRecord
100
AcDbTextStyleTableRecord
  2
textstyle19
 70
     0
 40
0.0
 41
1.0
 50
0.0
 71
     0
 42
0.2
  3
NormalLatin2
  4

1001
ACAD
1000
NormalLatin2
1071
        0
  0
STYLE
  5
179B
330
16A6
100
AcDbSymbolTableRecord
100
AcDbTextStyleTableRecord
  2
textstyle20
 70
     0
 40
0.0
 41
1.0
 50
0.0
 71
     0
 42
0.2
  3
NormalLatin2
  4

1001
ACAD
1000
NormalLatin2
1071
        0
  0
STYLE
  5
179C
330
16A6
100
AcDbSymbolTableRecord
100
AcDbTextStyleTableRecord
  2
textstyle21
 70
     0
 40
0.0
 41
1.0
 50
0.0
 71
     0
 42
0.2
  3
NormalLatin2
  4

1001
ACAD
1000
NormalLatin2
1071
        0
  0
STYLE
  5
179D
330
16A6
100
AcDbSymbolTableRecord
100
AcDbTextStyleTableRecord
  2
textstyle22
 70
     0
 40
0.0
 41
1.0
 50
0.0
 71
     0
 42
0.2
  3
NormalLatin2
  4

1001
ACAD
1000
NormalLatin2
1071
        0
  0
STYLE
  5
179E
330
16A6
100
AcDbSymbolTableRecord
100
AcDbTextStyleTableRecord
  2
textstyle23
 70
     0
 40
0.0
 41
1.0
 50
0.0
 71
     0
 42
0.2
  3
NormalLatin2
  4

1001
ACAD
1000
NormalLatin2
1071
        0
  0
STYLE
  5
179F
330
16A6
100
AcDbSymbolTableRecord
100
AcDbTextStyleTableRecord
  2
textstyle24
 70
     0
 40
0.0
 41
1.0
 50
0.0
 71
     0
 42
0.2
  3
NormalLatin2
  4

1001
ACAD
1000
NormalLatin2
1071
        0
  0
STYLE
  5
17A0
330
16A6
100
AcDbSymbolTableRecord
100
AcDbTextStyleTableRecord
  2
textstyle25
 70
     0
 40
0.0
 41
1.0
 50
0.0
 71
     0
 42
0.2
  3
NormalLatin2
  4

1001
ACAD
1000
NormalLatin2
1071
        0
  0
STYLE
  5
17A1
330
16A6
100
AcDbSymbolTableRecord
100
AcDbTextStyleTableRecord
  2
textstyle26
 70
     0
 40
0.0
 41
1.0
 50
0.0
 71
     0
 42
0.2
  3
NormalLatin2
  4

1001
ACAD
1000
NormalLatin2
1071
 33554432
  0
STYLE
  5
17A2
330
16A6
100
AcDbSymbolTableRecord
100
AcDbTextStyleTableRecord
  2
textstyle27
 70
     0
 40
0.0
 41
1.0
 50
0.0
 71
     0
 42
0.2
  3
NormalLatin2
  4

1001
ACAD
1000
NormalLatin2
1071
        0
  0
STYLE
  5
17A3
330
16A6
100
AcDbSymbolTableRecord
100
AcDbTextStyleTableRecord
  2
textstyle28
 70
     0
 40
0.0
 41
1.0
 50
0.0
 71
     0
 42
0.2
  3
NormalLatin2
  4

1001
ACAD
1000
NormalLatin2
1071
        0
  0
ENDTAB
  0
TABLE
  2
VIEW
  5
16A8
330
0
100
AcDbSymbolTable
 70
     0
  0
ENDTAB
  0
TABLE
  2
UCS
  5
16A9
330
0
100
AcDbSymbolTable
 70
     0
  0
ENDTAB
  0
TABLE
  2
APPID
  5
16AB
330
0
100
AcDbSymbolTable
 70
     2
  0
APPID
  5
16B4
330
16AB
100
AcDbSymbolTableRecord
100
AcDbRegAppTableRecord
  2
ACAD
 70
     0
  0
APPID
  5
170F
330
16AB
100
AcDbSymbolTableRecord
100
AcDbRegAppTableRecord
  2
QCAD
 70
     0
  0
ENDTAB
  0
TABLE
  2
DIMSTYLE
  5
16AC
330
0
100
AcDbSymbolTable
 70
     2
100
AcDbDimStyleTable
  0
DIMSTYLE
105
16C8
330
16AC
100
AcDbSymbolTableRecord
100
AcDbDimStyleTableRecord
  2
Standard
 70
     0
178
     0
340
16B3
  0
DIMSTYLE
105
174E
102
{ACAD_REACTORS
330
16F
330
170
330
4DE
102
}
330
16AC
100
AcDbSymbolTableRecord
100
AcDbDimStyleTableRecord
  2
QCADDimStyle
 70
     0
 41
25.0
 42
6.25
 44
12.5
 73
     0
 77
     1
140
25.0
147
6.25
178
     0
340
174D
  0
ENDTAB
  0
TABLE
  2
BLOCK_RECORD
  5
16A4
330
0
100
AcDbSymbolTable
 70
     0
  0
BLOCK_RECORD
  5
16C0
330
16A4
100
AcDbSymbolTableRecord
100
AcDbBlockTableRecord
  2
*Model_Space
340
16C3
 70
     0
280
     1
281
     0
  0
BLOCK_RECORD
  5
16BC
330
16A4
100
AcDbSymbolTableRecord
100
AcDbBlockTableRecord
  2
*Paper_Space
340
16BF
 70
     0
280
     1
281
     0
  0
ENDTAB
  0
ENDSEC
  0
SECTION
  2
BLOCKS
  0
BLOCK
  5
16C1
330
16C0
100
AcDbEntity
  8
0
100
AcDbBlockBegin
  2
*Model_Space
 70
     0
 10
0.0
 20
0.0
 30
0.0
  3
*Model_Space
  1

  0
ENDBLK
  5
16C2
330
16C0
100
AcDbEntity
  8
0
100
AcDbBlockEnd
  0
BLOCK
  5
16BD
330
16BC
100
AcDbEntity
 67
     1
  8
0
100
AcDbBlockBegin
  2
*Paper_Space
 70
     0
 10
0.0
 20
0.0
 30
0.0
  3
*Paper_Space
  1

  0
ENDBLK
  5
16BE
330
16BC
100
AcDbEntity
 67
     1
  8
0
100
AcDbBlockEnd
  0
ENDSEC
  0
SECTION
  2
ENTITIES
  0
LINE
  5
4C
330
16C0
100
AcDbEntity
  8
1
100
AcDbLine
 10
217.0
 20
31.00000000000003
 30
0.0
 11
-163.0000000000001
 21
30.99999999999997
 31
0.0
  0
LINE
  5
163
330
16C0
100
AcDbEntity
  8
1
100
AcDbLine
 10
841.2093480385226
 20
31.00000000000003
 30
0.0
 11
381.2093480385226
 21
31.00000000000003
 31
0.0
  0
LINE
  5
4AF
330
16C0
100
AcDbEntity
  8
0
100
AcDbLine
 10
1483.972408033309
 20
31.13043478260872
 30
0.0
 11
1028.972408033309
 21
31.13043478260872
 31
0.0
  0
LINE
  5
852
330
16C0
100
AcDbEntity
  8
0
100
AcDbLine
 10
2124.235468028095
 20
31.26086956521741
 30
0.0
 11
1674.235468028095
 21
31.26086956521741
 31
0.0
  0
LINE
  5
3D
330
16C0
100
AcDbEntity
  8
1
100
AcDbLine
 10
26.99999999999999
 20
-187.0
 30
0.0
 11
27.0
 21
31.0
 31
0.0
  0
LINE
  5
161
330
16C0
100
AcDbEntity
  8
1
100
AcDbLine
 10
611.2093480385226
 20
-232.8947368421053
 30
0.0
 11
611.2093480385226
 21
31.00000000000003
 31
0.0
  0
LINE
  5
4B0
330
16C0
100
AcDbEntity
  8
1
100
AcDbLine
 10
1256.472408033309
 20
-229.895881006865
 30
0.0
 11
1256.472408033309
 21
31.13043478260872
 31
0.0
  0
LINE
  5
853
330
16C0
100
AcDbEntity
  8
1
100
AcDbLine
 10
1899.235468028095
 20
-226.8970251716248
 30
0.0
 11
1899.235468028095
 21
31.26086956521741
 31
0.0
  0
LINE
  5
40
330
16C0
100
AcDbEntity
  8
0
100
AcDbLine
 10
26.99999999999999
 20
-187.0
 30
0.0
 11
175.0
 21
-187.0
 31
0.0
  0
LINE
  5
152
330
16C0
100
AcDbEntity
  8
0
100
AcDbLine
 10
611.2093480385226
 20
-232.8947368421053
 30
0.0
 11
790.3672427753648
 21
-232.8947368421053
 31
0.0
  0
LINE
  5
4B1
330
16C0
100
AcDbEntity
  8
0
100
AcDbLine
 10
1256.472408033309
 20
-229.895881006865
 30
0.0
 11
1433.682934349099
 21
-229.895881006865
 31
0.0
  0
LINE
  5
854
330
16C0
100
AcDbEntity
  8
0
100
AcDbLine
 10
1899.235468028095
 20
-226.8970251716248
 30
0.0
 11
2074.498625922833
 21
-226.8970251716248
 31
0.0
  0
LINE
  5
50
330
16C0
100
AcDbEntity
  8
0
100
AcDbLine
 10
26.99999999999999
 20
-187.0
 30
0.0
 11
-121.0
 21
-187.0
 31
0.0
  0
LINE
  5
151
330
16C0
100
AcDbEntity
  8
0
100
AcDbLine
 10
611.2093480385226
 20
-232.8947368421053
 30
0.0
 11
432.0514533016807
 21
-232.8947368421053
 31
0.0
  0
LINE
  5
4B2
330
16C0
100
AcDbEntity
  8
0
100
AcDbLine
 10
1256.472408033309
 20
-229.895881006865
 30
0.0
 11
1079.26188171752
 21
-229.895881006865
 31
0.0
  0
LINE
  5
855
330
16C0
100
AcDbEntity
  8
0
100
AcDbLine
 10
1899.235468028095
 20
-226.8970251716248
 30
0.0
 11
1723.972310133359
 21
-226.8970251716248
 31
0.0
  0
LINE
  5
44
330
16C0
100
AcDbEntity
  8
1
100
AcDbLine
 10
27.0
 20
31.0
 30
0.0
 11
27.00000000000001
 21
194.0
 31
0.0
  0
LINE
  5
165
330
16C0
100
AcDbEntity
  8
1
100
AcDbLine
 10
611.2093480385226
 20
31.00000000000003
 30
0.0
 11
611.2093480385226
 21
228.3157894736842
 31
0.0
  0
LINE
  5
4BF
330
16C0
100
AcDbEntity
  8
1
100
AcDbLine
 10
1256.472408033309
 20
31.13043478260872
 30
0.0
 11
1256.472408033309
 21
226.3014874141876
 31
0.0
  0
LINE
  5
862
330
16C0
100
AcDbEntity
  8
1
100
AcDbLine
 10
1899.235468028095
 20
31.26086956521741
 30
0.0
 11
1899.235468028095
 21
224.287185354691
 31
0.0
  0
LINE
  5
45
330
16C0
100
AcDbEntity
  8
0
100
AcDbLine
 10
175.0
 20
-187.0
 30
0.0
 11
217.0
 21
31.00000000000006
 31
0.0
  0
LINE
  5
164
330
16C0
100
AcDbEntity
  8
0
100
AcDbLine
 10
790.3672427753648
 20
-232.8947368421053
 30
0.0
 11
841.2093480385226
 21
31.00000000000016
 31
0.0
  0
LINE
  5
4C0
330
16C0
100
AcDbEntity
  8
0
100
AcDbLine
 10
1433.682934349099
 20
-229.895881006865
 30
0.0
 11
1483.972408033309
 21
31.13043478260886
 31
0.0
  0
LINE
  5
863
330
16C0
100
AcDbEntity
  8
0
100
AcDbLine
 10
2074.498625922833
 20
-226.8970251716248
 30
0.0
 11
2124.235468028095
 21
31.26086956521755
 31
0.0
  0
LINE
  5
4E
330
16C0
100
AcDbEntity
  8
0
100
AcDbLine
 10
-121.0
 20
-187.0
 30
0.0
 11
-163.0000000000001
 21
30.99999999999997
 31
0.0
  0
LINE
  5
162
330
16C0
100
AcDbEntity
  8
0
100
AcDbLine
 10
432.0514533016807
 20
-232.8947368421053
 30
0.0
 11
381.2093480385226
 21
31.00000000000003
 31
0.0
  0
LINE
  5
4C1
330
16C0
100
AcDbEntity
  8
0
100
AcDbLine
 10
1079.26188171752
 20
-229.895881006865
 30
0.0
 11
1028.972408033309
 21
31.13043478260872
 31
0.0
  0
LINE
  5
864
330
16C0
100
AcDbEntity
  8
0
100
AcDbLine
 10
1723.972310133359
 20
-226.8970251716248
 30
0.0
 11
1674.235468028095
 21
31.26086956521741
 31
0.0
  0
LINE
  5
16A
330
16C0
100
AcDbEntity
  8
0
100
AcDbLine
 10
383.5212746440272
 20
43.00000000000005
 30
0.0
 11
381.2093480385226
 21
31.00000000000003
 31
0.0
  0
LINE
  5
4CE
330
16C0
100
AcDbEntity
  8
0
100
AcDbLine
 10
1031.259205001797
 20
43.00000000000005
 30
0.0
 11
1028.972408033309
 21
31.13043478260872
 31
0.0
  0
LINE
  5
871
330
16C0
100
AcDbEntity
  8
0
100
AcDbLine
 10
1676.497135359567
 20
43.00000000000005
 30
0.0
 11
1674.235468028095
 21
31.26086956521741
 31
0.0
  0
LINE
  5
16B
330
16C0
100
AcDbEntity
  8
0
100
AcDbLine
 10
838.8974214330182
 20
43.00000000000001
 30
0.0
 11
841.2093480385226
 21
31.00000000000012
 31
0.0
  0
LINE
  5
4CF
330
16C0
100
AcDbEntity
  8
0
100
AcDbLine
 10
1481.685611064821
 20
43.00000000000001
 30
0.0
 11
1483.972408033309
 21
31.13043478260882
 31
0.0
  0
LINE
  5
872
330
16C0
100
AcDbEntity
  8
0
100
AcDbLine
 10
2121.973800696624
 20
43.00000000000001
 30
0.0
 11
2124.235468028095
 21
31.26086956521751
 31
0.0
  0
LINE
  5
16D
330
16C0
100
AcDbEntity
  8
0
100
AcDbLine
 10
-160.6880733944955
 20
42.99999999999997
 30
0.0
 11
-163.0000000000001
 21
30.99999999999997
 31
0.0
  0
LINE
  5
16E
330
16C0
100
AcDbEntity
  8
0
100
AcDbLine
 10
214.6880733944955
 20
43.00000000000003
 30
0.0
 11
217.0000000000001
 21
31.00000000000001
 31
0.0
  0
LINE
  5
47
330
16C0
100
AcDbEntity
  8
2
100
AcDbLine
 10
52.4
 20
21.0
 30
0.0
 11
52.4
 21
41.0
 31
0.0
  0
LINE
  5
160
330
16C0
100
AcDbEntity
  8
2
100
AcDbLine
 10
641.9567164595755
 20
18.8947368421053
 30
0.0
 11
641.9567164595755
 21
43.10526315789476
 31
0.0
  0
LINE
  5
4D0
330
16C0
100
AcDbEntity
  8
2
100
AcDbLine
 10
1286.885565928046
 20
19.15675057208242
 30
0.0
 11
1286.885565928046
 21
43.10411899313504
 31
0.0
  0
LINE
  5
873
330
16C0
100
AcDbEntity
  8
2
100
AcDbLine
 10
1929.314415396517
 20
19.41876430205953
 30
0.0
 11
1929.314415396517
 21
43.10297482837531
 31
0.0
  0
LINE
  5
4F
330
16C0
100
AcDbEntity
  8
2
100
AcDbLine
 10
1.600000000000026
 20
21.00000000000003
 30
0.0
 11
1.600000000000001
 21
41.00000000000003
 31
0.0
  0
LINE
  5
15F
330
16C0
100
AcDbEntity
  8
2
100
AcDbLine
 10
580.4619796174702
 20
18.8947368421053
 30
0.0
 11
580.46197961747
 21
43.10526315789476
 31
0.0
  0
LINE
  5
4D1
330
16C0
100
AcDbEntity
  8
2
100
AcDbLine
 10
1226.059250138572
 20
19.15675057208242
 30
0.0
 11
1226.059250138572
 21
43.10411899313504
 31
0.0
  0
LINE
  5
874
330
16C0
100
AcDbEntity
  8
2
100
AcDbLine
 10
1869.156520659674
 20
19.41876430205953
 30
0.0
 11
1869.156520659674
 21
43.10297482837531
 31
0.0
  0
ARC
  5
53
330
16C0
100
AcDbEntity
  8
1
100
AcDbCircle
 10
27.0
 20
-260.043478260867
 30
0.0
 40
165.043478260867
100
AcDbArc
 50
26.2680446127921
 51
153.7319553872079
  0
ARC
  5
15E
330
16C0
100
AcDbEntity
  8
1
100
AcDbCircle
 10
611.2093480385226
 20
-321.315789473681
 30
0.0
 40
199.7894736842075
100
AcDbArc
 50
26.2680446127921
 51
153.7319553872079
  0
ARC
  5
4D2
330
16C0
100
AcDbEntity
  8
1
100
AcDbCircle
 10
1256.472408033309
 20
-317.3558352402714
 30
0.0
 40
197.6178489702487
100
AcDbArc
 50
26.2680446127921
 51
153.7319553872079
  0
ARC
  5
875
330
16C0
100
AcDbEntity
  8
1
100
AcDbCircle
 10
1899.235468028095
 20
-313.3958810068618
 30
0.0
 40
195.4462242562899
100
AcDbArc
 50
26.2680446127921
 51
153.7319553872079
  0
MTEXT
  5
54
330
16C0
100
AcDbEntity
  8
0
100
AcDbMText
 10
92.901119481705
 20
25.23800282089611
 30
0.0
 40
5.0
 41
0.0
 46
0.0
 71
     1
 72
     1
  1
\H16.6667;1.3mm CF
  7
textstyle15
 73
     1
 44
1.0
  0
MTEXT
  5
15D
330
16C0
100
AcDbEntity
  8
0
100
AcDbMText
 10
689.8601742413887
 20
25.64374900288063
 30
0.0
 40
6.052635121951219
 41
0.0
 46
0.0
 71
     1
 72
     1
  1
\H19.956;1.5mm CF
  7
textstyle16
 73
     1
 44
1.0
  0
MTEXT
  5
4D3
330
16C0
100
AcDbEntity
  8
0
100
AcDbMText
 10
1334.268333951361
 20
25.83240390502294
 30
0.0
 40
5.986845609756097
 41
0.0
 46
0.0
 71
     1
 72
     1
  1
\H19.739;1.5mm CF
  7
textstyle17
 73
     1
 44
1.0
  0
LINE
  5
E89
330
16C0
100
AcDbEntity
  8
0
100
AcDbLine
 10
1992.172105323841
 20
5.887225454354134
 30
0.0
 11
1992.172105323841
 21
9.670758196509658
 31
0.0
  0
LINE
  5
E8A
330
16C0
100
AcDbEntity
  8
0
100
AcDbLine
 10
1992.172105323841
 20
9.670758196509658
 30
0.0
 11
1995.955638065996
 21
9.670758196509658
 31
0.0
  0
LINE
  5
E8B
330
16C0
100
AcDbEntity
  8
0
100
AcDbLine
 10
1995.955638065996
 20
9.670758196509658
 30
0.0
 11
1995.955638065996
 21
5.887225454354134
 31
0.0
  0
LINE
  5
E8C
330
16C0
100
AcDbEntity
  8
0
100
AcDbLine
 10
1995.955638065996
 20
5.887225454354134
 30
0.0
 11
1992.172105323841
 21
5.887225454354134
 31
0.0
  0
LINE
  5
E8D
330
16C0
100
AcDbEntity
  8
0
100
AcDbLine
 10
1985.702550835642
 20
5.887225454354134
 30
0.0
 11
1981.919018093487
 21
5.887225454354134
 31
0.0
  0
LINE
  5
E8E
330
16C0
100
AcDbEntity
  8
0
100
AcDbLine
 10
1981.919018093487
 20
5.887225454354134
 30
0.0
 11
1981.919018093487
 21
20.1461620164278
 31
0.0
  0
ARC
  5
E8F
330
16C0
100
AcDbEntity
  8
0
100
AcDbCircle
 10
1973.031702345111
 20
29.6933719614874
 30
0.0
 40
13.04352708995469
100
AcDbArc
 50
287.8569703289037
 51
312.9498786201064
1001
QCAD
1000
reversed:1
  0
LINE
  5
E90
330
16C0
100
AcDbEntity
  8
0
100
AcDbLine
 10
1977.031393946147
 20
17.27821726881525
 30
0.0
 11
1977.031393946147
 21
20.71167224835141
 31
0.0
  0
ARC
  5
E91
330
16C0
100
AcDbEntity
  8
0
100
AcDbCircle
 10
1974.664830839517
 20
27.94283729638768
 30
0.0
 40
7.608572066400132
100
AcDbArc
 50
288.1218602479016
 51
299.7319710268779
  0
ARC
  5
E92
330
16C0
100
AcDbEntity
  8
0
100
AcDbCircle
 10
1970.866651021028
 20
34.59313016538983
 30
0.0
 40
15.26706834028273
100
AcDbArc
 50
299.7319710268778
 51
307.9210783953858
  0
ARC
  5
E93
330
16C0
100
AcDbEntity
  8
0
100
AcDbCircle
 10
1976.095129008691
 20
28.16336691997313
 30
0.0
 40
6.983745566920654
100
AcDbArc
 50
306.5020049699789
 51
339.4071715540839
  0
LINE
  5
E94
330
16C0
100
AcDbEntity
  8
0
100
AcDbLine
 10
1982.632638148057
 20
25.70701263034322
 30
0.0
 11
1985.702550835642
 21
25.70701263034322
 31
0.0
  0
LINE
  5
E95
330
16C0
100
AcDbEntity
  8
0
100
AcDbLine
 10
1985.702550835642
 20
25.70701263034322
 30
0.0
 11
1985.702550835642
 21
5.887225454354134
 31
0.0
  0
LINE
  5
E96
330
16C0
100
AcDbEntity
  8
0
100
AcDbLine
 10
2014.903369184379
 20
20.18655560442235
 30
0.0
 11
2018.390682281241
 21
20.18655560442235
 31
0.0
  0
LINE
  5
E97
330
16C0
100
AcDbEntity
  8
0
100
AcDbLine
 10
2018.390682281241
 20
20.18655560442235
 30
0.0
 11
2018.390682281241
 21
18.23419885135277
 31
0.0
  0
ARC
  5
E98
330
16C0
100
AcDbEntity
  8
0
100
AcDbCircle
 10
2024.382377707296
 20
13.30611799797282
 30
0.0
 40
7.75798910646626
100
AcDbArc
 50
130.221340396217
 51
140.5632088207544
1001
QCAD
1000
reversed:1
  0
ARC
  5
E99
330
16C0
100
AcDbEntity
  8
0
100
AcDbCircle
 10
2022.996907774225
 20
14.94436218046553
 30
0.0
 40
5.612442337711724
100
AcDbArc
 50
118.0560068852786
 51
130.2213403962112
1001
QCAD
1000
reversed:1
  0
ARC
  5
E9A
330
16C0
100
AcDbEntity
  8
0
100
AcDbCircle
 10
2022.771626287755
 20
15.36705772883304
 30
0.0
 40
5.133460840411399
100
AcDbArc
 50
103.8165222029822
 51
118.0560068852701
1001
QCAD
1000
reversed:1
  0
ARC
  5
E9B
330
16C0
100
AcDbEntity
  8
0
100
AcDbCircle
 10
2022.847441489972
 20
15.05877730626514
 30
0.0
 40
5.450927002113542
100
AcDbArc
 50
89.99999999999284
 51
103.8165222029755
1001
QCAD
1000
reversed:1
  0
ARC
  5
E9C
330
16C0
100
AcDbEntity
  8
0
100
AcDbCircle
 10
2022.967508460169
 20
15.71115714506759
 30
0.0
 40
4.800049057650686
100
AcDbArc
 50
61.86921704011986
 51
91.43332873330573
1001
QCAD
1000
reversed:1
  0
ARC
  5
E9D
330
16C0
100
AcDbEntity
  8
0
100
AcDbCircle
 10
2023.056383787404
 20
16.18141065586782
 30
0.0
 40
4.345806018967352
100
AcDbArc
 50
28.18764743879894
 51
59.97904404843118
1001
QCAD
1000
reversed:1
  0
ARC
  5
E9E
330
16C0
100
AcDbEntity
  8
0
100
AcDbCircle
 10
2032.068641041332
 20
14.13679026789034
 30
0.0
 40
6.606075285518164
100
AcDbArc
 50
118.4659581313415
 51
141.6657131875341
1001
QCAD
1000
reversed:1
  0
ARC
  5
E9F
330
16C0
100
AcDbEntity
  8
0
100
AcDbCircle
 10
2031.226979724836
 20
15.5215398253418
 30
0.0
 40
4.988214455338835
100
AcDbArc
 50
89.7435338146125
 51
117.5483687438256
1001
QCAD
1000
reversed:1
  0
ARC
  5
EA0
330
16C0
100
AcDbEntity
  8
0
100
AcDbCircle
 10
2031.415019682474
 20
15.32422174079077
 30
0.0
 40
5.188129710129179
100
AcDbArc
 50
61.18910625304726
 51
91.83037193785864
1001
QCAD
1000
reversed:1
  0
ARC
  5
EA1
330
16C0
100
AcDbEntity
  8
0
100
AcDbCircle
 10
2031.923097940308
 20
16.49642428116268
 30
0.0
 40
3.918004569582924
100
AcDbArc
 50
22.43761149427425
 51
59.43804822880677
1001
QCAD
1000
reversed:1
  0
ARC
  5
EA2
330
16C0
100
AcDbEntity
  8
0
100
AcDbCircle
 10
2032.229842418731
 20
16.57823648963673
 30
0.0
 40
3.603494619132427
100
AcDbArc
 50
7.509331073816649
 51
23.09682191815572
1001
QCAD
1000
reversed:1
  0
ARC
  5
EA3
330
16C0
100
AcDbEntity
  8
0
100
AcDbCircle
 10
2020.481875652499
 20
15.0296408704526
 30
0.0
 40
15.45308834770517
100
AcDbArc
 50
0.0
 51
7.509331073813779
1001
QCAD
1000
reversed:1
  0
LINE
  5
EA4
330
16C0
100
AcDbEntity
  8
0
100
AcDbLine
 10
2035.934964000204
 20
15.0296408704526
 30
0.0
 11
2035.934964000204
 21
5.887225454354134
 31
0.0
  0
LINE
  5
EA5
330
16C0
100
AcDbEntity
  8
0
100
AcDbLine
 10
2035.934964000204
 20
5.887225454354134
 30
0.0
 11
2032.151431258049
 21
5.887225454354134
 31
0.0
  0
LINE
  5
EA6
330
16C0
100
AcDbEntity
  8
0
100
AcDbLine
 10
2032.151431258049
 20
5.887225454354134
 30
0.0
 11
2032.151431258049
 21
14.06019475858333
 31
0.0
  0
ARC
  5
EA7
330
16C0
100
AcDbEntity
  8
0
100
AcDbCircle
 10
2012.094218515961
 20
14.06019475858601
 30
0.0
 40
20.05721274208787
100
AcDbArc
 50
0.0
 51
2.306974040060516
  0
ARC
  5
EA8
330
16C0
100
AcDbEntity
  8
0
100
AcDbCircle
 10
2021.340556249995
 20
14.43269332966754
 30
0.0
 40
10.8033747989807
100
AcDbArc
 50
2.306974040104131
 51
5.450546046391485
  0
ARC
  5
EA9
330
16C0
100
AcDbEntity
  8
0
100
AcDbCircle
 10
2025.663348691845
 20
14.84516546729077
 30
0.0
 40
6.460948316054072
100
AcDbArc
 50
5.450546046366839
 51
13.92025176665575
  0
ARC
  5
EAA
330
16C0
100
AcDbEntity
  8
0
100
AcDbCircle
 10
2030.583443807395
 20
16.06461163566554
 30
0.0
 40
1.391985413878794
100
AcDbArc
 50
13.9202517666538
 51
32.22875743509501
  0
ARC
  5
EAB
330
16C0
100
AcDbEntity
  8
0
100
AcDbCircle
 10
2030.229470063664
 20
15.81149034376138
 30
0.0
 40
1.826586563480682
100
AcDbArc
 50
33.02386755578739
 51
48.30902185039528
  0
ARC
  5
EAC
330
16C0
100
AcDbEntity
  8
0
100
AcDbCircle
 10
2030.372540134132
 20
15.9721195866785
 30
0.0
 40
1.611480081142718
100
AcDbArc
 50
48.30902185040975
 51
64.58888606856225
  0
ARC
  5
EAD
330
16C0
100
AcDbEntity
  8
0
100
AcDbCircle
 10
2030.305827654699
 20
15.83169373717324
 30
0.0
 40
1.766947036221022
100
AcDbArc
 50
64.5888860685708
 51
78.48797553671582
  0
ARC
  5
EAE
330
16C0
100
AcDbEntity
  8
0
100
AcDbCircle
 10
2030.145216387653
 20
15.04311128944792
 30
0.0
 40
2.571719212655191
100
AcDbArc
 50
78.48797553672543
 51
90.0
  0
ARC
  5
EAF
330
16C0
100
AcDbEntity
  8
0
100
AcDbCircle
 10
2030.155642839922
 20
15.03620316445247
 30
0.0
 40
2.57864841678468
100
AcDbArc
 50
90.23166916986106
 51
125.7066103104554
  0
ARC
  5
EB0
330
16C0
100
AcDbEntity
  8
0
100
AcDbCircle
 10
2030.218935599471
 20
14.9460133692766
 30
0.0
 40
2.688824142011482
100
AcDbArc
 50
125.6801198568867
 51
163.5018019872814
  0
ARC
  5
EB1
330
16C0
100
AcDbEntity
  8
0
100
AcDbCircle
 10
2031.948255765515
 20
14.2841152539083
 30
0.0
 40
4.537186438197836
100
AcDbArc
 50
161.6887999684738
 51
174.0181709784457
  0
ARC
  5
EB2
330
16C0
100
AcDbEntity
  8
0
100
AcDbCircle
 10
2046.549585112728
 20
12.75413541342789
 30
0.0
 40
19.21845535536081
100
AcDbArc
 50
174.0181709784591
 51
180.0
  0
LINE
  5
EB3
330
16C0
100
AcDbEntity
  8
0
100
AcDbLine
 10
2027.331129757367
 20
12.7541354134279
 30
0.0
 11
2027.331129757367
 21
5.887225454354134
 31
0.0
  0
LINE
  5
EB4
330
16C0
100
AcDbEntity
  8
0
100
AcDbLine
 10
2027.331129757367
 20
5.887225454354134
 30
0.0
 11
2023.547597015211
 21
5.887225454354134
 31
0.0
  0
LINE
  5
EB5
330
16C0
100
AcDbEntity
  8
0
100
AcDbLine
 10
2023.547597015211
 20
5.887225454354134
 30
0.0
 11
2023.547597015211
 21
13.72358152529547
 31
0.0
  0
ARC
  5
EB6
330
16C0
100
AcDbEntity
  8
0
100
AcDbCircle
 10
1995.811300343482
 20
13.72358152529555
 30
0.0
 40
27.73629667172968
100
AcDbArc
 50
0.0
 51
4.289153328819266
  0
ARC
  5
EB7
330
16C0
100
AcDbEntity
  8
0
100
AcDbCircle
 10
2020.915314708446
 20
15.60638260266799
 30
0.0
 40
2.561776276430892
100
AcDbArc
 50
4.289153328819096
 51
18.43494882291534
  0
ARC
  5
EB8
330
16C0
100
AcDbEntity
  8
0
100
AcDbCircle
 10
2021.694753000154
 20
15.93905810602617
 30
0.0
 40
1.718525687329003
100
AcDbArc
 50
16.12973864210229
 51
53.39386602487961
  0
ARC
  5
EB9
330
16C0
100
AcDbEntity
  8
0
100
AcDbCircle
 10
2021.673491150922
 20
15.63846375825265
 30
0.0
 40
1.979163542394143
100
AcDbArc
 50
58.09415434817351
 51
93.04634115231427
  0
ARC
  5
EBA
330
16C0
100
AcDbEntity
  8
0
100
AcDbCircle
 10
2021.534934706732
 20
14.85768921336865
 30
0.0
 40
2.757343300457779
100
AcDbArc
 50
89.30644142106648
 51
124.0021713327727
  0
ARC
  5
EBB
330
16C0
100
AcDbEntity
  8
0
100
AcDbCircle
 10
2021.45754602239
 20
15.01334278992049
 30
0.0
 40
2.585127632259968
100
AcDbArc
 50
124.5094760926424
 51
162.6637894438706
  0
ARC
  5
EBC
330
16C0
100
AcDbEntity
  8
0
100
AcDbCircle
 10
2022.879442519579
 20
14.45765837105509
 30
0.0
 40
4.109399699723392
100
AcDbArc
 50
161.1752899817466
 51
174.1340288582621
  0
ARC
  5
EBD
330
16C0
100
AcDbEntity
  8
0
100
AcDbCircle
 10
2038.67407079421
 20
12.83492258941724
 30
0.0
 40
19.98716886767506
100
AcDbArc
 50
174.1340288582775
 51
180.0
  0
LINE
  5
EBE
330
16C0
100
AcDbEntity
  8
0
100
AcDbLine
 10
2018.686901926535
 20
12.83492258941501
 30
0.0
 11
2018.686901926535
 21
5.887225454354134
 31
0.0
  0
LINE
  5
EBF
330
16C0
100
AcDbEntity
  8
0
100
AcDbLine
 10
2018.686901926535
 20
5.887225454354134
 30
0.0
 11
2014.903369184379
 21
5.887225454354134
 31
0.0
  0
LINE
  5
EC0
330
16C0
100
AcDbEntity
  8
0
100
AcDbLine
 10
2014.903369184379
 20
5.887225454354134
 30
0.0
 11
2014.903369184379
 21
20.18655560442235
 31
0.0
  0
LINE
  5
EC1
330
16C0
100
AcDbEntity
  8
0
100
AcDbLine
 10
1999.08943134011
 20
10.96335301233503
 30
0.0
 11
2002.859499552934
 21
11.35382436294895
 31
0.0
  0
ARC
  5
EC2
330
16C0
100
AcDbEntity
  8
0
100
AcDbCircle
 10
2006.081181322141
 20
11.63498437416534
 30
0.0
 40
3.23392708234878
100
AcDbArc
 50
184.9876342678009
 51
225.5245681076165
  0
ARC
  5
EC3
330
16C0
100
AcDbEntity
  8
0
100
AcDbCircle
 10
2005.63709151636
 20
11.17393497434705
 30
0.0
 40
2.593821291985256
100
AcDbArc
 50
225.3891147422793
 51
270.2112983736162
  0
ARC
  5
EC4
330
16C0
100
AcDbEntity
  8
0
100
AcDbCircle
 10
2005.66085082318
 20
11.12230148551324
 30
0.0
 40
2.542209788386041
100
AcDbArc
 50
269.680103799609
 51
321.5894060424813
  0
ARC
  5
EC5
330
16C0
100
AcDbEntity
  8
0
100
AcDbCircle
 10
2005.620840964957
 20
11.27646604659724
 30
0.0
 40
2.671065603473445
100
AcDbArc
 50
319.5309515818208
 51
334.3530383551279
  0
ARC
  5
EC6
330
16C0
100
AcDbEntity
  8
0
100
AcDbCircle
 10
2004.397723713819
 20
11.86371876975572
 30
0.0
 40
4.027856512525902
100
AcDbArc
 50
334.3530383551199
 51
346.4118582650669
  0
ARC
  5
EC7
330
16C0
100
AcDbEntity
  8
0
100
AcDbCircle
 10
2003.275175135648
 20
12.13504593742013
 30
0.0
 40
5.182730420044596
100
AcDbArc
 50
346.4118582650634
 51
353.9676886878041
  0
ARC
  5
EC8
330
16C0
100
AcDbEntity
  8
0
100
AcDbCircle
 10
2000.347264581619
 20
12.44445123880399
 30
0.0
 40
8.126943702556058
100
AcDbArc
 50
353.9676886877846
 51
0.0
  0
ARC
  5
EC9
330
16C0
100
AcDbEntity
  8
0
100
AcDbCircle
 10
2001.273460765692
 20
12.44445123880116
 30
0.0
 40
7.200747518483143
100
AcDbArc
 50
0.0
 51
6.426915913802088
  0
ARC
  5
ECA
330
16C0
100
AcDbEntity
  8
0
100
AcDbCircle
 10
2003.833690467766
 20
12.73284493151485
 30
0.0
 40
4.624326153608607
100
AcDbArc
 50
6.426915913793734
 51
14.44913052004485
  0
ARC
  5
ECB
330
16C0
100
AcDbEntity
  8
0
100
AcDbCircle
 10
2004.787570637566
 20
12.97863178829474
 30
0.0
 40
3.639288815583829
100
AcDbArc
 50
14.44913052010772
 51
26.92040458197616
  0
ARC
  5
ECC
330
16C0
100
AcDbEntity
  8
0
100
AcDbCircle
 10
2005.770292189507
 20
13.47763501744451
 30
0.0
 40
2.537133712456249
100
AcDbArc
 50
26.92040458197527
 51
41.86975513778166
  0
ARC
  5
ECD
330
16C0
100
AcDbEntity
  8
0
100
AcDbCircle
 10
2005.631409759672
 20
13.3670997248298
 30
0.0
 40
2.714349944060732
100
AcDbArc
 50
41.65056469870188
 51
91.95225427401328
  0
ARC
  5
ECE
330
16C0
100
AcDbEntity
  8
0
100
AcDbCircle
 10
2005.538940889905
 20
12.59449972127266
 30
0.0
 40
3.485374437037815
100
AcDbArc
 50
90.0
 51
103.7759421745982
  0
ARC
  5
ECF
330
16C0
100
AcDbEntity
  8
0
100
AcDbCircle
 10
2005.547463237687
 20
12.55973993679098
 30
0.0
 40
3.521163723548381
100
AcDbArc
 50
103.7759421746094
 51
117.4813583790535
  0
ARC
  5
ED0
330
16C0
100
AcDbEntity
  8
0
100
AcDbCircle
 10
2005.743365391779
 20
12.18311626971665
 30
0.0
 40
3.945690566726112
100
AcDbArc
 50
117.4813583790359
 51
128.6611569290905
  0
ARC
  5
ED1
330
16C0
100
AcDbEntity
  8
0
100
AcDbCircle
 10
2006.732147137752
 20
10.94719872705897
 30
0.0
 40
5.528467087091152
100
AcDbArc
 50
128.6611569291191
 51
138.1016640298752
  0
LINE
  5
ED2
330
16C0
100
AcDbEntity
  8
0
100
AcDbLine
 10
2002.617138024966
 20
14.63916951983834
 30
0.0
 11
1999.547225337381
 21
15.08349898777842
 31
0.0
  0
LINE
  5
ED3
330
16C0
100
AcDbEntity
  8
0
100
AcDbLine
 10
1999.547225337381
 20
15.08349898777842
 30
0.0
 11
2001.486117561119
 21
25.35693486772384
 31
0.0
  0
LINE
  5
ED4
330
16C0
100
AcDbEntity
  8
0
100
AcDbLine
 10
2001.486117561119
 20
25.35693486772384
 30
0.0
 11
2011.490262854434
 21
25.35693486772384
 31
0.0
  0
LINE
  5
ED5
330
16C0
100
AcDbEntity
  8
0
100
AcDbLine
 10
2011.490262854434
 20
25.35693486772384
 30
0.0
 11
2011.490262854434
 21
21.81576365353558
 31
0.0
  0
LINE
  5
ED6
330
16C0
100
AcDbEntity
  8
0
100
AcDbLine
 10
2011.490262854434
 20
21.81576365353558
 30
0.0
 11
2004.354062308731
 21
21.81576365353558
 31
0.0
  0
LINE
  5
ED7
330
16C0
100
AcDbEntity
  8
0
100
AcDbLine
 10
2004.354062308731
 20
21.81576365353558
 30
0.0
 11
2003.761623018145
 21
18.46309584998851
 31
0.0
  0
ARC
  5
ED8
330
16C0
100
AcDbEntity
  8
0
100
AcDbCircle
 10
2006.377202298587
 20
13.37498000829199
 30
0.0
 40
5.721029434533669
100
AcDbArc
 50
90.30435200955894
 51
117.2057268824309
1001
QCAD
1000
reversed:1
  0
ARC
  5
ED9
330
16C0
100
AcDbEntity
  8
0
100
AcDbCircle
 10
2006.436982694655
 20
13.41611544154871
 30
0.0
 40
5.680528990543912
100
AcDbArc
 50
42.64967383445551
 51
90.90952444792205
1001
QCAD
1000
reversed:1
  0
ARC
  5
EDA
330
16C0
100
AcDbEntity
  8
0
100
AcDbCircle
 10
2006.218182702509
 20
13.06184724757769
 30
0.0
 40
6.082517474844618
100
AcDbArc
 50
31.49154120121657
 51
43.70783311376253
1001
QCAD
1000
reversed:1
  0
ARC
  5
EDB
330
16C0
100
AcDbEntity
  8
0
100
AcDbCircle
 10
2006.185210188989
 20
13.04164836056319
 30
0.0
 40
6.121185054087212
100
AcDbArc
 50
19.3140420021385
 51
31.49154120121094
1001
QCAD
1000
reversed:1
  0
ARC
  5
EDC
330
16C0
100
AcDbEntity
  8
0
100
AcDbCircle
 10
2005.641548225848
 20
12.85111105555715
 30
0.0
 40
6.697269071193006
100
AcDbArc
 50
8.977697958891948
 51
19.31404200210667
1001
QCAD
1000
reversed:1
  0
ARC
  5
EDD
330
16C0
100
AcDbEntity
  8
0
100
AcDbCircle
 10
2003.49364690769
 20
12.51177388545977
 30
0.0
 40
8.871810353292071
100
AcDbArc
 50
0.0
 51
8.977697958883633
1001
QCAD
1000
reversed:1
  0
ARC
  5
EDE
330
16C0
100
AcDbEntity
  8
0
100
AcDbCircle
 10
2005.238696675188
 20
12.42420795126318
 30
0.0
 40
7.127298523288344
100
AcDbArc
 50
323.2797017661824
 51
0.7039532117866272
1001
QCAD
1000
reversed:1
  0
ARC
  5
EDF
330
16C0
100
AcDbEntity
  8
0
100
AcDbCircle
 10
2005.386621531268
 20
12.26481133115582
 30
0.0
 40
6.913534424762618
100
AcDbArc
 50
310.2154701067416
 51
323.6055750866049
1001
QCAD
1000
reversed:1
  0
ARC
  5
EE0
330
16C0
100
AcDbEntity
  8
0
100
AcDbCircle
 10
2006.105132498096
 20
11.41503393152635
 30
0.0
 40
5.800709353884944
100
AcDbArc
 50
295.5908591593259
 51
310.2154701067375
1001
QCAD
1000
reversed:1
  0
ARC
  5
EE1
330
16C0
100
AcDbEntity
  8
0
100
AcDbCircle
 10
2006.009566426067
 20
11.61457740120048
 30
0.0
 40
6.021956885877263
100
AcDbArc
 50
281.8930449315229
 51
295.5908591593364
1001
QCAD
1000
reversed:1
  0
ARC
  5
EE2
330
16C0
100
AcDbEntity
  8
0
100
AcDbCircle
 10
2005.606263536562
 20
13.52953880039852
 30
0.0
 40
7.978926579332251
100
AcDbArc
 50
270.0
 51
281.8930449315187
1001
QCAD
1000
reversed:1
  0
ARC
  5
EE3
330
16C0
100
AcDbEntity
  8
0
100
AcDbCircle
 10
2005.606263536562
 20
14.83209012210434
 30
0.0
 40
9.281477901038064
100
AcDbArc
 50
262.0530174647521
 51
270.0000000000014
1001
QCAD
1000
reversed:1
  0
ARC
  5
EE4
330
16C0
100
AcDbEntity
  8
0
100
AcDbCircle
 10
2005.277533832541
 20
12.47724812999741
 30
0.0
 40
6.903801719112461
100
AcDbArc
 50
252.8360751516234
 51
262.0530174647507
1001
QCAD
1000
reversed:1
  0
ARC
  5
EE5
330
16C0
100
AcDbEntity
  8
0
100
AcDbCircle
 10
2005.05715784836
 20
11.76373831326072
 30
0.0
 40
6.157034129441224
100
AcDbArc
 50
241.4536321308009
 51
252.8360751516375
1001
QCAD
1000
reversed:1
  0
ARC
  5
EE6
330
16C0
100
AcDbEntity
  8
0
100
AcDbCircle
 10
2004.821149502002
 20
11.32990263649491
 30
0.0
 40
5.663158300932579
100
AcDbArc
 50
229.5835298091233
 51
241.4536321307965
1001
QCAD
1000
reversed:1
  0
ARC
  5
EE7
330
16C0
100
AcDbEntity
  8
0
100
AcDbCircle
 10
2004.951127542299
 20
11.48253739941209
 30
0.0
 40
5.863636882856538
100
AcDbArc
 50
218.3673603048572
 51
229.5835298091194
1001
QCAD
1000
reversed:1
  0
ARC
  5
EE8
330
16C0
100
AcDbEntity
  8
0
100
AcDbCircle
 10
2004.809544864225
 20
11.37045161539759
 30
0.0
 40
5.683057599136168
100
AcDbArc
 50
206.9738069410852
 51
218.3673603048469
1001
QCAD
1000
reversed:1
  0
ARC
  5
EE9
330
16C0
100
AcDbEntity
  8
0
100
AcDbCircle
 10
2005.131174317887
 20
11.53414484336362
 30
0.0
 40
6.043946748799858
100
AcDbArc
 50
196.7985047597829
 51
206.9738069410914
1001
QCAD
1000
reversed:1
  0
ARC
  5
EEA
330
16C0
100
AcDbEntity
  8
0
100
AcDbCircle
 10
2006.637604402005
 20
11.98892000444181
 30
0.0
 40
7.617526122542536
100
AcDbArc
 50
187.7373727732172
 51
196.7985047597679
1001
QCAD
1000
reversed:1
  0
LINE
  5
EEB
330
16C0
100
AcDbEntity
  8
0
100
AcDbLine
 10
2084.444828543897
 20
13.14460676404035
 30
0.0
 11
2088.309148462041
 21
11.91933459487255
 31
0.0
  0
ARC
  5
EEC
330
16C0
100
AcDbEntity
  8
0
100
AcDbCircle
 10
2075.813638755892
 20
15.35559976406304
 30
0.0
 40
12.95938583149088
100
AcDbArc
 50
337.7582720636452
 51
344.6237487511757
1001
QCAD
1000
reversed:1
  0
ARC
  5
EED
330
16C0
100
AcDbEntity
  8
0
100
AcDbCircle
 10
2079.168178586054
 20
13.98378662307669
 30
0.0
 40
9.335188159464344
100
AcDbArc
 50
329.6672677133075
 51
337.7582720636484
1001
QCAD
1000
reversed:1
  0
ARC
  5
EEE
330
16C0
100
AcDbEntity
  8
0
100
AcDbCircle
 10
2080.292266863737
 20
13.32606072274149
 30
0.0
 40
8.032814243879061
100
AcDbArc
 50
318.9588133607318
 51
329.6672677132992
1001
QCAD
1000
reversed:1
  0
ARC
  5
EEF
330
16C0
100
AcDbEntity
  8
0
100
AcDbCircle
 10
2081.325883843469
 20
12.42624590579208
 30
0.0
 40
6.662401617845537
100
AcDbArc
 50
307.1969587403835
 51
318.9588133607696
1001
QCAD
1000
reversed:1
  0
ARC
  5
EF0
330
16C0
100
AcDbEntity
  8
0
100
AcDbCircle
 10
2081.141363275815
 20
12.66936957219727
 30
0.0
 40
6.967617864224884
100
AcDbArc
 50
296.0841633789291
 51
307.1969587403294
1001
QCAD
1000
reversed:1
  0
ARC
  5
EF1
330
16C0
100
AcDbEntity
  8
0
100
AcDbCircle
 10
2080.749447394116
 20
13.46992942639485
 30
0.0
 40
7.858961871037575
100
AcDbArc
 50
285.6223872961944
 51
296.084163378934
1001
QCAD
1000
reversed:1
  0
ARC
  5
EF2
330
16C0
100
AcDbEntity
  8
0
100
AcDbCircle
 10
2080.481303922958
 20
14.42886467256233
 30
0.0
 40
8.854681574300887
100
AcDbArc
 50
277.2500762313871
 51
285.6223872961872
1001
QCAD
1000
reversed:1
  0
ARC
  5
EF3
330
16C0
100
AcDbEntity
  8
0
100
AcDbCircle
 10
2080.109250099149
 20
17.35341560075376
 30
0.0
 40
11.80280337968749
100
AcDbArc
 50
269.9999999999978
 51
277.2500762313873
1001
QCAD
1000
reversed:1
  0
ARC
  5
EF4
330
16C0
100
AcDbEntity
  8
0
100
AcDbCircle
 10
2080.109250099149
 20
16.0421961203683
 30
0.0
 40
10.49158389930203
100
AcDbArc
 50
259.58267695704
 51
270.0
1001
QCAD
1000
reversed:1
  0
ARC
  5
EF5
330
16C0
100
AcDbEntity
  8
0
100
AcDbCircle
 10
2079.713928224067
 20
13.89191838645152
 30
0.0
 40
8.305268798979993
100
AcDbArc
 50
247.869952299692
 51
259.582676957044
1001
QCAD
1000
reversed:1
  0
ARC
  5
EF6
330
16C0
100
AcDbEntity
  8
0
100
AcDbCircle
 10
2079.587400575015
 20
13.58078655003647
 30
0.0
 40
7.969393426846548
100
AcDbArc
 50
235.257126018261
 51
247.8699522996797
1001
QCAD
1000
reversed:1
  0
ARC
  5
EF7
330
16C0
100
AcDbEntity
  8
0
100
AcDbCircle
 10
2080.09719490588
 20
14.31584722892879
 30
0.0
 40
8.863934907962134
100
AcDbArc
 50
223.3001080664826
 51
235.2571260182713
1001
QCAD
1000
reversed:1
  0
ARC
  5
EF8
330
16C0
100
AcDbEntity
  8
0
100
AcDbCircle
 10
2079.723022976501
 20
13.96324410750721
 30
0.0
 40
8.349801079108591
100
AcDbArc
 50
210.0550353892337
 51
223.3001080664743
1001
QCAD
1000
reversed:1
  0
ARC
  5
EF9
330
16C0
100
AcDbEntity
  8
0
100
AcDbCircle
 10
2080.656088005574
 20
14.50314512259203
 30
0.0
 40
9.427810102524788
100
AcDbArc
 50
197.593375530561
 51
210.0550353892255
1001
QCAD
1000
reversed:1
  0
ARC
  5
EFA
330
16C0
100
AcDbEntity
  8
0
100
AcDbCircle
 10
2082.059109681357
 20
14.9480312818986
 30
0.0
 40
10.89967745981622
100
AcDbArc
 50
188.0320724865844
 51
197.5933755305383
1001
QCAD
1000
reversed:1
  0
ARC
  5
EFB
330
16C0
100
AcDbEntity
  8
0
100
AcDbCircle
 10
2086.549561298911
 20
15.58168657304414
 30
0.0
 40
15.434616793213
100
AcDbArc
 50
180.0
 51
188.0320724865969
1001
QCAD
1000
reversed:1
  0
ARC
  5
EFC
330
16C0
100
AcDbEntity
  8
0
100
AcDbCircle
 10
2088.216076351103
 20
15.58168657304601
 30
0.0
 40
17.1011318454054
100
AcDbArc
 50
172.4241041768407
 51
180.0
1001
QCAD
1000
reversed:1
  0
ARC
  5
EFD
330
16C0
100
AcDbEntity
  8
0
100
AcDbCircle
 10
2082.882647094385
 20
16.29103439463366
 30
0.0
 40
11.72073762486604
100
AcDbArc
 50
163.270027604324
 51
172.4241041768319
1001
QCAD
1000
reversed:1
  0
ARC
  5
EFE
330
16C0
100
AcDbEntity
  8
0
100
AcDbCircle
 10
2081.1067010311
 20
16.82485655494631
 30
0.0
 40
9.86629686859051
100
AcDbArc
 50
150.7292539267847
 51
163.2700276043417
1001
QCAD
1000
reversed:1
  0
ARC
  5
EFF
330
16C0
100
AcDbEntity
  8
0
100
AcDbCircle
 10
2079.660785938634
 20
17.63529580134325
 30
0.0
 40
8.20874378445663
100
AcDbArc
 50
136.9749340108574
 51
150.7292539267455
1001
QCAD
1000
reversed:1
  0
ARC
  5
F00
330
16C0
100
AcDbEntity
  8
0
100
AcDbCircle
 10
2079.948861672066
 20
17.36642511681294
 30
0.0
 40
8.602798442077221
100
AcDbArc
 50
124.3920989506295
 51
136.9749340108905
1001
QCAD
1000
reversed:1
  0
ARC
  5
F01
330
16C0
100
AcDbEntity
  8
0
100
AcDbCircle
 10
2079.664344017109
 20
17.78207561734484
 30
0.0
 40
8.099096511790158
100
AcDbArc
 50
111.4222581156078
 51
124.3920989506119
1001
QCAD
1000
reversed:1
  0
ARC
  5
F02
330
16C0
100
AcDbEntity
  8
0
100
AcDbCircle
 10
2079.877188004999
 20
17.23958222031429
 30
0.0
 40
8.681850018002086
100
AcDbArc
 50
99.97597182192891
 51
111.422258115608
1001
QCAD
1000
reversed:1
  0
ARC
  5
F03
330
16C0
100
AcDbEntity
  8
0
100
AcDbCircle
 10
2080.351611627117
 20
14.54237824827689
 30
0.0
 40
11.4204604393651
100
AcDbArc
 50
90.0000000000023
 51
99.97597182192796
1001
QCAD
1000
reversed:1
  0
ARC
  5
F04
330
16C0
100
AcDbEntity
  8
0
100
AcDbCircle
 10
2080.351611627116
 20
14.82021543093144
 30
0.0
 40
11.14262325671055
100
AcDbArc
 50
81.15531591192939
 51
90.0
1001
QCAD
1000
reversed:1
  0
ARC
  5
F05
330
16C0
100
AcDbEntity
  8
0
100
AcDbCircle
 10
2080.777738409056
 20
17.55869886179068
 30
0.0
 40
8.371184003294253
100
AcDbArc
 50
70.9476649532602
 51
81.15531591193378
1001
QCAD
1000
reversed:1
  0
ARC
  5
F06
330
16C0
100
AcDbEntity
  8
0
100
AcDbCircle
 10
2081.024798739025
 20
18.27409072570376
 30
0.0
 40
7.614332415730513
100
AcDbArc
 50
58.81745057068201
 51
70.94766495325071
1001
QCAD
1000
reversed:1
  0
ARC
  5
F07
330
16C0
100
AcDbEntity
  8
0
100
AcDbCircle
 10
2081.095508788681
 20
18.39092718896267
 30
0.0
 40
7.477764958885019
100
AcDbArc
 50
46.57655005520069
 51
58.81745057068434
1001
QCAD
1000
reversed:1
  0
ARC
  5
F08
330
16C0
100
AcDbEntity
  8
0
100
AcDbCircle
 10
2082.248348726512
 20
19.58021020640368
 30
0.0
 40
5.821585562238853
100
AcDbArc
 50
29.05460409907529
 51
46.7714697400322
1001
QCAD
1000
reversed:1
  0
ARC
  5
F09
330
16C0
100
AcDbEntity
  8
0
100
AcDbCircle
 10
2078.195621708536
 20
17.32869519641742
 30
0.0
 40
10.45773872217957
100
AcDbArc
 50
15.85936626660329
 51
29.0546040990743
1001
QCAD
1000
reversed:1
  0
LINE
  5
F0A
330
16C0
100
AcDbEntity
  8
0
100
AcDbLine
 10
2088.255290344715
 20
20.18655560442241
 30
0.0
 11
2084.310183250581
 21
19.24403855121634
 31
0.0
  0
ARC
  5
F0B
330
16C0
100
AcDbEntity
  8
0
100
AcDbCircle
 10
2080.207176247206
 20
18.42294420685946
 30
0.0
 40
4.184359257052867
100
AcDbArc
 50
11.31655119850787
 51
50.84472645165472
  0
ARC
  5
F0C
330
16C0
100
AcDbEntity
  8
0
100
AcDbCircle
 10
2080.268479925694
 20
18.3724066806443
 30
0.0
 40
4.185593409434692
100
AcDbArc
 50
51.93233727901923
 51
91.62694493739107
  0
ARC
  5
F0D
330
16C0
100
AcDbEntity
  8
0
100
AcDbCircle
 10
2080.149643687144
 20
17.01631285686671
 30
0.0
 40
5.539999909902154
100
AcDbArc
 50
90.00000000000472
 51
101.0321742502923
  0
ARC
  5
F0E
330
16C0
100
AcDbEntity
  8
0
100
AcDbCircle
 10
2079.922596127285
 20
18.18087947016034
 30
0.0
 40
4.353506761487041
100
AcDbArc
 50
101.0321742502788
 51
113.4824816280734
  0
ARC
  5
F0F
330
16C0
100
AcDbEntity
  8
0
100
AcDbCircle
 10
2079.864120499437
 20
18.31547673287983
 30
0.0
 40
4.20675587670685
100
AcDbArc
 50
113.482481628126
 51
126.713374636615
  0
ARC
  5
F10
330
16C0
100
AcDbEntity
  8
0
100
AcDbCircle
 10
2080.236678123277
 20
17.81589575722029
 30
0.0
 40
4.82995755700165
100
AcDbArc
 50
126.7133746366088
 51
139.0576630761578
  0
ARC
  5
F11
330
16C0
100
AcDbEntity
  8
0
100
AcDbCircle
 10
2079.671192856875
 20
18.30646630883906
 30
0.0
 40
4.081336790102215
100
AcDbArc
 50
139.0576630761291
 51
155.3471583655219
  0
ARC
  5
F12
330
16C0
100
AcDbEntity
  8
0
100
AcDbCircle
 10
2082.467798229543
 20
17.02295924932949
 30
0.0
 40
7.158412021917208
100
AcDbArc
 50
155.3471583655399
 51
167.6291466380577
  0
ARC
  5
F13
330
16C0
100
AcDbEntity
  8
0
100
AcDbCircle
 10
2084.975927910049
 20
16.47284860001428
 30
0.0
 40
9.72616127383417
100
AcDbArc
 50
167.629146638086
 51
174.5838733566367
  0
ARC
  5
F14
330
16C0
100
AcDbEntity
  8
0
100
AcDbCircle
 10
2091.250909255828
 20
15.87790621833204
 30
0.0
 40
16.02928330401868
100
AcDbArc
 50
174.5838733565901
 51
180.0
  0
ARC
  5
F15
330
16C0
100
AcDbEntity
  8
0
100
AcDbCircle
 10
2093.481650693684
 20
15.87790621833136
 30
0.0
 40
18.26002474187515
100
AcDbArc
 50
180.0
 51
184.9689237262172
  0
ARC
  5
F16
330
16C0
100
AcDbEntity
  8
0
100
AcDbCircle
 10
2086.090669246422
 20
15.23531836697842
 30
0.0
 40
10.8411618977136
100
AcDbArc
 50
184.9689237262381
 51
191.4190519101375
  0
ARC
  5
F17
330
16C0
100
AcDbEntity
  8
0
100
AcDbCircle
 10
2083.059542514468
 20
14.62308705424825
 30
0.0
 40
7.748823551825502
100
AcDbArc
 50
191.4190519101145
 51
203.4668037224186
  0
ARC
  5
F18
330
16C0
100
AcDbEntity
  8
0
100
AcDbCircle
 10
2079.614130561567
 20
13.12735232899484
 30
0.0
 40
3.992750350525764
100
AcDbArc
 50
203.4668037224023
 51
220.2798630689428
  0
ARC
  5
F19
330
16C0
100
AcDbEntity
  8
0
100
AcDbCircle
 10
2079.941427364028
 20
13.32755819582266
 30
0.0
 40
4.372277396840499
100
AcDbArc
 50
219.5084098332368
 51
271.670110487768
  0
ARC
  5
F1A
330
16C0
100
AcDbEntity
  8
0
100
AcDbCircle
 10
2080.1473758268
 20
12.94859763900501
 30
0.0
 40
3.992231731706561
100
AcDbArc
 50
268.8730324797485
 51
311.6812884156355
  0
ARC
  5
F1B
330
16C0
100
AcDbEntity
  8
0
100
AcDbCircle
 10
2080.297752471295
 20
12.80530180184985
 30
0.0
 40
3.785250290763325
100
AcDbArc
 50
311.4236656249802
 51
323.9382853743674
  0
ARC
  5
F1C
330
16C0
100
AcDbEntity
  8
0
100
AcDbCircle
 10
2078.964641994003
 20
13.77605887464281
 30
0.0
 40
5.434356969859977
100
AcDbArc
 50
323.9382853743882
 51
334.37654261789
  0
ARC
  5
F1D
330
16C0
100
AcDbEntity
  8
0
100
AcDbCircle
 10
2077.790814903441
 20
14.33905359275097
 30
0.0
 40
6.73621452395582
100
AcDbArc
 50
334.3765426179448
 51
341.3438809725075
  0
ARC
  5
F1E
330
16C0
100
AcDbEntity
  8
0
100
AcDbCircle
 10
2074.686064192894
 20
15.38730416147861
 30
0.0
 40
10.01315001759551
100
AcDbArc
 50
341.3438809724904
 51
347.0573757341895
  0
LINE
  5
F1F
330
16C0
100
AcDbEntity
  8
0
100
AcDbLine
 10
2039.368722690929
 20
20.18655560442235
 30
0.0
 11
2042.856035787791
 21
20.18655560442235
 31
0.0
  0
LINE
  5
F20
330
16C0
100
AcDbEntity
  8
0
100
AcDbLine
 10
2042.856035787791
 20
20.18655560442235
 30
0.0
 11
2042.856035787791
 21
18.23419885135277
 31
0.0
  0
ARC
  5
F21
330
16C0
100
AcDbEntity
  8
0
100
AcDbCircle
 10
2048.847731213848
 20
13.30611799796772
 30
0.0
 40
7.757989106472362
100
AcDbArc
 50
130.22134039621
 51
140.5632088207424
1001
QCAD
1000
reversed:1
  0
ARC
  5
F22
330
16C0
100
AcDbEntity
  8
0
100
AcDbCircle
 10
2047.462261280771
 20
14.9443621804716
 30
0.0
 40
5.612442337704614
100
AcDbArc
 50
118.0560068852802
 51
130.2213403962201
1001
QCAD
1000
reversed:1
  0
ARC
  5
F23
330
16C0
100
AcDbEntity
  8
0
100
AcDbCircle
 10
2047.236979794304
 20
15.36705772883391
 30
0.0
 40
5.133460840410473
100
AcDbArc
 50
103.8165222029848
 51
118.0560068852757
1001
QCAD
1000
reversed:1
  0
ARC
  5
F24
330
16C0
100
AcDbEntity
  8
0
100
AcDbCircle
 10
2047.312794996522
 20
15.05877730626525
 30
0.0
 40
5.450927002113438
100
AcDbArc
 50
89.99999999999761
 51
103.8165222029829
1001
QCAD
1000
reversed:1
  0
ARC
  5
F25
330
16C0
100
AcDbEntity
  8
0
100
AcDbCircle
 10
2047.432861966718
 20
15.71115714506479
 30
0.0
 40
4.80004905765347
100
AcDbArc
 50
61.86921704012845
 51
91.43332873329673
1001
QCAD
1000
reversed:1
  0
ARC
  5
F26
330
16C0
100
AcDbEntity
  8
0
100
AcDbCircle
 10
2047.521737293956
 20
16.18141065587007
 30
0.0
 40
4.345806018963979
100
AcDbArc
 50
28.1876474387898
 51
59.97904404845008
1001
QCAD
1000
reversed:1
  0
ARC
  5
F27
330
16C0
100
AcDbEntity
  8
0
100
AcDbCircle
 10
2056.533994547882
 20
14.13679026788953
 30
0.0
 40
6.606075285519482
100
AcDbArc
 50
118.4659581313485
 51
141.6657131875346
1001
QCAD
1000
reversed:1
  0
ARC
  5
F28
330
16C0
100
AcDbEntity
  8
0
100
AcDbCircle
 10
2055.692333231384
 20
15.52153982534632
 30
0.0
 40
4.988214455334329
100
AcDbArc
 50
89.74353381459923
 51
117.5483687438403
1001
QCAD
1000
reversed:1
  0
ARC
  5
F29
330
16C0
100
AcDbEntity
  8
0
100
AcDbCircle
 10
2055.880373189025
 20
15.32422174079614
 30
0.0
 40
5.188129710123854
100
AcDbArc
 50
61.1891062530341
 51
91.83037193787561
1001
QCAD
1000
reversed:1
  0
ARC
  5
F2A
330
16C0
100
AcDbEntity
  8
0
100
AcDbCircle
 10
2056.388451446863
 20
16.49642428116723
 30
0.0
 40
3.918004569576087
100
AcDbArc
 50
22.43761149424325
 51
59.43804822884453
1001
QCAD
1000
reversed:1
  0
ARC
  5
F2B
330
16C0
100
AcDbEntity
  8
0
100
AcDbCircle
 10
2056.695195925277
 20
16.57823648963629
 30
0.0
 40
3.603494619134874
100
AcDbArc
 50
7.509331073810515
 51
23.09682191814518
1001
QCAD
1000
reversed:1
  0
ARC
  5
F2C
330
16C0
100
AcDbEntity
  8
0
100
AcDbCircle
 10
2044.947229159061
 20
15.02964087045465
 30
0.0
 40
15.45308834769287
100
AcDbArc
 50
0.0
 51
7.509331073810371
1001
QCAD
1000
reversed:1
  0
LINE
  5
F2D
330
16C0
100
AcDbEntity
  8
0
100
AcDbLine
 10
2060.400317506754
 20
15.02964087045121
 30
0.0
 11
2060.400317506754
 21
5.887225454354134
 31
0.0
  0
LINE
  5
F2E
330
16C0
100
AcDbEntity
  8
0
100
AcDbLine
 10
2060.400317506754
 20
5.887225454354134
 30
0.0
 11
2056.616784764598
 21
5.887225454354134
 31
0.0
  0
LINE
  5
F2F
330
16C0
100
AcDbEntity
  8
0
100
AcDbLine
 10
2056.616784764598
 20
5.887225454354134
 30
0.0
 11
2056.616784764598
 21
14.06019475858333
 31
0.0
  0
ARC
  5
F30
330
16C0
100
AcDbEntity
  8
0
100
AcDbCircle
 10
2036.559572022918
 20
14.06019475858054
 30
0.0
 40
20.05721274168018
100
AcDbArc
 50
0.0
 51
2.306974040116141
  0
ARC
  5
F31
330
16C0
100
AcDbEntity
  8
0
100
AcDbCircle
 10
2045.805909756467
 20
14.43269332966007
 30
0.0
 40
10.80337479905822
100
AcDbArc
 50
2.306974040114561
 51
5.450546046392689
  0
ARC
  5
F32
330
16C0
100
AcDbEntity
  8
0
100
AcDbCircle
 10
2050.128702198386
 20
14.84516546729129
 30
0.0
 40
6.460948316061194
100
AcDbArc
 50
5.45054604635686
 51
13.92025176664518
  0
ARC
  5
F33
330
16C0
100
AcDbEntity
  8
0
100
AcDbCircle
 10
2055.048797313953
 20
16.0646116356713
 30
0.0
 40
1.39198541386897
100
AcDbArc
 50
13.92025176655509
 51
32.22875743507313
  0
ARC
  5
F34
330
16C0
100
AcDbEntity
  8
0
100
AcDbCircle
 10
2054.694823570219
 20
15.81149034376459
 30
0.0
 40
1.8265865634751
100
AcDbArc
 50
33.02386755579542
 51
48.30902185045773
  0
ARC
  5
F35
330
16C0
100
AcDbEntity
  8
0
100
AcDbCircle
 10
2054.837893640683
 20
15.97211958668033
 30
0.0
 40
1.611480081140677
100
AcDbArc
 50
48.30902185041071
 51
64.58888606861376
  0
ARC
  5
F36
330
16C0
100
AcDbEntity
  8
0
100
AcDbCircle
 10
2054.77118116125
 20
15.83169373717562
 30
0.0
 40
1.766947036218223
100
AcDbArc
 50
64.58888606860341
 51
78.48797553675048
  0
ARC
  5
F37
330
16C0
100
AcDbEntity
  8
0
100
AcDbCircle
 10
2054.610569894202
 20
15.0431112894502
 30
0.0
 40
2.571719212652914
100
AcDbArc
 50
78.48797553670998
 51
89.99999999998988
  0
ARC
  5
F38
330
16C0
100
AcDbEntity
  8
0
100
AcDbCircle
 10
2054.620996346471
 20
15.03620316445314
 30
0.0
 40
2.578648416784004
100
AcDbArc
 50
90.23166916985606
 51
125.7066103104601
  0
ARC
  5
F39
330
16C0
100
AcDbEntity
  8
0
100
AcDbCircle
 10
2054.684289106017
 20
14.94601336927878
 30
0.0
 40
2.6888241420076
100
AcDbArc
 50
125.6801198568507
 51
163.5018019873051
  0
ARC
  5
F3A
330
16C0
100
AcDbEntity
  8
0
100
AcDbCircle
 10
2056.41360927206
 20
14.28411525391105
 30
0.0
 40
4.537186438192797
100
AcDbArc
 50
161.6887999684888
 51
174.0181709784651
  0
ARC
  5
F3B
330
16C0
100
AcDbEntity
  8
0
100
AcDbCircle
 10
2071.014938619297
 20
12.75413541342535
 30
0.0
 40
19.21845535538127
100
AcDbArc
 50
174.0181709784557
 51
180.0
  0
LINE
  5
F3C
330
16C0
100
AcDbEntity
  8
0
100
AcDbLine
 10
2051.796483263916
 20
12.75413541342535
 30
0.0
 11
2051.796483263916
 21
5.887225454354134
 31
0.0
  0
LINE
  5
F3D
330
16C0
100
AcDbEntity
  8
0
100
AcDbLine
 10
2051.796483263916
 20
5.887225454354134
 30
0.0
 11
2048.012950521761
 21
5.887225454354134
 31
0.0
  0
LINE
  5
F3E
330
16C0
100
AcDbEntity
  8
0
100
AcDbLine
 10
2048.012950521761
 20
5.887225454354134
 30
0.0
 11
2048.012950521761
 21
13.72358152529547
 31
0.0
  0
ARC
  5
F3F
330
16C0
100
AcDbEntity
  8
0
100
AcDbCircle
 10
2020.276653850001
 20
13.72358152529514
 30
0.0
 40
27.73629667175955
100
AcDbArc
 50
0.0
 51
4.289153328816885
  0
ARC
  5
F40
330
16C0
100
AcDbEntity
  8
0
100
AcDbCircle
 10
2045.380668215
 20
15.60638260266935
 30
0.0
 40
2.561776276426958
100
AcDbArc
 50
4.289153328810931
 51
18.43494882291061
  0
ARC
  5
F41
330
16C0
100
AcDbEntity
  8
0
100
AcDbCircle
 10
2046.160106506703
 20
15.93905810602592
 30
0.0
 40
1.718525687329463
100
AcDbArc
 50
16.12973864210616
 51
53.39386602487865
  0
ARC
  5
F42
330
16C0
100
AcDbEntity
  8
0
100
AcDbCircle
 10
2046.138844657471
 20
15.63846375825259
 30
0.0
 40
1.979163542394197
100
AcDbArc
 50
58.09415434817435
 51
93.04634115231418
  0
ARC
  5
F43
330
16C0
100
AcDbEntity
  8
0
100
AcDbCircle
 10
2046.000288213281
 20
14.85768921336796
 30
0.0
 40
2.757343300458476
100
AcDbArc
 50
89.30644142107134
 51
124.0021713327685
  0
ARC
  5
F44
330
16C0
100
AcDbEntity
  8
0
100
AcDbCircle
 10
2045.92289952894
 20
15.01334278992005
 30
0.0
 40
2.585127632260659
100
AcDbArc
 50
124.5094760926494
 51
162.6637894438659
  0
ARC
  5
F45
330
16C0
100
AcDbEntity
  8
0
100
AcDbCircle
 10
2047.344796026129
 20
14.45765837105509
 30
0.0
 40
4.109399699723392
100
AcDbArc
 50
161.1752899817466
 51
174.1340288582621
  0
ARC
  5
F46
330
16C0
100
AcDbEntity
  8
0
100
AcDbCircle
 10
2063.139424300759
 20
12.83492258941722
 30
0.0
 40
19.98716886767545
100
AcDbArc
 50
174.1340288582775
 51
180.0
  0
LINE
  5
F47
330
16C0
100
AcDbEntity
  8
0
100
AcDbLine
 10
2043.152255433084
 20
12.83492258941721
 30
0.0
 11
2043.152255433084
 21
5.887225454354134
 31
0.0
  0
LINE
  5
F48
330
16C0
100
AcDbEntity
  8
0
100
AcDbLine
 10
2043.152255433084
 20
5.887225454354134
 30
0.0
 11
2039.368722690929
 21
5.887225454354134
 31
0.0
  0
LINE
  5
F49
330
16C0
100
AcDbEntity
  8
0
100
AcDbLine
 10
2039.368722690929
 20
5.887225454354134
 30
0.0
 11
2039.368722690929
 21
20.18655560442235
 31
0.0
  0
LINE
  5
F75
330
16C0
100
AcDbEntity
  8
0
100
AcDbLine
 10
2091.746045501707
 20
5.887225454354134
 30
0.0
 11
2091.746045501707
 21
25.62622545435413
 31
0.0
  0
LINE
  5
F76
330
16C0
100
AcDbEntity
  8
0
100
AcDbLine
 10
2091.746045501707
 20
25.62622545435413
 30
0.0
 11
2105.277897479879
 21
25.62622545435413
 31
0.0
  0
LINE
  5
F77
330
16C0
100
AcDbEntity
  8
0
100
AcDbLine
 10
2105.277897479879
 20
25.62622545435413
 30
0.0
 11
2105.277897479879
 21
22.28702218013858
 31
0.0
  0
LINE
  5
F78
330
16C0
100
AcDbEntity
  8
0
100
AcDbLine
 10
2105.277897479879
 20
22.28702218013858
 30
0.0
 11
2095.731546183836
 21
22.28702218013858
 31
0.0
  0
LINE
  5
F79
330
16C0
100
AcDbEntity
  8
0
100
AcDbLine
 10
2095.731546183836
 20
22.28702218013858
 30
0.0
 11
2095.731546183836
 21
17.61483050210311
 31
0.0
  0
LINE
  5
F7A
330
16C0
100
AcDbEntity
  8
0
100
AcDbLine
 10
2095.731546183836
 20
17.61483050210311
 30
0.0
 11
2103.971838134722
 21
17.61483050210311
 31
0.0
  0
LINE
  5
F7B
330
16C0
100
AcDbEntity
  8
0
100
AcDbLine
 10
2103.971838134722
 20
17.61483050210311
 30
0.0
 11
2103.971838134722
 21
14.27562722788756
 31
0.0
  0
LINE
  5
F7C
330
16C0
100
AcDbEntity
  8
0
100
AcDbLine
 10
2103.971838134722
 20
14.27562722788756
 30
0.0
 11
2095.731546183836
 21
14.27562722788756
 31
0.0
  0
LINE
  5
F7D
330
16C0
100
AcDbEntity
  8
0
100
AcDbLine
 10
2095.731546183836
 20
14.27562722788756
 30
0.0
 11
2095.731546183836
 21
5.887225454354134
 31
0.0
  0
LINE
  5
F7E
330
16C0
100
AcDbEntity
  8
0
100
AcDbLine
 10
2095.731546183836
 20
5.887225454354134
 30
0.0
 11
2091.746045501707
 21
5.887225454354134
 31
0.0
  0
MTEXT
  5
55
330
16C0
100
AcDbEntity
  8
0
100
AcDbMText
 10
60.68337483181942
 20
-77.6941868111373
 30
0.0
 40
5.0
 41
0.0
 46
0.0
 71
     1
 72
     1
  1
\H16.667;1.3mm CF
  7
textstyle18
 73
     1
 44
1.0
  0
MTEXT
  5
15C
330
16C0
100
AcDbEntity
  8
0
100
AcDbMText
 10
651.9839596770407
 20
-100.5771735082202
 30
0.0
 40
6.052635121951219
 41
0.0
 46
0.0
 71
     1
 72
     1
  1
\H19.957;1.5mm CF
  7
textstyle19
 73
     1
 44
1.0
  0
MTEXT
  5
4D4
330
16C0
100
AcDbEntity
  8
0
100
AcDbMText
 10
1296.803817371409
 20
-99.01655205704401
 30
0.0
 40
5.986845609756097
 41
0.0
 46
0.0
 71
     1
 72
     1
  1
\H19.74;1.5mm CF
  7
textstyle20
 73
     1
 44
1.0
  0
LINE
  5
1049
330
16C0
100
AcDbEntity
  8
0
100
AcDbLine
 10
1948.238473546277
 20
-118.9627475609312
 30
0.0
 11
1944.454749126086
 21
-118.9627475609312
 31
0.0
  0
LINE
  5
104A
330
16C0
100
AcDbEntity
  8
0
100
AcDbLine
 10
1944.454749126086
 20
-118.9627475609312
 30
0.0
 11
1944.454749126086
 21
-104.7030886250513
 31
0.0
  0
ARC
  5
104B
330
16C0
100
AcDbEntity
  8
0
100
AcDbCircle
 10
1935.566983136273
 20
-95.15539500757133
 30
0.0
 40
13.04418788974415
100
AcDbArc
 50
287.856970328902
 51
312.9498786201092
1001
QCAD
1000
reversed:1
  0
LINE
  5
104C
330
16C0
100
AcDbEntity
  8
0
100
AcDbLine
 10
1939.566877366195
 20
-107.571178665979
 30
0.0
 11
1939.566877366195
 21
-104.1375497437416
 31
0.0
  0
ARC
  5
104D
330
16C0
100
AcDbEntity
  8
0
100
AcDbCircle
 10
1937.200194366809
 20
-96.90601835673115
 30
0.0
 40
7.608957525239401
100
AcDbArc
 50
288.121860247904
 51
299.7319710268834
  0
ARC
  5
104E
330
16C0
100
AcDbEntity
  8
0
100
AcDbCircle
 10
1933.401822128251
 20
-90.25538857639398
 30
0.0
 40
15.26784178717749
100
AcDbArc
 50
299.7319710268739
 51
307.9210783953835
  0
ARC
  5
104F
330
16C0
100
AcDbEntity
  8
0
100
AcDbCircle
 10
1938.630564996502
 20
-96.68547756086551
 30
0.0
 40
6.984099371345122
100
AcDbArc
 50
306.5020049699754
 51
339.407171554089
  0
LINE
  5
1050
330
16C0
100
AcDbEntity
  8
0
100
AcDbLine
 10
1945.168405333453
 20
-99.1419562921727
 30
0.0
 11
1948.238473546277
 21
-99.1419562921727
 31
0.0
  0
LINE
  5
1051
330
16C0
100
AcDbEntity
  8
0
100
AcDbLine
 10
1948.238473546277
 20
-99.1419562921727
 30
0.0
 11
1948.238473546277
 21
-118.9627475609312
 31
0.0
  0
LINE
  5
105C
330
16C0
100
AcDbEntity
  8
0
100
AcDbLine
 10
1961.626032245207
 20
-113.8863628406038
 30
0.0
 11
1965.396291453938
 21
-113.4958717082709
 31
0.0
  0
ARC
  5
105D
330
16C0
100
AcDbEntity
  8
0
100
AcDbCircle
 10
1968.618136437175
 20
-113.2146974531721
 30
0.0
 40
3.234090916739837
100
AcDbArc
 50
184.9876342677901
 51
225.5245681076289
  0
ARC
  5
105E
330
16C0
100
AcDbEntity
  8
0
100
AcDbCircle
 10
1968.174024133307
 20
-113.6757702102704
 30
0.0
 40
2.593952697898712
100
AcDbArc
 50
225.3891147422975
 51
270.2112983736053
  0
ARC
  5
105F
330
16C0
100
AcDbEntity
  8
0
100
AcDbCircle
 10
1968.197784643798
 20
-113.7274063149155
 30
0.0
 40
2.54233857960198
100
AcDbArc
 50
269.680103799619
 51
321.5894060424658
  0
ARC
  5
1060
330
16C0
100
AcDbEntity
  8
0
100
AcDbCircle
 10
1968.157772758629
 20
-113.5732339436802
 30
0.0
 40
2.671200922672092
100
AcDbArc
 50
319.5309515818175
 51
334.3530383551218
  0
ARC
  5
1061
330
16C0
100
AcDbEntity
  8
0
100
AcDbCircle
 10
1966.934593543003
 20
-112.9859514696427
 30
0.0
 40
4.0280605682696
100
AcDbArc
 50
334.3530383551299
 51
346.4118582650962
  0
ARC
  5
1062
330
16C0
100
AcDbEntity
  8
0
100
AcDbCircle
 10
1965.811988095246
 20
-112.7146105562327
 30
0.0
 40
5.182992983012547
100
AcDbArc
 50
346.4118582650514
 51
353.9676886878024
  0
ARC
  5
1063
330
16C0
100
AcDbEntity
  8
0
100
AcDbCircle
 10
1962.883929210007
 20
-112.4051895800295
 30
0.0
 40
8.127355422648803
100
AcDbArc
 50
353.9676886877685
 51
0.0
  0
ARC
  5
1064
330
16C0
100
AcDbEntity
  8
0
100
AcDbCircle
 10
1963.810172316172
 20
-112.4051895800337
 30
0.0
 40
7.201112316484141
100
AcDbArc
 50
0.0
 51
6.426915913822546
  0
ARC
  5
1065
330
16C0
100
AcDbEntity
  8
0
100
AcDbCircle
 10
1966.370531722415
 20
-112.1167812769607
 30
0.0
 40
4.624560427152613
100
AcDbArc
 50
6.426915913768844
 51
14.44913052006408
  0
ARC
  5
1066
330
16C0
100
AcDbEntity
  8
0
100
AcDbCircle
 10
1967.324460216837
 20
-111.8709819683457
 30
0.0
 40
3.639473186048131
100
AcDbArc
 50
14.4491305201079
 51
26.92040458200344
  0
ARC
  5
1067
330
16C0
100
AcDbEntity
  8
0
100
AcDbCircle
 10
1968.307231554548
 20
-111.3719534591327
 30
0.0
 40
2.537262246512102
100
AcDbArc
 50
26.92040458195721
 51
41.86975513776824
  0
ARC
  5
1068
330
16C0
100
AcDbEntity
  8
0
100
AcDbCircle
 10
1968.168342088775
 20
-111.4824943515874
 30
0.0
 40
2.714487456087523
100
AcDbArc
 50
41.65056469867608
 51
91.9522542740318
  0
ARC
  5
1069
330
16C0
100
AcDbEntity
  8
0
100
AcDbCircle
 10
1968.075868534429
 20
-112.2551334959339
 30
0.0
 40
3.485551010036834
100
AcDbArc
 50
89.99999999999254
 51
103.7759421745955
  0
ARC
  5
106A
330
16C0
100
AcDbEntity
  8
0
100
AcDbCircle
 10
1968.084391313962
 20
-112.2898950413814
 30
0.0
 40
3.521342109668827
100
AcDbArc
 50
103.7759421746071
 51
117.4813583790648
  0
ARC
  5
106B
330
16C0
100
AcDbEntity
  8
0
100
AcDbCircle
 10
1968.28030339268
 20
-112.666537788641
 30
0.0
 40
3.945890459861068
100
AcDbArc
 50
117.4813583790379
 51
128.6611569290994
  0
ARC
  5
106C
330
16C0
100
AcDbEntity
  8
0
100
AcDbCircle
 10
1969.269135231442
 20
-113.9025179442647
 30
0.0
 40
5.528747165454853
100
AcDbArc
 50
128.6611569291088
 51
138.1016640298825
  0
LINE
  5
106D
330
16C0
100
AcDbEntity
  8
0
100
AcDbLine
 10
1965.153917647663
 20
-110.2103601120909
 30
0.0
 11
1962.083849434839
 21
-109.7660081339189
 31
0.0
  0
LINE
  5
106E
330
16C0
100
AcDbEntity
  8
0
100
AcDbLine
 10
1962.083849434839
 20
-109.7660081339189
 30
0.0
 11
1964.022839885043
 21
-99.49205179012631
 31
0.0
  0
LINE
  5
106F
330
16C0
100
AcDbEntity
  8
0
100
AcDbLine
 10
1964.022839885043
 20
-99.49205179012631
 30
0.0
 11
1974.027491999641
 21
-99.49205179012631
 31
0.0
  0
LINE
  5
1070
330
16C0
100
AcDbEntity
  8
0
100
AcDbLine
 10
1974.027491999641
 20
-99.49205179012631
 30
0.0
 11
1974.027491999641
 21
-103.0334024040417
 31
0.0
  0
LINE
  5
1071
330
16C0
100
AcDbEntity
  8
0
100
AcDbLine
 10
1974.027491999641
 20
-103.0334024040417
 30
0.0
 11
1966.890929925971
 21
-103.0334024040417
 31
0.0
  0
LINE
  5
1072
330
16C0
100
AcDbEntity
  8
0
100
AcDbLine
 10
1966.890929925971
 20
-103.0334024040417
 30
0.0
 11
1966.298460621742
 21
-106.3862400575206
 31
0.0
  0
ARC
  5
1073
330
16C0
100
AcDbEntity
  8
0
100
AcDbCircle
 10
1968.91417241038
 20
-111.474613668904
 30
0.0
 40
5.721319268336939
100
AcDbArc
 50
90.30435200955772
 51
117.205726882429
1001
QCAD
1000
reversed:1
  0
ARC
  5
1074
330
16C0
100
AcDbEntity
  8
0
100
AcDbCircle
 10
1968.973955834988
 20
-111.4334761516821
 30
0.0
 40
5.680816772551269
100
AcDbArc
 50
42.64967383446615
 51
90.90952444790709
1001
QCAD
1000
reversed:1
  0
ARC
  5
1075
330
16C0
100
AcDbEntity
  8
0
100
AcDbCircle
 10
1968.755144758184
 20
-111.7877622932823
 30
0.0
 40
6.082825622047655
100
AcDbArc
 50
31.49154120122271
 51
43.70783311376155
1001
QCAD
1000
reversed:1
  0
ARC
  5
1076
330
16C0
100
AcDbEntity
  8
0
100
AcDbCircle
 10
1968.722170574256
 20
-111.8079622035842
 30
0.0
 40
6.121495160212716
100
AcDbArc
 50
19.3140420021271
 51
31.49154120121439
1001
QCAD
1000
reversed:1
  0
ARC
  5
1077
330
16C0
100
AcDbEntity
  8
0
100
AcDbCircle
 10
1968.178481068573
 20
-111.9985091614291
 30
0.0
 40
6.697608362398959
100
AcDbArc
 50
8.977697958875277
 51
19.31404200208972
1001
QCAD
1000
reversed:1
  0
ARC
  5
1078
330
16C0
100
AcDbEntity
  8
0
100
AcDbCircle
 10
1966.030470935322
 20
-112.3378635227344
 30
0.0
 40
8.872259809202678
100
AcDbArc
 50
0.0
 51
8.977697958907724
1001
QCAD
1000
reversed:1
  0
ARC
  5
1079
330
16C0
100
AcDbEntity
  8
0
100
AcDbCircle
 10
1967.775609109006
 20
-112.425433893118
 30
0.0
 40
7.127659600265669
100
AcDbArc
 50
323.2797017661708
 51
0.7039532117710946
1001
QCAD
1000
reversed:1
  0
ARC
  5
107A
330
16C0
100
AcDbEntity
  8
0
100
AcDbCircle
 10
1967.923541459122
 20
-112.584838588436
 30
0.0
 40
6.913884672213455
100
AcDbArc
 50
310.2154701067354
 51
323.605575086598
1001
QCAD
1000
reversed:1
  0
ARC
  5
107B
330
16C0
100
AcDbEntity
  8
0
100
AcDbCircle
 10
1968.642088826525
 20
-113.4346590387457
 30
0.0
 40
5.801003224364665
100
AcDbArc
 50
295.590859159328
 51
310.2154701067357
1001
QCAD
1000
reversed:1
  0
ARC
  5
107C
330
16C0
100
AcDbEntity
  8
0
100
AcDbCircle
 10
1968.546517913011
 20
-113.2351054599753
 30
0.0
 40
6.02226196500555
100
AcDbArc
 50
281.8930449315271
 51
295.5908591593382
1001
QCAD
1000
reversed:1
  0
ARC
  5
107D
330
16C0
100
AcDbEntity
  8
0
100
AcDbCircle
 10
1968.143194591728
 20
-111.3200470466758
 30
0.0
 40
7.979330800749266
100
AcDbArc
 50
269.9999999999984
 51
281.8930449315175
1001
QCAD
1000
reversed:1
  0
ARC
  5
107E
330
16C0
100
AcDbEntity
  8
0
100
AcDbCircle
 10
1968.143194591728
 20
-110.0174297362502
 30
0.0
 40
9.28194811117492
100
AcDbArc
 50
262.0530174647569
 51
270.0000000000028
1001
QCAD
1000
reversed:1
  0
ARC
  5
107F
330
16C0
100
AcDbEntity
  8
0
100
AcDbCircle
 10
1967.814448233893
 20
-112.3723910272848
 30
0.0
 40
6.904151473516113
100
AcDbArc
 50
252.8360751516426
 51
262.0530174647519
1001
QCAD
1000
reversed:1
  0
ARC
  5
1080
330
16C0
100
AcDbEntity
  8
0
100
AcDbCircle
 10
1967.594061085213
 20
-113.0859369912551
 30
0.0
 40
6.157346051735145
100
AcDbArc
 50
241.4536321307893
 51
252.8360751516236
1001
QCAD
1000
reversed:1
  0
ARC
  5
1081
330
16C0
100
AcDbEntity
  8
0
100
AcDbCircle
 10
1967.358040782403
 20
-113.5197946466316
 30
0.0
 40
5.663445202912906
100
AcDbArc
 50
229.5835298091129
 51
241.4536321307897
1001
QCAD
1000
reversed:1
  0
ARC
  5
1082
330
16C0
100
AcDbEntity
  8
0
100
AcDbCircle
 10
1967.488025407538
 20
-113.3671521510601
 30
0.0
 40
5.863933941314538
100
AcDbArc
 50
218.3673603048446
 51
229.5835298091086
1001
QCAD
1000
reversed:1
  0
ARC
  5
1083
330
16C0
100
AcDbEntity
  8
0
100
AcDbCircle
 10
1967.346435556718
 20
-113.4792436134698
 30
0.0
 40
5.683345509236739
100
AcDbArc
 50
206.9738069410874
 51
218.3673603048561
1001
QCAD
1000
reversed:1
  0
ARC
  5
1084
330
16C0
100
AcDbEntity
  8
0
100
AcDbCircle
 10
1967.668081304475
 20
-113.3155420926256
 30
0.0
 40
6.044252941934459
100
AcDbArc
 50
196.7985047597786
 51
206.9738069411185
1001
QCAD
1000
reversed:1
  0
ARC
  5
1085
330
16C0
100
AcDbEntity
  8
0
100
AcDbCircle
 10
1969.174587706061
 20
-112.8607438921175
 30
0.0
 40
7.617912035005293
100
AcDbArc
 50
187.7373727732121
 51
196.7985047597719
1001
QCAD
1000
reversed:1
  0
LINE
  5
1086
330
16C0
100
AcDbEntity
  8
0
100
AcDbLine
 10
1954.708355789402
 20
-118.9627475609312
 30
0.0
 11
1954.708355789402
 21
-115.1790231407402
 31
0.0
  0
LINE
  5
1087
330
16C0
100
AcDbEntity
  8
0
100
AcDbLine
 10
1954.708355789402
 20
-115.1790231407402
 30
0.0
 11
1958.492080209593
 21
-115.1790231407402
 31
0.0
  0
LINE
  5
1088
330
16C0
100
AcDbEntity
  8
0
100
AcDbLine
 10
1958.492080209593
 20
-115.1790231407402
 30
0.0
 11
1958.492080209593
 21
-118.9627475609312
 31
0.0
  0
LINE
  5
1089
330
16C0
100
AcDbEntity
  8
0
100
AcDbLine
 10
1958.492080209593
 20
-118.9627475609312
 30
0.0
 11
1954.708355789402
 21
-118.9627475609312
 31
0.0
  0
LINE
  5
108A
330
16C0
100
AcDbEntity
  8
0
100
AcDbLine
 10
2001.907364190349
 20
-104.662692990672
 30
0.0
 11
2005.394853958426
 21
-104.662692990672
 31
0.0
  0
LINE
  5
108B
330
16C0
100
AcDbEntity
  8
0
100
AcDbLine
 10
2005.394853958426
 20
-104.662692990672
 30
0.0
 11
2005.394853958426
 21
-106.6151486523364
 31
0.0
  0
ARC
  5
108C
330
16C0
100
AcDbEntity
  8
0
100
AcDbCircle
 10
2011.386852930527
 20
-111.5434791678496
 30
0.0
 40
7.75838213494277
100
AcDbArc
 50
130.2213403962171
 51
140.5632088207549
1001
QCAD
1000
reversed:1
  0
ARC
  5
108D
330
16C0
100
AcDbEntity
  8
0
100
AcDbCircle
 10
2010.001312807985
 20
-109.9051519900555
 30
0.0
 40
5.612726670365252
100
AcDbArc
 50
118.0560068852815
 51
130.2213403962176
1001
QCAD
1000
reversed:1
  0
ARC
  5
108E
330
16C0
100
AcDbEntity
  8
0
100
AcDbCircle
 10
2009.776019908502
 20
-109.4824350274567
 30
0.0
 40
5.133720907324352
100
AcDbArc
 50
103.8165222029854
 51
118.0560068852795
1001
QCAD
1000
reversed:1
  0
ARC
  5
108F
330
16C0
100
AcDbEntity
  8
0
100
AcDbCircle
 10
2009.851838951605
 20
-109.7907310678621
 30
0.0
 40
5.451203152224157
100
AcDbArc
 50
90.0
 51
103.8165222029835
1001
QCAD
1000
reversed:1
  0
ARC
  5
1090
330
16C0
100
AcDbEntity
  8
0
100
AcDbCircle
 10
2009.97191200453
 20
-109.1383181787591
 30
0.0
 40
4.800292233548419
100
AcDbArc
 50
61.86921704011751
 51
91.43332873330823
1001
QCAD
1000
reversed:1
  0
ARC
  5
1091
330
16C0
100
AcDbEntity
  8
0
100
AcDbCircle
 10
2010.060791834286
 20
-108.6680408443883
 30
0.0
 40
4.346026182403967
100
AcDbArc
 50
28.18764743880734
 51
59.97904404841616
1001
QCAD
1000
reversed:1
  0
ARC
  5
1092
330
16C0
100
AcDbEntity
  8
0
100
AcDbCircle
 10
2019.073505659343
 20
-110.7127648151512
 30
0.0
 40
6.606409956758258
100
AcDbArc
 50
118.4659581313707
 51
141.6657131875051
1001
QCAD
1000
reversed:1
  0
ARC
  5
1093
330
16C0
100
AcDbEntity
  8
0
100
AcDbCircle
 10
2018.231801703326
 20
-109.3279451047177
 30
0.0
 40
4.988467163913395
100
AcDbArc
 50
89.74353381462777
 51
117.5483687438132
1001
QCAD
1000
reversed:1
  0
ARC
  5
1094
330
16C0
100
AcDbEntity
  8
0
100
AcDbCircle
 10
2018.41985118728
 20
-109.5252731856175
 30
0.0
 40
5.188392546628144
100
AcDbArc
 50
61.18910625303908
 51
91.83037193786605
1001
QCAD
1000
reversed:1
  0
ARC
  5
1095
330
16C0
100
AcDbEntity
  8
0
100
AcDbCircle
 10
2018.927955184936
 20
-108.3530112601411
 30
0.0
 40
3.918203060105823
100
AcDbArc
 50
22.43761149423946
 51
59.43804822883911
1001
QCAD
1000
reversed:1
  0
ARC
  5
1096
330
16C0
100
AcDbEntity
  8
0
100
AcDbCircle
 10
2019.234715203376
 20
-108.2711949069732
 30
0.0
 40
3.60367717623199
100
AcDbArc
 50
7.509331073820836
 51
23.09682191816663
1001
QCAD
1000
reversed:1
  0
ARC
  5
1097
330
16C0
100
AcDbEntity
  8
0
100
AcDbCircle
 10
2007.486153271907
 20
-109.8198689797593
 30
0.0
 40
15.45387121857901
100
AcDbArc
 50
0.0
 51
7.509331073824049
1001
QCAD
1000
reversed:1
  0
LINE
  5
1098
330
16C0
100
AcDbEntity
  8
0
100
AcDbLine
 10
2022.940024490486
 20
-109.8198689797576
 30
0.0
 11
2022.940024490486
 21
-118.9627475609312
 31
0.0
  0
LINE
  5
1099
330
16C0
100
AcDbEntity
  8
0
100
AcDbLine
 10
2022.940024490486
 20
-118.9627475609312
 30
0.0
 11
2019.156300070295
 21
-118.9627475609312
 31
0.0
  0
LINE
  5
109A
330
16C0
100
AcDbEntity
  8
0
100
AcDbLine
 10
2019.156300070295
 20
-118.9627475609312
 30
0.0
 11
2019.156300070295
 21
-110.7893642048603
 31
0.0
  0
ARC
  5
109B
330
16C0
100
AcDbEntity
  8
0
100
AcDbCircle
 10
1999.098071207302
 20
-110.7893642048616
 30
0.0
 40
20.0582288629931
100
AcDbArc
 50
0.0
 51
2.306974040081218
  0
ARC
  5
109C
330
16C0
100
AcDbEntity
  8
0
100
AcDbCircle
 10
2008.344877371152
 20
-110.4168467625694
 30
0.0
 40
10.80392211010037
100
AcDbArc
 50
2.306974040056882
 51
5.450546046359474
  0
ARC
  5
109D
330
16C0
100
AcDbEntity
  8
0
100
AcDbCircle
 10
2012.667888810507
 20
-110.0043537286538
 30
0.0
 40
6.461275634986668
100
AcDbArc
 50
5.450546046383984
 51
13.92025176666839
  0
ARC
  5
109E
330
16C0
100
AcDbEntity
  8
0
100
AcDbCircle
 10
2017.588233183629
 20
-108.7848457817587
 30
0.0
 40
1.392055933429021
100
AcDbArc
 50
13.92025176666781
 51
32.22875743510869
  0
ARC
  5
109F
330
16C0
100
AcDbEntity
  8
0
100
AcDbCircle
 10
2017.234241507186
 20
-109.0379798970749
 30
0.0
 40
1.826679100418534
100
AcDbArc
 50
33.0238675558089
 51
48.30902185039994
  0
ARC
  5
10A0
330
16C0
100
AcDbEntity
  8
0
100
AcDbCircle
 10
2017.377318825747
 20
-108.8773425164966
 30
0.0
 40
1.611561720540895
100
AcDbArc
 50
48.30902185038492
 51
64.58888606853286
  0
ARC
  5
10A1
330
16C0
100
AcDbEntity
  8
0
100
AcDbCircle
 10
2017.310602966585
 20
-109.0177754801383
 30
0.0
 40
1.767036551754493
100
AcDbArc
 50
64.58888606860924
 51
78.48797553672712
  0
ARC
  5
10A2
330
16C0
100
AcDbEntity
  8
0
100
AcDbCircle
 10
2017.149983562791
 20
-109.8063978783342
 30
0.0
 40
2.571849498849106
100
AcDbArc
 50
78.48797553672237
 51
90.0
  0
ARC
  5
10A3
330
16C0
100
AcDbEntity
  8
0
100
AcDbCircle
 10
2017.160410543276
 20
-109.8133063533043
 30
0.0
 40
2.578779054021092
100
AcDbArc
 50
90.23166916986216
 51
125.7066103104583
  0
ARC
  5
10A4
330
16C0
100
AcDbEntity
  8
0
100
AcDbCircle
 10
2017.223706509304
 20
-109.9035007175947
 30
0.0
 40
2.688960360870446
100
AcDbArc
 50
125.6801198568555
 51
163.501801987312
  0
ARC
  5
10A5
330
16C0
100
AcDbEntity
  8
0
100
AcDbCircle
 10
2018.953114284664
 20
-110.5654323654691
 30
0.0
 40
4.53741629718144
100
AcDbArc
 50
161.6887999685001
 51
174.0181709784659
  0
ARC
  5
10A6
330
16C0
100
AcDbEntity
  8
0
100
AcDbCircle
 10
2033.555183351694
 20
-112.0954897164578
 30
0.0
 40
19.21942898399157
100
AcDbArc
 50
174.0181709784539
 51
180.0
  0
LINE
  5
10A7
330
16C0
100
AcDbEntity
  8
0
100
AcDbLine
 10
2014.335754367703
 20
-112.0954897164599
 30
0.0
 11
2014.335754367703
 21
-118.9627475609312
 31
0.0
  0
LINE
  5
10A8
330
16C0
100
AcDbEntity
  8
0
100
AcDbLine
 10
2014.335754367703
 20
-118.9627475609312
 30
0.0
 11
2010.552029947512
 21
-118.9627475609312
 31
0.0
  0
LINE
  5
10A9
330
16C0
100
AcDbEntity
  8
0
100
AcDbLine
 10
2010.552029947512
 20
-118.9627475609312
 30
0.0
 11
2010.552029947512
 21
-111.1259944913541
 31
0.0
  0
ARC
  5
10AA
330
16C0
100
AcDbEntity
  8
0
100
AcDbCircle
 10
1982.814328123704
 20
-111.1259944913534
 30
0.0
 40
27.73770182380822
100
AcDbArc
 50
0.0
 51
4.289153328815524
  0
ARC
  5
10AB
330
16C0
100
AcDbEntity
  8
0
100
AcDbCircle
 10
2007.919614286354
 20
-109.2430980291568
 30
0.0
 40
2.561906058908766
100
AcDbArc
 50
4.289153328831174
 51
18.43494882291749
  0
ARC
  5
10AC
330
16C0
100
AcDbEntity
  8
0
100
AcDbCircle
 10
2008.699092065286
 20
-108.9104056720821
 30
0.0
 40
1.718612749779539
100
AcDbArc
 50
16.12973864210939
 51
53.39386602485845
  0
ARC
  5
10AD
330
16C0
100
AcDbEntity
  8
0
100
AcDbCircle
 10
2008.677829138906
 20
-109.2110152483042
 30
0.0
 40
1.979263809051764
100
AcDbArc
 50
58.09415434817718
 51
93.0463411523089
  0
ARC
  5
10AE
330
16C0
100
AcDbEntity
  8
0
100
AcDbCircle
 10
2008.53926567529
 20
-109.9918293481068
 30
0.0
 40
2.757482990579169
100
AcDbArc
 50
89.30644142107178
 51
124.0021713327737
  0
ARC
  5
10AF
330
16C0
100
AcDbEntity
  8
0
100
AcDbCircle
 10
2008.461873070348
 20
-109.8361678859677
 30
0.0
 40
2.585258597738984
100
AcDbArc
 50
124.5094760926232
 51
162.6637894438851
  0
ARC
  5
10B0
330
16C0
100
AcDbEntity
  8
0
100
AcDbCircle
 10
2009.88384160242
 20
-110.391880456433
 30
0.0
 40
4.109607886546049
100
AcDbArc
 50
161.175289981755
 51
174.1340288582717
  0
ARC
  5
10B1
330
16C0
100
AcDbEntity
  8
0
100
AcDbCircle
 10
2025.679270050728
 20
-112.0146984476979
 30
0.0
 40
19.98818144018744
100
AcDbArc
 50
174.134028858272
 51
180.0
  0
LINE
  5
10B2
330
16C0
100
AcDbEntity
  8
0
100
AcDbLine
 10
2005.69108861054
 20
-112.0146984476979
 30
0.0
 11
2005.69108861054
 21
-118.9627475609312
 31
0.0
  0
LINE
  5
10B3
330
16C0
100
AcDbEntity
  8
0
100
AcDbLine
 10
2005.69108861054
 20
-118.9627475609312
 30
0.0
 11
2001.907364190349
 21
-118.9627475609312
 31
0.0
  0
LINE
  5
10B4
330
16C0
100
AcDbEntity
  8
0
100
AcDbLine
 10
2001.907364190349
 20
-118.9627475609312
 30
0.0
 11
2001.907364190349
 21
-104.662692990672
 31
0.0
  0
LINE
  5
10B5
330
16C0
100
AcDbEntity
  8
0
100
AcDbLine
 10
1977.440771241402
 20
-104.662692990672
 30
0.0
 11
1980.928261009478
 21
-104.662692990672
 31
0.0
  0
LINE
  5
10B6
330
16C0
100
AcDbEntity
  8
0
100
AcDbLine
 10
1980.928261009478
 20
-104.662692990672
 30
0.0
 11
1980.928261009478
 21
-106.6151486523364
 31
0.0
  0
ARC
  5
10B7
330
16C0
100
AcDbEntity
  8
0
100
AcDbCircle
 10
1986.920259981582
 20
-111.5434791678545
 30
0.0
 40
7.758382134948175
100
AcDbArc
 50
130.2213403962089
 51
140.5632088207419
1001
QCAD
1000
reversed:1
  0
ARC
  5
10B8
330
16C0
100
AcDbEntity
  8
0
100
AcDbCircle
 10
1985.534719859038
 20
-109.9051519900549
 30
0.0
 40
5.612726670364608
100
AcDbArc
 50
118.056006885282
 51
130.2213403962193
1001
QCAD
1000
reversed:1
  0
ARC
  5
10B9
330
16C0
100
AcDbEntity
  8
0
100
AcDbCircle
 10
1985.309426959555
 20
-109.4824350274582
 30
0.0
 40
5.13372090732604
100
AcDbArc
 50
103.8165222029836
 51
118.0560068852734
1001
QCAD
1000
reversed:1
  0
ARC
  5
10BA
330
16C0
100
AcDbEntity
  8
0
100
AcDbCircle
 10
1985.385246002656
 20
-109.7907310678589
 30
0.0
 40
5.451203152221017
100
AcDbArc
 50
90.0
 51
103.8165222029867
1001
QCAD
1000
reversed:1
  0
ARC
  5
10BB
330
16C0
100
AcDbEntity
  8
0
100
AcDbCircle
 10
1985.505319055582
 20
-109.1383181787579
 30
0.0
 40
4.800292233547213
100
AcDbArc
 50
61.86921704011294
 51
91.43332873331128
1001
QCAD
1000
reversed:1
  0
ARC
  5
10BC
330
16C0
100
AcDbEntity
  8
0
100
AcDbCircle
 10
1985.594198885339
 20
-108.6680408443882
 30
0.0
 40
4.346026182403572
100
AcDbArc
 50
28.18764743880903
 51
59.97904404842329
1001
QCAD
1000
reversed:1
  0
ARC
  5
10BD
330
16C0
100
AcDbEntity
  8
0
100
AcDbCircle
 10
1994.606912710384
 20
-110.7127648151379
 30
0.0
 40
6.606409956741419
100
AcDbArc
 50
118.4659581313463
 51
141.6657131875386
1001
QCAD
1000
reversed:1
  0
ARC
  5
10BE
330
16C0
100
AcDbEntity
  8
0
100
AcDbCircle
 10
1993.765208754377
 20
-109.3279451047129
 30
0.0
 40
4.988467163908567
100
AcDbArc
 50
89.74353381461445
 51
117.5483687438274
1001
QCAD
1000
reversed:1
  0
ARC
  5
10BF
330
16C0
100
AcDbEntity
  8
0
100
AcDbCircle
 10
1993.953258238332
 20
-109.5252731856176
 30
0.0
 40
5.188392546628198
100
AcDbArc
 50
61.18910625303937
 51
91.83037193786852
1001
QCAD
1000
reversed:1
  0
ARC
  5
10C0
330
16C0
100
AcDbEntity
  8
0
100
AcDbCircle
 10
1994.461362235986
 20
-108.3530112601425
 30
0.0
 40
3.91820306010784
100
AcDbArc
 50
22.43761149424938
 51
59.43804822882943
1001
QCAD
1000
reversed:1
  0
ARC
  5
10C1
330
16C0
100
AcDbEntity
  8
0
100
AcDbCircle
 10
1994.768122254424
 20
-108.2711949069733
 30
0.0
 40
3.603677176235661
100
AcDbArc
 50
7.509331073811978
 51
23.09682191814419
1001
QCAD
1000
reversed:1
  0
ARC
  5
10C2
330
16C0
100
AcDbEntity
  8
0
100
AcDbCircle
 10
1983.019560322951
 20
-109.8198689797566
 30
0.0
 40
15.45387121858642
100
AcDbArc
 50
0.0
 51
7.5093310738093
1001
QCAD
1000
reversed:1
  0
LINE
  5
10C3
330
16C0
100
AcDbEntity
  8
0
100
AcDbLine
 10
1998.473431541538
 20
-109.8198689797566
 30
0.0
 11
1998.473431541538
 21
-118.9627475609312
 31
0.0
  0
LINE
  5
10C4
330
16C0
100
AcDbEntity
  8
0
100
AcDbLine
 10
1998.473431541538
 20
-118.9627475609312
 30
0.0
 11
1994.689707121347
 21
-118.9627475609312
 31
0.0
  0
LINE
  5
10C5
330
16C0
100
AcDbEntity
  8
0
100
AcDbLine
 10
1994.689707121347
 20
-118.9627475609312
 30
0.0
 11
1994.689707121347
 21
-110.7893642048603
 31
0.0
  0
ARC
  5
10C6
330
16C0
100
AcDbEntity
  8
0
100
AcDbCircle
 10
1974.631478258421
 20
-110.7893642048647
 30
0.0
 40
20.05822886292603
100
AcDbArc
 50
0.0
 51
2.306974040101287
  0
ARC
  5
10C7
330
16C0
100
AcDbEntity
  8
0
100
AcDbCircle
 10
1983.878284422081
 20
-110.4168467625787
 30
0.0
 40
10.80392211022324
100
AcDbArc
 50
2.306974040085958
 51
5.450546046346416
  0
ARC
  5
10C8
330
16C0
100
AcDbEntity
  8
0
100
AcDbCircle
 10
1988.201295861547
 20
-110.0043537286564
 30
0.0
 40
6.461275634998542
100
AcDbArc
 50
5.450546046395838
 51
13.92025176666202
  0
ARC
  5
10C9
330
16C0
100
AcDbEntity
  8
0
100
AcDbCircle
 10
1993.121640234677
 20
-108.784845781759
 30
0.0
 40
1.392055933433541
100
AcDbArc
 50
13.92025176662614
 51
32.22875743501724
  0
ARC
  5
10CA
330
16C0
100
AcDbEntity
  8
0
100
AcDbCircle
 10
1992.767648558241
 20
-109.0379798970733
 30
0.0
 40
1.826679100415935
100
AcDbArc
 50
33.02386755580555
 51
48.30902185042825
  0
ARC
  5
10CB
330
16C0
100
AcDbEntity
  8
0
100
AcDbCircle
 10
1992.9107258768
 20
-108.8773425164967
 30
0.0
 40
1.611561720539862
100
AcDbArc
 50
48.30902185043958
 51
64.58888606860523
  0
ARC
  5
10CC
330
16C0
100
AcDbEntity
  8
0
100
AcDbCircle
 10
1992.844010017639
 20
-109.0177754801287
 30
0.0
 40
1.767036551744672
100
AcDbArc
 50
64.5888860685402
 51
78.48797553670747
  0
ARC
  5
10CD
330
16C0
100
AcDbEntity
  8
0
100
AcDbCircle
 10
1992.683390613843
 20
-109.8063978783354
 30
0.0
 40
2.571849498850296
100
AcDbArc
 50
78.48797553671214
 51
89.99999999999494
  0
ARC
  5
10CE
330
16C0
100
AcDbEntity
  8
0
100
AcDbCircle
 10
1992.693817594328
 20
-109.8133063533046
 30
0.0
 40
2.578779054021465
100
AcDbArc
 50
90.23166916986212
 51
125.7066103104537
  0
ARC
  5
10CF
330
16C0
100
AcDbEntity
  8
0
100
AcDbCircle
 10
1992.757113560356
 20
-109.9035007175953
 30
0.0
 40
2.688960360871336
100
AcDbArc
 50
125.6801198568565
 51
163.5018019873034
  0
ARC
  5
10D0
330
16C0
100
AcDbEntity
  8
0
100
AcDbCircle
 10
1994.486521335716
 20
-110.5654323654691
 30
0.0
 40
4.53741629718144
100
AcDbArc
 50
161.6887999685001
 51
174.0181709784659
  0
ARC
  5
10D1
330
16C0
100
AcDbEntity
  8
0
100
AcDbCircle
 10
2009.088590402746
 20
-112.0954897164599
 30
0.0
 40
19.21942898399152
100
AcDbArc
 50
174.0181709784473
 51
180.0
  0
LINE
  5
10D2
330
16C0
100
AcDbEntity
  8
0
100
AcDbLine
 10
1989.869161418755
 20
-112.0954897164599
 30
0.0
 11
1989.869161418755
 21
-118.9627475609312
 31
0.0
  0
LINE
  5
10D3
330
16C0
100
AcDbEntity
  8
0
100
AcDbLine
 10
1989.869161418755
 20
-118.9627475609312
 30
0.0
 11
1986.085436998564
 21
-118.9627475609312
 31
0.0
  0
LINE
  5
10D4
330
16C0
100
AcDbEntity
  8
0
100
AcDbLine
 10
1986.085436998564
 20
-118.9627475609312
 30
0.0
 11
1986.085436998564
 21
-111.1259944913541
 31
0.0
  0
ARC
  5
10D5
330
16C0
100
AcDbEntity
  8
0
100
AcDbCircle
 10
1958.347735174756
 20
-111.1259944913534
 30
0.0
 40
27.73770182380822
100
AcDbArc
 50
0.0
 51
4.289153328815524
  0
ARC
  5
10D6
330
16C0
100
AcDbEntity
  8
0
100
AcDbCircle
 10
1983.453021337406
 20
-109.2430980291568
 30
0.0
 40
2.561906058908766
100
AcDbArc
 50
4.289153328831174
 51
18.43494882291749
  0
ARC
  5
10D7
330
16C0
100
AcDbEntity
  8
0
100
AcDbCircle
 10
1984.232499116335
 20
-108.9104056720839
 30
0.0
 40
1.718612749782509
100
AcDbArc
 50
16.12973864214355
 51
53.39386602482712
  0
ARC
  5
10D8
330
16C0
100
AcDbEntity
  8
0
100
AcDbCircle
 10
1984.211236189958
 20
-109.2110152483017
 30
0.0
 40
1.979263809049239
100
AcDbArc
 50
58.0941543481548
 51
93.04634115233256
  0
ARC
  5
10D9
330
16C0
100
AcDbEntity
  8
0
100
AcDbCircle
 10
1984.072672726342
 20
-109.9918293481062
 30
0.0
 40
2.757482990578572
100
AcDbArc
 50
89.30644142106692
 51
124.0021713327767
  0
ARC
  5
10DA
330
16C0
100
AcDbEntity
  8
0
100
AcDbCircle
 10
1983.995280121402
 20
-109.8361678859693
 30
0.0
 40
2.585258597741444
100
AcDbArc
 50
124.5094760926411
 51
162.6637894438658
  0
ARC
  5
10DB
330
16C0
100
AcDbEntity
  8
0
100
AcDbCircle
 10
1985.417248653467
 20
-110.3918804564333
 30
0.0
 40
4.109607886541562
100
AcDbArc
 50
161.1752899817297
 51
174.1340288582516
  0
ARC
  5
10DC
330
16C0
100
AcDbEntity
  8
0
100
AcDbCircle
 10
2001.212677101801
 20
-112.0146984476939
 30
0.0
 40
19.98818144020862
100
AcDbArc
 50
174.1340288582879
 51
180.0
  0
LINE
  5
10DD
330
16C0
100
AcDbEntity
  8
0
100
AcDbLine
 10
1981.224495661593
 20
-112.0146984476961
 30
0.0
 11
1981.224495661593
 21
-118.9627475609312
 31
0.0
  0
LINE
  5
10DE
330
16C0
100
AcDbEntity
  8
0
100
AcDbLine
 10
1981.224495661593
 20
-118.9627475609312
 30
0.0
 11
1977.440771241402
 21
-118.9627475609312
 31
0.0
  0
LINE
  5
10DF
330
16C0
100
AcDbEntity
  8
0
100
AcDbLine
 10
1977.440771241402
 20
-118.9627475609312
 30
0.0
 11
1977.440771241402
 21
-104.662692990672
 31
0.0
  0
LINE
  5
10E0
330
16C0
100
AcDbEntity
  8
0
100
AcDbLine
 10
2054.287340495368
 20
-118.9627475609312
 30
0.0
 11
2054.287340495368
 21
-99.22274756093123
 31
0.0
  0
LINE
  5
10E1
330
16C0
100
AcDbEntity
  8
0
100
AcDbLine
 10
2054.287340495368
 20
-99.22274756093123
 30
0.0
 11
2067.819878012422
 21
-99.22274756093123
 31
0.0
  0
LINE
  5
10E2
330
16C0
100
AcDbEntity
  8
0
100
AcDbLine
 10
2067.819878012422
 20
-99.22274756093123
 30
0.0
 11
2067.819878012422
 21
-102.5621200029503
 31
0.0
  0
LINE
  5
10E3
330
16C0
100
AcDbEntity
  8
0
100
AcDbLine
 10
2067.819878012422
 20
-102.5621200029503
 30
0.0
 11
2058.273043087456
 21
-102.5621200029503
 31
0.0
  0
LINE
  5
10E4
330
16C0
100
AcDbEntity
  8
0
100
AcDbLine
 10
2058.273043087456
 20
-102.5621200029503
 30
0.0
 11
2058.273043087456
 21
-107.2345483794851
 31
0.0
  0
LINE
  5
10E5
330
16C0
100
AcDbEntity
  8
0
100
AcDbLine
 10
2058.273043087456
 20
-107.2345483794851
 30
0.0
 11
2066.513752500825
 21
-107.2345483794851
 31
0.0
  0
LINE
  5
10E6
330
16C0
100
AcDbEntity
  8
0
100
AcDbLine
 10
2066.513752500825
 20
-107.2345483794851
 30
0.0
 11
2066.513752500825
 21
-110.5739208215042
 31
0.0
  0
LINE
  5
10E7
330
16C0
100
AcDbEntity
  8
0
100
AcDbLine
 10
2066.513752500825
 20
-110.5739208215042
 30
0.0
 11
2058.273043087456
 21
-110.5739208215042
 31
0.0
  0
LINE
  5
10E8
330
16C0
100
AcDbEntity
  8
0
100
AcDbLine
 10
2058.273043087456
 20
-110.5739208215042
 30
0.0
 11
2058.273043087456
 21
-118.9627475609312
 31
0.0
  0
LINE
  5
10E9
330
16C0
100
AcDbEntity
  8
0
100
AcDbLine
 10
2058.273043087456
 20
-118.9627475609312
 30
0.0
 11
2054.287340495368
 21
-118.9627475609312
 31
0.0
  0
LINE
  5
10EA
330
16C0
100
AcDbEntity
  8
0
100
AcDbLine
 10
2046.985753649673
 20
-111.7049985841236
 30
0.0
 11
2050.850269338623
 21
-112.9303328269612
 31
0.0
  0
ARC
  5
10EB
330
16C0
100
AcDbEntity
  8
0
100
AcDbCircle
 10
2038.354126595866
 20
-109.4938935727061
 30
0.0
 40
12.96004236858568
100
AcDbArc
 50
337.7582720636537
 51
344.6237487511867
1001
QCAD
1000
reversed:1
  0
ARC
  5
10EC
330
16C0
100
AcDbEntity
  8
0
100
AcDbCircle
 10
2041.708836370796
 20
-110.86577621129
 30
0.0
 40
9.33566109062122
100
AcDbArc
 50
329.6672677133037
 51
337.758272063648
1001
QCAD
1000
reversed:1
  0
ARC
  5
10ED
330
16C0
100
AcDbEntity
  8
0
100
AcDbCircle
 10
2042.832981596062
 20
-111.5235354327671
 30
0.0
 40
8.033221195299108
100
AcDbArc
 50
318.9588133607399
 51
329.6672677133215
1001
QCAD
1000
reversed:1
  0
ARC
  5
10EE
330
16C0
100
AcDbEntity
  8
0
100
AcDbCircle
 10
2043.866650940002
 20
-112.4233958353499
 30
0.0
 40
6.662739142611716
100
AcDbArc
 50
307.196958740339
 51
318.9588133607438
1001
QCAD
1000
reversed:1
  0
ARC
  5
10EF
330
16C0
100
AcDbEntity
  8
0
100
AcDbCircle
 10
2043.682121024317
 20
-112.1802598520249
 30
0.0
 40
6.967970851597471
100
AcDbArc
 50
296.0841633789454
 51
307.1969587403531
1001
QCAD
1000
reversed:1
  0
ARC
  5
10F0
330
16C0
100
AcDbEntity
  8
0
100
AcDbCircle
 10
2043.290185287718
 20
-111.3796594405604
 30
0.0
 40
7.859360014903944
100
AcDbArc
 50
285.6223872961905
 51
296.0841633789381
1001
QCAD
1000
reversed:1
  0
ARC
  5
10F1
330
16C0
100
AcDbEntity
  8
0
100
AcDbCircle
 10
2043.022028232108
 20
-110.42067561365
 30
0.0
 40
8.855130162452594
100
AcDbArc
 50
277.2500762313879
 51
285.6223872961892
1001
QCAD
1000
reversed:1
  0
ARC
  5
10F2
330
16C0
100
AcDbEntity
  8
0
100
AcDbCircle
 10
2042.649955559632
 20
-107.4959765244049
 30
0.0
 40
11.8034013230202
100
AcDbArc
 50
270.0
 51
277.2500762313888
1001
QCAD
1000
reversed:1
  0
ARC
  5
10F3
330
16C0
100
AcDbEntity
  8
0
100
AcDbCircle
 10
2042.649955559632
 20
-108.807262432653
 30
0.0
 40
10.4921154147721
100
AcDbArc
 50
259.5826769570401
 51
270.0000000000013
1001
QCAD
1000
reversed:1
  0
ARC
  5
10F4
330
16C0
100
AcDbEntity
  8
0
100
AcDbCircle
 10
2042.2546136571
 20
-110.9576491020616
 30
0.0
 40
8.305689553264783
100
AcDbArc
 50
247.8699522996886
 51
259.5826769570382
1001
QCAD
1000
reversed:1
  0
ARC
  5
10F5
330
16C0
100
AcDbEntity
  8
0
100
AcDbCircle
 10
2042.128079598013
 20
-111.2687967007662
 30
0.0
 40
7.969797165305978
100
AcDbArc
 50
235.2571260182654
 51
247.8699522996855
1001
QCAD
1000
reversed:1
  0
ARC
  5
10F6
330
16C0
100
AcDbEntity
  8
0
100
AcDbCircle
 10
2042.63789975563
 20
-110.5336987828787
 30
0.0
 40
8.864383964893191
100
AcDbArc
 50
223.3001080664683
 51
235.2571260182646
1001
QCAD
1000
reversed:1
  0
ARC
  5
10F7
330
16C0
100
AcDbEntity
  8
0
100
AcDbCircle
 10
2042.263708870285
 20
-110.8863197675663
 30
0.0
 40
8.350224089447996
100
AcDbArc
 50
210.0550353892243
 51
223.3001080664631
1001
QCAD
1000
reversed:1
  0
ARC
  5
10F8
330
16C0
100
AcDbEntity
  8
0
100
AcDbCircle
 10
2043.196821169481
 20
-110.3463914004863
 30
0.0
 40
9.428287726015302
100
AcDbArc
 50
197.5933755305644
 51
210.0550353892296
1001
QCAD
1000
reversed:1
  0
ARC
  5
10F9
330
16C0
100
AcDbEntity
  8
0
100
AcDbCircle
 10
2044.599913923918
 20
-109.9014827027448
 30
0.0
 40
10.90022964976141
100
AcDbArc
 50
188.0320724865932
 51
197.593375530553
1001
QCAD
1000
reversed:1
  0
ARC
  5
10FA
330
16C0
100
AcDbEntity
  8
0
100
AcDbCircle
 10
2049.090593032812
 20
-109.2677953099073
 30
0.0
 40
15.43539872829603
100
AcDbArc
 50
180.0
 51
188.0320724866059
1001
QCAD
1000
reversed:1
  0
ARC
  5
10FB
330
16C0
100
AcDbEntity
  8
0
100
AcDbCircle
 10
2050.757192512533
 20
-109.2677953099081
 30
0.0
 40
17.10199820801687
100
AcDbArc
 50
172.4241041768247
 51
180.0
1001
QCAD
1000
reversed:1
  0
ARC
  5
10FC
330
16C0
100
AcDbEntity
  8
0
100
AcDbCircle
 10
2045.423493058272
 20
-108.5584115519531
 30
0.0
 40
11.72133141063616
100
AcDbArc
 50
163.2700276043259
 51
172.4241041768397
1001
QCAD
1000
reversed:1
  0
ARC
  5
10FD
330
16C0
100
AcDbEntity
  8
0
100
AcDbCircle
 10
2043.647457023565
 20
-108.024562347614
 30
0.0
 40
9.86679670631013
100
AcDbArc
 50
150.729253926761
 51
163.2700276043229
1001
QCAD
1000
reversed:1
  0
ARC
  5
10FE
330
16C0
100
AcDbEntity
  8
0
100
AcDbCircle
 10
2042.201468679422
 20
-107.2140820434494
 30
0.0
 40
8.20915964867706
100
AcDbArc
 50
136.9749340108781
 51
150.7292539267655
1001
QCAD
1000
reversed:1
  0
ARC
  5
10FF
330
16C0
100
AcDbEntity
  8
0
100
AcDbCircle
 10
2042.489559007087
 20
-107.4829663492696
 30
0.0
 40
8.603234269543368
100
AcDbArc
 50
124.3920989506171
 51
136.9749340108839
1001
QCAD
1000
reversed:1
  0
ARC
  5
1100
330
16C0
100
AcDbEntity
  8
0
100
AcDbCircle
 10
2042.205026938146
 20
-107.0672947914131
 30
0.0
 40
8.099506821148065
100
AcDbArc
 50
111.4222581155999
 51
124.3920989506136
1001
QCAD
1000
reversed:1
  0
ARC
  5
1101
330
16C0
100
AcDbEntity
  8
0
100
AcDbCircle
 10
2042.417881708953
 20
-107.6098156717689
 30
0.0
 40
8.682289850308441
100
AcDbArc
 50
99.9759718219286
 51
111.4222581156124
1001
QCAD
1000
reversed:1
  0
ARC
  5
1102
330
16C0
100
AcDbEntity
  8
0
100
AcDbCircle
 10
2042.892329365908
 20
-110.3071562872058
 30
0.0
 40
11.42103901276839
100
AcDbArc
 50
90.00000000000114
 51
99.97597182192786
1001
QCAD
1000
reversed:1
  0
ARC
  5
1103
330
16C0
100
AcDbEntity
  8
0
100
AcDbCircle
 10
2042.892329365908
 20
-110.0293050290159
 30
0.0
 40
11.14318775457852
100
AcDbArc
 50
81.15531591193061
 51
90.0
1001
QCAD
1000
reversed:1
  0
ARC
  5
1104
330
16C0
100
AcDbEntity
  8
0
100
AcDbCircle
 10
2043.318477735912
 20
-107.2906828634842
 30
0.0
 40
8.371608096910519
100
AcDbArc
 50
70.94766495325204
 51
81.15531591193096
1001
QCAD
1000
reversed:1
  0
ARC
  5
1105
330
16C0
100
AcDbEntity
  8
0
100
AcDbCircle
 10
2043.565550582235
 20
-106.5752547570199
 30
0.0
 40
7.614718166399514
100
AcDbArc
 50
58.81745057067787
 51
70.9476649532468
1001
QCAD
1000
reversed:1
  0
ARC
  5
1106
330
16C0
100
AcDbEntity
  8
0
100
AcDbCircle
 10
2043.63626421415
 20
-106.4584123746808
 30
0.0
 40
7.478143790877224
100
AcDbArc
 50
46.57655005518148
 51
58.81745057068157
1001
QCAD
1000
reversed:1
  0
ARC
  5
1107
330
16C0
100
AcDbEntity
  8
0
100
AcDbCircle
 10
2044.789162556142
 20
-105.2690691068343
 30
0.0
 40
5.821880490331513
100
AcDbArc
 50
29.05460409907587
 51
46.77146974002746
1001
QCAD
1000
reversed:1
  0
ARC
  5
1108
330
16C0
100
AcDbEntity
  8
0
100
AcDbCircle
 10
2040.736230222455
 20
-107.520698181102
 30
0.0
 40
10.45826852300611
100
AcDbArc
 50
15.85936626658439
 51
29.05460409906479
1001
QCAD
1000
reversed:1
  0
LINE
  5
1109
330
16C0
100
AcDbEntity
  8
0
100
AcDbLine
 10
2050.796408492783
 20
-104.6626929906721
 30
0.0
 11
2046.851101535075
 21
-105.6052577928548
 31
0.0
  0
ARC
  5
110A
330
16C0
100
AcDbEntity
  8
0
100
AcDbCircle
 10
2042.747886668735
 20
-106.4263937347787
 30
0.0
 40
4.184571241414516
100
AcDbArc
 50
11.31655119852174
 51
50.84472645164067
  0
ARC
  5
110B
330
16C0
100
AcDbEntity
  8
0
100
AcDbCircle
 10
2042.80919345294
 20
-106.4769338212808
 30
0.0
 40
4.185805456317418
100
AcDbArc
 50
51.93233727902138
 51
91.62694493738832
  0
ARC
  5
110C
330
16C0
100
AcDbEntity
  8
0
100
AcDbCircle
 10
2042.690351194012
 20
-107.833096346304
 30
0.0
 40
5.540280572548721
100
AcDbArc
 50
90.0
 51
101.0321742502855
  0
ARC
  5
110D
330
16C0
100
AcDbEntity
  8
0
100
AcDbCircle
 10
2042.463292131665
 20
-106.6684707347425
 30
0.0
 40
4.353727315042607
100
AcDbArc
 50
101.0321742502772
 51
113.4824816280852
  0
ARC
  5
110E
330
16C0
100
AcDbEntity
  8
0
100
AcDbCircle
 10
2042.404813541373
 20
-106.5338666531745
 30
0.0
 40
4.206968995696431
100
AcDbArc
 50
113.4824816280905
 51
126.7133746365976
  0
ARC
  5
110F
330
16C0
100
AcDbEntity
  8
0
100
AcDbCircle
 10
2042.777390039407
 20
-107.0334729381769
 30
0.0
 40
4.830202248099724
100
AcDbArc
 50
126.7133746365927
 51
139.0576630761433
  0
ARC
  5
1110
330
16C0
100
AcDbEntity
  8
0
100
AcDbCircle
 10
2042.211876124882
 20
-106.5428775336961
 30
0.0
 40
4.081543555223113
100
AcDbArc
 50
139.0576630761362
 51
155.3471583655405
  0
ARC
  5
1111
330
16C0
100
AcDbEntity
  8
0
100
AcDbCircle
 10
2045.008623176736
 20
-107.8264496171223
 30
0.0
 40
7.158774675143721
100
AcDbArc
 50
155.3471583655536
 51
167.6291466380725
  0
ARC
  5
1112
330
16C0
100
AcDbEntity
  8
0
100
AcDbCircle
 10
2047.516879921941
 20
-108.3765881356732
 30
0.0
 40
9.726654012156786
100
AcDbArc
 50
167.6291466380677
 51
174.5838733566132
  0
ARC
  5
1113
330
16C0
100
AcDbEntity
  8
0
100
AcDbCircle
 10
2053.792179165266
 20
-108.9715606577954
 30
0.0
 40
16.03009536552528
100
AcDbArc
 50
174.58387335659
 51
180.0
  0
ARC
  5
1114
330
16C0
100
AcDbEntity
  8
0
100
AcDbCircle
 10
2056.023033615182
 20
-108.9715606577849
 30
0.0
 40
18.26094981544075
100
AcDbArc
 50
180.0
 51
184.9689237262348
  0
ARC
  5
1115
330
16C0
100
AcDbEntity
  8
0
100
AcDbCircle
 10
2048.631677732322
 20
-109.6141810633856
 30
0.0
 40
10.84171112317763
100
AcDbArc
 50
184.9689237262145
 51
191.4190519101217
  0
ARC
  5
1116
330
16C0
100
AcDbEntity
  8
0
100
AcDbCircle
 10
2045.600397440101
 20
-110.2264433924378
 30
0.0
 40
7.749216115972414
100
AcDbArc
 50
191.4190519100958
 51
203.4668037223918
  0
ARC
  5
1117
330
16C0
100
AcDbEntity
  8
0
100
AcDbCircle
 10
2042.154810938732
 20
-111.7222538932998
 30
0.0
 40
3.992952627757396
100
AcDbArc
 50
203.4668037224115
 51
220.2798630689646
  0
ARC
  5
1118
330
16C0
100
AcDbEntity
  8
0
100
AcDbCircle
 10
2042.482124322422
 20
-111.5220378838145
 30
0.0
 40
4.372498901345081
100
AcDbArc
 50
219.5084098332497
 51
271.6701104877713
  0
ARC
  5
1119
330
16C0
100
AcDbEntity
  8
0
100
AcDbCircle
 10
2042.688083218776
 20
-111.9010176392028
 30
0.0
 40
3.992433982667635
100
AcDbArc
 50
268.87303247974
 51
311.6812884156358
  0
ARC
  5
111A
330
16C0
100
AcDbEntity
  8
0
100
AcDbCircle
 10
2042.838467481522
 20
-112.0443207358892
 30
0.0
 40
3.78544205580869
100
AcDbArc
 50
311.4236656250022
 51
323.9382853743873
  0
ARC
  5
111B
330
16C0
100
AcDbEntity
  8
0
100
AcDbCircle
 10
2041.505289467338
 20
-111.0735144834381
 30
0.0
 40
5.434632280525191
100
AcDbArc
 50
323.9382853743908
 51
334.3765426178744
  0
ARC
  5
111C
330
16C0
100
AcDbEntity
  8
0
100
AcDbCircle
 10
2040.33140290938
 20
-110.5104912433832
 30
0.0
 40
6.736555788185065
100
AcDbArc
 50
334.3765426179051
 51
341.3438809724764
  0
ARC
  5
111D
330
16C0
100
AcDbEntity
  8
0
100
AcDbCircle
 10
2037.226494908722
 20
-109.4621875691274
 30
0.0
 40
10.01365729500584
100
AcDbArc
 50
341.3438809725079
 51
347.0573757342334
  0
MTEXT
  5
56
330
16C0
100
AcDbEntity
  8
0
100
AcDbMText
 10
35.78694861111113
 20
178.33335
 30
0.0
 40
5.0
 41
0.0
 46
0.0
 71
     1
 72
     1
  1
\H16.667;1.8mm CF
  7
textstyle21
 73
     1
 44
1.0
  0
MTEXT
  5
15B
330
16C0
100
AcDbEntity
  8
0
100
AcDbMText
 10
621.8461805677625
 20
209.3508973684214
 30
0.0
 40
6.052635121951219
 41
0.0
 46
0.0
 71
     1
 72
     1
  1
\H19.957;2.0mm CF
  7
textstyle22
 73
     1
 44
1.0
  0
MTEXT
  5
4D5
330
16C0
100
AcDbEntity
  8
0
100
AcDbMText
 10
1266.993622817666
 20
207.5427354405039
 30
0.0
 40
5.986845609756097
 41
0.0
 46
0.0
 71
     1
 72
     1
  1
\H19.74;2.0mm CF
  7
textstyle23
 73
     1
 44
1.0
  0
MTEXT
  5
136F
330
16C0
100
AcDbEntity
  8
0
100
AcDbMText
 10
1909.756682812452
 20
205.5284333810075
 30
0.0
 40
5.986845609756097
 41
0.0
 46
0.0
 71
     1
 72
     1
  1
\H19.74;2.0mm CF
  7
textstyle24
 73
     1
 44
1.0
  0
MTEXT
  5
57
330
16C0
100
AcDbEntity
  8
0
100
AcDbMText
 10
-168.3156110587014
 20
180.5353350702825
 30
0.0
 40
5.0
 41
0.0
 46
0.0
 71
     1
 72
     1
  1
\H16.667;BRUHZILIAN\Pby DAVE YOUNG
  7
textstyle25
 73
     1
 44
1.0
  0
MTEXT
  5
15A
330
16C0
100
AcDbEntity
  8
0
100
AcDbMText
 10
374.774660967463
 20
212.0164582429736
 30
0.0
 40
6.05264
 41
0.0
 46
0.0
 71
     1
 72
     1
  1
\H19.957;BRUHZILIAN v1\Pby M. CARUSO
  7
textstyle26
 73
     1
 44
1.0
  0
MTEXT
  5
4D6
330
16C0
100
AcDbEntity
  8
0
100
AcDbMText
 10
1022.607663213022
 20
210.1793228272892
 30
0.0
 40
5.98685
 41
0.0
 46
0.0
 71
     1
 72
     1
  1
\H19.74;BRUHZILIAN v2\Pby M. CARUSO
  7
textstyle27
 73
     1
 44
1.0
  0
MTEXT
  5
1370
330
16C0
100
AcDbEntity
  8
0
100
AcDbMText
 10
1665.370723207808
 20
208.1650207677928
 30
0.0
 40
5.98685
 41
0.0
 46
0.0
 71
     1
 72
     1
  1
\H19.74;BRUHZILIAN v2.5\Pby M. CARUSO
  7
textstyle28
 73
     1
 44
1.0
  0
LINE
  5
59
330
16C0
100
AcDbEntity
  8
2
100
AcDbLine
 10
19.92893218813451
 20
-194.0710678118655
 30
0.0
 11
34.07106781186546
 21
-179.9289321881345
 31
0.0
  0
LINE
  5
159
330
16C0
100
AcDbEntity
  8
2
100
AcDbLine
 10
602.6496343715277
 20
-241.4544505091003
 30
0.0
 11
619.769061705518
 21
-224.3350231751101
 31
0.0
  0
LINE
  5
4D7
330
16C0
100
AcDbEntity
  8
2
100
AcDbLine
 10
1248.00573473226
 20
-238.3625543079144
 30
0.0
 11
1264.939081334359
 21
-221.4292077058154
 31
0.0
  0
LINE
  5
87A
330
16C0
100
AcDbEntity
  8
2
100
AcDbLine
 10
1890.861835092992
 20
-235.2706581067285
 30
0.0
 11
1907.609100963199
 21
-218.5233922365207
 31
0.0
  0
LINE
  5
5A
330
16C0
100
AcDbEntity
  8
2
100
AcDbLine
 10
19.92893218813451
 20
-179.9289321881345
 30
0.0
 11
34.07106781186546
 21
-194.0710678118655
 31
0.0
  0
LINE
  5
158
330
16C0
100
AcDbEntity
  8
2
100
AcDbLine
 10
602.6496343715277
 20
-224.3350231751101
 30
0.0
 11
619.769061705518
 21
-241.4544505091003
 31
0.0
  0
LINE
  5
4D8
330
16C0
100
AcDbEntity
  8
2
100
AcDbLine
 10
1248.00573473226
 20
-221.4292077058154
 30
0.0
 11
1264.939081334359
 21
-238.3625543079144
 31
0.0
  0
LINE
  5
87B
330
16C0
100
AcDbEntity
  8
2
100
AcDbLine
 10
1890.861835092992
 20
-218.5233922365207
 30
0.0
 11
1907.609100963199
 21
-235.2706581067285
 31
0.0
  0
LINE
  5
5B
330
16C0
100
AcDbEntity
  8
2
100
AcDbLine
 10
-5.471067811865462
 20
38.07106781186547
 30
0.0
 11
8.67106781186549
 21
23.92893218813452
 31
0.0
  0
LINE
  5
157
330
16C0
100
AcDbEntity
  8
2
100
AcDbLine
 10
571.9022659504752
 20
39.55971366699507
 30
0.0
 11
589.0216932844651
 21
22.44028633300498
 31
0.0
  0
LINE
  5
4D9
330
16C0
100
AcDbEntity
  8
2
100
AcDbLine
 10
1217.592576837523
 20
39.59710808365817
 30
0.0
 11
1234.525923439622
 21
22.66376148155928
 31
0.0
  0
LINE
  5
87C
330
16C0
100
AcDbEntity
  8
2
100
AcDbLine
 10
1860.782887724571
 20
39.63450250032126
 30
0.0
 11
1877.530153594778
 21
22.88723663011357
 31
0.0
  0
LINE
  5
5C
330
16C0
100
AcDbEntity
  8
2
100
AcDbLine
 10
45.32893218813452
 20
38.07106781186548
 30
0.0
 11
59.47106781186547
 21
23.92893218813452
 31
0.0
  0
LINE
  5
156
330
16C0
100
AcDbEntity
  8
2
100
AcDbLine
 10
633.3970027925802
 20
39.5597136669952
 30
0.0
 11
650.5164301265704
 21
22.44028633300498
 31
0.0
  0
LINE
  5
4DA
330
16C0
100
AcDbEntity
  8
2
100
AcDbLine
 10
1278.418892626996
 20
39.5971080836583
 30
0.0
 11
1295.352239229096
 21
22.66376148155928
 31
0.0
  0
LINE
  5
87D
330
16C0
100
AcDbEntity
  8
2
100
AcDbLine
 10
1920.940782461412
 20
39.63450250032139
 30
0.0
 11
1937.688048331621
 21
22.88723663011357
 31
0.0
  0
LINE
  5
5D
330
16C0
100
AcDbEntity
  8
2
100
AcDbLine
 10
-5.471067811865462
 20
23.92893218813451
 30
0.0
 11
8.67106781186549
 21
38.07106781186546
 31
0.0
  0
LINE
  5
155
330
16C0
100
AcDbEntity
  8
2
100
AcDbLine
 10
571.9022659504752
 20
22.44028633300498
 30
0.0
 11
589.0216932844651
 21
39.55971366699507
 31
0.0
  0
LINE
  5
4DB
330
16C0
100
AcDbEntity
  8
2
100
AcDbLine
 10
1217.592576837523
 20
22.66376148155928
 30
0.0
 11
1234.525923439622
 21
39.59710808365817
 31
0.0
  0
LINE
  5
87E
330
16C0
100
AcDbEntity
  8
2
100
AcDbLine
 10
1860.782887724571
 20
22.88723663011357
 30
0.0
 11
1877.530153594778
 21
39.63450250032126
 31
0.0
  0
LINE
  5
5E
330
16C0
100
AcDbEntity
  8
2
100
AcDbLine
 10
45.32893218813452
 20
23.92893218813452
 30
0.0
 11
59.47106781186547
 21
38.07106781186548
 31
0.0
  0
LINE
  5
154
330
16C0
100
AcDbEntity
  8
2
100
AcDbLine
 10
633.3970027925802
 20
22.44028633300498
 30
0.0
 11
650.5164301265704
 21
39.5597136669952
 31
0.0
  0
LINE
  5
4DC
330
16C0
100
AcDbEntity
  8
2
100
AcDbLine
 10
1278.418892626996
 20
22.66376148155928
 30
0.0
 11
1295.352239229096
 21
39.5971080836583
 31
0.0
  0
LINE
  5
87F
330
16C0
100
AcDbEntity
  8
2
100
AcDbLine
 10
1920.940782461412
 20
22.88723663011357
 30
0.0
 11
1937.688048331621
 21
39.63450250032139
 31
0.0
  0
LINE
  5
62
330
16C0
100
AcDbEntity
  8
2
100
AcDbLine
 10
27.0
 20
-197.0
 30
0.0
 11
27.0
 21
-177.0
 31
0.0
  0
LINE
  5
153
330
16C0
100
AcDbEntity
  8
2
100
AcDbLine
 10
611.2093480385226
 20
-245.0
 30
0.0
 11
611.2093480385226
 21
-220.7894736842105
 31
0.0
  0
LINE
  5
4DD
330
16C0
100
AcDbEntity
  8
2
100
AcDbLine
 10
1256.472408033309
 20
-241.8695652173913
 30
0.0
 11
1256.472408033309
 21
-217.9221967963386
 31
0.0
  0
LINE
  5
880
330
16C0
100
AcDbEntity
  8
2
100
AcDbLine
 10
1899.235468028095
 20
-238.7391304347827
 30
0.0
 11
1899.235468028095
 21
-215.0549199084668
 31
0.0
  0
LINE
  5
16C
330
16C0
100
AcDbEntity
  8
0
100
AcDbLine
 10
214.6880733944955
 20
43.00000000000003
 30
0.0
 11
-160.6880733944955
 21
42.99999999999997
 31
0.0
  0
DIMENSION
  5
16F
330
16C0
100
AcDbEntity
  8
0
100
AcDbDimension
280
     0
 10
-163.0000000000001
 20
-356.466122598737
 30
0.0
 11
27.00000000000004
 21
-337.716122598737
 31
0.0
 70
    32
 71
     5
 42
-1.0
 73
     0
 74
     0
 75
     0
  3
QCADDimStyle
100
AcDbAlignedDimension
 13
-163.0000000000001
 23
30.99999999999997
 33
0.0
 14
217.0000000000002
 24
31.00000000000003
 34
0.0
100
AcDbRotatedDimension
1001
ACAD
1000
DSTYLE
1002
{
1070
   279
1070
     2
1070
    41
1040
25.0
1070
    79
1070
     2
1070
   176
1070
     0
1070
   177
1070
     0
1070
   178
1070
     0
1070
    44
1040
12.5
1070
    42
1040
6.25
1070
   147
1040
6.25
1070
   140
1040
25.0
1070
    78
1070
     8
1002
}
  0
DIMENSION
  5
170
330
16C0
100
AcDbEntity
  8
0
100
AcDbDimension
280
     0
 10
381.2093480385226
 20
-356.466122598737
 30
0.0
 11
611.2093480385228
 21
-337.716122598737
 31
0.0
 70
   160
 71
     5
 42
-1.0
 73
     0
 74
     0
 75
     0
  3
QCADDimStyle
100
AcDbAlignedDimension
 13
381.2093480385226
 23
31.00000000000003
 33
0.0
 14
841.2093480385229
 24
31.00000000000003
 34
0.0
100
AcDbRotatedDimension
1001
ACAD
1000
DSTYLE
1002
{
1070
   279
1070
     2
1070
    41
1040
25.0
1070
    79
1070
     2
1070
   176
1070
     0
1070
   177
1070
     0
1070
   178
1070
     0
1070
    44
1040
12.5
1070
    42
1040
6.25
1070
   147
1040
6.25
1070
   140
1040
25.0
1070
    78
1070
     8
1002
}
  0
DIMENSION
  5
4DE
330
16C0
100
AcDbEntity
  8
0
100
AcDbDimension
280
     0
 10
1028.972408033309
 20
-352.1240995270116
 30
0.0
 11
1256.472408033309
 21
-333.5779038748377
 31
0.0
 70
   160
 71
     5
 42
-1.0
 73
     0
 74
     0
 75
     0
  3
QCADDimStyle
100
AcDbAlignedDimension
 13
1028.972408033309
 23
31.1304347826088
 33
0.0
 14
1483.972408033309
 24
31.13043478260817
 34
0.0
100
AcDbRotatedDimension
1001
ACAD
1000
DSTYLE
1002
{
1070
   279
1070
     2
1070
    41
1040
25.0
1070
    79
1070
     2
1070
   176
1070
     0
1070
   177
1070
     0
1070
   178
1070
     0
1070
    44
1040
12.5
1070
    42
1040
6.25
1070
   147
1040
6.25
1070
   140
1040
25.0
1070
    78
1070
     8
1002
}
  0
LINE
  5
D0A
330
16C0
100
AcDbEntity
  8
0
100
AcDbLine
 10
1674.235468028095
 20
-347.7820764552866
 30
0.0
 11
2124.235468028095
 21
-347.7820764552866
 31
0.0
  0
LINE
  5
D0D
330
16C0
100
AcDbEntity
  8
0
100
AcDbLine
 10
1674.235468028095
 20
25.01086956521675
 30
0.0
 11
1674.235468028095
 21
-360.2820764552866
 31
0.0
  0
LINE
  5
D0E
330
16C0
100
AcDbEntity
  8
0
100
AcDbLine
 10
2124.235468028095
 20
25.01086956521635
 30
0.0
 11
2124.235468028095
 21
-360.2820764552866
 31
0.0
  0
LINE
  5
E72
330
16C0
100
AcDbEntity
  8
0
100
AcDbLine
 10
2124.235468028095
 20
-347.7820764552866
 30
0.0
 11
2099.235468028095
 21
-351.944923033015
 31
0.0
  0
LINE
  5
E73
330
16C0
100
AcDbEntity
  8
0
100
AcDbLine
 10
2099.235468028095
 20
-351.944923033015
 30
0.0
 11
2099.235468028095
 21
-343.6192298775582
 31
0.0
  0
LINE
  5
E74
330
16C0
100
AcDbEntity
  8
0
100
AcDbLine
 10
2099.235468028095
 20
-343.6192298775582
 30
0.0
 11
2124.235468028095
 21
-347.7820764552866
 31
0.0
  0
LINE
  5
E75
330
16C0
100
AcDbEntity
  8
0
100
AcDbLine
 10
1674.235468028095
 20
-347.7820764552866
 30
0.0
 11
1699.235468028095
 21
-343.6192298775582
 31
0.0
  0
LINE
  5
E76
330
16C0
100
AcDbEntity
  8
0
100
AcDbLine
 10
1699.235468028095
 20
-343.6192298775582
 30
0.0
 11
1699.235468028095
 21
-351.944923033015
 31
0.0
  0
LINE
  5
E77
330
16C0
100
AcDbEntity
  8
0
100
AcDbLine
 10
1699.235468028095
 20
-351.944923033015
 30
0.0
 11
1674.235468028095
 21
-347.7820764552866
 31
0.0
  0
LWPOLYLINE
  5
E78
330
16C0
100
AcDbEntity
  8
0
100
AcDbPolyline
 90
        2
 70
   128
 43
0.0
 10
1882.568801146841
 20
-341.9396852819885
 10
1882.568801146841
 20
-330.8285741708775
  0
LWPOLYLINE
  5
E79
330
16C0
100
AcDbEntity
  8
0
100
AcDbPolyline
 90
        3
 70
   128
 43
0.0
 10
1886.735467813507
 20
-336.384129726433
 10
1872.846578924618
 20
-336.384129726433
 10
1878.402134480174
 20
-316.9396852819885
  0
LWPOLYLINE
  5
E7A
330
16C0
100
AcDbEntity
  8
0
100
AcDbPolyline
 90
        4
 70
   128
 43
0.0
 10
1906.179912257952
 20
-316.9396852819885
 10
1895.068801146841
 20
-316.9396852819885
 10
1895.068801146841
 20
-328.0507963930996
 10
1900.624356702396
 20
-328.0507963930996
  0
LWPOLYLINE
  5
E7B
330
16C0
100
AcDbEntity
  8
0
100
AcDbPolyline
 90
        2
 70
   128
 43
0.0
 10
1906.179912257952
 20
-333.6063519486552
 42
0.414213562373095
 10
1900.624356702396
 20
-328.0507963930998
  0
LWPOLYLINE
  5
E7C
330
16C0
100
AcDbEntity
  8
0
100
AcDbPolyline
 90
        2
 70
   128
 43
0.0
 10
1906.179912257952
 20
-333.6063519486552
 10
1906.179912257952
 20
-336.384129726433
  0
LWPOLYLINE
  5
E7D
330
16C0
100
AcDbEntity
  8
0
100
AcDbPolyline
 90
        2
 70
   128
 43
0.0
 10
1900.624356702396
 20
-341.9396852819885
 42
0.414213562373095
 10
1906.179912257952
 20
-336.384129726433
  0
LWPOLYLINE
  5
E7E
330
16C0
100
AcDbEntity
  8
0
100
AcDbPolyline
 90
        2
 70
   128
 43
0.0
 10
1900.624356702396
 20
-341.9396852819885
 10
1895.068801146841
 20
-341.9396852819885
  0
LWPOLYLINE
  5
E7F
330
16C0
100
AcDbEntity
  8
0
100
AcDbPolyline
 90
        2
 70
   128
 43
0.0
 10
1922.614994465466
 20
-318.3290681574933
 42
0.5454441359011349
 10
1917.523752264034
 20
-318.3272909786325
  0
LWPOLYLINE
  5
E80
330
16C0
100
AcDbEntity
  8
0
100
AcDbPolyline
 90
        2
 70
   128
 43
0.0
 10
1917.526259566897
 20
-318.3204980195833
 42
0.1152617962994469
 10
1915.089570353084
 20
-323.8846187944462
  0
LWPOLYLINE
  5
E81
330
16C0
100
AcDbEntity
  8
0
100
AcDbPolyline
 90
        2
 70
   128
 43
0.0
 10
1915.089570353084
 20
-334.9947517695309
 42
0.1152617962994476
 10
1917.526259566897
 20
-340.5588725443938
  0
LWPOLYLINE
  5
E82
330
16C0
100
AcDbEntity
  8
0
100
AcDbPolyline
 90
        2
 70
   128
 43
0.0
 10
1917.523752264034
 20
-340.5520795853446
 42
0.5452176993605917
 10
1922.613850029647
 20
-340.5520795853446
  0
LWPOLYLINE
  5
E83
330
16C0
100
AcDbEntity
  8
0
100
AcDbPolyline
 90
        2
 70
   128
 43
0.0
 10
1922.610231615673
 20
-340.5588725443939
 42
0.1152617962994502
 10
1925.046920829486
 20
-334.9947517695309
  0
LWPOLYLINE
  5
E84
330
16C0
100
AcDbEntity
  8
0
100
AcDbPolyline
 90
        2
 70
   128
 43
0.0
 10
1925.043943762715
 20
-335.002081348962
 42
0.053670139393564
 10
1925.62421531739
 20
-329.4398467183045
  0
LWPOLYLINE
  5
E85
330
16C0
100
AcDbEntity
  8
0
100
AcDbPolyline
 90
        2
 70
   128
 43
0.0
 10
1925.624197539956
 20
-329.4447674391001
 42
0.0536767032332901
 10
1925.044899165676
 20
-323.8817476699037
  0
LWPOLYLINE
  5
E86
330
16C0
100
AcDbEntity
  8
0
100
AcDbPolyline
 90
        2
 70
   128
 43
0.0
 10
1925.046496018135
 20
-323.8823278332698
 42
0.1150849482110297
 10
1922.614417351255
 20
-318.3260962627723
  0
LWPOLYLINE
  5
E87
330
16C0
100
AcDbEntity
  8
0
100
AcDbPolyline
 90
        2
 70
   128
 43
0.0
 10
1914.513404753725
 20
-329.434603124877
 42
0.0537204622826672
 10
1915.093658530966
 20
-335.002081348962
  0
LWPOLYLINE
  5
E88
330
16C0
100
AcDbEntity
  8
0
100
AcDbPolyline
 90
        2
 70
   128
 43
0.0
 10
1915.093658530966
 20
-323.8772892150151
 42
0.0537204622826672
 10
1914.513404753725
 20
-329.4447674391001
  0
LINE
  5
1BC
330
16C0
100
AcDbEntity
  8
0
100
AcDbLine
 10
838.8974214330183
 20
43.00000000000003
 30
0.0
 11
383.5212746440272
 21
43.00000000000003
 31
0.0
  0
LINE
  5
4DF
330
16C0
100
AcDbEntity
  8
0
100
AcDbLine
 10
1481.685611064821
 20
43.00000000000003
 30
0.0
 11
1031.259205001797
 21
43.00000000000003
 31
0.0
  0
LINE
  5
882
330
16C0
100
AcDbEntity
  8
0
100
AcDbLine
 10
2121.973800696624
 20
43.00000000000002
 30
0.0
 11
1676.497135359567
 21
43.00000000000002
 31
0.0
  0
VIEWPORT
  5
1794
330
16BC
100
AcDbEntity
 67
     1
  8
0
 62
    18
420
        0
100
AcDbViewport
 10
128.5
 20
97.5
 30
0.0
 40
314.226
 41
222.18
 68
     1
 69
     1
 12
128.5
 22
97.5
 13
0.0
 23
0.0
 14
10.0
 24
10.0
 15
10.0
 25
10.0
 16
0.0
 26
0.0
 36
1.0
 17
0.0
 27
0.0
 37
0.0
 42
50.0
 43
0.0
 44
0.0
 45
222.18
 50
0.0
 51
0.0
 72
   100
 90
   557152
  1

281
     0
 71
     1
 74
     0
110
0.0
120
0.0
130
0.0
111
1.0
121
0.0
131
0.0
112
0.0
122
1.0
132
0.0
 79
     0
146
0.0
170
     0
 61
     5
348
16D0
292
     1
282
     1
141
0.0
142
0.0
 63
   256
361
1795
  0
ENDSEC
  0
SECTION
  2
OBJECTS
  0
DICTIONARY
  5
16AE
330
0
100
AcDbDictionary
281
     1
  3
ACAD_DETAILVIEWSTYLE
350
17AB
  3
ACAD_GROUP
350
16AF
  3
ACAD_LAYOUT
350
16BB
  3
ACAD_MATERIAL
350
16E4
  3
ACAD_MLEADERSTYLE
350
170C
  3
ACAD_MLINESTYLE
350
16B8
  3
ACAD_PLOTSETTINGS
350
16BA
  3
ACAD_PLOTSTYLENAME
350
16B0
  3
ACAD_SCALELIST
350
16E8
  3
ACAD_SECTIONVIEWSTYLE
350
17AC
  3
ACAD_TABLESTYLE
350
170A
  3
ACAD_VISUALSTYLE
350
16CB
  3
ACDB_RECOMPOSE_DATA
350
17A8
  3
AcDbVariableDictionary
350
17A4
  3
QCAD_OBJECTS
350
1710
  0
SUN
  5
170E
330
16CA
100
AcDbSun
 90
        1
290
     0
 63
     7
421
 16777215
 40
1.0
291
     1
 91
  2455826
 92
 54000000
292
     0
 70
     2
 71
   256
280
     1
  0
SUN
  5
1795
330
1794
100
AcDbSun
 90
        1
290
     0
 63
     7
421
 16777215
 40
1.0
291
     1
 91
  2455826
 92
 54000000
292
     0
 70
     2
 71
   256
280
     1
  0
DICTIONARY
  5
17AB
102
{ACAD_REACTORS
330
16AE
102
}
330
16AE
100
AcDbDictionary
281
     1
  0
DICTIONARY
  5
16AF
102
{ACAD_REACTORS
330
16AE
102
}
330
16AE
100
AcDbDictionary
281
     1
  0
DICTIONARY
  5
16BB
102
{ACAD_REACTORS
330
16AE
102
}
330
16AE
100
AcDbDictionary
281
     1
  3
Layout1
350
16BF
  3
Model
350
16C3
  0
DICTIONARY
  5
16E4
102
{ACAD_REACTORS
330
16AE
102
}
330
16AE
100
AcDbDictionary
281
     1
  3
ByBlock
350
16E6
  3
ByLayer
350
16E5
  3
Global
350
16E7
  0
DICTIONARY
  5
170C
102
{ACAD_REACTORS
330
16AE
102
}
330
16AE
100
AcDbDictionary
281
     1
  3
Standard
350
170D
  0
DICTIONARY
  5
16B8
102
{ACAD_REACTORS
330
16AE
102
}
330
16AE
100
AcDbDictionary
281
     1
  3
Standard
350
16B9
  0
DICTIONARY
  5
16BA
102
{ACAD_REACTORS
330
16AE
102
}
330
16AE
100
AcDbDictionary
281
     1
  0
ACDBDICTIONARYWDFLT
  5
16B0
102
{ACAD_REACTORS
330
16AE
102
}
330
16AE
100
AcDbDictionary
281
     1
  3
Normal
350
16B1
100
AcDbDictionaryWithDefault
340
16B1
  0
DICTIONARY
  5
16E8
102
{ACAD_REACTORS
330
16AE
102
}
330
16AE
100
AcDbDictionary
281
     1
  3
A0
350
16E9
  3
A1
350
16EA
  3
A2
350
16EB
  3
A3
350
16EC
  3
A4
350
16ED
  3
A5
350
16EE
  3
A6
350
16EF
  3
A7
350
16F0
  3
A8
350
16F1
  3
A9
350
16F2
  3
B0
350
16F3
  3
B1
350
16F4
  3
B2
350
16F5
  3
B3
350
16F6
  3
B4
350
16F7
  3
B5
350
16F8
  3
B6
350
16F9
  3
B7
350
16FA
  3
B8
350
16FB
  3
B9
350
16FC
  3
C0
350
16FD
  3
C1
350
16FE
  3
C2
350
16FF
  3
C3
350
1700
  3
C4
350
1701
  3
C5
350
1702
  3
C6
350
1703
  3
C7
350
1704
  3
C8
350
1705
  3
C9
350
1706
  3
D0
350
1707
  3
D1
350
1708
  3
D2
350
1709
  0
DICTIONARY
  5
17AC
102
{ACAD_REACTORS
330
16AE
102
}
330
16AE
100
AcDbDictionary
281
     1
  0
DICTIONARY
  5
170A
102
{ACAD_REACTORS
330
16AE
102
}
330
16AE
100
AcDbDictionary
281
     1
  3
Standard
350
170B
  0
DICTIONARY
  5
16CB
102
{ACAD_REACTORS
330
16AE
102
}
330
16AE
100
AcDbDictionary
281
     1
  3
2dWireframe
350
16D0
  3
Basic
350
16D3
  3
Brighten
350
16D7
  3
ColorChange
350
16DB
  3
Conceptual
350
16D5
  3
Dim
350
16D6
  3
EdgeColorOff
350
16DE
  3
Facepattern
350
16DA
  3
Flat
350
16CC
  3
FlatWithEdges
350
16CD
  3
Gouraud
350
16CE
  3
GouraudWithEdges
350
16CF
  3
Hidden
350
16D2
  3
JitterOff
350
16DC
  3
Linepattern
350
16D9
  3
OverhangOff
350
16DD
  3
Realistic
350
16D4
  3
Shaded
350
16E3
  3
Shaded with edges
350
16E2
  3
Shades of Gray
350
16DF
  3
Sketchy
350
16E0
  3
Thicken
350
16D8
  3
Wireframe
350
16D1
  3
X-Ray
350
16E1
  0
XRECORD
  5
17A8
102
{ACAD_REACTORS
330
16AE
102
}
330
16AE
100
AcDbXrecord
280
     1
 90
        1
330
170B
  0
DICTIONARY
  5
17A4
102
{ACAD_REACTORS
330
16AE
102
}
330
16AE
100
AcDbDictionary
281
     1
  3
CANNOSCALE
350
17A5
  3
CMLEADERSTYLE
350
17AA
  3
CTABLESTYLE
350
17A9
  0
DICTIONARY
  5
1710
102
{ACAD_REACTORS
330
16AE
102
}
330
16AE
100
AcDbDictionary
281
     1
  3
CamExport/ConfigV2
350
1712
  3
ColorSettings/BackgroundColor
350
1713
  3
ColorSettings/ColorMode
350
1714
  3
DimensionSettings/AngularFormat
350
1715
  3
DimensionSettings/AngularPrecision
350
1716
  3
DimensionSettings/DecimalPoint
350
1717
  3
DimensionSettings/DimensionFont
350
1718
  3
DimensionSettings/KeepProportions
350
1719
  3
DimensionSettings/LinearFormat
350
171A
  3
DimensionSettings/LinearPrecision
350
171B
  3
Grid/DisplayGrid00
350
171C
  3
Grid/DisplayGrid01
350
171D
  3
Grid/DisplayGrid02
350
171E
  3
Grid/DisplayGrid03
350
171F
  3
Grid/GridSpacingX00
350
1720
  3
Grid/GridSpacingX01
350
1721
  3
Grid/GridSpacingX02
350
1722
  3
Grid/GridSpacingX03
350
1723
  3
Grid/GridSpacingY00
350
1724
  3
Grid/GridSpacingY01
350
1725
  3
Grid/GridSpacingY02
350
1726
  3
Grid/GridSpacingY03
350
1727
  3
Grid/IsometricGrid00
350
1728
  3
Grid/IsometricGrid01
350
1729
  3
Grid/IsometricGrid02
350
172A
  3
Grid/IsometricGrid03
350
172B
  3
Grid/IsometricProjection00
350
172C
  3
Grid/IsometricProjection01
350
172D
  3
Grid/IsometricProjection02
350
172E
  3
Grid/IsometricProjection03
350
172F
  3
Grid/MetaGridSpacingX00
350
1730
  3
Grid/MetaGridSpacingX01
350
1731
  3
Grid/MetaGridSpacingX02
350
1732
  3
Grid/MetaGridSpacingX03
350
1733
  3
Grid/MetaGridSpacingY00
350
1734
  3
Grid/MetaGridSpacingY01
350
1735
  3
Grid/MetaGridSpacingY02
350
1736
  3
Grid/MetaGridSpacingY03
350
1737
  3
MultiPageSettings/Columns
350
1738
  3
MultiPageSettings/GlueMarginsBottom
350
1739
  3
MultiPageSettings/GlueMarginsLeft
350
173A
  3
MultiPageSettings/GlueMarginsRight
350
173B
  3
MultiPageSettings/GlueMarginsTop
350
173C
  3
MultiPageSettings/PrintCropMarks
350
173D
  3
MultiPageSettings/Rows
350
173E
  3
PageSettings/OffsetX
350
173F
  3
PageSettings/OffsetY
350
1740
  3
PageSettings/PageOrientation
350
1741
  3
PageSettings/PaperHeight
350
1742
  3
PageSettings/PaperSizeName
350
1743
  3
PageSettings/PaperWidth
350
1744
  3
PageSettings/PointSize
350
1745
  3
PageSettings/Scale
350
1746
  3
PageSettings/ShowPaperBorders
350
1747
  3
QCADVersion
350
1748
  3
UnitSettings/PaperUnit
350
1749
  3
ViewportCenter
350
174A
  3
ViewportHeight
350
174B
  3
ViewportWidth
350
174C
  0
LAYOUT
  5
16BF
102
{ACAD_REACTORS
330
16BB
102
}
330
16BB
100
AcDbPlotSettings
  1

  2
none_device
  4
ISO_A4_(210.00_x_297.00_MM)
  6

 40
7.5
 41
20.0
 42
7.5
 43
20.0
 44
210.0
 45
297.0
 46
0.0
 47
0.0
 48
0.0
 49
0.0
140
0.0
141
0.0
142
1.0
143
30.0
 70
   688
 72
     1
 73
     1
 74
     5
  7

 75
    24
 76
     0
 77
     2
 78
   300
147
0.03333333333333
148
0.0
149
0.0
100
AcDbLayout
  1
Layout1
 70
     0
 71
     0
 10
-20.0
 20
-7.5
 11
277.0
 21
202.5
 12
0.0
 22
0.0
 32
0.0
 14
0.0
 24
0.0
 34
0.0
 15
0.0
 25
0.0
 35
0.0
146
0.0
 13
0.0
 23
0.0
 33
0.0
 16
1.0
 26
0.0
 36
0.0
 17
0.0
 27
1.0
 37
0.0
 76
     0
330
16BC
331
1794
  0
LAYOUT
  5
16C3
102
{ACAD_REACTORS
330
16BB
102
}
330
16BB
100
AcDbPlotSettings
  1

  2
none_device
  4
Letter_(8.50_x_11.00_Inches)
  6

 40
6.35
 41
6.35
 42
6.35000508
 43
6.35000508
 44
215.9
 45
279.4
 46
0.0
 47
0.0
 48
0.0
 49
0.0
140
0.0
141
0.0
142
1.0
143
1.0
 70
  1712
 72
     0
 73
     0
 74
     0
  7

 75
     0
 76
     0
 77
     2
 78
   300
147
1.0
148
0.0
149
0.0
100
AcDbLayout
  1
Model
 70
     1
 71
     0
 10
0.0
 20
0.0
 11
12.0
 21
9.0
 12
0.0
 22
0.0
 32
0.0
 14
-168.3156110587014
 24
-538.4051721878191
 34
0.0
 15
1483.972408033309
 25
228.3157894736842
 35
0.0
146
0.0
 13
0.0
 23
0.0
 33
0.0
 16
1.0
 26
0.0
 36
0.0
 17
0.0
 27
1.0
 37
0.0
 76
     0
330
16C0
331
16CA
  0
MATERIAL
  5
16E6
102
{ACAD_REACTORS
330
16E4
102
}
330
16E4
100
AcDbMaterial
  1
ByBlock
 72
     1
 94
      127
  0
MATERIAL
  5
16E5
102
{ACAD_REACTORS
330
16E4
102
}
330
16E4
100
AcDbMaterial
  1
ByLayer
 72
     1
 94
      127
  0
MATERIAL
  5
16E7
102
{ACAD_REACTORS
330
16E4
102
}
330
16E4
100
AcDbMaterial
  1
Global
 72
     1
 94
      127
  0
MLEADERSTYLE
  5
170D
102
{ACAD_REACTORS
330
170C
102
}
330
170C
100
AcDbMLeaderStyle
179
     2
170
     2
171
     1
172
     0
 90
        2
 40
0.0
 41
0.0
173
     1
 91
-1056964608
340
16B5
 92
       -2
290
     1
 42
0.09
291
     1
 43
0.36
  3
Standard
341
0
 44
0.18
300

342
16B3
174
     1
178
     6
175
     1
176
     0
 93
-1056964608
 45
0.18
292
     0
297
     0
 46
0.18
343
0
 94
-1056964608
 47
1.0
 49
1.0
140
1.0
293
     1
141
0.0
294
     1
177
     0
142
1.0
295
     0
296
     0
143
0.125
271
     0
272
     9
273
     9
298
     0
  0
MLINESTYLE
  5
16B9
102
{ACAD_REACTORS
330
16B8
102
}
330
16B8
100
AcDbMlineStyle
  2
Standard
 70
     0
  3

 62
   256
 51
90.0
 52
90.0
 71
     2
 49
0.5
 62
   256
  6
BYLAYER
 49
-0.5
 62
   256
  6
BYLAYER
  0
ACDBPLACEHOLDER
  5
16B1
102
{ACAD_REACTORS
330
16B0
102
}
330
16B0
  0
SCALE
  5
16E9
102
{ACAD_REACTORS
330
16E8
102
}
330
16E8
100
AcDbScale
 70
     0
300
1:1
140
1.0
141
1.0
290
     1
  0
SCALE
  5
16EA
102
{ACAD_REACTORS
330
16E8
102
}
330
16E8
100
AcDbScale
 70
     0
300
1:2
140
1.0
141
2.0
290
     0
  0
SCALE
  5
16EB
102
{ACAD_REACTORS
330
16E8
102
}
330
16E8
100
AcDbScale
 70
     0
300
1:4
140
1.0
141
4.0
290
     0
  0
SCALE
  5
16EC
102
{ACAD_REACTORS
330
16E8
102
}
330
16E8
100
AcDbScale
 70
     0
300
1:5
140
1.0
141
5.0
290
     0
  0
SCALE
  5
16ED
102
{ACAD_REACTORS
330
16E8
102
}
330
16E8
100
AcDbScale
 70
     0
300
1:8
140
1.0
141
8.0
290
     0
  0
SCALE
  5
16EE
102
{ACAD_REACTORS
330
16E8
102
}
330
16E8
100
AcDbScale
 70
     0
300
1:10
140
1.0
141
10.0
290
     0
  0
SCALE
  5
16EF
102
{ACAD_REACTORS
330
16E8
102
}
330
16E8
100
AcDbScale
 70
     0
300
1:16
140
1.0
141
16.0
290
     0
  0
SCALE
  5
16F0
102
{ACAD_REACTORS
330
16E8
102
}
330
16E8
100
AcDbScale
 70
     0
300
1:20
140
1.0
141
20.0
290
     0
  0
SCALE
  5
16F1
102
{ACAD_REACTORS
330
16E8
102
}
330
16E8
100
AcDbScale
 70
     0
300
1:30
140
1.0
141
30.0
290
     0
  0
SCALE
  5
16F2
102
{ACAD_REACTORS
330
16E8
102
}
330
16E8
100
AcDbScale
 70
     0
300
1:40
140
1.0
141
40.0
290
     0
  0
SCALE
  5
16F3
102
{ACAD_REACTORS
330
16E8
102
}
330
16E8
100
AcDbScale
 70
     0
300
1:50
140
1.0
141
50.0
290
     0
  0
SCALE
  5
16F4
102
{ACAD_REACTORS
330
16E8
102
}
330
16E8
100
AcDbScale
 70
     0
300
1:100
140
1.0
141
100.0
290
     0
  0
SCALE
  5
16F5
102
{ACAD_REACTORS
330
16E8
102
}
330
16E8
100
AcDbScale
 70
     0
300
2:1
140
2.0
141
1.0
290
     0
  0
SCALE
  5
16F6
102
{ACAD_REACTORS
330
16E8
102
}
330
16E8
100
AcDbScale
 70
     0
300
4:1
140
4.0
141
1.0
290
     0
  0
SCALE
  5
16F7
102
{ACAD_REACTORS
330
16E8
102
}
330
16E8
100
AcDbScale
 70
     0
300
8:1
140
8.0
141
1.0
290
     0
  0
SCALE
  5
16F8
102
{ACAD_REACTORS
330
16E8
102
}
330
16E8
100
AcDbScale
 70
     0
300
10:1
140
10.0
141
1.0
290
     0
  0
SCALE
  5
16F9
102
{ACAD_REACTORS
330
16E8
102
}
330
16E8
100
AcDbScale
 70
     0
300
100:1
140
100.0
141
1.0
290
     0
  0
SCALE
  5
16FA
102
{ACAD_REACTORS
330
16E8
102
}
330
16E8
100
AcDbScale
 70
     0
300
1/128" = 1'-0"
140
0.0078125
141
12.0
290
     0
  0
SCALE
  5
16FB
102
{ACAD_REACTORS
330
16E8
102
}
330
16E8
100
AcDbScale
 70
     0
300
1/64" = 1'-0"
140
0.015625
141
12.0
290
     0
  0
SCALE
  5
16FC
102
{ACAD_REACTORS
330
16E8
102
}
330
16E8
100
AcDbScale
 70
     0
300
1/32" = 1'-0"
140
0.03125
141
12.0
290
     0
  0
SCALE
  5
16FD
102
{ACAD_REACTORS
330
16E8
102
}
330
16E8
100
AcDbScale
 70
     0
300
1/16" = 1'-0"
140
0.0625
141
12.0
290
     0
  0
SCALE
  5
16FE
102
{ACAD_REACTORS
330
16E8
102
}
330
16E8
100
AcDbScale
 70
     0
300
3/32" = 1'-0"
140
0.09375
141
12.0
290
     0
  0
SCALE
  5
16FF
102
{ACAD_REACTORS
330
16E8
102
}
330
16E8
100
AcDbScale
 70
     0
300
1/8" = 1'-0"
140
0.125
141
12.0
290
     0
  0
SCALE
  5
1700
102
{ACAD_REACTORS
330
16E8
102
}
330
16E8
100
AcDbScale
 70
     0
300
3/16" = 1'-0"
140
0.1875
141
12.0
290
     0
  0
SCALE
  5
1701
102
{ACAD_REACTORS
330
16E8
102
}
330
16E8
100
AcDbScale
 70
     0
300
1/4" = 1'-0"
140
0.25
141
12.0
290
     0
  0
SCALE
  5
1702
102
{ACAD_REACTORS
330
16E8
102
}
330
16E8
100
AcDbScale
 70
     0
300
3/8" = 1'-0"
140
0.375
141
12.0
290
     0
  0
SCALE
  5
1703
102
{ACAD_REACTORS
330
16E8
102
}
330
16E8
100
AcDbScale
 70
     0
300
1/2" = 1'-0"
140
0.5
141
12.0
290
     0
  0
SCALE
  5
1704
102
{ACAD_REACTORS
330
16E8
102
}
330
16E8
100
AcDbScale
 70
     0
300
3/4" = 1'-0"
140
0.75
141
12.0
290
     0
  0
SCALE
  5
1705
102
{ACAD_REACTORS
330
16E8
102
}
330
16E8
100
AcDbScale
 70
     0
300
1" = 1'-0"
140
1.0
141
12.0
290
     0
  0
SCALE
  5
1706
102
{ACAD_REACTORS
330
16E8
102
}
330
16E8
100
AcDbScale
 70
     0
300
1-1/2" = 1'-0"
140
1.5
141
12.0
290
     0
  0
SCALE
  5
1707
102
{ACAD_REACTORS
330
16E8
102
}
330
16E8
100
AcDbScale
 70
     0
300
3" = 1'-0"
140
3.0
141
12.0
290
     0
  0
SCALE
  5
1708
102
{ACAD_REACTORS
330
16E8
102
}
330
16E8
100
AcDbScale
 70
     0
300
6" = 1'-0"
140
6.0
141
12.0
290
     0
  0
SCALE
  5
1709
102
{ACAD_REACTORS
330
16E8
102
}
330
16E8
100
AcDbScale
 70
     0
300
1'-0" = 1'-0"
140
12.0
141
12.0
290
     0
  0
TABLESTYLE
  5
170B
102
{ACAD_REACTORS
330
170A
102
}
102
{ACAD_XDICTIONARY
360
17A6
102
}
330
170A
100
AcDbTableStyle
  3
Standard
 70
     0
 71
     0
 40
0.06
 41
0.06
280
     0
281
     0
  7
Standard
140
0.18
170
     2
 62
     0
 63
   257
283
     0
 90
        4
 91
        0
  1

274
    -2
284
     1
 64
     0
275
    -2
285
     1
 65
     0
276
    -2
286
     1
 66
     0
277
    -2
287
     1
 67
     0
278
    -2
288
     1
 68
     0
279
    -2
289
     1
 69
     0
  7
Standard
140
0.25
170
     5
 62
     0
 63
   257
283
     0
 90
        4
 91
        0
  1

274
    -2
284
     1
 64
     0
275
    -2
285
     1
 65
     0
276
    -2
286
     1
 66
     0
277
    -2
287
     1
 67
     0
278
    -2
288
     1
 68
     0
279
    -2
289
     1
 69
     0
  7
Standard
140
0.18
170
     5
 62
     0
 63
   257
283
     0
 90
        4
 91
        0
  1

274
    -2
284
     1
 64
     0
275
    -2
285
     1
 65
     0
276
    -2
286
     1
 66
     0
277
    -2
287
     1
 67
     0
278
    -2
288
     1
 68
     0
279
    -2
289
     1
 69
     0
  0
VISUALSTYLE
  5
16D0
102
{ACAD_REACTORS
330
16CB
102
}
330
16CB
100
AcDbVisualStyle
  2
2dWireframe
 70
     4
177
     3
291
     0
 70
    58
 90
        0
176
     1
 90
        2
176
     1
 90
        0
176
     1
 90
        0
176
     1
 40
0.6
176
     1
 40
30.0
176
     1
 62
     7
420
 16777215
176
     1
 90
        1
176
     1
 90
        4
176
     1
 62
     7
176
     1
 62
   257
176
     1
 90
        1
176
     1
 90
        1
176
     1
 40
1.0
176
     1
 90
        0
176
     1
 62
   257
176
     1
 40
1.0
176
     1
 90
        1
176
     1
 90
        6
176
     1
 90
        2
176
     1
 62
     7
176
     1
 90
        5
176
     1
 90
        0
176
     1
 90
        0
176
     1
290
     0
176
     1
 90
        1
176
     1
 40
0.0
176
     1
 90
        0
176
     1
290
     1
176
     1
290
     1
176
     1
290
     0
176
     1
290
     0
176
     1
290
     0
176
     1
290
     0
176
     1
290
     0
176
     1
290
     0
176
     1
290
     0
176
     1
 90
       50
176
     1
 40
0.0
176
     1
 40
1.0
176
     1
 90
        0
176
     1
 62
    18
420
        0
176
     1
 90
       50
176
     1
 90
        3
176
     1
 62
     5
420
      255
176
     1
290
     0
176
     1
 90
       50
176
     1
 90
       50
176
     1
 90
       50
176
     1
290
     0
176
     1
 90
       50
176
     1
 62
   256
176
     0
 40
1.0
176
     0
 90
        2
176
     1
  1
strokes_ogs.tif
176
     1
290
     0
176
     1
 40
1.0
176
     1
 40
1.0
176
     1
  0
VISUALSTYLE
  5
16D3
102
{ACAD_REACTORS
330
16CB
102
}
330
16CB
100
AcDbVisualStyle
  2
Basic
 70
     7
177
     3
291
     1
 70
    58
 90
        1
176
     1
 90
        0
176
     1
 90
        1
176
     1
 90
        0
176
     1
 40
0.6
176
     1
 40
30.0
176
     1
 62
     7
420
 16777215
176
     1
 90
        0
176
     1
 90
        4
176
     1
 62
     7
176
     1
 62
   257
176
     1
 90
        1
176
     1
 90
        1
176
     1
 40
1.0
176
     1
 90
        8
176
     1
 62
     7
176
     1
 40
1.0
176
     1
 90
        1
176
     1
 90
        6
176
     1
 90
        2
176
     1
 62
     7
176
     1
 90
        5
176
     1
 90
        0
176
     1
 90
        0
176
     1
290
     0
176
     1
 90
        1
176
     1
 40
0.0
176
     1
 90
        0
176
     1
290
     0
176
     1
290
     1
176
     1
290
     1
176
     1
290
     0
176
     1
290
     0
176
     1
290
     0
176
     1
290
     0
176
     1
290
     0
176
     1
290
     0
176
     1
 90
       50
176
     1
 40
0.0
176
     1
 40
1.0
176
     1
 90
        0
176
     1
 62
    18
420
        0
176
     1
 90
       50
176
     1
 90
        3
176
     1
 62
     5
420
      255
176
     1
290
     0
176
     1
 90
       50
176
     1
 90
       50
176
     1
 90
       50
176
     1
290
     0
176
     1
 90
       50
176
     1
 62
   256
176
     0
 40
1.0
176
     0
 90
        2
176
     1
  1
strokes_ogs.tif
176
     1
290
     0
176
     1
 40
1.0
176
     1
 40
1.0
176
     1
  0
VISUALSTYLE
  5
16D7
102
{ACAD_REACTORS
330
16CB
102
}
330
16CB
100
AcDbVisualStyle
  2
Brighten
 70
    12
177
     3
291
     1
 70
    58
 90
        2
176
     1
 90
        2
176
     1
 90
        0
176
     1
 90
        0
176
     1
 40
0.6
176
     1
 40
30.0
176
     1
 62
     7
420
 16777215
176
     1
 90
        1
176
     1
 90
        4
176
     1
 62
     7
176
     1
 62
   257
176
     1
 90
        1
176
     1
 90
        1
176
     1
 40
1.0
176
     1
 90
        8
176
     1
 62
     7
176
     1
 40
1.0
176
     1
 90
        1
176
     1
 90
        6
176
     1
 90
        2
176
     1
 62
     7
176
     1
 90
        5
176
     1
 90
        0
176
     1
 90
        0
176
     1
290
     0
176
     1
 90
        1
176
     1
 40
50.0
176
     1
 90
        0
176
     1
290
     0
176
     1
290
     1
176
     1
290
     1
176
     1
290
     0
176
     1
290
     0
176
     1
290
     0
176
     1
290
     0
176
     1
290
     0
176
     1
290
     0
176
     1
 90
       50
176
     1
 40
0.0
176
     1
 40
1.0
176
     1
 90
        0
176
     1
 62
    18
420
        0
176
     1
 90
       50
176
     1
 90
        3
176
     1
 62
     5
420
      255
176
     1
290
     0
176
     1
 90
       50
176
     1
 90
       50
176
     1
 90
       50
176
     1
290
     0
176
     1
 90
       50
176
     1
 62
   256
176
     0
 40
1.0
176
     0
 90
        2
176
     1
  1
strokes_ogs.tif
176
     1
290
     0
176
     1
 40
1.0
176
     1
 40
1.0
176
     1
  0
VISUALSTYLE
  5
16DB
102
{ACAD_REACTORS
330
16CB
102
}
330
16CB
100
AcDbVisualStyle
  2
ColorChange
 70
    16
177
     3
291
     1
 70
    58
 90
        2
176
     1
 90
        2
176
     1
 90
        3
176
     1
 90
        0
176
     1
 40
0.6
176
     1
 40
30.0
176
     1
 62
     8
420
  8421504
176
     1
 90
        1
176
     1
 90
        4
176
     1
 62
     7
176
     1
 62
   257
176
     1
 90
        1
176
     1
 90
        1
176
     1
 40
1.0
176
     1
 90
        8
176
     1
 62
     8
420
  8421504
176
     1
 40
1.0
176
     1
 90
        1
176
     1
 90
        6
176
     1
 90
        2
176
     1
 62
     7
176
     1
 90
        5
176
     1
 90
        0
176
     1
 90
        0
176
     1
290
     0
176
     1
 90
        1
176
     1
 40
0.0
176
     1
 90
        0
176
     1
290
     0
176
     1
290
     1
176
     1
290
     1
176
     1
290
     0
176
     1
290
     0
176
     1
290
     0
176
     1
290
     0
176
     1
290
     0
176
     1
290
     0
176
     1
 90
       50
176
     1
 40
0.0
176
     1
 40
1.0
176
     1
 90
        0
176
     1
 62
    18
420
        0
176
     1
 90
       50
176
     1
 90
        3
176
     1
 62
     5
420
      255
176
     1
290
     0
176
     1
 90
       50
176
     1
 90
       50
176
     1
 90
       50
176
     1
290
     0
176
     1
 90
       50
176
     1
 62
   256
176
     0
 40
1.0
176
     0
 90
        2
176
     1
  1
strokes_ogs.tif
176
     1
290
     0
176
     1
 40
1.0
176
     1
 40
1.0
176
     1
  0
VISUALSTYLE
  5
16D5
102
{ACAD_REACTORS
330
16CB
102
}
330
16CB
100
AcDbVisualStyle
  2
Conceptual
 70
     9
177
     3
291
     0
 70
    58
 90
        3
176
     1
 90
        2
176
     1
 90
        0
176
     1
 90
        0
176
     1
 40
0.6
176
     1
 40
30.0
176
     1
 62
     7
420
 16777215
176
     1
 90
        2
176
     1
 90
        2
176
     1
 62
     7
176
     1
 62
   257
176
     1
 90
        1
176
     1
 90
        1
176
     1
 40
179.0
176
     1
 90
        8
176
     1
 62
     7
176
     1
 40
1.0
176
     1
 90
        1
176
     1
 90
        6
176
     1
 90
        2
176
     1
 62
     7
176
     1
 90
        3
176
     1
 90
        0
176
     1
 90
        0
176
     1
290
     0
176
     1
 90
        1
176
     1
 40
0.0
176
     1
 90
        0
176
     1
290
     0
176
     1
290
     1
176
     1
290
     1
176
     1
290
     0
176
     1
290
     0
176
     1
290
     0
176
     1
290
     0
176
     1
290
     0
176
     1
290
     0
176
     1
 90
       50
176
     1
 40
0.0
176
     1
 40
1.0
176
     1
 90
        0
176
     1
 62
    18
420
        0
176
     1
 90
       50
176
     1
 90
        3
176
     1
 62
     5
420
      255
176
     1
290
     0
176
     1
 90
       50
176
     1
 90
       50
176
     1
 90
       50
176
     1
290
     0
176
     1
 90
       50
176
     1
 62
   256
176
     0
 40
1.0
176
     0
 90
        2
176
     1
  1
strokes_ogs.tif
176
     1
290
     0
176
     1
 40
1.0
176
     1
 40
1.0
176
     1
  0
VISUALSTYLE
  5
16D6
102
{ACAD_REACTORS
330
16CB
102
}
330
16CB
100
AcDbVisualStyle
  2
Dim
 70
    11
177
     3
291
     1
 70
    58
 90
        2
176
     1
 90
        2
176
     1
 90
        0
176
     1
 90
        0
176
     1
 40
0.6
176
     1
 40
30.0
176
     1
 62
     7
420
 16777215
176
     1
 90
        1
176
     1
 90
        4
176
     1
 62
     7
176
     1
 62
   257
176
     1
 90
        1
176
     1
 90
        1
176
     1
 40
1.0
176
     1
 90
        8
176
     1
 62
     7
176
     1
 40
1.0
176
     1
 90
        1
176
     1
 90
        6
176
     1
 90
        2
176
     1
 62
     7
176
     1
 90
        5
176
     1
 90
        0
176
     1
 90
        0
176
     1
290
     0
176
     1
 90
        1
176
     1
 40
-50.0
176
     1
 90
        0
176
     1
290
     0
176
     1
290
     1
176
     1
290
     1
176
     1
290
     0
176
     1
290
     0
176
     1
290
     0
176
     1
290
     0
176
     1
290
     0
176
     1
290
     0
176
     1
 90
       50
176
     1
 40
0.0
176
     1
 40
1.0
176
     1
 90
        0
176
     1
 62
    18
420
        0
176
     1
 90
       50
176
     1
 90
        3
176
     1
 62
     5
420
      255
176
     1
290
     0
176
     1
 90
       50
176
     1
 90
       50
176
     1
 90
       50
176
     1
290
     0
176
     1
 90
       50
176
     1
 62
   256
176
     0
 40
1.0
176
     0
 90
        2
176
     1
  1
strokes_ogs.tif
176
     1
290
     0
176
     1
 40
1.0
176
     1
 40
1.0
176
     1
  0
VISUALSTYLE
  5
16DE
102
{ACAD_REACTORS
330
16CB
102
}
330
16CB
100
AcDbVisualStyle
  2
EdgeColorOff
 70
    22
177
     3
291
     1
 70
    58
 90
        2
176
     0
 90
        2
176
     0
 90
        0
176
     0
 90
        0
176
     0
 40
0.6
176
     0
 40
30.0
176
     0
 62
     7
420
 16777215
176
     0
 90
        1
176
     0
 90
        4
176
     0
 62
     7
176
     0
 62
   257
176
     0
 90
        1
176
     0
 90
        1
176
     0
 40
1.0
176
     0
 90
        8
176
     2
 62
     7
176
     0
 40
1.0
176
     0
 90
        1
176
     0
 90
        6
176
     0
 90
        2
176
     0
 62
     7
176
     0
 90
        5
176
     0
 90
        0
176
     0
 90
        0
176
     0
290
     0
176
     0
 90
        1
176
     0
 40
0.0
176
     0
 90
        0
176
     0
290
     0
176
     0
290
     1
176
     0
290
     1
176
     0
290
     0
176
     0
290
     0
176
     0
290
     0
176
     0
290
     0
176
     0
290
     0
176
     0
290
     0
176
     0
 90
       50
176
     0
 40
0.0
176
     0
 40
1.0
176
     0
 90
        0
176
     0
 62
    18
420
        0
176
     0
 90
       50
176
     0
 90
        3
176
     0
 62
     5
420
      255
176
     0
290
     0
176
     0
 90
       50
176
     0
 90
       50
176
     0
 90
       50
176
     0
290
     0
176
     0
 90
       50
176
     0
 62
   256
176
     0
 40
1.0
176
     0
 90
        2
176
     0
  1
strokes_ogs.tif
176
     0
290
     0
176
     0
 40
1.0
176
     0
 40
1.0
176
     0
  0
VISUALSTYLE
  5
16DA
102
{ACAD_REACTORS
330
16CB
102
}
330
16CB
100
AcDbVisualStyle
  2
Facepattern
 70
    15
177
     3
291
     1
 70
    58
 90
        2
176
     1
 90
        2
176
     1
 90
        0
176
     1
 90
        0
176
     1
 40
0.6
176
     1
 40
30.0
176
     1
 62
     7
420
 16777215
176
     1
 90
        1
176
     1
 90
        4
176
     1
 62
     7
176
     1
 62
   257
176
     1
 90
        1
176
     1
 90
        1
176
     1
 40
1.0
176
     1
 90
        8
176
     1
 62
     7
176
     1
 40
1.0
176
     1
 90
        1
176
     1
 90
        6
176
     1
 90
        2
176
     1
 62
     7
176
     1
 90
        5
176
     1
 90
        0
176
     1
 90
        0
176
     1
290
     0
176
     1
 90
        1
176
     1
 40
0.0
176
     1
 90
        0
176
     1
290
     0
176
     1
290
     1
176
     1
290
     1
176
     1
290
     0
176
     1
290
     0
176
     1
290
     0
176
     1
290
     0
176
     1
290
     0
176
     1
290
     0
176
     1
 90
       50
176
     1
 40
0.0
176
     1
 40
1.0
176
     1
 90
        0
176
     1
 62
    18
420
        0
176
     1
 90
       50
176
     1
 90
        3
176
     1
 62
     5
420
      255
176
     1
290
     0
176
     1
 90
       50
176
     1
 90
       50
176
     1
 90
       50
176
     1
290
     0
176
     1
 90
       50
176
     1
 62
   256
176
     0
 40
1.0
176
     0
 90
        2
176
     1
  1
strokes_ogs.tif
176
     1
290
     0
176
     1
 40
1.0
176
     1
 40
1.0
176
     1
  0
VISUALSTYLE
  5
16CC
102
{ACAD_REACTORS
330
16CB
102
}
330
16CB
100
AcDbVisualStyle
  2
Flat
 70
     0
177
     3
291
     1
 70
    58
 90
        2
176
     1
 90
        1
176
     1
 90
        1
176
     1
 90
        2
176
     1
 40
0.6
176
     1
 40
30.0
176
     1
 62
     7
420
 16777215
176
     1
 90
        0
176
     1
 90
        0
176
     1
 62
     7
176
     1
 62
   257
176
     1
 90
        1
176
     1
 90
        1
176
     1
 40
1.0
176
     1
 90
        8
176
     1
 62
     7
176
     1
 40
1.0
176
     1
 90
        1
176
     1
 90
        6
176
     1
 90
        2
176
     1
 62
     7
176
     1
 90
        5
176
     1
 90
        0
176
     1
 90
        0
176
     1
290
     0
176
     1
 90
       13
176
     1
 40
0.0
176
     1
 90
        0
176
     1
290
     0
176
     1
290
     1
176
     1
290
     1
176
     1
290
     0
176
     1
290
     0
176
     1
290
     0
176
     1
290
     0
176
     1
290
     0
176
     1
290
     0
176
     1
 90
       50
176
     1
 40
0.0
176
     1
 40
1.0
176
     1
 90
        0
176
     1
 62
    18
420
        0
176
     1
 90
       50
176
     1
 90
        3
176
     1
 62
     5
420
      255
176
     1
290
     0
176
     1
 90
       50
176
     1
 90
       50
176
     1
 90
       50
176
     1
290
     0
176
     1
 90
       50
176
     1
 62
   256
176
     0
 40
1.0
176
     0
 90
        2
176
     1
  1
strokes_ogs.tif
176
     1
290
     0
176
     1
 40
1.0
176
     1
 40
1.0
176
     1
  0
VISUALSTYLE
  5
16CD
102
{ACAD_REACTORS
330
16CB
102
}
330
16CB
100
AcDbVisualStyle
  2
FlatWithEdges
 70
     1
177
     3
291
     1
 70
    58
 90
        2
176
     1
 90
        1
176
     1
 90
        1
176
     1
 90
        2
176
     1
 40
0.6
176
     1
 40
30.0
176
     1
 62
     7
420
 16777215
176
     1
 90
        1
176
     1
 90
        0
176
     1
 62
     7
176
     1
 62
   257
176
     1
 90
        1
176
     1
 90
        1
176
     1
 40
1.0
176
     1
 90
        0
176
     1
 62
   257
176
     1
 40
1.0
176
     1
 90
        1
176
     1
 90
        6
176
     1
 90
        2
176
     1
 62
     7
176
     1
 90
        5
176
     1
 90
        0
176
     1
 90
        0
176
     1
290
     0
176
     1
 90
       13
176
     1
 40
0.0
176
     1
 90
        0
176
     1
290
     0
176
     1
290
     1
176
     1
290
     1
176
     1
290
     0
176
     1
290
     0
176
     1
290
     0
176
     1
290
     0
176
     1
290
     0
176
     1
290
     0
176
     1
 90
       50
176
     1
 40
0.0
176
     1
 40
1.0
176
     1
 90
        0
176
     1
 62
    18
420
        0
176
     1
 90
       50
176
     1
 90
        3
176
     1
 62
     5
420
      255
176
     1
290
     0
176
     1
 90
       50
176
     1
 90
       50
176
     1
 90
       50
176
     1
290
     0
176
     1
 90
       50
176
     1
 62
   256
176
     0
 40
1.0
176
     0
 90
        2
176
     1
  1
strokes_ogs.tif
176
     1
290
     0
176
     1
 40
1.0
176
     1
 40
1.0
176
     1
  0
VISUALSTYLE
  5
16CE
102
{ACAD_REACTORS
330
16CB
102
}
330
16CB
100
AcDbVisualStyle
  2
Gouraud
 70
     2
177
     3
291
     1
 70
    58
 90
        2
176
     1
 90
        2
176
     1
 90
        1
176
     1
 90
        2
176
     1
 40
0.6
176
     1
 40
30.0
176
     1
 62
     7
420
 16777215
176
     1
 90
        0
176
     1
 90
        0
176
     1
 62
     7
176
     1
 62
   257
176
     1
 90
        1
176
     1
 90
        1
176
     1
 40
1.0
176
     1
 90
        0
176
     1
 62
     7
176
     1
 40
1.0
176
     1
 90
        1
176
     1
 90
        6
176
     1
 90
        2
176
     1
 62
     7
176
     1
 90
        5
176
     1
 90
        0
176
     1
 90
        0
176
     1
290
     0
176
     1
 90
       13
176
     1
 40
0.0
176
     1
 90
        0
176
     1
290
     0
176
     1
290
     1
176
     1
290
     1
176
     1
290
     0
176
     1
290
     0
176
     1
290
     0
176
     1
290
     0
176
     1
290
     0
176
     1
290
     0
176
     1
 90
       50
176
     1
 40
0.0
176
     1
 40
1.0
176
     1
 90
        0
176
     1
 62
    18
420
        0
176
     1
 90
       50
176
     1
 90
        3
176
     1
 62
     5
420
      255
176
     1
290
     0
176
     1
 90
       50
176
     1
 90
       50
176
     1
 90
       50
176
     1
290
     0
176
     1
 90
       50
176
     1
 62
   256
176
     0
 40
1.0
176
     0
 90
        2
176
     1
  1
strokes_ogs.tif
176
     1
290
     0
176
     1
 40
1.0
176
     1
 40
1.0
176
     1
  0
VISUALSTYLE
  5
16CF
102
{ACAD_REACTORS
330
16CB
102
}
330
16CB
100
AcDbVisualStyle
  2
GouraudWithEdges
 70
     3
177
     3
291
     1
 70
    58
 90
        2
176
     1
 90
        2
176
     1
 90
        1
176
     1
 90
        2
176
     1
 40
0.6
176
     1
 40
30.0
176
     1
 62
     7
420
 16777215
176
     1
 90
        1
176
     1
 90
        0
176
     1
 62
     7
176
     1
 62
   257
176
     1
 90
        1
176
     1
 90
        1
176
     1
 40
1.0
176
     1
 90
        0
176
     1
 62
   257
176
     1
 40
1.0
176
     1
 90
        1
176
     1
 90
        6
176
     1
 90
        2
176
     1
 62
     7
176
     1
 90
        5
176
     1
 90
        0
176
     1
 90
        0
176
     1
290
     0
176
     1
 90
       13
176
     1
 40
0.0
176
     1
 90
        0
176
     1
290
     0
176
     1
290
     1
176
     1
290
     1
176
     1
290
     0
176
     1
290
     0
176
     1
290
     0
176
     1
290
     0
176
     1
290
     0
176
     1
290
     0
176
     1
 90
       50
176
     1
 40
0.0
176
     1
 40
1.0
176
     1
 90
        0
176
     1
 62
    18
420
        0
176
     1
 90
       50
176
     1
 90
        3
176
     1
 62
     5
420
      255
176
     1
290
     0
176
     1
 90
       50
176
     1
 90
       50
176
     1
 90
       50
176
     1
290
     0
176
     1
 90
       50
176
     1
 62
   256
176
     0
 40
1.0
176
     0
 90
        2
176
     1
  1
strokes_ogs.tif
176
     1
290
     0
176
     1
 40
1.0
176
     1
 40
1.0
176
     1
  0
VISUALSTYLE
  5
16D2
102
{ACAD_REACTORS
330
16CB
102
}
330
16CB
100
AcDbVisualStyle
  2
Hidden
 70
     6
177
     3
291
     0
 70
    58
 90
        1
176
     1
 90
        2
176
     1
 90
        2
176
     1
 90
        0
176
     1
 40
0.6
176
     1
 40
30.0
176
     1
 62
     7
420
 16777215
176
     1
 90
        2
176
     1
 90
        2
176
     1
 62
     7
176
     1
 62
   257
176
     1
 90
        2
176
     1
 90
        1
176
     1
 40
40.0
176
     1
 90
        0
176
     1
 62
   257
176
     1
 40
1.0
176
     1
 90
        1
176
     1
 90
        6
176
     1
 90
        2
176
     1
 62
     7
176
     1
 90
        3
176
     1
 90
        0
176
     1
 90
        0
176
     1
290
     0
176
     1
 90
        1
176
     1
 40
0.0
176
     1
 90
        0
176
     1
290
     0
176
     1
290
     1
176
     1
290
     1
176
     1
290
     0
176
     1
290
     0
176
     1
290
     0
176
     1
290
     0
176
     1
290
     0
176
     1
290
     0
176
     1
 90
       50
176
     1
 40
0.0
176
     1
 40
1.0
176
     1
 90
        0
176
     1
 62
    18
420
        0
176
     1
 90
       50
176
     1
 90
        3
176
     1
 62
     5
420
      255
176
     1
290
     0
176
     1
 90
       50
176
     1
 90
       50
176
     1
 90
       50
176
     1
290
     0
176
     1
 90
       50
176
     1
 62
   256
176
     0
 40
1.0
176
     0
 90
        2
176
     1
  1
strokes_ogs.tif
176
     1
290
     0
176
     1
 40
1.0
176
     1
 40
1.0
176
     1
  0
VISUALSTYLE
  5
16DC
102
{ACAD_REACTORS
330
16CB
102
}
330
16CB
100
AcDbVisualStyle
  2
JitterOff
 70
    20
177
     3
291
     1
 70
    58
 90
        2
176
     0
 90
        2
176
     0
 90
        0
176
     0
 90
        0
176
     0
 40
0.6
176
     0
 40
30.0
176
     0
 62
     7
420
 16777215
176
     0
 90
        1
176
     0
 90
        4
176
     0
 62
     7
176
     0
 62
   257
176
     0
 90
        1
176
     0
 90
        1
176
     0
 40
1.0
176
     0
 90
       10
176
     2
 62
     7
176
     0
 40
1.0
176
     0
 90
        1
176
     0
 90
        6
176
     0
 90
        2
176
     0
 62
     7
176
     0
 90
        5
176
     0
 90
        0
176
     0
 90
        0
176
     0
290
     0
176
     0
 90
        1
176
     0
 40
0.0
176
     0
 90
        0
176
     0
290
     0
176
     0
290
     1
176
     0
290
     1
176
     0
290
     0
176
     0
290
     0
176
     0
290
     0
176
     0
290
     0
176
     0
290
     0
176
     0
290
     0
176
     0
 90
       50
176
     0
 40
0.0
176
     0
 40
1.0
176
     0
 90
        0
176
     0
 62
    18
420
        0
176
     0
 90
       50
176
     0
 90
        3
176
     0
 62
     5
420
      255
176
     0
290
     0
176
     0
 90
       50
176
     0
 90
       50
176
     0
 90
       50
176
     0
290
     0
176
     0
 90
       50
176
     0
 62
   256
176
     0
 40
1.0
176
     0
 90
        2
176
     0
  1
strokes_ogs.tif
176
     0
290
     0
176
     0
 40
1.0
176
     0
 40
1.0
176
     0
  0
VISUALSTYLE
  5
16D9
102
{ACAD_REACTORS
330
16CB
102
}
330
16CB
100
AcDbVisualStyle
  2
Linepattern
 70
    14
177
     3
291
     1
 70
    58
 90
        2
176
     1
 90
        2
176
     1
 90
        0
176
     1
 90
        0
176
     1
 40
0.6
176
     1
 40
30.0
176
     1
 62
     7
420
 16777215
176
     1
 90
        1
176
     1
 90
        4
176
     1
 62
     7
176
     1
 62
   257
176
     1
 90
        7
176
     1
 90
        7
176
     1
 40
1.0
176
     1
 90
        8
176
     1
 62
     7
176
     1
 40
1.0
176
     1
 90
        1
176
     1
 90
        6
176
     1
 90
        2
176
     1
 62
     7
176
     1
 90
        5
176
     1
 90
        0
176
     1
 90
        0
176
     1
290
     0
176
     1
 90
        1
176
     1
 40
0.0
176
     1
 90
        0
176
     1
290
     0
176
     1
290
     1
176
     1
290
     1
176
     1
290
     0
176
     1
290
     0
176
     1
290
     0
176
     1
290
     0
176
     1
290
     0
176
     1
290
     0
176
     1
 90
       50
176
     1
 40
0.0
176
     1
 40
1.0
176
     1
 90
        0
176
     1
 62
    18
420
        0
176
     1
 90
       50
176
     1
 90
        3
176
     1
 62
     5
420
      255
176
     1
290
     0
176
     1
 90
       50
176
     1
 90
       50
176
     1
 90
       50
176
     1
290
     0
176
     1
 90
       50
176
     1
 62
   256
176
     0
 40
1.0
176
     0
 90
        2
176
     1
  1
strokes_ogs.tif
176
     1
290
     0
176
     1
 40
1.0
176
     1
 40
1.0
176
     1
  0
VISUALSTYLE
  5
16DD
102
{ACAD_REACTORS
330
16CB
102
}
330
16CB
100
AcDbVisualStyle
  2
OverhangOff
 70
    21
177
     3
291
     1
 70
    58
 90
        2
176
     0
 90
        2
176
     0
 90
        0
176
     0
 90
        0
176
     0
 40
0.6
176
     0
 40
30.0
176
     0
 62
     7
420
 16777215
176
     0
 90
        1
176
     0
 90
        4
176
     0
 62
     7
176
     0
 62
   257
176
     0
 90
        1
176
     0
 90
        1
176
     0
 40
1.0
176
     0
 90
        9
176
     2
 62
     7
176
     0
 40
1.0
176
     0
 90
        1
176
     0
 90
        6
176
     0
 90
        2
176
     0
 62
     7
176
     0
 90
        5
176
     0
 90
        0
176
     0
 90
        0
176
     0
290
     0
176
     0
 90
        1
176
     0
 40
0.0
176
     0
 90
        0
176
     0
290
     0
176
     0
290
     1
176
     0
290
     1
176
     0
290
     0
176
     0
290
     0
176
     0
290
     0
176
     0
290
     0
176
     0
290
     0
176
     0
290
     0
176
     0
 90
       50
176
     0
 40
0.0
176
     0
 40
1.0
176
     0
 90
        0
176
     0
 62
    18
420
        0
176
     0
 90
       50
176
     0
 90
        3
176
     0
 62
     5
420
      255
176
     0
290
     0
176
     0
 90
       50
176
     0
 90
       50
176
     0
 90
       50
176
     0
290
     0
176
     0
 90
       50
176
     0
 62
   256
176
     0
 40
1.0
176
     0
 90
        2
176
     0
  1
strokes_ogs.tif
176
     0
290
     0
176
     0
 40
1.0
176
     0
 40
1.0
176
     0
  0
VISUALSTYLE
  5
16D4
102
{ACAD_REACTORS
330
16CB
102
}
330
16CB
100
AcDbVisualStyle
  2
Realistic
 70
     8
177
     3
291
     0
 70
    58
 90
        2
176
     1
 90
        3
176
     1
 90
        0
176
     1
 90
        2
176
     1
 40
0.6
176
     1
 40
30.0
176
     1
 62
     7
420
 16777215
176
     1
 90
        0
176
     1
 90
        0
176
     1
 62
     7
176
     1
 62
   257
176
     1
 90
        1
176
     1
 90
        1
176
     1
 40
1.0
176
     1
 90
        8
176
     1
 62
   257
176
     1
 40
1.0
176
     1
 90
        1
176
     1
 90
        6
176
     1
 90
        2
176
     1
 62
     7
176
     1
 90
        3
176
     1
 90
        0
176
     1
 90
        0
176
     1
290
     0
176
     1
 90
       13
176
     1
 40
0.0
176
     1
 90
        0
176
     1
290
     0
176
     1
290
     1
176
     1
290
     1
176
     1
290
     0
176
     1
290
     0
176
     1
290
     0
176
     1
290
     0
176
     1
290
     0
176
     1
290
     0
176
     1
 90
       50
176
     1
 40
0.0
176
     1
 40
1.0
176
     1
 90
        0
176
     1
 62
    18
420
        0
176
     1
 90
       50
176
     1
 90
        3
176
     1
 62
     5
420
      255
176
     1
290
     0
176
     1
 90
       50
176
     1
 90
       50
176
     1
 90
       50
176
     1
290
     0
176
     1
 90
       50
176
     1
 62
   256
176
     0
 40
1.0
176
     0
 90
        2
176
     1
  1
strokes_ogs.tif
176
     1
290
     0
176
     1
 40
1.0
176
     1
 40
1.0
176
     1
  0
VISUALSTYLE
  5
16E3
102
{ACAD_REACTORS
330
16CB
102
}
330
16CB
100
AcDbVisualStyle
  2
Shaded
 70
    27
177
     3
291
     0
 70
    58
 90
        2
176
     1
 90
        2
176
     1
 90
        1
176
     1
 90
        2
176
     1
 40
0.6
176
     1
 40
30.0
176
     1
 62
     7
420
 16777215
176
     1
 90
        0
176
     1
 90
        4
176
     1
 62
     7
176
     1
 62
   257
176
     1
 90
        1
176
     1
 90
        1
176
     1
 40
1.0
176
     1
 90
        8
176
     1
 62
   257
176
     1
 40
1.0
176
     1
 90
        1
176
     1
 90
        6
176
     1
 90
        2
176
     1
 62
     8
420
  7895160
176
     1
 90
        3
176
     1
 90
        0
176
     1
 90
        0
176
     1
290
     0
176
     1
 90
        5
176
     1
 40
0.0
176
     1
 90
        0
176
     1
290
     0
176
     1
290
     1
176
     1
290
     1
176
     1
290
     0
176
     1
290
     0
176
     1
290
     0
176
     1
290
     0
176
     1
290
     0
176
     1
290
     0
176
     1
 90
       50
176
     1
 40
0.0
176
     1
 40
1.0
176
     1
 90
        0
176
     1
 62
    18
420
        0
176
     1
 90
       50
176
     1
 90
        3
176
     1
 62
     5
420
      255
176
     1
290
     0
176
     1
 90
       50
176
     1
 90
       50
176
     1
 90
       50
176
     1
290
     0
176
     1
 90
       50
176
     1
 62
   256
176
     0
 40
1.0
176
     0
 90
        2
176
     1
  1
strokes_ogs.tif
176
     1
290
     0
176
     1
 40
1.0
176
     1
 40
1.0
176
     1
  0
VISUALSTYLE
  5
16E2
102
{ACAD_REACTORS
330
16CB
102
}
330
16CB
100
AcDbVisualStyle
  2
Shaded with edges
 70
    26
177
     3
291
     0
 70
    58
 90
        2
176
     1
 90
        2
176
     1
 90
        1
176
     1
 90
        2
176
     1
 40
0.6
176
     1
 40
30.0
176
     1
 62
     7
420
 16777215
176
     1
 90
        1
176
     1
 90
       10
176
     1
 62
     7
176
     1
 62
   257
176
     1
 90
        2
176
     1
 90
        1
176
     1
 40
1.0
176
     1
 90
        8
176
     1
 62
   257
176
     1
 40
1.0
176
     1
 90
        1
176
     1
 90
        6
176
     1
 90
        2
176
     1
 62
     7
176
     1
 90
        3
176
     1
 90
        0
176
     1
 90
        0
176
     1
290
     0
176
     1
 90
        5
176
     1
 40
0.0
176
     1
 90
        0
176
     1
290
     0
176
     1
290
     1
176
     1
290
     1
176
     1
290
     0
176
     1
290
     0
176
     1
290
     0
176
     1
290
     0
176
     1
290
     0
176
     1
290
     0
176
     1
 90
       50
176
     1
 40
0.0
176
     1
 40
1.0
176
     1
 90
        0
176
     1
 62
    18
420
        0
176
     1
 90
       50
176
     1
 90
        3
176
     1
 62
     5
420
      255
176
     1
290
     0
176
     1
 90
       50
176
     1
 90
       50
176
     1
 90
       50
176
     1
290
     0
176
     1
 90
       50
176
     1
 62
   256
176
     0
 40
1.0
176
     0
 90
        2
176
     1
  1
strokes_ogs.tif
176
     1
290
     0
176
     1
 40
1.0
176
     1
 40
1.0
176
     1
  0
VISUALSTYLE
  5
16DF
102
{ACAD_REACTORS
330
16CB
102
}
330
16CB
100
AcDbVisualStyle
  2
Shades of Gray
 70
    23
177
     3
291
     0
 70
    58
 90
        2
176
     1
 90
        2
176
     1
 90
        3
176
     1
 90
        0
176
     1
 40
0.6
176
     1
 40
30.0
176
     1
 62
     7
420
 16777215
176
     1
 90
        2
176
     1
 90
        2
176
     1
 62
     7
176
     1
 62
     7
176
     1
 90
        1
176
     1
 90
        1
176
     1
 40
40.0
176
     1
 90
        8
176
     1
 62
     7
176
     1
 40
1.0
176
     1
 90
        1
176
     1
 90
        6
176
     1
 90
        2
176
     1
 62
     7
176
     1
 90
        3
176
     1
 90
        0
176
     1
 90
        0
176
     1
290
     0
176
     1
 90
        1
176
     1
 40
0.0
176
     1
 90
        0
176
     1
290
     0
176
     1
290
     1
176
     1
290
     1
176
     1
290
     0
176
     1
290
     0
176
     1
290
     0
176
     1
290
     0
176
     1
290
     0
176
     1
290
     0
176
     1
 90
       50
176
     1
 40
0.0
176
     1
 40
1.0
176
     1
 90
        0
176
     1
 62
    18
420
        0
176
     1
 90
       50
176
     1
 90
        3
176
     1
 62
     5
420
      255
176
     1
290
     0
176
     1
 90
       50
176
     1
 90
       50
176
     1
 90
       50
176
     1
290
     0
176
     1
 90
       50
176
     1
 62
   256
176
     0
 40
1.0
176
     0
 90
        2
176
     1
  1
strokes_ogs.tif
176
     1
290
     0
176
     1
 40
1.0
176
     1
 40
1.0
176
     1
  0
VISUALSTYLE
  5
16E0
102
{ACAD_REACTORS
330
16CB
102
}
330
16CB
100
AcDbVisualStyle
  2
Sketchy
 70
    24
177
     3
291
     0
 70
    58
 90
        1
176
     1
 90
        2
176
     1
 90
        2
176
     1
 90
        0
176
     1
 40
0.6
176
     1
 40
30.0
176
     1
 62
     7
420
 16777215
176
     1
 90
        2
176
     1
 90
        2
176
     1
 62
     7
176
     1
 62
     7
176
     1
 90
        1
176
     1
 90
        1
176
     1
 40
40.0
176
     1
 90
       11
176
     1
 62
     7
176
     1
 40
1.0
176
     1
 90
        1
176
     1
 90
        6
176
     1
 90
        2
176
     1
 62
     7
176
     1
 90
        6
176
     1
 90
        0
176
     1
 90
        0
176
     1
290
     0
176
     1
 90
        1
176
     1
 40
0.0
176
     1
 90
        0
176
     1
290
     0
176
     1
290
     1
176
     1
290
     1
176
     1
290
     0
176
     1
290
     0
176
     1
290
     0
176
     1
290
     0
176
     1
290
     0
176
     1
290
     0
176
     1
 90
       50
176
     1
 40
0.0
176
     1
 40
1.0
176
     1
 90
        0
176
     1
 62
    18
420
        0
176
     1
 90
       50
176
     1
 90
        3
176
     1
 62
     5
420
      255
176
     1
290
     0
176
     1
 90
       50
176
     1
 90
       50
176
     1
 90
       50
176
     1
290
     0
176
     1
 90
       50
176
     1
 62
   256
176
     0
 40
1.0
176
     0
 90
        2
176
     1
  1
strokes_ogs.tif
176
     1
290
     0
176
     1
 40
1.0
176
     1
 40
1.0
176
     1
  0
VISUALSTYLE
  5
16D8
102
{ACAD_REACTORS
330
16CB
102
}
330
16CB
100
AcDbVisualStyle
  2
Thicken
 70
    13
177
     3
291
     1
 70
    58
 90
        2
176
     1
 90
        2
176
     1
 90
        0
176
     1
 90
        0
176
     1
 40
0.6
176
     1
 40
30.0
176
     1
 62
     7
420
 16777215
176
     1
 90
        1
176
     1
 90
        4
176
     1
 62
     7
176
     1
 62
   257
176
     1
 90
        1
176
     1
 90
        1
176
     1
 40
1.0
176
     1
 90
       12
176
     1
 62
     7
176
     1
 40
1.0
176
     1
 90
        1
176
     1
 90
        6
176
     1
 90
        2
176
     1
 62
     7
176
     1
 90
        5
176
     1
 90
        0
176
     1
 90
        0
176
     1
290
     0
176
     1
 90
        1
176
     1
 40
0.0
176
     1
 90
        0
176
     1
290
     0
176
     1
290
     1
176
     1
290
     1
176
     1
290
     0
176
     1
290
     0
176
     1
290
     0
176
     1
290
     0
176
     1
290
     0
176
     1
290
     0
176
     1
 90
       50
176
     1
 40
0.0
176
     1
 40
1.0
176
     1
 90
        0
176
     1
 62
    18
420
        0
176
     1
 90
       50
176
     1
 90
        3
176
     1
 62
     5
420
      255
176
     1
290
     0
176
     1
 90
       50
176
     1
 90
       50
176
     1
 90
       50
176
     1
290
     0
176
     1
 90
       50
176
     1
 62
   256
176
     0
 40
1.0
176
     0
 90
        2
176
     1
  1
strokes_ogs.tif
176
     1
290
     0
176
     1
 40
1.0
176
     1
 40
1.0
176
     1
  0
VISUALSTYLE
  5
16D1
102
{ACAD_REACTORS
330
16CB
102
}
330
16CB
100
AcDbVisualStyle
  2
Wireframe
 70
     5
177
     3
291
     0
 70
    58
 90
        0
176
     1
 90
        2
176
     1
 90
        0
176
     1
 90
        0
176
     1
 40
0.6
176
     1
 40
30.0
176
     1
 62
     7
420
 16777215
176
     1
 90
        1
176
     1
 90
        4
176
     1
 62
     7
176
     1
 62
   257
176
     1
 90
        1
176
     1
 90
        1
176
     1
 40
1.0
176
     1
 90
        0
176
     1
 62
   257
176
     1
 40
1.0
176
     1
 90
        1
176
     1
 90
        6
176
     1
 90
        2
176
     1
 62
     7
176
     1
 90
        3
176
     1
 90
        0
176
     1
 90
        0
176
     1
290
     0
176
     1
 90
        1
176
     1
 40
0.0
176
     1
 90
        0
176
     1
290
     0
176
     1
290
     1
176
     1
290
     1
176
     1
290
     0
176
     1
290
     0
176
     1
290
     0
176
     1
290
     0
176
     1
290
     0
176
     1
290
     0
176
     1
 90
       50
176
     1
 40
0.0
176
     1
 40
1.0
176
     1
 90
        0
176
     1
 62
    18
420
        0
176
     1
 90
       50
176
     1
 90
        3
176
     1
 62
     5
420
      255
176
     1
290
     0
176
     1
 90
       50
176
     1
 90
       50
176
     1
 90
       50
176
     1
290
     0
176
     1
 90
       50
176
     1
 62
   256
176
     0
 40
1.0
176
     0
 90
        2
176
     1
  1
strokes_ogs.tif
176
     1
290
     0
176
     1
 40
1.0
176
     1
 40
1.0
176
     1
  0
VISUALSTYLE
  5
16E1
102
{ACAD_REACTORS
330
16CB
102
}
330
16CB
100
AcDbVisualStyle
  2
X-Ray
 70
    25
177
     3
291
     0
 70
    58
 90
        2
176
     1
 90
        2
176
     1
 90
        1
176
     1
 90
        1
176
     1
 40
0.5
176
     1
 40
30.0
176
     1
 62
     7
420
 16777215
176
     1
 90
        1
176
     1
 90
        0
176
     1
 62
     7
176
     1
 62
   257
176
     1
 90
        1
176
     1
 90
        1
176
     1
 40
1.0
176
     1
 90
        8
176
     1
 62
     7
176
     1
 40
1.0
176
     1
 90
        1
176
     1
 90
        6
176
     1
 90
        2
176
     1
 62
     7
176
     1
 90
        3
176
     1
 90
        0
176
     1
 90
        0
176
     1
290
     0
176
     1
 90
       13
176
     1
 40
0.0
176
     1
 90
        0
176
     1
290
     0
176
     1
290
     1
176
     1
290
     1
176
     1
290
     0
176
     1
290
     0
176
     1
290
     0
176
     1
290
     0
176
     1
290
     0
176
     1
290
     0
176
     1
 90
       50
176
     1
 40
0.0
176
     1
 40
1.0
176
     1
 90
        0
176
     1
 62
    18
420
        0
176
     1
 90
       50
176
     1
 90
        3
176
     1
 62
     5
420
      255
176
     1
290
     0
176
     1
 90
       50
176
     1
 90
       50
176
     1
 90
       50
176
     1
290
     0
176
     1
 90
       50
176
     1
 62
   256
176
     0
 40
1.0
176
     0
 90
        2
176
     1
  1
strokes_ogs.tif
176
     1
290
     0
176
     1
 40
1.0
176
     1
 40
1.0
176
     1
  0
DICTIONARYVAR
  5
17A5
102
{ACAD_REACTORS
330
17A4
102
}
330
17A4
100
DictionaryVariables
280
     0
  1
1:1
  0
DICTIONARYVAR
  5
17AA
102
{ACAD_REACTORS
330
17A4
102
}
330
17A4
100
DictionaryVariables
280
     0
  1
Standard
  0
DICTIONARYVAR
  5
17A9
102
{ACAD_REACTORS
330
17A4
102
}
330
17A4
100
DictionaryVariables
280
     0
  1
Standard
  0
XRECORD
  5
1712
102
{ACAD_REACTORS
330
1710
102
}
330
1710
100
AcDbXrecord
280
     1
1000
GCodeMM
  0
XRECORD
  5
1713
102
{ACAD_REACTORS
330
1710
102
}
330
1710
100
AcDbXrecord
280
     1
1000
#ffffff
  0
XRECORD
  5
1714
102
{ACAD_REACTORS
330
1710
102
}
330
1710
100
AcDbXrecord
280
     1
1000
BlackWhite
  0
XRECORD
  5
1715
102
{ACAD_REACTORS
330
1710
102
}
330
1710
100
AcDbXrecord
280
     1
 90
        0
  0
XRECORD
  5
1716
102
{ACAD_REACTORS
330
1710
102
}
330
1710
100
AcDbXrecord
280
     1
 90
        0
  0
XRECORD
  5
1717
102
{ACAD_REACTORS
330
1710
102
}
330
1710
100
AcDbXrecord
280
     1
 90
       46
  0
XRECORD
  5
1718
102
{ACAD_REACTORS
330
1710
102
}
330
1710
100
AcDbXrecord
280
     1
1000
Standard
  0
XRECORD
  5
1719
102
{ACAD_REACTORS
330
1710
102
}
330
1710
100
AcDbXrecord
280
     1
290
     1
  0
XRECORD
  5
171A
102
{ACAD_REACTORS
330
1710
102
}
330
1710
100
AcDbXrecord
280
     1
 90
        2
  0
XRECORD
  5
171B
102
{ACAD_REACTORS
330
1710
102
}
330
1710
100
AcDbXrecord
280
     1
 90
        4
  0
XRECORD
  5
171C
102
{ACAD_REACTORS
330
1710
102
}
330
1710
100
AcDbXrecord
280
     1
290
     0
  0
XRECORD
  5
171D
102
{ACAD_REACTORS
330
1710
102
}
330
1710
100
AcDbXrecord
280
     1
290
     1
  0
XRECORD
  5
171E
102
{ACAD_REACTORS
330
1710
102
}
330
1710
100
AcDbXrecord
280
     1
290
     1
  0
XRECORD
  5
171F
102
{ACAD_REACTORS
330
1710
102
}
330
1710
100
AcDbXrecord
280
     1
290
     1
  0
XRECORD
  5
1720
102
{ACAD_REACTORS
330
1710
102
}
330
1710
100
AcDbXrecord
280
     1
1000
auto
  0
XRECORD
  5
1721
102
{ACAD_REACTORS
330
1710
102
}
330
1710
100
AcDbXrecord
280
     1
1000
auto
  0
XRECORD
  5
1722
102
{ACAD_REACTORS
330
1710
102
}
330
1710
100
AcDbXrecord
280
     1
1000
auto
  0
XRECORD
  5
1723
102
{ACAD_REACTORS
330
1710
102
}
330
1710
100
AcDbXrecord
280
     1
1000
auto
  0
XRECORD
  5
1724
102
{ACAD_REACTORS
330
1710
102
}
330
1710
100
AcDbXrecord
280
     1
1000
auto
  0
XRECORD
  5
1725
102
{ACAD_REACTORS
330
1710
102
}
330
1710
100
AcDbXrecord
280
     1
1000
auto
  0
XRECORD
  5
1726
102
{ACAD_REACTORS
330
1710
102
}
330
1710
100
AcDbXrecord
280
     1
1000
auto
  0
XRECORD
  5
1727
102
{ACAD_REACTORS
330
1710
102
}
330
1710
100
AcDbXrecord
280
     1
1000
auto
  0
XRECORD
  5
1728
102
{ACAD_REACTORS
330
1710
102
}
330
1710
100
AcDbXrecord
280
     1
290
     0
  0
XRECORD
  5
1729
102
{ACAD_REACTORS
330
1710
102
}
330
1710
100
AcDbXrecord
280
     1
290
     0
  0
XRECORD
  5
172A
102
{ACAD_REACTORS
330
1710
102
}
330
1710
100
AcDbXrecord
280
     1
290
     0
  0
XRECORD
  5
172B
102
{ACAD_REACTORS
330
1710
102
}
330
1710
100
AcDbXrecord
280
     1
290
     0
  0
XRECORD
  5
172C
102
{ACAD_REACTORS
330
1710
102
}
330
1710
100
AcDbXrecord
280
     1
 90
    65537
  0
XRECORD
  5
172D
102
{ACAD_REACTORS
330
1710
102
}
330
1710
100
AcDbXrecord
280
     1
 90
    65537
  0
XRECORD
  5
172E
102
{ACAD_REACTORS
330
1710
102
}
330
1710
100
AcDbXrecord
280
     1
 90
    65537
  0
XRECORD
  5
172F
102
{ACAD_REACTORS
330
1710
102
}
330
1710
100
AcDbXrecord
280
     1
 90
    65537
  0
XRECORD
  5
1730
102
{ACAD_REACTORS
330
1710
102
}
330
1710
100
AcDbXrecord
280
     1
1000
auto
  0
XRECORD
  5
1731
102
{ACAD_REACTORS
330
1710
102
}
330
1710
100
AcDbXrecord
280
     1
1000
auto
  0
XRECORD
  5
1732
102
{ACAD_REACTORS
330
1710
102
}
330
1710
100
AcDbXrecord
280
     1
1000
auto
  0
XRECORD
  5
1733
102
{ACAD_REACTORS
330
1710
102
}
330
1710
100
AcDbXrecord
280
     1
1000
auto
  0
XRECORD
  5
1734
102
{ACAD_REACTORS
330
1710
102
}
330
1710
100
AcDbXrecord
280
     1
1000
auto
  0
XRECORD
  5
1735
102
{ACAD_REACTORS
330
1710
102
}
330
1710
100
AcDbXrecord
280
     1
1000
auto
  0
XRECORD
  5
1736
102
{ACAD_REACTORS
330
1710
102
}
330
1710
100
AcDbXrecord
280
     1
1000
auto
  0
XRECORD
  5
1737
102
{ACAD_REACTORS
330
1710
102
}
330
1710
100
AcDbXrecord
280
     1
1000
auto
  0
XRECORD
  5
1738
102
{ACAD_REACTORS
330
1710
102
}
330
1710
100
AcDbXrecord
280
     1
 90
        1
  0
XRECORD
  5
1739
102
{ACAD_REACTORS
330
1710
102
}
330
1710
100
AcDbXrecord
280
     1
 40
10.0
  0
XRECORD
  5
173A
102
{ACAD_REACTORS
330
1710
102
}
330
1710
100
AcDbXrecord
280
     1
 40
10.0
  0
XRECORD
  5
173B
102
{ACAD_REACTORS
330
1710
102
}
330
1710
100
AcDbXrecord
280
     1
 40
10.0
  0
XRECORD
  5
173C
102
{ACAD_REACTORS
330
1710
102
}
330
1710
100
AcDbXrecord
280
     1
 40
10.0
  0
XRECORD
  5
173D
102
{ACAD_REACTORS
330
1710
102
}
330
1710
100
AcDbXrecord
280
     1
290
     0
  0
XRECORD
  5
173E
102
{ACAD_REACTORS
330
1710
102
}
330
1710
100
AcDbXrecord
280
     1
 90
        1
  0
XRECORD
  5
173F
102
{ACAD_REACTORS
330
1710
102
}
330
1710
100
AcDbXrecord
280
     1
 40
525.4159037230519
  0
XRECORD
  5
1740
102
{ACAD_REACTORS
330
1710
102
}
330
1710
100
AcDbXrecord
280
     1
 40
-538.2333718895944
  0
XRECORD
  5
1741
102
{ACAD_REACTORS
330
1710
102
}
330
1710
100
AcDbXrecord
280
     1
1000
Portrait
  0
XRECORD
  5
1742
102
{ACAD_REACTORS
330
1710
102
}
330
1710
100
AcDbXrecord
280
     1
 40
297.0
  0
XRECORD
  5
1743
102
{ACAD_REACTORS
330
1710
102
}
330
1710
100
AcDbXrecord
280
     1
1000
ISO A4
  0
XRECORD
  5
1744
102
{ACAD_REACTORS
330
1710
102
}
330
1710
100
AcDbXrecord
280
     1
 40
210.0
  0
XRECORD
  5
1745
102
{ACAD_REACTORS
330
1710
102
}
330
1710
100
AcDbXrecord
280
     1
1000
0.5
  0
XRECORD
  5
1746
102
{ACAD_REACTORS
330
1710
102
}
330
1710
100
AcDbXrecord
280
     1
1000
1:1
  0
XRECORD
  5
1747
102
{ACAD_REACTORS
330
1710
102
}
330
1710
100
AcDbXrecord
280
     1
290
     1
  0
XRECORD
  5
1748
102
{ACAD_REACTORS
330
1710
102
}
330
1710
100
AcDbXrecord
280
     1
1000
3.21.3
  0
XRECORD
  5
1749
102
{ACAD_REACTORS
330
1710
102
}
330
1710
100
AcDbXrecord
280
     1
 90
        4
  0
XRECORD
  5
174A
102
{ACAD_REACTORS
330
1710
102
}
330
1710
100
AcDbXrecord
280
     1
  0
XRECORD
  5
174B
102
{ACAD_REACTORS
330
1710
102
}
330
1710
100
AcDbXrecord
280
     1
 40
1509.546001424604
  0
XRECORD
  5
174C
102
{ACAD_REACTORS
330
1710
102
}
330
1710
100
AcDbXrecord
280
     1
 40
2416.261848434145
  0
DICTIONARY
  5
17A6
330
170B
100
AcDbDictionary
280
     1
281
     1
  3
ACAD_ROUNDTRIP_2008_TABLESTYLE_CELLSTYLEMAP
360
17A7
  0
CELLSTYLEMAP
  5
17A7
102
{ACAD_REACTORS
330
17A6
102
}
330
17A6
100
AcDbCellStyleMap
 90
        3
300
CELLSTYLE
  1
TABLEFORMAT_BEGIN
 90
        5
170
     1
 91
        0
 92
    32768
 62
   257
 93
        1
300
CONTENTFORMAT
  1
CONTENTFORMAT_BEGIN
 90
        0
 91
        0
 92
        4
 93
        0
300

 40
0.0
140
1.0
 94
        5
 62
     0
340
16B3
144
0.25
309
CONTENTFORMAT_END
171
     1
301
MARGIN
  1
CELLMARGIN_BEGIN
 40
0.06
 40
0.06
 40
0.06
 40
0.06
 40
0.06
 40
0.06
309
CELLMARGIN_END
 94
        6
 95
        1
302
GRIDFORMAT
  1
GRIDFORMAT_BEGIN
 90
        0
 91
        1
 62
     0
 92
       -2
340
16B5
 93
        0
 40
0.045
309
GRIDFORMAT_END
 95
        2
302
GRIDFORMAT
  1
GRIDFORMAT_BEGIN
 90
        0
 91
        1
 62
     0
 92
       -2
340
16B5
 93
        0
 40
0.045
309
GRIDFORMAT_END
 95
        4
302
GRIDFORMAT
  1
GRIDFORMAT_BEGIN
 90
        0
 91
        1
 62
     0
 92
       -2
340
16B5
 93
        0
 40
0.045
309
GRIDFORMAT_END
 95
        8
302
GRIDFORMAT
  1
GRIDFORMAT_BEGIN
 90
        0
 91
        1
 62
     0
 92
       -2
340
16B5
 93
        0
 40
0.045
309
GRIDFORMAT_END
 95
       16
302
GRIDFORMAT
  1
GRIDFORMAT_BEGIN
 90
        0
 91
        1
 62
     0
 92
       -2
340
16B5
 93
        0
 40
0.045
309
GRIDFORMAT_END
 95
       32
302
GRIDFORMAT
  1
GRIDFORMAT_BEGIN
 90
        0
 91
        1
 62
     0
 92
       -2
340
16B5
 93
        0
 40
0.045
309
GRIDFORMAT_END
309
TABLEFORMAT_END
  1
CELLSTYLE_BEGIN
 90
        1
 91
        1
300
_TITLE
309
CELLSTYLE_END
300
CELLSTYLE
  1
TABLEFORMAT_BEGIN
 90
        5
170
     1
 91
        0
 92
        0
 62
   257
 93
        1
300
CONTENTFORMAT
  1
CONTENTFORMAT_BEGIN
 90
        0
 91
        0
 92
        4
 93
        0
300

 40
0.0
140
1.0
 94
        5
 62
     0
340
16B3
144
0.18
309
CONTENTFORMAT_END
171
     1
301
MARGIN
  1
CELLMARGIN_BEGIN
 40
0.06
 40
0.06
 40
0.06
 40
0.06
 40
0.06
 40
0.06
309
CELLMARGIN_END
 94
        6
 95
        1
302
GRIDFORMAT
  1
GRIDFORMAT_BEGIN
 90
        0
 91
        1
 62
     0
 92
       -2
340
16B5
 93
        0
 40
0.045
309
GRIDFORMAT_END
 95
        2
302
GRIDFORMAT
  1
GRIDFORMAT_BEGIN
 90
        0
 91
        1
 62
     0
 92
       -2
340
16B5
 93
        0
 40
0.045
309
GRIDFORMAT_END
 95
        4
302
GRIDFORMAT
  1
GRIDFORMAT_BEGIN
 90
        0
 91
        1
 62
     0
 92
       -2
340
16B5
 93
        0
 40
0.045
309
GRIDFORMAT_END
 95
        8
302
GRIDFORMAT
  1
GRIDFORMAT_BEGIN
 90
        0
 91
        1
 62
     0
 92
       -2
340
16B5
 93
        0
 40
0.045
309
GRIDFORMAT_END
 95
       16
302
GRIDFORMAT
  1
GRIDFORMAT_BEGIN
 90
        0
 91
        1
 62
     0
 92
       -2
340
16B5
 93
        0
 40
0.045
309
GRIDFORMAT_END
 95
       32
302
GRIDFORMAT
  1
GRIDFORMAT_BEGIN
 90
        0
 91
        1
 62
     0
 92
       -2
340
16B5
 93
        0
 40
0.045
309
GRIDFORMAT_END
309
TABLEFORMAT_END
  1
CELLSTYLE_BEGIN
 90
        2
 91
        1
300
_HEADER
309
CELLSTYLE_END
300
CELLSTYLE
  1
TABLEFORMAT_BEGIN
 90
        5
170
     1
 91
        0
 92
        0
 62
   257
 93
        1
300
CONTENTFORMAT
  1
CONTENTFORMAT_BEGIN
 90
        0
 91
        0
 92
        4
 93
        0
300

 40
0.0
140
1.0
 94
        2
 62
     0
340
16B3
144
0.18
309
CONTENTFORMAT_END
171
     1
301
MARGIN
  1
CELLMARGIN_BEGIN
 40
0.06
 40
0.06
 40
0.06
 40
0.06
 40
0.06
 40
0.06
309
CELLMARGIN_END
 94
        6
 95
        1
302
GRIDFORMAT
  1
GRIDFORMAT_BEGIN
 90
        0
 91
        1
 62
     0
 92
       -2
340
16B5
 93
        0
 40
0.045
309
GRIDFORMAT_END
 95
        2
302
GRIDFORMAT
  1
GRIDFORMAT_BEGIN
 90
        0
 91
        1
 62
     0
 92
       -2
340
16B5
 93
        0
 40
0.045
309
GRIDFORMAT_END
 95
        4
302
GRIDFORMAT
  1
GRIDFORMAT_BEGIN
 90
        0
 91
        1
 62
     0
 92
       -2
340
16B5
 93
        0
 40
0.045
309
GRIDFORMAT_END
 95
        8
302
GRIDFORMAT
  1
GRIDFORMAT_BEGIN
 90
        0
 91
        1
 62
     0
 92
       -2
340
16B5
 93
        0
 40
0.045
309
GRIDFORMAT_END
 95
       16
302
GRIDFORMAT
  1
GRIDFORMAT_BEGIN
 90
        0
 91
        1
 62
     0
 92
       -2
340
16B5
 93
        0
 40
0.045
309
GRIDFORMAT_END
 95
       32
302
GRIDFORMAT
  1
GRIDFORMAT_BEGIN
 90
        0
 91
        1
 62
     0
 92
       -2
340
16B5
 93
        0
 40
0.045
309
GRIDFORMAT_END
309
TABLEFORMAT_END
  1
CELLSTYLE_BEGIN
 90
        3
 91
        2
300
_DATA
309
CELLSTYLE_END
  0
ENDSEC
  0
EOF
